<svg viewBox="0 0 330 200" xmlns="http://www.w3.org/2000/svg"><g><g><g><g><g><line x1="30.766000747680664" y1="176.5999994277954" x2="25.766000747680664" y2="176.5999994277954" style="visibility: inherit;" fill="rgb(0, 0, 0)" stroke="rgb(204, 204, 204)" stroke-width="1px"></line><line x1="30.766000747680664" y1="163.98571375438146" x2="25.766000747680664" y2="163.98571375438146" style="visibility: inherit;" fill="rgb(0, 0, 0)" stroke="rgb(204, 204, 204)" stroke-width="1px"></line><line x1="30.766000747680664" y1="151.37142808096752" x2="25.766000747680664" y2="151.37142808096752" style="visibility: inherit;" fill="rgb(0, 0, 0)" stroke="rgb(204, 204, 204)" stroke-width="1px"></line><line x1="30.766000747680664" y1="138.75714240755354" x2="25.766000747680664" y2="138.75714240755354" style="visibility: inherit;" fill="rgb(0, 0, 0)" stroke="rgb(204, 204, 204)" stroke-width="1px"></line><line x1="30.766000747680664" y1="126.14285673413958" x2="25.766000747680664" y2="126.14285673413958" style="visibility: inherit;" fill="rgb(0, 0, 0)" stroke="rgb(204, 204, 204)" stroke-width="1px"></line><line x1="30.766000747680664" y1="113.52857106072561" x2="25.766000747680664" y2="113.52857106072561" style="visibility: inherit;" fill="rgb(0, 0, 0)" stroke="rgb(204, 204, 204)" stroke-width="1px"></line><line x1="30.766000747680664" y1="100.91428538731165" x2="25.766000747680664" y2="100.91428538731165" style="visibility: inherit;" fill="rgb(0, 0, 0)" stroke="rgb(204, 204, 204)" stroke-width="1px"></line><line x1="30.766000747680664" y1="88.2999997138977" x2="25.766000747680664" y2="88.2999997138977" style="visibility: inherit;" fill="rgb(0, 0, 0)" stroke="rgb(204, 204, 204)" stroke-width="1px"></line><line x1="30.766000747680664" y1="75.68571404048376" x2="25.766000747680664" y2="75.68571404048376" style="visibility: inherit;" fill="rgb(0, 0, 0)" stroke="rgb(204, 204, 204)" stroke-width="1px"></line><line x1="30.766000747680664" y1="63.07142836706978" x2="25.766000747680664" y2="63.07142836706978" style="visibility: inherit;" fill="rgb(0, 0, 0)" stroke="rgb(204, 204, 204)" stroke-width="1px"></line><line x1="30.766000747680664" y1="50.457142693655825" x2="25.766000747680664" y2="50.457142693655825" style="visibility: inherit;" fill="rgb(0, 0, 0)" stroke="rgb(204, 204, 204)" stroke-width="1px"></line><line x1="30.766000747680664" y1="37.84285702024188" x2="25.766000747680664" y2="37.84285702024188" style="visibility: inherit;" fill="rgb(0, 0, 0)" stroke="rgb(204, 204, 204)" stroke-width="1px"></line><line x1="30.766000747680664" y1="25.228571346827923" x2="25.766000747680664" y2="25.228571346827923" style="visibility: inherit;" fill="rgb(0, 0, 0)" stroke="rgb(204, 204, 204)" stroke-width="1px"></line><line x1="30.766000747680664" y1="12.614285673413953" x2="25.766000747680664" y2="12.614285673413953" style="visibility: inherit;" fill="rgb(0, 0, 0)" stroke="rgb(204, 204, 204)" stroke-width="1px"></line><line x1="30.766000747680664" y1="0" x2="25.766000747680664" y2="0" style="visibility: inherit;" fill="rgb(0, 0, 0)" stroke="rgb(204, 204, 204)" stroke-width="1px"></line></g><g transform="translate(20.766000747680664, 0)"><text style="text-anchor: end; visibility: hidden; font-family: Roboto, sans-serif; font-size: 12px; font-weight: 200;" x="0" y="176.5999994277954" dx="0em" dy="0.3em" fill="rgb(33, 33, 33)" stroke="none" stroke-width="1px">-5</text><text style="text-anchor: end; visibility: inherit; font-family: Roboto, sans-serif; font-size: 12px; font-weight: 200;" x="0" y="163.98571375438146" dx="0em" dy="0.3em" fill="rgb(33, 33, 33)" stroke="none" stroke-width="1px">0</text><text style="text-anchor: end; visibility: hidden; font-family: Roboto, sans-serif; font-size: 12px; font-weight: 200;" x="0" y="151.37142808096752" dx="0em" dy="0.3em" fill="rgb(33, 33, 33)" stroke="none" stroke-width="1px">5</text><text style="text-anchor: end; visibility: inherit; font-family: Roboto, sans-serif; font-size: 12px; font-weight: 200;" x="0" y="138.75714240755354" dx="0em" dy="0.3em" fill="rgb(33, 33, 33)" stroke="none" stroke-width="1px">10</text><text style="text-anchor: end; visibility: hidden; font-family: Roboto, sans-serif; font-size: 12px; font-weight: 200;" x="0" y="126.14285673413958" dx="0em" dy="0.3em" fill="rgb(33, 33, 33)" stroke="none" stroke-width="1px">15</text><text style="text-anchor: end; visibility: inherit; font-family: Roboto, sans-serif; font-size: 12px; font-weight: 200;" x="0" y="113.52857106072561" dx="0em" dy="0.3em" fill="rgb(33, 33, 33)" stroke="none" stroke-width="1px">20</text><text style="text-anchor: end; visibility: hidden; font-family: Roboto, sans-serif; font-size: 12px; font-weight: 200;" x="0" y="100.91428538731165" dx="0em" dy="0.3em" fill="rgb(33, 33, 33)" stroke="none" stroke-width="1px">25</text><text style="text-anchor: end; visibility: inherit; font-family: Roboto, sans-serif; font-size: 12px; font-weight: 200;" x="0" y="88.2999997138977" dx="0em" dy="0.3em" fill="rgb(33, 33, 33)" stroke="none" stroke-width="1px">30</text><text style="text-anchor: end; visibility: hidden; font-family: Roboto, sans-serif; font-size: 12px; font-weight: 200;" x="0" y="75.68571404048376" dx="0em" dy="0.3em" fill="rgb(33, 33, 33)" stroke="none" stroke-width="1px">35</text><text style="text-anchor: end; visibility: inherit; font-family: Roboto, sans-serif; font-size: 12px; font-weight: 200;" x="0" y="63.07142836706978" dx="0em" dy="0.3em" fill="rgb(33, 33, 33)" stroke="none" stroke-width="1px">40</text><text style="text-anchor: end; visibility: hidden; font-family: Roboto, sans-serif; font-size: 12px; font-weight: 200;" x="0" y="50.457142693655825" dx="0em" dy="0.3em" fill="rgb(33, 33, 33)" stroke="none" stroke-width="1px">45</text><text style="text-anchor: end; visibility: inherit; font-family: Roboto, sans-serif; font-size: 12px; font-weight: 200;" x="0" y="37.84285702024188" dx="0em" dy="0.3em" fill="rgb(33, 33, 33)" stroke="none" stroke-width="1px">50</text><text style="text-anchor: end; visibility: hidden; font-family: Roboto, sans-serif; font-size: 12px; font-weight: 200;" x="0" y="25.228571346827923" dx="0em" dy="0.3em" fill="rgb(33, 33, 33)" stroke="none" stroke-width="1px">55</text><text style="text-anchor: end; visibility: inherit; font-family: Roboto, sans-serif; font-size: 12px; font-weight: 200;" x="0" y="12.614285673413953" dx="0em" dy="0.3em" fill="rgb(33, 33, 33)" stroke="none" stroke-width="1px">60</text><text style="text-anchor: end; visibility: hidden; font-family: Roboto, sans-serif; font-size: 12px; font-weight: 200;" x="0" y="0" dx="0em" dy="0.3em" fill="rgb(33, 33, 33)" stroke="none" stroke-width="1px">65</text></g><line x1="30.766000747680664" y1="0" x2="30.766000747680664" y2="176.5999994277954" fill="rgb(0, 0, 0)" stroke="rgb(204, 204, 204)" stroke-width="1px"></line></g></g><g transform="translate(30, 0)" clip-path="url(#clip_0)"><clipPath id="clip_0"><rect width="299" height="176"></rect></clipPath><g><g><g><line x1="0" y1="0" x2="0" y2="176.5999994277954" fill="rgb(0, 0, 0)" stroke="rgb(66, 66, 66)" stroke-width="1px" opacity="0.25"></line><line x1="24.936166604359943" y1="0" x2="24.936166604359943" y2="176.5999994277954" fill="rgb(0, 0, 0)" stroke="rgb(66, 66, 66)" stroke-width="1px" opacity="0.25"></line><line x1="49.87233320871989" y1="0" x2="49.87233320871989" y2="176.5999994277954" fill="rgb(0, 0, 0)" stroke="rgb(66, 66, 66)" stroke-width="1px" opacity="0.25"></line><line x1="74.80849981307983" y1="0" x2="74.80849981307983" y2="176.5999994277954" fill="rgb(0, 0, 0)" stroke="rgb(66, 66, 66)" stroke-width="1px" opacity="0.25"></line><line x1="99.74466641743977" y1="0" x2="99.74466641743977" y2="176.5999994277954" fill="rgb(0, 0, 0)" stroke="rgb(66, 66, 66)" stroke-width="1px" opacity="0.25"></line><line x1="124.68083302179973" y1="0" x2="124.68083302179973" y2="176.5999994277954" fill="rgb(0, 0, 0)" stroke="rgb(66, 66, 66)" stroke-width="1px" opacity="0.25"></line><line x1="149.61699962615967" y1="0" x2="149.61699962615967" y2="176.5999994277954" fill="rgb(0, 0, 0)" stroke="rgb(66, 66, 66)" stroke-width="1px" opacity="0.25"></line><line x1="174.55316623051962" y1="0" x2="174.55316623051962" y2="176.5999994277954" fill="rgb(0, 0, 0)" stroke="rgb(66, 66, 66)" stroke-width="1px" opacity="0.25"></line><line x1="199.48933283487955" y1="0" x2="199.48933283487955" y2="176.5999994277954" fill="rgb(0, 0, 0)" stroke="rgb(66, 66, 66)" stroke-width="1px" opacity="0.25"></line><line x1="224.4254994392395" y1="0" x2="224.4254994392395" y2="176.5999994277954" fill="rgb(0, 0, 0)" stroke="rgb(66, 66, 66)" stroke-width="1px" opacity="0.25"></line><line x1="249.36166604359946" y1="0" x2="249.36166604359946" y2="176.5999994277954" fill="rgb(0, 0, 0)" stroke="rgb(66, 66, 66)" stroke-width="1px" opacity="0.25"></line><line x1="274.29783264795935" y1="0" x2="274.29783264795935" y2="176.5999994277954" fill="rgb(0, 0, 0)" stroke="rgb(66, 66, 66)" stroke-width="1px" opacity="0.25"></line><line x1="299.23399925231934" y1="0" x2="299.23399925231934" y2="176.5999994277954" fill="rgb(0, 0, 0)" stroke="rgb(66, 66, 66)" stroke-width="1px" opacity="0.25"></line></g><g><line x1="0" y1="176.5999994277954" x2="299.23399925231934" y2="176.5999994277954" fill="rgb(0, 0, 0)" stroke="rgb(66, 66, 66)" stroke-width="1px" opacity="0.25"></line><line x1="0" y1="163.98571375438146" x2="299.23399925231934" y2="163.98571375438146" fill="rgb(0, 0, 0)" stroke="rgb(66, 66, 66)" stroke-width="1px" opacity="0.25"></line><line x1="0" y1="151.37142808096752" x2="299.23399925231934" y2="151.37142808096752" fill="rgb(0, 0, 0)" stroke="rgb(66, 66, 66)" stroke-width="1px" opacity="0.25"></line><line x1="0" y1="138.75714240755354" x2="299.23399925231934" y2="138.75714240755354" fill="rgb(0, 0, 0)" stroke="rgb(66, 66, 66)" stroke-width="1px" opacity="0.25"></line><line x1="0" y1="126.14285673413958" x2="299.23399925231934" y2="126.14285673413958" fill="rgb(0, 0, 0)" stroke="rgb(66, 66, 66)" stroke-width="1px" opacity="0.25"></line><line x1="0" y1="113.52857106072561" x2="299.23399925231934" y2="113.52857106072561" fill="rgb(0, 0, 0)" stroke="rgb(66, 66, 66)" stroke-width="1px" opacity="0.25"></line><line x1="0" y1="100.91428538731165" x2="299.23399925231934" y2="100.91428538731165" fill="rgb(0, 0, 0)" stroke="rgb(66, 66, 66)" stroke-width="1px" opacity="0.25"></line><line x1="0" y1="88.2999997138977" x2="299.23399925231934" y2="88.2999997138977" fill="rgb(0, 0, 0)" stroke="rgb(66, 66, 66)" stroke-width="1px" opacity="0.25"></line><line x1="0" y1="75.68571404048376" x2="299.23399925231934" y2="75.68571404048376" fill="rgb(0, 0, 0)" stroke="rgb(66, 66, 66)" stroke-width="1px" opacity="0.25"></line><line x1="0" y1="63.07142836706978" x2="299.23399925231934" y2="63.07142836706978" fill="rgb(0, 0, 0)" stroke="rgb(66, 66, 66)" stroke-width="1px" opacity="0.25"></line><line x1="0" y1="50.457142693655825" x2="299.23399925231934" y2="50.457142693655825" fill="rgb(0, 0, 0)" stroke="rgb(66, 66, 66)" stroke-width="1px" opacity="0.25"></line><line x1="0" y1="37.84285702024188" x2="299.23399925231934" y2="37.84285702024188" fill="rgb(0, 0, 0)" stroke="rgb(66, 66, 66)" stroke-width="1px" opacity="0.25"></line><line x1="0" y1="25.228571346827923" x2="299.23399925231934" y2="25.228571346827923" fill="rgb(0, 0, 0)" stroke="rgb(66, 66, 66)" stroke-width="1px" opacity="0.25"></line><line x1="0" y1="12.614285673413953" x2="299.23399925231934" y2="12.614285673413953" fill="rgb(0, 0, 0)" stroke="rgb(66, 66, 66)" stroke-width="1px" opacity="0.25"></line><line x1="0" y1="0" x2="299.23399925231934" y2="0" fill="rgb(0, 0, 0)" stroke="rgb(66, 66, 66)" stroke-width="1px" opacity="0.25"></line></g></g></g><g><g><line x1="0" y1="163.98571375438146" x2="299.23399925231934" y2="163.98571375438146" fill="rgb(0, 0, 0)" stroke="rgb(153, 153, 153)" stroke-width="1.5px"></line></g></g><g><g><line x1="24.936166604359943" y1="0" x2="24.936166604359943" y2="176.5999994277954" fill="rgb(0, 0, 0)" stroke="rgb(153, 153, 153)" stroke-width="1.5px"></line></g></g><g><g><g><g><g><path style="fill: none;" stroke="rgb(0, 119, 187)" stroke-width="2px" d="M25.185278908737498,163.24144003087463L25.4346405747811,162.91903089965436L25.6840022408247,162.58982968695562L25.933363906868298,162.3562270648628L26.1827255729119,162.1678579057463L26.432087238955496,162.00406091584304L26.681448904999097,161.89526602262328L26.9308105710427,161.759309792472L27.180172237086296,161.69047880848188L27.429533903129897,161.62484684972773L27.67889556917349,161.56056457056596L27.928257235217092,161.4321806820249L28.177618901260693,161.22060135319987L28.42698056730429,160.9822381440475L28.676342233347892,160.68173733719885L28.925703899391493,160.44649064945474L29.17506556543509,160.1422150963501L29.424427231478692,159.7751873592342L29.67378889752229,159.2961197573894L29.92315056356589,158.8144899982855L30.17251222960949,158.31065772012371L30.42187389565309,157.77761088042362L30.67123556169669,157.21559518992467L30.920597227740284,156.51605248579315L31.169958893783885,155.88017551513764L31.419320559827487,155.236296708171L31.668682225871084,154.68305291048696L31.918043891914685,154.02706150107107L32.16740555795829,153.20968671347836L32.41676722400189,152.42190389381665L32.666128890045485,151.24837801735822L32.91549055608908,150.35374332704419L33.16485222213268,149.58460174744917L33.414213888176285,149.03326679186523L33.66357555421988,148.04847111043907L33.91293722026348,147.215363489715L34.16229888630708,146.64873734801134L34.41166055235068,145.62716599276035L34.66102221839428,144.96795814848014L34.91038388443788,143.983483617975L35.15974555048148,143.46030928888354L35.40910721652508,143.12114788525167L35.65846888256868,142.83336195564794L35.907830548612274,142.60819887949023L36.15719221465587,142.15664724187135L36.40655388069948,141.34461886909216L36.655915546743074,140.96155688148957L36.90527721278667,140.81492689723547L37.154638878830276,140.05801549924402L37.404000544873874,139.412412269081L37.65336221091748,138.99438314414587L37.902723876961076,138.91185355188264L38.152085543004674,138.50251344533498L38.401447209048264,138.48695458947643L38.650808875091876,138.2631475867171L38.900170541135466,138.24238013326132L39.149532207179064,138.15925449502248L39.39889387322267,137.76610679162738L39.648255539266266,137.33983705002473L39.897617205309864,137.1086794321361L40.14697887135347,136.6498655288765L40.396340537397066,136.8643641410876L40.64570220344066,136.73683923418514L40.89506386948426,136.77896290219286L41.144425535527866,136.50724942636234L41.39378720157146,136.87338299380892L41.64314886761506,137.0248568639666L41.892510533658665,136.15395318534488L42.14187219970226,136.35218535784267L42.39123386574586,135.78585759055156L42.640595531789465,135.37059919908262L42.88995719783306,135.773733970437L43.13931886387666,135.8112846961041L43.388680529920265,135.58063399857141L43.63804219596386,135.57284549550377L43.88740386200746,135.50539105794581L44.13676552805106,135.39315794154263L44.38612719409466,135.07023688177745L44.63548886013826,134.4704278556863L44.88485052618185,133.84770752961077L45.13421219222546,133.7032965865804L45.38357385826905,132.68508495120125L45.63293552431265,132.94933917723685L45.882297190356255,133.3501882993429L46.13165885639985,133.35642472626782L46.38102052244345,132.69744647544795L46.630382188487054,132.90836300495738L46.87974385453065,132.4517328512937L47.12910552057425,132.6769515315074L47.37846718661785,132.9444093215472L47.62782885266145,133.02371262572828L47.87719051870505,133.15322455360752L48.12655218474865,132.82656619282133L48.37591385079225,132.7281024897889L48.62527551683585,132.4651659591123L48.87463718287945,129.9994232220956L49.12399884892305,129.36962461310455L49.37336051496665,128.67316071784543L49.622722181010246,127.35482623086065L49.87208384705385,127.29006902133995L50.12144551309745,127.15757136053509L50.370807179141046,125.85143373978148L50.620168845184644,125.75534847699551L50.86953051122825,125.43894915594547L51.118892177271846,124.9397100415621L51.368253843315436,124.22853690051858L51.61761550935905,124.13601691404978L51.86697717540264,124.58909573094738L52.116338841446236,124.29758970250245L52.36570050748984,124.40020395357182L52.61506217353344,124.42399643602661L52.864423839577036,124.35798129168866L53.11378550562064,123.56294330603043L53.36314717166424,121.36699796849818L53.612508837707836,121.55130975403269L53.86187050375143,121.44666979728883L54.11123216979504,122.09919617016213L54.360593835838635,121.22998345545312L54.60995550188223,120.64536361684206L54.85931716792584,119.82963734067373L55.108678833969435,118.55523359073528L55.35804050001303,118.43928367636877L55.60740216605664,119.16878419339298L55.856763832100235,118.39125494768106L56.10612549814383,117.79028872354638L56.35548716418744,117.86083832851237L56.604848830231035,116.47499643582388L56.85421049627463,116.57525484175923L57.10357216231822,116.48811863884447L57.352933828361834,116.07814675015096L57.602295494405425,115.0839686155263L57.85165716044902,115.2016806953661L58.10101882649263,115.69250858941551L58.350380492536225,113.0239401918736L58.59974215857982,112.8279304001144L58.84910382462343,112.045494533325L59.098465490667024,112.44538141112851L59.34782715671062,112.03442032552945L59.59718882275422,112.69888113239475L59.846550488797824,112.3582228149451L60.09591215484142,113.3853923858915L60.34527382088502,112.9507010349572L60.594635486928624,112.88321622461167L60.84399715297222,112.86693592081234L61.09335881901582,112.89589513710945L61.342720485059424,111.10389093857492L61.59208215110302,110.59382359621642L61.84144381714662,110.22134267775462L62.09080548319022,110.11686642842473L62.34016714923382,108.80735186316109L62.58952881527742,108.53375105526148L62.838890481321016,108.6761741470464L63.08825214736462,108.59959429201622L63.33761381340822,109.51360855511804L63.58697547945181,108.96577093344531L63.83633714549542,109.3105745411504L64.08569881153902,109.21564951033784L64.33506047758262,108.81082205193023L64.58442214362621,108.41807483697065L64.83378380966981,109.10734083411668L65.08314547571341,108.6540560740973L65.33250714175702,108.4002307145469L65.58186880780062,108.5896306961079L65.83123047384422,107.87644289977821L66.08059213988781,107.05441728467535L66.32995380593141,107.37869139586563L66.57931547197501,106.03186514449878L66.8286771380186,104.03841521771459L67.07803880406222,104.23386620689683L67.3274004701058,105.3904677111185L67.5767621361494,105.91221630668119L67.82612380219301,106.4164038399023L68.07548546823661,106.94521534852944L68.3248471342802,106.15816332709582L68.5742088003238,104.91778383067602L68.8235704663674,104.84498574552323L69.072932132411,103.3587707195278L69.3222937984546,103.55978284361565L69.5716554644982,102.93917896683938L69.8210171305418,103.78256624965302L70.0703787965854,103.6866143613948L70.319740462629,102.50686699489985L70.5691021286726,103.5894514269863L70.8184637947162,103.29347968176906L71.0678254607598,103.38744713904192L71.3171871268034,103.73602943352934L71.566548792847,103.85432181818864L71.8159104588906,102.22016090664489L72.0652721249342,101.90416112535229L72.3146337909778,101.39015900994839L72.56399545702139,101.31746676280878L72.813357123065,101.54824085330364L73.06271878910859,101.65329615784385L73.31208045515218,101.80854116876243L73.5614421211958,101.4210344138267L73.8108037872394,101.92322859547718L74.06016545328299,102.35999293356045L74.30952711932659,101.70947358189727L74.55888878537019,100.66482882152101L74.80825045141378,100.2441029170965L75.0576121174574,99.10074473362037L75.30697378350098,97.59520913414487L75.55633544954459,96.07886118274448L75.80569711558819,95.17321850156242L76.05505878163179,94.42069773984261L76.30442044767538,95.04104902789949L76.553782113719,94.32490272462694L76.80314377976258,94.81873260608633L77.05250544580619,94.77185381161854L77.30186711184979,94.47163945247624L77.55122877789339,94.26638938010574L77.80059044393698,92.078960760824L78.0499521099806,93.27448802383242L78.29931377602418,93.876522819091L78.54867544206779,95.09317974597747L78.79803710811139,94.58500520836353L79.04739877415497,95.25961664768019L79.29676044019858,94.76167416928197L79.5461221062422,93.99402088225287L79.79548377228578,92.62412861701684L80.04484543832938,92.88141049114346L80.29420710437297,92.49053654692615L80.54356877041657,91.90196244803174L80.79293043646018,91.98308499282007L81.04229210250377,92.30530494793936L81.29165376854738,92.13842761380661L81.54101543459097,91.29567918093606L81.79037710063457,91.97866716730273L82.03973876667817,92.5613282471965L82.28910043272178,93.9827357563928L82.53846209876536,95.03615854092881L82.78782376480898,94.07238770197088L83.03718543085257,93.33400291132281L83.28654709689617,92.54793976000543L83.53590876293977,91.3450041207468L83.78527042898338,91.40616796237296L84.03463209502696,91.48304790883077L84.28399376107058,92.55207982337356L84.53335542711417,93.7493612206859L84.78271709315777,93.42671200142838L85.03207875920137,91.49485153385899L85.28144042524498,92.23324929676899L85.53080209128856,92.07292514895218L85.78016375733218,91.92016425149346L86.02952542337576,92.52038689170297L86.27888708941936,93.06199458871964L86.52824875546297,92.31111410130511L86.77761042150655,92.57462186023696L87.02697208755016,92.55792110248238L87.27633375359376,92.44159304033967L87.52569541963736,92.97796296599259L87.77505708568096,92.89473636135223L88.02441875172457,92.70923017306575L88.27378041776815,92.37143481930264L88.52314208381176,92.56936838689576L88.77250374985536,91.65997223949475L89.02186541589896,91.85988037066683L89.27122708194256,91.7511460346694L89.52058874798617,91.80806913364248L89.76995041402975,91.07048001373482L90.01931208007336,91.42985814492559L90.26867374611696,91.77672108844146L90.51803541216056,88.91070954936053L90.76739707820416,88.72324222803978L91.01675874424777,88.30183294923776L91.26612041029135,87.64435259907253L91.51548207633496,88.24202542742113L91.76484374237856,88.2865014251826L92.01420540842214,88.70135866237456L92.26356707446575,89.07566483816885L92.51292874050934,88.24565136157413L92.76229040655295,86.568307464598L93.01165207259655,87.6283522120635L93.26101373864014,88.12517015708278L93.51037540468374,88.60263310680695L93.75973707072735,88.21524675782767L94.00909873677094,87.84967283158691L94.25846040281455,88.13874196106639L94.50782206885815,87.59168452085135L94.75718373490174,88.2086294989258L95.00654540094534,87.2392365017069L95.25590706698895,87.45921821625454L95.50526873303254,88.41046746869891L95.75463039907615,87.4369169375277L96.00399206511975,87.716980891048L96.25335373116334,86.31436548329428L96.50271539720694,87.28133232935609L96.75207706325055,86.90557396069505L97.00143872929414,86.783754978374L97.25080039533775,87.20293386110338L97.50016206138135,86.29385966959605L97.74952372742493,86.83554325312683L97.99888539346854,87.17837218789788L98.24824705951215,86.89337204167195L98.49760872555574,87.46174783436844L98.74697039159933,86.64337878794072L98.99633205764293,86.31248954623551L99.24569372368653,85.36201687884815L99.49505538973014,85.16700650172109L99.74441705577372,85.80774270645367L99.99377872181734,86.0585172975267L100.24314038786093,85.90538513502707L100.49250205390453,85.89639758223701L100.74186371994813,84.91931302279666L100.99122538599174,84.0841593873457L101.24058705203532,83.99294910964913L101.48994871807894,84.37668285570378L101.73931038412253,82.95420039534778L101.98867205016613,83.46750576322171L102.23803371620973,83.98901876509102L102.48739538225334,84.87265612234182L102.73675704829692,83.40770441348624L102.98611871434053,84.33519414498961L103.23548038038413,84.00875866685205L103.48484204642773,82.7247225247691L103.73420371247133,83.19513976801082L103.98356537851494,82.08004446848989L104.23292704455852,80.65673079947695L104.48228871060213,80.5182551343762L104.73165037664572,81.47314845748531L104.98101204268931,81.46406278496364L105.23037370873293,82.35371430542412L105.47973537477651,83.8902241783521L105.72909704082012,83.0400209004835L105.97845870686372,83.6596767270846L106.22782037290732,83.31846732430479L106.47718203895091,82.15701993566216L106.72654370499453,82.11446137403077L106.97590537103811,81.43298731342706L107.22526703708172,80.747188883358L107.47462870312532,81.65228708723794L107.72399036916892,82.6578272888342L107.97335203521251,81.46072035376962L108.22271370125613,82.05093811992515L108.47207536729971,81.35508502885126L108.72143703334332,80.10047470180821L108.97079869938692,81.15996299838667L109.22016036543052,80.5538956039912L109.46952203147411,79.6199849751907L109.71888369751773,77.24562401413102L109.96824536356131,76.71329815022503L110.21760702960492,77.51480691618298L110.46696869564852,78.25761767312696L110.7163303616921,79.1319478447215L110.96569202773571,78.8702810211046L111.2150536937793,78.57306755107356L111.46441535982291,79.20832059990906L111.7137770258665,80.314058802553L111.9631386919101,82.12047713245944L112.2125003579537,82.36452530910019L112.46186202399731,80.90081859778364L112.7112236900409,81.61143092256762L112.96058535608451,80.57765473969987L113.2099470221281,81.02377854069307L113.4593086881717,81.64185388722969L113.7086703542153,82.13341543487157L113.95803202025891,81.8834046260668L114.2073936863025,81.74929299506225L114.45675535234611,82.34590800883099L114.7061170183897,81.6557203178182L114.9554786844333,81.49266590610914L115.2048403504769,82.69443114535716L115.45420201652051,82.32404839739746L115.7035636825641,81.04428563090974L115.9529253486077,80.7332972755871L116.2022870146513,81.01246610805096L116.45164868069489,80.80315134719426L116.7010103467385,81.22351031454096L116.95037201278211,82.48830523033523L117.1997336788257,81.57274198403496L117.44909534486929,82.0989280504407L117.69845701091289,81.80857274043856L117.94781867695649,82.23730373927494L118.1971803430001,81.9931216036446L118.44654200904368,81.13157815865142L118.6959036750873,81.77391795387572L118.94526534113089,81.11615350997687L119.19462700717449,81.38037700871061L119.44398867321809,79.60378357423582L119.6933503392617,80.61820293344914L119.94271200530528,80.75749973956981L120.1920736713489,79.77160250392238L120.44143533739249,79.8215279905366L120.69079700343609,81.44016251555581L120.94015866947969,82.44394510272714L121.1895203355233,81.73455612304333L121.43888200156688,82.91983223154708L121.6882436676105,82.5743198843217L121.93760533365409,80.88871167300749L122.18696699969769,80.45372527974206L122.43632866574129,80.87329704739095L122.6856903317849,81.50079840238921L122.93505199782848,81.34210856620014L123.18441366387209,81.17004545864296L123.43377532991568,81.42918793788172L123.68313699595927,82.05275256079317L123.93249866200289,83.49211593667798L124.18186032804647,84.8102431681308L124.43122199409008,85.09677024177468L124.68058366013368,82.89278654380138L124.92994532617728,83.64884581923836L125.17930699222087,82.87954913131709L125.42866865826448,83.29307031951626L125.67803032430807,82.61599937748468L125.92739199035168,82.6123707026477L126.17675365639528,82.67163839071559L126.42611532243887,82.97001015144077L126.67547698848247,81.96760667074912L126.92483865452608,82.32271103110239L127.17420032056967,82.30566059287916L127.42356198661328,82.31069837770325L127.67292365265688,81.26821215779891L127.92228531870047,81.14115134120603L128.1716469847441,82.28986276623425L128.42100865078768,82.70067556308084L128.67037031683128,82.05281194002237L128.91973198287488,81.0194729976773L129.16909364891848,81.70343838980993L129.41845531496207,81.8302140722749L129.66781698100567,80.6967931370882L129.91717864704927,81.43981270727161L130.16654031309287,80.73914296635198L130.41590197913646,81.77901579662203L130.66526364518006,81.622641675037L130.91462531122366,80.7177398486445L131.16398697726726,79.94690939763997L131.41334864331085,79.34985091968994L131.66271030935445,77.81755161389164L131.91207197539808,77.86839275070515L132.16143364144165,78.82093939072189L132.41079530748527,79.11889125066057L132.66015697352887,80.24935890419545L132.90951863957247,80.30648210334208L133.15888030561607,79.27739293987575L133.40824197165966,79.84988877725745L133.65760363770326,80.54147185256873L133.90696530374686,81.18994406420084L134.15632696979046,82.68031978742455L134.40568863583405,82.02656654551663L134.65505030187765,81.33354172048551L134.90441196792128,81.39791786152486L135.15377363396485,82.12761370972866L135.40313530000847,80.98215307822072L135.65249696605207,81.72729556703797L135.90185863209564,82.36576353897263L136.15122029813926,81.18080516771609L136.40058196418283,80.37689532231232L136.64994363022646,80.45242333398932L136.89930529627006,79.00519261754835L137.14866696231365,79.75460465643239L137.39802862835725,80.30506183678833L137.64739029440085,79.24342948020943L137.89675196044445,79.90565709181006L138.14611362648805,81.10370991343976L138.39547529253164,79.9416756587107L138.64483695857524,80.43116116754821L138.89419862461884,80.18575855974927L139.14356029066246,80.1373178773627L139.39292195670603,81.07483089443492L139.64228362274966,79.03198656773478L139.89164528879326,79.42458906437207L140.14100695483685,79.80023923121247L140.39036862088045,79.41112349394217L140.63973028692405,76.2743856661755L140.88909195296765,77.3734999110516L141.13845361901124,75.30444647877178L141.38781528505484,76.09174142078227L141.63717695109844,76.48183164980824L141.88653861714204,76.9499771313863L142.13590028318563,75.06063960291112L142.38526194922923,75.33857883685398L142.63462361527283,75.76008796000498L142.88398528131643,72.75510046475462L143.13334694736002,72.73395665441967L143.38270861340365,72.25569897589777L143.63207027944722,72.44428692084657L143.88143194549085,72.84346637983059L144.13079361153444,73.06465927115347L144.38015527757804,74.01764737991513L144.62951694362164,75.20094456678484L144.87887860966524,75.24423346841238L145.12824027570883,75.75932998122404L145.37760194175243,76.38139955485896L145.62696360779603,76.56044518149146L145.87632527383963,77.09567230391158L146.12568693988322,76.91213544347468L146.37504860592685,77.7834722115918L146.62441027197042,78.51993432179351L146.87377193801404,76.79283621481267L147.12313360405764,77.24995702659737L147.37249527010124,77.400508657191L147.62185693614484,76.41478243246537L147.87121860218843,76.44904029976769L148.12058026823203,77.25355442059428L148.36994193427563,76.71392200771048L148.61930360031923,76.79780306172965L148.86866526636283,77.08604093689104L149.11802693240642,77.80117910227148L149.36738859845002,73.71112771905254L149.61675026449362,73.29371354981359L149.86611193053722,73.77440799434085L150.11547359658084,72.45290143042077L150.36483526262444,73.73947495848603L150.614196928668,74.71283410983729L150.8635585947116,75.48731577079312L151.11292026075523,75.67160853984582L151.36228192679883,77.13071404382423L151.61164359284243,76.49187818744323L151.861005258886,76.12856579502026L152.11036692492962,75.90890395937798L152.35972859097322,76.4782346102588L152.60909025701682,77.30688650550414L152.85845192306041,75.89363048805706L153.10781358910404,76.65200609967182L153.3571752551476,77.96866821298863L153.6065369211912,77.64981707835874L153.8558985872348,77.5554020113731L154.10526025327843,77.14561717958816L154.35462191932203,77.79610670034234L154.60398358536563,77.52282384616349L154.8533452514092,77.00788234117654L155.1027069174528,76.11810070419978L155.35206858349642,77.26328895366491L155.60143024954002,77.89787012665913L155.8507919155836,76.5804652750869L156.1001535816272,75.18013358419542L156.3495152476708,75.02589777590725L156.5988769137144,72.91622300943952L156.848238579758,72.02481387344237L157.0976002458016,71.64783718306234L157.34696191184523,67.03861470309656L157.59632357788882,68.42139963604563L157.8456852439324,67.7414019237812L158.095046909976,69.08489246942901L158.34440857601962,67.20759059221791L158.59377024206321,67.20748926982219L158.8431319081068,67.66749203130284L159.09249357415038,65.69257391639624L159.34185524019398,66.28634207812475L159.5912169062376,66.5197014939804L159.8405785722812,63.74484015799968L160.0899402383248,64.66689486783577L160.33930190436843,65.36949018480325L160.588663570412,65.95964330988575L160.8380252364556,66.8979473553337L161.0873869024992,63.17357381498419L161.3367485685428,65.97642457770375L161.5861102345864,65.98780940609757L161.83547190063,67.01095100706932L162.08483356667358,68.1223110428793L162.33419523271718,67.96248433885934L162.5835568987608,66.03894276208379L162.8329185648044,65.69371049036113L163.082280230848,64.98488831966588L163.3316418968916,65.74224588817948L163.5810035629352,65.16667058643196L163.8303652289788,65.89792504323393L164.0797268950224,63.76884193664843L164.329088561066,64.62610067240145L164.5784502271096,64.78924515877365L164.82781189315318,64.92359492405876L165.07717355919678,65.41643254056282L165.32653522524038,66.97885986090324L165.575896891284,66.5324713219325L165.8252585573276,67.81351226680272L166.0746202233712,68.60598663155375L166.32398188941477,70.42158146289236L166.57334355545837,67.15295842707016L166.822705221502,67.44415959619145L167.0720668875456,65.82941524354742L167.3214285535892,64.20143834641861L167.5707902196328,65.03546672954306L167.82015188567638,63.73432885979619L168.06951355171998,65.95249334548342L168.31887521776358,67.16010579873279L168.56823688380717,66.29892208997191L168.8175985498508,66.49951169757821L169.0669602158944,63.80633038867185L169.31632188193797,65.66725916407258L169.56568354798156,67.27785084078893L169.8150452140252,68.82321976107644L170.0644068800688,69.58399428422315L170.31376854611239,68.55750714011158L170.56313021215595,70.08194784935111L170.81249187819958,67.76378188528892L171.06185354424318,67.24626985076105L171.31121521028678,65.77965759811391L171.56057687633037,67.96788745368357L171.809938542374,68.6109853296776L172.05930020841757,69.1609721055252L172.30866187446117,65.964996079523L172.55802354050476,67.55044979468609L172.8073852065484,67.28037844344956L173.056746872592,68.17720062477592L173.30610853863558,69.25869145625168L173.55547020467915,69.58280140528994L173.80483187072275,69.83066960180994L174.05419353676638,70.33555389497101L174.30355520280997,68.05919894368787L174.55291686885357,68.87310829731354L174.80227853489717,70.28394160573805L175.05164020094077,70.86387065747128L175.30100186698436,70.05270394379575L175.55036353302796,69.14747937713508L175.79972519907156,71.17317588982341L176.04908686511519,70.33294265471766L176.29844853115878,68.94113393543726L176.54781019720235,69.31380749091201L176.79717186324595,71.0427754278586L177.04653352928958,69.17363292394012L177.29589519533317,69.56811738095585L177.54525686137677,70.24113216316636L177.79461852742034,70.80264913499548L178.04398019346394,71.6196991784649L178.29334185950756,72.07216237542617L178.54270352555116,70.79927446792054L178.79206519159476,70.03937645317767L179.04142685763838,69.69020526562521L179.29078852368195,70.42778538512941L179.54015018972555,72.24986152464479L179.78951185576915,63.81081884850282L180.03887352181275,66.44321508315619L180.28823518785637,67.59530182799772L180.53759685389997,67.25357744875481L180.78695851994354,61.99102045167317L181.03632018598714,63.494009010824804L181.28568185203076,63.702458973915434L181.53504351807436,61.43450551669494L181.78440518411796,62.18867893644384L182.03376685016156,62.935060160967545L182.28312851620515,63.67223575780847L182.53249018224875,65.56966128963788L182.78185184829235,67.07166447673228L183.03121351433595,67.63747515399102L183.28057518037957,63.77776876417902L183.52993684642314,66.12641893535654L183.77929851246674,64.58564656977664L184.02866017851034,64.94605959081741L184.27802184455396,65.86778167037524L184.52738351059756,67.15040344018244L184.77674517664116,61.228477009434876L185.02610684268473,61.856422737972366L185.27546850872832,65.70820746503146L185.52483017477195,59.384655131016345L185.77419184081555,63.89528184764878L186.02355350685914,65.99083885504213L186.27291517290277,67.82406030665769L186.52227683894634,69.43560666870458L186.77163850498994,70.7579116031708L187.02100017103353,65.46596905267592L187.27036183707713,64.93940703300123L187.51972350312076,67.3780524972808L187.76908516916436,69.98883790473953L188.01844683520793,69.79768470253595L188.26780850125152,69.43241383780247L188.51717016729515,70.28125721835089L188.76653183333875,67.9390145606657L189.01589349938234,63.328121006217394L189.2652551654259,66.62960402252573L189.51461683146954,63.93052020010276L189.76397849751314,63.890726840043826L190.01334016355673,66.4830181178769L190.26270182960033,67.89827556113532L190.51206349564396,68.59818200019244L190.76142516168753,68.35619651604465L191.01078682773112,69.40122989202966L191.26014849377472,71.37286181810722L191.50951015981835,71.25485517617754L191.75887182586195,71.96334213952103L192.00823349190554,66.3963910313917L192.2575951579491,69.23267888269056L192.5069568239927,68.13526782506283L192.75631849003634,69.25137814181124L193.00568015607993,70.59823709032456L193.25504182212353,71.00438348113398L193.50440348816713,71.88307150742739L193.75376515421073,69.45082452912693L194.00312682025432,70.81174791137578L194.25248848629792,71.75904940101063L194.50185015234152,72.27359748524789L194.75121181838514,69.12232580575213L195.00057348442874,70.225170846654L195.2499351504723,71.1931268586947L195.4992968165159,73.40009541473178L195.74865848255953,71.01610228420213L195.99802014860313,70.12904694316876L196.24738181464673,71.18642857622035L196.4967434806903,69.24363475796059L196.7461051467339,59.28763794643066L196.99546681277752,62.55685738934374L197.24482847882112,65.03437390699409L197.49419014486472,65.23495225793762L197.74355181090834,65.09282106106306L197.9929134769519,67.0957257180258L198.2422751429955,68.93780864168914L198.4916368090391,68.38705882550578L198.7409984750827,69.38428466675285L198.99036014112633,67.69012991212088L199.23972180716993,70.15753173646237L199.4890834732135,72.30772136204276L199.7384451392571,72.50965862912408L199.98780680530072,72.54168758444415L200.23716847134432,73.14390001510763L200.48653013738792,73.67434590421776L200.7358918034315,73.13823955578654L200.9852534694751,73.62629232284287L201.2346151355187,73.70489590573217L201.4839768015623,74.13247398526974L201.7333384676059,74.08485557247685L201.98270013364953,64.16109013496315L202.2320617996931,64.87048755350887L202.4814234657367,66.93737048026118L202.7307851317803,67.4240226754891L202.98014679782392,67.48943546011704L203.22950846386752,69.06978306262916L203.47887012991112,69.3871870828526L203.72823179595468,68.93839164940049L203.97759346199828,69.33789470709371L204.2269551280419,69.99474874996874L204.4763167940855,70.21033161426634L204.7256784601291,71.16327218557653L204.97504012617273,67.76438668221317L205.2244017922163,68.63184983598195L205.4737634582599,68.75440492069775L205.7231251243035,70.79994487100655L205.9724867903471,69.3753376348031L206.22184845639072,68.63798819838372L206.47121012243431,67.94075556557678L206.72057178847788,69.63433342865136L206.96993345452148,68.36227303736727L207.2192951205651,69.02813411175978L207.4686567866087,71.11641869769626L207.7180184526523,72.19856961402739L207.96738011869587,70.69708498236068L208.2167417847395,71.8468766853034L208.4661034507831,72.74877872970508L208.7154651168267,71.50500789984477L208.9648267828703,72.21711968763084L209.21418844891392,73.2606416925312L209.46355011495748,73.22101882818055L209.71291178100108,69.25897427955478L209.96227344704468,70.30243999331881L210.2116351130883,68.26820169192952L210.4609967791319,68.99874664018913L210.7103584451755,64.0863039741164L210.95972011121907,66.92973966611342L211.20908177726267,67.02179680963408L211.4584434433063,69.3390053310763L211.7078051093499,71.44107932646777L211.9571667753935,69.52107470955193L212.2065284414371,69.16394160894902L212.45589010748068,69.15265782001265L212.70525177352428,69.5343010059292L212.95461343956788,69.1095976475691L213.20397510561148,70.07255213936442L213.4533367716551,70.37912669796133L213.7026984376987,70.1804630391309L213.95206010374227,70.16116965215888L214.20142176978587,70.67654699399684L214.4507834358295,72.28900183293892L214.7001451018731,72.89472501199111L214.9495067679167,71.02607214588285L215.19886843396026,72.01435444569327L215.44823010000385,69.90067266468542L215.69759176604748,70.10483041367043L215.94695343209108,71.18732913664849L216.19631509813468,70.7263201215453L216.4456767641783,69.85740698892914L216.69503843022187,67.74562537309876L216.94440009626547,68.4553376655216L217.19376176230907,68.91442246301654L217.44312342835266,68.969576425681L217.6924850943963,70.34411061314322L217.9418467604399,69.39601263449046L218.19120842648346,69.1277660135471L218.44057009252705,70.51462634884538L218.68993175857068,68.22529258263413L218.93929342461428,67.07144306886467L219.18865509065787,68.57457510029131L219.43801675670147,68.78255663066743L219.68737842274507,68.34272818810926L219.93674008878867,68.08646961640503L220.18610175483226,63.179942793980764L220.43546342087586,63.1527311675101L220.6848250869195,63.64411014522338L220.93418675296306,65.72674537409607L221.18354841900666,65.7288326406062L221.43291008505025,64.03233196196724L221.68227175109388,65.20450395855524L221.93163341713748,66.83712054701722L222.18099508318107,68.73700105820731L222.43035674922464,70.4915505055488L222.67971841526824,71.10530934829504L222.92908008131187,70.67045718782106L223.17844174735546,64.51473398220107L223.42780341339906,66.74674343554994L223.6771650794427,67.14702580086569L223.92652674548626,67.2927062115933L224.17588841152985,69.23086726182964L224.42525007757345,69.96899730094002L224.67461174361705,71.03374773615698L224.92397340966068,70.99905074877171L225.17333507570427,69.92697096855649L225.42269674174784,69.88016419088162L225.67205840779144,70.70586266068555L225.92142007383507,71.79324108279853L226.17078173987866,72.47167175995206L226.42014340592226,67.21073236487823L226.66950507196583,68.53522255408764L226.91886673800946,68.47882883652996L227.16822840405305,64.60659009558726L227.41759007009665,66.43910697870402L227.66695173614025,66.80537982060014L227.91631340218387,65.89642427991377L228.16567506822744,67.58589759806199L228.41503673427104,68.18013021621609L228.66439840031464,65.94361812180722L228.91376006635826,64.51896507482476L229.16312173240186,65.23190040275523L229.41248339844546,67.4261550907636L229.66184506448903,69.91446585391488L229.91120673053263,70.21627919071568L230.16056839657625,71.0585887689063L230.40993006261985,69.81595464576344L230.65929172866345,70.77336026076071L230.90865339470704,71.33742076589863L231.15801506075064,71.26507699554057L231.40737672679424,71.5575209565649L231.65673839283784,73.05531067677907L231.90610005888144,71.30208909337284L232.15546172492506,70.80265664706837L232.40482339096866,69.70922296426319L232.65418505701223,70.30880530226966L232.90354672305583,70.14171763691115L233.15290838909945,69.72056705642429L233.40227005514305,69.90531975362227L233.65163172118665,65.29417976850984L233.90099338723022,68.31842331330368L234.1503550532738,69.59599008669373L234.39971671931744,70.17079994170423L234.64907838536104,70.57369529598994L234.89844005140463,71.60315146534576L235.14780171744826,70.5588624400333L235.39716338349183,70.9009255898346L235.64652504953543,71.32206485693074L235.89588671557902,72.82346870283483L236.14524838162262,74.12994115970993L236.39461004766625,73.4469604481225L236.64397171370985,74.48145368570717L236.89333337975341,74.49157381073738L237.142695045797,74.52089261489895L237.39205671184064,74.4028199770636L237.64141837788424,70.14008880901196L237.89078004392783,64.60650938507791L238.14014170997143,64.49319992000184L238.38950337601503,63.51878436069218L238.63886504205863,65.64788838060934L238.88822670810222,64.87242481110003L239.13758837414582,64.96497590229673L239.38695004018945,65.83676602062899L239.63631170623302,55.926859227980636L239.8856733722766,55.37231059884622L240.1350350383202,54.47579620436514L240.38439670436384,56.52933324765639L240.63375837040743,58.29290478602065L240.88312003645103,59.546732099095166L241.1324817024946,57.65078526797762L241.3818433685382,51.556681637407614L241.63120503458182,53.865089679960185L241.88056670062542,53.24312249232758L242.12992836666902,53.59506706527458L242.37929003271265,51.46888903871941L242.62865169875622,53.77169848569334L242.8780133647998,44.772166145016634L243.1273750308434,46.916394919672875L243.376736696887,25.735355807251278L243.62609836293063,30.942671843260946L243.87546002897423,35.09955131394344L244.1248216950178,41.676932892473914L244.3741833610614,46.48473849943845L244.62354502710502,48.097348230981936L244.87290669314862,50.25164624029301L245.12226835919222,52.40643909275537L245.3716300252358,44.9811148066959L245.62099169127941,46.705662294454584L245.870353357323,47.31747378176084L246.1197150233666,52.78057898096843L246.3690766894102,53.7244029079942L246.61843835545383,52.117840492674105L246.8678000214974,54.02541608979808L247.117161687541,53.74239790994162L247.3665233535846,57.407439296964L247.61588501962822,56.700698695314614L247.86524668567182,59.07801526512934L248.11460835171542,59.092464496160424L248.363970017759,59.53900270037668L248.61333168380258,58.850860139608194L248.8626933498462,54.0716558864506L249.1120550158898,53.54606126334819L249.3614166819334,53.23570649259262L249.610778347977,54.96847914888709L249.8601400140206,57.48981745282705L250.1095016800642,56.61840222625742L250.3588633461078,52.852641412453515L250.6082250121514,52.58714878252125L250.85758667819502,54.426121704661064L251.10694834423862,57.73919824720294L251.3563100102822,58.980457298128044L251.60567167632578,51.11050643552249L251.8550333423694,54.48347193568467L252.104395008413,55.71645183873138L252.3537566744566,56.12680853263615L252.60311834050017,56.40866416989283L252.85248000654377,47.724060235929095L253.1018416725874,40.665087815175475L253.351203338631,44.59773574256978L253.6005650046746,48.35868309904235L253.84992667071822,52.18346993403875L254.0992883367618,53.447236155815L254.34865000280539,55.491498022536L254.59801166884898,58.05242991281636L254.84737333489258,60.88708530408602L255.0967350009362,62.718167781532685L255.3460966669798,62.44906607850419L255.59545833302337,62.8700135152023L255.84481999906697,61.85042201434821L256.09418166511057,55.90456910573027L256.3435433311542,57.555790302908264L256.5929049971978,55.1383877343636L256.8422666632414,54.31599759077361L257.09162832928496,56.51745701379095L257.3409899953286,56.04460099115369L257.5903516613722,57.68944657027986L257.8397133274158,59.200469512963835L258.0890749934594,61.12006752571413L258.338436659503,60.30013933910693L258.5877983255466,63.46416612253679L258.83715999159017,62.46061201752088L259.0865216576338,61.53972730627831L259.33588332367736,59.92166715802499L259.585244989721,61.57642617228774L259.83460665576456,60.65479583429791L260.0839683218082,61.24713266633962L260.33332998785176,60.83117106490985L260.5826916538954,60.914615852328865L260.832053319939,59.85188728040616L261.0814149859826,62.35525546137083L261.33077665202615,48.87495757671243L261.58013831806977,51.234467717958154L261.8294999841134,55.29033903586082L262.07886165015697,58.30880622161838L262.3282233162006,58.87474290738465L262.57758498224416,59.356758646022136L262.8269466482878,60.48301012003041L263.07630831433136,52.30538271014001L263.325669980375,51.92104665539453L263.57503164641855,55.28176227193308L263.8243933124622,58.98681490800601L264.07375497850575,53.371381578615846L264.3231166445494,56.86305432239234L264.57247831059294,60.60085867035922L264.82183997663657,61.36436583218225L265.0712016426802,61.316391955184955L265.32056330872376,62.78701718001402L265.56992497476733,64.72374672753125L265.81928664081096,63.525057725174534L266.0686483068546,35.99404522981682L266.31800997289815,37.51877617285239L266.5673716389418,39.68383741565569L266.8167333049854,45.79283142701883L267.066094971029,50.59043163953857L267.31545663707254,53.80527724910863L267.56481830311617,56.61463398676249L267.81417996915974,57.399918177050886L268.06354163520336,38.71918613008776L268.312903301247,44.040273465881754L268.56226496729056,43.53412064269174L268.81162663333413,47.638616883235436L269.06098829937775,49.727244362243134L269.3103499654214,53.48589569999542L269.55971163146495,56.184192534136685L269.8090732975086,46.925301968811425L270.05843496355214,46.13879550444678L270.30779662959577,20.13170361577878L270.55715829563934,29.54062999343062L270.80651996168297,35.30465443256361L271.0558816277266,42.166906889784414L271.30524329377016,13.974868445197794L271.55460495981373,26.016108627590512L271.80396662585736,31.688754782395563L272.053328291901,36.262170379482484L272.30268995794455,42.04430504579372L272.5520516239882,48.980159750553284L272.80141329003175,35.910280276870594L273.0507749560753,19.003540794404874L273.30013662211894,27.74336238658684L273.54949828816257,29.920252735189898L273.79885995420614,36.50642755679443L274.04822162024976,16.08890650530953L274.29758328629333,25.891048240326068" fill="none"></path></g></g></g></g><g opacity="0.2"><g><g><g><path style="fill: none;" stroke="rgb(0, 119, 187)" stroke-width="2px" d="M25.185278908737498,163.24144003087463L25.4346405747811,162.66110359467814L25.6840022408247,162.11577994066946L25.933363906868298,161.90023474653762L26.1827255729119,161.72300529957676L26.432087238955496,161.56356494683604L26.681448904999097,161.57416616369696L26.9308105710427,161.32953322385663L27.180172237086296,161.46134656395722L27.429533903129897,161.39755490426379L27.67889556917349,161.3310444825901L27.928257235217092,160.96275749607L28.177618901260693,160.43244252095982L28.42698056730429,160.08120193145743L28.676342233347892,159.53259877081007L28.925703899391493,159.53861192645527L29.17506556543509,158.9593712656211L29.424427231478692,158.3401353303727L29.67378889752229,157.41436980878058L29.92315056356589,156.91573502719638L30.17251222960949,156.3185637702049L30.42187389565309,155.66508947888587L30.67123556169669,154.9841202033017L30.920597227740284,153.7343991543637L31.169958893783885,153.34867900888932L31.419320559827487,152.6705115017352L31.668682225871084,152.4767660268664L31.918043891914685,151.40944022302574L32.16740555795829,149.94651169421172L32.41676722400189,149.27564875464344L32.666128890045485,146.56008553020288L32.91549055608908,146.7787485789198L33.16485222213268,146.51047293603162L33.414213888176285,146.82932476970439L33.66357555421988,144.11128578767298L33.91293722026348,143.8842848012193L34.16229888630708,144.38296830398062L34.41166055235068,141.54194143210415L34.66102221839428,142.3316744198102L34.91038388443788,140.046239791508L35.15974555048148,141.36789013970372L35.40910721652508,141.76464653403065L35.65846888256868,141.68231616571043L35.907830548612274,141.70760787007882L36.15719221465587,140.35053903063434L36.40655388069948,138.09664685327098L36.655915546743074,139.42936232212787L36.90527721278667,140.22842331000862L37.154638878830276,137.03043742603103L37.404000544873874,136.83004542021496L37.65336221091748,137.3222905096496L37.902723876961076,138.58173895211513L38.152085543004674,136.86516797542518L38.401447209048264,138.42471962082806L38.650808875091876,137.36792480918874L38.900170541135466,138.1593107079394L39.149532207179064,137.82675318610697L39.39889387322267,136.19352068505552L39.648255539266266,135.63476216646714L39.897617205309864,136.1840507318217L40.14697887135347,134.81461272835912L40.396340537397066,137.7223575380339L40.64570220344066,136.22674010687956L40.89506386948426,136.94745744201646L41.144425535527866,135.42039620526944L41.39378720157146,138.33791652815276L41.64314886761506,137.63075210118816L41.892510533658665,132.6703395904486L42.14187219970226,137.1451138439639L42.39123386574586,133.5205469873346L42.640595531789465,133.70956590653068L42.88995719783306,137.38627284357926L43.13931886387666,135.9614875829544L43.388680529920265,134.65803128616977L43.63804219596386,135.541691485333L43.88740386200746,135.23557332226235L44.13676552805106,134.94422549529497L44.38612719409466,133.77855268729124L44.63548886013826,132.07119181755735L44.88485052618185,131.35682628032117L45.13421219222546,133.12565282466497L45.38357385826905,128.61223846725352L45.63293552431265,134.00635606942666L45.882297190356255,134.95358477326235L46.13165885639985,133.38137043378688L46.38102052244345,130.06153348742947L46.630382188487054,133.75202911908755L46.87974385453065,130.62521224340685L47.12910552057425,133.57782624969175L47.37846718661785,134.01424047916936L47.62782885266145,133.34092584185075L47.87719051870505,133.67127226433823L48.12655218474865,131.51993275126313L48.37591385079225,132.33424767804186L48.62527551683585,131.41341983722313L48.87463718287945,120.13645228016004L49.12399884892305,126.85043017839324L49.37336051496665,125.88730513791734L49.622722181010246,122.08148828460008L49.87208384705385,127.03104018332301L50.12144551309745,126.62758071742357L50.370807179141046,120.6268832576185L50.620168845184644,125.37100742590175L50.86953051122825,124.17335187187739L51.118892177271846,122.94275358419509L51.368253843315436,121.38384433653444L51.61761550935905,123.76593696819432L51.86697717540264,126.40141099846035L52.116338841446236,123.13156558876258L52.36570050748984,124.81066095783821L52.61506217353344,124.51916636584356L52.864423839577036,124.09392071434142L53.11378550562064,120.38279136344215L53.36314717166424,112.58321661846746L53.612508837707836,122.28855689616408L53.86187050375143,121.02810997031644L54.11123216979504,124.7093016616404L54.360593835838635,117.75313259663297L54.60995550188223,118.30688426240641L54.85931716792584,116.56673223600998L55.108678833969435,113.45761859099352L55.35804050001303,117.9754840189036L55.60740216605664,122.08678626148547L55.856763832100235,115.28113796483713L56.10612549814383,115.38642382700996L56.35548716418744,118.14303674837606L56.604848830231035,110.93162886507332L56.85421049627463,116.97628846550047L57.10357216231822,116.13957382718544L57.352933828361834,114.43825919537753L57.602295494405425,111.1072560770287L57.85165716044902,115.67252901472516L58.10101882649263,117.65582016561284L58.350380492536225,102.34966660170733L58.59974215857982,112.04389123307766L58.84910382462343,108.91575106616764L59.098465490667024,114.04492892234252L59.34782715671062,110.39057598313325L59.59718882275422,115.3567243598559L59.846550488797824,110.99558954514652L60.09591215484142,117.49407066967694L60.34527382088502,111.21193563122007L60.594635486928624,112.6132769832295L60.84399715297222,112.80181470561493L61.09335881901582,113.01173200229806L61.342720485059424,103.93587414443681L61.59208215110302,108.55355422678247L61.84144381714662,108.7314190039074L62.09080548319022,109.6989614311052L62.34016714923382,103.56929360210651L62.58952881527742,107.43934782366308L62.838890481321016,109.24586651418599L63.08825214736462,108.29327487189548L63.33761381340822,113.16966560752537L63.58697547945181,106.7744204467543L63.83633714549542,110.6897889719709L64.08569881153902,108.8359493870875L64.33506047758262,107.1915122182998L64.58442214362621,106.84708597713235L64.83378380966981,111.86440482270079L65.08314547571341,106.84091703401967L65.33250714175702,107.38492927634532L65.58186880780062,109.34723062235192L65.83123047384422,105.02369171445952L66.08059213988781,103.76631482426392L66.32995380593141,108.67578784062681L66.57931547197501,100.64456013903138L66.8286771380186,96.06461551057782L67.07803880406222,105.01567016362578L67.3274004701058,110.01687372800515L67.5767621361494,107.99921068893191L67.82612380219301,108.43315397278677L68.07548546823661,109.06046138303799L68.3248471342802,103.00995524136128L68.5742088003238,99.95626584499689L68.8235704663674,104.55379340491201L69.072932132411,97.41391061554607L69.3222937984546,104.36383133996704L69.5716554644982,100.45676345973439L69.8210171305418,107.15611538090751L70.0703787965854,103.30280680836199L70.319740462629,97.78787752892003L70.5691021286726,107.91978915533218L70.8184637947162,102.10959270090002L71.0678254607598,103.76331696813348L71.3171871268034,105.13035861147894L71.566548792847,104.32749135682586L71.8159104588906,95.68351726046984L72.0652721249342,100.64016200018192L72.3146337909778,99.3341505483327L72.56399545702139,101.02669777425037L72.813357123065,102.47133721528317L73.06271878910859,102.0735173760047L73.31208045515218,102.42952121243664L73.5614421211958,99.8710073940838L73.8108037872394,103.93200532207909L74.06016545328299,104.10705028589355L74.30952711932659,99.10739617524452L74.55888878537019,96.48624978001594L74.80825045141378,98.56119929939847L75.0576121174574,94.52731199971588L75.30697378350098,91.57306673624285L75.55633544954459,90.01346937714295L75.80569711558819,91.55064777683413L76.05505878163179,91.41061469296342L76.30442044767538,97.52245418012706L76.553782113719,91.46031751153667L76.80314377976258,96.7940521319239L77.05250544580619,94.58433863374741L77.30186711184979,93.27078201590703L77.55122877789339,93.44538909062378L77.80059044393698,83.32924628369703L78.0499521099806,98.05659707586604L78.29931377602418,96.28466200012538L78.54867544206779,99.95980745352335L78.79803710811139,92.55230705790783L79.04739877415497,97.9580624049468L79.29676044019858,92.76990425568911L79.5461221062422,90.92340773413639L79.79548377228578,87.14455955607269L80.04484543832938,93.91053798765006L80.29420710437297,90.9270407700569L80.54356877041657,89.54766605245416L80.79293043646018,92.3075751719733L81.04229210250377,93.59418476841664L81.29165376854738,91.47091827727554L81.54101543459097,87.92468544945389L81.79037710063457,94.71061911276941L82.03973876667817,94.89197256677166L82.28910043272178,99.6683657931779L82.53846209876536,99.24984967907285L82.78782376480898,90.2173043461393L83.03718543085257,90.38046374873042L83.28654709689617,89.40368715473603L83.53590876293977,86.5332615637122L83.78527042898338,91.6508233288777L84.03463209502696,91.79056769466202L84.28399376107058,96.8282074815447L84.53335542711417,98.53848680993525L84.78271709315777,92.13611512439827L85.03207875920137,83.76740966358139L85.28144042524498,95.186840348409L85.53080209128856,91.431628557685L85.78016375733218,91.30912066165862L86.02952542337576,94.92127745254096L86.27888708941936,95.22842537678642L86.52824875546297,89.30759215164686L86.77761042150655,93.62865289596434L87.02697208755016,92.49111807146406L87.27633375359376,91.97628079176883L87.52569541963736,95.12344266860433L87.77505708568096,92.56182994279081L88.02441875172457,91.96720541991976L88.27378041776815,91.02025340425021L88.52314208381176,93.36110265726825L88.77250374985536,88.02238764989066L89.02186541589896,92.65951289535516L89.27122708194256,91.31620869067967L89.52058874798617,92.03576152953475L89.76995041402975,88.1201235341042L90.01931208007336,92.86737066968865L90.26867374611696,93.1641728625049L90.51803541216056,77.446663393037L90.76739707820416,87.97337294275665L91.01675874424777,86.61619583402975L91.26612041029135,85.01443119841156L91.51548207633496,90.63271674081557L91.76484374237856,88.46440541622843L92.01420540842214,90.36078761114246L92.26356707446575,90.57288954134599L92.51292874050934,84.92559745519527L92.76229040655295,79.85893187669348L93.01165207259655,91.86853120192545L93.26101373864014,90.11244193715989L93.51037540468374,90.51248490570362L93.75973707072735,86.66570136191065L94.00909873677094,86.38737712662383L94.25846040281455,89.29501847898428L94.50782206885815,85.40345475999113L94.75718373490174,90.67640941122366L95.00654540094534,83.36166451283133L95.25590706698895,88.33914507444506L95.50526873303254,92.21546447847642L95.75463039907615,83.54271481284285L96.00399206511975,88.83723670512924L96.25335373116334,80.70390385227947L96.50271539720694,91.14919971360327L96.75207706325055,85.40254048605088L97.00143872929414,86.29647904908983L97.25080039533775,88.87964939202098L97.50016206138135,82.65756290356657L97.74952372742493,89.00227758725003L97.99888539346854,88.54968792698203L98.24824705951215,85.7533714567682L98.49760872555574,89.73525100515448L98.74697039159933,83.36990260222984L98.99633205764293,84.98893257941458L99.24569372368653,81.56012620929874L99.49505538973014,84.38696499321283L99.74441705577372,88.37068752538394L99.99377872181734,87.0616156618189L100.24314038786093,85.29285648502862L100.49250205390453,85.86044737107669L100.74186371994813,81.01097478503523L100.99122538599174,80.74354484554179L101.24058705203532,83.62810799886287L101.48994871807894,85.91161783992249L101.73931038412253,77.26427055392372L101.98867205016613,85.52072723471754L102.23803371620973,86.0750707725681L102.48739538225334,88.40720555134506L102.73675704829692,77.54789757806404L102.98611871434053,88.04515307100309L103.23548038038413,82.7030167543017L103.48484204642773,77.58857795643739L103.73420371247133,85.07680874097765L103.98356537851494,77.61966327040614L104.23292704455852,74.96347612342517L104.48228871060213,79.96435247397328L104.73165037664572,85.29272174992163L104.98101204268931,81.42772009487703L105.23037370873293,85.91232038726604L105.47973537477651,90.03626367006399L105.72909704082012,79.63920778900906L105.97845870686372,86.13830003348905L106.22782037290732,81.95362971318558L106.47718203895091,77.51123038109161L106.72654370499453,81.94422712750524L106.97590537103811,78.70709107101221L107.22526703708172,78.00399516308175L107.47462870312532,85.27267990275756L107.72399036916892,86.6799880952192L107.97335203521251,76.6722926135113L108.22271370125613,84.41180918454731L108.47207536729971,78.57167266455576L108.72143703334332,75.08203339363604L108.97079869938692,85.3979161847004L109.22016036543052,78.12962602640935L109.46952203147411,75.88434245998874L109.71888369751773,67.7481801698923L109.96824536356131,74.58399469460102L110.21760702960492,80.72084198001477L110.46696869564852,81.22886070090291L110.7163303616921,82.62926853109965L110.96569202773571,77.82361372663705L111.2150536937793,77.3842136709493L111.46441535982291,81.74933279525098L111.7137770258665,84.7370116131288L111.9631386919101,89.3461504520852L112.2125003579537,83.3407180156632L112.46186202399731,75.04599175251747L112.7112236900409,84.45388022170347L112.96058535608451,76.44255000822892L113.2099470221281,82.80827374466587L113.4593086881717,84.1141552733762L113.7086703542153,84.09966162543907L113.95803202025891,80.8833613908477L114.2073936863025,81.21284647104409L114.45675535234611,84.73236806390591L114.7061170183897,78.89496955376703L114.9554786844333,80.84044825927289L115.2048403504769,87.50149210234923L115.45420201652051,80.84251740555872L115.7035636825641,75.92523456495879L115.9529253486077,79.48934385429654L116.2022870146513,82.12914143790637L116.45164868069489,79.96589230376739L116.7010103467385,82.90494618392783L116.95037201278211,87.54748489351228L117.1997336788257,77.91048899883396L117.44909534486929,84.20367231606362L117.69845701091289,80.64715150043001L117.94781867695649,83.9522277346204L118.1971803430001,81.01639306112328L118.44654200904368,77.68540437867877L118.6959036750873,84.34327713477283L118.94526534113089,78.48509573438149L119.19462700717449,82.43727100364558L119.44398867321809,72.49740983633669L119.6933503392617,84.67588037030231L119.94271200530528,81.31468696405256L120.1920736713489,75.82801356133267L120.44143533739249,80.0212299369935L120.69079700343609,87.91470061563267L120.94015866947969,86.45907545141246L121.1895203355233,78.89700020430801L121.43888200156688,87.66093666556202L121.6882436676105,81.19227049542019L121.93760533365409,74.14627882775056L122.18696699969769,78.71377970668041L122.43632866574129,82.55158411798642L122.6856903317849,84.01080382238226L122.93505199782848,80.7073492214438L123.18441366387209,80.48179302841419L123.43377532991568,82.46575785483675L123.68313699595927,84.54701105243898L123.93249866200289,89.24956944021726L124.18186032804647,90.08275209394203L124.43122199409008,86.24287853635019L124.68058366013368,74.07685175190828L124.92994532617728,86.6730829209862L125.17930699222087,79.80236237963207L125.42866865826448,84.94715507231292L125.67803032430807,79.90771560935838L125.92739199035168,82.59785600329965L126.17675365639528,82.90870914298722L126.42611532243887,84.16349719434146L126.67547698848247,77.95799274798249L126.92483865452608,83.74312847251538L127.17420032056967,82.23745883998635L127.42356198661328,82.33084951699962L127.67292365265688,77.09826727818161L127.92228531870047,80.63290807483442L128.1716469847441,86.88470846634718L128.42100865078768,84.34392675046723L128.67037031683128,79.46135744778844L128.91973198287488,76.886117228297L129.16909364891848,84.43929995834043L129.41845531496207,82.33731680213491L129.66781698100567,76.16310939634135L129.91717864704927,84.41189098800511L130.16654031309287,77.93646400267349L130.41590197913646,85.93850711770226L130.66526364518006,80.99714518869679L130.91462531122366,77.09813254307461L131.16398697726726,76.86358759362182L131.41334864331085,76.96161700788986L131.66271030935445,71.68835439069849L131.91207197539808,78.07175729795917L132.16143364144165,82.63112595078881L132.41079530748527,80.31069869041525L132.66015697352887,84.77122951833495L132.90951863957247,80.53497489992853L133.15888030561607,75.1610362860105L133.40824197165966,82.13987212678414L133.65760363770326,83.30780415381393L133.90696530374686,83.78383291072927L134.15632696979046,88.64182268031945L134.40568863583405,79.41155357788494L134.65505030187765,78.56144242036109L134.90441196792128,81.65542242568222L135.15377363396485,85.04639710254384L135.40313530000847,76.40031055218901L135.65249696605207,84.707865522307L135.90185863209564,84.91963542671118L136.15122029813926,76.44097168268995L136.40058196418283,77.16125594069725L136.64994363022646,80.7545353806973L136.89930529627006,73.21626975178441L137.14866696231365,82.75225281196862L137.39802862835725,82.50689055821213L137.64739029440085,74.99690005389374L137.89675196044445,82.55456753821251L138.14611362648805,85.89592119995868L138.39547529253164,75.29353863979433L138.64483695857524,82.38910320289833L138.89419862461884,79.20414812855347L139.14356029066246,79.94355514781647L139.39292195670603,84.82488296272375L139.64228362274966,70.86060926093418L139.89164528879326,80.99499905092125L140.14100695483685,81.30283989857406L140.39036862088045,77.85466054486096L140.63973028692405,63.72743435510887L140.88909195296765,81.76995689055595L141.13845361901124,67.02823274965247L141.38781528505484,79.24092118882426L141.63717695109844,78.0421925659121L141.88653861714204,78.82255905769863L142.13590028318563,67.50328948901027L142.38526194922923,76.45033577262544L142.63462361527283,77.44612445260904L142.88398528131643,60.73515048375302L143.13334694736002,72.64938141307992L143.38270861340365,70.3426682618102L143.63207027944722,73.19863870064177L143.88143194549085,74.4401842157666L144.13079361153444,73.94943083644503L144.38015527757804,77.82959981496168L144.62951694362164,79.93413331426372L144.87887860966524,75.41738907492248L145.12824027570883,77.8197160324707L145.37760194175243,78.86967784939863L145.62696360779603,77.27662768802152L145.87632527383963,79.2365807935921L146.12568693988322,76.17798800172703L146.37504860592685,81.26881928406027L146.62441027197042,81.46578276260038L146.87377193801404,69.88444378688935L147.12313360405764,79.07844027373616L147.37249527010124,78.0027151795654L147.62185693614484,72.47187753356297L147.87121860218843,76.58607176897691L148.12058026823203,80.47161090390058L148.36994193427563,74.55539235617529L148.61930360031923,77.13332727780643L148.86866526636283,78.23899243753658L149.11802693240642,80.66173176379306L149.36738859845002,57.35092218617689L149.61675026449362,71.62405687285786L149.86611193053722,75.69718577244993L150.11547359658084,67.16687517474035L150.36483526262444,78.88576907074716L150.614196928668,78.60627071524233L150.8635585947116,78.58524241461642L151.11292026075523,76.40877961605666L151.36228192679883,82.96713605973778L151.61164359284243,73.93653476191929L151.861005258886,74.67531622532843L152.11036692492962,75.03025661680881L152.35972859097322,78.75555721378207L152.60909025701682,80.62149408648551L152.85845192306041,70.24060641826883L153.10781358910404,79.68550854613096L153.3571752551476,83.23531666625583L153.6065369211912,76.3744125398392L153.8558985872348,77.1777417434305L154.10526025327843,75.50647785244843L154.35462191932203,80.398064783359L154.60398358536563,76.42969242944802L154.8533452514092,74.94811632122884L155.1027069174528,72.55897415629276L155.35206858349642,81.84404195152545L155.60143024954002,80.43619481863585L155.8507919155836,71.31084586879805L156.1001535816272,69.57880682062938L156.3495152476708,74.40895454275467L156.5988769137144,64.47752394356856L156.848238579758,68.45917732945381L157.0976002458016,70.13993042154215L157.34696191184523,48.60172478323345L157.59632357788882,73.95253936784191L157.8456852439324,65.02141107472343L158.095046909976,74.45885465202029L158.34440857601962,59.698383083373436L158.59377024206321,67.20708398023925L158.8431319081068,69.50750307722551L159.09249357415038,57.79290145676979L159.34185524019398,68.66141472503878L159.5912169062376,67.45313915740309L159.8405785722812,52.645394814076795L160.0899402383248,68.3551137071801L160.33930190436843,68.17987145267324L160.588663570412,68.32025581021573L160.8380252364556,70.65116353712551L161.0873869024992,48.27607965358615L161.3367485685428,77.18782762858199L161.5861102345864,66.03334871967287L161.83547190063,71.1035174109563L162.08483356667358,72.56775118611924L162.33419523271718,67.32317752277953L162.5835568987608,58.34477645498166L162.8329185648044,64.31278140347037L163.082280230848,62.149599636884886L163.3316418968916,68.77167616223383L163.5810035629352,62.864369379441996L163.8303652289788,68.82294287044175L164.0797268950224,55.25250951030648L164.329088561066,68.05513561541349L164.5784502271096,65.44182310426248L164.82781189315318,65.46099398519924L165.07717355919678,67.387783006579L165.32653522524038,73.22856914226493L165.575896891284,64.7469171660495L165.8252585573276,72.93767604628364L166.0746202233712,71.7758840905579L166.32398188941477,77.68396078824678L166.57334355545837,54.07846628378128L166.822705221502,68.60896427267663L167.0720668875456,59.37043783297116L167.3214285535892,57.68953075790341L167.5707902196328,68.37158026204094L167.82015188567638,58.52977738080871L168.06951355171998,74.8251512882323L168.31887521776358,71.99055561173034L168.56823688380717,62.85418725492839L168.8175985498508,67.30187012800343L169.0669602158944,53.03360515304635L169.31632188193797,73.1109742656754L169.56568354798156,73.72021754765436L169.8150452140252,75.00469544222646L170.0644068800688,72.62709237681005L170.31376854611239,64.45155856366524L170.56313021215595,76.1797106863092L170.81249187819958,58.49111802904014L171.06185354424318,65.17622171264958L171.31121521028678,59.91320858752531L171.56057687633037,76.72080687596223L171.809938542374,71.18337683365372L172.05930020841757,71.36091920891553L172.30866187446117,53.18109197551422L172.55802354050476,73.8922646553384L172.8073852065484,66.20009303850343L173.056746872592,71.7644893500814L173.30610853863558,73.5846547821547L173.55547020467915,70.87924120144302L173.80483187072275,70.82214238788988L174.05419353676638,72.35509106761533L174.30355520280997,58.9537791385553L174.55291686885357,72.12874571181622L174.80227853489717,75.927274839436L175.05164020094077,73.18358686440426L175.30100186698436,66.8080370890936L175.55036353302796,65.52658111049246L175.79972519907156,79.27596194057665L176.04908686511519,66.97200971429473L176.29844853115878,63.37389905831561L176.54781019720235,70.80450171281102L176.79717186324595,77.95864717564498L177.04653352928958,61.69706290826606L177.29589519533317,71.1460552090188L177.54525686137677,72.93319129200827L177.79461852742034,73.04871702231198L178.04398019346394,74.88789935234261L178.29334185950756,73.8820151632713L178.54270352555116,65.707722837898L178.79206519159476,66.99978439420615L179.04142685763838,68.29352051541537L179.29078852368195,73.37810586314622L179.54015018972555,79.5381660827063L179.78951185576915,30.054648143935005L180.03887352181275,76.97280002176963L180.28823518785637,72.20364880736383L180.53759685389997,65.88667993178314L180.78695851994354,40.94079246334664L181.03632018598714,69.50596324743138L181.28568185203076,64.53625882627794L181.53504351807436,52.36269168781297L181.78440518411796,65.20537261543946L182.03376685016156,65.92058505906238L182.28312851620515,66.62093814517206L182.53249018224875,73.15936341695556L182.78185184829235,73.07967722510995L183.03121351433595,69.90071786302595L183.28057518037957,48.33894320493102L183.52993684642314,75.52101962006662L183.77929851246674,58.42255710745704L184.02866017851034,66.38771167498048L184.27802184455396,69.55466998860658L184.52738351059756,72.28089051941129L184.77674517664116,37.54077128644457L185.02610684268473,64.3682056521224L185.27546850872832,81.11534637326778L185.52483017477195,34.09044579495593L185.77419184081555,81.93778871417858L186.02355350685914,74.37306688461551L186.27291517290277,75.15694611311987L186.52227683894634,75.88179211689224L186.77163850498994,76.04713134103564L187.02100017103353,44.298198850696494L187.27036183707713,62.83315895430247L187.51972350312076,77.13263435439907L187.76908516916436,80.43197953457447L188.01844683520793,69.03307189372156L188.26780850125152,67.97133037886861L188.51717016729515,73.67663074054461L188.76653183333875,58.5700439299249L189.01589349938234,44.88454678842415L189.2652551654259,79.8355360877591L189.51461683146954,53.13418491041089L189.76397849751314,63.731553399808135L190.01334016355673,76.85218322920915L190.26270182960033,73.55930533416904L190.51206349564396,71.39780775642087L190.76142516168753,67.38825457945345L191.01078682773112,73.58136339596977L191.26014849377472,79.25938952241745L191.50951015981835,70.78282860845881L191.75887182586195,74.79728999289499L192.00823349190554,44.128586598874406L192.2575951579491,80.57783028788607L192.5069568239927,63.74562359455189L192.75631849003634,73.71581940880492L193.00568015607993,75.9856728843779L193.25504182212353,72.62896904437163L193.50440348816713,75.39782361260099L193.75376515421073,59.721836615925085L194.00312682025432,76.25544144037116L194.25248848629792,75.54825535955008L194.50185015234152,74.33178982219692L194.75121181838514,56.517239087769006L195.00057348442874,74.6365510102615L195.2499351504723,75.06495090685753L195.4992968165159,82.22796963888011L195.74865848255953,61.48012976208348L195.99802014860313,66.58082557903528L196.24738181464673,75.41595510842672L196.4967434806903,61.47245948492152L196.7461051467339,19.463650700310918L196.99546681277752,75.63373516099605L197.24482847882112,74.9444399775954L197.49419014486472,66.03726566171167L197.74355181090834,64.5242962735649L197.9929134769519,75.10734434587684L198.2422751429955,76.3061403363425L198.4916368090391,66.18405956077217L198.7409984750827,73.37318803174125L198.99036014112633,60.91351089359295L199.23972180716993,80.02713903382845L199.4890834732135,80.90847986436424L199.7384451392571,73.31740769744934L199.98780680530072,72.6698034057244L200.23716847134432,75.55274973776166L200.48653013738792,75.79612946065822L200.7358918034315,70.9938141620616L200.9852534694751,75.57850339106828L201.2346151355187,74.01931023728935L201.4839768015623,75.84278630342L201.7333384676059,73.89438192130531L201.98270013364953,24.466028384908295L202.2320617996931,67.70807722769173L202.4814234657367,75.20490218727043L202.7307851317803,69.37063145640084L202.98014679782392,67.7510865986287L203.22950846386752,75.39117347267764L203.47887012991112,70.65680316374647L203.72823179595468,67.14320991559201L203.97759346199828,70.93590693786656L204.2269551280419,72.62216492146887L204.4763167940855,71.07266307145666L204.7256784601291,74.97503447081726L204.97504012617273,54.168844668759775L205.2244017922163,72.10170245105702L205.4737634582599,69.24462525956095L205.7231251243035,78.98210467224166L205.9724867903471,63.676908689989375L206.22184845639072,65.6885904527061L206.47121012243431,65.15182503434902L206.72057178847788,76.40864488094968L206.96993345452148,63.27403147223086L207.2192951205651,71.69157840932992L207.4686567866087,79.46955704144213L207.7180184526523,76.52717327935191L207.96738011869587,64.69114645569378L208.2167417847395,76.44604349707431L208.4661034507831,76.3563869073118L208.7154651168267,66.52992458040347L208.9648267828703,75.06556683877518L209.21418844891392,77.43472971213258L209.46355011495748,73.06252737077797L209.71291178100108,53.41079608505175L209.96227344704468,74.47630284837489L210.2116351130883,60.13124848637239L210.4609967791319,71.92092643322758L210.7103584451755,44.436533309825556L210.95972011121907,78.30348243410148L211.20908177726267,67.39002538371668L211.4584434433063,78.6078394168451L211.7078051093499,79.84937530803374L211.9571667753935,61.84105624188851L212.2065284414371,67.73540920653733L212.45589010748068,69.10752266426715L212.70525177352428,71.06087374959544L212.95461343956788,67.41078421412863L213.20397510561148,73.92437010654575L213.4533367716551,71.60542493234902L213.7026984376987,69.38580840380912L213.95206010374227,70.08399610427082L214.20142176978587,72.73805636134868L214.4507834358295,78.73882118870726L214.7001451018731,75.31761772819986L214.9495067679167,63.551460681449825L215.19886843396026,75.96748364493489L215.44823010000385,61.445945540654066L215.69759176604748,70.92146140961049L215.94695343209108,75.51732402856074L216.19631509813468,68.88228406113257L216.4456767641783,66.38175445846447L216.69503843022187,59.298498909777216L216.94440009626547,71.29418683521294L217.19376176230907,70.7507616529963L217.44312342835266,69.19019227633886L217.6924850943963,75.84224736299204L217.9418467604399,65.60362071987942L218.19120842648346,68.0547795297736L218.44057009252705,76.0620676900386L218.68993175857068,59.067957517789125L218.93929342461428,62.45604501378678L219.18865509065787,74.5871032259979L219.43801675670147,69.61448275217185L219.68737842274507,66.58341441787665L219.93674008878867,67.06143532958814L220.18610175483226,43.553835504283676L220.43546342087586,63.043884661627494L220.6848250869195,65.60962605607648L220.93418675296306,74.05728628958678L221.18354841900666,65.73718170664672L221.43291008505025,57.246329247411424L221.68227175109388,69.89319194490719L221.93163341713748,73.36758690086513L222.18099508318107,76.33652310296769L222.43035674922464,77.50974829491476L222.67971841526824,73.56034471928007L222.92908008131187,68.93104854592504L223.17844174735546,39.891841159721096L223.42780341339906,75.67478124894552L223.6771650794427,68.74815526212868L223.92652674548626,67.87542785450371L224.17588841152985,76.98351146277497L224.42525007757345,72.92151745738161L224.67461174361705,75.29274947702486L224.92397340966068,70.86026279923051L225.17333507570427,65.6386518476956L225.42269674174784,69.69293708018215L225.67205840779144,74.00865653990128L225.92142007383507,76.14275477125037L226.17078173987866,75.1853944685662L226.42014340592226,46.16697478458285L226.66950507196583,73.83318331092534L226.91886673800946,68.25325396629918L227.16822840405305,49.11763513181645L227.41759007009665,73.7691745111711L227.66695173614025,68.27047118818466L227.91631340218387,62.26060211716836L228.16567506822744,74.34379087065484L228.41503673427104,70.5570606888325L228.66439840031464,56.99756974417166L228.91376006635826,58.82035288689498L229.16312173240186,68.0836417144771L229.41248339844546,76.20317384279707L229.66184506448903,79.86770890651995L229.91120673053263,71.42353253791885L230.16056839657625,74.42782708166882L230.40993006261985,64.84541815319197L230.65929172866345,74.60298272074974L230.90865339470704,73.5936627864503L231.15801506075064,70.97570191410828L231.40737672679424,72.72729680066227L231.65673839283784,79.0464695576358L231.90610005888144,64.28920275974794L232.15546172492506,68.80492686185056L232.40482339096866,65.33548823304243L232.65418505701223,72.70713465429554L232.90354672305583,69.47336697547715L233.15290838909945,68.0359647344767L233.40227005514305,70.64433054241412L233.65163172118665,46.849619828060156L233.90099338723022,80.41539749247906L234.1503550532738,74.70625718025398L234.39971671931744,72.47003936174625L234.64907838536104,72.18527671313277L234.89844005140463,75.72097614276905L235.14780171744826,66.38170633878342L235.39716338349183,72.26917818903978L235.64652504953543,73.00662192531527L235.89588671557902,78.82908408645122L236.14524838162262,79.35583098721031L236.39461004766625,70.71503760177278L236.64397171370985,78.61942663604584L236.89333337975341,74.53205431085819L237.142695045797,74.63816783154533L237.39205671184064,73.93052942572223L237.64141837788424,53.089164136805366L237.89078004392783,42.47219168934175L238.14014170997143,64.03996205969753L238.38950337601503,59.62112212345356L238.63886504205863,74.16430446027796L238.88822670810222,61.77057053306277L239.13758837414582,65.3351802670836L239.38695004018945,69.32392649395801L239.63631170623302,16.287232057387204L239.8856733722766,53.15411608230851L240.1350350383202,50.88973862644084L240.38439670436384,64.74348142082137L240.63375837040743,65.34719093947773L240.88312003645103,64.5620413513932L241.1324817024946,50.066997943507424L241.3818433685382,27.180267115127517L241.63120503458182,63.098721850170534L241.88056670062542,50.75525374179705L242.12992836666902,55.00284535706268L242.37929003271265,42.964176932498646L242.62865169875622,62.982936273589075L242.8780133647998,8.774036782309791L243.1273750308434,55.49331001829788L243.376736696887,-58.98880064243527L243.62609836293063,51.77193598729962L243.87546002897423,51.727069196673504L244.1248216950178,67.98645920659584L244.3741833610614,65.71596092729654L244.62354502710502,54.54778715715598L244.87290669314862,58.86883827753726L245.12226835919222,61.02561050260473L245.3716300252358,15.27981766245799L245.62099169127941,53.60385224548928L245.870353357323,49.76471973098585L246.1197150233666,74.63299977779882L246.3690766894102,57.49969861609732L246.61843835545383,45.69159083139379L246.8678000214974,61.65571847829399L247.117161687541,52.61032519051576L247.3665233535846,72.06760484505352L247.61588501962822,53.873736288717076L247.86524668567182,68.5872815443882L248.11460835171542,59.15026142028472L248.363970017759,61.32515551724174L248.61333168380258,56.098289896534375L248.8626933498462,34.954838873820236L249.1120550158898,51.44368277093855L249.3614166819334,51.99428740957025L249.610778347977,61.89956977406498L249.8601400140206,67.57517066858692L250.1095016800642,53.13274131997891L250.3588633461078,37.789598157237826L250.6082250121514,51.52517826279223L250.85758667819502,61.78201339322029L251.10694834423862,70.99150441737044L251.3563100102822,63.9454935018284L251.60567167632578,19.630702985100296L251.8550333423694,67.97533393633331L252.104395008413,60.648371450918276L252.3537566744566,57.768235308255264L252.60311834050017,57.53608671891956L252.85248000654377,12.98564450007414L253.1018416725874,12.429198132160986L253.351203338631,60.328327452147064L253.6005650046746,63.40247252493272L253.84992667071822,67.48261727402422L254.0992883367618,58.5023010429199L254.34865000280539,63.66854548942008L254.59801166884898,68.29615747393778L254.84737333489258,72.22570686916457L255.0967350009362,70.04249769131934L255.3460966669798,61.37265926639027L255.59545833302337,64.55380326199467L255.84481999906697,57.77205601093192L256.09418166511057,32.12115747125852L256.3435433311542,64.16067509162016L256.5929049971978,45.46877746018494L256.8422666632414,51.026437016413645L257.09162832928496,65.32329470586025L257.3409899953286,54.15317690060464L257.5903516613722,64.26882888678452L257.8397133274158,65.24456128369977L258.0890749934594,68.79845957671527L258.338436659503,57.020426592678106L258.5877983255466,76.12027325625625L258.83715999159017,58.446395597457226L259.0865216576338,57.85618846130804L259.33588332367736,53.44942656501168L259.585244989721,68.1954622293387L259.83460665576456,56.968274482338586L260.0839683218082,63.61647999450647L260.33332998785176,59.1673246591908L260.5826916538954,61.248395002004955L260.832053319939,55.60097299271537L261.0814149859826,72.3687281852295L261.33077665202615,-5.046233961921082L261.58013831806977,60.67250828294105L261.8294999841134,71.51382430747145L262.07886165015697,70.38267496464863L262.3282233162006,61.138489650449785L262.57758498224416,61.28482160057205L262.8269466482878,64.98801601606351L263.07630831433136,19.5948730705784L263.325669980375,50.38370243641262L263.57503164641855,68.72462473808733L263.8243933124622,73.80702545229776L264.07375497850575,30.909648261055196L264.3231166445494,70.82974529749835L264.57247831059294,75.55207606222673L264.82183997663657,64.41839447947443L265.0712016426802,61.12449644719573L265.32056330872376,68.66951807933032L265.56992497476733,72.4706649176001L265.81928664081096,58.7303017157477L266.0686483068546,-74.13000475161398L266.31800997289815,43.617699944994705L266.5673716389418,48.344082386868884L266.8167333049854,70.2288074724714L267.066094971029,69.78083248961765L267.31545663707254,66.66465968738879L267.56481830311617,67.85206093737798L267.81417996915974,60.541054938204454L268.06354163520336,-36.003742057764725L268.312903301247,65.32462280905769L268.56226496729056,41.509509349931655L268.81162663333413,64.05660184541021L269.06098829937775,58.08175427827389L269.3103499654214,68.52050105100457L269.55971163146495,66.97737987070172L269.8090732975086,9.889739707510362L270.05843496355214,42.99276964698818L270.30779662959577,-83.89666393889324L270.55715829563934,67.17633550403797L270.80651996168297,58.360752189095614L271.0558816277266,69.61591671866762L271.30524329377016,-98.79328533314882L271.55460495981373,74.18106935716143L271.80396662585736,54.37933940161571L272.053328291901,54.555832767830246L272.30268995794455,65.17284371103871L272.5520516239882,76.72357856959165L272.80141329003175,-16.369237617860215L273.0507749560753,-48.62341713545809L273.30013662211894,62.70264875531476L273.54949828816257,38.627814129602115L273.79885995420614,62.851126843212576L274.04822162024976,-65.58117770063016L274.29758328629333,65.0996151803922" fill="none"></path></g></g></g></g></g></g><g transform="translate(30, 176)" clip-path="url(#clip_1)"><clipPath id="clip_1"><rect width="299" height="23"></rect></clipPath><g><g><line x1="0" y1="0" x2="0" y2="5" style="visibility: inherit;" fill="rgb(0, 0, 0)" stroke="rgb(204, 204, 204)" stroke-width="1px"></line><line x1="24.936166604359943" y1="0" x2="24.936166604359943" y2="5" style="visibility: inherit;" fill="rgb(0, 0, 0)" stroke="rgb(204, 204, 204)" stroke-width="1px"></line><line x1="49.87233320871989" y1="0" x2="49.87233320871989" y2="5" style="visibility: inherit;" fill="rgb(0, 0, 0)" stroke="rgb(204, 204, 204)" stroke-width="1px"></line><line x1="74.80849981307983" y1="0" x2="74.80849981307983" y2="5" style="visibility: inherit;" fill="rgb(0, 0, 0)" stroke="rgb(204, 204, 204)" stroke-width="1px"></line><line x1="99.74466641743977" y1="0" x2="99.74466641743977" y2="5" style="visibility: inherit;" fill="rgb(0, 0, 0)" stroke="rgb(204, 204, 204)" stroke-width="1px"></line><line x1="124.68083302179973" y1="0" x2="124.68083302179973" y2="5" style="visibility: inherit;" fill="rgb(0, 0, 0)" stroke="rgb(204, 204, 204)" stroke-width="1px"></line><line x1="149.61699962615967" y1="0" x2="149.61699962615967" y2="5" style="visibility: inherit;" fill="rgb(0, 0, 0)" stroke="rgb(204, 204, 204)" stroke-width="1px"></line><line x1="174.55316623051962" y1="0" x2="174.55316623051962" y2="5" style="visibility: inherit;" fill="rgb(0, 0, 0)" stroke="rgb(204, 204, 204)" stroke-width="1px"></line><line x1="199.48933283487955" y1="0" x2="199.48933283487955" y2="5" style="visibility: inherit;" fill="rgb(0, 0, 0)" stroke="rgb(204, 204, 204)" stroke-width="1px"></line><line x1="224.4254994392395" y1="0" x2="224.4254994392395" y2="5" style="visibility: inherit;" fill="rgb(0, 0, 0)" stroke="rgb(204, 204, 204)" stroke-width="1px"></line><line x1="249.36166604359946" y1="0" x2="249.36166604359946" y2="5" style="visibility: inherit;" fill="rgb(0, 0, 0)" stroke="rgb(204, 204, 204)" stroke-width="1px"></line><line x1="274.29783264795935" y1="0" x2="274.29783264795935" y2="5" style="visibility: inherit;" fill="rgb(0, 0, 0)" stroke="rgb(204, 204, 204)" stroke-width="1px"></line><line x1="299.23399925231934" y1="0" x2="299.23399925231934" y2="5" style="visibility: inherit;" fill="rgb(0, 0, 0)" stroke="rgb(204, 204, 204)" stroke-width="1px"></line></g><g transform="translate(0, 8)"><text style="text-anchor: middle; visibility: hidden; font-family: Roboto, sans-serif; font-size: 12px; font-weight: 200;" x="0" y="0" dx="0em" dy="0.95em" fill="rgb(33, 33, 33)" stroke="none" stroke-width="1px">-100k</text><text style="text-anchor: middle; visibility: inherit; font-family: Roboto, sans-serif; font-size: 12px; font-weight: 200;" x="24.936166604359943" y="0" dx="0em" dy="0.95em" fill="rgb(33, 33, 33)" stroke="none" stroke-width="1px">0</text><text style="text-anchor: middle; visibility: hidden; font-family: Roboto, sans-serif; font-size: 12px; font-weight: 200;" x="49.87233320871989" y="0" dx="0em" dy="0.95em" fill="rgb(33, 33, 33)" stroke="none" stroke-width="1px">100k</text><text style="text-anchor: middle; visibility: inherit; font-family: Roboto, sans-serif; font-size: 12px; font-weight: 200;" x="74.80849981307983" y="0" dx="0em" dy="0.95em" fill="rgb(33, 33, 33)" stroke="none" stroke-width="1px">200k</text><text style="text-anchor: middle; visibility: hidden; font-family: Roboto, sans-serif; font-size: 12px; font-weight: 200;" x="99.74466641743977" y="0" dx="0em" dy="0.95em" fill="rgb(33, 33, 33)" stroke="none" stroke-width="1px">300k</text><text style="text-anchor: middle; visibility: inherit; font-family: Roboto, sans-serif; font-size: 12px; font-weight: 200;" x="124.68083302179973" y="0" dx="0em" dy="0.95em" fill="rgb(33, 33, 33)" stroke="none" stroke-width="1px">400k</text><text style="text-anchor: middle; visibility: hidden; font-family: Roboto, sans-serif; font-size: 12px; font-weight: 200;" x="149.61699962615967" y="0" dx="0em" dy="0.95em" fill="rgb(33, 33, 33)" stroke="none" stroke-width="1px">500k</text><text style="text-anchor: middle; visibility: inherit; font-family: Roboto, sans-serif; font-size: 12px; font-weight: 200;" x="174.55316623051962" y="0" dx="0em" dy="0.95em" fill="rgb(33, 33, 33)" stroke="none" stroke-width="1px">600k</text><text style="text-anchor: middle; visibility: hidden; font-family: Roboto, sans-serif; font-size: 12px; font-weight: 200;" x="199.48933283487955" y="0" dx="0em" dy="0.95em" fill="rgb(33, 33, 33)" stroke="none" stroke-width="1px">700k</text><text style="text-anchor: middle; visibility: inherit; font-family: Roboto, sans-serif; font-size: 12px; font-weight: 200;" x="224.4254994392395" y="0" dx="0em" dy="0.95em" fill="rgb(33, 33, 33)" stroke="none" stroke-width="1px">800k</text><text style="text-anchor: middle; visibility: hidden; font-family: Roboto, sans-serif; font-size: 12px; font-weight: 200;" x="249.36166604359946" y="0" dx="0em" dy="0.95em" fill="rgb(33, 33, 33)" stroke="none" stroke-width="1px">900k</text><text style="text-anchor: middle; visibility: inherit; font-family: Roboto, sans-serif; font-size: 12px; font-weight: 200;" x="274.29783264795935" y="0" dx="0em" dy="0.95em" fill="rgb(33, 33, 33)" stroke="none" stroke-width="1px">1M</text><text style="text-anchor: middle; visibility: hidden; font-family: Roboto, sans-serif; font-size: 12px; font-weight: 200;" x="299.23399925231934" y="0" dx="0em" dy="0.95em" fill="rgb(33, 33, 33)" stroke="none" stroke-width="1px">1.1M</text></g><line x1="0" y1="0" x2="299.23399925231934" y2="0" fill="rgb(0, 0, 0)" stroke="rgb(204, 204, 204)" stroke-width="1px"></line></g></g></g></g></svg>