<svg viewBox="0 0 330 200" xmlns="http://www.w3.org/2000/svg"><g><g><g><g><g><line x1="51.53200149536133" y1="176.5999994277954" x2="46.53200149536133" y2="176.5999994277954" style="visibility: inherit;" fill="rgb(0, 0, 0)" stroke="rgb(204, 204, 204)" stroke-width="1px"></line><line x1="51.53200149536133" y1="156.97777726915146" x2="46.53200149536133" y2="156.97777726915146" style="visibility: inherit;" fill="rgb(0, 0, 0)" stroke="rgb(204, 204, 204)" stroke-width="1px"></line><line x1="51.53200149536133" y1="137.35555511050754" x2="46.53200149536133" y2="137.35555511050754" style="visibility: inherit;" fill="rgb(0, 0, 0)" stroke="rgb(204, 204, 204)" stroke-width="1px"></line><line x1="51.53200149536133" y1="117.73333295186362" x2="46.53200149536133" y2="117.73333295186362" style="visibility: inherit;" fill="rgb(0, 0, 0)" stroke="rgb(204, 204, 204)" stroke-width="1px"></line><line x1="51.53200149536133" y1="98.11111079321968" x2="46.53200149536133" y2="98.11111079321968" style="visibility: inherit;" fill="rgb(0, 0, 0)" stroke="rgb(204, 204, 204)" stroke-width="1px"></line><line x1="51.53200149536133" y1="78.48888863457573" x2="46.53200149536133" y2="78.48888863457573" style="visibility: inherit;" fill="rgb(0, 0, 0)" stroke="rgb(204, 204, 204)" stroke-width="1px"></line><line x1="51.53200149536133" y1="58.86666647593181" x2="46.53200149536133" y2="58.86666647593181" style="visibility: inherit;" fill="rgb(0, 0, 0)" stroke="rgb(204, 204, 204)" stroke-width="1px"></line><line x1="51.53200149536133" y1="39.244444317287865" x2="46.53200149536133" y2="39.244444317287865" style="visibility: inherit;" fill="rgb(0, 0, 0)" stroke="rgb(204, 204, 204)" stroke-width="1px"></line><line x1="51.53200149536133" y1="19.622222158643943" x2="46.53200149536133" y2="19.622222158643943" style="visibility: inherit;" fill="rgb(0, 0, 0)" stroke="rgb(204, 204, 204)" stroke-width="1px"></line><line x1="51.53200149536133" y1="0" x2="46.53200149536133" y2="0" style="visibility: inherit;" fill="rgb(0, 0, 0)" stroke="rgb(204, 204, 204)" stroke-width="1px"></line></g><g transform="translate(41.53200149536133, 0)"><text style="text-anchor: end; visibility: hidden; font-family: Roboto, sans-serif; font-size: 12px; font-weight: 200;" x="0" y="176.5999994277954" dx="0em" dy="0.3em" fill="rgb(255, 255, 255)" stroke="none" stroke-width="1px">-100</text><text style="text-anchor: end; visibility: inherit; font-family: Roboto, sans-serif; font-size: 12px; font-weight: 200;" x="0" y="156.97777726915146" dx="0em" dy="0.3em" fill="rgb(255, 255, 255)" stroke="none" stroke-width="1px">0</text><text style="text-anchor: end; visibility: hidden; font-family: Roboto, sans-serif; font-size: 12px; font-weight: 200;" x="0" y="137.35555511050754" dx="0em" dy="0.3em" fill="rgb(255, 255, 255)" stroke="none" stroke-width="1px">100</text><text style="text-anchor: end; visibility: inherit; font-family: Roboto, sans-serif; font-size: 12px; font-weight: 200;" x="0" y="117.73333295186362" dx="0em" dy="0.3em" fill="rgb(255, 255, 255)" stroke="none" stroke-width="1px">200</text><text style="text-anchor: end; visibility: hidden; font-family: Roboto, sans-serif; font-size: 12px; font-weight: 200;" x="0" y="98.11111079321968" dx="0em" dy="0.3em" fill="rgb(255, 255, 255)" stroke="none" stroke-width="1px">300</text><text style="text-anchor: end; visibility: inherit; font-family: Roboto, sans-serif; font-size: 12px; font-weight: 200;" x="0" y="78.48888863457573" dx="0em" dy="0.3em" fill="rgb(255, 255, 255)" stroke="none" stroke-width="1px">400</text><text style="text-anchor: end; visibility: hidden; font-family: Roboto, sans-serif; font-size: 12px; font-weight: 200;" x="0" y="58.86666647593181" dx="0em" dy="0.3em" fill="rgb(255, 255, 255)" stroke="none" stroke-width="1px">500</text><text style="text-anchor: end; visibility: inherit; font-family: Roboto, sans-serif; font-size: 12px; font-weight: 200;" x="0" y="39.244444317287865" dx="0em" dy="0.3em" fill="rgb(255, 255, 255)" stroke="none" stroke-width="1px">600</text><text style="text-anchor: end; visibility: hidden; font-family: Roboto, sans-serif; font-size: 12px; font-weight: 200;" x="0" y="19.622222158643943" dx="0em" dy="0.3em" fill="rgb(255, 255, 255)" stroke="none" stroke-width="1px">700</text><text style="text-anchor: end; visibility: hidden; font-family: Roboto, sans-serif; font-size: 12px; font-weight: 200;" x="0" y="0" dx="0em" dy="0.3em" fill="rgb(255, 255, 255)" stroke="none" stroke-width="1px">800</text></g><line x1="51.53200149536133" y1="0" x2="51.53200149536133" y2="176.5999994277954" fill="rgb(0, 0, 0)" stroke="rgb(204, 204, 204)" stroke-width="1px"></line></g></g><g transform="translate(51, 0)" clip-path="url(#clip_0)"><clipPath id="clip_0"><rect width="278" height="176"></rect></clipPath><g><g><g><line x1="0" y1="0" x2="0" y2="176.5999994277954" fill="rgb(0, 0, 0)" stroke="rgb(189, 189, 189)" stroke-width="1px" opacity="0.25"></line><line x1="23.205666542053223" y1="0" x2="23.205666542053223" y2="176.5999994277954" fill="rgb(0, 0, 0)" stroke="rgb(189, 189, 189)" stroke-width="1px" opacity="0.25"></line><line x1="46.411333084106445" y1="0" x2="46.411333084106445" y2="176.5999994277954" fill="rgb(0, 0, 0)" stroke="rgb(189, 189, 189)" stroke-width="1px" opacity="0.25"></line><line x1="69.61699962615967" y1="0" x2="69.61699962615967" y2="176.5999994277954" fill="rgb(0, 0, 0)" stroke="rgb(189, 189, 189)" stroke-width="1px" opacity="0.25"></line><line x1="92.82266616821289" y1="0" x2="92.82266616821289" y2="176.5999994277954" fill="rgb(0, 0, 0)" stroke="rgb(189, 189, 189)" stroke-width="1px" opacity="0.25"></line><line x1="116.02833271026611" y1="0" x2="116.02833271026611" y2="176.5999994277954" fill="rgb(0, 0, 0)" stroke="rgb(189, 189, 189)" stroke-width="1px" opacity="0.25"></line><line x1="139.23399925231934" y1="0" x2="139.23399925231934" y2="176.5999994277954" fill="rgb(0, 0, 0)" stroke="rgb(189, 189, 189)" stroke-width="1px" opacity="0.25"></line><line x1="162.43966579437256" y1="0" x2="162.43966579437256" y2="176.5999994277954" fill="rgb(0, 0, 0)" stroke="rgb(189, 189, 189)" stroke-width="1px" opacity="0.25"></line><line x1="185.64533233642578" y1="0" x2="185.64533233642578" y2="176.5999994277954" fill="rgb(0, 0, 0)" stroke="rgb(189, 189, 189)" stroke-width="1px" opacity="0.25"></line><line x1="208.850998878479" y1="0" x2="208.850998878479" y2="176.5999994277954" fill="rgb(0, 0, 0)" stroke="rgb(189, 189, 189)" stroke-width="1px" opacity="0.25"></line><line x1="232.05666542053223" y1="0" x2="232.05666542053223" y2="176.5999994277954" fill="rgb(0, 0, 0)" stroke="rgb(189, 189, 189)" stroke-width="1px" opacity="0.25"></line><line x1="255.26233196258545" y1="0" x2="255.26233196258545" y2="176.5999994277954" fill="rgb(0, 0, 0)" stroke="rgb(189, 189, 189)" stroke-width="1px" opacity="0.25"></line><line x1="278.4679985046387" y1="0" x2="278.4679985046387" y2="176.5999994277954" fill="rgb(0, 0, 0)" stroke="rgb(189, 189, 189)" stroke-width="1px" opacity="0.25"></line></g><g><line x1="0" y1="176.5999994277954" x2="278.4679985046387" y2="176.5999994277954" fill="rgb(0, 0, 0)" stroke="rgb(189, 189, 189)" stroke-width="1px" opacity="0.25"></line><line x1="0" y1="156.97777726915146" x2="278.4679985046387" y2="156.97777726915146" fill="rgb(0, 0, 0)" stroke="rgb(189, 189, 189)" stroke-width="1px" opacity="0.25"></line><line x1="0" y1="137.35555511050754" x2="278.4679985046387" y2="137.35555511050754" fill="rgb(0, 0, 0)" stroke="rgb(189, 189, 189)" stroke-width="1px" opacity="0.25"></line><line x1="0" y1="117.73333295186362" x2="278.4679985046387" y2="117.73333295186362" fill="rgb(0, 0, 0)" stroke="rgb(189, 189, 189)" stroke-width="1px" opacity="0.25"></line><line x1="0" y1="98.11111079321968" x2="278.4679985046387" y2="98.11111079321968" fill="rgb(0, 0, 0)" stroke="rgb(189, 189, 189)" stroke-width="1px" opacity="0.25"></line><line x1="0" y1="78.48888863457573" x2="278.4679985046387" y2="78.48888863457573" fill="rgb(0, 0, 0)" stroke="rgb(189, 189, 189)" stroke-width="1px" opacity="0.25"></line><line x1="0" y1="58.86666647593181" x2="278.4679985046387" y2="58.86666647593181" fill="rgb(0, 0, 0)" stroke="rgb(189, 189, 189)" stroke-width="1px" opacity="0.25"></line><line x1="0" y1="39.244444317287865" x2="278.4679985046387" y2="39.244444317287865" fill="rgb(0, 0, 0)" stroke="rgb(189, 189, 189)" stroke-width="1px" opacity="0.25"></line><line x1="0" y1="19.622222158643943" x2="278.4679985046387" y2="19.622222158643943" fill="rgb(0, 0, 0)" stroke="rgb(189, 189, 189)" stroke-width="1px" opacity="0.25"></line><line x1="0" y1="0" x2="278.4679985046387" y2="0" fill="rgb(0, 0, 0)" stroke="rgb(189, 189, 189)" stroke-width="1px" opacity="0.25"></line></g></g></g><g><g><line x1="0" y1="156.97777726915146" x2="278.4679985046387" y2="156.97777726915146" fill="rgb(0, 0, 0)" stroke="rgb(153, 153, 153)" stroke-width="1.5px"></line></g></g><g><g><line x1="23.205666542053223" y1="0" x2="23.205666542053223" y2="176.5999994277954" fill="rgb(0, 0, 0)" stroke="rgb(153, 153, 153)" stroke-width="1.5px"></line></g></g><g><g><g><g><g><path style="fill: none;" stroke="rgb(187, 187, 187)" stroke-width="2px" d="M23.437491150808334,151.0637743654077L23.669547816228867,151.23743294774434L23.9016044816494,150.34376308360208L24.13366114706993,149.0559528458066L24.365717812490463,147.41183098570005L24.597774477910995,145.41058946026845L24.82983114333153,143.61419345906813L25.06188780875206,141.33694711153242L25.29394447417259,139.50727575208086L25.526001139593124,137.54305368376785L25.758057805013653,135.096346599236L25.99011447043419,132.54042814822492L26.222171135854722,128.93093027898868L26.454227801275252,126.15308130275571L26.686284466695785,122.94034554260588L26.91834113211632,120.68843710790807L27.15039779753685,115.15546631320161L27.382454462957384,112.37611274131555L27.614511128377913,109.27890606126378L27.846567793798446,106.09330465883698L28.07862445921898,101.56182133816284L28.310681124639512,100.26040215916413L28.542737790060045,98.66803083809468L28.774794455480574,95.99416935319768L29.006851120901107,94.89645857755215L29.23890778632164,94.1768050036194L29.47096445174217,92.2428309445798L29.703021117162706,90.93846800411245L29.93507778258324,89.3444740869143L30.167134448003768,86.71936144337538L30.3991911134243,84.91736447018755L30.63124777884483,84.34051296907931L30.863304444265367,84.59041739854662L31.0953611096859,84.68902312598307L31.32741777510643,78.31509177140025L31.559474440526962,78.61945246512377L31.79153110594749,71.78896690576299L32.02358777136803,70.72204207547482L32.25564443678856,70.4742085434441L32.48770110220909,71.80885178612125L32.71975776762962,70.0122589139802L32.95181443305015,68.10536638166191L33.18387109847069,68.37549622901898L33.41592776389122,63.92040235774062L33.64798442931175,67.59793119259973L33.880041094732285,69.97646264964352L34.11209776015282,71.12594077986738L34.34415442557335,69.34967639927282L34.57621109099388,70.43467948459657L34.80826775641441,70.70937574271865L35.04032442183495,65.94790078990445L35.27238108725548,66.28831779209439L35.50443775267601,65.29196086434142L35.73649441809654,63.087401637035796L35.96855108351708,63.32909734000466L36.20060774893761,57.75395729648584L36.432664414358136,58.46666758484021L36.66472107977867,58.05283645565266L36.8967777451992,50.180397588523356L37.12883441061973,49.510510045012936L37.36089107604027,44.77661098830785L37.592947741460804,31.117326689282528L37.825004406881334,23.74666457791995L38.05706107230186,30.959935782495876L38.2891177377224,32.20735596930076L38.52117440314293,37.92282618688324L38.75323106856346,40.96203049807524L38.985287733983995,40.20124861996542L39.217344399404524,34.132156693437594L39.449401064825054,41.47015170350058L39.68145773024559,37.468501095551446L39.91351439566612,32.89505748711886L40.145571061086656,35.524569195717234L40.37762772650719,39.64587816470696L40.60968439192772,37.631183187389965L40.84174105734825,36.2727891389751L41.07379772276878,41.612052488696996L41.30585438818932,39.98997689896798L41.53791105360985,41.69812620318519L41.769967719030376,44.62594889443714L42.00202438445091,34.892700443806746L42.23408104987144,33.166506075886154L42.46613771529197,27.01729307391238L42.698194380712515,34.1191207655802L42.930251046133044,37.95754076246657L43.162307711553574,37.52400463338369L43.39436437697411,27.340997896945655L43.62642104239464,23.38521604995347L43.85847770781517,31.796007009396725L44.0905343732357,33.2989045025377L44.322591038656235,30.731791697394996L44.554647704076764,36.57951546184185L44.78670436949729,38.31870500404112L45.01876103491784,35.18074618556619L45.25081770033837,32.35052637099987L45.482874365758896,37.53297065878961L45.71493103117943,33.42090598488309L45.94698769659996,30.526882031106695L46.17904436202049,38.08754381088382L46.41110102744103,40.77462154201654L46.64315769286156,46.32306243262995L46.875214358282086,47.78874428544257L47.107271023702616,41.44865901047468L47.33932768912315,42.50981430110866L47.57138435454369,46.65316040762395L47.80344101996422,46.684170274392116L48.035497685384755,47.71795608884213L48.267554350805284,47.340469650931865L48.49961101622581,45.90687327225605L48.73166768164635,49.988215343313286L48.96372434706688,50.02348009533355L49.19578101248741,48.836927358225296L49.427837677907945,52.326184154592895L49.659894343328475,51.677462179014626L49.891951008749004,51.30694472177206L50.12400767416954,54.42514592641264L50.35606433959008,58.48913255507114L50.588121005010606,53.31187921355719L50.820177670431136,54.601778062211764L51.05223433585167,55.80559398709442L51.2842910012722,57.79717860436549L51.51634766669273,59.09749624623264L51.74840433211327,56.139588458612835L51.9804609975338,59.43585301556908L52.212517662954326,61.455874880416715L52.44457432837487,61.827306463240184L52.6766309937954,62.33053656091676L52.90868765921593,63.02298555646732L53.14074432463646,63.114289546073294L53.372800990056994,63.950981383016135L53.604857655477524,60.08646975902397L53.83691432089805,57.5454755350865L54.06897098631859,60.359879226060805L54.30102765173912,50.25375685755091L54.53308431715965,55.70740180624784L54.765140982580185,55.47506256633537L54.99719764800072,53.0053269158548L55.22925431342125,57.20431301467803L55.46131097884178,61.07654324000179L55.69336764426232,65.1372858169345L55.925424309682846,68.02606887704228L56.157480975103375,71.36491939406388L56.38953764052391,74.65159433151119L56.62159430594444,75.36345969051386L56.85365097136497,76.99585987086495L57.08570763678551,68.61251857599973L57.31776430220604,66.13252057795346L57.54982096762657,58.93693949783487L57.78187763304711,61.062495159416635L58.01393429846764,53.75835655271038L58.24599096388817,53.05999614980706L58.4780476293087,55.211336235316026L58.710104294729234,57.152928355092044L58.942160960149764,61.85891492861003L59.17421762557029,63.35768724055647L59.40627429099083,65.16610539195858L59.63833095641136,69.24514951826652L59.87038762183189,68.46570284592075L60.10244428725243,64.67399977178151L60.33450095267296,57.83104467887182L60.56655761809349,64.77461898797388L60.79861428351403,65.80347588373101L61.03067094893456,69.26299090568331L61.262727614355086,68.0456546437849L61.494784279775615,69.26198563937666L61.72684094519615,68.54994300451533L61.95889761061668,68.68592443660341L62.19095427603721,71.48598046792239L62.423010941457754,72.98857394309918L62.65506760687828,76.45044749521546L62.88712427229881,77.12321417139312L63.11918093771935,79.76330236717857L63.35123760313988,79.10196991223103L63.58329426856041,75.88975549369631L63.815350933980945,78.49463484949138L64.04740759940148,80.03767927826269L64.27946426482201,81.55821314392047L64.51152093024254,83.86149265398635L64.74357759566307,84.69079328355151L64.9756342610836,85.54252639862698L65.20769092650413,88.634864092728L65.43974759192467,88.37528468682427L65.6718042573452,88.91909574191473L65.90386092276573,89.94148905022982L66.13591758818627,84.71733537335997L66.3679742536068,80.1682166607641L66.60003091902733,80.29714525703693L66.83208758444786,80.50897325604463L67.06414424986839,78.02509898985701L67.29620091528892,80.69995404313846L67.52825758070945,74.82376990155865L67.76031424613,76.27900615802903L67.99237091155052,79.0383342747904L68.22442757697105,81.32144484195611L68.45648424239158,82.51789636603519L68.68854090781213,85.00981500898234L68.92059757323266,83.14438795125155L69.15265423865318,84.25458124807754L69.38471090407371,89.19681465251332L69.61676756949424,90.41895307355212L69.84882423491479,92.17916459181043L70.0808809003353,91.97477494255561L70.31293756575585,90.16480261108194L70.54499423117637,91.94253171516054L70.7770508965969,90.14436868995581L71.00910756201743,90.24347243771575L71.24116422743798,88.12438509392557L71.4732208928585,92.66286129854886L71.70527755827904,91.0428875937951L71.93733422369958,94.5753256262018L72.1693908891201,95.81238565539277L72.40144755454064,91.95735325688862L72.63350421996117,89.23314313010522L72.8655608853817,91.02779120096932L73.09761755080223,89.47378074889065L73.32967421622277,89.09906171275571L73.56173088164329,91.83888295159241L73.79378754706383,87.86607584588255L74.02584421248437,80.76931167900244L74.25790087790489,66.69281558267329L74.48995754332543,71.2955385923601L74.72201420874595,76.55233086490773L74.95407087416649,79.93056058948896L75.18612753958702,83.88411851874645L75.41818420500755,80.48867424619505L75.65024087042808,86.1647219273179L75.88229753584862,89.47296139592567L76.11435420126914,92.47274458614969L76.34641086668968,96.60392864072149L76.57846753211022,94.72528157676577L76.81052419753074,95.91927093048051L77.04258086295128,97.77845354143689L77.27463752837181,97.00499124315877L77.50669419379234,98.97361152269906L77.73875085921287,99.52079805253122L77.97080752463341,100.58744644292477L78.20286419005393,102.14727952808606L78.43492085547447,103.64336638793469L78.66697752089502,98.91415891001587L78.89903418631553,100.0227060886425L79.13109085173608,101.74298885515628L79.3631475171566,97.7056470954565L79.59520418257713,99.0663472907155L79.82726084799766,94.74771813338793L80.0593175134182,92.74408556834008L80.29137417883872,92.41052075567856L80.52343084425927,93.43482525580377L80.75548750967978,93.85605535486133L80.98754417510033,88.41498604977988L81.21960084052087,92.6736147853049L81.45165750594138,96.47600723031569L81.68371417136193,97.7261466654914L81.91577083678246,97.89118678757252L82.14782750220299,98.34585497360176L82.37988416762352,100.13469233017203L82.61194083304406,102.75430071526647L82.84399749846457,100.09555497143464L83.07605416388512,101.58938532861296L83.30811082930565,104.15846146835638L83.54016749472618,104.57123196256715L83.77222416014672,102.38349831862242L84.00428082556725,100.72953742040745L84.23633749098778,103.16122055734512L84.46839415640831,98.6176620369218L84.70045082182885,100.93308761748193L84.93250748724937,101.78939670766167L85.16456415266991,85.05409048535965L85.39662081809044,89.13223649096396L85.62867748351097,92.23166153843462L85.8607341489315,97.1260852471077L86.09279081435203,95.95962975826305L86.32484747977257,97.8083860328155L86.5569041451931,100.07123738848652L86.78896081061363,103.29880844103316L87.02101747603416,96.99214056618409L87.2530741414547,94.75635541356012L87.48513080687522,97.52855976637512L87.71718747229576,99.178446510287L87.94924413771629,95.08301661496589L88.18130080313682,99.75920998644551L88.41335746855735,99.39621416592064L88.6454141339779,100.24739992632053L88.87747079939842,100.27640188012309L89.10952746481895,103.54883815621577L89.3415841302395,95.59128012178331L89.57364079566001,96.4935388017093L89.80569746108056,99.45188205228696L90.03775412650108,96.00059353208712L90.26981079192161,98.7933090941456L90.50186745734214,95.47121292437129L90.73392412276269,99.05598954905473L90.9659807881832,103.38911861247277L91.19803745360375,102.45368758995372L91.43009411902429,106.71790912532606L91.6621507844448,106.8903340251157L91.89420744986535,105.73833380359204L92.12626411528586,106.93284608967726L92.3583207807064,107.8384063174706L92.59037744612694,109.46065619628631L92.82243411154747,106.35000962924778L93.054490776968,107.4816989475459L93.28654744238854,107.98554038219088L93.51860410780905,105.35129558252693L93.7506607732296,107.09386440385121L93.98271743865014,105.68380103670093L94.21477410407066,93.50795302363363L94.4468307694912,97.93055360781648L94.67888743491173,101.05542904788285L94.91094410033226,104.380118441453L95.14300076575279,105.99533454234871L95.37505743117333,107.01487302995993L95.60711409659385,109.76259148129631L95.83917076201439,108.99967543029086L96.07122742743493,109.78506655686088L96.30328409285545,111.8402302293184L96.53534075827599,110.00062628816413L96.76739742369652,112.26608900122439L96.99945408911705,112.64786036920611L97.23151075453758,101.86175830261634L97.46356741995811,105.68241610417797L97.69562408537864,107.16505904432026L97.92768075079918,103.6676673013119L98.1597374162197,105.27219897591984L98.39179408164024,108.15577736285813L98.62385074706079,107.2349012977379L98.8559074124813,106.91347680063299L99.08796407790184,105.9550882780836L99.32002074332237,104.2576536891882L99.5520774087429,106.00915635115012L99.78413407416343,105.6270010117258L100.01619073958398,108.04954708385837L100.24824740500449,105.68668303386899L100.48030407042503,107.1326540084094L100.71236073584556,107.27122261398625L100.9444174012661,109.23520978817905L101.17647406668664,111.91767193468567L101.40853073210717,113.03213482336467L101.6405873975277,114.96205950038248L101.87264406294823,113.92607644287447L102.10470072836877,111.9091952246488L102.33675739378928,114.22582828800691L102.56881405920983,115.1682349932453L102.80087072463036,117.0415216615891L103.03292739005089,117.94609133428922L103.26498405547142,119.03536365994196L103.49704072089195,120.79350918889641L103.72909738631249,118.27844894223055L103.96115405173302,120.28588253051248L104.19321071715355,119.42021985510986L104.42526738257408,116.51873637925301L104.65732404799462,114.66853742324045L104.88938071341514,114.40738964770982L105.12143737883568,115.06959197974709L105.35349404425621,116.50652711717716L105.58555070967674,115.85880111863248L105.81760737509727,117.42364423611609L106.04966404051781,118.8882157617489L106.28172070593834,116.8551092380274L106.51377737135887,111.28948867007843L106.74583403677941,109.18050041260734L106.97789070219993,112.54564397537321L107.20994736762047,113.71929536750673L107.442004033041,113.36910630811721L107.67406069846153,114.52212401009065L107.90611736388206,115.70459369518659L108.1381740293026,117.6020555946943L108.37023069472312,116.72479181042937L108.60228736014366,117.5866685288732L108.8343440255642,117.61706432375973L109.06640069098472,117.27833392037215L109.29845735640527,114.76883717612283L109.53051402182578,115.42917274937389L109.76257068724632,115.80805530486718L109.99462735266685,114.38324468209028L110.22668401808738,117.11610053804709L110.45874068350791,117.56324482181778L110.69079734892846,118.14972249581446L110.92285401434897,113.78274007073905L111.15491067976951,114.1072159136908L111.38696734519006,115.88825715373339L111.61902401061057,116.89855633092135L111.85108067603112,118.50331070169356L112.08313734145165,117.54569569022007L112.31519400687218,117.02856781055142L112.5472506722927,114.56497385153894L112.77930733771325,114.71296692968795L113.01136400313376,113.64480559432103L113.24342066855431,108.22330671728444L113.47547733397485,111.61031380875393L113.70753399939537,114.23320815883268L113.93959066481591,115.25461826518766L114.17164733023644,116.22982536248193L114.40370399565697,115.66738743681162L114.6357606610775,117.24210574070261L114.86781732649803,115.51253232628122L115.09987399191856,115.30293675351051L115.3319306573391,117.40209223985345L115.56398732275962,118.4048709368111L115.79604398818016,117.83465754289412L116.0281006536007,116.85395646921704L116.26015731902122,118.23159586368627L116.49221398444176,119.60829872494311L116.72427064986229,116.40761455843244L116.95632731528282,117.28974861665709L117.18838398070335,113.74653995157519L117.4204406461239,116.69551700915248L117.65249731154441,118.13939456882454L117.88455397696495,117.44306019271079L118.11661064238548,116.30390648968563L118.34866730780601,118.96634361429182L118.58072397322655,118.80442878418478L118.81278063864708,120.84010386227524L119.04483730406761,119.59551477756274L119.27689396948814,119.94727781600089L119.50895063490869,120.08831582288985L119.7410073003292,121.02392681858993L119.97306396574974,119.2213333147949L120.20512063117027,119.37980259701348L120.4371772965908,115.33801992540084L120.66923396201133,114.85987642485388L120.90129062743186,116.19273595018426L121.1333472928524,118.4515083118647L121.36540395827294,119.47971596406781L121.59746062369346,116.06754629565049L121.829517289114,116.1692658400996L122.06157395453454,114.74585572681819L122.29363061995505,116.67889046396806L122.5256872853756,115.419702772734L122.75774395079613,118.03694975969536L122.98980061621666,121.32820142083757L123.22185728163718,120.63437768152397L123.45391394705773,122.39308575885666L123.68597061247826,123.22718728931069L123.91802727789879,124.00185119629583L124.15008394331933,122.35584801932934L124.38214060873985,122.75368444925131L124.61419727416039,121.77622163870123L124.84625393958092,119.94234746300542L125.07831060500145,121.8132583004353L125.31036727042198,121.31350131739707L125.54242393584252,122.31806609927317L125.77448060126304,122.91156109901182L126.00653726668358,124.94869420006385L126.23859393210412,124.35100210922438L126.47065059752464,120.56135472644368L126.70270726294518,121.15915029451592L126.9347639283657,119.26945796365021L127.16682059378624,121.48161658214455L127.39887725920677,123.05225169698612L127.6309339246273,122.36391061710107L127.86299059004783,122.77526797468529L128.09504725546836,120.65648404175262L128.3271039208889,122.07639304321846L128.55916058630945,123.83003699586187L128.79121725172996,122.92302414150815L129.0232739171505,122.52919097487008L129.25533058257102,119.96049294454852L129.48738724799156,121.12114653651074L129.71944391341208,120.31676754395056L129.95150057883262,122.96084257852164L130.18355724425317,124.24739456951627L130.41561390967368,123.95578838623689L130.64767057509422,125.22265310312835L130.87972724051477,123.78417132569407L131.11178390593528,123.51916922878458L131.34384057135583,124.60335580864032L131.57589723677637,125.82582190283586L131.80795390219689,123.06752259452462L132.04001056761743,123.14094607994105L132.27206723303794,123.21158886468204L132.5041238984585,124.86772618842035L132.736180563879,124.15556099433253L132.96823722929955,119.84572778306539L133.20029389472006,119.94481739830566L133.4323505601406,121.93817434498393L133.66440722556115,123.82318471556775L133.89646389098166,120.07489144893346L134.1285205564022,121.80744478687627L134.36057722182272,122.07236202140997L134.59263388724327,124.25210234596884L134.8246905526638,124.99455077578482L135.05674721808433,125.10628897880092L135.28880388350487,126.50018305057755L135.5208605489254,126.72744904465382L135.75291721434593,126.82329185931775L135.98497387976647,125.25317375120454L136.21703054518701,122.80887251265028L136.44908721060753,124.21076271413511L136.68114387602807,124.50427674296891L136.9132005414486,125.1099352697931L137.14525720686913,125.97307073599471L137.37731387228965,125.54232073449656L137.6093705377102,123.77450122293546L137.8414272031307,123.93406124782878L138.07348386855125,124.08464178177502L138.30554053397177,125.73043457041771L138.5375971993923,126.42641542335156L138.76965386481285,125.11464393974235L139.00171053023337,126.08484612429511L139.2337671956539,125.8242679318557L139.46582386107445,125.33162867730046L139.697880526495,126.64772226248617L139.9299371919155,125.88509156570287L140.16199385733603,127.93042015193467L140.39405052275657,128.99278452153177L140.62610718817712,127.98755683376716L140.85816385359766,125.68252140337063L141.09022051901817,125.0697383960471L141.3222771844387,124.76327929848503L141.55433384985923,125.07063254951534L141.78639051527978,126.02550086445952L142.0184471807003,125.4943396327529L142.25050384612084,127.091947483011L142.48256051154138,127.5854921940364L142.7146171769619,126.87298383260134L142.9466738423824,128.14309282420442L143.17873050780295,127.47014550690051L143.4107871732235,128.81931033031833L143.64284383864404,127.85535734459886L143.87490050406458,128.14923226268527L144.10695716948507,127.70446064377458L144.33901383490561,127.96018983103957L144.57107050032616,127.7968181907243L144.8031271657467,125.73634407401516L145.03518383116722,125.01122961598105L145.26724049658776,126.2719998633862L145.49929716200828,125.4691929701201L145.73135382742882,124.84177909608417L145.96341049284936,126.04912391226983L146.19546715826988,124.0922695351593L146.42752382369042,123.37940476104141L146.65958048911097,125.44076503961129L146.89163715453148,124.39838835826465L147.123693819952,126.2650306683099L147.35575048537254,127.40175697748957L147.58780715079308,126.42789333692478L147.81986381621363,126.7820809669436L148.0519204816341,125.27101693967423L148.28397714705466,126.83601335528772L148.5160338124752,127.80678328837232L148.74809047789574,125.73729735129369L148.9801471433163,123.54133938273279L149.2122038087368,123.39747140421512L149.44426047415732,125.20249182163039L149.67631713957786,127.05486182075694L149.9083738049984,126.95979148029195L150.14043047041892,121.35445013808052L150.37248713583946,123.19348725839558L150.60454380126,126.33550324175526L150.83660046668052,126.41073605214496L151.06865713210107,126.76378731958157L151.30071379752158,120.24898590356906L151.53277046294212,123.08380860305822L151.76482712836267,124.90597799930958L151.9968837937832,125.43334963789609L152.2289404592037,124.61368090257655L152.46099712462424,125.4737505996222L152.6930537900448,125.67203765631743L152.92511045546533,125.15266946451491L153.15716712088587,127.51836052183967L153.38922378630636,128.83175421091173L153.6212804517269,127.69491924690755L153.85333711714745,129.4756155370073L154.085393782568,130.50406872040853L154.3174504479885,130.16642785292058L154.54950711340905,131.09036552228955L154.78156377882956,128.51256876877886L155.0136204442501,128.72074067732595L155.24567710967062,125.6167763030037L155.47773377509117,126.17581094060722L155.7097904405117,127.91746487228532L155.94184710593225,126.55054084130929L156.17390377135277,128.13267676383768L156.40596043677328,128.48208018392006L156.63801710219383,128.76015975728444L156.87007376761437,127.04339599170375L157.10213043303492,127.137379640012L157.33418709845543,126.28139606607023L157.56624376387595,126.89624788068434L157.7983004292965,127.81658278083006L158.03035709471703,129.12540933454886L158.26241376013758,130.02548116285257L158.4944704255581,131.51400360171112L158.7265270909786,129.5257104747062L158.95858375639915,121.93875590721746L159.1906404218197,122.83514160063751L159.4226970872402,124.77287656946874L159.65475375266075,126.26970794511078L159.8868104180813,125.9382173156473L160.1188670835018,127.12825229386587L160.35092374892233,124.76543884804003L160.58298041434287,127.0558022861399L160.8150370797634,127.21345422368643L161.04709374518396,127.80145670280979L161.2791504106045,127.96709446115736L161.511207076025,127.658974159823L161.74326374144553,127.90185498965252L161.97532040686608,129.73742368221517L162.20737707228662,127.99632790339206L162.43943373770713,127.81556962153961L162.67149040312768,125.03333225237951L162.9035470685482,126.66264671332127L163.13560373396874,126.70888619644009L163.36766039938928,128.15080355929393L163.5997170648098,129.08035081361112L163.83177373023034,129.63073386135696L164.06383039565088,129.13628645194214L164.2958870610714,130.3447733271557L164.5279437264919,130.4960705081915L164.76000039191246,130.96784529412005L164.992057057333,132.03904762692193L165.22411372275354,132.6225083042031L165.45617038817403,133.22574195178709L165.68822705359457,132.96750614818774L165.92028371901512,131.65704415140885L166.15234038443566,132.14895072765177L166.3843970498562,130.51483838128354L166.61645371527672,128.62692043532377L166.84851038069723,129.3921883803461L167.08056704611778,129.4021487845936L167.31262371153832,130.2946536841729L167.54468037695884,129.19118041517223L167.77673704237938,129.58790985111023L168.00879370779992,128.10143882874675L168.24085037322044,130.05711773593646L168.47290703864098,130.72066414660355L168.7049637040615,130.3695489183079L168.93702036948204,131.18576518955476L169.16907703490259,131.0230345030049L169.40113370032313,131.39587539158828L169.63319036574362,132.3467462760675L169.86524703116416,133.08689917336045L170.0973036965847,133.9941426541142L170.32936036200525,130.08692916345905L170.5614170274258,130.0781371029688L170.79347369284628,131.1490765291546L171.02553035826682,131.04689675607162L171.25758702368736,131.45249700544346L171.4896436891079,132.62144775206374L171.72170035452842,132.77417254019537L171.95375701994897,133.19350795445465L172.18581368536948,130.8961256443684L172.41787035079003,131.32523617824978L172.64992701621054,131.982231947885L172.88198368163108,131.60207599864327L173.11404034705163,132.48421570989356L173.34609701247217,131.16749453900843L173.5781536778927,130.303709060155L173.8102103433132,131.61594889534L174.04226700873375,131.6962674752745L174.2743236741543,132.5437432049434L174.50638033957483,133.09083881222813L174.73843700499535,131.91712234198687L174.97049367041586,131.66520479507813L175.2025503358364,132.37416150709672L175.43460700125695,131.95424490766047L175.6666636666775,131.08751159592293L175.898720332098,130.84450668335487L176.13077699751852,132.07389204345984L176.36283366293907,134.2201490348483L176.5948903283596,134.4275567399196L176.82694699378013,134.5689775821295L177.05900365920067,134.47551114343474L177.2910603246212,135.10362559565672L177.52311699004173,135.06414219547236L177.75517365546224,132.96695789833169L177.9872303208828,133.39579056480972L178.21928698630333,132.790703893108L178.45134365172387,132.84389468719814L178.68340031714442,133.14738521123252L178.9154569825649,133.26169752596368L179.14751364798545,130.50843596050635L179.379570313406,131.06295461702663L179.61162697882654,131.07956674177368L179.84368364424705,131.54666164775605L180.0757403096676,132.7129401934683L180.3077969750881,131.06017625964847L180.53985364050865,129.84379444913662L180.7719103059292,130.8802191079449L181.0039669713497,131.67210188320792L181.23602363677026,132.030910466708L181.4680803021908,133.31790890056706L181.70013696761131,133.9915440820488L181.93219363303183,135.41552145620508L182.16425029845237,135.85558384417772L182.39630696387292,135.9131369435797L182.62836362929346,134.8358137915686L182.86042029471395,135.2232928371194L183.0924769601345,135.79166926526838L183.32453362555503,135.72424611884347L183.55659029097558,135.3550157743153L183.78864695639612,136.21506558274467L184.02070362181664,134.88170635699043L184.25276028723715,134.597049981408L184.4848169526577,134.13118536992704L184.71687361807824,133.76487114247294L184.94893028349875,133.126044564283L185.1809869489193,133.7038714170316L185.41304361433984,134.63859083362632L185.64510027976036,134.89681952977026L185.8771569451809,135.22661085556248L186.10921361060142,136.53942439104182L186.34127027602196,134.36662283118667L186.5733269414425,134.66418323991434L186.80538360686305,134.61994864307425L187.03744027228353,135.5351282236035L187.26949693770408,134.38717191751542L187.50155360312462,134.00284653562818L187.73361026854516,135.1440898380275L187.9656669339657,134.9415095317115L188.1977235993862,135.1235803075163L188.42978026480674,134.96730842809407L188.66183693022728,135.49549510673887L188.89389359564782,135.04886977154916L189.12595026106834,135.85733327898487L189.35800692648888,134.81862987469634L189.5900635919094,135.98315037505165L189.82212025732994,136.75251546597934L190.05417692275046,136.1659727729222L190.286233588171,135.5315165497166L190.51829025359154,134.5365230693135L190.7503469190121,134.86328700971953L190.9824035844326,134.95292138003532L191.21446024985312,133.5266840779459L191.44651691527366,134.08874988091634L191.6785735806942,135.32002183770894L191.91063024611475,135.3641305564331L192.14268691153526,132.35440770648043L192.37474357695578,134.23359992179687L192.60680024237632,135.18337744055393L192.83885690779687,135.7390634926115L193.0709135732174,134.27956005466035L193.30297023863793,134.6909207177625L193.53502690405844,134.33770946882518L193.76708356947898,130.17735420667282L193.99914023489953,130.76760464747602L194.23119690032004,131.19297706515746L194.4632535657406,132.2600783833816L194.69531023116113,134.3384129346982L194.92736689658165,133.280870685002L195.15942356200216,132.54622389524656L195.3914802274227,132.69094027793642L195.62353689284325,133.40713344134699L195.8555935582638,132.713530360009L196.08765022368434,133.4728652066933L196.31970688910482,133.5150809855847L196.55176355452537,135.010508553913L196.7838202199459,135.5639365956306L197.01587688536645,136.02617819309893L197.24793355078697,135.2847260109426L197.4799902162075,136.0719344186226L197.71204688162803,136.23166544818298L197.94410354704857,136.1339552014899L198.1761602124691,135.6035291558015L198.40821687788963,136.56157979867197L198.64027354331017,136.45790069264584L198.87233020873072,136.11883495178628L199.10438687415123,134.49946479619243L199.33644353957175,134.9399622594356L199.5685002049923,135.1723253220396L199.80055687041283,136.07376128948482L200.03261353583338,134.5823949305002L200.26467020125386,135.50141357217322L200.4967268666744,135.23575982149111L200.72878353209495,135.4167929784566L200.9608401975155,134.19388959953864L201.19289686293604,135.3055650012725L201.42495352835655,135.99025766571634L201.65701019377707,135.29465078004623L201.8890668591976,135.09244105534222L202.12112352461816,132.47027518750875L202.35318019003867,132.95491836954542L202.58523685545921,134.86711214607516L202.81729352087976,135.20028827509853L203.04935018630027,135.2107797786477L203.28140685172082,135.48518679084648L203.51346351714133,134.56190509195753L203.74552018256188,135.0099127788605L203.97757684798242,135.6975522464079L204.20963351340296,133.66399658299474L204.44169017882345,133.6976652365812L204.673746844244,135.21743191018797L204.90580350966454,135.03193815827686L205.13786017508508,132.6539040899434L205.36991684050562,133.1623825267923L205.6019735059261,134.116856000883L205.83403017134665,134.49510195534071L206.0660868367672,132.43704113819035L206.29814350218774,133.51955386953523L206.53020016760826,135.1132117786939L206.7622568330288,135.2141530936165L206.99431349844932,136.53023186041042L207.22637016386986,135.83174597510123L207.45842682929037,136.5331392136578L207.69048349471092,137.43543513240417L207.92254016013146,137.556068550054L208.154596825552,137.53671506862045L208.38665349097252,134.9567297676401L208.61871015639304,133.71661556729077L208.85076682181358,133.76173062997438L209.08282348723412,134.22531142520972L209.31488015265467,133.84824531430962L209.54693681807518,134.95655969024043L209.7789934834957,135.67469559738768L210.01105014891624,136.0694934397631L210.24310681433678,134.69337255302148L210.47516347975733,135.05409875182906L210.70722014517784,136.55174914631579L210.93927681059836,136.89096189836326L211.1713334760189,136.98423384618377L211.40339014143944,133.74424860688453L211.63544680685996,134.54150077345503L211.8675034722805,135.36275154074428L212.09956013770105,136.8261537463368L212.33161680312156,136.75009132363417L212.56367346854208,137.26259166268062L212.79573013396262,137.41876027410927L213.02778679938316,138.11877154688693L213.2598434648037,138.3445416881538L213.49190013022425,137.2765963082239L213.72395679564474,136.75498062684548L213.95601346106528,137.6882662071139L214.18807012648583,138.5407368825607L214.42012679190637,137.73326801453612L214.65218345732688,137.5493873294943L214.88424012274743,137.5389260369724L215.11629678816794,138.16809598336533L215.3483534535885,137.82483736924814L215.58041011900903,137.16723755283087L215.81246678442955,136.90983387477047L216.0445234498501,137.16675237301544L216.27658011527063,137.70722846759108L216.50863678069115,137.05299495773423L216.74069344611166,134.8014860864919L216.9727501115322,135.06136024570512L217.20480677695275,135.84055558901977L217.4368634423733,134.7915000723509L217.66892010779378,135.04137012929613L217.90097677321432,134.94214016501147L218.13303343863487,136.3618183950797L218.3650901040554,136.93914144765913L218.59714676947596,127.9617505198078L218.82920343489647,130.26466024943966L219.06126010031699,130.83810010255056L219.29331676573753,132.43505135302834L219.52537343115807,130.7427547770415L219.7574300965786,132.18618510938853L219.98948676199913,134.16747446434425L220.22154342741968,135.20288611637656L220.4536000928402,135.20766715711503L220.68565675826073,135.6764897909335L220.91771342368125,136.248398583996L221.1497700891018,137.08018142099854L221.38182675452234,136.14570763915737L221.61388341994288,136.90710103141618L221.84594008536337,136.91465103837788L222.0779967507839,134.6272890368789L222.31005341620445,135.84462759929534L222.542110081625,135.75393002073884L222.77416674704554,135.82629573366916L223.00622341246603,136.355226429793L223.23828007788657,134.63930684702999L223.47033674330712,135.6758103487675L223.70239340872766,136.39588430054906L223.93445007414817,136.79917353252108L224.16650673956872,137.39779152066586L224.39856340498923,137.49271660564952L224.63062007040978,137.5372813583898L224.8626767358303,137.719466571769L225.09473340125083,135.9452541390877L225.32679006667138,135.7760157989995L225.55884673209192,136.97348169338403L225.79090339751244,137.6171024337274L226.02296006293295,137.59206814531885L226.2550167283535,137.2214599662162L226.48707339377404,137.4252248146102L226.71913005919458,138.28046165954765L226.9511867246151,137.98668923613272L227.1832433900356,138.5877783873159L227.41530005545616,139.30870185897393L227.6473567208767,138.5798206220167L227.87941338629724,139.1551914363959L228.11147005171776,138.49668309003235L228.34352671713827,138.59901780325055L228.57558338255882,138.65935789784237L228.80764004797936,138.0785164284622L229.03969671339988,138.126750462939L229.27175337882042,138.69106928739552L229.50381004424096,139.41736240759369L229.73586670966148,139.5294253151025L229.967923375082,138.07857760363402L230.19998004050254,137.34216920813608L230.43203670592308,137.76837062802858L230.66409337134363,137.58149949704386L230.89615003676417,137.74821810365557L231.12820670218466,138.69400586235702L231.3602633676052,139.17371111158369L231.59232003302574,139.54767617633968L231.8243766984463,138.42414819647217L232.0564333638668,138.29293537057006L232.28849002928735,139.0287085845006L232.52054669470786,135.41134802905478L232.7526033601284,135.9501460264838L232.98466002554895,135.1236849038975L233.21671669096946,135.3557888063467L233.44877335639,136.73825142611025L233.68083002181055,134.8947466725367L233.91288668723107,136.0149446231513L234.14494335265158,137.36362730807735L234.37700001807212,136.75610011010994L234.60905668349267,137.0400376899938L234.8411133489132,137.72684226019686L235.0731700143337,134.89259784240264L235.30522667975424,136.55098031804386L235.53728334517479,137.49882794474965L235.76934001059533,137.7753241429037L236.00139667601587,138.53044758692027L236.2334533414364,136.74953464230106L236.4655100068569,137.7095779544158L236.69756667227745,137.28359996657827L236.929623337698,134.15803843053249L237.1616800031185,134.99380680393682L237.39373666853905,135.97452519800592L237.6257933339596,136.90786573546526L237.8578499993801,137.83116092012307L238.08990666480065,138.6975082840018L238.32196333022117,139.28357476255545L238.5540199956417,139.0757741657847L238.78607666106225,139.10569782415288L239.0181333264828,139.14731100277044L239.25018999190328,139.33246028710218L239.48224665732383,139.42266098442218L239.71430332274437,139.33993665033748L239.94635998816491,138.84324108983307L240.17841665358546,139.57887994076412L240.41047331900594,140.25772911427453L240.6425299844265,140.3449597644421L240.87458664984703,141.03299279060252L241.10664331526758,140.89096369856992L241.3386999806881,140.22889877666935L241.57075664610863,140.74400621279824L241.80281331152915,141.07015960752287L242.0348699769497,140.35793765312937L242.2669266423702,138.415771344536L242.49898330779075,139.18711143838897L242.7310399732113,139.38079490739418L242.96309663863184,139.53747647195362L243.19515330405235,140.2915038169011L243.42720996947287,139.66621158618963L243.6592666348934,139.89092303886846L243.89132330031396,140.06562256805267L244.1233799657345,140.07327920958252L244.35543663115502,140.0507640308202L244.58749329657553,140.2165793777882L244.81954996199607,140.59323603587896L245.05160662741662,140.58340260922293L245.28366329283716,139.1880196638299L245.51571995825768,139.3000998649503L245.7477766236782,138.75551707321685L245.97983328909874,139.02701044413337L246.21188995451928,139.12592208867818L246.4439466199398,138.1741700460955L246.67600328536034,137.38800020701794L246.90805995078088,138.22867374227616L247.1401166162014,136.60827824394133L247.3721732816219,138.09491098888498L247.60422994704246,139.06306597434764L247.836286612463,139.81157321238163L248.06834327788354,139.7572963816339L248.3003999433041,139.9245865520273L248.53245660872457,140.22393507845788L248.76451327414512,139.54408662291797L248.99656993956566,138.753006662998L249.2286266049862,139.7780207600977L249.46068327040672,139.5539601125851L249.69273993582726,138.7632486479478L249.92479660124778,138.7966960688608L250.15685326666832,139.42629839654157L250.38890993208886,140.40986060042016L250.62096659750938,141.80114238315073L250.85302326292992,142.19626128378175L251.08507992835047,140.95531349449598L251.31713659377098,141.12150084341866L251.5491932591915,142.26452598614335L251.78124992461204,141.54421582607876L252.01330659003258,141.4723752186367L252.24536325545313,142.0158638262491L252.47741992087361,142.5929602855745L252.70947658629416,142.16656288264974L252.9415332517147,142.3775786499272L253.17358991713525,143.15627421668844L253.4056465825558,144.02832130090252L253.6377032479763,143.49753154118983L253.86975991339682,144.00778457349628L254.10181657881736,143.76346083415834L254.3338732442379,144.3384781146395L254.56592990965842,144.43132095751423L254.79798657507897,145.30554495812424L255.0300432404995,146.54204147085034L255.26209990592002,147.6237835851435" fill="none"></path></g><g><path style="fill: none;" stroke="rgb(255, 112, 67)" stroke-width="2px" d="M23.437491150808334,148.13650446047725L23.669547816228867,143.58938173181585L23.9016044816494,137.34908905246792L24.13366114706993,132.7655623768653L24.365717812490463,112.86969213661219L24.597774477910995,86.43829842427512L24.82983114333153,56.340188464612815L25.06188780875206,30.560698320082395L25.29394447417259,10.059743831488314L25.526001139593124,-1.558967294863762" fill="none"></path></g></g></g></g><g opacity="0.2"><g><g><g><path style="fill: none;" stroke="rgb(187, 187, 187)" stroke-width="2px" d="M23.437491150808334,151.0637743654077L23.669547816228867,151.37635981361365L23.9016044816494,149.0568784792372L24.13366114706993,146.5421472616298L24.365717812490463,143.52907280087246L24.597774477910995,140.02869065075578L24.82983114333153,138.31226718762144L25.06188780875206,134.13825441428048L25.29394447417259,133.41646197853598L25.526001139593124,130.74069910370153L25.758057805013653,126.36037095220418L25.99011447043419,123.19496123684742L26.222171135854722,115.48511002145821L26.454227801275252,115.65254084773863L26.686284466695785,110.6545929540476L26.91834113211632,111.99773130622235L27.15039779753685,93.64654026460816L27.382454462957384,101.50904036798471L27.614511128377913,97.11325660265945L27.846567793798446,93.534536467228L28.07862445921898,83.64486583819311L28.310681124639512,95.10273933622452L28.542737790060045,92.34554405978488L28.774794455480574,85.36185818289029L29.006851120901107,90.52635064526913L29.23890778632164,91.3090658052222L29.47096445174217,84.53031502016574L29.703021117162706,85.73363126653813L29.93507778258324,82.98083134869971L30.167134448003768,76.2351595294649L30.3991911134243,77.71829963425135L30.63124777884483,82.03539210887024L30.863304444265367,85.58924313766568L31.0953611096859,85.08319604050976L31.32741777510643,52.83229422172084L31.559474440526962,79.8364013865573L31.79153110594749,44.47589114549796L32.02358777136803,66.45545071241095L32.25564443678856,69.48308030736456L32.48770110220909,77.14653773424847L32.71975776762962,62.826842658033094L32.95181443305015,60.47860735476925L33.18387109847069,69.4559236980233L33.41592776389122,46.101239664537204L33.64798442931175,82.30724563717779L33.880041094732285,79.49017407919388L34.11209776015282,75.72369308689467L34.34415442557335,62.244816936991405L34.57621109099388,74.77459504038218L34.80826775641441,71.80814117222693L35.04032442183495,46.90227281081328L35.27238108725548,67.64997025335396L35.50443775267601,61.306569557761485L35.73649441809654,54.26922916715182L35.96855108351708,64.29587450006144L36.20060774893761,35.453501417787116L36.432664414358136,61.317498071994734L36.66472107977867,56.397516893545856L36.8967777451992,18.69071752299025L37.12883441061973,46.83096500396967L37.36089107604027,25.8410437802043L37.592947741460804,-23.51974352188355L37.825004406881334,-5.735954951032885L38.05706107230186,59.812997961580855L38.2891177377224,37.19703358444689L38.52117440314293,60.784695576705005L38.75323106856346,53.118842859030245L38.985287733983995,37.15812208554953L39.217344399404524,9.855795229025272L39.449401064825054,70.82212570640044L39.68145773024559,21.461901297648446L39.91351439566612,14.601285461587697L40.145571061086656,46.042614922431135L40.37762772650719,56.131112651787504L40.60968439192772,29.57240382128266L40.84174105734825,30.839213238293496L41.07379772276878,62.969104966328665L41.30585438818932,33.50167476395501L41.53791105360985,48.53072323142668L41.769967719030376,56.337239400794104L42.00202438445091,-4.040292670828245L42.23408104987144,26.26172870180129L42.46613771529197,2.420441344154007L42.698194380712515,62.526431275271655L42.930251046133044,53.31122063889738L43.162307711553574,35.78986012709225L43.39436437697411,-13.391028860148824L43.62642104239464,7.562088720615135L43.85847770781517,65.4391707474421L44.0905343732357,39.310494460845554L44.322591038656235,20.463340496304898L44.554647704076764,59.97041048412854L44.78670436949729,45.27546316439163L45.01876103491784,22.628910923858506L45.25081770033837,21.029647121531625L45.482874365758896,58.26274779706175L45.71493103117943,16.972647297437206L45.94698769659996,18.950786220606798L46.17904436202049,68.33019092036653L46.41110102744103,51.52293246381056L46.64315769286156,68.5168259905626L46.875214358282086,53.65147169573763L47.107271023702616,16.08831791390931L47.33932768912315,46.75443546320203L47.57138435454369,63.22654483230226L47.80344101996422,46.808209741456615L48.035497685384755,51.853099346421345L48.267554350805284,45.83052389935532L48.49961101622581,40.17248775774879L48.73166768164635,66.3135836270959L48.96372434706688,50.164539103411556L49.19578101248741,44.09071640987531L49.427837677907945,66.28321133986792L49.659894343328475,49.082574276730625L49.891951008749004,49.82487489281507L50.12400767416954,66.89795074488563L50.35606433959008,74.74507906961195L50.588121005010606,32.60286584759642L50.820177670431136,59.76137345681106L51.05223433585167,60.620857686610876L51.2842910012722,65.76351707343112L51.51634766669273,64.2987668136914L51.74840433211327,44.30795730815146L51.9804609975338,72.62091124337817L52.212517662954326,69.53596233979955L52.44457432837487,63.31303279453288L52.6766309937954,64.34345695162169L52.90868765921593,65.79278153866832L53.14074432463646,63.47950550449695L53.372800990056994,67.29774873078642L53.604857655477524,44.62842326305928L53.83691432089805,47.38149863933867L54.06897098631859,71.61749398995617L54.30102765173912,9.829267383516601L54.53308431715965,77.52198160103329L54.765140982580185,54.545705606685694L54.99719764800072,43.12638431393301L55.22925431342125,74.00025740997012L55.46131097884178,76.56546414129613L55.69336764426232,81.38025612466483L55.925424309682846,79.58120111747316L56.157480975103375,84.72032146214994L56.38953764052391,87.79829408130018L56.62159430594444,78.21092112652457L56.85365097136497,83.52546059226925L57.08570763678551,35.07915339653911L57.31776430220604,56.212528585768496L57.54982096762657,30.154615177360643L57.78187763304711,69.5647178057437L58.01393429846764,24.541802125885344L58.24599096388817,50.26655453819388L58.4780476293087,63.8166965773519L58.710104294729234,64.91929683419602L58.942160960149764,80.68286122268185L59.17421762557029,69.3527764883423L59.40627429099083,72.39977799756689L59.63833095641136,85.56132602349834L59.87038762183189,65.34791615653769L60.10244428725243,49.50718747522462L60.33450095267296,30.45922430723305L60.56655761809349,92.54891622438201L60.79861428351403,69.91890346675972L61.03067094893456,83.10105099349246L61.262727614355086,63.17630959619115L61.494784279775615,74.12730962174379L61.72684094519615,65.70177246506998L61.95889761061668,69.22985016495588L62.19095427603721,82.68620459319816L62.423010941457754,78.99894784380633L62.65506760687828,90.29794170368065L62.88712427229881,79.8142808761038L63.11918093771935,90.32365515032043L63.35123760313988,76.45664009244084L63.58329426856041,63.04089781955742L63.815350933980945,88.91415227267167L64.04740759940148,86.20985699334797L64.27946426482201,87.64034860655156L64.51152093024254,93.0746106942499L64.74357759566307,88.00799580181214L64.9756342610836,88.9494588589288L65.20769092650413,101.00421486913213L65.43974759192467,87.33696706320946L65.6718042573452,91.09433996227645L65.90386092276573,94.03106228349027L66.13591758818627,63.82072066588052L66.3679742536068,61.97174181038054L66.60003091902733,80.81285964212826L66.83208758444786,81.35628525207541L67.06414424986839,68.08960192510658L67.29620091528892,91.39937425626422L67.52825758070945,51.31903333523945L67.76031424613,82.09995118391063L67.99237091155052,90.07564674183581L68.22442757697105,90.45388711061895L68.45648424239158,87.30370246235152L68.68854090781213,94.97748958077098L68.92059757323266,75.68267972032834L69.15265423865318,88.69535443538146L69.38471090407371,108.96574827025641L69.61676756949424,95.30750675770733L69.84882423491479,99.22001066484373L70.0808809003353,91.15721634553626L70.31293756575585,82.9249132851873L70.54499423117637,99.05344813147498L70.7770508965969,82.95171658913692L71.00910756201743,90.63988742875544L71.24116422743798,79.64803571876485L71.4732208928585,110.81676611704212L71.70527755827904,84.56299277477991L71.93733422369958,108.70507775582865L72.1693908891201,100.76062577215663L72.40144755454064,76.53722366287202L72.63350421996117,78.3363026229716L72.8655608853817,98.20638348442573L73.09761755080223,83.25773894057592L73.32967421622277,87.60018556821598L73.56173088164329,102.79816790693931L73.79378754706383,71.9748474230431L74.02584421248437,52.38225501148199L74.25790087790489,10.386831197356734L74.48995754332543,89.70643063110721L74.72201420874595,97.57949995509841L74.95407087416649,93.44347948781382L75.18612753958702,99.69835023577649L75.41818420500755,66.90689715598945L75.65024087042808,108.86891265180934L75.88229753584862,102.70591927035669L76.11435420126914,104.47187734704582L76.34641086668968,113.12866485900875L76.57846753211022,87.21069332094281L76.81052419753074,100.69522834533946L77.04258086295128,105.2151839852624L77.27463752837181,93.91114205004638L77.50669419379234,106.84809264086026L77.73875085921287,101.70954417185982L77.97080752463341,104.85404000449897L78.20286419005393,108.38661186873118L78.43492085547447,109.62771382732923L78.66697752089502,79.99732899834055L78.89903418631553,104.45689480314905L79.13109085173608,108.62411992121142L79.3631475171566,81.55628005665743L79.59520418257713,104.50914807175144L79.82726084799766,77.47320150407762L80.0593175134182,84.72955530814866L80.29137417883872,91.07626150503249L80.52343084425927,97.5320432563047L80.75548750967978,95.5409757510915L80.98754417510033,66.6507088294541L81.21960084052087,109.70812972740505L81.45165750594138,111.68557701035878L81.68371417136193,102.72670440619429L81.91577083678246,98.55134727589697L82.14782750220299,100.1645277177187L82.37988416762352,107.29004175645304L82.61194083304406,113.2327342556442L82.84399749846457,89.46057199610738L83.07605416388512,107.56470675732632L83.30811082930565,114.43476602733L83.54016749472618,106.22231393941021L83.77222416014672,93.63256374284352L84.00428082556725,94.11369382754765L84.23633749098778,112.88795310509575L84.46839415640831,80.44342795522847L84.70045082182885,110.19478993972253L84.93250748724937,105.21463306838052L85.16456415266991,18.112865596151615L85.39662081809044,105.44482051338122L85.62867748351097,104.62936172831722L85.8607341489315,116.70378008179996L86.09279081435203,91.2938078028845L86.32484747977257,105.20341113102538L86.5569041451931,109.12264281117056L86.78896081061363,116.20909265121963L87.02101747603416,71.76546906678792L87.2530741414547,85.81321480306413L87.48513080687522,108.61737717763518L87.71718747229576,105.7779934859345L87.94924413771629,78.70129703368134L88.18130080313682,118.46398347236405L88.41335746855735,97.94423088382115L88.6454141339779,103.65214296792017L88.87747079939842,100.39240969533321L89.10952746481895,116.63858326058649L89.3415841302395,63.76104798405348L89.57364079566001,100.10257352141338L89.80569746108056,111.28525505459749L90.03775412650108,82.19543945128787L90.26981079192161,109.96417134237949L90.50186745734214,82.18282824527404L90.73392412276269,113.39509604778848L90.9659807881832,120.72163486614492L91.19803745360375,98.71196349987744L91.43009411902429,123.77479526681549L91.6621507844448,107.5800336242743L91.89420744986535,101.13033291749736L92.12626411528586,111.71089523401807L92.3583207807064,111.460647228644L92.59037744612694,115.94965571154918L92.82243411154747,93.90742336109356L93.054490776968,112.0084562207384L93.28654744238854,110.00090612077067L93.51860410780905,94.8143163838713L93.7506607732296,114.06413968914828L93.98271743865014,100.04354756809985L94.21477410407066,44.80456097136447L94.4468307694912,115.62095594454779L94.67888743491173,113.55493080814841L94.91094410033226,117.67887601573362L95.14300076575279,112.45619894593155L95.37505743117333,111.0930269804048L95.60711409659385,120.75346528664183L95.83917076201439,105.94801122626905L96.07122742743493,112.92663106314099L96.30328409285545,120.06088491914846L96.53534075827599,102.64221052354706L96.76739742369652,121.32793985346535L96.99945408911705,114.174945841133L97.23151075453758,58.71735003625719L97.46356741995811,120.96504731042458L97.69562408537864,113.09563080488942L97.92768075079918,89.67810032927842L98.1597374162197,111.69032567435166L98.39179408164024,119.69009091061137L98.62385074706079,103.55139703725702L98.8559074124813,105.62777881221331L99.08796407790184,102.12153418788603L99.32002074332237,97.46791533360664L99.5520774087429,113.01516699899781L99.78413407416343,104.09837965402856L100.01619073958398,117.73973137238866L100.24824740500449,96.23522683391147L100.48030407042503,112.91653790657107L100.71236073584556,107.82549703629361L100.9444174012661,117.09115848495018L101.17647406668664,122.64752052071212L101.40853073210717,117.48998637808067L101.6405873975277,122.68175820845384L101.87264406294823,109.78214421284231L102.10470072836877,103.84167035174619L102.33675739378928,123.49236054143935L102.56881405920983,118.93786181419885L102.80087072463036,124.5346683349643L103.03292739005089,121.56437002508972L103.26498405547142,123.39245296255301L103.49704072089195,127.82609130471418L103.72909738631249,108.21820795556698L103.96115405173302,128.31561688364022L104.19321071715355,115.95756915349945L104.42526738257408,104.91280247582549L104.65732404799462,107.26774159919023L104.88938071341514,113.36279854558737L105.12143737883568,117.71840130789614L105.35349404425621,122.25426766689732L105.58555070967674,113.2678971244539L105.81760737509727,123.68301670605058L106.04966404051781,124.74650186428009L106.28172070593834,108.72268314314141L106.51377737135887,89.02700639828257L106.74583403677941,100.74454738272306L106.97789070219993,126.00621822643652L107.20994736762047,118.41390093604086L107.442004033041,111.9683500705591L107.67406069846153,119.13419481798437L107.90611736388206,120.43447243557037L108.1381740293026,125.19190319272518L108.37023069472312,113.21573667336962L108.60228736014366,121.03417540264851L108.8343440255642,117.73864750330581L109.06640069098472,115.92341230682193L109.29845735640527,104.73085019912554L109.53051402182578,118.07051504237808L109.76257068724632,117.32358552684033L109.99462735266685,108.68400219098265L110.22668401808738,128.04752396187433L110.45874068350791,119.35182195690055L110.69079734892846,120.49563319180122L110.92285401434897,96.31481037043747L111.15491067976951,115.40511928549778L111.38696734519006,123.0124221139037L111.61902401061057,120.93975303967322L111.85108067603112,124.92232818478244L112.08313734145165,113.71523564432609L112.31519400687218,114.96005629187691L112.5472506722927,104.71059801548891L112.77930733771325,115.30493924228396L113.01136400313376,109.37216025285342L113.24342066855431,86.5373112091381L113.47547733397485,125.15834217463188L113.70753399939537,124.72478555914755L113.93959066481591,119.34025869060771L114.17164733023644,120.13065375165894L114.40370399565697,113.41763573413039L114.6357606610775,123.54097895626664L114.86781732649803,108.59423866859557L115.09987399191856,114.46455446242771L115.3319306573391,125.79871418522518L115.56398732275962,122.41598572464156L115.79604398818016,115.55380396722632L116.0281006536007,112.93115217450874L116.26015731902122,123.74215344156316L116.49221398444176,125.11511016997052L116.72427064986229,103.60487789238971L116.95632731528282,120.81828484955571L117.18838398070335,99.57370529124762L117.4204406461239,128.49142523946165L117.65249731154441,123.91490480751277L117.88455397696495,114.65772268825582L118.11661064238548,111.74729167758504L118.34866730780601,129.61609211271647L118.58072397322655,118.15676946375659L118.81278063864708,128.9828041746371L119.04483730406761,114.61715843871275L119.27689396948814,121.35432996975354L119.50895063490869,120.65246785044565L119.7410073003292,124.76637080139021L119.97306396574974,112.01095929961484L120.20512063117027,120.01367972588778L120.4371772965908,99.17088923895035L120.66923396201133,112.94730242266604L120.90129062743186,121.52417405150575L121.1333472928524,127.48659775858654L121.36540395827294,123.59254657288017L121.59746062369346,102.41886762198124L121.829517289114,116.57614401789601L122.06157395453454,109.05221527369262L122.29363061995505,124.41102941256759L122.5256872853756,110.38295200779774L122.75774395079613,128.5059377075407L122.98980061621666,134.49320806540635L123.22185728163718,117.85908272426974L123.45391394705773,129.42791806818727L123.68597061247826,126.56359341112687L123.91802727789879,127.10050682423638L124.15008394331933,115.77183531146345L124.38214060873985,124.3450301689392L124.61419727416039,117.86637039650091L124.84625393958092,112.60685076022204L125.07831060500145,129.29690165015475L125.31036727042198,119.31447338524423L125.54242393584252,126.33632522677753L125.77448060126304,125.28554109796649L126.00653726668358,133.09722660427192L126.23859393210412,121.96023374586653L126.47065059752464,105.40276519532084L126.70270726294518,123.55033256680491L126.9347639283657,111.71068864018736L127.16682059378624,130.3302510561219L127.39887725920677,129.3347921563525L127.6309339246273,119.61054629756073L127.86299059004783,124.42069740502215L128.09504725546836,112.18134831002195L128.3271039208889,127.75602904908182L128.55916058630945,130.84461280643558L128.79121725172996,119.29497272409323L129.0232739171505,120.95385830831785L129.25533058257102,109.68570082326222L129.48738724799156,125.76376090435971L129.71944391341208,117.09925157370978L129.95150057883262,133.53714271680596L130.18355724425317,129.39360253349486L130.41561390967368,122.78936365311928L130.64767057509422,130.29011197069426L130.87972724051477,118.03024421595691L131.11178390593528,122.45916084114663L131.34384057135583,128.94010212806322L131.57589723677637,130.71568627961804L131.80795390219689,112.03432536127957L132.04001056761743,123.43464002160684L132.27206723303794,123.49416000364599L132.5041238984585,131.4922754833735L132.736180563879,121.30690021798124L132.96823722929955,102.60639493799687L133.20029389472006,120.34117585926676L133.4323505601406,129.91160213169712L133.66440722556115,131.36322619790297L133.89646389098166,105.08171838239623L134.1285205564022,128.73765813864753L134.36057722182272,123.13203095954482L134.59263388724327,132.97106364420438L134.8246905526638,127.96434449504858L135.05674721808433,125.55324179086539L135.28880388350487,132.07575933768413L135.5208605489254,127.63651302095886L135.75291721434593,127.20666311797339L135.98497387976647,118.97270131875177L136.21703054518701,113.03166755843327L136.44908721060753,129.81832352007444L136.68114387602807,125.67833285830403L136.9132005414486,127.53256937708993L137.14525720686913,129.4256126008011L137.37731387228965,123.8193207285039L137.6093705377102,116.7032231766911L137.8414272031307,124.57230134740202L138.07348386855125,124.68696391756002L138.30554053397177,132.31360572498858L138.5375971993923,129.2103388350869L138.76965386481285,119.86755800530547L139.00171053023337,129.96565486250614L139.2337671956539,124.78195516209817L139.46582386107445,123.36107165907937L139.697880526495,131.91209660322906L139.9299371919155,122.8345687785696L140.16199385733603,136.11173449686189L140.39405052275657,133.24224199992022L140.62610718817712,123.9666460827086L140.85816385359766,116.4623796817846L141.09022051901817,122.61860636675307L141.3222771844387,123.53744290823664L141.55433384985923,126.30004555363662L141.78639051527978,129.84497412423616L142.0184471807003,123.36969470592645L142.25050384612084,133.4823788840434L142.48256051154138,129.559671038138L142.7146171769619,124.02295038686104L142.9466738423824,133.2235287906167L143.17873050780295,124.77835623768492L143.4107871732235,134.21596962398962L143.64284383864404,123.99954540172095L143.87490050406458,129.32473193503094L144.10695716948507,125.92537416813185L144.33901383490561,128.98310658009945L144.57107050032616,127.14333162946332L144.8031271657467,117.49444760717863L145.03518383116722,122.11077178384448L145.26724049658776,131.3150808530069L145.49929716200828,122.2579653970557L145.73135382742882,122.33212359994043L145.96341049284936,130.87850317701262L146.19546715826988,116.26485202671714L146.42752382369042,120.5279456645698L146.65958048911097,133.6862061538908L146.89163715453148,120.22888163287821L147.123693819952,133.7315999084909L147.35575048537254,131.94866221420816L147.58780715079308,122.53243877466574L147.81986381621363,128.19883148701885L148.0519204816341,119.22676083059677L148.28397714705466,133.0959990177416L148.5160338124752,131.68986302071073L148.74809047789574,117.45935360297919L148.9801471433163,114.75750750848913L149.2122038087368,122.8219994901446L149.44426047415732,132.42257349129133L149.67631713957786,134.4643418172631L149.9083738049984,126.57951011843208L150.14043047041892,98.93308476923477L150.37248713583946,130.54963573965588L150.60454380126,138.90356717519396L150.83660046668052,126.71166729370375L151.06865713210107,128.1759923893281L151.30071379752158,94.18978023951901L151.53277046294212,134.4230994010149L151.76482712836267,132.19465558431497L151.9968837937832,127.54283619224222L152.2289404592037,121.33500596129836L152.46099712462424,128.91402938780482L152.6930537900448,126.46518588309829L152.92511045546533,123.0751966973049L153.15716712088587,136.9811247511386L153.38922378630636,134.08532896719993L153.6212804517269,123.14757939089091L153.85333711714745,136.59840069740633L154.085393782568,134.61788145401334L154.3174504479885,128.8158643829688L154.54950711340905,134.78611619976544L154.78156377882956,118.20138175473619L155.0136204442501,129.55342831151435L155.24567710967062,113.20091880571474L155.47773377509117,128.41194949102123L155.7097904405117,134.8840805989977L155.94184710593225,121.08284471740511L156.17390377135277,134.46122045395128L156.40596043677328,129.8796938642495L156.63801710219383,129.87247805074207L156.87007376761437,120.17634092938093L157.10213043303492,127.51331423324498L157.33418709845543,122.85746177030313L157.56624376387595,129.35565513914082L157.7983004292965,131.49792238141293L158.03035709471703,134.36071554942396L158.26241376013758,133.62576847606744L158.4944704255581,137.4680933571454L158.7265270909786,121.5725379666865L158.95858375639915,91.59093763726247L159.1906404218197,126.42068437431779L159.4226970872402,132.52381644479357L159.65475375266075,132.25703344767894L159.8868104180813,124.61225479779343L160.1188670835018,131.88839220674012L160.35092374892233,115.31418506473666L160.58298041434287,136.2172560385393L160.8150370797634,127.84406197387254L161.04709374518396,130.1534666193032L161.2791504106045,128.62964549454765L161.511207076025,126.4264929544856L161.74326374144553,128.8733783089706L161.97532040686608,137.0796984524658L162.20737707228662,121.03194478809957L162.43943373770713,127.09253649412985L162.67149040312768,113.90438277573904L162.9035470685482,133.17990455708835L163.13560373396874,126.89384412891533L163.36766039938928,133.9184730107093L163.5997170648098,132.7985398308799L163.83177373023034,131.83226605234026L164.06383039565088,127.15849681428287L164.2958870610714,135.17872082800997L164.5279437264919,131.10125923233468L164.76000039191246,132.8549444378342L164.992057057333,136.3238569581293L165.22411372275354,134.9563510133279L165.45617038817403,135.63867654212294L165.68822705359457,131.9345629337905L165.92028371901512,126.41519616429325L166.15234038443566,134.1165770326233L166.3843970498562,123.97838899581076L166.61645371527672,121.07524865148463L166.84851038069723,132.4532601604356L167.08056704611778,129.44199040158352L167.31262371153832,133.8646732824901L167.54468037695884,124.7772873391695L167.77673704237938,131.17482759486217L168.00879370779992,122.15555473929291L168.24085037322044,137.87983336469532L168.47290703864098,133.3748497892719L168.7049637040615,128.96508800512527L168.93702036948204,134.45063027454222L169.16907703490259,130.37211175680548L169.40113370032313,132.8872389459218L169.63319036574362,136.15022981398434L169.86524703116416,136.0475107625322L170.0973036965847,137.62311657712922L170.32936036200525,114.45807520083844L170.5614170274258,130.0429688610078L170.79347369284628,135.43283423389775L171.02553035826682,130.63817766373964L171.25758702368736,133.07489800293095L171.4896436891079,137.29725073854476L171.72170035452842,133.38507169272188L171.95375701994897,134.87084961149176L172.18581368536948,121.70659640402341L172.41787035079003,133.04167831377535L172.64992701621054,134.6102150264259L172.88198368163108,130.0814522016763L173.11404034705163,136.01277455489466L173.34609701247217,125.90060985546795L173.5781536778927,126.8485671447413L173.8102103433132,136.86490823608005L174.04226700873375,132.01754179501253L174.2743236741543,135.93364612361893L174.50638033957483,135.27922124136705L174.73843700499535,127.22225646102181L174.97049367041586,130.65753460744318L175.2025503358364,135.20998835517102L175.43460700125695,130.27457850991559L175.6666636666775,127.62057834897274L175.898720332098,129.87248703308254L176.13077699751852,136.99143348387972L176.36283366293907,142.8051770004022L176.5948903283596,135.25718756020473L176.82694699378013,135.134660950969L177.05900365920067,134.10164538865584L177.2910603246212,137.61608340454458L177.52311699004173,134.90620859473495L177.75517365546224,124.57822070976891L177.9872303208828,135.11112123072192L178.21928698630333,130.3703572063012L178.45134365172387,133.05665786355866L178.68340031714442,134.36134730737004L178.9154569825649,133.71894678488823L179.14751364798545,119.49538969867712L179.379570313406,133.2810292431078L179.61162697882654,131.14601524076173L179.84368364424705,133.41504127168562L180.0757403096676,137.37805437631735L180.3077969750881,124.44912052436908L180.53985364050865,124.97826720708926L180.7719103059292,135.0259177431779L181.0039669713497,134.83963298426002L181.23602363677026,133.4661448007084L181.4680803021908,138.4659026360033L181.70013696761131,136.68608480797565L181.93219363303183,141.11143095283023L182.16425029845237,137.6158333960683L182.39630696387292,136.14334934118762L182.62836362929346,130.52652118352415L182.86042029471395,136.7732090193226L183.0924769601345,138.06517497786433L183.32453362555503,135.45455353314378L183.55659029097558,133.87809439620253L183.78864695639612,139.65526481646225L184.02070362181664,129.54826945397355L184.25276028723715,133.45842447907816L184.4848169526577,132.26772692400334L184.71687361807824,132.29961423265652L184.94893028349875,130.57073825152327L185.1809869489193,136.01517882802597L185.41304361433984,138.37746850000514L185.64510027976036,135.92973431434612L185.8771569451809,136.54577615873137L186.10921361060142,141.79067853295905L186.34127027602196,125.67541659176618L186.5733269414425,135.85442487482504L186.80538360686305,134.44301025571383L187.03744027228353,139.19584654572046L187.26949693770408,129.7953466931632L187.50155360312462,132.46554500807918L187.73361026854516,139.70906304762474L187.9656669339657,134.13118830644748L188.1977235993862,135.85186341073558L188.42978026480674,134.3422209104051L188.66183693022728,137.60824182131805L188.89389359564782,133.26236843079036L189.12595026106834,139.09118730872777L189.35800692648888,130.6638162575422L189.5900635919094,140.64123237647289L189.82212025732994,139.8299758296901L190.05417692275046,133.81980200069373L190.286233588171,132.99369165689419L190.51829025359154,130.55654914770096L190.7503469190121,136.17034277134374L190.9824035844326,135.3114588612984L191.21446024985312,127.82173486958833L191.44651691527366,136.33701309279806L191.6785735806942,140.24510966487932L191.91063024611475,135.54056543132972L192.14268691153526,120.31551630666978L192.37474357695578,141.75036878306253L192.60680024237632,138.98248751558225L192.83885690779687,137.96180770084192L193.0709135732174,128.4415463028557L193.30297023863793,136.33636337017106L193.53502690405844,132.92486447307584L193.76708356947898,113.5359331580635L193.99914023489953,133.1286064106888L194.23119690032004,132.8944667358832L194.4632535657406,136.52848365627815L194.69531023116113,142.65175113996455L194.92736689658165,129.05070168621722L195.15942356200216,129.60763673622478L195.3914802274227,133.26980580869593L195.62353689284325,136.2719060949893L195.8555935582638,129.939118034657L196.08765022368434,136.5102045934305L196.31970688910482,133.6839441011502L196.55176355452537,140.9922188272264L196.7838202199459,137.7776487625009L197.01587688536645,137.87514458297224L197.24793355078697,132.31891728231727L197.4799902162075,139.2207680493425L197.71204688162803,136.8705895664246L197.94410354704857,135.7431142147175L198.1761602124691,133.48182497304802L198.40821687788963,140.3937823701539L198.64027354331017,136.04318426854124L198.87233020873072,134.76257198834813L199.10438687415123,128.0219841738169L199.33644353957175,136.70195211240826L199.5685002049923,136.10177757245566L199.80055687041283,139.67950515926566L200.03261353583338,128.6169294945617L200.26467020125386,139.17748813886533L200.4967268666744,134.17314481876272L200.72878353209495,136.14092560631863L200.9608401975155,129.30227608386673L201.19289686293604,139.75226660820795L201.42495352835655,138.7290283234917L201.65701019377707,132.51222323736587L201.8890668591976,134.28360215652603L202.12112352461816,121.98161171617487L202.35318019003867,134.89349109769228L202.58523685545921,142.51588725219403L202.81729352087976,136.53299279119193L203.04935018630027,135.25274579284445L203.28140685172082,136.58281483964163L203.51346351714133,130.86877829640176L203.74552018256188,136.80194352647231L203.97757684798242,138.44811011659752L204.20963351340296,125.52977392934201L204.44169017882345,133.83233985092707L204.673746844244,141.29649860461504L204.90580350966454,134.28996315063247L205.13786017508508,123.1417678166096L205.36991684050562,135.19629627418783L205.6019735059261,137.93474989724578L205.83403017134665,136.00808577317156L206.0660868367672,124.20479786958887L206.29814350218774,137.8496047949148L206.53020016760826,141.48784341532863L206.7622568330288,135.61791835330675L206.99431349844932,141.79454692758628L207.22637016386986,133.0378024338644L207.45842682929037,139.33871216788395L207.69048349471092,141.04461880738972L207.92254016013146,138.03860222065333L208.154596825552,137.45930114288623L208.38665349097252,124.6367885637187L208.61871015639304,128.75615876589336L208.85076682181358,133.94219088070895L209.08282348723412,136.07963460615102L209.31488015265467,132.33998087070933L209.54693681807518,139.3898171939635L209.7789934834957,138.54723922597685L210.01105014891624,137.6486848092648L210.24310681433678,129.18888900605486L210.47516347975733,136.49700354705942L210.70722014517784,142.5423507242627L210.93927681059836,138.24781290655315L211.1713334760189,137.3573216374658L211.40339014143944,120.7843076496875L211.63544680685996,137.73050943973698L211.8675034722805,138.6477546099014L212.09956013770105,142.6797625687068L212.33161680312156,136.44584163282363L212.56367346854208,139.3125930188665L212.79573013396262,138.04343471982386L213.02778679938316,140.91881663799754L213.2598434648037,139.24762225322144L213.49190013022425,133.00481478850418L213.72395679564474,134.6685179013319L213.95601346106528,141.42140852818764L214.18807012648583,141.95061958434783L214.42012679190637,134.5033925424377L214.65218345732688,136.813864589327L214.88424012274743,137.49708086688491L215.11629678816794,140.68477576893704L215.3483534535885,136.45180291277933L215.58041011900903,134.53683828716166L215.81246678442955,135.88021916252902L216.0445234498501,138.19442636599535L216.27658011527063,139.86913284589352L216.50863678069115,134.4360609183069L216.74069344611166,125.79545060152266L216.9727501115322,136.10085688255793L217.20480677695275,138.9573369622783L217.4368634423733,130.5952780056755L217.66892010779378,136.0408503570769L217.90097677321432,134.5452203078729L218.13303343863487,142.04053131535264L218.3650901040554,139.24843365797682L218.59714676947596,92.05218680840252L218.82920343489647,139.47629916796714L219.06126010031699,133.13185951499412L219.29331676573753,138.8228563549395L219.52537343115807,123.97356847309416L219.7574300965786,137.9599064387767L219.98948676199913,142.0926318841671L220.22154342741968,139.34453272450574L220.4536000928402,135.22679132006883L220.68565675826073,137.55178032620748L220.91771342368125,138.5360337562459L221.1497700891018,140.4073127690087L221.38182675452234,132.4078125117927L221.61388341994288,139.95267460045142L221.84594008536337,136.94485106622466L222.0779967507839,125.4778410308829L222.31005341620445,140.71398184896123L222.542110081625,135.39113970651277L222.77416674704554,136.1157585853905L223.00622341246603,138.47094921428828L223.23828007788657,127.77562851597794L223.47033674330712,139.8218243557175L223.70239340872766,139.27618010767532L223.93445007414817,138.41233046040918L224.16650673956872,139.7922634732449L224.39856340498923,137.87241694558415L224.63062007040978,137.71554036935092L224.8626767358303,138.44820742528591L225.09473340125083,128.8484044083625L225.32679006667138,135.09906243864674L225.55884673209192,141.76334527092197L225.79090339751244,140.19158539510101L226.02296006293295,137.49193099168457L226.2550167283535,135.7390272498056L226.48707339377404,138.24028420818615L226.71913005919458,141.70140903929754L226.9511867246151,136.81159954247295L227.1832433900356,140.9921349920487L227.41530005545616,142.192395745606L227.6473567208767,135.66429567418783L227.87941338629724,141.45667469391267L228.11147005171776,135.86264970457813L228.34352671713827,139.00835665612342L228.57558338255882,138.90071827620957L228.80764004797936,135.75515055094152L229.03969671339988,138.3196866008461L229.27175337882042,140.94834458522175L229.50381004424096,142.3225348883864L229.73586670966148,139.97767694513766L229.967923375082,132.27518675776008L230.19998004050254,134.39653562614438L230.43203670592308,139.47317630759858L230.66409337134363,136.83401497310504L230.89615003676417,138.41509253010238L231.12820670218466,142.47715689716273L231.3602633676052,141.09253210849045L231.59232003302574,141.0435364353636L231.8243766984463,133.93003627700213L232.0564333638668,137.7680840669617L232.28849002928735,141.97180144022266L232.52054669470786,120.9419058072715L232.7526033601284,138.1053380161999L232.98466002554895,131.81784041355237L233.21671669096946,136.28420441614355L233.44877335639,142.26810190516434L233.68083002181055,127.52072765824266L233.91288668723107,140.4957364256097L234.14494335265158,142.75835804778154L234.37700001807212,134.32599131824034L234.60905668349267,138.17578800952904L234.8411133489132,140.47406054100924L235.0731700143337,123.55562017122571L235.30522667975424,143.18451022060867L235.53728334517479,141.2902184515728L235.76934001059533,138.88130893552L236.00139667601587,141.55094136298658L236.2334533414364,129.62588286382407L236.4655100068569,141.5497512028749L236.69756667227745,135.57968801522802L236.929623337698,121.65579228634948L237.1616800031185,138.3368802975542L237.39373666853905,139.89739877428232L237.6257933339596,140.64122788530267L237.8578499993801,141.5243416587542L238.08990666480065,142.1628977395167L238.32196333022117,141.6278406767701L238.5540199956417,138.24457177870178L238.78607666106225,139.2253924576256L239.0181333264828,139.3137637172405L239.25018999190328,140.0730574244293L239.48224665732383,139.78346377370204L239.71430332274437,139.0090393139988L239.94635998816491,136.85645884781533L240.17841665358546,142.52143534448834L240.41047331900594,142.97312580831615L240.6425299844265,140.69388236511253L240.87458664984703,143.7851248952441L241.10664331526758,140.3228473304396L241.3386999806881,137.58063908906698L241.57075664610863,142.80443595731379L241.80281331152915,142.37477318642135L242.0348699769497,137.50904983555543L242.2669266423702,130.64710611016253L242.49898330779075,142.27247181380088L242.7310399732113,140.155528783415L242.96309663863184,140.16420273019136L243.19515330405235,143.3076131966909L243.42720996947287,137.1650426633438L243.6592666348934,140.78976884958374L243.89132330031396,140.76442068478957L244.1233799657345,140.10390577570195L244.35543663115502,139.96070331577099L244.58749329657553,140.87984076566016L244.81954996199607,142.099862668242L245.05160662741662,140.5440689025988L245.28366329283716,133.60648788225782L245.51571995825768,139.7484206694319L245.7477766236782,136.57718590628312L245.97983328909874,140.11298392779926L246.21188995451928,139.52156866685746L246.4439466199398,134.36716187576482L246.67600328536034,134.24332085070765L246.90805995078088,141.59136788330918L247.1401166162014,130.12669625060198L247.3721732816219,144.04144196865948L247.60422994704246,142.93568591619842L247.836286612463,142.80560216451758L248.06834327788354,139.54018905864282L248.3003999433041,140.59374723360102L248.53245660872457,141.4213291841802L248.76451327414512,136.8246928007584L248.99656993956566,135.5886868233179L249.2286266049862,143.87807714849652L249.46068327040672,138.6577175225346L249.69273993582726,135.60040278939866L249.92479660124778,138.93048575251285L250.15685326666832,141.94470770726466L250.38890993208886,144.34410941593455L250.62096659750938,147.3662695140729L250.85302326292992,143.77673688630588L251.08507992835047,135.99152233735285L251.31713659377098,141.78625023910948L251.5491932591915,146.836626557042L251.78124992461204,138.6629751858205L252.01330659003258,141.18501278886842L252.24536325545313,144.1898182566987L252.47741992087361,144.90134612287605L252.70947658629416,140.46097327095072L252.9415332517147,143.22164171903708L253.17358991713525,146.27105648373345L253.4056465825558,147.51650963775873L253.6377032479763,141.3743725023391L253.86975991339682,146.0487967027221L254.10181657881736,142.7861658768066L254.3338732442379,146.63854723656428L254.56592990965842,144.80269232901304L254.79798657507897,148.8024409605643L255.0300432404995,151.48802752175473L255.26209990592002,151.95075204231625" fill="none"></path></g><g><path style="fill: none;" stroke="rgb(255, 112, 67)" stroke-width="2px" d="M23.437491150808334,148.13650446047725L23.669547816228867,139.95168354888668L23.9016044816494,128.36306759420697L24.13366114706993,123.81851830608895L24.365717812490463,65.88360497723039L24.597774477910995,15.356879941561361L24.82983114333153,-32.49209562497357" fill="none"></path></g></g></g></g></g></g><g transform="translate(51, 176)" clip-path="url(#clip_1)"><clipPath id="clip_1"><rect width="278" height="23"></rect></clipPath><g><g><line x1="0" y1="0" x2="0" y2="5" style="visibility: inherit;" fill="rgb(0, 0, 0)" stroke="rgb(204, 204, 204)" stroke-width="1px"></line><line x1="23.205666542053223" y1="0" x2="23.205666542053223" y2="5" style="visibility: inherit;" fill="rgb(0, 0, 0)" stroke="rgb(204, 204, 204)" stroke-width="1px"></line><line x1="46.411333084106445" y1="0" x2="46.411333084106445" y2="5" style="visibility: inherit;" fill="rgb(0, 0, 0)" stroke="rgb(204, 204, 204)" stroke-width="1px"></line><line x1="69.61699962615967" y1="0" x2="69.61699962615967" y2="5" style="visibility: inherit;" fill="rgb(0, 0, 0)" stroke="rgb(204, 204, 204)" stroke-width="1px"></line><line x1="92.82266616821289" y1="0" x2="92.82266616821289" y2="5" style="visibility: inherit;" fill="rgb(0, 0, 0)" stroke="rgb(204, 204, 204)" stroke-width="1px"></line><line x1="116.02833271026611" y1="0" x2="116.02833271026611" y2="5" style="visibility: inherit;" fill="rgb(0, 0, 0)" stroke="rgb(204, 204, 204)" stroke-width="1px"></line><line x1="139.23399925231934" y1="0" x2="139.23399925231934" y2="5" style="visibility: inherit;" fill="rgb(0, 0, 0)" stroke="rgb(204, 204, 204)" stroke-width="1px"></line><line x1="162.43966579437256" y1="0" x2="162.43966579437256" y2="5" style="visibility: inherit;" fill="rgb(0, 0, 0)" stroke="rgb(204, 204, 204)" stroke-width="1px"></line><line x1="185.64533233642578" y1="0" x2="185.64533233642578" y2="5" style="visibility: inherit;" fill="rgb(0, 0, 0)" stroke="rgb(204, 204, 204)" stroke-width="1px"></line><line x1="208.850998878479" y1="0" x2="208.850998878479" y2="5" style="visibility: inherit;" fill="rgb(0, 0, 0)" stroke="rgb(204, 204, 204)" stroke-width="1px"></line><line x1="232.05666542053223" y1="0" x2="232.05666542053223" y2="5" style="visibility: inherit;" fill="rgb(0, 0, 0)" stroke="rgb(204, 204, 204)" stroke-width="1px"></line><line x1="255.26233196258545" y1="0" x2="255.26233196258545" y2="5" style="visibility: inherit;" fill="rgb(0, 0, 0)" stroke="rgb(204, 204, 204)" stroke-width="1px"></line><line x1="278.4679985046387" y1="0" x2="278.4679985046387" y2="5" style="visibility: inherit;" fill="rgb(0, 0, 0)" stroke="rgb(204, 204, 204)" stroke-width="1px"></line></g><g transform="translate(0, 8)"><text style="text-anchor: middle; visibility: hidden; font-family: Roboto, sans-serif; font-size: 12px; font-weight: 200;" x="0" y="0" dx="0em" dy="0.95em" fill="rgb(255, 255, 255)" stroke="none" stroke-width="1px">-100k</text><text style="text-anchor: middle; visibility: inherit; font-family: Roboto, sans-serif; font-size: 12px; font-weight: 200;" x="23.205666542053223" y="0" dx="0em" dy="0.95em" fill="rgb(255, 255, 255)" stroke="none" stroke-width="1px">0</text><text style="text-anchor: middle; visibility: hidden; font-family: Roboto, sans-serif; font-size: 12px; font-weight: 200;" x="46.411333084106445" y="0" dx="0em" dy="0.95em" fill="rgb(255, 255, 255)" stroke="none" stroke-width="1px">100k</text><text style="text-anchor: middle; visibility: inherit; font-family: Roboto, sans-serif; font-size: 12px; font-weight: 200;" x="69.61699962615967" y="0" dx="0em" dy="0.95em" fill="rgb(255, 255, 255)" stroke="none" stroke-width="1px">200k</text><text style="text-anchor: middle; visibility: hidden; font-family: Roboto, sans-serif; font-size: 12px; font-weight: 200;" x="92.82266616821289" y="0" dx="0em" dy="0.95em" fill="rgb(255, 255, 255)" stroke="none" stroke-width="1px">300k</text><text style="text-anchor: middle; visibility: inherit; font-family: Roboto, sans-serif; font-size: 12px; font-weight: 200;" x="116.02833271026611" y="0" dx="0em" dy="0.95em" fill="rgb(255, 255, 255)" stroke="none" stroke-width="1px">400k</text><text style="text-anchor: middle; visibility: hidden; font-family: Roboto, sans-serif; font-size: 12px; font-weight: 200;" x="139.23399925231934" y="0" dx="0em" dy="0.95em" fill="rgb(255, 255, 255)" stroke="none" stroke-width="1px">500k</text><text style="text-anchor: middle; visibility: inherit; font-family: Roboto, sans-serif; font-size: 12px; font-weight: 200;" x="162.43966579437256" y="0" dx="0em" dy="0.95em" fill="rgb(255, 255, 255)" stroke="none" stroke-width="1px">600k</text><text style="text-anchor: middle; visibility: hidden; font-family: Roboto, sans-serif; font-size: 12px; font-weight: 200;" x="185.64533233642578" y="0" dx="0em" dy="0.95em" fill="rgb(255, 255, 255)" stroke="none" stroke-width="1px">700k</text><text style="text-anchor: middle; visibility: inherit; font-family: Roboto, sans-serif; font-size: 12px; font-weight: 200;" x="208.850998878479" y="0" dx="0em" dy="0.95em" fill="rgb(255, 255, 255)" stroke="none" stroke-width="1px">800k</text><text style="text-anchor: middle; visibility: hidden; font-family: Roboto, sans-serif; font-size: 12px; font-weight: 200;" x="232.05666542053223" y="0" dx="0em" dy="0.95em" fill="rgb(255, 255, 255)" stroke="none" stroke-width="1px">900k</text><text style="text-anchor: middle; visibility: inherit; font-family: Roboto, sans-serif; font-size: 12px; font-weight: 200;" x="255.26233196258545" y="0" dx="0em" dy="0.95em" fill="rgb(255, 255, 255)" stroke="none" stroke-width="1px">1M</text><text style="text-anchor: middle; visibility: hidden; font-family: Roboto, sans-serif; font-size: 12px; font-weight: 200;" x="278.4679985046387" y="0" dx="0em" dy="0.95em" fill="rgb(255, 255, 255)" stroke="none" stroke-width="1px">1.1M</text></g><line x1="0" y1="0" x2="278.4679985046387" y2="0" fill="rgb(0, 0, 0)" stroke="rgb(204, 204, 204)" stroke-width="1px"></line></g></g></g></g></svg>