<svg viewBox="0 0 330 200" xmlns="http://www.w3.org/2000/svg"><g><g><g><g><g><line x1="72.29800224304199" y1="176.5999994277954" x2="67.29800224304199" y2="176.5999994277954" style="visibility: inherit;" fill="rgb(0, 0, 0)" stroke="rgb(204, 204, 204)" stroke-width="1px"></line><line x1="72.29800224304199" y1="161.88333280881244" x2="67.29800224304199" y2="161.88333280881244" style="visibility: inherit;" fill="rgb(0, 0, 0)" stroke="rgb(204, 204, 204)" stroke-width="1px"></line><line x1="72.29800224304199" y1="147.16666618982953" x2="67.29800224304199" y2="147.16666618982953" style="visibility: inherit;" fill="rgb(0, 0, 0)" stroke="rgb(204, 204, 204)" stroke-width="1px"></line><line x1="72.29800224304199" y1="132.44999957084656" x2="67.29800224304199" y2="132.44999957084656" style="visibility: inherit;" fill="rgb(0, 0, 0)" stroke="rgb(204, 204, 204)" stroke-width="1px"></line><line x1="72.29800224304199" y1="117.73333295186362" x2="67.29800224304199" y2="117.73333295186362" style="visibility: inherit;" fill="rgb(0, 0, 0)" stroke="rgb(204, 204, 204)" stroke-width="1px"></line><line x1="72.29800224304199" y1="103.01666633288065" x2="67.29800224304199" y2="103.01666633288065" style="visibility: inherit;" fill="rgb(0, 0, 0)" stroke="rgb(204, 204, 204)" stroke-width="1px"></line><line x1="72.29800224304199" y1="88.2999997138977" x2="67.29800224304199" y2="88.2999997138977" style="visibility: inherit;" fill="rgb(0, 0, 0)" stroke="rgb(204, 204, 204)" stroke-width="1px"></line><line x1="72.29800224304199" y1="73.58333309491475" x2="67.29800224304199" y2="73.58333309491475" style="visibility: inherit;" fill="rgb(0, 0, 0)" stroke="rgb(204, 204, 204)" stroke-width="1px"></line><line x1="72.29800224304199" y1="58.86666647593181" x2="67.29800224304199" y2="58.86666647593181" style="visibility: inherit;" fill="rgb(0, 0, 0)" stroke="rgb(204, 204, 204)" stroke-width="1px"></line><line x1="72.29800224304199" y1="44.14999985694885" x2="67.29800224304199" y2="44.14999985694885" style="visibility: inherit;" fill="rgb(0, 0, 0)" stroke="rgb(204, 204, 204)" stroke-width="1px"></line><line x1="72.29800224304199" y1="29.433333237965893" x2="67.29800224304199" y2="29.433333237965893" style="visibility: inherit;" fill="rgb(0, 0, 0)" stroke="rgb(204, 204, 204)" stroke-width="1px"></line><line x1="72.29800224304199" y1="14.716666618982957" x2="67.29800224304199" y2="14.716666618982957" style="visibility: inherit;" fill="rgb(0, 0, 0)" stroke="rgb(204, 204, 204)" stroke-width="1px"></line><line x1="72.29800224304199" y1="0" x2="67.29800224304199" y2="0" style="visibility: inherit;" fill="rgb(0, 0, 0)" stroke="rgb(204, 204, 204)" stroke-width="1px"></line></g><g transform="translate(62.29800224304199, 0)"><text style="text-anchor: end; visibility: hidden; font-family: Roboto, sans-serif; font-size: 12px; font-weight: 200;" x="0" y="176.5999994277954" dx="0em" dy="0.3em" fill="rgb(33, 33, 33)" stroke="none" stroke-width="1px">-500</text><text style="text-anchor: end; visibility: inherit; font-family: Roboto, sans-serif; font-size: 12px; font-weight: 200;" x="0" y="161.88333280881244" dx="0em" dy="0.3em" fill="rgb(33, 33, 33)" stroke="none" stroke-width="1px">0</text><text style="text-anchor: end; visibility: hidden; font-family: Roboto, sans-serif; font-size: 12px; font-weight: 200;" x="0" y="147.16666618982953" dx="0em" dy="0.3em" fill="rgb(33, 33, 33)" stroke="none" stroke-width="1px">500</text><text style="text-anchor: end; visibility: inherit; font-family: Roboto, sans-serif; font-size: 12px; font-weight: 200;" x="0" y="132.44999957084656" dx="0em" dy="0.3em" fill="rgb(33, 33, 33)" stroke="none" stroke-width="1px">1e+3</text><text style="text-anchor: end; visibility: hidden; font-family: Roboto, sans-serif; font-size: 12px; font-weight: 200;" x="0" y="117.73333295186362" dx="0em" dy="0.3em" fill="rgb(33, 33, 33)" stroke="none" stroke-width="1px">1.5e+3</text><text style="text-anchor: end; visibility: inherit; font-family: Roboto, sans-serif; font-size: 12px; font-weight: 200;" x="0" y="103.01666633288065" dx="0em" dy="0.3em" fill="rgb(33, 33, 33)" stroke="none" stroke-width="1px">2e+3</text><text style="text-anchor: end; visibility: hidden; font-family: Roboto, sans-serif; font-size: 12px; font-weight: 200;" x="0" y="88.2999997138977" dx="0em" dy="0.3em" fill="rgb(33, 33, 33)" stroke="none" stroke-width="1px">2.5e+3</text><text style="text-anchor: end; visibility: inherit; font-family: Roboto, sans-serif; font-size: 12px; font-weight: 200;" x="0" y="73.58333309491475" dx="0em" dy="0.3em" fill="rgb(33, 33, 33)" stroke="none" stroke-width="1px">3e+3</text><text style="text-anchor: end; visibility: hidden; font-family: Roboto, sans-serif; font-size: 12px; font-weight: 200;" x="0" y="58.86666647593181" dx="0em" dy="0.3em" fill="rgb(33, 33, 33)" stroke="none" stroke-width="1px">3.5e+3</text><text style="text-anchor: end; visibility: inherit; font-family: Roboto, sans-serif; font-size: 12px; font-weight: 200;" x="0" y="44.14999985694885" dx="0em" dy="0.3em" fill="rgb(33, 33, 33)" stroke="none" stroke-width="1px">4e+3</text><text style="text-anchor: end; visibility: hidden; font-family: Roboto, sans-serif; font-size: 12px; font-weight: 200;" x="0" y="29.433333237965893" dx="0em" dy="0.3em" fill="rgb(33, 33, 33)" stroke="none" stroke-width="1px">4.5e+3</text><text style="text-anchor: end; visibility: inherit; font-family: Roboto, sans-serif; font-size: 12px; font-weight: 200;" x="0" y="14.716666618982957" dx="0em" dy="0.3em" fill="rgb(33, 33, 33)" stroke="none" stroke-width="1px">5e+3</text><text style="text-anchor: end; visibility: hidden; font-family: Roboto, sans-serif; font-size: 12px; font-weight: 200;" x="0" y="0" dx="0em" dy="0.3em" fill="rgb(33, 33, 33)" stroke="none" stroke-width="1px">5.5e+3</text></g><line x1="72.29800224304199" y1="0" x2="72.29800224304199" y2="176.5999994277954" fill="rgb(0, 0, 0)" stroke="rgb(204, 204, 204)" stroke-width="1px"></line></g></g><g transform="translate(72, 0)" clip-path="url(#clip_0)"><clipPath id="clip_0"><rect width="257" height="176"></rect></clipPath><g><g><g><line x1="0" y1="0" x2="0" y2="176.5999994277954" fill="rgb(0, 0, 0)" stroke="rgb(66, 66, 66)" stroke-width="1px" opacity="0.25"></line><line x1="21.4751664797465" y1="0" x2="21.4751664797465" y2="176.5999994277954" fill="rgb(0, 0, 0)" stroke="rgb(66, 66, 66)" stroke-width="1px" opacity="0.25"></line><line x1="42.950332959493" y1="0" x2="42.950332959493" y2="176.5999994277954" fill="rgb(0, 0, 0)" stroke="rgb(66, 66, 66)" stroke-width="1px" opacity="0.25"></line><line x1="64.4254994392395" y1="0" x2="64.4254994392395" y2="176.5999994277954" fill="rgb(0, 0, 0)" stroke="rgb(66, 66, 66)" stroke-width="1px" opacity="0.25"></line><line x1="85.900665918986" y1="0" x2="85.900665918986" y2="176.5999994277954" fill="rgb(0, 0, 0)" stroke="rgb(66, 66, 66)" stroke-width="1px" opacity="0.25"></line><line x1="107.37583239873251" y1="0" x2="107.37583239873251" y2="176.5999994277954" fill="rgb(0, 0, 0)" stroke="rgb(66, 66, 66)" stroke-width="1px" opacity="0.25"></line><line x1="128.850998878479" y1="0" x2="128.850998878479" y2="176.5999994277954" fill="rgb(0, 0, 0)" stroke="rgb(66, 66, 66)" stroke-width="1px" opacity="0.25"></line><line x1="150.32616535822552" y1="0" x2="150.32616535822552" y2="176.5999994277954" fill="rgb(0, 0, 0)" stroke="rgb(66, 66, 66)" stroke-width="1px" opacity="0.25"></line><line x1="171.801331837972" y1="0" x2="171.801331837972" y2="176.5999994277954" fill="rgb(0, 0, 0)" stroke="rgb(66, 66, 66)" stroke-width="1px" opacity="0.25"></line><line x1="193.2764983177185" y1="0" x2="193.2764983177185" y2="176.5999994277954" fill="rgb(0, 0, 0)" stroke="rgb(66, 66, 66)" stroke-width="1px" opacity="0.25"></line><line x1="214.75166479746503" y1="0" x2="214.75166479746503" y2="176.5999994277954" fill="rgb(0, 0, 0)" stroke="rgb(66, 66, 66)" stroke-width="1px" opacity="0.25"></line><line x1="236.2268312772115" y1="0" x2="236.2268312772115" y2="176.5999994277954" fill="rgb(0, 0, 0)" stroke="rgb(66, 66, 66)" stroke-width="1px" opacity="0.25"></line><line x1="257.701997756958" y1="0" x2="257.701997756958" y2="176.5999994277954" fill="rgb(0, 0, 0)" stroke="rgb(66, 66, 66)" stroke-width="1px" opacity="0.25"></line></g><g><line x1="0" y1="176.5999994277954" x2="257.701997756958" y2="176.5999994277954" fill="rgb(0, 0, 0)" stroke="rgb(66, 66, 66)" stroke-width="1px" opacity="0.25"></line><line x1="0" y1="161.88333280881244" x2="257.701997756958" y2="161.88333280881244" fill="rgb(0, 0, 0)" stroke="rgb(66, 66, 66)" stroke-width="1px" opacity="0.25"></line><line x1="0" y1="147.16666618982953" x2="257.701997756958" y2="147.16666618982953" fill="rgb(0, 0, 0)" stroke="rgb(66, 66, 66)" stroke-width="1px" opacity="0.25"></line><line x1="0" y1="132.44999957084656" x2="257.701997756958" y2="132.44999957084656" fill="rgb(0, 0, 0)" stroke="rgb(66, 66, 66)" stroke-width="1px" opacity="0.25"></line><line x1="0" y1="117.73333295186362" x2="257.701997756958" y2="117.73333295186362" fill="rgb(0, 0, 0)" stroke="rgb(66, 66, 66)" stroke-width="1px" opacity="0.25"></line><line x1="0" y1="103.01666633288065" x2="257.701997756958" y2="103.01666633288065" fill="rgb(0, 0, 0)" stroke="rgb(66, 66, 66)" stroke-width="1px" opacity="0.25"></line><line x1="0" y1="88.2999997138977" x2="257.701997756958" y2="88.2999997138977" fill="rgb(0, 0, 0)" stroke="rgb(66, 66, 66)" stroke-width="1px" opacity="0.25"></line><line x1="0" y1="73.58333309491475" x2="257.701997756958" y2="73.58333309491475" fill="rgb(0, 0, 0)" stroke="rgb(66, 66, 66)" stroke-width="1px" opacity="0.25"></line><line x1="0" y1="58.86666647593181" x2="257.701997756958" y2="58.86666647593181" fill="rgb(0, 0, 0)" stroke="rgb(66, 66, 66)" stroke-width="1px" opacity="0.25"></line><line x1="0" y1="44.14999985694885" x2="257.701997756958" y2="44.14999985694885" fill="rgb(0, 0, 0)" stroke="rgb(66, 66, 66)" stroke-width="1px" opacity="0.25"></line><line x1="0" y1="29.433333237965893" x2="257.701997756958" y2="29.433333237965893" fill="rgb(0, 0, 0)" stroke="rgb(66, 66, 66)" stroke-width="1px" opacity="0.25"></line><line x1="0" y1="14.716666618982957" x2="257.701997756958" y2="14.716666618982957" fill="rgb(0, 0, 0)" stroke="rgb(66, 66, 66)" stroke-width="1px" opacity="0.25"></line><line x1="0" y1="0" x2="257.701997756958" y2="0" fill="rgb(0, 0, 0)" stroke="rgb(66, 66, 66)" stroke-width="1px" opacity="0.25"></line></g></g></g><g><g><line x1="0" y1="161.88333280881244" x2="257.701997756958" y2="161.88333280881244" fill="rgb(0, 0, 0)" stroke="rgb(153, 153, 153)" stroke-width="1.5px"></line></g></g><g><g><line x1="21.4751664797465" y1="0" x2="21.4751664797465" y2="176.5999994277954" fill="rgb(0, 0, 0)" stroke="rgb(153, 153, 153)" stroke-width="1.5px"></line></g></g><g><g><g><g><g><path style="fill: none;" stroke="rgb(0, 153, 136)" stroke-width="2px" d="M21.689703392879167,160.91747858042544L21.904455057676632,160.5395824723161L22.1192067224741,159.32302268013592L22.33395838727156,159.06129287854446L22.54871005206903,157.2504520253578L22.76346171686649,156.89976140190964L22.97821338166396,156.12745872510195L23.192965046461424,154.3557979030193L23.40771671125889,152.0224645393848L23.622468376056354,148.47743495935484L23.837220040853815,143.81746784554937L24.051971705651283,137.37186010294343L24.266723370448748,132.0554827310786L24.481475035246213,125.95908045983485L24.696226700043677,120.00844920664676L24.910978364841146,112.00461009486386L25.125730029638607,107.333056059632L25.340481694436075,102.45780161060773L25.555233359233537,95.86140238013868L25.769985024031005,92.71058732882652L25.98473668882847,86.3796221042687L26.19948835362593,80.11759158652683L26.4142400184234,77.18476075482452L26.62899168322086,75.59945412130627L26.84374334801833,68.96536285360204L27.058495012815794,67.80531183470168L27.27324667761326,67.33811616643112L27.487998342410723,66.16036091779019L27.70275000720819,60.81558446742801L27.917501672005653,55.79986622109704L28.13225333680312,53.53012626697236L28.347005001600582,50.93470203387823L28.561756666398047,47.04617743342031L28.776508331195515,49.08426093809087L28.991259995992976,48.951309491357584L29.206011660790445,50.216068994541516L29.420763325587906,51.59170437407707L29.635514990385374,51.84921027370072L29.85026665518284,49.77644573672633L30.065018319980304,47.176166436957146L30.27976998477777,45.77811662208108L30.494521649575233,44.725765456256994L30.709273314372698,35.911246629905136L30.924024979170163,36.753529835402205L31.138776643967628,38.95338815569719L31.353528308765092,35.449622406624776L31.56827997356256,36.45478650814924L31.783031638360022,37.30375429440003L31.99778330315749,40.25754527397255L32.21253496795495,39.422922402148366L32.42728663275242,40.33226944800815L32.64203829754989,39.697134283540144L32.85678996234735,41.264823487346334L33.07154162714481,33.542605294409725L33.28629329194228,34.07241882858134L33.50104495673974,28.991694596178345L33.71579662153721,30.859175180566123L33.93054828633468,29.86141018317722L34.14529995113214,32.195324170923364L34.3600516159296,32.525785644803086L34.574803280727075,32.4036577106667L34.789554945524536,33.00217515384394L35.004306610322,20.40408497762358L35.21905827511946,22.340758963427692L35.43380993991693,23.72764230460001L35.648561604714395,27.669530444697195L35.863313269511856,30.429615185016807L36.078064934309324,34.42146383343663L36.292816599106786,34.37190433844664L36.507568263904254,37.210821401547385L36.72231992870172,39.89126653960152L36.937071593499184,36.97834298337209L37.151823258296645,36.137799555059345L37.36657492309412,36.279731185725225L37.58132658789158,36.539845296325524L37.79607825268904,35.01814468457333L38.010829917486504,33.95236014151025L38.22558158228397,35.00020035957741L38.44033324708144,36.51515033096584L38.6550849118789,36.47423186812379L38.86983657667637,37.83753103584575L39.08458824147383,37.33701987173362L39.2993399062713,38.766385570618354L39.51409157106877,39.27332336503997L39.72884323586623,39.49512509292866L39.94359490066369,42.65832664006502L40.15834656546116,43.980888109568006L40.37309823025863,39.977580997367404L40.58784989505609,42.16822141233713L40.80260155985355,44.624122860964256L41.01735322465102,45.91033382730002L41.232104889448486,43.97902498522052L41.44685655424595,43.12399124742418L41.661608219043416,44.4389719136952L41.87635988384088,44.95183493408399L42.091111548638345,48.22287000714737L42.30586321343581,49.351443534737186L42.520614878233275,51.25661514180479L42.735366543030736,54.4963550246577L42.950118207828204,55.60090129713813L43.16486987262567,55.97856954381195L43.379621537423134,58.735750251658324L43.594373202220595,63.16830899864869L43.80912486701806,63.22718291626207L44.02387653181553,65.12457807638042L44.23862819661299,65.24255692047926L44.45337986141046,62.978214755901995L44.66813152620792,65.09950717540377L44.882883191005384,66.44691967655547L45.09763485580286,66.44249202306926L45.31238652060032,67.16740334031562L45.52713818539778,67.30258869274347L45.74188985019525,69.93495572955538L45.95664151499272,59.10330701147464L46.17139317979018,61.00029488440799L46.38614484458764,62.931077155697196L46.60089650938511,63.07057174029175L46.81564817418257,65.57453115347963L47.03039983898004,69.63714958556292L47.24515150377751,70.1276882561757L47.45990316857497,73.25458220138879L47.67465483337243,67.45970589679574L47.889406498169905,70.98634650637415L48.104158162967366,73.02604159585101L48.31890982776483,73.41681619195955L48.533661492562295,75.1585449202063L48.748413157359764,74.08104556705801L48.963164822157225,76.52953868286397L49.177916486954686,76.72589449957773L49.392668151752154,69.28548851350106L49.607419816549616,73.49389671743661L49.822171481347084,77.5140145349782L50.03692314614455,80.87201252227547L50.25167481094201,82.88149886026986L50.466426475739475,84.19248098826691L50.68117814053695,86.1531208397283L50.89592980533441,86.44819553426818L51.11068147013187,87.13641768589598L51.325433134929334,88.74636401867464L51.5401847997268,88.87954995745419L51.75493646452427,90.64821973173824L51.96968812932173,90.24056968630258L52.1844397941192,91.27192417680571L52.39919145891666,92.45328907013713L52.61394312371413,91.66064590091452L52.8286947885116,93.9724853769873L53.04344645330906,93.29458001209571L53.25819811810652,94.51290223954284L53.472949782903996,95.66004107888439L53.68770144770146,96.5938786851361L53.90245311249892,97.37329669320975L54.11720477729638,94.48148221457441L54.33195644209385,96.4315157797986L54.546708106891316,97.61471764052311L54.76145977168878,96.95275896504367L54.976211436486246,97.42621189933989L55.19096310128371,95.30720381378924L55.405714766081175,98.43031088523811L55.62046643087864,100.29805659489661L55.835218095676105,102.47361686240137L56.049969760473566,103.13509699803268L56.264721425271034,101.60394993564185L56.4794730900685,102.06402881510031L56.694224754865964,101.42704562797823L56.908976419663425,103.90983310667086L57.12372808446089,104.6791047040824L57.33847974925836,102.54132181108204L57.55323141405582,102.10636076924247L57.76798307885329,102.99388484192387L57.98273474365075,104.0327633934371L58.19748640844822,105.84920024024414L58.41223807324569,107.54910179615457L58.62698973804315,106.7527540065283L58.84174140284061,107.75204335009174L59.05649306763808,107.57788325338998L59.27124473243555,109.43756498644608L59.48599639723301,109.1194747765285L59.70074806203047,106.75718000718838L59.91549972682794,108.1268695530626L60.13025139162541,108.13655921818332L60.34500305642287,108.98825716824848L60.55975472122034,108.20148072267345L60.7745063860178,107.01304612238665L60.98925805081526,107.67727367536853L61.204009715612735,109.54334887342296L61.418761380410196,110.88239687090652L61.63351304520766,110.1581135551473L61.848264710005125,111.77013293791984L62.063016374802594,112.00391959339224L62.277768039600055,112.71174286220898L62.492519704397516,113.54558539973522L62.707271369194984,114.20531115666806L62.922023033992446,114.98933709667052L63.136774698789914,115.91701282572633L63.35152636358738,114.50915979695934L63.56627802838484,114.33250190537403L63.781029693182305,115.49164746777495L63.99578135797978,116.19988750808652L64.21053302277724,115.30204905191661L64.4252846875747,116.43676973361352L64.64003635237218,117.20156825778716L64.85478801716962,117.34831514097026L65.0695396819671,118.16286873900788L65.28429134676456,119.24856417788054L65.49904301156202,119.33451076182043L65.7137946763595,119.4118242472063L65.92854634115696,118.80949131940534L66.14329800595442,118.63862737768683L66.3580496707519,119.27975732612123L66.57280133554936,120.23978638433147L66.78755300034682,120.36779775227673L67.00230466514428,119.66351075386915L67.21705632994176,119.65097384460161L67.43180799473922,118.41414416084355L67.64655965953668,119.7022620641723L67.86131132433415,119.66867743601874L68.0760629891316,119.93043460886278L68.29081465392908,120.17403575799729L68.50556631872655,120.08613822770027L68.720317983524,120.3766918396632L68.93506964832147,119.49066159890569L69.14982131311893,120.48389247809602L69.3645729779164,120.65259488367154L69.57932464271387,121.18826404641695L69.79407630751132,121.72627973514527L70.0088279723088,120.69125864992559L70.22357963710627,120.19232599292314L70.43833130190372,119.67436649775173L70.65308296670119,121.55119059422341L70.86783463149865,123.13666134248274L71.08258629629611,122.08919223895839L71.29733796109359,121.6994371825512L71.51208962589105,121.90456826840025L71.72684129068851,120.86136681530773L71.94159295548599,121.33477383056187L72.15634462028345,122.94391265573816L72.37109628508091,121.73002993329324L72.58584794987837,121.50659365525851L72.80059961467585,122.41507574584442L73.01535127947331,120.45210603314806L73.23010294427077,121.78639784472536L73.44485460906824,122.98862532512597L73.65960627386569,122.21586059713037L73.87435793866317,122.22096431889918L74.08910960346063,121.42420122224894L74.30386126825809,122.4010675113454L74.51861293305556,121.99719771931487L74.73336459785301,121.97490178461814L74.94811626265049,123.76972433762816L75.16286792744796,124.57143992196718L75.37761959224541,124.7711234024255L75.59237125704288,125.59572650055593L75.80712292184036,125.36715826497866L76.02187458663781,126.8958469741939L76.23662625143528,125.9963873006565L76.45137791623274,126.6962621776701L76.6661295810302,126.96190779149747L76.88088124582768,126.78979758946963L77.09563291062514,127.27810741816931L77.3103845754226,128.26520065273166L77.52513624022006,128.86018408866863L77.73988790501754,129.04471113540032L77.954639569815,127.74933414871768L78.16939123461246,128.41323295750854L78.38414289940994,128.32035815402398L78.5988945642074,129.22169426347878L78.81364622900486,129.06819649372008L79.02839789380234,128.04834630734965L79.24314955859978,128.2079734833803L79.45790122339726,128.5726652950515L79.67265288819472,128.9877972986762L79.88740455299218,129.18857533526972L80.10215621778966,130.67748794863593L80.3169078825871,130.46980282942434L80.53165954738458,129.9341657997054L80.74641121218205,128.934547471726L80.9611628769795,129.0790326052741L81.17591454177698,129.5389770578393L81.39066620657444,129.66462212914013L81.6054178713719,129.7612757797805L81.82016953616937,129.8519435838759L82.03492120096683,130.53635234461953L82.2496728657643,130.89812419309038L82.46442453056177,130.6347174199148L82.67917619535923,130.49812002359508L82.8939278601567,130.82230147321752L83.10867952495416,131.11236767448264L83.32343118975163,131.59282618319244L83.53818285454909,132.09826164577387L83.75293451934655,131.30891517351535L83.96768618414403,130.613472234197L84.18243784894148,131.5440545234323L84.39718951373895,131.93949462922615L84.61194117853643,132.48164874071753L84.82669284333387,132.91041665232248L85.04144450813135,132.2948517753211L85.25619617292881,132.7123558745965L85.47094783772627,131.29981095695774L85.68569950252375,130.85463321235946L85.9004511673212,131.02865965021695L86.11520283211867,131.1687768787878L86.32995449691614,132.07405767364153L86.54470616171359,131.06324803576797L86.75945782651107,130.28025101549017L86.97420949130853,130.34591973735758L87.18896115610599,130.33112309072072L87.40371282090346,130.6462418884814L87.61846448570093,131.96422779522527L87.83321615049839,132.12808177700518L88.04796781529586,132.1446307798575L88.26271948009332,133.22574163639413L88.47747114489079,132.31731906150006L88.69222280968825,133.43090483310564L88.90697447448572,132.87080102304392L89.12172613928318,133.6503114516485L89.33647780408064,133.72888143529553L89.55122946887812,133.26160256227723L89.76598113367557,133.78319808563583L89.98073279847304,133.78588056767774L90.1954844632705,134.2511132717815L90.41023612806796,134.13346294739384L90.62498779286544,134.30312097234804L90.83973945766289,134.50129082676077L91.05449112246036,135.11137004338195L91.26924278725784,135.45126899211013L91.48399445205528,135.49880533402998L91.69874611685276,135.6102503098345L91.91349778165024,136.1216758166978L92.12824944644768,136.07508927420216L92.34300111124516,136.07066630352696L92.55775277604262,136.31166963110982L92.77250444084008,136.78713756529083L92.98725610563756,136.4210585809071L93.20200777043502,136.4801260079011L93.41675943523248,136.64226552122693L93.63151110002994,136.13384220312838L93.84626276482742,135.8447822689714L94.06101442962488,135.67363911393153L94.27576609442234,136.16743651249797L94.49051775921981,136.19630896297375L94.70526942401727,135.8896195745694L94.92002108881474,135.7416969958219L95.13477275361221,135.80830460442522L95.34952441840966,135.6546612803572L95.56427608320713,135.52080684900284L95.7790277480046,133.77194656322652L95.99377941280206,133.9568649729464L96.20853107759953,134.7992700724142L96.42328274239698,134.9264135779951L96.63803440719445,135.30432636943928L96.85278607199193,134.04584991250204L97.06753773678938,134.18063044450673L97.28228940158685,134.84425838474843L97.49704106638431,133.59976054371967L97.71179273118177,134.92981956316595L97.92654439597925,135.10530815001022L98.14129606077671,135.6599462377886L98.35604772557417,135.68643130490352L98.57079939037165,136.75217285700134L98.78555105516911,136.426021463827L99.00030271996657,136.6833034274425L99.21505438476403,136.91952883140692L99.4298060495615,137.016868083505L99.64455771435897,137.3973994471748L99.85930937915643,137.70480200432817L100.0740610439539,137.60062331794958L100.28881270875135,137.10800218128938L100.50356437354883,137.14149378091105L100.7183160383463,137.453291693474L100.93306770314375,137.60227440210505L101.14781936794122,137.10893465221199L101.36257103273869,137.00039207418945L101.57732269753615,136.8324514295961L101.79207436233362,137.07722625888437L102.00682602713107,135.15455214114206L102.22157769192854,136.24169407013144L102.43632935672602,136.76779033456978L102.65108102152347,136.80871865594526L102.86583268632094,136.89139091005188L103.0805843511184,137.20633666988775L103.29533601591586,137.51963439938388L103.51008768071334,137.4985280404042L103.7248393455108,137.04592219250662L103.93959101030826,137.66935404094326L104.15434267510574,137.54166211327507L104.3690943399032,136.97582937749314L104.58384600470066,137.539967363226L104.79859766949812,137.51857130599694L105.0133493342956,137.61299357118043L105.22810099909306,138.20715016419888L105.44285266389052,138.63213552829498L105.657604328688,139.0931216943426L105.87235599348544,138.9684208419958L106.08710765828292,138.68775366737768L106.30185932308038,139.5770495472839L106.51661098787784,139.9767124472874L106.73136265267532,139.9750970220749L106.94611431747276,140.56818267802592L107.16086598227024,140.4413309353666L107.37561764706771,140.36465301690745L107.59036931186516,140.7877031529014L107.80512097666264,140.54892656597565L108.01987264146011,141.12050564267835L108.23462430625756,141.20288445741986L108.44937597105503,141.44040302826966L108.6641276358525,140.606498978355L108.87887930064996,140.1848541210101L109.09363096544743,140.6195937522452L109.30838263024489,140.35325709089634L109.52313429504235,140.66729952524605L109.73788595983982,140.60242191694667L109.95263762463729,140.42518420367875L110.16738928943475,140.31452574723767L110.38214095423221,140.03030324541416L110.59689261902969,139.37765417884566L110.81164428382715,139.62187264405512L111.02639594862461,139.8077006254821L111.24114761342209,139.2187964472583L111.45589927821953,139.1928483176737L111.67065094301701,139.4624558262488L111.88540260781447,139.30842043578792L112.10015427261193,139.36106239750757L112.3149059374094,139.88682937067102L112.52965760220685,139.9165997579226L112.74440926700433,139.33344123733374L112.9591609318018,139.80025863984375L113.17391259659925,140.33922008939163L113.38866426139673,140.63484537210908L113.60341592619419,140.695916896052L113.81816759099165,141.1231102956211L114.03291925578912,140.00007343677055L114.24767092058659,140.02368155778655L114.46242258538405,140.35905579079719L114.67717425018152,139.83897084300887L114.89192591497898,139.92778119979275L115.10667757977644,140.2012540727801L115.3214292445739,140.45842397220122L115.53618090937138,140.63152561165177L115.75093257416884,140.2084618965486L115.9656842389663,139.90036800159757L116.18043590376378,139.92114949162297L116.39518756856123,140.5628744399187L116.6099392333587,140.2384007224777L116.82469089815618,140.51620320145494L117.03944256295362,140.53407178848903L117.2541942277511,140.7608230828023L117.46894589254856,141.09651773266177L117.68369755734602,140.61906600420158L117.8984492221435,141.2270138719695L118.11320088694094,141.09762841573746L118.32795255173842,141.3910356634795L118.5427042165359,141.5005763790709L118.75745588133334,141.59027057832773L118.97220754613082,139.59032024945878L119.18695921092828,140.05749330404737L119.40171087572574,140.25058718002555L119.61646254052322,139.74379746605615L119.83121420532068,140.50920119930637L120.04596587011814,140.53641668373336L120.26071753491561,140.99617410037342L120.47546919971307,141.14261169008304L120.69022086451054,141.75955068275744L120.904972529308,142.20782441366475L121.11972419410547,142.31841259393707L121.33447585890293,142.4089347047173L121.5492275237004,140.740062458391L121.76397918849787,141.29000653591882L121.97873085329532,141.7795037171328L122.1934825180928,141.79838858611433L122.40823418289025,140.9392578590508L122.62298584768772,141.64247311623762L122.83773751248519,142.26683017123352L123.05248917728264,141.74954505517834L123.26724084208011,142.0522404170438L123.48199250687759,141.30782637159805L123.69674417167504,142.07978856464848L123.91149583647251,142.43330589359348L124.12624750126999,142.47348697962224L124.34099916606743,142.41146099100297L124.55575083086491,142.25507753850684L124.77050249566237,142.29230753786547L124.98525416045983,141.00023953561316L125.2000058252573,141.45157152873944L125.41475749005477,141.42481738776195L125.62950915485223,141.52269380766643L125.84426081964969,140.9639644834145L126.05901248444717,141.91849129535078L126.27376414924463,142.4054739046503L126.48851581404209,142.62226922360682L126.70326747883956,143.00940254432314L126.91801914363703,142.67957374561158L127.13277080843449,143.02957139923342L127.34752247323196,143.40722193473766L127.56227413802941,143.63611940154564L127.77702580282688,143.62736739677257L127.99177746762435,143.16398205623295L128.20652913242182,142.55627185626514L128.42128079721928,142.5895190311151L128.63603246201674,142.31631427115266L128.8507841268142,142.75480830895415L129.06553579161167,142.44446555509074L129.28028745640916,142.42617411940267L129.49503912120662,142.81180627798625L129.70979078600405,142.6823830255592L129.92454245080154,141.9802131096392L130.139294115599,142.36751138891614L130.35404578039646,142.31920900763873L130.56879744519392,141.78249416803268L130.78354910999138,141.89786280117463L130.99830077478885,141.6257879888167L131.2130524395863,141.98324045192695L131.4278041043838,142.25696811540726L131.64255576918126,142.42344559182064L131.85730743397872,142.99856662832278L132.07205909877618,143.25678535555815L132.28681076357364,143.50604370065216L132.5015624283711,143.30906939290426L132.7163140931686,143.8079132799469L132.93106575796605,143.95671667082811L133.1458174227635,144.40394823500878L133.36056908756095,143.49163701179017L133.57532075235844,143.8495871894401L133.7900724171559,143.80435561022227L134.00482408195336,144.29800375943793L134.21957574675085,144.6272096317252L134.4343274115483,144.4303174076251L134.64907907634574,143.9169703665585L134.86383074114323,143.8828895737122L135.0785824059407,143.36250486738385L135.29333407073815,143.0883239569225L135.50808573553564,143.5214003901765L135.7228374003331,143.67985252778598L135.93758906513054,144.00111496396866L136.152340729928,143.62054904502617L136.3670923947255,143.70187849123937L136.58184405952295,144.25810217357167L136.7965957243204,143.98046656001125L137.01134738911787,144.01516749460038L137.22609905391533,144.13827111549793L137.4408507187128,144.39017059090182L137.65560238351028,144.38457392759258L137.87035404830775,144.19344931076614L138.0851057131052,143.9378782321396L138.29985737790267,143.71247347339153L138.51460904270013,144.70627037202075L138.7293607074976,144.5026216362254L138.94411237229505,144.48183273583305L139.15886403709254,144.35913239060244L139.37361570189,144.00897901993818L139.58836736668744,144.28761466876432L139.80311903148493,143.83590881867318L140.0178706962824,144.2334139392013L140.23262236107985,144.59408846435926L140.44737402587734,144.85688541529822L140.6621256906748,144.54323120203068L140.87687735547223,144.72391827313345L141.0916290202697,144.65178477520016L141.30638068506718,145.19408592433163L141.52113234986464,145.22576464584316L141.7358840146621,144.79798303874583L141.95063567945957,144.6848749821433L142.16538734425703,143.91913175071912L142.3801390090545,143.9624531762312L142.59489067385198,144.2839297415742L142.80964233864944,144.4013134397768L143.0243940034469,144.7928743223419L143.23914566824436,145.20938293650667L143.45389733304182,144.34332126360903L143.66864899783928,144.18853962903256L143.88340066263675,144.63391014635L144.09815232743424,144.3563253085957L144.3129039922317,144.6637071253975L144.52765565702913,144.93762562440244L144.74240732182662,145.1746191129203L144.95715898662408,144.41031593400632L145.17191065142154,145.26112188914834L145.38666231621903,145.33239820878458L145.6014139810165,145.59147952832453L145.81616564581392,145.7099936707512L146.03091731061141,145.584502305963L146.24566897540888,145.78419375946547L146.46042064020634,145.54455577650748L146.6751723050038,145.36441141101835L146.88992396980126,145.40236688198564L147.10467563459872,145.65772667144194L147.31942729939618,145.83514760408687L147.53417896419367,145.53064334578997L147.74893062899113,145.0719146814673L147.9636822937886,145.21904391102242L148.17843395858606,144.90716003531625L148.39318562338352,145.40054656495332L148.60793728818098,145.31256044130927L148.82268895297847,145.67513005376793L149.03744061777593,144.91998228317286L149.2521922825734,144.83641872158566L149.46694394737082,144.75482246220744L149.6816956121683,144.61537575442435L149.89644727696577,144.48978258298618L150.11119894176323,144.97710288462937L150.32595060656072,145.36644695289056L150.54070227135819,145.58760513341065L150.75545393615562,145.35486724962934L150.9702056009531,145.1471398052229L151.18495726575057,145.03574437784056L151.39970893054803,145.47441365454523L151.61446059534552,145.90232126641476L151.82921226014298,145.78122128461735L152.0439639249404,146.32091545645932L152.25871558973788,146.49851762621793L152.47346725453536,146.59001117981572L152.68821891933283,146.7786129294652L152.9029705841303,146.311180910778L153.11772224892775,145.56623948404206L153.3324739137252,145.39561489474198L153.54722557852267,145.36471592933995L153.76197724332016,145.3393784127007L153.97672890811762,145.48704726684645L154.19148057291508,145.8689124892825L154.40623223771254,145.1341519134404L154.62098390251,145.420086968409L154.83573556730747,145.1815481515119L155.05048723210493,145.361770756053L155.26523889690242,145.3777992254364L155.47999056169988,145.51151999208784L155.6947422264973,145.62207732561225L155.9094938912948,145.85997640321057L156.12424555609226,146.10108990238862L156.33899722088972,145.68193641802893L156.5537488856872,145.4655509564091L156.76850055048467,145.21900009711678L156.9832522152821,145.26211462456172L157.19800388007957,144.87573221671272L157.41275554487706,144.90465439765532L157.62750720967452,144.90889114230788L157.84225887447198,144.13719401995212L158.05701053926944,144.26254401782185L158.2717622040669,143.92111562724935L158.48651386886436,142.98276449328137L158.70126553366185,143.67788110746403L158.91601719845931,144.16385645266698L159.13076886325678,143.84556808569386L159.34552052805424,144.0554882320815L159.5602721928517,143.8539346962547L159.77502385764916,144.52263174242694L159.98977552244662,145.14664910543522L160.2045271872441,144.6266240682768L160.41927885204157,144.77776949528985L160.634030516839,144.69601549250487L160.8487821816365,145.0762463212223L161.06353384643396,145.2873214801034L161.27828551123142,144.44268113767313L161.4930371760289,144.4414269401569L161.70778884082637,144.13444877722708L161.9225405056238,144.2479277618331L162.1372921704213,144.46364380799986L162.35204383521875,144.36730513253957L162.5667955000162,144.3721315796013L162.78154716481367,144.44622853170085L162.99629882961113,144.6832867316391L163.2110504944086,144.58774793403393L163.42580215920606,145.3084667369135L163.64055382400355,145.42132827302916L163.855305488801,145.6229284614406L164.07005715359847,146.32670838234398L164.28480881839593,146.0634631674877L164.4995604831934,146.19129320015392L164.71431214799085,146.20224957969145L164.92906381278834,146.27627785408984L165.1438154775858,146.23324874338974L165.35856714238327,146.66790644838628L165.5733188071807,146.6483233327712L165.7880704719782,146.86292129387877L166.00282213677565,146.8448976622402L166.2175738015731,147.28373610022794L166.4323254663706,147.31028638698865L166.64707713116806,147.4590241127289L166.8618287959655,146.9969515390596L167.07658046076298,147.35838090166487L167.29133212556044,147.33388136277668L167.5060837903579,147.46593938844202L167.7208354551554,147.60167862564924L167.93558711995286,147.81647774802175L168.1503387847503,147.90279510446507L168.36509044954775,147.9524306067074L168.57984211434524,147.37348893197384L168.7945937791427,147.75125781541448L169.00934544394016,147.21692186510376L169.22409710873762,147.17116107623394L169.43884877353509,147.3595893562335L169.65360043833255,147.32503168583028L169.86835210313004,147.63900785044345L170.0831037679275,147.5881881239328L170.29785543272496,147.66778612041085L170.51260709752242,147.65220560285172L170.72735876231988,147.18217860972055L170.94211042711734,147.42422539537446L171.1568620919148,147.16053198919775L171.3716137567123,145.76401754804564L171.58636542150975,145.944753114535L171.8011170863072,146.46478453627728L172.01586875110468,146.58118700028479L172.23062041590214,146.61523535189056L172.4453720806996,146.92623604906075L172.6601237454971,146.62976380847414L172.87487541029455,146.54703376737618L173.08962707509198,147.1941688290697L173.30437873988944,147.00571096050587L173.51913040468693,146.8702714128382L173.7338820694844,146.9675099186913L173.94863373428186,146.95623003884788L174.16338539907932,147.1094162453281L174.37813706387678,147.32641739485794L174.59288872867424,146.9079872242777L174.80764039347173,147.1020350878498L175.0223920582692,147.40881192964875L175.23714372306665,147.0971606837422L175.4518953878641,147.3138808769132L175.66664705266157,147.80484330788678L175.88139871745904,148.11230922279069L176.0961503822565,147.34556007445022L176.310902047054,147.11521733575412L176.52565371185145,147.01058344971503L176.74040537664888,147.16831644284395L176.95515704144637,147.03925975244005L177.16990870624383,147.38289661709345L177.3846603710413,147.85214515278287L177.59941203583878,147.7955282564158L177.81416370063624,147.6598988023183L178.02891536543368,147.72097086857713L178.24366703023117,147.67630618912355L178.45841869502863,147.9021615778918L178.6731703598261,148.23148314387728L178.88792202462355,148.0744667995987L179.102673689421,148.17092251068775L179.31742535421847,148.23635003491927L179.53217701901593,147.8121161958633L179.74692868381342,147.59905999457052L179.96168034861088,147.76729525867594L180.17643201340834,147.77307832450356L180.3911836782058,148.19293520245603L180.60593534300327,148.5456832525742L180.82068700780073,148.80845630353087L181.03543867259822,148.6971653408376L181.25019033739568,148.33240130611415L181.46494200219314,148.05985432428534L181.67969366699057,148.09491789482186L181.89444533178806,147.86296897812707L182.10919699658552,148.26140892613094L182.32394866138299,148.12015546813714L182.53870032618048,147.82054673432913L182.75345199097794,147.94615087463922L182.96820365577537,148.2775778850729L183.18295532057286,147.09593858542854L183.39770698537032,147.05721854149795L183.61245865016778,146.997374880918L183.82721031496527,146.68438940725184L184.04196197976273,147.12889806118295L184.25671364456016,146.68694483005166L184.47146530935763,146.47924072327103L184.68621697415512,146.66503661619018L184.90096863895258,146.79492754526723L185.11572030375004,147.07933772548475L185.3304719685475,147.28841416622734L185.54522363334496,147.117528105765L185.75997529814242,147.07588493559462L185.9747269629399,147.3884776360898L186.18947862773737,147.4939962966695L186.40423029253483,146.8666859570536L186.6189819573323,147.00236810260668L186.83373362212976,146.9592245444349L187.04848528692722,147.1124039656812L187.26323695172468,146.82471287550814L187.47798861652217,147.00896764627336L187.69274028131963,146.51471994783404L187.90749194611706,147.2396946844189L188.12224361091455,146.8468861030188L188.336995275712,146.93975860974848L188.55174694050947,147.20897591829302L188.76649860530696,147.40451801490806L188.98125027010443,147.4075049328503L189.19600193490186,147.73669069661398L189.41075359969932,148.2994230507548L189.6255052644968,148.4776076762004L189.84025692929427,148.81576488275903L190.05500859409173,148.10494552016345L190.2697602588892,148.1108524442003L190.48451192368665,148.42572580408014L190.69926358848411,148.52608091093205L190.9140152532816,148.43625366009138L191.12876691807907,148.48120989187726L191.34351858287653,148.25916181824613L191.558270247674,148.60373004628852L191.77302191247145,148.1428740293022L191.9877735772689,147.91658051041776L192.20252524206637,148.22251142696808L192.41727690686386,148.35921890449558L192.63202857166132,148.68993526543903L192.84678023645876,148.6144187998351L193.06153190125625,148.68018200104797L193.2762835660537,148.74418773877983L193.49103523085117,148.75838203225095L193.70578689564866,148.33124834898243L193.92053856044612,147.56908738680286L194.13529022524355,148.10055401476947L194.35004189004104,148.25013402132348L194.5647935548385,148.2980957752121L194.77954521963596,148.3235442612099L194.99429688443342,147.91972028526928L195.20904854923089,148.25303898711496L195.42380021402835,148.45193710046306L195.6385518788258,148.56641407761433L195.8533035436233,148.5313518446415L196.06805520842076,148.49079899962862L196.28280687321822,148.55200714425402L196.49755853801568,148.72725638456143L196.71231020281314,148.83197912490408L196.9270618676106,148.80949119935846L197.1418135324081,148.84405222146327L197.35656519720555,148.25348732471954L197.57131686200302,147.83396402816544L197.78606852680045,147.89816319785422L198.00082019159794,148.51060479008808L198.2155718563954,148.34347758260574L198.43032352119286,148.3605034418639L198.64507518599035,148.54559898487534L198.8598268507878,149.09097637441806L199.07457851558524,149.22559919563975L199.28933018038273,149.39306253278642L199.5040818451802,148.72845247470386L199.71883350997766,148.83825641692266L199.93358517477515,149.00377885104498L200.1483368395726,148.97143588294242L200.36308850437004,149.34353919312466L200.5778401691675,149.26922755251806L200.792591833965,149.3081966666345L201.00734349876245,149.52228510552834L201.2220951635599,149.2435226346315L201.43684682835737,149.27925005290902L201.65159849315484,149.62710137492434L201.8663501579523,149.77024042552813L202.0811018227498,148.66735853519006L202.29585348754725,148.934424865509L202.5106051523447,149.04525007222782L202.72535681714217,148.75802551754805L202.94010848193963,148.70394171084072L203.1548601467371,148.24646714911674L203.36961181153455,148.5434645282291L203.58436347633204,148.52535603749072L203.7991151411295,148.17079154723075L204.01386680592694,148.44613866781117L204.22861847072443,148.1084204399767L204.4433701355219,148.35264078280022L204.65812180031935,148.16177785420896L204.87287346511684,148.28288308153444L205.0876251299143,148.66250044200345L205.30237679471173,148.2650376840909L205.5171284595092,148.70818483959332L205.73188012430668,148.683154306558L205.94663178910415,149.2441788015869L206.1613834539016,149.3935189027308L206.37613511869907,149.77246187656334L206.59088678349653,149.63304771783805L206.805638448294,149.14324254788593L207.02039011309148,149.20687385437745L207.23514177788894,149.2041433685351L207.4498934426864,149.21304767916618L207.66464510748386,149.26340349162598L207.87939677228132,148.97679166926434L208.0941484370788,148.89362584818997L208.30890010187625,149.2261722905827L208.52365176667374,149.04525051833272L208.7384034314712,148.55092328395716L208.95315509626863,148.7225771910303L209.16790676106612,148.51850832296262L209.38265842586358,147.2207606329005L209.59741009066104,146.88366253839362L209.81216175545853,147.427328524671L210.026913420256,147.9815326029793L210.24166508505343,148.01636105656556L210.45641674985092,147.76955696221088L210.67116841464838,148.02621267532743L210.88592007944584,148.41318082941993L211.1006717442433,148.08720859551653L211.31542340904076,148.81724134697222L211.53017507383822,148.77207471895798L211.74492673863568,148.47822154107953L211.95967840343317,148.61322454018023L212.17443006823063,148.66290801610643L212.3891817330281,148.4230205256994L212.60393339782556,148.1552446079197L212.81868506262302,148.77714934746794L213.03343672742048,148.64480914944815L213.24818839221797,148.86431886111248L213.46294005701543,149.3980559581003L213.6776917218129,148.9271001018975L213.89244338661032,149.11082555753458L214.1071950514078,149.500069884272L214.32194671620528,149.70379421014653L214.53669838100274,149.67918808938202L214.75145004580023,150.00664729768403L214.9662017105977,149.78034002601512L215.18095337539512,149.8059316935655L215.3957050401926,149.9452466017243L215.61045670499007,149.7342348409417L215.82520836978753,149.99654400106846L216.03996003458502,150.22025215838926L216.25471169938248,149.73541204678898L216.46946336417992,149.30769195979445L216.68421502897738,148.99827789916657L216.89896669377487,149.2126142858865L217.11371835857233,148.78269629922923L217.3284700233698,148.9462429478913L217.54322168816725,149.1131813710334L217.7579733529647,149.30005271972587L217.97272501776217,149.18581444980296L218.18747668255966,149.22484508201788L218.40222834735712,149.46424880159282L218.61698001215458,148.96119990511363L218.83173167695205,149.20984753305376L219.0464833417495,149.6393044096833L219.26123500654697,149.71293854365678L219.47598667134443,149.40441656715467L219.69073833614192,149.2653612024007L219.90549000093938,149.45660459129874L220.1202416657368,149.68935997069713L220.3349933305343,149.61045875912433L220.54974499533176,149.71916547180442L220.76449666012923,149.21821869378832L220.97924832492671,149.271068207365L221.19399998972418,149.62672658674222L221.4087516545216,149.6924544349552L221.62350331931907,149.35776058929213L221.83825498411656,149.0986030497618L222.05300664891402,149.4051170142347L222.26775831371148,149.46822165238612L222.48250997850894,149.86201526596972L222.6972616433064,149.9125847233266L222.91201330810387,149.94789053377633L223.12676497290136,150.14231782238542L223.34151663769882,150.3731841232435L223.55626830249628,150.17753738265088L223.77101996729374,150.00895598834418L223.9857716320912,149.89024794763483L224.20052329688866,149.56805165537068L224.41527496168612,149.49984877275995L224.6300266264836,149.43793100771086L224.84477829128107,149.7440281344444L225.0595299560785,149.81540797750665L225.274281620876,149.9440234980464L225.48903328567346,149.9042790425852L225.70378495047092,149.43738555299024L225.9185366152684,149.06148379415896L226.13328828006587,149.2597012192989L226.3480399448633,149.36388115954642L226.5627916096608,150.0027090347086L226.77754327445825,149.65642148877998L226.99229493925571,149.85618504241117L227.20704660405318,149.9022207105139L227.42179826885064,149.95793389723792L227.6365499336481,150.2283215638054L227.85130159844556,150.28518994403592L228.06605326324305,149.80190145087772L228.2808049280405,149.8147875548776L228.49555659283797,150.05680417414317L228.71030825763543,150.4539959285721L228.9250599224329,150.43377386140858L229.13981158723035,150.5709565569123L229.35456325202784,150.4486764634567L229.5693149168253,150.6608669114101L229.78406658162277,150.43726784974197L229.9988182464202,150.81433475461202L230.2135699112177,150.94555717086524L230.42832157601515,151.056880049526L230.6430732408126,151.31143096930933L230.8578249056101,151.26141005109136L231.07257657040756,151.10941622662915L231.287328235205,150.9350328503766L231.50207990000249,150.8079604032812L231.71683156479995,150.88753194330866L231.9315832295974,149.9602304281346L232.1463348943949,150.12382422526863L232.36108655919236,149.79467767836613L232.5758382239898,150.3017590754329L232.79058988878725,150.32494877053816L233.00534155358474,150.9480573109591L233.2200932183822,151.35906225515157L233.43484488317966,151.78543598558002L233.64959654797713,152.38129875714256L233.8643482127746,152.628041058471L234.07909987757205,152.73196646111592L234.29385154236954,153.07945418878808L234.508603207167,153.45764175005672L234.72335487196446,153.7140175389673L234.93810653676192,154.01303761182845L235.15285820155938,154.0312848610189L235.36760986635684,154.37934728951942L235.5823615311543,154.6745714836693L235.7971131959518,154.81403878760582L236.01186486074926,155.44892980445408L236.2266165255467,155.7629831411235" fill="none"></path></g></g></g></g><g opacity="0.2"><g><g><g><path style="fill: none;" stroke="rgb(0, 153, 136)" stroke-width="2px" d="M21.689703392879167,160.91747858042544L21.904455057676632,160.23726558582862L22.1192067224741,157.5711765793965L22.33395838727156,158.55039630583795L22.54871005206903,152.97397026647215L22.76346171686649,155.95665612208296L22.97821338166396,153.8480660695075L23.192965046461424,148.75533142922956L23.40771671125889,144.25500459851494L23.622468376056354,136.20053990293266L23.837220040853815,127.17904002575061L24.051971705651283,113.80412308910643L24.266723370448748,112.25132792812205L24.481475035246213,102.91408441182631L24.696226700043677,97.2527703147725L24.910978364841146,81.11569386152465L25.125730029638607,89.1728101440124L25.340481694436075,83.39590769690993L25.555233359233537,69.95112611612363L25.769985024031005,80.28895924506274L25.98473668882847,61.34772544412987L26.19948835362593,55.300497664244425L26.4142400184234,65.53999931563756L26.62899168322086,69.2956595817891L26.84374334801833,42.554312223772705L27.058495012815794,63.18263795446057L27.27324667761326,65.47498154241072L27.487998342410723,61.46073047306058L27.70275000720819,39.47783187078513L27.917501672005653,35.76803902798759L28.13225333680312,44.46240565834548L28.347005001600582,40.563286636148355L28.561756666398047,31.504402257948097L28.776508331195515,57.231427801217144L28.991259995992976,48.4197733619945L29.206011660790445,55.27305481765365L29.420763325587906,57.092460215404394L29.635514990385374,52.87896646278056L29.85026665518284,41.487109574235774L30.065018319980304,36.77677741990144L30.27976998477777,40.18666069335824L30.494521649575233,40.5168084136427L30.709273314372698,0.6561707498270575L30.924024979170163,40.12243336609238L31.138776643967628,47.75234235015966L31.353528308765092,21.435169852422543L31.56827997356256,40.475302814818846L31.783031638360022,40.6995307763319L31.99778330315749,52.07244570530265L32.21253496795495,36.08449047552997L32.42728663275242,43.96960571690834L32.64203829754989,37.15662263351445L32.85678996234735,47.5355230230627L33.07154162714481,2.653958243353984L33.28629329194228,36.19166057609417L33.50104495673974,8.6688927127972L33.71579662153721,38.329069569819765L33.93054828633468,25.870362139484296L34.14529995113214,41.53095776745309L34.3600516159296,33.84762900816827L34.574803280727075,31.91514672276307L34.789554945524536,35.396241991431836L35.004306610322,-29.98822630257424L35.21905827511946,30.087448828294416L35.43380993991693,29.275172187046074L35.648561604714395,43.4370750871234L35.863313269511856,41.46994971101014L36.078064934309324,50.388853295393105L36.292816599106786,34.173666409455635L36.507568263904254,48.56648731822485L36.72231992870172,50.61304532754429L36.937071593499184,25.32665029228766L37.151823258296645,32.775626195886474L37.36657492309412,36.84745766055786L37.58132658789158,37.58030166860002L37.79607825268904,28.93134256576428L38.010829917486504,29.689222153152407L38.22558158228397,39.19156108720748L38.44033324708144,42.57495004922668L38.6550849118789,36.310558020370394L38.86983657667637,43.290727610384025L39.08458824147383,35.33497524358348L39.2993399062713,44.48384830150516L39.51409157106877,41.30107452438282L39.72884323586623,40.38233199806279L39.94359490066369,55.311132755355786L40.15834656546116,49.27113396307715L40.37309823025863,23.964352607899574L40.58784989505609,50.93078304624135L40.80260155985355,54.44772863217676L41.01735322465102,51.055177682882565L41.232104889448486,36.25378962862725L41.44685655424595,39.70385630039134L41.661608219043416,49.69889457367031L41.87635988384088,47.003287014045014L42.091111548638345,61.307010291267L42.30586321343581,53.86573764285154L42.520614878233275,58.877301567043176L42.735366543030736,67.45531455194472L42.950118207828204,60.019086385934806L43.16486987262567,57.489242530199505L43.379621537423134,69.76447308124663L43.594373202220595,80.89854398429856L43.80912486701806,63.46267858669124L44.02387653181553,72.71415871622057L44.23862819661299,65.71447229684307L44.45337986141046,53.92084609807662L44.66813152620792,73.5846768530484L44.882883191005384,71.83656968097813L45.09763485580286,66.42478140912492L45.31238652060032,70.06704860923762L45.52713818539778,67.84333010244532L45.74188985019525,80.46442387665569L45.95664151499272,15.776712139636821L46.17139317979018,68.58824637607337L46.38614484458764,70.65420624079869L46.60089650938511,63.628550078666805L46.81564817418257,75.59036880618517L47.03039983898004,85.88762331383647L47.24515150377751,72.08984293862103L47.45990316857497,85.76215798221175L47.67465483337243,44.28020067846709L47.889406498169905,85.09290894466666L48.104158162967366,81.18482195374858L48.31890982776483,74.97991457639228L48.533661492562295,82.12545983318779L48.748413157359764,69.77104815446752L48.963164822157225,86.323511146083L49.177916486954686,77.51131776643243L49.392668151752154,39.523864569203695L49.607419816549616,90.32752953317461L49.822171481347084,93.59448580514139L50.03692314614455,94.30400447146226L50.25167481094201,90.91944421224633L50.466426475739475,89.43640950025467L50.68117814053695,93.99568024557325L50.89592980533441,87.62849431242762L51.11068147013187,89.88930629240703L51.325433134929334,95.1861493497889L51.5401847997268,89.41229371257238L51.75493646452427,97.72289882887422L51.96968812932173,88.60996950456003L52.1844397941192,95.39734213881815L52.39919145891666,97.17874864346285L52.61394312371413,88.49007322402403L52.8286947885116,103.21984328127834L53.04344645330906,90.58295855252929L53.25819811810652,99.38619114933132L53.472949782903996,100.24859643625057L53.68770144770146,100.32922911014295L53.90245311249892,100.4909687255043L54.11720477729638,82.91422430003314L54.33195644209385,104.23165004069527L54.546708106891316,102.34752508342116L54.76145977168878,94.30492426312594L54.976211436486246,99.32002363652488L55.19096310128371,86.83117147158656L55.405714766081175,110.92273917103358L55.62046643087864,107.7690394335306L55.835218095676105,111.17585793242047L56.049969760473566,105.78101754055795L56.264721425271034,95.47936168607845L56.4794730900685,103.90434433293416L56.694224754865964,98.87911287948994L56.908976419663425,113.84098302144142L57.12372808446089,107.75619109372848L57.33847974925836,93.9901902390806L57.55323141405582,100.36651660188413L57.76798307885329,106.54398113264966L57.98273474365075,108.18827759948992L58.19748640844822,113.11494762747225L58.41223807324569,114.34870801979633L58.62698973804315,103.56736284802341L58.84174140284061,111.74920072434534L59.05649306763808,106.88124286658294L59.27124473243555,116.87629191867046L59.48599639723301,107.84711393685834L59.70074806203047,97.30800092982791L59.91549972682794,113.60562773655948L60.13025139162541,108.17531787866602L60.34500305642287,112.39504896850923L60.55975472122034,105.05437494037331L60.7745063860178,102.25930772123954L60.98925805081526,110.33418388729605L61.204009715612735,117.0076496656407L61.418761380410196,116.23858886084086L61.63351304520766,107.26098029211036L61.848264710005125,118.21821046900999L62.063016374802594,112.93906621528171L62.277768039600055,115.54303593747605L62.492519704397516,116.88095554984025L62.707271369194984,116.8442141843994L62.922023033992446,118.12544085668037L63.136774698789914,119.62771574194956L63.35152636358738,108.87774768189138L63.56627802838484,113.62587033903294L63.781029693182305,120.12822971737859L63.99578135797978,119.03284766933271L64.21053302277724,111.71069522723703L64.4252846875747,120.97565246040108L64.64003635237218,120.26076235448174L64.85478801716962,117.93530267370268L65.0695396819671,121.42108313115835L65.28429134676456,123.59134593337124L65.49904301156202,119.67829709757993L65.7137946763595,119.7210781887499L65.92854634115696,116.40015960820148L66.14329800595442,117.95517161081278L66.3580496707519,121.84427711985879L66.57280133554936,124.07990261717238L66.78755300034682,120.87984322405785L67.00230466514428,116.8463627602388L67.21705632994176,119.60082620753145L67.43180799473922,113.4668254258113L67.64655965953668,124.85473367748735L67.86131132433415,119.53433892340445L68.0760629891316,120.97746330023895L68.29081465392908,121.14844035453524L68.50556631872655,119.73454810651225L68.720317983524,121.53890628751486L68.93506964832147,115.94654063587569L69.14982131311893,124.45681599485738L69.3645729779164,121.3274045059736L69.57932464271387,123.33094069739857L69.79407630751132,123.87834249005853L70.0088279723088,116.5511743090468L70.22357963710627,118.19659536491336L70.43833130190372,117.60252851706606L70.65308296670119,129.0584869801102L70.86783463149865,129.47854433551998L71.08258629629611,117.89931582486095L71.29733796109359,120.14041695692245L71.51208962589105,122.7250926117965L71.72684129068851,116.6885610029376L71.94159295548599,123.22840189157849L72.15634462028345,129.38046795644325L72.37109628508091,116.87449904351352L72.58584794987837,120.61284854311958L72.80059961467585,126.04900410818809L73.01535127947331,112.60022718236266L73.23010294427077,127.12356509103452L73.44485460906824,127.79753524672836L73.65960627386569,119.12480168514806L73.87435793866317,122.24137920597447L74.08910960346063,118.23714883564784L74.30386126825809,126.3085326677313L74.51861293305556,120.38171855119268L74.73336459785301,121.88571804583127L74.94811626265049,130.94901454966825L75.16286792744796,127.77830225932324L75.37761959224541,125.56985732425882L75.59237125704288,128.89413889307758L75.80712292184036,124.4528853226696L76.02187458663781,133.01060181105487L76.23662625143528,122.39854860650688L76.45137791623274,129.49576168572463L76.6661295810302,128.0244902468068L76.88088124582768,126.1013567813583L77.09563291062514,129.23134673296806L77.3103845754226,132.21357359098107L77.52513624022006,131.24011783241647L77.73988790501754,129.78281932232707L77.954639569815,122.56782620198706L78.16939123461246,131.068828192672L78.38414289940994,127.94885894008571L78.5988945642074,132.82703870129808L78.81364622900486,128.45420541468533L79.02839789380234,123.96894556186781L79.24314955859978,128.84648218750286L79.45790122339726,130.03143254173636L79.67265288819472,130.6483253131751L79.88740455299218,129.99168748164382L80.10215621778966,136.63313840210066L80.3169078825871,129.63906235257804L80.53165954738458,127.79161768082957L80.74641121218205,124.93607415980846L80.9611628769795,129.6569731394666L81.17591454177698,131.37875486810006L81.39066620657444,130.16720241434334L81.6054178713719,130.1478903823421L81.82016953616937,130.21461480025744L82.03492120096683,133.27398738759405L82.2496728657643,132.34521158697385L82.46442453056177,129.58109032721248L82.67917619535923,129.95173043831625L82.8939278601567,132.11902727170735L83.10867952495416,132.272632479543L83.32343118975163,133.51466021803168L83.53818285454909,134.12000349609963L83.75293451934655,128.15152928448111L83.96768618414403,127.83170047692367L84.18243784894148,135.2663836803735L84.39718951373895,133.5212550524016L84.61194117853643,134.65026518668293L84.82669284333387,134.62548829874237L85.04144450813135,129.83259226731553L85.25619617292881,134.38237227169807L85.47094783772627,125.64963128640268L85.68569950252375,129.07392223396644L85.9004511673212,131.72476540164692L86.11520283211867,131.72924579307121L86.32995449691614,135.6951808530564L86.54470616171359,127.0200094842737L86.75945782651107,127.14826293437896L86.97420949130853,130.60859462482725L87.18896115610599,130.27193650417328L87.40371282090346,131.90671707952419L87.61846448570093,137.23617142220078L87.83321615049839,132.78349770412473L88.04796781529586,132.2108267912667L88.26271948009332,137.55018506254075L88.47747114489079,128.68362876192376L88.69222280968825,137.88524791952804L88.90697447448572,130.630385782797L89.12172613928318,136.76835316606682L89.33647780408064,134.04316136988376L89.55122946887812,131.392487070204L89.76598113367557,135.8695801790701L89.98073279847304,133.79661049584536L90.1954844632705,136.1120440881966L90.41023612806796,133.66286164984317L90.62498779286544,134.98175307216485L90.83973945766289,135.2939702444117L91.05449112246036,137.55168690986662L91.26924278725784,136.81086478702284L91.48399445205528,135.68895070170942L91.69874611685276,136.05603021305257L91.91349778165024,138.16737784415102L92.12824944644768,135.8887431042196L92.34300111124516,136.05297442082613L92.55775277604262,137.27568294144126L92.77250444084008,138.6890093020149L92.98725610563756,134.9567426433722L93.20200777043502,136.7163957158771L93.41675943523248,137.2908235745302L93.63151110002994,134.10014893073426L93.84626276482742,134.68854253234343L94.06101442962488,134.98906649377201L94.27576609442234,138.14262610676377L94.49051775921981,136.31179876487684L94.70526942401727,134.66286202095202L94.92002108881474,135.15000668083195L95.13477275361221,136.07473503883833L95.34952441840966,135.04008798408523L95.56427608320713,134.98538912358538L95.7790277480046,126.77650542012127L95.99377941280206,134.69653861182599L96.20853107759953,138.16889047028542L96.42328274239698,135.43498760031872L96.63803440719445,136.8159775352159L96.85278607199193,129.0119440847532L97.06753773678938,134.7197525725255L97.28228940158685,137.49877014571516L97.49704106638431,128.62176917960463L97.71179273118177,140.25005564095108L97.92654439597925,135.80726249738726L98.14129606077671,137.87849858890212L98.35604772557417,135.79237157336323L98.57079939037165,141.0151390653927L98.78555105516911,135.12141589112966L99.00030271996657,137.71243128190437L99.21505438476403,137.86443044726477L99.4298060495615,137.40622509189717L99.64455771435897,138.91952490185395L99.85930937915643,138.93441223294178L100.0740610439539,137.18390857243523L100.28881270875135,135.13751763464845L100.50356437354883,137.2754601793977L100.7183160383463,138.70048334372578L100.93306770314375,138.19820523662926L101.14781936794122,135.13557565263977L101.36257103273869,136.56622176209936L101.57732269753615,136.16068885122257L101.79207436233362,138.05632557603752L102.00682602713107,127.46385567017282L102.22157769192854,140.590261786089L102.43632935672602,138.87217539232313L102.65108102152347,136.97243194144724L102.86583268632094,137.22207992647822L103.0805843511184,138.46611970923124L103.29533601591586,138.77282531736833L103.51008768071334,137.41410260448558L103.7248393455108,135.23549880091625L103.93959101030826,140.1630814346899L104.15434267510574,137.03089440260223L104.3690943399032,134.71249843436541L104.58384600470066,139.79651930615756L104.79859766949812,137.43298707708067L105.0133493342956,137.99068263191427L105.22810099909306,140.58377653627278L105.44285266389052,140.33207698467945L105.657604328688,140.93706635853303L105.87235599348544,138.46961743260854L106.08710765828292,137.56508496890527L106.30185932308038,143.13423306690873L106.51661098787784,141.57536404730143L106.73136265267532,139.9686353212249L106.94611431747276,142.94052530183L107.16086598227024,139.93392396472927L107.37561764706771,140.05794134307095L107.59036931186516,142.47990369687716L107.80512097666264,139.59382021827267L108.01987264146011,143.40682194948906L108.23462430625756,141.53239971638598L108.44937597105503,142.39047731166886L108.6641276358525,137.27088277869638L108.87887930064996,138.49827469163031L109.09363096544743,142.35855227718568L109.30838263024489,139.2879104455008L109.52313429504235,141.92346926264491L109.73788595983982,140.34291148374916L109.95263762463729,139.71623335060715L110.16738928943475,139.87189192147324L110.38214095423221,138.8934132381202L110.59689261902969,136.7670579125717L110.81164428382715,140.5987465048929L111.02639594862461,140.55101255119013L111.24114761342209,136.8631797343631L111.45589927821953,139.08905579933523L111.67065094301701,140.5408858605491L111.88540260781447,138.69227887394442L112.10015427261193,139.57163024438623L112.3149059374094,141.98989726332485L112.52965760220685,140.03568130692886L112.74440926700433,137.00080715497836L112.9591609318018,141.66752824988367L113.17391259659925,142.49506588758322L113.38866426139673,141.81734650297898L113.60341592619419,140.94020299182364L113.81816759099165,142.8318838938975L114.03291925578912,135.50792600136822L114.24767092058659,140.1181140418506L114.46242258538405,141.70055272283983L114.67717425018152,137.75863105185562L114.89192591497898,140.28302262692824L115.10667757977644,141.29514556472958L115.3214292445739,141.48710356988562L115.53618090937138,141.323932169454L115.75093257416884,138.516207036136L115.9656842389663,138.6679924217933L116.18043590376378,140.00427545172462L116.39518756856123,143.12977423310156L116.6099392333587,138.9405058527137L116.82469089815618,141.62741311736391L117.03944256295362,140.6055461366254L117.2541942277511,141.66782826005524L117.46894589254856,142.43929633209987L117.68369755734602,138.70925909036075L117.8984492221435,143.65880534304108L118.11320088694094,140.58008659080946L118.32795255173842,142.56466465444757L118.5427042165359,141.93873924143656L118.75745588133334,141.949047375355L118.97220754613082,131.59051893398293L119.18695921092828,141.9261855224017L119.40171087572574,141.02296268393832L119.61646254052322,137.7166386101785L119.83121420532068,143.5708161323073L120.04596587011814,140.64527862144135L120.26071753491561,142.8352037669336L120.47546919971307,141.7283620489216L120.69022086451054,144.22730665345495L120.904972529308,144.00091933729394L121.11972419410547,142.76076531502636L121.33447585890293,142.77102314783818L121.5492275237004,134.06457347308586L121.76397918849787,143.48978284603015L121.97873085329532,143.7374924419886L122.1934825180928,141.87392806204045L122.40823418289025,137.5027349507967L122.62298584768772,144.455334144985L122.83773751248519,144.76425839121708L123.05248917728264,139.6804045909576L123.26724084208011,143.2630218645058L123.48199250687759,138.33017018981494L123.69674417167504,145.16763733685022L123.91149583647251,143.84737520937344L124.12624750126999,142.6342113237372L124.34099916606743,142.16335703652584L124.55575083086491,141.62954372852238L124.77050249566237,142.4412275353L124.98525416045983,135.83196752660407L125.2000058252573,143.25689950124436L125.41475749005477,141.31780082385214L125.62950915485223,141.91419948728432L125.84426081964969,138.72904718640666L126.05901248444717,145.7365985430959L126.27376414924463,144.35340434184843L126.48851581404209,143.48945049943293L126.70326747883956,144.55793582718835L126.91801914363703,141.36025855076534L127.13277080843449,144.42956201372084L127.34752247323196,144.9178240767547L127.56227413802941,144.55170926877753L127.77702580282688,143.5923593776802L127.99177746762435,141.31044069407454L128.20652913242182,140.12543105639392L128.42128079721928,142.7225077305149L128.63603246201674,141.22349523130288L128.8507841268142,144.50878446016011L129.06553579161167,141.20309453963722L129.28028745640916,142.35300837665028L129.49503912120662,144.3543349123207L129.70979078600405,142.16469001585094L129.92454245080154,139.17153344595928L130.139294115599,143.91670450602382L130.35404578039646,142.12599948252904L130.56879744519392,139.63563480960855L130.78354910999138,142.35933733374242L130.99830077478885,140.537488739385L131.2130524395863,143.41305030436797L131.4278041043838,143.35187876932852L131.64255576918126,143.08935549747406L131.85730743397872,145.2990507743313L132.07205909877618,144.28966026449964L132.28681076357364,144.5030770810282L132.5015624283711,142.52117216191272L132.7163140931686,145.80328882811745L132.93106575796605,144.551930234353L133.1458174227635,146.19287449173146L133.36056908756095,139.84239211891582L133.57532075235844,145.2813879000396L133.7900724171559,143.62342929335102L134.00482408195336,146.27259635630062L134.21957574675085,145.9440331208743L134.4343274115483,143.64274851122462L134.64907907634574,141.86358220229206L134.86383074114323,143.74656640232703L135.0785824059407,141.28096604207045L135.29333407073815,141.99160031507714L135.50808573553564,145.25370612319244L135.7228374003331,144.31366107822396L135.93758906513054,145.28616470869926L136.152340729928,142.09828536925622L136.3670923947255,144.02719627609224L136.58184405952295,146.4829969029008L136.7965957243204,142.86992410576968L137.01134738911787,144.15397123295688L137.22609905391533,144.63068559908805L137.4408507187128,145.39776849251732L137.65560238351028,144.3621872743558L137.87035404830775,143.4289508434603L138.0851057131052,142.9155939176334L138.29985737790267,142.81085443839922L138.51460904270013,148.6814579665376L138.7293607074976,143.68802669304407L138.94411237229505,144.3986771342636L139.15886403709254,143.8683310096799L139.37361570189,142.60836553728123L139.58836736668744,145.40215726406885L139.80311903148493,142.02908541830854L140.0178706962824,145.8234344213139L140.23262236107985,146.0367865649911L140.44737402587734,145.908073219054L140.6621256906748,143.2886143489606L140.87687735547223,145.44666655754443L141.0916290202697,144.36325078346692L141.30638068506718,147.36329052085745L141.52113234986464,145.35247953188932L141.7358840146621,143.0868566103565L141.95063567945957,144.23244275573322L142.16538734425703,140.8561588250224L142.3801390090545,144.13573887827962L142.59489067385198,145.56983600294615L142.80964233864944,144.87084823258724L143.0243940034469,146.3591178526023L143.23914566824436,146.87541739316578L143.45389733304182,140.87907457201845L143.66864899783928,143.56941309072656L143.88340066263675,146.41539221561985L144.09815232743424,143.24598595757854L144.3129039922317,145.89323439260468L144.52765565702913,146.03329962042233L144.74240732182662,146.12259306699173L144.95715898662408,141.35310321835038L145.17191065142154,148.66434570971643L145.38666231621903,145.61750348732946L145.6014139810165,146.62780480648433L145.81616564581392,146.18405024045796L146.03091731061141,145.0825368468102L146.24566897540888,146.58295957347534L146.46042064020634,144.58600384467553L146.6751723050038,144.64383394906173L146.88992396980126,145.55418876585492L147.10467563459872,146.67916582926713L147.31942729939618,146.54483133466658L147.53417896419367,144.3126263126023L147.74893062899113,143.23700002417667L147.9636822937886,145.80756082924293L148.17843395858606,143.65962453249156L148.39318562338352,147.3740926835015L148.60793728818098,144.9606159467332L148.82268895297847,147.1254085036025L149.03744061777593,141.8993912007926L149.2521922825734,144.5021644752369L149.46694394737082,144.42843742469452L149.6816956121683,144.05758892329195L149.89644727696577,143.98740989723353L150.11119894176323,146.92638409120212L150.32595060656072,146.92382322593537L150.54070227135819,146.472237855491L150.75545393615562,144.4239157145041L150.9702056009531,144.31623002759716L151.18495726575057,144.59016266831117L151.39970893054803,147.2290907613639L151.61446059534552,147.61395171389296L151.82921226014298,145.29682135742775L152.0439639249404,148.4796921438271L152.25871558973788,147.20892630525248L152.47346725453536,146.9559853942068L152.68821891933283,147.53301992806306L152.9029705841303,144.44145283602933L153.11772224892775,142.58647377709823L153.3324739137252,144.71311653754168L153.54722557852267,145.2411200677319L153.76197724332016,145.23802834614364L153.97672890811762,146.07772268342944L154.19148057291508,147.39637337902664L154.40623223771254,142.19510961007205L154.62098390251,146.56382718828343L154.83573556730747,144.22739288392341L155.05048723210493,146.08266117421746L155.26523889690242,145.44191310296998L155.47999056169988,146.04640305869367L155.6947422264973,146.06430665970987L155.9094938912948,146.81157271360374L156.12424555609226,147.06554389910085L156.33899722088972,144.0053224805902L156.5537488856872,144.60000910992963L156.76850055048467,144.23279665994758L156.9832522152821,145.43457273434143L157.19800388007957,143.33020258531675L157.41275554487706,145.02034312142575L157.62750720967452,144.92583812091817L157.84225887447198,141.05040553052908L158.05701053926944,144.76394400930081L158.2717622040669,142.55540206495934L158.48651386886436,139.2293599574093L158.70126553366185,146.45834756419487L158.91601719845931,146.1077578334786L159.13076886325678,142.57241461780134L159.34552052805424,144.89516881763214L159.5602721928517,143.0477205529475L159.77502385764916,147.19741992711593L159.98977552244662,147.64271855746836L160.2045271872441,142.54652391964308L160.41927885204157,145.382351203342L160.634030516839,144.368999481365L160.8487821816365,146.59716963609205L161.06353384643396,146.13162211562783L161.27828551123142,141.0641197679521L161.4930371760289,144.43641015009186L161.70778884082637,142.90653612550784L161.9225405056238,144.70184370025723L162.1372921704213,145.32650799266682L162.35204383521875,143.98195043069848L162.5667955000162,144.39143736784825L162.78154716481367,144.74261634009906L162.99629882961113,145.63151953139212L163.2110504944086,144.2055927436132L163.42580215920606,148.19134194843164L163.64055382400355,145.8727744174919L163.855305488801,146.4293292150864L164.07005715359847,149.14182806595744L164.28480881839593,145.01048230806254L164.4995604831934,146.70261333081876L164.71431214799085,146.2460750978416L164.92906381278834,146.57239095168342L165.1438154775858,146.0611323005893L165.35856714238327,148.4065372683724L165.5733188071807,146.56999087031096L165.7880704719782,147.72131313830909L166.00282213677565,146.77280313568573L166.2175738015731,149.03908985217896L166.4323254663706,147.41648753403143L166.64707713116806,148.05397501568987L166.8618287959655,145.1486612443824L167.07658046076298,148.8040983520859L167.29133212556044,147.23588320722405L167.5060837903579,147.99417149110337L167.7208354551554,148.14463557447814L167.93558711995286,148.67567423751177L168.1503387847503,148.24806453023842L168.36509044954775,148.1509726156767L168.57984211434524,145.05772223303967L168.7945937791427,149.262333349177L169.00934544394016,145.0795780638608L169.22409710873762,146.98811792075472L169.43884877353509,148.11330247623172L169.65360043833255,147.18680100421741L169.86835210313004,148.89491250889614L170.0831037679275,147.38490921789028L170.29785543272496,147.98617810632297L170.51260709752242,147.58988353261515L170.72735876231988,145.30207063719587L170.94211042711734,148.3924125379901L171.1568620919148,146.10575836449092L171.3716137567123,140.17795978343727L171.58636542150975,146.66769538049246L171.8011170863072,148.54491022324632L172.01586875110468,147.0467968563149L172.23062041590214,146.75142875831358L172.4453720806996,148.17023883774155L172.6601237454971,145.4438748461277L172.87487541029455,146.21611360298428L173.08962707509198,149.78270907584377L173.30437873988944,146.25187948625054L173.51913040468693,146.32851322216763L173.7338820694844,147.35646394210355L173.94863373428186,146.91111051947428L174.16338539907932,147.72216107124905L174.37813706387678,148.19442199297734L174.59288872867424,145.2342665419566L174.80764039347173,147.87822654213824L175.0223920582692,148.63591929684466L175.23714372306665,145.850555700116L175.4518953878641,148.18076164959712L175.66664705266157,149.7686930317811L175.88139871745904,149.34217288240626L176.0961503822565,144.27856348108833L176.310902047054,146.19384638096983L176.52565371185145,146.59204790555853L176.74040537664888,147.7992484153596L176.95515704144637,146.52303299082448L177.16990870624383,148.7574440757071L177.3846603710413,149.72913929554048L177.59941203583878,147.56906067094758L177.81416370063624,147.11738098592832L178.02891536543368,147.96525913361242L178.24366703023117,147.4976474713092L178.45841869502863,148.80558313296484L178.6731703598261,149.5487694078192L178.88792202462355,147.44640142248434L179.102673689421,148.55674535504392L179.31742535421847,148.4980601318454L179.53217701901593,146.11518083963946L179.74692868381342,146.74683518939943L179.96168034861088,148.4402363150975L180.17643201340834,147.79621058781413L180.3911836782058,149.87236271426585L180.60593534300327,149.95667545304704L180.82068700780073,149.8595485073575L181.03543867259822,148.25200149006452L181.25019033739568,146.87334516722032L181.46494200219314,146.9696663969701L181.67969366699057,148.235172176968L181.89444533178806,146.9351733113478L182.10919699658552,149.85516871814644L182.32394866138299,147.55514163616195L182.53870032618048,146.62211179909718L182.75345199097794,148.44856743587945L182.96820365577537,149.60328592680762L183.18295532057286,142.36938138685113L183.39770698537032,146.90233836577548L183.61245865016778,146.7580002385983L183.82721031496527,145.43244751258726L184.04196197976273,148.90693267690733L184.25671364456016,144.91913190552648L184.47146530935763,145.64842429614853L184.68621697415512,147.40822018786682L184.90096863895258,147.31449126157548L185.11572030375004,148.21697844635474L185.3304719685475,148.12471992919762L185.54522363334496,146.43398386391573L185.75997529814242,146.90931225491303L185.9747269629399,148.6388484380705L186.18947862773737,147.91607093898827L186.40423029253483,144.35744459858992L186.6189819573323,147.54509668481916L186.83373362212976,146.78665031174765L187.04848528692722,147.72512165066652L187.26323695172468,145.67394851481583L187.47798861652217,147.74598672933428L187.69274028131963,144.53772915407674L187.90749194611706,150.13959363075838L188.12224361091455,145.2756517774182L188.336995275712,147.31124863666736L188.55174694050947,148.28584515247115L188.76649860530696,148.18668640136826L188.98125027010443,147.41945260461918L189.19600193490186,149.05343375166865L189.41075359969932,150.5503524673181L189.6255052644968,149.19034617798283L189.84025692929427,150.16839370899353L190.05500859409173,145.26166806978122L190.2697602588892,148.13448014034765L190.48451192368665,149.68521924359945L190.69926358848411,148.92750133833968L190.9140152532816,148.07694465672873L191.12876691807907,148.66103481902078L191.34351858287653,147.37096952372158L191.558270247674,149.98200295845814L191.77302191247145,146.29944996135686L191.9877735772689,147.0114064348801L192.20252524206637,149.44623509316935L192.41727690686386,148.9060488146055L192.63202857166132,150.01280070921285L192.84678023645876,148.31235293741943L193.06153190125625,148.9432348058994L193.2762835660537,149.0002106897073L193.49103523085117,148.81515920613535L193.70578689564866,146.6227136159084L193.92053856044612,144.52044353808458L194.13529022524355,150.22642052663593L194.35004189004104,148.8484540475395L194.5647935548385,148.48994279076655L194.77954521963596,148.42533820520114L194.99429688443342,146.30442438150675L195.20904854923089,149.5863137944977L195.42380021402835,149.2475295538555L195.6385518788258,149.02432198621935L195.8533035436233,148.39110291275023L196.06805520842076,148.32858761957712L196.28280687321822,148.79683972275555L196.49755853801568,149.4282533457911L196.71231020281314,149.2508700862747L196.9270618676106,148.71953949717596L197.1418135324081,148.98229630988254L197.35656519720555,145.89122773774463L197.57131686200302,146.155870841949L197.78606852680045,148.1549598766094L198.00082019159794,150.96037115902348L198.2155718563954,147.67496875267636L198.43032352119286,148.4286068788966L198.64507518599035,149.28598115692103L198.8598268507878,151.272485932589L199.07457851558524,149.7640904805265L199.28933018038273,150.06291588137307L199.5040818451802,146.07001224237368L199.71883350997766,149.27747218579788L199.93358517477515,149.66586858753422L200.1483368395726,148.8420640105322L200.36308850437004,150.83195243385362L200.5778401691675,148.9719809900917L200.792591833965,149.46407312310015L201.00734349876245,150.37863886110364L201.2220951635599,148.1284727510442L201.43684682835737,149.42215972601917L201.65159849315484,151.0185066629855L201.8663501579523,150.34279662794341L202.0811018227498,144.25583097383776L202.29585348754725,150.00269018678466L202.5106051523447,149.4885508991032L202.72535681714217,147.6091272988288L202.94010848193963,148.48760648401142L203.1548601467371,146.41656890222086L203.36961181153455,149.7314540446785L203.58436347633204,148.4529220745372L203.7991151411295,146.75253358619088L204.01386680592694,149.54752715013282L204.22861847072443,146.75754752863884L204.4433701355219,149.32952215409438L204.65812180031935,147.39832613984387L204.87287346511684,148.7673039908363L205.0876251299143,150.18096988387953L205.30237679471173,146.67518665244083L205.5171284595092,150.4807734616028L205.73188012430668,148.58303217441673L205.94663178910415,151.48827678170264L206.1613834539016,149.99087930730633L206.37613511869907,151.28823377189343L206.59088678349653,149.07539108293702L206.805638448294,147.1840218680773L207.02039011309148,149.46139908034354L207.23514177788894,149.19322142516592L207.4498934426864,149.24866492169036L207.66464510748386,149.46482674146523L207.87939677228132,147.8303443798178L208.0941484370788,148.56096256389256L208.30890010187625,150.55635806015349L208.52365176667374,148.32156342933297L208.7384034314712,146.57361434645483L208.95315509626863,149.4091928193229L209.16790676106612,147.70223285069187L209.38265842586358,142.02976987265203L209.59741009066104,145.53527016036608L209.81216175545853,149.60199246978055L210.026913420256,150.19834891621255L210.24166508505343,148.1556748709105L210.45641674985092,146.78234058479222L210.67116841464838,149.05283552779363L210.88592007944584,149.96105344579001L211.1006717442433,146.783319659903L211.31542340904076,151.73737235279495L211.53017507383822,148.591408206901L211.74492673863568,147.3028088295658L211.95967840343317,149.1532365365829L212.17443006823063,148.86164191981123L212.3891817330281,147.4634705640713L212.60393339782556,147.08414093680102L212.81868506262302,151.26476830566088L213.03343672742048,148.11544835736896L213.24818839221797,149.74235770776977L213.46294005701543,151.53300434605154L213.6776917218129,147.0432766770864L213.89244338661032,149.84572738008296L214.1071950514078,151.0570471912216L214.32194671620528,150.51869151364465L214.53669838100274,149.58076360632396L214.75145004580023,151.3164841308921L214.9662017105977,148.87511093933952L215.18095337539512,149.90829836376693L215.3957050401926,150.50250623435954L215.61045670499007,148.89018779781117L215.82520836978753,151.0457806415755L216.03996003458502,151.11508478767257L216.25471169938248,147.7960516003879L216.46946336417992,147.59681161181632L216.68421502897738,147.76062165665502L216.89896669377487,150.06995983276624L217.11371835857233,147.06302435260022L217.3284700233698,149.60042954253953L217.54322168816725,149.78093506360182L217.7579733529647,150.0475381144958L217.97272501776217,148.72886137011125L218.18747668255966,149.38096761087758L218.40222834735712,150.42186367989262L218.61698001215458,146.94900431919686L218.83173167695205,150.20443804481425L219.0464833417495,151.35713191620147L219.26123500654697,150.00747507955072L219.47598667134443,148.17032866114621L219.69073833614192,148.70913974338478L219.90549000093938,150.22157814689086L220.1202416657368,150.62038148829077L220.3349933305343,149.29485391283302L220.54974499533176,150.15399232252489L220.76449666012923,147.2144315817239L220.97924832492671,149.48246626167176L221.19399998972418,151.0493601042511L221.4087516545216,149.95536582780716L221.62350331931907,148.01898520663983L221.83825498411656,148.06197289164052L222.05300664891402,150.63117287212623L222.26775831371148,149.72064020499184L222.48250997850894,151.43718972030405L222.6972616433064,150.11486255275423L222.91201330810387,150.08911377557527L223.12676497290136,150.92002697682182L223.34151663769882,151.29664932667575L223.55626830249628,149.39495042028048L223.77101996729374,149.33463041111722L223.9857716320912,149.41541578479752L224.20052329688866,148.27926648631407L224.41527496168612,149.22703724231707L224.6300266264836,149.19025994751436L224.84477829128107,150.96841664137858L225.0595299560785,150.10092734975578L225.274281620876,150.4584855802053L225.48903328567346,149.74530122074037L225.70378495047092,147.5698115946105L225.9185366152684,147.55787675883374L226.13328828006587,150.0525709198587L226.3480399448633,149.7806009205365L226.5627916096608,152.55802053535731L226.77754327445825,148.27127130506557L226.99229493925571,150.65523925693594L227.20704660405318,150.0863633829247L227.42179826885064,150.18078664413403L227.6365499336481,151.30987223007529L227.85130159844556,150.51266346495814L228.06605326324305,147.86874747824479L228.2808049280405,149.86633197087718L228.49555659283797,151.02487065120542L228.71030825763543,152.04276294628787L228.9250599224329,150.3528855927545L229.13981158723035,151.11968733892718L229.35456325202784,149.9595560896344L229.5693149168253,151.50962870322363L229.78406658162277,149.54287160306947L229.9988182464202,152.3226023740921L230.2135699112177,151.47044683587825L230.42832157601515,151.502171564169L230.6430732408126,152.32963464844266L230.8578249056101,151.06132637821946L231.07257657040756,150.5014409287803L231.287328235205,150.2374993453663L231.50207990000249,150.29967061489955L231.71683156479995,151.2058181034186L231.9315832295974,146.25102436743822L232.1463348943949,150.7781994138048L232.36108655919236,148.47809149075613L232.5758382239898,152.3300846637L232.79058988878725,150.41770755095916L233.00534155358474,153.44049147264286L233.2200932183822,153.00308203192145L233.43484488317966,153.4909309072939L233.64959654797713,154.7647498433928L233.8643482127746,153.61501026378477L234.07909987757205,153.14766807169548L234.29385154236954,154.4694050994767L234.508603207167,154.97039199513128L234.72335487196446,154.7395206946098L234.93810653676192,155.20911790327298L235.15285820155938,154.10427385778056L235.36760986635684,155.7715970035216L235.5823615311543,155.8554682602689L235.7971131959518,155.37190800335182L236.01186486074926,157.98849387184723L236.2266165255467,157.0191964878012" fill="none"></path></g></g></g></g></g></g><g transform="translate(72, 176)" clip-path="url(#clip_1)"><clipPath id="clip_1"><rect width="257" height="23"></rect></clipPath><g><g><line x1="0" y1="0" x2="0" y2="5" style="visibility: inherit;" fill="rgb(0, 0, 0)" stroke="rgb(204, 204, 204)" stroke-width="1px"></line><line x1="21.4751664797465" y1="0" x2="21.4751664797465" y2="5" style="visibility: inherit;" fill="rgb(0, 0, 0)" stroke="rgb(204, 204, 204)" stroke-width="1px"></line><line x1="42.950332959493" y1="0" x2="42.950332959493" y2="5" style="visibility: inherit;" fill="rgb(0, 0, 0)" stroke="rgb(204, 204, 204)" stroke-width="1px"></line><line x1="64.4254994392395" y1="0" x2="64.4254994392395" y2="5" style="visibility: inherit;" fill="rgb(0, 0, 0)" stroke="rgb(204, 204, 204)" stroke-width="1px"></line><line x1="85.900665918986" y1="0" x2="85.900665918986" y2="5" style="visibility: inherit;" fill="rgb(0, 0, 0)" stroke="rgb(204, 204, 204)" stroke-width="1px"></line><line x1="107.37583239873251" y1="0" x2="107.37583239873251" y2="5" style="visibility: inherit;" fill="rgb(0, 0, 0)" stroke="rgb(204, 204, 204)" stroke-width="1px"></line><line x1="128.850998878479" y1="0" x2="128.850998878479" y2="5" style="visibility: inherit;" fill="rgb(0, 0, 0)" stroke="rgb(204, 204, 204)" stroke-width="1px"></line><line x1="150.32616535822552" y1="0" x2="150.32616535822552" y2="5" style="visibility: inherit;" fill="rgb(0, 0, 0)" stroke="rgb(204, 204, 204)" stroke-width="1px"></line><line x1="171.801331837972" y1="0" x2="171.801331837972" y2="5" style="visibility: inherit;" fill="rgb(0, 0, 0)" stroke="rgb(204, 204, 204)" stroke-width="1px"></line><line x1="193.2764983177185" y1="0" x2="193.2764983177185" y2="5" style="visibility: inherit;" fill="rgb(0, 0, 0)" stroke="rgb(204, 204, 204)" stroke-width="1px"></line><line x1="214.75166479746503" y1="0" x2="214.75166479746503" y2="5" style="visibility: inherit;" fill="rgb(0, 0, 0)" stroke="rgb(204, 204, 204)" stroke-width="1px"></line><line x1="236.2268312772115" y1="0" x2="236.2268312772115" y2="5" style="visibility: inherit;" fill="rgb(0, 0, 0)" stroke="rgb(204, 204, 204)" stroke-width="1px"></line><line x1="257.701997756958" y1="0" x2="257.701997756958" y2="5" style="visibility: inherit;" fill="rgb(0, 0, 0)" stroke="rgb(204, 204, 204)" stroke-width="1px"></line></g><g transform="translate(0, 8)"><text style="text-anchor: middle; visibility: hidden; font-family: Roboto, sans-serif; font-size: 12px; font-weight: 200;" x="0" y="0" dx="0em" dy="0.95em" fill="rgb(33, 33, 33)" stroke="none" stroke-width="1px">-100k</text><text style="text-anchor: middle; visibility: inherit; font-family: Roboto, sans-serif; font-size: 12px; font-weight: 200;" x="21.4751664797465" y="0" dx="0em" dy="0.95em" fill="rgb(33, 33, 33)" stroke="none" stroke-width="1px">0</text><text style="text-anchor: middle; visibility: hidden; font-family: Roboto, sans-serif; font-size: 12px; font-weight: 200;" x="42.950332959493" y="0" dx="0em" dy="0.95em" fill="rgb(33, 33, 33)" stroke="none" stroke-width="1px">100k</text><text style="text-anchor: middle; visibility: inherit; font-family: Roboto, sans-serif; font-size: 12px; font-weight: 200;" x="64.4254994392395" y="0" dx="0em" dy="0.95em" fill="rgb(33, 33, 33)" stroke="none" stroke-width="1px">200k</text><text style="text-anchor: middle; visibility: hidden; font-family: Roboto, sans-serif; font-size: 12px; font-weight: 200;" x="85.900665918986" y="0" dx="0em" dy="0.95em" fill="rgb(33, 33, 33)" stroke="none" stroke-width="1px">300k</text><text style="text-anchor: middle; visibility: inherit; font-family: Roboto, sans-serif; font-size: 12px; font-weight: 200;" x="107.37583239873251" y="0" dx="0em" dy="0.95em" fill="rgb(33, 33, 33)" stroke="none" stroke-width="1px">400k</text><text style="text-anchor: middle; visibility: hidden; font-family: Roboto, sans-serif; font-size: 12px; font-weight: 200;" x="128.850998878479" y="0" dx="0em" dy="0.95em" fill="rgb(33, 33, 33)" stroke="none" stroke-width="1px">500k</text><text style="text-anchor: middle; visibility: inherit; font-family: Roboto, sans-serif; font-size: 12px; font-weight: 200;" x="150.32616535822552" y="0" dx="0em" dy="0.95em" fill="rgb(33, 33, 33)" stroke="none" stroke-width="1px">600k</text><text style="text-anchor: middle; visibility: hidden; font-family: Roboto, sans-serif; font-size: 12px; font-weight: 200;" x="171.801331837972" y="0" dx="0em" dy="0.95em" fill="rgb(33, 33, 33)" stroke="none" stroke-width="1px">700k</text><text style="text-anchor: middle; visibility: inherit; font-family: Roboto, sans-serif; font-size: 12px; font-weight: 200;" x="193.2764983177185" y="0" dx="0em" dy="0.95em" fill="rgb(33, 33, 33)" stroke="none" stroke-width="1px">800k</text><text style="text-anchor: middle; visibility: hidden; font-family: Roboto, sans-serif; font-size: 12px; font-weight: 200;" x="214.75166479746503" y="0" dx="0em" dy="0.95em" fill="rgb(33, 33, 33)" stroke="none" stroke-width="1px">900k</text><text style="text-anchor: middle; visibility: inherit; font-family: Roboto, sans-serif; font-size: 12px; font-weight: 200;" x="236.2268312772115" y="0" dx="0em" dy="0.95em" fill="rgb(33, 33, 33)" stroke="none" stroke-width="1px">1M</text><text style="text-anchor: middle; visibility: hidden; font-family: Roboto, sans-serif; font-size: 12px; font-weight: 200;" x="257.701997756958" y="0" dx="0em" dy="0.95em" fill="rgb(33, 33, 33)" stroke="none" stroke-width="1px">1.1M</text></g><line x1="0" y1="0" x2="257.701997756958" y2="0" fill="rgb(0, 0, 0)" stroke="rgb(204, 204, 204)" stroke-width="1px"></line></g></g></g></g></svg>