<svg viewBox="0 0 330 200" xmlns="http://www.w3.org/2000/svg"><g><g><g><g><g><line x1="51.53200149536133" y1="176.5999994277954" x2="46.53200149536133" y2="176.5999994277954" style="visibility: inherit;" fill="rgb(0, 0, 0)" stroke="rgb(204, 204, 204)" stroke-width="1px"></line><line x1="51.53200149536133" y1="154.52499949932098" x2="46.53200149536133" y2="154.52499949932098" style="visibility: inherit;" fill="rgb(0, 0, 0)" stroke="rgb(204, 204, 204)" stroke-width="1px"></line><line x1="51.53200149536133" y1="132.44999957084656" x2="46.53200149536133" y2="132.44999957084656" style="visibility: inherit;" fill="rgb(0, 0, 0)" stroke="rgb(204, 204, 204)" stroke-width="1px"></line><line x1="51.53200149536133" y1="110.37499964237213" x2="46.53200149536133" y2="110.37499964237213" style="visibility: inherit;" fill="rgb(0, 0, 0)" stroke="rgb(204, 204, 204)" stroke-width="1px"></line><line x1="51.53200149536133" y1="88.2999997138977" x2="46.53200149536133" y2="88.2999997138977" style="visibility: inherit;" fill="rgb(0, 0, 0)" stroke="rgb(204, 204, 204)" stroke-width="1px"></line><line x1="51.53200149536133" y1="66.22499978542328" x2="46.53200149536133" y2="66.22499978542328" style="visibility: inherit;" fill="rgb(0, 0, 0)" stroke="rgb(204, 204, 204)" stroke-width="1px"></line><line x1="51.53200149536133" y1="44.14999985694885" x2="46.53200149536133" y2="44.14999985694885" style="visibility: inherit;" fill="rgb(0, 0, 0)" stroke="rgb(204, 204, 204)" stroke-width="1px"></line><line x1="51.53200149536133" y1="22.074999928474426" x2="46.53200149536133" y2="22.074999928474426" style="visibility: inherit;" fill="rgb(0, 0, 0)" stroke="rgb(204, 204, 204)" stroke-width="1px"></line><line x1="51.53200149536133" y1="0" x2="46.53200149536133" y2="0" style="visibility: inherit;" fill="rgb(0, 0, 0)" stroke="rgb(204, 204, 204)" stroke-width="1px"></line></g><g transform="translate(41.53200149536133, 0)"><text style="text-anchor: end; visibility: hidden; font-family: Roboto, sans-serif; font-size: 12px; font-weight: 200;" x="0" y="176.5999994277954" dx="0em" dy="0.3em" fill="rgb(255, 255, 255)" stroke="none" stroke-width="1px">-100</text><text style="text-anchor: end; visibility: inherit; font-family: Roboto, sans-serif; font-size: 12px; font-weight: 200;" x="0" y="154.52499949932098" dx="0em" dy="0.3em" fill="rgb(255, 255, 255)" stroke="none" stroke-width="1px">0</text><text style="text-anchor: end; visibility: hidden; font-family: Roboto, sans-serif; font-size: 12px; font-weight: 200;" x="0" y="132.44999957084656" dx="0em" dy="0.3em" fill="rgb(255, 255, 255)" stroke="none" stroke-width="1px">100</text><text style="text-anchor: end; visibility: inherit; font-family: Roboto, sans-serif; font-size: 12px; font-weight: 200;" x="0" y="110.37499964237213" dx="0em" dy="0.3em" fill="rgb(255, 255, 255)" stroke="none" stroke-width="1px">200</text><text style="text-anchor: end; visibility: hidden; font-family: Roboto, sans-serif; font-size: 12px; font-weight: 200;" x="0" y="88.2999997138977" dx="0em" dy="0.3em" fill="rgb(255, 255, 255)" stroke="none" stroke-width="1px">300</text><text style="text-anchor: end; visibility: inherit; font-family: Roboto, sans-serif; font-size: 12px; font-weight: 200;" x="0" y="66.22499978542328" dx="0em" dy="0.3em" fill="rgb(255, 255, 255)" stroke="none" stroke-width="1px">400</text><text style="text-anchor: end; visibility: hidden; font-family: Roboto, sans-serif; font-size: 12px; font-weight: 200;" x="0" y="44.14999985694885" dx="0em" dy="0.3em" fill="rgb(255, 255, 255)" stroke="none" stroke-width="1px">500</text><text style="text-anchor: end; visibility: inherit; font-family: Roboto, sans-serif; font-size: 12px; font-weight: 200;" x="0" y="22.074999928474426" dx="0em" dy="0.3em" fill="rgb(255, 255, 255)" stroke="none" stroke-width="1px">600</text><text style="text-anchor: end; visibility: hidden; font-family: Roboto, sans-serif; font-size: 12px; font-weight: 200;" x="0" y="0" dx="0em" dy="0.3em" fill="rgb(255, 255, 255)" stroke="none" stroke-width="1px">700</text></g><line x1="51.53200149536133" y1="0" x2="51.53200149536133" y2="176.5999994277954" fill="rgb(0, 0, 0)" stroke="rgb(204, 204, 204)" stroke-width="1px"></line></g></g><g transform="translate(51, 0)" clip-path="url(#clip_0)"><clipPath id="clip_0"><rect width="278" height="176"></rect></clipPath><g><g><g><line x1="0" y1="0" x2="0" y2="176.5999994277954" fill="rgb(0, 0, 0)" stroke="rgb(189, 189, 189)" stroke-width="1px" opacity="0.25"></line><line x1="23.205666542053223" y1="0" x2="23.205666542053223" y2="176.5999994277954" fill="rgb(0, 0, 0)" stroke="rgb(189, 189, 189)" stroke-width="1px" opacity="0.25"></line><line x1="46.411333084106445" y1="0" x2="46.411333084106445" y2="176.5999994277954" fill="rgb(0, 0, 0)" stroke="rgb(189, 189, 189)" stroke-width="1px" opacity="0.25"></line><line x1="69.61699962615967" y1="0" x2="69.61699962615967" y2="176.5999994277954" fill="rgb(0, 0, 0)" stroke="rgb(189, 189, 189)" stroke-width="1px" opacity="0.25"></line><line x1="92.82266616821289" y1="0" x2="92.82266616821289" y2="176.5999994277954" fill="rgb(0, 0, 0)" stroke="rgb(189, 189, 189)" stroke-width="1px" opacity="0.25"></line><line x1="116.02833271026611" y1="0" x2="116.02833271026611" y2="176.5999994277954" fill="rgb(0, 0, 0)" stroke="rgb(189, 189, 189)" stroke-width="1px" opacity="0.25"></line><line x1="139.23399925231934" y1="0" x2="139.23399925231934" y2="176.5999994277954" fill="rgb(0, 0, 0)" stroke="rgb(189, 189, 189)" stroke-width="1px" opacity="0.25"></line><line x1="162.43966579437256" y1="0" x2="162.43966579437256" y2="176.5999994277954" fill="rgb(0, 0, 0)" stroke="rgb(189, 189, 189)" stroke-width="1px" opacity="0.25"></line><line x1="185.64533233642578" y1="0" x2="185.64533233642578" y2="176.5999994277954" fill="rgb(0, 0, 0)" stroke="rgb(189, 189, 189)" stroke-width="1px" opacity="0.25"></line><line x1="208.850998878479" y1="0" x2="208.850998878479" y2="176.5999994277954" fill="rgb(0, 0, 0)" stroke="rgb(189, 189, 189)" stroke-width="1px" opacity="0.25"></line><line x1="232.05666542053223" y1="0" x2="232.05666542053223" y2="176.5999994277954" fill="rgb(0, 0, 0)" stroke="rgb(189, 189, 189)" stroke-width="1px" opacity="0.25"></line><line x1="255.26233196258545" y1="0" x2="255.26233196258545" y2="176.5999994277954" fill="rgb(0, 0, 0)" stroke="rgb(189, 189, 189)" stroke-width="1px" opacity="0.25"></line><line x1="278.4679985046387" y1="0" x2="278.4679985046387" y2="176.5999994277954" fill="rgb(0, 0, 0)" stroke="rgb(189, 189, 189)" stroke-width="1px" opacity="0.25"></line></g><g><line x1="0" y1="176.5999994277954" x2="278.4679985046387" y2="176.5999994277954" fill="rgb(0, 0, 0)" stroke="rgb(189, 189, 189)" stroke-width="1px" opacity="0.25"></line><line x1="0" y1="154.52499949932098" x2="278.4679985046387" y2="154.52499949932098" fill="rgb(0, 0, 0)" stroke="rgb(189, 189, 189)" stroke-width="1px" opacity="0.25"></line><line x1="0" y1="132.44999957084656" x2="278.4679985046387" y2="132.44999957084656" fill="rgb(0, 0, 0)" stroke="rgb(189, 189, 189)" stroke-width="1px" opacity="0.25"></line><line x1="0" y1="110.37499964237213" x2="278.4679985046387" y2="110.37499964237213" fill="rgb(0, 0, 0)" stroke="rgb(189, 189, 189)" stroke-width="1px" opacity="0.25"></line><line x1="0" y1="88.2999997138977" x2="278.4679985046387" y2="88.2999997138977" fill="rgb(0, 0, 0)" stroke="rgb(189, 189, 189)" stroke-width="1px" opacity="0.25"></line><line x1="0" y1="66.22499978542328" x2="278.4679985046387" y2="66.22499978542328" fill="rgb(0, 0, 0)" stroke="rgb(189, 189, 189)" stroke-width="1px" opacity="0.25"></line><line x1="0" y1="44.14999985694885" x2="278.4679985046387" y2="44.14999985694885" fill="rgb(0, 0, 0)" stroke="rgb(189, 189, 189)" stroke-width="1px" opacity="0.25"></line><line x1="0" y1="22.074999928474426" x2="278.4679985046387" y2="22.074999928474426" fill="rgb(0, 0, 0)" stroke="rgb(189, 189, 189)" stroke-width="1px" opacity="0.25"></line><line x1="0" y1="0" x2="278.4679985046387" y2="0" fill="rgb(0, 0, 0)" stroke="rgb(189, 189, 189)" stroke-width="1px" opacity="0.25"></line></g></g></g><g><g><line x1="0" y1="154.52499949932098" x2="278.4679985046387" y2="154.52499949932098" fill="rgb(0, 0, 0)" stroke="rgb(153, 153, 153)" stroke-width="1.5px"></line></g></g><g><g><line x1="23.205666542053223" y1="0" x2="23.205666542053223" y2="176.5999994277954" fill="rgb(0, 0, 0)" stroke="rgb(153, 153, 153)" stroke-width="1.5px"></line></g></g><g><g><g><g><g><path style="fill: none;" stroke="rgb(187, 187, 187)" stroke-width="2px" d="M23.437491150808334,147.75362522745687L23.669547816228867,147.8698347250619L23.9016044816494,146.90649007992542L24.13366114706993,145.6517869233909L24.365717812490463,143.68027886443903L24.597774477910995,141.54368011406993L24.82983114333153,138.72925912399415L25.06188780875206,137.21940201232272L25.29394447417259,135.315618384765L25.526001139593124,132.37173726402224L25.758057805013653,129.9116127705991L25.99011447043419,126.44003167770633L26.222171135854722,123.08593718669957L26.454227801275252,119.79100872444005L26.686284466695785,115.21292157459126L26.91834113211632,112.45520141486722L27.15039779753685,107.9271929089042L27.382454462957384,106.5818170581549L27.614511128377913,101.86120311782929L27.846567793798446,99.44229903496162L28.07862445921898,97.49227872744733L28.310681124639512,96.2793718595751L28.542737790060045,93.80588720483726L28.774794455480574,91.78959024418029L29.006851120901107,88.28812978082082L29.23890778632164,83.86005796136925L29.47096445174217,81.96427480091131L29.703021117162706,81.96934023468067L29.93507778258324,80.07289012187279L30.167134448003768,80.37393133425755L30.3991911134243,77.46389142536907L30.63124777884483,73.09844098438602L30.863304444265367,70.73116645879317L31.0953611096859,73.21314926498279L31.32741777510643,72.39259650901666L31.559474440526962,66.83567088194697L31.79153110594749,67.02586563953744L32.02358777136803,64.96632024618013L32.25564443678856,61.92443609046034L32.48770110220909,60.45383886067599L32.71975776762962,57.407865228269195L32.95181443305015,55.92430046092022L33.18387109847069,56.11529204774234L33.41592776389122,57.02690695933003L33.64798442931175,58.52407523055228L33.880041094732285,58.150247342979775L34.11209776015282,58.96585738788039L34.34415442557335,58.71715619947976L34.57621109099388,59.026522799740256L34.80826775641441,55.98157868012507L35.04032442183495,54.55684563778328L35.27238108725548,52.109075683072824L35.50443775267601,52.022123029115164L35.73649441809654,52.56337688159027L35.96855108351708,49.69582484014856L36.20060774893761,42.05058000005331L36.432664414358136,44.484038924410086L36.66472107977867,43.48022687924681L36.8967777451992,28.94987831842052L37.12883441061973,27.82302100244522L37.36089107604027,22.122030937272147L37.592947741460804,26.960492944968955L37.825004406881334,18.53907635971398L38.05706107230186,24.627221283261292L38.2891177377224,25.798382218388127L38.52117440314293,26.020257781223183L38.75323106856346,27.946103067157548L38.985287733983995,24.634850750872605L39.217344399404524,28.38650375635798L39.449401064825054,27.54208648084914L39.68145773024559,29.103349799426876L39.91351439566612,22.286927397619884L40.145571061086656,31.030912689515883L40.37762772650719,28.69171110019579L40.60968439192772,32.430546234579815L40.84174105734825,26.14151645207037L41.07379772276878,33.7182399303967L41.30585438818932,31.02549717606732L41.53791105360985,35.64292255447027L41.769967719030376,28.579565878771238L42.00202438445091,28.50734254882222L42.23408104987144,26.149468511449438L42.46613771529197,17.799012646562215L42.698194380712515,27.029178695769133L42.930251046133044,31.94830442014687L43.162307711553574,30.91152920733088L43.39436437697411,28.715978584680037L43.62642104239464,21.246575517821753L43.85847770781517,29.19412096182245L44.0905343732357,25.461904412412114L44.322591038656235,23.631428130840423L44.554647704076764,30.872832098711346L44.78670436949729,34.96905686823622L45.01876103491784,7.794103766400525L45.25081770033837,17.53684627754158L45.482874365758896,18.155847461852034L45.71493103117943,21.355074219375137L45.94698769659996,25.189003927485807L46.17904436202049,25.611111608292102L46.41110102744103,16.127225538458116L46.64315769286156,21.532241751645042L46.875214358282086,21.48541416692722L47.107271023702616,24.898049311236615L47.33932768912315,28.81036906528024L47.57138435454369,32.9637710977545L47.80344101996422,26.589468296222762L48.035497685384755,28.802394034058757L48.267554350805284,32.64179833683743L48.49961101622581,31.735077768662023L48.73166768164635,34.879014685162126L48.96372434706688,35.390145226077365L49.19578101248741,37.166625815588226L49.427837677907945,39.27299624231198L49.659894343328475,41.80589168677807L49.891951008749004,40.92337139708384L50.12400767416954,42.09683445612675L50.35606433959008,48.329075091919975L50.588121005010606,42.08647763139117L50.820177670431136,46.78826267327615L51.05223433585167,52.12970774878255L51.2842910012722,49.38281577130784L51.51634766669273,49.76721218157845L51.74840433211327,49.751119835134894L51.9804609975338,47.1689579505553L52.212517662954326,48.44834679600911L52.44457432837487,50.87959182777246L52.6766309937954,51.86864900587663L52.90868765921593,53.887028419005766L53.14074432463646,55.04515374511646L53.372800990056994,50.50893496547581L53.604857655477524,47.65667819181066L53.83691432089805,45.28636528110012L54.06897098631859,50.357679624170814L54.30102765173912,44.00651953567022L54.53308431715965,48.76840331957561L54.765140982580185,45.57442260083675L54.99719764800072,42.70310634962393L55.22925431342125,45.9272460782622L55.46131097884178,47.0216664994068L55.69336764426232,50.9355576452035L55.925424309682846,49.63449858676058L56.157480975103375,48.97104437467213L56.38953764052391,53.098934610817494L56.62159430594444,58.27506047927034L56.85365097136497,56.7356880509578L57.08570763678551,56.55699406607819L57.31776430220604,54.05411710084776L57.54982096762657,55.08043572606475L57.78187763304711,58.3564491586282L58.01393429846764,44.51878318340911L58.24599096388817,34.88662700074755L58.4780476293087,44.9358942898757L58.710104294729234,50.42231901964798L58.942160960149764,56.759775607760915L59.17421762557029,56.09739398367775L59.40627429099083,61.24643870873538L59.63833095641136,63.488433148123235L59.87038762183189,64.75393310045352L60.10244428725243,62.57416869735554L60.33450095267296,66.12226443617314L60.56655761809349,67.72159302709181L60.79861428351403,71.6063586013462L61.03067094893456,70.11043817924302L61.262727614355086,70.42385064648185L61.494784279775615,71.54798613044348L61.72684094519615,71.99540105289043L61.95889761061668,69.28576491607048L62.19095427603721,72.03776157691678L62.423010941457754,74.53384673422948L62.65506760687828,71.87576916440783L62.88712427229881,72.36630077530307L63.11918093771935,72.84883151416676L63.35123760313988,71.69408605257179L63.58329426856041,72.46369979133434L63.815350933980945,70.89109862634875L64.04740759940148,69.88438624670745L64.27946426482201,71.28149610575558L64.51152093024254,72.70137597504717L64.74357759566307,72.84253731236319L64.9756342610836,75.00190537552426L65.20769092650413,77.14777119615752L65.43974759192467,75.70445941038827L65.6718042573452,76.08992926389205L65.90386092276573,78.77675569593444L66.13591758818627,77.86058086822497L66.3679742536068,76.55148000481147L66.60003091902733,77.55535538348447L66.83208758444786,68.40371129423893L67.06414424986839,55.682417732233574L67.29620091528892,60.5081922868383L67.52825758070945,60.074778471229635L67.76031424613,64.78845416656762L67.99237091155052,61.17980335728341L68.22442757697105,65.65139207322065L68.45648424239158,69.24485146907472L68.68854090781213,70.4724270614686L68.92059757323266,71.93334823176916L69.15265423865318,75.40230581943113L69.38471090407371,79.54699631597046L69.61676756949424,78.66470593353016L69.84882423491479,81.96412124796223L70.0808809003353,83.45274621563934L70.31293756575585,80.15326595378106L70.54499423117637,80.63199375506476L70.7770508965969,78.71799841869532L71.00910756201743,76.93463192336604L71.24116422743798,74.81300603434697L71.4732208928585,80.00893192051731L71.70527755827904,77.77753156967704L71.93733422369958,82.11297651041497L72.1693908891201,82.31203022826739L72.40144755454064,79.13520635392256L72.63350421996117,81.73037230494208L72.8655608853817,81.93549387644647L73.09761755080223,83.56481386449818L73.32967421622277,84.90888305823815L73.56173088164329,87.17347080225984L73.79378754706383,87.8788108237547L74.02584421248437,83.24140768080267L74.25790087790489,78.8057277759093L74.48995754332543,77.75785126942924L74.72201420874595,81.9186974746526L74.95407087416649,82.3834012158416L75.18612753958702,84.34815893629734L75.41818420500755,59.34675414376955L75.65024087042808,66.27272438448772L75.88229753584862,73.72851692599043L76.11435420126914,79.04588619993726L76.34641086668968,84.07027847557649L76.57846753211022,85.32093060614575L76.81052419753074,88.27793877810834L77.04258086295128,90.32383574869063L77.27463752837181,90.77016596023905L77.50669419379234,90.26578236005214L77.73875085921287,90.37993045564238L77.97080752463341,92.09728138152744L78.20286419005393,92.93977966012055L78.43492085547447,92.99825172554115L78.66697752089502,90.33097254005287L78.89903418631553,90.56856656831694L79.13109085173608,91.79240902543268L79.3631475171566,84.32379792785954L79.59520418257713,86.44490180005833L79.82726084799766,85.66689904310435L80.0593175134182,84.5095378320113L80.29137417883872,82.1139232850132L80.52343084425927,84.67013463737823L80.75548750967978,83.45432145902255L80.98754417510033,83.86611051909105L81.21960084052087,86.8450941725014L81.45165750594138,89.94248629768855L81.68371417136193,90.07987064445993L81.91577083678246,89.70006990202822L82.14782750220299,89.64075062229301L82.37988416762352,92.5127840013012L82.61194083304406,95.05444360395511L82.84399749846457,91.2332055022828L83.07605416388512,94.44085720798321L83.30811082930565,96.67783889541786L83.54016749472618,97.0489337126997L83.77222416014672,97.58627198563738L84.00428082556725,92.72393555707852L84.23633749098778,93.4341304587749L84.46839415640831,95.49421158815812L84.70045082182885,94.94596827047899L84.93250748724937,94.31795896088252L85.16456415266991,86.97272595096526L85.39662081809044,88.90157721915826L85.62867748351097,91.36034227310412L85.8607341489315,92.15856364164206L86.09279081435203,94.16332979530873L86.32484747977257,90.22828150037931L86.5569041451931,90.33214877583524L86.78896081061363,92.72717374944517L87.02101747603416,93.17488354250831L87.2530741414547,94.14122543962453L87.48513080687522,96.85858920294035L87.71718747229576,98.5030709471199L87.94924413771629,99.28585714069865L88.18130080313682,100.30248511010481L88.41335746855735,88.10021918444845L88.6454141339779,91.41939807100353L88.87747079939842,90.73351599804984L89.10952746481895,95.3081761083039L89.3415841302395,88.89736845338003L89.57364079566001,91.41009861846368L89.80569746108056,92.78662084767656L90.03775412650108,95.11696368657361L90.26981079192161,96.2558012367141L90.50186745734214,87.95345291678649L90.73392412276269,89.89847706810481L90.9659807881832,93.98332074925193L91.19803745360375,95.82607888894222L91.43009411902429,99.18190900070738L91.6621507844448,101.3934763616109L91.89420744986535,97.93656294243799L92.12626411528586,99.31798814993135L92.3583207807064,100.11475131878679L92.59037744612694,103.27335212280181L92.82243411154747,105.41546433159156L93.054490776968,101.66950432383283L93.28654744238854,98.19483358785102L93.51860410780905,99.32368363267207L93.7506607732296,98.84833392522295L93.98271743865014,100.89590803018132L94.21477410407066,90.26228433846782L94.4468307694912,94.12848819153378L94.67888743491173,97.61210156950426L94.91094410033226,100.09973684148432L95.14300076575279,102.10332800122438L95.37505743117333,103.49205227629841L95.60711409659385,104.80924647230083L95.83917076201439,106.15923447737387L96.07122742743493,103.54219190238331L96.30328409285545,105.2861323378607L96.53534075827599,105.83074641842964L96.76739742369652,107.9713764003525L96.99945408911705,107.01058563365784L97.23151075453758,100.2644535775422L97.46356741995811,101.85150717210578L97.69562408537864,101.73412083624741L97.92768075079918,101.07826397275062L98.1597374162197,103.24674262041327L98.39179408164024,106.20918332875513L98.62385074706079,107.77974172687614L98.8559074124813,103.72952566883548L99.08796407790184,105.99015878297324L99.32002074332237,106.39067128012725L99.5520774087429,108.34604801220752L99.78413407416343,103.83847070737079L100.01619073958398,105.72522705325406L100.24824740500449,104.21756816268552L100.48030407042503,106.551201780949L100.71236073584556,105.93635604611923L100.9444174012661,105.08724481662117L101.17647406668664,106.61187456672647L101.40853073210717,109.97699579073698L101.6405873975277,111.11662164689334L101.87264406294823,106.13780248472395L102.10470072836877,108.72851277165866L102.33675739378928,111.00707683260075L102.56881405920983,111.71677290078756L102.80087072463036,111.48097631403196L103.03292739005089,111.1385409410303L103.26498405547142,112.23935018059409L103.49704072089195,112.34161062789825L103.72909738631249,107.0843093007399L103.96115405173302,109.00385293520019L104.19321071715355,110.41327068924672L104.42526738257408,107.46441915663794L104.65732404799462,107.40028504988506L104.88938071341514,109.37685969150593L105.12143737883568,109.71590079157902L105.35349404425621,111.56933544339695L105.58555070967674,111.51761669414564L105.81760737509727,111.04362949750744L106.04966404051781,112.95318365520536L106.28172070593834,113.03014351591028L106.51377737135887,101.96922390312835L106.74583403677941,101.70390340191891L106.97789070219993,105.62471310160396L107.20994736762047,106.66431940391327L107.442004033041,107.13688755468183L107.67406069846153,108.17324568186731L107.90611736388206,107.5872107023L108.1381740293026,110.1974996131189L108.37023069472312,108.54573814753829L108.60228736014366,109.28674485736836L108.8343440255642,110.61360325630129L109.06640069098472,109.72175226739066L109.29845735640527,108.19018685366872L109.53051402182578,110.10945049074354L109.76257068724632,110.2498080395976L109.99462735266685,110.57586210472162L110.22668401808738,112.95216375603337L110.45874068350791,113.35535152434935L110.69079734892846,114.62966245064L110.92285401434897,114.37110221830486L111.15491067976951,113.72730538578122L111.38696734519006,115.36408054554167L111.61902401061057,116.65539496967332L111.85108067603112,116.73659485114358L112.08313734145165,115.1741163460655L112.31519400687218,115.44082710474628L112.5472506722927,115.13948806641649L112.77930733771325,116.34127690721893L113.01136400313376,116.56260938454162L113.24342066855431,115.60516332402473L113.47547733397485,116.45883092333582L113.70753399939537,116.40682204633423L113.93959066481591,117.37866412510404L114.17164733023644,116.89660773467527L114.40370399565697,116.99443328040323L114.6357606610775,116.89894336507052L114.86781732649803,115.33737577996268L115.09987399191856,113.64861242451263L115.3319306573391,115.81715961525394L115.56398732275962,117.09265170435731L115.79604398818016,116.20921406161821L116.0281006536007,116.11650909237949L116.26015731902122,115.77907541264132L116.49221398444176,116.40149457695185L116.72427064986229,113.21599911207699L116.95632731528282,111.4608570299042L117.18838398070335,107.65754091374876L117.4204406461239,106.30820650899022L117.65249731154441,108.8847289559425L117.88455397696495,109.25849816027436L118.11661064238548,108.64511163155454L118.34866730780601,112.4221453432828L118.58072397322655,113.7389565409828L118.81278063864708,115.4997129377995L119.04483730406761,114.25228084919812L119.27689396948814,115.35738447417623L119.50895063490869,116.60545696038163L119.7410073003292,118.24317576957088L119.97306396574974,118.64539720429407L120.20512063117027,119.78035394309626L120.4371772965908,113.31241364743501L120.66923396201133,112.90522460880825L120.90129062743186,110.8132908175589L121.1333472928524,112.08744409773189L121.36540395827294,113.06407859792417L121.59746062369346,114.04908008016946L121.829517289114,109.23270914438451L122.06157395453454,110.40211883166201L122.29363061995505,112.3541475120283L122.5256872853756,110.9756590980498L122.75774395079613,113.19674573036482L122.98980061621666,116.32135279582705L123.22185728163718,113.58043023153446L123.45391394705773,115.25191525870534L123.68597061247826,115.85014925985661L123.91802727789879,113.64665630589361L124.15008394331933,114.88705425705872L124.38214060873985,116.24096189828283L124.61419727416039,116.36776516890176L124.84625393958092,113.99895008160878L125.07831060500145,115.73735084118815L125.31036727042198,116.40636419563586L125.54242393584252,115.26121790832022L125.77448060126304,116.1375055853371L126.00653726668358,117.63447663471104L126.23859393210412,118.76726407698966L126.47065059752464,115.88818193599123L126.70270726294518,116.13751122453483L126.9347639283657,116.28475200157777L127.16682059378624,117.87669288122251L127.39887725920677,117.49411398630049L127.6309339246273,116.02100366802854L127.86299059004783,116.46250566695105L128.09504725546836,115.38203545524361L128.3271039208889,114.76189024593228L128.55916058630945,115.38090447571842L128.79121725172996,114.52908006984455L129.0232739171505,115.24386968002571L129.25533058257102,112.6114270117926L129.48738724799156,114.69011625048822L129.71944391341208,115.32725045192791L129.95150057883262,116.31748787744064L130.18355724425317,116.11353805667416L130.41561390967368,117.06902989931724L130.64767057509422,116.80986636533459L130.87972724051477,119.18205735062183L131.11178390593528,119.80166777772804L131.34384057135583,120.44849589934934L131.57589723677637,121.29164279195342L131.80795390219689,118.8441518376062L132.04001056761743,120.08756289905214L132.27206723303794,120.06279430888526L132.5041238984585,120.36604188687684L132.736180563879,119.77086985387056L132.96823722929955,118.67821401962429L133.20029389472006,118.88049620603934L133.4323505601406,119.95943620772357L133.66440722556115,115.67567007007737L133.89646389098166,109.77831659408156L134.1285205564022,113.62784348210445L134.36057722182272,114.46908404999209L134.59263388724327,116.93023402376161L134.8246905526638,117.88034337566148L135.05674721808433,117.66477217961749L135.28880388350487,118.42617031237738L135.5208605489254,120.71155321058438L135.75291721434593,121.43443005961771L135.98497387976647,118.83457962500864L136.21703054518701,114.60658782493095L136.44908721060753,116.67504999922642L136.68114387602807,115.35012253228344L136.9132005414486,117.51470762271359L137.14525720686913,117.3299857217138L137.37731387228965,118.6516400565044L137.6093705377102,118.1806854370951L137.8414272031307,119.5520147664517L138.07348386855125,119.92388874788116L138.30554053397177,121.95993430190336L138.5375971993923,123.00127346881118L138.76965386481285,120.281469293143L139.00171053023337,120.90145958994245L139.2337671956539,120.11618226442529L139.46582386107445,121.47528201126568L139.697880526495,122.66895403861787L139.9299371919155,121.27682933862133L140.16199385733603,121.55757124204418L140.39405052275657,121.7803694194819L140.62610718817712,121.15673870896428L140.85816385359766,118.89596916670563L141.09022051901817,119.02600107224104L141.3222771844387,119.40135480776533L141.55433384985923,120.32316949735697L141.78639051527978,120.57695994078294L142.0184471807003,119.41806490812132L142.25050384612084,121.32420755315559L142.48256051154138,122.77423724407163L142.7146171769619,122.15946381055366L142.9466738423824,122.86359833592627L143.17873050780295,121.99545929567076L143.4107871732235,123.5295226480729L143.64284383864404,123.60447153776875L143.87490050406458,123.56838001278219L144.10695716948507,124.18517426735494L144.33901383490561,123.54684555114507L144.57107050032616,122.15023727159947L144.8031271657467,123.21417358973285L145.03518383116722,121.96068448463122L145.26724049658776,122.45169392126526L145.49929716200828,123.29290563286166L145.73135382742882,121.96816733916273L145.96341049284936,123.12918818878343L146.19546715826988,122.5829097595052L146.42752382369042,121.7440415805255L146.65958048911097,122.18529178624006L146.89163715453148,122.02918524393465L147.123693819952,123.02945874133847L147.35575048537254,123.70849745771447L147.58780715079308,122.82653145819923L147.81986381621363,122.98059289347258L148.0519204816341,124.51514513007501L148.28397714705466,123.53425755029217L148.5160338124752,123.14910175152869L148.74809047789574,123.87102902644727L148.9801471433163,121.76266893018855L149.2122038087368,118.9109048254624L149.44426047415732,119.8840887658164L149.67631713957786,122.12947984912259L149.9083738049984,122.79262499292243L150.14043047041892,120.9943067618703L150.37248713583946,120.89048770279389L150.60454380126,122.82620460513492L150.83660046668052,122.32081653583872L151.06865713210107,121.78054555761838L151.30071379752158,122.13030977836779L151.53277046294212,122.76585282648318L151.76482712836267,123.75241938126987L151.9968837937832,123.69520975743481L152.2289404592037,121.71231635205778L152.46099712462424,118.03493567231224L152.6930537900448,119.44613380606164L152.92511045546533,120.93229327091868L153.15716712088587,122.07022023643268L153.38922378630636,122.73974368904922L153.6212804517269,122.98279931351007L153.85333711714745,123.86073614790027L154.085393782568,124.82715093056638L154.3174504479885,124.73582365763252L154.54950711340905,125.87666351191172L154.78156377882956,124.79182377193966L155.0136204442501,125.4100882941165L155.24567710967062,124.53236019538775L155.47773377509117,124.09066446711718L155.7097904405117,124.79163434898005L155.94184710593225,124.43564833422302L156.17390377135277,124.22751908256328L156.40596043677328,125.06595364489831L156.63801710219383,124.40243637217912L156.87007376761437,123.52388336903428L157.10213043303492,124.50548142164718L157.33418709845543,123.68290755914794L157.56624376387595,124.67657726132788L157.7983004292965,124.99771432465582L158.03035709471703,125.2137786907978L158.26241376013758,126.24864687212626L158.4944704255581,127.42107559080105L158.7265270909786,124.30742274222915L158.95858375639915,115.18675645180222L159.1906404218197,113.8449977654009L159.4226970872402,116.66023193832375L159.65475375266075,118.56969021664582L159.8868104180813,113.25250119665581L160.1188670835018,116.38175519699166L160.35092374892233,119.2654563208328L160.58298041434287,121.641469972749L160.8150370797634,121.9579267291884L161.04709374518396,122.30669612420348L161.2791504106045,121.42771392134188L161.511207076025,123.43619109086403L161.74326374144553,121.01551311319757L161.97532040686608,123.01274676659732L162.20737707228662,123.02313585815673L162.43943373770713,124.20141370666926L162.67149040312768,124.46908484592727L162.9035470685482,124.83760663232175L163.13560373396874,126.32101338635206L163.36766039938928,125.7470217588432L163.5997170648098,125.62136117212509L163.83177373023034,126.59758683630096L164.06383039565088,126.76009482707359L164.2958870610714,126.51722349529864L164.5279437264919,121.5931643503245L164.76000039191246,123.3291096333733L164.992057057333,124.69965539958996L165.22411372275354,125.11981642690967L165.45617038817403,126.48532685553754L165.68822705359457,127.26193126536577L165.92028371901512,127.71317066726873L166.15234038443566,127.24019869700163L166.3843970498562,123.82890826287813L166.61645371527672,122.62382900588693L166.84851038069723,122.2462493317616L167.08056704611778,124.13828112635257L167.31262371153832,124.99882259349931L167.54468037695884,124.85466320514085L167.77673704237938,125.4129374619096L168.00879370779992,124.30047597676156L168.24085037322044,125.9765786690617L168.47290703864098,127.65540510243122L168.7049637040615,126.8027026946111L168.93702036948204,127.04857698551713L169.16907703490259,126.76593707538895L169.40113370032313,126.05433885201495L169.63319036574362,126.56602555263494L169.86524703116416,126.94524544850688L170.0973036965847,126.67454572657685L170.32936036200525,125.27824400491829L170.5614170274258,127.1492823786519L170.79347369284628,127.8756707888754L171.02553035826682,127.49838712242386L171.25758702368736,128.19446060144986L171.4896436891079,128.80747596674883L171.72170035452842,128.85167455270064L171.95375701994897,129.4801019944459L172.18581368536948,129.90905761385264L172.41787035079003,127.77489855974189L172.64992701621054,128.78577294300672L172.88198368163108,126.63986662537533L173.11404034705163,127.92414747165707L173.34609701247217,127.43573718540851L173.5781536778927,127.16464632098177L173.8102103433132,127.77554368519944L174.04226700873375,127.67141868489401L174.2743236741543,127.28778099450646L174.50638033957483,128.7179755454303L174.73843700499535,126.41442080686795L174.97049367041586,127.86815569948959L175.2025503358364,128.59281628994916L175.43460700125695,129.00096431929975L175.6666636666775,128.5048231896291L175.898720332098,128.70665221739375L176.13077699751852,129.7459257772611L176.36283366293907,130.71920957716424L176.5948903283596,131.99452748385505L176.82694699378013,131.19790449118108L177.05900365920067,130.8557153913585L177.2910603246212,130.57413162289365L177.52311699004173,128.4277821478393L177.75517365546224,126.4748440472893L177.9872303208828,126.98509138117876L178.21928698630333,126.64620733237601L178.45134365172387,127.84314282997121L178.68340031714442,128.2474351949889L178.9154569825649,129.04783877616197L179.14751364798545,129.07406428629392L179.379570313406,129.70993024958184L179.61162697882654,126.9668612753772L179.84368364424705,127.23978114218758L180.0757403096676,129.32432424470755L180.3077969750881,129.11493767796523L180.53985364050865,128.43119355685926L180.7719103059292,128.8857638039095L181.0039669713497,128.0602620944835L181.23602363677026,127.9454644795999L181.4680803021908,128.92912748474845L181.70013696761131,130.18533959282163L181.93219363303183,131.13736040326154L182.16425029845237,131.4760273825737L182.39630696387292,132.25861989266457L182.62836362929346,128.25893587129164L182.86042029471395,129.56465248542028L183.0924769601345,130.3206403562868L183.32453362555503,130.53930947808362L183.55659029097558,129.1203415965577L183.78864695639612,130.28849392381224L184.02070362181664,129.20716132475556L184.25276028723715,130.34068272873483L184.4848169526577,128.35853899282486L184.71687361807824,129.65812882606224L184.94893028349875,128.08379376638365L185.1809869489193,127.96107739533176L185.41304361433984,128.1308648055871L185.64510027976036,129.00902925821106L185.8771569451809,129.6938748164918L186.10921361060142,129.82214369840543L186.34127027602196,123.64764587223327L186.5733269414425,125.8458618799315L186.80538360686305,127.41445852207856L187.03744027228353,127.9528950410747L187.26949693770408,128.8673412693223L187.50155360312462,128.27206565467225L187.73361026854516,126.84858864594084L187.9656669339657,127.45729981893818L188.1977235993862,127.15252080610502L188.42978026480674,126.53298201325458L188.66183693022728,127.97603018106669L188.89389359564782,127.77566982558685L189.12595026106834,129.30838912810938L189.35800692648888,129.2603568109656L189.5900635919094,129.33536174911936L189.82212025732994,129.8650866400455L190.05417692275046,128.44434529602174L190.286233588171,129.3807373985648L190.51829025359154,129.62394702721525L190.7503469190121,129.22715426147062L190.9824035844326,129.38492437129455L191.21446024985312,127.21591949071463L191.44651691527366,127.85203123789962L191.6785735806942,128.232549404603L191.91063024611475,129.43332056309788L192.14268691153526,128.1285640528674L192.37474357695578,130.3488963459324L192.60680024237632,131.1114957396533L192.83885690779687,131.30063920176417L193.0709135732174,129.803576378222L193.30297023863793,130.59473789692564L193.53502690405844,130.98387808298483L193.76708356947898,127.18521132859931L193.99914023489953,127.61560587863258L194.23119690032004,128.16360630613096L194.4632535657406,127.79482175885354L194.69531023116113,129.40696989724657L194.92736689658165,128.7750926069209L195.15942356200216,129.48532417106614L195.3914802274227,129.4018573512058L195.62353689284325,129.83906797342698L195.8555935582638,128.08947352787183L196.08765022368434,129.3569494764577L196.31970688910482,130.3209199319911L196.55176355452537,130.91385017082047L196.7838202199459,130.80113160629404L197.01587688536645,131.0528315941108L197.24793355078697,131.26617829315722L197.4799902162075,131.5628430825586L197.71204688162803,132.58256517529287L197.94410354704857,133.20561674193516L198.1761602124691,133.4406498505794L198.40821687788963,134.29981211565473L198.64027354331017,133.59688648406893L198.87233020873072,131.9001447560507L199.10438687415123,128.05967766647163L199.33644353957175,128.83897818238646L199.5685002049923,129.9140745892146L199.80055687041283,130.76641623534732L200.03261353583338,129.94632186302826L200.26467020125386,130.50793207327897L200.4967268666744,130.09997317585194L200.72878353209495,129.59807518155648L200.9608401975155,129.00324255983298L201.19289686293604,130.57580246175274L201.42495352835655,132.2888720603573L201.65701019377707,131.4214069171006L201.8890668591976,130.73386671966495L202.12112352461816,129.02182645238335L202.35318019003867,129.7409680129944L202.58523685545921,130.82150321838813L202.81729352087976,131.04777606403107L203.04935018630027,129.00891421239263L203.28140685172082,129.8974116522394L203.51346351714133,131.16727912020397L203.74552018256188,129.4907449466374L203.97757684798242,130.28295236497064L204.20963351340296,129.75497662897826L204.44169017882345,129.32863887009216L204.673746844244,130.03701300086104L204.90580350966454,131.0889479934486L205.13786017508508,130.77513941357967L205.36991684050562,131.17654696842314L205.6019735059261,131.39103522768553L205.83403017134665,131.11930287052846L206.0660868367672,131.31804973110465L206.29814350218774,131.78816540245643L206.53020016760826,132.27446081508108L206.7622568330288,131.6917727327409L206.99431349844932,132.75936655740097L207.22637016386986,130.3975763363348L207.45842682929037,131.11843441782418L207.69048349471092,131.8780167171551L207.92254016013146,132.06022277253697L208.154596825552,132.69570964703976L208.38665349097252,133.3693204294471L208.61871015639304,133.3876963480141L208.85076682181358,132.9993743993133L209.08282348723412,132.61266931443024L209.31488015265467,129.9501835500466L209.54693681807518,129.88440582929712L209.7789934834957,130.5892765503286L210.01105014891624,130.8551936382206L210.24310681433678,130.81412914537032L210.47516347975733,131.79527173496896L210.70722014517784,132.00274111667008L210.93927681059836,132.4615620297125L211.1713334760189,131.78824950539968L211.40339014143944,131.24504644984663L211.63544680685996,132.01857286867732L211.8675034722805,132.8562799428215L212.09956013770105,133.44388363379167L212.33161680312156,133.58237405681948L212.56367346854208,133.77615412652492L212.79573013396262,134.29834313814615L213.02778679938316,134.78960279027442L213.2598434648037,135.0624372385169L213.49190013022425,132.40224182387823L213.72395679564474,131.5950210706205L213.95601346106528,132.28198216816384L214.18807012648583,133.00585953829426L214.42012679190637,132.22991395839665L214.65218345732688,131.93111612723973L214.88424012274743,131.9672861076535L215.11629678816794,132.1807435051898L215.3483534535885,132.63201006356059L215.58041011900903,132.06687439510617L215.81246678442955,132.32968785357068L216.0445234498501,132.05613718758366L216.27658011527063,132.87709665371378L216.50863678069115,132.3290814260324L216.74069344611166,129.58352017642682L216.9727501115322,128.95914255264532L217.20480677695275,128.97830897420218L217.4368634423733,122.2436955215324L217.66892010779378,125.06816039265455L217.90097677321432,125.60774871320079L218.13303343863487,128.38042837999697L218.3650901040554,128.71397154123213L218.59714676947596,127.44453617010763L218.82920343489647,128.06227075556552L219.06126010031699,129.16849702630364L219.29331676573753,130.19987312603794L219.52537343115807,126.0860875456927L219.7574300965786,127.51247639363093L219.98948676199913,128.44286311200753L220.22154342741968,130.30774315072634L220.4536000928402,131.46091301760728L220.68565675826073,131.64174056810208L220.91771342368125,132.1468594402157L221.1497700891018,132.06667479551822L221.38182675452234,132.2379369323605L221.61388341994288,131.27955796931238L221.84594008536337,131.82787954818357L222.0779967507839,129.75769501490507L222.31005341620445,130.89602794830438L222.542110081625,130.3901399058453L222.77416674704554,129.27718394003895L223.00622341246603,129.65611381087948L223.23828007788657,130.6523697921744L223.47033674330712,132.20467903986622L223.70239340872766,132.5652180401489L223.93445007414817,132.4177390645566L224.16650673956872,132.83400247773443L224.39856340498923,131.03294351189848L224.63062007040978,131.51841393209406L224.8626767358303,131.71620207001556L225.09473340125083,130.64002759282096L225.32679006667138,130.96820583443713L225.55884673209192,131.7084456864667L225.79090339751244,132.31039205299834L226.02296006293295,131.670644175873L226.2550167283535,131.55108469660186L226.48707339377404,132.4432313818349L226.71913005919458,133.93895230147743L226.9511867246151,133.80507071821435L227.1832433900356,134.11620006557467L227.41530005545616,135.30898865125974L227.6473567208767,133.9579361967413L227.87941338629724,134.22289854395152L228.11147005171776,134.31510844820025L228.34352671713827,134.47729898026049L228.57558338255882,134.6210015420482L228.80764004797936,135.5412884626025L229.03969671339988,135.46302676175583L229.27175337882042,135.1225205166792L229.50381004424096,135.28387970301984L229.73586670966148,135.24092514133386L229.967923375082,134.80948534237749L230.19998004050254,134.38546091893426L230.43203670592308,134.95443448446053L230.66409337134363,134.5075964899049L230.89615003676417,134.06800841493052L231.12820670218466,135.13991743260772L231.3602633676052,135.6684615991857L231.59232003302574,135.65218612416317L231.8243766984463,132.90118264602194L232.0564333638668,132.33299816495125L232.28849002928735,131.8703910628326L232.52054669470786,130.28057439410767L232.7526033601284,131.22304167992857L232.98466002554895,132.17336060110398L233.21671669096946,132.79501979656837L233.44877335639,132.704948233258L233.68083002181055,132.88402880108617L233.91288668723107,134.20041633733257L234.14494335265158,134.96887790571935L234.37700001807212,135.203588728509L234.60905668349267,134.93006311676626L234.8411133489132,135.43096691665076L235.0731700143337,133.72424627518484L235.30522667975424,134.20573372544942L235.53728334517479,135.32778931208827L235.76934001059533,134.78021112983205L236.00139667601587,135.79761615629175L236.2334533414364,134.40294714605668L236.4655100068569,135.46466465450726L236.69756667227745,134.0363696352156L236.929623337698,133.0071458855739L237.1616800031185,133.3921919132256L237.39373666853905,134.02237128152913L237.6257933339596,134.96478517422702L237.8578499993801,135.18896075268725L238.08990666480065,135.0564840941971L238.32196333022117,134.96398907793863L238.5540199956417,135.54680953275914L238.78607666106225,135.41129107785616L239.0181333264828,134.83756255888017L239.25018999190328,134.78068622852624L239.48224665732383,135.85785028549876L239.71430332274437,135.93128010388241L239.94635998816491,135.2392924054645L240.17841665358546,135.92489605680203L240.41047331900594,136.29405160304105L240.6425299844265,136.80438463957063L240.87458664984703,137.30342446823465L241.10664331526758,137.315426286339L241.3386999806881,137.2084465053146L241.57075664610863,137.1037703789975L241.80281331152915,136.68897824648778L242.0348699769497,136.27405306316436L242.2669266423702,134.2209281766754L242.49898330779075,134.50373837858606L242.7310399732113,134.51333855116204L242.96309663863184,134.29940638525335L243.19515330405235,135.38334613162934L243.42720996947287,133.19260417147194L243.6592666348934,133.33586256749436L243.89132330031396,134.4205263498032L244.1233799657345,134.97965166566695L244.35543663115502,135.53246028593603L244.58749329657553,135.38870580236662L244.81954996199607,135.77346470588094L245.05160662741662,134.79796810245801L245.28366329283716,130.4364383270505L245.51571995825768,131.9441994186648L245.7477766236782,133.27669079200479L245.97983328909874,134.03301276283494L246.21188995451928,133.74691718419865L246.4439466199398,133.28260594269454L246.67600328536034,131.89664673015264L246.90805995078088,132.4297162375814L247.1401166162014,131.56335548189904L247.3721732816219,132.82996138775766L247.60422994704246,133.9837371032003L247.836286612463,135.20982408845182L248.06834327788354,136.0338064338905L248.3003999433041,135.52545063006448L248.53245660872457,134.89477897677358L248.76451327414512,134.97013313366148L248.99656993956566,133.03875907617493L249.2286266049862,134.77310677638516L249.46068327040672,133.63427961770486L249.69273993582726,134.1383440878051L249.92479660124778,134.3755332971748L250.15685326666832,134.32692781844275L250.38890993208886,135.45603614140472L250.62096659750938,136.4936597645185L250.85302326292992,137.36972977625624L251.08507992835047,137.1543259220915L251.31713659377098,137.00402596567199L251.5491932591915,137.911796509176L251.78124992461204,138.54424775148823L252.01330659003258,137.67725446836107L252.24536325545313,137.76217680558443L252.47741992087361,138.45665751200187L252.70947658629416,136.66356731286467L252.9415332517147,137.77731985328333L253.17358991713525,138.31716649201113L253.4056465825558,139.2469722117194L253.6377032479763,139.5684963313959L253.86975991339682,139.4376231092066L254.10181657881736,139.3087897685787L254.3338732442379,140.94525698907972L254.56592990965842,140.48913248848166L254.79798657507897,141.68674716593L255.0300432404995,142.7471981791787L255.26209990592002,143.95699484046662" fill="none"></path></g><g><path style="fill: none;" stroke="rgb(255, 112, 67)" stroke-width="2px" d="M23.437491150808334,145.23817004256446L23.669547816228867,142.4325004430092L23.9016044816494,137.7207991032778L24.13366114706993,128.72037441771013L24.365717812490463,100.61232759185953L24.597774477910995,70.89953712695075L24.82983114333153,35.847754919426166L25.06188780875206,6.133075512969892L25.29394447417259,-13.574829070634033" fill="none"></path></g></g></g></g><g opacity="0.2"><g><g><g><path style="fill: none;" stroke="rgb(187, 187, 187)" stroke-width="2px" d="M23.437491150808334,147.75362522745687L23.669547816228867,147.96280232314598L23.9016044816494,145.51927379092885L24.13366114706993,143.20260636183542L24.365717812490463,139.0243654324184L24.597774477910995,135.79776782667724L24.82983114333153,130.42270946778083L25.06188780875206,132.44653351021935L25.29394447417259,128.9780914400061L25.526001139593124,122.17669692316402L25.758057805013653,121.12773022124051L25.99011447043419,113.7465334868862L26.222171135854722,110.59152569605288L26.454227801275252,107.33585730679084L26.686284466695785,97.70595858387296L26.91834113211632,101.81243538483751L27.15039779753685,90.3249673205568L27.382454462957384,101.32149433875976L27.614511128377913,83.31890343944866L27.846567793798446,89.90612303022688L28.07862445921898,89.78212631126829L28.310681124639512,91.47249275324003L28.542737790060045,83.98495296731987L28.774794455480574,83.77201086748492L29.006851120901107,74.348428645516L29.23890778632164,66.21468581298356L29.47096445174217,74.40406077119025L29.703021117162706,81.98955297988871L29.93507778258324,72.50176274268594L30.167134448003768,81.57623282894521L30.3991911134243,65.83814160949169L30.63124777884483,55.653932551303186L30.863304444265367,61.26957054885494L31.0953611096859,83.13478791575322L31.32741777510643,69.11204976386186L31.559474440526962,44.616985001004615L31.79153110594749,67.78639778298869L32.02358777136803,56.73027742696609L32.25564443678856,49.75942656606858L32.48770110220909,54.57242732104274L32.71975776762962,45.22559021601265L32.95181443305015,49.990672430187466L33.18387109847069,56.87919340396163L33.41592776389122,60.673118440496985L33.64798442931175,64.512422261065L33.880041094732285,56.655000922693404L34.11209776015282,62.22818388803407L34.34415442557335,57.722379176986436L34.57621109099388,60.263961604359324L34.80826775641441,43.802019496137866L35.04032442183495,48.857994806294L35.27238108725548,42.31810765859973L35.50443775267601,51.674315590320646L35.73649441809654,54.728376470622905L35.96855108351708,38.22568372929375L36.20060774893761,11.469743660956807L36.432664414358136,54.217838203234145L36.66472107977867,39.4649907168554L36.8967777451992,-29.17137675179482L37.12883441061973,23.31560037306314L37.36089107604027,-0.6818943764526999L37.592947741460804,46.31431724800751L37.825004406881334,-15.146556942500553L38.05706107230186,48.97978186949803L38.2891177377224,30.483023018296887L38.52117440314293,26.907759586887988L38.75323106856346,35.64948111618098L38.985287733983995,11.38984574251451L39.217344399404524,43.39311191994814L39.449401064825054,24.16441807355993L39.68145773024559,35.34840204611158L39.91351439566612,-4.978758620342853L40.145571061086656,66.00685017370334L40.37762772650719,19.33490553122472L40.60968439192772,47.38588576412777L40.84174105734825,0.9853986784478191L41.07379772276878,64.02513253638655L41.30585438818932,20.254526530442316L41.53791105360985,54.11262355818929L41.769967719030376,0.3261397999686565L42.00202438445091,28.21844923413045L42.23408104987144,16.717972495270295L42.46613771529197,-15.6028104352849L42.698194380712515,63.94984255860315L42.930251046133044,51.6248071752589L43.162307711553574,26.764428380077L43.39436437697411,19.933776134753053L43.62642104239464,-8.631036638904543L43.85847770781517,60.98430264359027L44.0905343732357,10.533038250173481L44.322591038656235,16.309523018444313L44.554647704076764,59.838447926233634L44.78670436949729,51.35395592644167L45.01876103491784,-100.90570853535844L45.25081770033837,56.507816291822635L45.482874365758896,20.631852197554682L45.71493103117943,34.151981243103364L45.94698769659996,40.524722753827014L46.17904436202049,27.299542330979893L46.41110102744103,-21.808318731218396L46.64315769286156,43.15230659998862L46.875214358282086,21.298103828086386L47.107271023702616,38.54858988669474L47.33932768912315,44.45964807982252L47.57138435454369,49.577379226265364L47.80344101996422,1.0922570917978713L48.035497685384755,37.65409698492992L48.267554350805284,47.99941554729611L48.49961101622581,28.10819549608438L48.73166768164635,47.454762350818676L48.96372434706688,37.43466738969363L49.19578101248741,44.27254817350735L49.427837677907945,47.69847794908906L49.659894343328475,51.93747346452903L49.891951008749004,37.39329023833845L50.12400767416954,46.79068669226479L50.35606433959008,73.25803763494986L50.588121005010606,17.116087789390505L50.820177670431136,65.59540284074693L51.05223433585167,73.49548805074544L51.2842910012722,38.39524786143476L51.51634766669273,51.30479782265808L51.74840433211327,49.6867504493607L51.9804609975338,36.840310412249316L52.212517662954326,53.56590217781963L52.44457432837487,60.604571954818205L52.6766309937954,55.82487771829081L52.90868765921593,61.960546071518436L53.14074432463646,59.677655049557366L53.372800990056994,32.36405984691889L53.604857655477524,36.24765109715298L53.83691432089805,35.80511363825971L54.06897098631859,70.64293699645044L54.30102765173912,18.601879181671094L54.53308431715965,67.8159384551952L54.765140982580185,32.79849972588235L54.99719764800072,31.217841344773397L55.22925431342125,58.82380499281465L55.46131097884178,51.39934818398503L55.69336764426232,66.59112222838984L55.925424309682846,44.430262352989004L56.157480975103375,46.317227526318376L56.38953764052391,69.6104955553987L56.62159430594444,78.97956395308137L56.85365097136497,50.57819833770766L57.08570763678551,55.84221812655981L57.31776430220604,44.0426092399262L57.54982096762657,59.18571022693258L57.78187763304711,71.46050288888199L58.01393429846764,-10.83188071746694L58.24599096388817,-3.641997729898704L58.4780476293087,85.13296344638827L58.710104294729234,72.36801793873695L58.942160960149764,82.10960196021264L59.17421762557029,53.44786748734515L59.40627429099083,81.8426176089659L59.63833095641136,72.45641090567467L59.87038762183189,69.81593290977456L60.10244428725243,53.8551110849636L60.33450095267296,80.31464739144354L60.56655761809349,74.11890739076652L60.79861428351403,87.14542089836377L61.03067094893456,64.12675649083023L61.262727614355086,71.6775005154372L61.494784279775615,76.04452806628996L61.72684094519615,73.78506074267828L61.95889761061668,58.44722036879069L62.19095427603721,83.04574822030197L62.423010941457754,84.51818736348031L62.65506760687828,61.24345888512118L62.88712427229881,74.32842721888402L63.11918093771935,74.77895446962154L63.35123760313988,67.0751042061918L63.58329426856041,75.5421547463845L63.815350933980945,64.60069396640644L64.04740759940148,65.85753672814222L64.27946426482201,76.86993554194807L64.51152093024254,78.38089545221352L64.74357759566307,73.40718266162727L64.9756342610836,83.63937762816857L65.20769092650413,85.73123447869054L65.43974759192467,69.93121226731121L65.6718042573452,77.63180867790726L65.90386092276573,89.52406142410396L66.13591758818627,74.19588155738721L66.3679742536068,71.31507655115739L66.60003091902733,81.57085689817649L66.83208758444786,31.797134937256786L67.06414424986839,4.797243484212231L67.29620091528892,79.81129050525709L67.52825758070945,58.34112320879511L67.76031424613,83.64315694791952L67.99237091155052,46.745200120146535L68.22442757697105,83.53774693696957L68.45648424239158,83.61868905249099L68.68854090781213,75.38272943104413L68.92059757323266,77.77703291297136L69.15265423865318,89.27813617007902L69.38471090407371,96.12575830212776L69.61676756949424,75.13554440376888L69.84882423491479,95.16178250569061L70.0808809003353,89.4072460863477L70.31293756575585,66.95534490634789L70.54499423117637,82.54690496019954L70.7770508965969,71.06201707321758L71.00910756201743,69.80116594204898L71.24116422743798,66.32650247827068L71.4732208928585,100.79263546519867L71.70527755827904,68.85193016631601L71.93733422369958,99.45475627336656L72.1693908891201,83.10824509967712L72.40144755454064,66.42791085654318L72.63350421996117,92.11103610902022L72.8655608853817,82.755980162464L73.09761755080223,90.08209381670507L73.32967421622277,90.28515983319798L73.56173088164329,96.23182177834661L73.79378754706383,90.70017090973414L74.02584421248437,64.69179510899455L74.25790087790489,61.06300815633575L74.48995754332543,73.56634524350903L74.72201420874595,98.56208229554605L74.95407087416649,84.24221618059764L75.18612753958702,92.20718981812027L75.41818420500755,-40.65886502634161L75.65024087042808,93.97660534736032L75.88229753584862,103.55168709200122L76.11435420126914,100.31536329572458L76.34641086668968,104.16784757813345L76.57846753211022,90.32353912842274L76.81052419753074,100.1059714659587L77.04258086295128,98.50742363101978L77.27463752837181,92.55548680643268L77.50669419379234,88.24824795930463L77.73875085921287,90.8365228380033L77.97080752463341,98.96668508506761L78.20286419005393,96.30977277449296L78.43492085547447,93.23213998722363L78.66697752089502,79.66185579809968L78.89903418631553,91.51894268137322L79.13109085173608,96.68777885389562L79.3631475171566,54.44935353756699L79.59520418257713,94.9293172888535L79.82726084799766,82.55488801528841L80.0593175134182,79.88009298763915L80.29137417883872,72.53146509702084L80.52343084425927,94.89498004683827L80.75548750967978,78.59106874559991L80.98754417510033,85.51326675936504L81.21960084052087,98.76102878614287L81.45165750594138,102.3320547984371L81.68371417136193,90.62940803154547L81.91577083678246,88.18086693230129L82.14782750220299,89.4034735033521L82.37988416762352,104.00091751733399L82.61194083304406,105.22108201457068L82.84399749846457,75.94825309559361L83.07605416388512,107.27146403078488L83.30811082930565,105.62576564515645L83.54016749472618,98.53331298182701L83.77222416014672,99.73562507738816L84.00428082556725,73.27458984284301L84.23633749098778,96.2749100655605L84.46839415640831,103.73453610569098L84.70045082182885,92.75299499976245L84.93250748724937,91.80592172249659L85.16456415266991,57.59179391129627L85.39662081809044,96.61698229193017L85.62867748351097,101.19540248888755L85.8607341489315,95.35144911579384L86.09279081435203,102.18239440997549L86.32484747977257,74.48808832066162L86.5569041451931,90.74761787765902L86.78896081061363,102.30727364388483L87.02101747603416,94.96572271476091L87.2530741414547,98.0065930280893L87.48513080687522,107.7280442562037L87.71718747229576,105.08099792383805L87.94924413771629,102.41700191501367L88.18130080313682,104.3689969877295L88.41335746855735,39.29115548182293L88.6454141339779,104.69611361722379L88.87747079939842,87.9899877062352L89.10952746481895,113.60681654932009L89.3415841302395,63.254137833684474L89.57364079566001,101.46101927879842L89.80569746108056,98.29270976452797L90.03775412650108,104.43833504216181L90.26981079192161,100.81115143727612L90.50186745734214,54.74405963707599L90.73392412276269,97.6785736733782L90.9659807881832,110.32269547384043L91.19803745360375,103.19711144770329L91.43009411902429,112.60522944776798L91.6621507844448,110.23974580522491L91.89420744986535,84.10890926574636L92.12626411528586,104.84368897990481L92.3583207807064,103.30180399420857L92.59037744612694,115.90775533886185L92.82243411154747,113.9839131667506L93.054490776968,86.68566429279778L93.28654744238854,84.29615064392387L93.51860410780905,103.83908381195624L93.7506607732296,96.94693509542654L93.98271743865014,109.08620445001476L94.21477410407066,47.72778957161373L94.4468307694912,109.59330360379774L94.67888743491173,111.5465550813862L94.91094410033226,110.05027792940449L95.14300076575279,110.11769264018459L95.37505743117333,109.0469493765946L95.60711409659385,110.07802325631043L95.83917076201439,111.55918649766608L96.07122742743493,93.07402160242101L96.30328409285545,112.26189407977034L96.53534075827599,108.00920274070532L96.76739742369652,116.53389632804402L96.99945408911705,103.16742256687908L97.23151075453758,73.27992535307963L97.46356741995811,108.19972155036022L97.69562408537864,101.2645754928138L97.92768075079918,98.4548365187634L98.1597374162197,111.92065721106397L98.39179408164024,118.05894616212247L98.62385074706079,114.06197531936022L98.8559074124813,87.5286614366728L99.08796407790184,115.03269123952433L99.32002074332237,107.99272126874334L99.5520774087429,116.16755494052862L99.78413407416343,85.8081614880238L100.01619073958398,113.27225243678717L100.24824740500449,98.18693260041147L100.48030407042503,115.88573625400278L100.71236073584556,103.47697310680017L100.9444174012661,101.69079989862885L101.17647406668664,112.71039356714772L101.40853073210717,123.43748068677912L101.6405873975277,115.67512507151869L101.87264406294823,86.22252583604644L102.10470072836877,119.09135391939746L102.33675739378928,120.12133307636904L102.56881405920983,114.5555571735349L102.80087072463036,110.53778996700947L103.03292739005089,109.76879944902379L103.26498405547142,116.6425871388491L103.49704072089195,112.75065241711492L103.72909738631249,86.0551039921065L103.96115405173302,116.68202747304136L104.19321071715355,116.05094170543285L104.42526738257408,95.66901302620289L104.65732404799462,107.14374862287349L104.88938071341514,117.28315825798937L105.12143737883568,111.07206519187137L105.35349404425621,118.9830740506687L105.58555070967674,111.31074169714051L105.81760737509727,109.14768071095449L106.04966404051781,120.59140028599708L106.28172070593834,113.33798295872997L106.51377737135887,57.72554545200058L106.74583403677941,100.64262139708123L106.97789070219993,121.30795190034408L107.20994736762047,110.82274461315039L107.442004033041,109.02716015775613L107.67406069846153,112.31867819060929L107.90611736388206,105.2430707840307L108.1381740293026,120.63865525639451L108.37023069472312,101.9386922852158L108.60228736014366,112.2507716966887L108.8343440255642,115.92103685203294L109.06640069098472,106.15434831174822L109.29845735640527,102.06392519878096L109.53051402182578,117.78650503904281L109.76257068724632,110.81123823501383L109.99462735266685,111.88007836521767L110.22668401808738,122.45737036128048L110.45874068350791,114.96810259761324L110.69079734892846,119.72690615580254L110.92285401434897,113.33686128896433L111.15491067976951,111.15211805568669L111.38696734519006,121.9111811845834L111.61902401061057,121.82065266619996L111.85108067603112,117.06139437702457L112.08313734145165,108.92420232575331L112.31519400687218,116.50767013946933L112.5472506722927,113.9341319130972L112.77930733771325,121.14843227042883L113.01136400313376,117.44793929383242L113.24342066855431,111.77537908195706L113.47547733397485,119.87350132058026L113.70753399939537,116.19878653832781L113.93959066481591,121.2660324401833L114.17164733023644,114.96838217296023L114.40370399565697,117.38573546331499L114.6357606610775,116.5169837037397L114.86781732649803,109.09110543953138L115.09987399191856,106.89355900271245L115.3319306573391,124.49134837821921L115.56398732275962,122.19462006077075L115.79604398818016,112.67546349066176L116.0281006536007,115.74568921542458L116.26015731902122,114.42934069368872L116.49221398444176,118.89117123419402L116.72427064986229,100.47401725257745L116.95632731528282,104.44028870121309L117.18838398070335,92.44427644912699L117.4204406461239,100.91086888995596L117.65249731154441,119.19081874375169L117.88455397696495,110.75357497760182L118.11661064238548,106.19156551667524L118.34866730780601,127.53028019019584L118.58072397322655,119.00620133178273L118.81278063864708,122.54273852506638L119.04483730406761,109.26255249479252L119.27689396948814,119.7777989740886L119.50895063490869,121.59774690520345L119.7410073003292,124.79405100632776L119.97306396574974,120.25428294318681L120.20512063117027,124.32018089830507L120.4371772965908,87.44065246479L120.66923396201133,111.27646845430112L120.90129062743186,102.44555565256154L121.1333472928524,117.18405721842402L121.36540395827294,116.97061659869321L121.59746062369346,117.98908600915057L121.829517289114,89.96722540124473L122.06157395453454,115.07975758077197L122.29363061995505,120.16226223349351L122.5256872853756,105.46170544213577L122.75774395079613,122.08109225962492L122.98980061621666,128.81978105767604L123.22185728163718,102.61673997436404L123.45391394705773,121.93785536738883L123.68597061247826,118.24308526446163L123.91802727789879,104.8326844900418L124.15008394331933,119.84864606171914L124.38214060873985,121.65659246317931L124.61419727416039,116.87497825137736L124.84625393958092,104.52368973243702L125.07831060500145,122.69095387950557L125.31036727042198,119.08241761342666L125.54242393584252,110.68063275905762L125.77448060126304,119.64265629340463L126.00653726668358,123.6223608322067L126.23859393210412,123.29841384610424L126.47065059752464,104.37185337199759L126.70270726294518,117.13482837870924L126.9347639283657,116.87371510974937L127.16682059378624,124.24445639980163L127.39887725920677,115.9637984066124L127.6309339246273,110.12856239494064L127.86299059004783,118.22851366264118L128.09504725546836,111.06015460841385L128.3271039208889,112.28130940868692L128.55916058630945,117.85696139486309L128.79121725172996,111.12178244634896L129.0232739171505,118.1030281207504L129.25533058257102,102.08165633886023L129.48738724799156,123.00487320527068L129.71944391341208,117.87578725768662L129.95150057883262,120.2784375794916L130.18355724425317,115.29773877360816L130.41561390967368,120.89099726988965L130.64767057509422,115.77321222940401L130.87972724051477,128.67082129177075L131.11178390593528,122.28010948615292L131.34384057135583,123.0358083858345L131.57589723677637,124.66423036236975L131.80795390219689,109.0541880202174L132.04001056761743,125.06120714483593L132.27206723303794,119.96371994821763L132.5041238984585,121.57903219884321L132.736180563879,117.39018172184548L132.96823722929955,114.30759068263912L133.20029389472006,119.68962495169973L133.4323505601406,124.27519621446034L133.66440722556115,98.54060551949259L133.89646389098166,86.18890269009825L134.1285205564022,129.0259510341961L134.36057722182272,117.83404632154256L134.59263388724327,126.77483391883986L134.8246905526638,121.68078078326083L135.05674721808433,116.80248739544157L135.28880388350487,121.47176284341684L135.5208605489254,129.8530848034125L135.75291721434593,124.32593745575102L135.98497387976647,108.4351778865724L136.21703054518701,97.69462062462016L136.44908721060753,124.94889869640832L136.68114387602807,110.05041266451147L136.9132005414486,126.17304798443412L137.14525720686913,116.59109811771465L137.37731387228965,123.93825739566681L137.6093705377102,116.29686695945779L137.8414272031307,125.03733208387813L138.07348386855125,121.41138467359904L138.30554053397177,130.10411651799217L138.5375971993923,127.16663013644248L138.76965386481285,109.40225259047023L139.00171053023337,123.3814207771402L139.2337671956539,116.97507296235675L139.46582386107445,126.91168099862718L139.697880526495,127.4436421480266L139.9299371919155,115.70833053863522L140.16199385733603,122.68053885573562L140.39405052275657,122.67156212923273L140.62610718817712,118.66221586689387L140.85816385359766,109.852890997671L141.09022051901817,119.54612869438269L141.3222771844387,120.90276974986249L141.55433384985923,124.0104282557235L141.78639051527978,121.59212171448682L142.0184471807003,114.78248477747492L142.25050384612084,128.9487781332926L142.48256051154138,128.57435600773576L142.7146171769619,119.70037007648179L142.9466738423824,125.6801364374167L143.17873050780295,118.52290313464874L143.4107871732235,129.66577605768148L143.64284383864404,123.90426709655209L143.87490050406458,123.42401391283595L144.10695716948507,126.65235128564602L144.33901383490561,120.99353068630549L144.57107050032616,116.5638041534171L144.8031271657467,127.46991886226641L145.03518383116722,116.94672806422471L145.26724049658776,124.41573166780137L145.49929716200828,126.6577524792473L145.73135382742882,116.66921416436706L145.96341049284936,127.7732715872662L146.19546715826988,120.39779604239222L146.42752382369042,118.38856886460668L146.65958048911097,123.95029260909828L146.89163715453148,121.40475907471304L147.123693819952,127.0305527309538L147.35575048537254,126.42465232321851L147.58780715079308,119.29866746013809L147.81986381621363,123.596838634566L148.0519204816341,130.6533540764848L148.28397714705466,119.61070723116073L148.5160338124752,121.60847855647484L148.74809047789574,126.75873812612161L148.9801471433163,113.3292285451536L149.2122038087368,107.50384840655782L149.44426047415732,123.77682452723235L149.67631713957786,131.1110441823474L149.9083738049984,125.44520556812176L150.14043047041892,113.80103383766178L150.37248713583946,120.47521146648832L150.60454380126,130.56907221449896L150.83660046668052,120.29926425865386L151.06865713210107,119.6194616447371L151.30071379752158,123.52936666136544L151.53277046294212,125.30802501894466L151.76482712836267,127.69868560041678L151.9968837937832,123.46637126209446L152.2289404592037,113.78074273054978L152.46099712462424,103.32541295333007L152.6930537900448,125.09092634105922L152.92511045546533,126.87693113034682L153.15716712088587,126.62192809848874L153.38922378630636,125.41783749951537L153.6212804517269,123.95502181135345L153.85333711714745,127.37248348546115L154.085393782568,128.69281006123074L154.3174504479885,124.3705145658971L154.54950711340905,130.44002292902843L154.78156377882956,120.4524648120515L155.0136204442501,127.88314638282387L155.24567710967062,121.02144780047283L155.47773377509117,122.32388155403478L155.7097904405117,127.59551387643161L155.94184710593225,123.01170427519483L156.17390377135277,123.39500207592434L156.40596043677328,128.41969189423847L156.63801710219383,121.74836728130234L156.87007376761437,120.00967135645496L157.10213043303492,128.43187363209879L157.33418709845543,120.39261210915097L157.56624376387595,128.65125607004762L157.7983004292965,126.2822625779676L158.03035709471703,126.07803615536575L158.26241376013758,130.38811959744L158.4944704255581,132.11079046550032L158.7265270909786,111.85281134794151L158.95858375639915,78.70409129009455L159.1906404218197,108.4779630197956L159.4226970872402,127.92116863001512L159.65475375266075,126.207523329934L159.8868104180813,91.98374511669583L160.1188670835018,128.89877119833503L160.35092374892233,130.8002608161974L160.58298041434287,131.1455245804138L160.8150370797634,123.22375375494599L161.04709374518396,123.70177370426384L161.2791504106045,117.91178510989542L161.511207076025,131.4700997689526L161.74326374144553,111.33280120253168L161.97532040686608,131.00168138019626L162.20737707228662,123.06469222439448L162.43943373770713,128.91452510071926L162.67149040312768,125.53976940295941L162.9035470685482,126.3116937778997L163.13560373396874,132.2546404024732L163.36766039938928,123.4510552488079L163.5997170648098,125.11871882525261L163.83177373023034,130.5024894930045L164.06383039565088,127.410126790164L164.2958870610714,125.54573816819885L164.5279437264919,101.89692777042802L164.76000039191246,130.2728907655685L164.992057057333,130.18183846445666L165.22411372275354,126.80046053618845L165.45617038817403,131.947368570049L165.68822705359457,130.36834890467875L165.92028371901512,129.51812827488047L166.15234038443566,125.34831081593326L166.3843970498562,110.18374652638414L166.61645371527672,117.80351197792203L166.84851038069723,120.73593063526026L167.08056704611778,131.70640830471646L167.31262371153832,128.44098846208632L167.54468037695884,124.27802565170704L167.77673704237938,127.64603448898461L168.00879370779992,119.8506300361695L168.24085037322044,132.6809894382622L168.47290703864098,134.37071083590925L168.7049637040615,123.39189306333066L168.93702036948204,128.03207414914124L169.16907703490259,125.63537743487618L169.40113370032313,123.20794595851893L169.63319036574362,128.61277235511494L169.86524703116416,128.46212503199465L170.0973036965847,125.59174683885666L170.32936036200525,119.69303711828412L170.5614170274258,134.63343587358642L170.79347369284628,130.78122442976922L171.02553035826682,125.98925245661779L171.25758702368736,130.97875451755388L171.4896436891079,131.25953742794476L171.72170035452842,129.02846889650792L171.95375701994897,131.99381176142683L172.18581368536948,131.62488009147964L172.41787035079003,119.23826234329891L172.64992701621054,132.82927047606603L172.88198368163108,118.05624135484973L173.11404034705163,133.06127085678406L173.34609701247217,125.48209604041435L173.5781536778927,126.08028286327475L173.8102103433132,130.2191331420702L174.04226700873375,127.25491868367227L174.2743236741543,125.75323023295624L174.50638033957483,134.43875374912565L174.73843700499535,117.2002018526185L174.97049367041586,133.68309526997618L175.2025503358364,131.49145865178744L175.43460700125695,130.63355643670212L175.6666636666775,126.52025867094645L175.898720332098,129.5139683284523L176.13077699751852,133.90302001673064L176.36283366293907,134.6123447767767L176.5948903283596,137.09579911061846L176.82694699378013,128.01141252048507L177.05900365920067,129.48695899206825L177.2910603246212,129.4477965490341L177.52311699004173,119.84238424762201L177.75517365546224,118.66309164508927L177.9872303208828,129.0260807167366L178.21928698630333,125.29067113716495L178.45134365172387,132.63088482035204L178.68340031714442,129.86460465505974L178.9154569825649,132.24945310085425L179.14751364798545,129.17896632682167L179.379570313406,132.25339410273358L179.61162697882654,115.99458537855854L179.84368364424705,128.33146060942914L180.0757403096676,137.66249665478753L180.3077969750881,128.27739141099593L180.53985364050865,125.69621707243542L180.7719103059292,130.70404479211035L181.0039669713497,124.75825525677944L181.23602363677026,127.4862740200656L181.4680803021908,132.86377950534265L181.70013696761131,135.2101880251143L181.93219363303183,134.94544364502116L182.16425029845237,132.83069529982242L182.39630696387292,135.38898993302797L182.62836362929346,112.2601997858L182.86042029471395,134.78751894193482L183.0924769601345,133.34459183975278L183.32453362555503,131.41398596527088L183.55659029097558,123.44447007045399L183.78864695639612,134.96110323283054L184.02070362181664,124.8818309285287L184.25276028723715,134.874768344652L184.4848169526577,120.42996404918496L184.71687361807824,134.85648815901177L184.94893028349875,121.78645352766942L185.1809869489193,127.47021191112411L185.41304361433984,128.81001444660845L185.64510027976036,132.52168706870694L185.8771569451809,132.4332570496148L186.10921361060142,130.3352192260599L186.34127027602196,98.94965456754466L186.5733269414425,134.63872591072442L186.80538360686305,133.68884509066677L187.03744027228353,130.1066411170593L187.26949693770408,132.52512618231273L187.50155360312462,125.89096319607198L187.73361026854516,121.15468061101525L187.9656669339657,129.89214451092752L188.1977235993862,125.93340475477235L188.42978026480674,124.05482684185283L188.66183693022728,133.74822285231522L188.89389359564782,126.97422840366742L189.12595026106834,135.43926633819956L189.35800692648888,129.06822754239045L189.5900635919094,129.63538150173443L189.82212025732994,131.98398620374994L190.05417692275046,122.76137991992681L190.286233588171,133.12630580873704L190.51829025359154,130.596785541817L190.7503469190121,127.6399831984921L190.9824035844326,130.0160048105903L191.21446024985312,118.53989996839492L191.44651691527366,130.39647822663963L191.6785735806942,129.75462207141643L191.91063024611475,134.23640519707743L192.14268691153526,122.90953801194554L192.37474357695578,139.2302255181924L192.60680024237632,134.16189331453688L192.83885690779687,132.05721305020762L193.0709135732174,123.8153250840534L193.30297023863793,133.7593839717401L193.53502690405844,132.5404388272216L193.76708356947898,111.99054431105725L193.99914023489953,129.3371840787657L194.23119690032004,130.35560801612445L194.4632535657406,126.31968356974393L194.69531023116113,135.8555624508186L194.92736689658165,126.24758344561839L195.15942356200216,132.32625042764704L195.3914802274227,129.0679900717644L195.62353689284325,131.5879104623117L195.8555935582638,121.09109574565122L196.08765022368434,134.4268532708012L196.31970688910482,134.17680175412482L196.55176355452537,133.28557112613788L196.7838202199459,130.3502573481883L197.01587688536645,132.05963154537798L197.24793355078697,132.11956508934276L197.4799902162075,132.74950224016422L197.71204688162803,136.6614535462299L197.94410354704857,135.69782300850437L198.1761602124691,134.38078228515639L198.40821687788963,137.73646117595598L198.64027354331017,130.78518395772574L198.87233020873072,125.11317784397785L199.10438687415123,112.69780930815529L199.33644353957175,131.95618024604582L199.5685002049923,134.21446021652721L199.80055687041283,134.17578281987824L200.03261353583338,126.665944373752L200.26467020125386,132.75437291428173L200.4967268666744,128.46813758614388L200.72878353209495,127.59048320437455L200.9608401975155,126.62391207293908L201.19289686293604,136.86604206943173L201.42495352835655,139.14115045477558L201.65701019377707,127.95154634407382L201.8890668591976,127.98370592992237L202.12112352461816,122.17366538325685L202.35318019003867,132.6175342554386L202.58523685545921,135.14364403996308L202.81729352087976,131.95286744660282L203.04935018630027,120.85346680583888L203.28140685172082,133.45140141162656L203.51346351714133,136.2467489920621L203.74552018256188,122.78460825237107L203.97757684798242,133.4517820383038L204.20963351340296,127.6430736850086L204.44169017882345,127.62328783454781L204.673746844244,132.8705095239366L204.90580350966454,135.29668796379886L205.13786017508508,129.51990509410385L205.36991684050562,132.782177187797L205.6019735059261,132.24898826473515L205.83403017134665,130.03237344190015L206.0660868367672,132.1130371734093L206.29814350218774,133.66862808786362L206.53020016760826,134.21964246557962L206.7622568330288,129.36102040338022L206.99431349844932,137.02974185604123L207.22637016386986,120.95041545207019L207.45842682929037,134.0018667437816L207.69048349471092,134.91634591447885L207.92254016013146,132.78904699406442L208.154596825552,135.23765714505092L208.38665349097252,136.0637635590765L208.61871015639304,133.46120002228207L208.85076682181358,131.4460866045101L209.08282348723412,131.06584897489802L209.31488015265467,119.30024049251216L209.54693681807518,129.62129494629912L209.7789934834957,133.40875943445454L210.01105014891624,131.91886198978858L210.24310681433678,130.64987117396922L210.47516347975733,135.71984209336344L210.70722014517784,132.83261864347463L210.93927681059836,134.29684568188222L211.1713334760189,129.09499940814842L211.40339014143944,129.07223422763442L211.63544680685996,135.11267854400018L211.8675034722805,136.2071082393982L212.09956013770105,135.79429839767238L212.33161680312156,134.1363357489306L212.56367346854208,134.55127440534676L212.79573013396262,136.38709918463104L213.02778679938316,136.75464139878744L213.2598434648037,136.15377503148687L213.49190013022425,121.76146016532364L213.72395679564474,128.3661380575895L213.95601346106528,135.02982655833722L214.18807012648583,135.90136901881596L214.42012679190637,129.1261316388062L214.65218345732688,130.73592480261192L214.88424012274743,132.11196602930877L215.11629678816794,133.0345730953349L215.3483534535885,134.4370762970437L215.58041011900903,129.8063317212886L215.81246678442955,133.3809416874286L216.0445234498501,130.9619345236356L216.27658011527063,136.1609345182343L216.50863678069115,130.13702051530683L216.74069344611166,118.60127517800441L216.9727501115322,126.46163205751947L217.20480677695275,129.0549746604296L217.4368634423733,95.30524171085321L217.66892010779378,136.36601987714317L217.90097677321432,127.76610199538572L218.13303343863487,139.4711470471817L218.3650901040554,130.0481441861728L218.59714676947596,122.36679468560959L218.82920343489647,130.53320909739713L219.06126010031699,133.59340210925606L219.29331676573753,134.32537752497518L219.52537343115807,109.63094522431176L219.7574300965786,133.2180317853838L219.98948676199913,132.16440998551397L220.22154342741968,137.76726330560166L220.4536000928402,136.0735924851311L220.68565675826073,132.36505077008115L220.91771342368125,134.16733492867027L221.1497700891018,131.74593621672827L221.38182675452234,132.92298547972968L221.61388341994288,127.44604211711977L221.84594008536337,134.0211658636684L222.0779967507839,121.47695688179111L222.31005341620445,135.4493596819016L222.542110081625,128.36658773600905L222.77416674704554,124.82536007681348L223.00622341246603,131.1718332942415L223.23828007788657,134.63739371735412L223.47033674330712,138.4139160306335L223.70239340872766,134.0073740412796L223.93445007414817,131.82782316218743L224.16650673956872,134.49905613044578L224.39856340498923,123.82870764855471L224.63062007040978,133.46029561287642L224.8626767358303,132.50735462170138L225.09473340125083,126.33532968404258L225.32679006667138,132.28091880090184L225.55884673209192,134.669405094585L225.79090339751244,134.71817751912482L226.02296006293295,129.11165266737183L226.2550167283535,131.07284677951708L226.48707339377404,136.01181812276715L226.71913005919458,139.92183598004758L226.9511867246151,133.26954438516196L227.1832433900356,135.36071745501596L227.41530005545616,140.080142994L227.6473567208767,128.55372637866748L227.87941338629724,135.2827479327924L228.11147005171776,134.6839480651952L228.34352671713827,135.1260611085015L228.57558338255882,135.19581178919896L228.80764004797936,139.22243614481982L229.03969671339988,135.14997995836904L229.27175337882042,133.76049553637273L229.50381004424096,135.92931644838237L229.73586670966148,135.06910689458996L229.967923375082,133.083726146552L230.19998004050254,132.68936322516132L230.43203670592308,137.23032874656562L230.66409337134363,132.72024451168235L230.89615003676417,132.30965611503296L231.12820670218466,139.4275535033166L231.3602633676052,137.7826382654975L231.59232003302574,135.58708422407315L231.8243766984463,121.89716873345694L232.0564333638668,130.06026024066844L232.28849002928735,130.01996265435798L232.52054669470786,123.92130771920804L232.7526033601284,134.99291082321207L232.98466002554895,135.97463628580573L233.21671669096946,135.2816565784258L233.44877335639,132.3446619800166L233.68083002181055,133.60035107239884L233.91288668723107,139.4659664823181L234.14494335265158,138.0427241792666L234.37700001807212,136.14243201966755L234.60905668349267,133.8359606697952L234.8411133489132,137.43458211618884L235.0731700143337,126.89736370932116L235.30522667975424,136.1316835265078L235.53728334517479,139.81601165864365L235.76934001059533,132.5898984008071L236.00139667601587,139.86723626213063L236.2334533414364,128.8242711051163L236.4655100068569,139.71153468830954L236.69756667227745,128.32318955804908L236.929623337698,128.89025088700703L237.1616800031185,134.93237602383243L237.39373666853905,136.54308875474328L237.6257933339596,138.73444074501853L237.8578499993801,136.08566306652813L238.08990666480065,134.52657746023635L238.32196333022117,134.59400901290485L238.5540199956417,137.87809135204125L238.78607666106225,134.86921725824422L239.0181333264828,132.54264848297618L239.25018999190328,134.55318090711063L239.48224665732383,140.16650651338873L239.71430332274437,136.224999377417L239.94635998816491,132.47134161179304L240.17841665358546,138.66731066215195L240.41047331900594,137.77067378799723L240.6425299844265,138.8457167856889L240.87458664984703,139.29958378289078L241.10664331526758,137.3634335587564L241.3386999806881,136.78052738121698L241.57075664610863,136.68506587372906L241.80281331152915,135.02980971644885L242.0348699769497,134.6143523298708L242.2669266423702,126.00842863071945L242.49898330779075,135.63497918622878L242.7310399732113,134.55173924146587L242.96309663863184,133.44367772161863L243.19515330405235,139.7191051171333L243.42720996947287,124.42963633084226L243.6592666348934,133.90889615158406L243.89132330031396,138.75918147903872L244.1233799657345,137.21615292912193L244.35543663115502,137.74369476701224L244.58749329657553,134.81368786808906L244.81954996199607,137.3125003199383L245.05160662741662,130.89598168876628L245.28366329283716,112.9903192254204L245.51571995825768,137.97524378512188L245.7477766236782,138.60665628536483L245.97983328909874,137.0583006461556L246.21188995451928,132.60253486965345L246.4439466199398,131.4253609766781L246.67600328536034,126.35280987998509L246.90805995078088,134.56199426729628L247.1401166162014,128.09791245916963L247.3721732816219,137.8963850111922L247.60422994704246,138.59883996497084L247.836286612463,140.11417202945796L248.06834327788354,139.32973581564525L248.3003999433041,133.49202741476032L248.53245660872457,132.37209236360997L248.76451327414512,135.27154976121307L248.99656993956566,125.31326284622872L249.2286266049862,141.71049757722605L249.46068327040672,129.0789709829837L249.69273993582726,136.154601968206L249.92479660124778,135.32429013465364L250.15685326666832,134.13250590351456L250.38890993208886,139.97246943325266L250.62096659750938,140.64415425697354L250.85302326292992,140.87400982320725L251.08507992835047,136.29271050543247L251.31713659377098,136.4028261399939L251.5491932591915,141.54287868319213L251.78124992461204,141.07405272073717L252.01330659003258,134.20928133585247L252.24536325545313,138.10186615447782L252.47741992087361,141.2345803376716L252.70947658629416,129.49120651631594L252.9415332517147,142.23233001495785L253.17358991713525,140.47655304692242L253.4056465825558,142.96619509055245L253.6377032479763,140.85459281010182L253.86975991339682,138.91413022044952L254.10181657881736,138.79345640606695L254.3338732442379,147.49112587108388L254.56592990965842,138.66463448608945L254.79798657507897,146.4772058757233L255.0300432404995,146.98900223217353L255.26209990592002,148.79618148561832" fill="none"></path></g><g><path style="fill: none;" stroke="rgb(255, 112, 67)" stroke-width="2px" d="M23.437491150808334,145.23817004256446L23.669547816228867,140.187964763365L23.9016044816494,130.93594917406463L24.13366114706993,111.15154543148202L24.365717812490463,34.23236420793081L24.597774477910995,-9.006476014519123" fill="none"></path></g></g></g></g></g></g><g transform="translate(51, 176)" clip-path="url(#clip_1)"><clipPath id="clip_1"><rect width="278" height="23"></rect></clipPath><g><g><line x1="0" y1="0" x2="0" y2="5" style="visibility: inherit;" fill="rgb(0, 0, 0)" stroke="rgb(204, 204, 204)" stroke-width="1px"></line><line x1="23.205666542053223" y1="0" x2="23.205666542053223" y2="5" style="visibility: inherit;" fill="rgb(0, 0, 0)" stroke="rgb(204, 204, 204)" stroke-width="1px"></line><line x1="46.411333084106445" y1="0" x2="46.411333084106445" y2="5" style="visibility: inherit;" fill="rgb(0, 0, 0)" stroke="rgb(204, 204, 204)" stroke-width="1px"></line><line x1="69.61699962615967" y1="0" x2="69.61699962615967" y2="5" style="visibility: inherit;" fill="rgb(0, 0, 0)" stroke="rgb(204, 204, 204)" stroke-width="1px"></line><line x1="92.82266616821289" y1="0" x2="92.82266616821289" y2="5" style="visibility: inherit;" fill="rgb(0, 0, 0)" stroke="rgb(204, 204, 204)" stroke-width="1px"></line><line x1="116.02833271026611" y1="0" x2="116.02833271026611" y2="5" style="visibility: inherit;" fill="rgb(0, 0, 0)" stroke="rgb(204, 204, 204)" stroke-width="1px"></line><line x1="139.23399925231934" y1="0" x2="139.23399925231934" y2="5" style="visibility: inherit;" fill="rgb(0, 0, 0)" stroke="rgb(204, 204, 204)" stroke-width="1px"></line><line x1="162.43966579437256" y1="0" x2="162.43966579437256" y2="5" style="visibility: inherit;" fill="rgb(0, 0, 0)" stroke="rgb(204, 204, 204)" stroke-width="1px"></line><line x1="185.64533233642578" y1="0" x2="185.64533233642578" y2="5" style="visibility: inherit;" fill="rgb(0, 0, 0)" stroke="rgb(204, 204, 204)" stroke-width="1px"></line><line x1="208.850998878479" y1="0" x2="208.850998878479" y2="5" style="visibility: inherit;" fill="rgb(0, 0, 0)" stroke="rgb(204, 204, 204)" stroke-width="1px"></line><line x1="232.05666542053223" y1="0" x2="232.05666542053223" y2="5" style="visibility: inherit;" fill="rgb(0, 0, 0)" stroke="rgb(204, 204, 204)" stroke-width="1px"></line><line x1="255.26233196258545" y1="0" x2="255.26233196258545" y2="5" style="visibility: inherit;" fill="rgb(0, 0, 0)" stroke="rgb(204, 204, 204)" stroke-width="1px"></line><line x1="278.4679985046387" y1="0" x2="278.4679985046387" y2="5" style="visibility: inherit;" fill="rgb(0, 0, 0)" stroke="rgb(204, 204, 204)" stroke-width="1px"></line></g><g transform="translate(0, 8)"><text style="text-anchor: middle; visibility: hidden; font-family: Roboto, sans-serif; font-size: 12px; font-weight: 200;" x="0" y="0" dx="0em" dy="0.95em" fill="rgb(255, 255, 255)" stroke="none" stroke-width="1px">-100k</text><text style="text-anchor: middle; visibility: inherit; font-family: Roboto, sans-serif; font-size: 12px; font-weight: 200;" x="23.205666542053223" y="0" dx="0em" dy="0.95em" fill="rgb(255, 255, 255)" stroke="none" stroke-width="1px">0</text><text style="text-anchor: middle; visibility: hidden; font-family: Roboto, sans-serif; font-size: 12px; font-weight: 200;" x="46.411333084106445" y="0" dx="0em" dy="0.95em" fill="rgb(255, 255, 255)" stroke="none" stroke-width="1px">100k</text><text style="text-anchor: middle; visibility: inherit; font-family: Roboto, sans-serif; font-size: 12px; font-weight: 200;" x="69.61699962615967" y="0" dx="0em" dy="0.95em" fill="rgb(255, 255, 255)" stroke="none" stroke-width="1px">200k</text><text style="text-anchor: middle; visibility: hidden; font-family: Roboto, sans-serif; font-size: 12px; font-weight: 200;" x="92.82266616821289" y="0" dx="0em" dy="0.95em" fill="rgb(255, 255, 255)" stroke="none" stroke-width="1px">300k</text><text style="text-anchor: middle; visibility: inherit; font-family: Roboto, sans-serif; font-size: 12px; font-weight: 200;" x="116.02833271026611" y="0" dx="0em" dy="0.95em" fill="rgb(255, 255, 255)" stroke="none" stroke-width="1px">400k</text><text style="text-anchor: middle; visibility: hidden; font-family: Roboto, sans-serif; font-size: 12px; font-weight: 200;" x="139.23399925231934" y="0" dx="0em" dy="0.95em" fill="rgb(255, 255, 255)" stroke="none" stroke-width="1px">500k</text><text style="text-anchor: middle; visibility: inherit; font-family: Roboto, sans-serif; font-size: 12px; font-weight: 200;" x="162.43966579437256" y="0" dx="0em" dy="0.95em" fill="rgb(255, 255, 255)" stroke="none" stroke-width="1px">600k</text><text style="text-anchor: middle; visibility: hidden; font-family: Roboto, sans-serif; font-size: 12px; font-weight: 200;" x="185.64533233642578" y="0" dx="0em" dy="0.95em" fill="rgb(255, 255, 255)" stroke="none" stroke-width="1px">700k</text><text style="text-anchor: middle; visibility: inherit; font-family: Roboto, sans-serif; font-size: 12px; font-weight: 200;" x="208.850998878479" y="0" dx="0em" dy="0.95em" fill="rgb(255, 255, 255)" stroke="none" stroke-width="1px">800k</text><text style="text-anchor: middle; visibility: hidden; font-family: Roboto, sans-serif; font-size: 12px; font-weight: 200;" x="232.05666542053223" y="0" dx="0em" dy="0.95em" fill="rgb(255, 255, 255)" stroke="none" stroke-width="1px">900k</text><text style="text-anchor: middle; visibility: inherit; font-family: Roboto, sans-serif; font-size: 12px; font-weight: 200;" x="255.26233196258545" y="0" dx="0em" dy="0.95em" fill="rgb(255, 255, 255)" stroke="none" stroke-width="1px">1M</text><text style="text-anchor: middle; visibility: hidden; font-family: Roboto, sans-serif; font-size: 12px; font-weight: 200;" x="278.4679985046387" y="0" dx="0em" dy="0.95em" fill="rgb(255, 255, 255)" stroke="none" stroke-width="1px">1.1M</text></g><line x1="0" y1="0" x2="278.4679985046387" y2="0" fill="rgb(0, 0, 0)" stroke="rgb(204, 204, 204)" stroke-width="1px"></line></g></g></g></g></svg>