<svg viewBox="0 0 330 200" xmlns="http://www.w3.org/2000/svg"><g><g><g><g><g><line x1="72.29800224304199" y1="176.5999994277954" x2="67.29800224304199" y2="176.5999994277954" style="visibility: inherit;" fill="rgb(0, 0, 0)" stroke="rgb(204, 204, 204)" stroke-width="1px"></line><line x1="72.29800224304199" y1="161.88333280881244" x2="67.29800224304199" y2="161.88333280881244" style="visibility: inherit;" fill="rgb(0, 0, 0)" stroke="rgb(204, 204, 204)" stroke-width="1px"></line><line x1="72.29800224304199" y1="147.16666618982953" x2="67.29800224304199" y2="147.16666618982953" style="visibility: inherit;" fill="rgb(0, 0, 0)" stroke="rgb(204, 204, 204)" stroke-width="1px"></line><line x1="72.29800224304199" y1="132.44999957084656" x2="67.29800224304199" y2="132.44999957084656" style="visibility: inherit;" fill="rgb(0, 0, 0)" stroke="rgb(204, 204, 204)" stroke-width="1px"></line><line x1="72.29800224304199" y1="117.73333295186362" x2="67.29800224304199" y2="117.73333295186362" style="visibility: inherit;" fill="rgb(0, 0, 0)" stroke="rgb(204, 204, 204)" stroke-width="1px"></line><line x1="72.29800224304199" y1="103.01666633288065" x2="67.29800224304199" y2="103.01666633288065" style="visibility: inherit;" fill="rgb(0, 0, 0)" stroke="rgb(204, 204, 204)" stroke-width="1px"></line><line x1="72.29800224304199" y1="88.2999997138977" x2="67.29800224304199" y2="88.2999997138977" style="visibility: inherit;" fill="rgb(0, 0, 0)" stroke="rgb(204, 204, 204)" stroke-width="1px"></line><line x1="72.29800224304199" y1="73.58333309491475" x2="67.29800224304199" y2="73.58333309491475" style="visibility: inherit;" fill="rgb(0, 0, 0)" stroke="rgb(204, 204, 204)" stroke-width="1px"></line><line x1="72.29800224304199" y1="58.86666647593181" x2="67.29800224304199" y2="58.86666647593181" style="visibility: inherit;" fill="rgb(0, 0, 0)" stroke="rgb(204, 204, 204)" stroke-width="1px"></line><line x1="72.29800224304199" y1="44.14999985694885" x2="67.29800224304199" y2="44.14999985694885" style="visibility: inherit;" fill="rgb(0, 0, 0)" stroke="rgb(204, 204, 204)" stroke-width="1px"></line><line x1="72.29800224304199" y1="29.433333237965893" x2="67.29800224304199" y2="29.433333237965893" style="visibility: inherit;" fill="rgb(0, 0, 0)" stroke="rgb(204, 204, 204)" stroke-width="1px"></line><line x1="72.29800224304199" y1="14.716666618982957" x2="67.29800224304199" y2="14.716666618982957" style="visibility: inherit;" fill="rgb(0, 0, 0)" stroke="rgb(204, 204, 204)" stroke-width="1px"></line><line x1="72.29800224304199" y1="0" x2="67.29800224304199" y2="0" style="visibility: inherit;" fill="rgb(0, 0, 0)" stroke="rgb(204, 204, 204)" stroke-width="1px"></line></g><g transform="translate(62.29800224304199, 0)"><text style="text-anchor: end; visibility: hidden; font-family: Roboto, sans-serif; font-size: 12px; font-weight: 200;" x="0" y="176.5999994277954" dx="0em" dy="0.3em" fill="rgb(33, 33, 33)" stroke="none" stroke-width="1px">-1e+3</text><text style="text-anchor: end; visibility: inherit; font-family: Roboto, sans-serif; font-size: 12px; font-weight: 200;" x="0" y="161.88333280881244" dx="0em" dy="0.3em" fill="rgb(33, 33, 33)" stroke="none" stroke-width="1px">0</text><text style="text-anchor: end; visibility: hidden; font-family: Roboto, sans-serif; font-size: 12px; font-weight: 200;" x="0" y="147.16666618982953" dx="0em" dy="0.3em" fill="rgb(33, 33, 33)" stroke="none" stroke-width="1px">1e+3</text><text style="text-anchor: end; visibility: inherit; font-family: Roboto, sans-serif; font-size: 12px; font-weight: 200;" x="0" y="132.44999957084656" dx="0em" dy="0.3em" fill="rgb(33, 33, 33)" stroke="none" stroke-width="1px">2e+3</text><text style="text-anchor: end; visibility: hidden; font-family: Roboto, sans-serif; font-size: 12px; font-weight: 200;" x="0" y="117.73333295186362" dx="0em" dy="0.3em" fill="rgb(33, 33, 33)" stroke="none" stroke-width="1px">3e+3</text><text style="text-anchor: end; visibility: inherit; font-family: Roboto, sans-serif; font-size: 12px; font-weight: 200;" x="0" y="103.01666633288065" dx="0em" dy="0.3em" fill="rgb(33, 33, 33)" stroke="none" stroke-width="1px">4e+3</text><text style="text-anchor: end; visibility: hidden; font-family: Roboto, sans-serif; font-size: 12px; font-weight: 200;" x="0" y="88.2999997138977" dx="0em" dy="0.3em" fill="rgb(33, 33, 33)" stroke="none" stroke-width="1px">5e+3</text><text style="text-anchor: end; visibility: inherit; font-family: Roboto, sans-serif; font-size: 12px; font-weight: 200;" x="0" y="73.58333309491475" dx="0em" dy="0.3em" fill="rgb(33, 33, 33)" stroke="none" stroke-width="1px">6e+3</text><text style="text-anchor: end; visibility: hidden; font-family: Roboto, sans-serif; font-size: 12px; font-weight: 200;" x="0" y="58.86666647593181" dx="0em" dy="0.3em" fill="rgb(33, 33, 33)" stroke="none" stroke-width="1px">7e+3</text><text style="text-anchor: end; visibility: inherit; font-family: Roboto, sans-serif; font-size: 12px; font-weight: 200;" x="0" y="44.14999985694885" dx="0em" dy="0.3em" fill="rgb(33, 33, 33)" stroke="none" stroke-width="1px">8e+3</text><text style="text-anchor: end; visibility: hidden; font-family: Roboto, sans-serif; font-size: 12px; font-weight: 200;" x="0" y="29.433333237965893" dx="0em" dy="0.3em" fill="rgb(33, 33, 33)" stroke="none" stroke-width="1px">9e+3</text><text style="text-anchor: end; visibility: inherit; font-family: Roboto, sans-serif; font-size: 12px; font-weight: 200;" x="0" y="14.716666618982957" dx="0em" dy="0.3em" fill="rgb(33, 33, 33)" stroke="none" stroke-width="1px">1e+4</text><text style="text-anchor: end; visibility: hidden; font-family: Roboto, sans-serif; font-size: 12px; font-weight: 200;" x="0" y="0" dx="0em" dy="0.3em" fill="rgb(33, 33, 33)" stroke="none" stroke-width="1px">1.1e+4</text></g><line x1="72.29800224304199" y1="0" x2="72.29800224304199" y2="176.5999994277954" fill="rgb(0, 0, 0)" stroke="rgb(204, 204, 204)" stroke-width="1px"></line></g></g><g transform="translate(72, 0)" clip-path="url(#clip_0)"><clipPath id="clip_0"><rect width="257" height="176"></rect></clipPath><g><g><g><line x1="0" y1="0" x2="0" y2="176.5999994277954" fill="rgb(0, 0, 0)" stroke="rgb(66, 66, 66)" stroke-width="1px" opacity="0.25"></line><line x1="21.4751664797465" y1="0" x2="21.4751664797465" y2="176.5999994277954" fill="rgb(0, 0, 0)" stroke="rgb(66, 66, 66)" stroke-width="1px" opacity="0.25"></line><line x1="42.950332959493" y1="0" x2="42.950332959493" y2="176.5999994277954" fill="rgb(0, 0, 0)" stroke="rgb(66, 66, 66)" stroke-width="1px" opacity="0.25"></line><line x1="64.4254994392395" y1="0" x2="64.4254994392395" y2="176.5999994277954" fill="rgb(0, 0, 0)" stroke="rgb(66, 66, 66)" stroke-width="1px" opacity="0.25"></line><line x1="85.900665918986" y1="0" x2="85.900665918986" y2="176.5999994277954" fill="rgb(0, 0, 0)" stroke="rgb(66, 66, 66)" stroke-width="1px" opacity="0.25"></line><line x1="107.37583239873251" y1="0" x2="107.37583239873251" y2="176.5999994277954" fill="rgb(0, 0, 0)" stroke="rgb(66, 66, 66)" stroke-width="1px" opacity="0.25"></line><line x1="128.850998878479" y1="0" x2="128.850998878479" y2="176.5999994277954" fill="rgb(0, 0, 0)" stroke="rgb(66, 66, 66)" stroke-width="1px" opacity="0.25"></line><line x1="150.32616535822552" y1="0" x2="150.32616535822552" y2="176.5999994277954" fill="rgb(0, 0, 0)" stroke="rgb(66, 66, 66)" stroke-width="1px" opacity="0.25"></line><line x1="171.801331837972" y1="0" x2="171.801331837972" y2="176.5999994277954" fill="rgb(0, 0, 0)" stroke="rgb(66, 66, 66)" stroke-width="1px" opacity="0.25"></line><line x1="193.2764983177185" y1="0" x2="193.2764983177185" y2="176.5999994277954" fill="rgb(0, 0, 0)" stroke="rgb(66, 66, 66)" stroke-width="1px" opacity="0.25"></line><line x1="214.75166479746503" y1="0" x2="214.75166479746503" y2="176.5999994277954" fill="rgb(0, 0, 0)" stroke="rgb(66, 66, 66)" stroke-width="1px" opacity="0.25"></line><line x1="236.2268312772115" y1="0" x2="236.2268312772115" y2="176.5999994277954" fill="rgb(0, 0, 0)" stroke="rgb(66, 66, 66)" stroke-width="1px" opacity="0.25"></line><line x1="257.701997756958" y1="0" x2="257.701997756958" y2="176.5999994277954" fill="rgb(0, 0, 0)" stroke="rgb(66, 66, 66)" stroke-width="1px" opacity="0.25"></line></g><g><line x1="0" y1="176.5999994277954" x2="257.701997756958" y2="176.5999994277954" fill="rgb(0, 0, 0)" stroke="rgb(66, 66, 66)" stroke-width="1px" opacity="0.25"></line><line x1="0" y1="161.88333280881244" x2="257.701997756958" y2="161.88333280881244" fill="rgb(0, 0, 0)" stroke="rgb(66, 66, 66)" stroke-width="1px" opacity="0.25"></line><line x1="0" y1="147.16666618982953" x2="257.701997756958" y2="147.16666618982953" fill="rgb(0, 0, 0)" stroke="rgb(66, 66, 66)" stroke-width="1px" opacity="0.25"></line><line x1="0" y1="132.44999957084656" x2="257.701997756958" y2="132.44999957084656" fill="rgb(0, 0, 0)" stroke="rgb(66, 66, 66)" stroke-width="1px" opacity="0.25"></line><line x1="0" y1="117.73333295186362" x2="257.701997756958" y2="117.73333295186362" fill="rgb(0, 0, 0)" stroke="rgb(66, 66, 66)" stroke-width="1px" opacity="0.25"></line><line x1="0" y1="103.01666633288065" x2="257.701997756958" y2="103.01666633288065" fill="rgb(0, 0, 0)" stroke="rgb(66, 66, 66)" stroke-width="1px" opacity="0.25"></line><line x1="0" y1="88.2999997138977" x2="257.701997756958" y2="88.2999997138977" fill="rgb(0, 0, 0)" stroke="rgb(66, 66, 66)" stroke-width="1px" opacity="0.25"></line><line x1="0" y1="73.58333309491475" x2="257.701997756958" y2="73.58333309491475" fill="rgb(0, 0, 0)" stroke="rgb(66, 66, 66)" stroke-width="1px" opacity="0.25"></line><line x1="0" y1="58.86666647593181" x2="257.701997756958" y2="58.86666647593181" fill="rgb(0, 0, 0)" stroke="rgb(66, 66, 66)" stroke-width="1px" opacity="0.25"></line><line x1="0" y1="44.14999985694885" x2="257.701997756958" y2="44.14999985694885" fill="rgb(0, 0, 0)" stroke="rgb(66, 66, 66)" stroke-width="1px" opacity="0.25"></line><line x1="0" y1="29.433333237965893" x2="257.701997756958" y2="29.433333237965893" fill="rgb(0, 0, 0)" stroke="rgb(66, 66, 66)" stroke-width="1px" opacity="0.25"></line><line x1="0" y1="14.716666618982957" x2="257.701997756958" y2="14.716666618982957" fill="rgb(0, 0, 0)" stroke="rgb(66, 66, 66)" stroke-width="1px" opacity="0.25"></line><line x1="0" y1="0" x2="257.701997756958" y2="0" fill="rgb(0, 0, 0)" stroke="rgb(66, 66, 66)" stroke-width="1px" opacity="0.25"></line></g></g></g><g><g><line x1="0" y1="161.88333280881244" x2="257.701997756958" y2="161.88333280881244" fill="rgb(0, 0, 0)" stroke="rgb(153, 153, 153)" stroke-width="1.5px"></line></g></g><g><g><line x1="21.4751664797465" y1="0" x2="21.4751664797465" y2="176.5999994277954" fill="rgb(0, 0, 0)" stroke="rgb(153, 153, 153)" stroke-width="1.5px"></line></g></g><g><g><g><g><g><path style="fill: none;" stroke="rgb(0, 119, 187)" stroke-width="2px" d="M21.689703392879167,161.10121358972287L21.904455057676632,160.5251125955014L22.1192067224741,159.71557532124436L22.33395838727156,158.7335188293607L22.54871005206903,157.32516715130754L22.76346171686649,155.19997952952627L22.97821338166396,153.34758724130265L23.192965046461424,151.34574845646313L23.40771671125889,148.56399701017088L23.622468376056354,145.51829235099098L23.837220040853815,142.6098794719711L24.051971705651283,140.36191684224272L24.266723370448748,136.17545924345086L24.481475035246213,132.92734634874938L24.696226700043677,131.38464466871997L24.910978364841146,127.99095315918728L25.125730029638607,119.91545060697159L25.340481694436075,116.29868618583033L25.555233359233537,113.80859371475415L25.769985024031005,112.74188919837187L25.98473668882847,111.73620312669767L26.19948835362593,111.11044228259878L26.4142400184234,110.21936669091505L26.62899168322086,107.91585647699083L26.84374334801833,102.85272778711457L27.058495012815794,102.59507571249102L27.27324667761326,102.4317848935363L27.487998342410723,100.73624270031009L27.70275000720819,99.96894823976439L27.917501672005653,98.6780226839846L28.13225333680312,96.98468368629078L28.347005001600582,95.01417111809629L28.561756666398047,94.25018050570137L28.776508331195515,91.9277221397484L28.991259995992976,91.20163880052375L29.206011660790445,87.54668127834684L29.420763325587906,85.21265910971483L29.635514990385374,81.4314428560377L29.85026665518284,78.50852579240697L30.065018319980304,76.12746738808588L30.27976998477777,76.28493710958539L30.494521649575233,76.48616515298058L30.709273314372698,74.38527296424529L30.924024979170163,72.32221954009329L31.138776643967628,71.87083226875552L31.353528308765092,71.7403896985278L31.56827997356256,70.93337303045513L31.783031638360022,70.40491162432359L31.99778330315749,67.57134702759137L32.21253496795495,64.90961692001909L32.42728663275242,62.533260945286166L32.64203829754989,61.79961629728909L32.85678996234735,60.56759520808126L33.07154162714481,59.15779992624404L33.28629329194228,57.553878838921584L33.50104495673974,38.310454655936795L33.71579662153721,17.379673970225593L33.93054828633468,14.551774495705715L34.14529995113214,16.523651655637853L34.3600516159296,20.038083895298364L34.574803280727075,24.544952454550373L34.789554945524536,27.810866520560193L35.004306610322,32.48287667659756L35.21905827511946,33.86823842232449L35.43380993991693,38.952558916684666L35.648561604714395,39.58432670881983L35.863313269511856,41.91221089060856L36.078064934309324,44.52581979968993L36.292816599106786,44.965851332924345L36.507568263904254,45.57947537934855L36.72231992870172,47.18693713398658L36.937071593499184,45.8503157120542L37.151823258296645,46.90627792495363L37.36657492309412,46.62638095371782L37.58132658789158,47.37385541191715L37.79607825268904,48.319274782516175L38.010829917486504,49.41526203111933L38.22558158228397,49.69745247898109L38.44033324708144,51.11654112811378L38.6550849118789,51.84539202213503L38.86983657667637,51.567605210316394L39.08458824147383,51.71448672391172L39.2993399062713,54.61204932826116L39.51409157106877,54.363519911251736L39.72884323586623,56.125098663563165L39.94359490066369,56.89127350817654L40.15834656546116,58.15976040112387L40.37309823025863,61.2455844477236L40.58784989505609,61.421664391709754L40.80260155985355,63.13173029451073L41.01735322465102,64.84092224676685L41.232104889448486,67.30499083634048L41.44685655424595,68.50799546777989L41.661608219043416,69.88977961906897L41.87635988384088,72.49654838109498L42.091111548638345,72.99985849212804L42.30586321343581,74.70346853354692L42.520614878233275,74.49035103718866L42.735366543030736,75.99448435609045L42.950118207828204,76.05075763076779L43.16486987262567,77.51122639588958L43.379621537423134,79.81472779760051L43.594373202220595,81.23772163176616L43.80912486701806,83.38967393705668L44.02387653181553,85.32753916269952L44.23862819661299,85.29149252986306L44.45337986141046,85.68716207119563L44.66813152620792,86.05993146709612L44.882883191005384,87.43297671831446L45.09763485580286,88.35911150869732L45.31238652060032,88.7245977504093L45.52713818539778,88.85686538687128L45.74188985019525,90.54501865271477L45.95664151499272,90.38680125072652L46.17139317979018,91.79374710607968L46.38614484458764,91.45757662711759L46.60089650938511,93.52323460569839L46.81564817418257,94.6558810870846L47.03039983898004,95.50382432381268L47.24515150377751,96.3784337107359L47.45990316857497,98.23289378489368L47.67465483337243,98.6104554838683L47.889406498169905,100.171024158633L48.104158162967366,101.147088545941L48.31890982776483,101.67165016892196L48.533661492562295,102.04425212370897L48.748413157359764,102.8958973657582L48.963164822157225,103.98386063978572L49.177916486954686,104.0537566945437L49.392668151752154,105.44466778207173L49.607419816549616,105.39113818907573L49.822171481347084,105.6159947278416L50.03692314614455,105.92771341057559L50.25167481094201,105.58068969333053L50.466426475739475,106.10492281573205L50.68117814053695,106.25446399714474L50.89592980533441,106.73255340677099L51.11068147013187,108.10006503788848L51.325433134929334,109.15019525031397L51.5401847997268,109.67399312733386L51.75493646452427,109.87870128804265L51.96968812932173,110.57089172033375L52.1844397941192,111.24906457194837L52.39919145891666,110.64505954966333L52.61394312371413,111.90940005009887L52.8286947885116,112.22050499259282L53.04344645330906,111.85786977050952L53.25819811810652,112.4000983154064L53.472949782903996,112.83668507872369L53.68770144770146,112.02526723320989L53.90245311249892,112.83268557333595L54.11720477729638,112.22333888394417L54.33195644209385,112.93288415225017L54.546708106891316,113.78311054664341L54.76145977168878,114.98122347363089L54.976211436486246,115.43244368258713L55.19096310128371,115.17809144272894L55.405714766081175,115.79731227431607L55.62046643087864,116.70296488552204L55.835218095676105,117.13082182652226L56.049969760473566,117.58129787376357L56.264721425271034,117.77594878126676L56.4794730900685,118.45903636916738L56.694224754865964,118.74736187896359L56.908976419663425,119.39242867217659L57.12372808446089,119.88019635732692L57.33847974925836,119.58991845198801L57.55323141405582,119.81256113031209L57.76798307885329,120.13187622791746L57.98273474365075,120.10734731651178L58.19748640844822,120.96329614825473L58.41223807324569,121.16680656205085L58.62698973804315,121.35679976686032L58.84174140284061,122.12294425466202L59.05649306763808,122.12960935044842L59.27124473243555,121.05439461254478L59.48599639723301,121.60874095972848L59.70074806203047,121.46037449854025L59.91549972682794,121.60781370584326L60.13025139162541,122.2538771085487L60.34500305642287,121.85848492595402L60.55975472122034,122.11598392785628L60.7745063860178,122.8408124563103L60.98925805081526,123.26224906946312L61.204009715612735,124.32947508857691L61.418761380410196,124.56073515718704L61.63351304520766,124.9592369174381L61.848264710005125,125.36670049332042L62.063016374802594,125.25071433397389L62.277768039600055,125.75911704680132L62.492519704397516,125.4544759373044L62.707271369194984,125.01678258077158L62.922023033992446,124.98210709455566L63.136774698789914,125.82924882270264L63.35152636358738,126.75005523747295L63.56627802838484,126.91163368658215L63.781029693182305,127.45876139161845L63.99578135797978,127.28225901906336L64.21053302277724,127.36806170361712L64.4252846875747,127.2711075781964L64.64003635237218,128.22219292564992L64.85478801716962,128.02806271753064L65.0695396819671,128.57987929174536L65.28429134676456,128.93572725354292L65.49904301156202,128.63681074694222L65.7137946763595,128.45980012690958L65.92854634115696,129.00160186711315L66.14329800595442,129.50163114561624L66.3580496707519,129.48362722195418L66.57280133554936,129.82553843896636L66.78755300034682,130.04949279766515L67.00230466514428,130.31668825129856L67.21705632994176,129.87264554569862L67.43180799473922,130.18539714240066L67.64655965953668,130.33753210090686L67.86131132433415,130.6550777253618L68.0760629891316,130.61116029075117L68.29081465392908,130.8748009038622L68.50556631872655,131.59963045892934L68.720317983524,131.92203902691298L68.93506964832147,131.4206814558629L69.14982131311893,130.39738292626672L69.3645729779164,130.8214045571409L69.57932464271387,130.85818250613073L69.79407630751132,131.34745039605923L70.0088279723088,131.00666167977548L70.22357963710627,130.8608771630432L70.43833130190372,131.24666598479706L70.65308296670119,131.53332012942957L70.86783463149865,132.07688308116167L71.08258629629611,132.343778766171L71.29733796109359,132.70984707312425L71.51208962589105,133.35401327028293L71.72684129068851,133.50848429273708L71.94159295548599,133.50043604927788L72.15634462028345,133.81884128239685L72.37109628508091,133.94813103651845L72.58584794987837,134.00238165141715L72.80059961467585,132.17086444433295L73.01535127947331,131.5863368249006L73.23010294427077,131.30347141251258L73.44485460906824,131.3230494545269L73.65960627386569,131.57989922703786L73.87435793866317,131.41714260825148L74.08910960346063,131.68759209463903L74.30386126825809,131.08999282977834L74.51861293305556,131.35998393019574L74.73336459785301,131.75411853887505L74.94811626265049,132.17946097440398L75.16286792744796,132.31822761187522L75.37761959224541,131.9445753879408L75.59237125704288,131.865446449878L75.80712292184036,131.95521531553337L76.02187458663781,132.40681202670015L76.23662625143528,132.60981876016007L76.45137791623274,132.9800327493634L76.6661295810302,132.31806307265543L76.88088124582768,132.79383003921328L77.09563291062514,133.11591396339787L77.3103845754226,132.96407081151057L77.52513624022006,133.34236257540942L77.73988790501754,133.1087110977225L77.954639569815,133.13622497021674L78.16939123461246,133.6529237383215L78.38414289940994,133.6497360553431L78.5988945642074,133.69267930765741L78.81364622900486,133.41600204690985L79.02839789380234,133.91432391924826L79.24314955859978,133.96456397562093L79.45790122339726,134.37598609194464L79.67265288819472,134.69972000897943L79.88740455299218,134.619879607084L80.10215621778966,134.95034352940718L80.3169078825871,134.89348138095303L80.53165954738458,135.05841915581127L80.74641121218205,134.9082743025559L80.9611628769795,134.74714469409167L81.17591454177698,134.981512006306L81.39066620657444,134.93726758005423L81.6054178713719,135.1643378239283L81.82016953616937,135.29131923120016L82.03492120096683,135.15472071276986L82.2496728657643,134.72704631271284L82.46442453056177,135.20881987634206L82.67917619535923,135.60147561931186L82.8939278601567,135.5342028516422L83.10867952495416,135.71295395966956L83.32343118975163,135.62729499779263L83.53818285454909,135.60576415219484L83.75293451934655,135.6289355758461L83.96768618414403,135.43527282572484L84.18243784894148,135.97183157887238L84.39718951373895,136.21653064782495L84.61194117853643,135.7840229734634L84.82669284333387,136.13550527206255L85.04144450813135,136.26297811502064L85.25619617292881,136.36005778019074L85.47094783772627,136.2580215275575L85.68569950252375,136.4912160136073L85.9004511673212,136.3005111471265L86.11520283211867,136.4033367509985L86.32995449691614,136.365008594757L86.54470616171359,135.63866703433885L86.75945782651107,135.79876334577736L86.97420949130853,135.70786638400025L87.18896115610599,136.11312286413667L87.40371282090346,136.2268782784199L87.61846448570093,136.10592739975846L87.83321615049839,135.9569049249446L88.04796781529586,136.11611578615103L88.26271948009332,136.61721235557843L88.47747114489079,136.473515459239L88.69222280968825,136.36562524764585L88.90697447448572,136.86649334543037L89.12172613928318,136.96611126864397L89.33647780408064,137.06060850430228L89.55122946887812,137.22409274558777L89.76598113367557,137.18555116414856L89.98073279847304,137.57276644378524L90.1954844632705,137.2951155179493L90.41023612806796,137.58820781394132L90.62498779286544,137.42978904865507L90.83973945766289,137.6435537244504L91.05449112246036,137.64186990941252L91.26924278725784,137.9572484459556L91.48399445205528,138.3446589696579L91.69874611685276,138.0846826773315L91.91349778165024,138.16614319323244L92.12824944644768,138.1380522764214L92.34300111124516,138.20557720503447L92.55775277604262,138.5483492132328L92.77250444084008,138.52030208078062L92.98725610563756,137.92571264123978L93.20200777043502,137.74619532204596L93.41675943523248,138.13517497285912L93.63151110002994,138.05730155080866L93.84626276482742,138.60007554314137L94.06101442962488,138.897788671776L94.27576609442234,139.11068107214518L94.49051775921981,139.21434171466169L94.70526942401727,139.5319938753753L94.92002108881474,139.79093157561027L95.13477275361221,139.77170591703305L95.34952441840966,139.58087225597413L95.56427608320713,138.96199023911936L95.7790277480046,139.47123927610852L95.99377941280206,139.7121813651259L96.20853107759953,139.56619193481694L96.42328274239698,139.8250695344535L96.63803440719445,139.84399625222358L96.85278607199193,140.4621357950588L97.06753773678938,139.55929238868856L97.28228940158685,139.6999669210502L97.49704106638431,140.15368314414138L97.71179273118177,140.5468191811917L97.92654439597925,140.73010428038148L98.14129606077671,140.76191577237745L98.35604772557417,140.52367578632735L98.57079939037165,140.7917522823292L98.78555105516911,140.9470342272066L99.00030271996657,140.8987668690352L99.21505438476403,140.9338376363935L99.4298060495615,140.30890971626303L99.64455771435897,140.7431401302243L99.85930937915643,140.39736874505198L100.0740610439539,140.6147487446885L100.28881270875135,141.08166207979275L100.50356437354883,141.2083206653427L100.7183160383463,141.41043801685453L100.93306770314375,140.77741932536225L101.14781936794122,141.02179329999296L101.36257103273869,140.8704102998319L101.57732269753615,141.21663315722202L101.79207436233362,141.32017358684388L102.00682602713107,141.41314304069732L102.22157769192854,140.84348048086682L102.43632935672602,141.21740179506034L102.65108102152347,141.3429019414602L102.86583268632094,141.27060650290593L103.0805843511184,141.30166298624712L103.29533601591586,141.68621929073245L103.51008768071334,141.79419481022808L103.7248393455108,141.92628815292255L103.93959101030826,141.67488856513287L104.15434267510574,140.9638557984088L104.3690943399032,141.17938947140414L104.58384600470066,140.9549399600772L104.79859766949812,140.8433763090473L105.0133493342956,141.02380794472262L105.22810099909306,141.03094369112605L105.44285266389052,141.36241087768815L105.657604328688,141.9181755569858L105.87235599348544,142.1499216403064L106.08710765828292,142.3842697474455L106.30185932308038,142.15283594650955L106.51661098787784,142.31077946006909L106.73136265267532,142.30676529998493L106.94611431747276,142.35815941607663L107.16086598227024,142.2863397422749L107.37561764706771,142.3793913814893L107.59036931186516,142.3709397028137L107.80512097666264,142.71776280290075L108.01987264146011,142.94864569189403L108.23462430625756,143.03444206281674L108.44937597105503,143.13463771454704L108.6641276358525,143.21239954396313L108.87887930064996,142.95059514786874L109.09363096544743,143.16649778846926L109.30838263024489,143.0181199125695L109.52313429504235,142.6881436224626L109.73788595983982,143.21579493888632L109.95263762463729,143.61014187671816L110.16738928943475,143.66433967034322L110.38214095423221,143.7095942569624L110.59689261902969,143.37696075053225L110.81164428382715,143.0188697489088L111.02639594862461,143.17669117265163L111.24114761342209,143.1540620661973L111.45589927821953,143.5334679468194L111.67065094301701,143.5261073805145L111.88540260781447,143.7158755011368L112.10015427261193,143.9702668885783L112.3149059374094,143.832077395472L112.52965760220685,143.9169394921669L112.74440926700433,143.79995715311338L112.9591609318018,143.9708627641679L113.17391259659925,144.064356326231L113.38866426139673,144.27916143177552L113.60341592619419,144.3715146774387L113.81816759099165,144.38081747966356L114.03291925578912,144.2210085419723L114.24767092058659,144.78681221476714L114.46242258538405,144.8228606694895L114.67717425018152,144.43203011496573L114.89192591497898,144.46257371466828L115.10667757977644,144.09253222607956L115.3214292445739,144.24995057670807L115.53618090937138,144.40059387936392L115.75093257416884,144.57765558836266L115.9656842389663,144.5210161968454L116.18043590376378,144.77674279422848L116.39518756856123,144.49885310364613L116.6099392333587,144.3231819744015L116.82469089815618,144.4324428814757L117.03944256295362,144.61582288490033L117.2541942277511,144.24275477425252L117.46894589254856,144.38749758735813L117.68369755734602,143.2698756488052L117.8984492221435,142.95503809649287L118.11320088694094,143.50419305693043L118.32795255173842,143.44004606337012L118.5427042165359,143.4914382981044L118.75745588133334,144.15101281468228L118.97220754613082,144.36761613337947L119.18695921092828,144.50934921568555L119.40171087572574,144.58772144051431L119.61646254052322,144.617931891381L119.83121420532068,144.38078600324658L120.04596587011814,144.11611776954442L120.26071753491561,144.6221526675617L120.47546919971307,144.5773228257951L120.69022086451054,144.91786177383474L120.904972529308,145.08521499844352L121.11972419410547,145.10854041662353L121.33447585890293,145.3044636473217L121.5492275237004,145.2968128260815L121.76397918849787,145.46388534642531L121.97873085329532,145.4232205662274L122.1934825180928,145.395493575631L122.40823418289025,145.26122243436342L122.62298584768772,145.24263044904006L122.83773751248519,145.31400493463929L123.05248917728264,145.268258161961L123.26724084208011,145.26459826771884L123.48199250687759,145.32865166517774L123.69674417167504,145.37441551475442L123.91149583647251,145.31413372851875L124.12624750126999,144.89897933221326L124.34099916606743,145.10471225426272L124.55575083086491,145.47568008008452L124.77050249566237,145.45687561739922L124.98525416045983,145.4992924385036L125.2000058252573,145.694330998218L125.41475749005477,146.21090383029494L125.62950915485223,146.61680987063852L125.84426081964969,146.30072680927842L126.05901248444717,146.18605187178682L126.27376414924463,145.99528736685727L126.48851581404209,146.09886109533548L126.70326747883956,146.42160282188834L126.91801914363703,146.90221206727813L127.13277080843449,146.63356384660628L127.34752247323196,146.38924103961395L127.56227413802941,146.05350378649933L127.77702580282688,146.09555277938784L127.99177746762435,145.91321016002672L128.20652913242182,145.98775192075723L128.42128079721928,145.90667804382753L128.63603246201674,146.27536292260913L128.8507841268142,146.38558683819585L129.06553579161167,146.20351123907832L129.28028745640916,146.21721975584995L129.49503912120662,146.4849455139513L129.70979078600405,146.4129823471489L129.92454245080154,146.53267938067816L130.139294115599,146.94368895329816L130.35404578039646,146.9600750010783L130.56879744519392,146.73476467808766L130.78354910999138,146.6723852063412L130.99830077478885,146.942474813332L131.2130524395863,146.99663729697534L131.4278041043838,147.29149006302293L131.64255576918126,147.25277027113552L131.85730743397872,147.19234565476202L132.07205909877618,146.88300016640702L132.28681076357364,146.99278522964357L132.5015624283711,146.81412592188406L132.7163140931686,147.07544349857721L132.93106575796605,147.31287079734795L133.1458174227635,147.32322672731917L133.36056908756095,147.46815245128147L133.57532075235844,147.64323940700933L133.7900724171559,147.23744621314705L134.00482408195336,147.49981335618781L134.21957574675085,147.6288780427655L134.4343274115483,147.52340876344772L134.64907907634574,147.3841194422629L134.86383074114323,147.60000034000808L135.0785824059407,147.4023315429655L135.29333407073815,147.22862723495544L135.50808573553564,146.86185295106938L135.7228374003331,147.05529021000513L135.93758906513054,147.15564547834884L136.152340729928,147.31692830746678L136.3670923947255,147.4518505790428L136.58184405952295,147.4020626296028L136.7965957243204,147.574257901688L137.01134738911787,147.60194002811937L137.22609905391533,147.34313716205955L137.4408507187128,147.15968501032992L137.65560238351028,147.34595110687758L137.87035404830775,147.58246760952392L138.0851057131052,147.52822740788878L138.29985737790267,147.99364171872767L138.51460904270013,148.04917751656976L138.7293607074976,147.9329762178232L138.94411237229505,148.29339342442728L139.15886403709254,147.81261320945515L139.37361570189,147.89641899099712L139.58836736668744,148.0843935845075L139.80311903148493,148.19250847307578L140.0178706962824,148.32740406093828L140.23262236107985,148.2438145174445L140.44737402587734,148.5355371362483L140.6621256906748,148.5766496707978L140.87687735547223,148.85209127520682L141.0916290202697,148.85652328603686L141.30638068506718,148.87031774517223L141.52113234986464,149.00074855806534L141.7358840146621,147.99678629099105L141.95063567945957,147.99931768606547L142.16538734425703,148.31172272645298L142.3801390090545,148.29236661111662L142.59489067385198,148.71729718962922L142.80964233864944,149.0040857783846L143.0243940034469,148.74267791216909L143.23914566824436,148.65288362910462L143.45389733304182,148.68578139424892L143.66864899783928,148.96891226544435L143.88340066263675,149.12992635877174L144.09815232743424,149.39856608675666L144.3129039922317,149.1508783528212L144.52765565702913,149.2695617219786L144.74240732182662,149.14199266953105L144.95715898662408,149.07918594388462L145.17191065142154,148.94485777250222L145.38666231621903,148.74327467906065L145.6014139810165,148.9477188069636L145.81616564581392,149.14291242746143L146.03091731061141,149.3262888455814L146.24566897540888,149.3083842795202L146.46042064020634,149.3781301236726L146.6751723050038,149.64275525636643L146.88992396980126,149.9767608864172L147.10467563459872,149.4717226813714L147.31942729939618,149.10047532462602L147.53417896419367,149.3291031642519L147.74893062899113,149.44570085263064L147.9636822937886,149.63895909964867L148.17843395858606,149.4686210875168L148.39318562338352,149.8381809412684L148.60793728818098,149.93775475141865L148.82268895297847,149.86471293374132L149.03744061777593,149.5626290032974L149.2521922825734,149.69582618512027L149.46694394737082,149.679421617948L149.6816956121683,149.59094834368608L149.89644727696577,149.66887991585202L150.11119894176323,149.26488541069148L150.32595060656072,149.30862757657363L150.54070227135819,149.38186883356948L150.75545393615562,149.6738083134264L150.9702056009531,149.98046662742175L151.18495726575057,149.89767413010432L151.39970893054803,149.94378046798667L151.61446059534552,149.6452582983718L151.82921226014298,149.89463022804964L152.0439639249404,149.7883460871951L152.25871558973788,150.03412777470098L152.47346725453536,150.02598917639455L152.68821891933283,150.16840406549602L152.9029705841303,149.98692206883953L153.11772224892775,150.19677695193135L153.3324739137252,150.1727321356787L153.54722557852267,150.3839633778771L153.76197724332016,150.61865347355507L153.97672890811762,150.62100752783036L154.19148057291508,150.50815843824827L154.40623223771254,150.17559346709095L154.62098390251,150.12147891521897L154.83573556730747,150.4377995857886L155.05048723210493,150.45251654456607L155.26523889690242,150.10940736106957L155.47999056169988,150.3852044196346L155.6947422264973,150.71346793100605L155.9094938912948,150.56707577145772L156.12424555609226,150.43954468464057L156.33899722088972,150.55185947737488L156.5537488856872,150.7211640652111L156.76850055048467,150.84934659109445L156.9832522152821,150.48371272664002L157.19800388007957,150.38664591398424L157.41275554487706,150.28223011938255L157.62750720967452,150.63672365191894L157.84225887447198,150.5171696598777L158.05701053926944,150.65685228904994L158.2717622040669,150.78891303323172L158.48651386886436,150.77695045545562L158.70126553366185,150.63129901306044L158.91601719845931,150.3013407425263L159.13076886325678,150.47434091708223L159.34552052805424,150.59929485234346L159.5602721928517,150.7947363274729L159.77502385764916,150.8809816216545L159.98977552244662,151.02874238372215L160.2045271872441,151.12690258910365L160.41927885204157,151.01551012271725L160.634030516839,151.0193346299385L160.8487821816365,150.90368919317206L161.06353384643396,150.82453461414207L161.27828551123142,150.81976808594152L161.4930371760289,150.60057432757995L161.70778884082637,150.42134793214998L161.9225405056238,150.22050175373633L162.1372921704213,150.46289602165416L162.35204383521875,150.59806136029175L162.5667955000162,150.27551196348918L162.78154716481367,148.95837779595496L162.99629882961113,148.54930662906906L163.2110504944086,147.8912597379326L163.42580215920606,148.1767185539764L163.64055382400355,148.03126646577007L163.855305488801,147.4361889839713L164.07005715359847,147.70085067492454L164.28480881839593,147.45039082467622L164.4995604831934,147.36159960162746L164.71431214799085,147.6833688629232L164.92906381278834,147.74354141696736L165.1438154775858,147.67756654939893L165.35856714238327,147.74586016142163L165.5733188071807,147.90588610925136L165.7880704719782,147.9136318915051L166.00282213677565,147.92126407496136L166.2175738015731,148.1466587535109L166.4323254663706,148.60559520020044L166.64707713116806,148.64372984934073L166.8618287959655,148.28752014599647L167.07658046076298,148.3206944869859L167.29133212556044,148.41679913268842L167.5060837903579,148.3971573610785L167.7208354551554,148.6706230295642L167.93558711995286,148.8667559345026L168.1503387847503,148.82773028622847L168.36509044954775,148.88745740199874L168.57984211434524,149.11011448467335L168.7945937791427,149.21172641896456L169.00934544394016,149.2444060548526L169.22409710873762,149.1737826504325L169.43884877353509,149.35692145277204L169.65360043833255,149.42406291746755L169.86835210313004,149.53854377823603L170.0831037679275,149.12212052477128L170.29785543272496,149.24356739415933L170.51260709752242,149.43960375104376L170.72735876231988,149.4337827711603L170.94211042711734,149.3797389236115L171.1568620919148,149.57938345741573L171.3716137567123,149.37736155063766L171.58636542150975,148.98027250884766L171.8011170863072,149.10970104467825L172.01586875110468,148.93915889213443L172.23062041590214,149.00611230526394L172.4453720806996,149.32836935516877L172.6601237454971,149.50845870750265L172.87487541029455,149.47803439301944L173.08962707509198,149.57060674952575L173.30437873988944,149.7337712486185L173.51913040468693,149.9133819969036L173.7338820694844,150.0602566316949L173.94863373428186,149.96561160205607L174.16338539907932,149.55058461325794L174.37813706387678,149.62608911444553L174.59288872867424,149.8615533213144L174.80764039347173,150.05058614636138L175.0223920582692,150.1031496601366L175.23714372306665,150.25549606690944L175.4518953878641,149.7593631973819L175.66664705266157,149.72500410375088L175.88139871745904,149.87012202217514L176.0961503822565,149.59197927811377L176.310902047054,149.4897159862023L176.52565371185145,149.8068231290905L176.74040537664888,150.04289393480747L176.95515704144637,149.88376446987212L177.16990870624383,149.5754595516679L177.3846603710413,149.8520773697629L177.59941203583878,149.90756246970616L177.81416370063624,149.5926193848501L178.02891536543368,150.00513516973584L178.24366703023117,149.99889496019225L178.45841869502863,150.11802688110373L178.6731703598261,150.35185196450328L178.88792202462355,150.47039904967406L179.102673689421,150.38575644108914L179.31742535421847,150.31694147857374L179.53217701901593,150.19962051116391L179.74692868381342,150.48089160528326L179.96168034861088,150.35029905871667L180.17643201340834,150.30015380953603L180.3911836782058,150.1794868552442L180.60593534300327,150.38106675235196L180.82068700780073,149.27628559031868L181.03543867259822,148.97076529749017L181.25019033739568,148.9524069071401L181.46494200219314,148.65003145901647L181.67969366699057,148.72901623131378L181.89444533178806,148.77795859611348L182.10919699658552,148.92163657066308L182.32394866138299,149.1077014814037L182.53870032618048,148.9628053669213L182.75345199097794,149.34562718099477L182.96820365577537,149.22304129034063L183.18295532057286,149.23278150243544L183.39770698537032,148.81831923622363L183.61245865016778,148.74442780030824L183.82721031496527,148.50341040045635L184.04196197976273,148.809970417352L184.25671364456016,148.4860933867327L184.47146530935763,148.65000628377518L184.68621697415512,148.73834437213702L184.90096863895258,148.94403451035777L185.11572030375004,148.9929463529578L185.3304719685475,149.22601892943678L185.54522363334496,149.16597587874776L185.75997529814242,148.9977893406041L185.9747269629399,149.15230637766652L186.18947862773737,149.0781067737045L186.40423029253483,149.26174437103822L186.6189819573323,149.19369554416548L186.83373362212976,149.01499963512882L187.04848528692722,149.14458580089664L187.26323695172468,148.94541799905917L187.47798861652217,148.51640910554957L187.69274028131963,148.7625881409725L187.90749194611706,148.57788878937063L188.12224361091455,148.57432246029126L188.336995275712,148.8233324272175L188.55174694050947,148.87744542157373L188.76649860530696,149.089168174301L188.98125027010443,149.02142534311216L189.19600193490186,149.3705087029937L189.41075359969932,149.287556942569L189.6255052644968,149.17544883353114L189.84025692929427,149.3358082490144L190.05500859409173,149.546051554044L190.2697602588892,150.02070640866327L190.48451192368665,149.82694270510552L190.69926358848411,150.12897172877487L190.9140152532816,150.02678814157335L191.12876691807907,149.6043626555657L191.34351858287653,149.63345021946847L191.558270247674,149.7838475148484L191.77302191247145,149.9631284879649L191.9877735772689,149.87389124654132L192.20252524206637,150.15855981264107L192.41727690686386,150.1612717668766L192.63202857166132,150.02480267776014L192.84678023645876,150.01175120437327L193.06153190125625,149.81746666688446L193.2762835660537,149.89844507596302L193.49103523085117,149.73844311625078L193.70578689564866,149.86247362631832L193.92053856044612,150.15931814766432L194.13529022524355,150.0151130996774L194.35004189004104,150.25836738755913L194.5647935548385,150.21385085444658L194.77954521963596,150.35522314943717L194.99429688443342,150.58156332779544L195.20904854923089,150.5048056511677L195.42380021402835,150.50632709246597L195.6385518788258,150.84840502361567L195.8533035436233,150.6952389452358L196.06805520842076,150.93175717796683L196.28280687321822,150.8995486282724L196.49755853801568,150.5854526117981L196.71231020281314,150.71893345423234L196.9270618676106,150.72013736293752L197.1418135324081,150.79806800959045L197.35656519720555,150.79236393236602L197.57131686200302,150.65498652693313L197.78606852680045,150.78291955237773L198.00082019159794,150.5004479557918L198.2155718563954,150.51059664821696L198.43032352119286,150.513212840741L198.64507518599035,150.4840328781949L198.8598268507878,150.58779639126666L199.07457851558524,150.629936834018L199.28933018038273,150.5121095593969L199.5040818451802,150.49695341571322L199.71883350997766,150.67912838172853L199.93358517477515,150.7050338725072L200.1483368395726,150.49184356801206L200.36308850437004,150.79334313725818L200.5778401691675,150.5583159879644L200.792591833965,150.87250860100858L201.00734349876245,151.069702771372L201.2220951635599,151.2764979140224L201.43684682835737,151.43779819929873L201.65159849315484,151.2128964873417L201.8663501579523,151.0246829803518L202.0811018227498,150.73363968762547L202.29585348754725,151.12938331088856L202.5106051523447,151.16128472490715L202.72535681714217,151.14949572888287L202.94010848193963,151.4842638664788L203.1548601467371,151.32663467086212L203.36961181153455,151.4297604634063L203.58436347633204,151.4585671811931L203.7991151411295,151.3563522008072L204.01386680592694,151.11965190991228L204.22861847072443,151.36028835162506L204.4433701355219,151.38747878625196L204.65812180031935,151.18147652592677L204.87287346511684,151.24857126252886L205.0876251299143,151.1925805791841L205.30237679471173,151.59676798527715L205.5171284595092,151.51880418423838L205.73188012430668,151.61106197876245L205.94663178910415,151.62766507736004L206.1613834539016,151.78573120750238L206.37613511869907,151.5173493478809L206.59088678349653,151.74125621594033L206.805638448294,151.76621600450716L207.02039011309148,152.07807073749106L207.23514177788894,151.93568860331357L207.4498934426864,151.90687386473067L207.66464510748386,151.77140017847668L207.87939677228132,151.71319622402117L208.0941484370788,151.6492829512601L208.30890010187625,151.5525030009237L208.52365176667374,151.22599011649424L208.7384034314712,150.84628621070183L208.95315509626863,150.80845497648227L209.16790676106612,150.62763446550588L209.38265842586358,150.70126276284532L209.59741009066104,150.71950108790102L209.81216175545853,150.34204653986527L210.026913420256,150.02162491036694L210.24166508505343,150.05439213911603L210.45641674985092,150.47870720378438L210.67116841464838,150.4627301990535L210.88592007944584,150.2527348430595L211.1006717442433,150.21599911631068L211.31542340904076,150.08832504694885L211.53017507383822,149.95526390475942L211.74492673863568,149.69212955897976L211.95967840343317,149.8313904678601L212.17443006823063,150.1022847818093L212.3891817330281,150.04683747261998L212.60393339782556,149.6009628984608L212.81868506262302,149.94001700763107L213.03343672742048,149.77548546056383L213.24818839221797,149.796604024295L213.46294005701543,149.68048011391082L213.6776917218129,149.80211861857532L213.89244338661032,149.9640600566597L214.1071950514078,149.86118778205835L214.32194671620528,150.1077196140218L214.53669838100274,150.17214351121586L214.75145004580023,150.00373565092397L214.9662017105977,150.18056148244926L215.18095337539512,150.05078384980158L215.3957050401926,149.9061258681647L215.61045670499007,149.8507890153337L215.82520836978753,150.08085278616764L216.03996003458502,149.76989761893253L216.25471169938248,149.89649525333735L216.46946336417992,149.69946570211914L216.68421502897738,149.8747523900626L216.89896669377487,149.4950781255655L217.11371835857233,149.36442356427776L217.3284700233698,149.2206831964212L217.54322168816725,149.42462201458724L217.7579733529647,149.45894097664203L217.97272501776217,149.728957423983L218.18747668255966,149.69666366025635L218.40222834735712,149.39508157578697L218.61698001215458,149.24650970958754L218.83173167695205,149.18428156174073L219.0464833417495,149.31865337086955L219.26123500654697,149.10298578971938L219.47598667134443,149.18621488721922L219.69073833614192,149.37481948786248L219.90549000093938,149.55781018507807L220.1202416657368,149.59166138233468L220.3349933305343,149.74153201218675L220.54974499533176,149.49899808450346L220.76449666012923,149.5763035547996L220.97924832492671,149.6853434832518L221.19399998972418,149.5801850109875L221.4087516545216,149.6578168910992L221.62350331931907,149.7838833062362L221.83825498411656,150.0273061223321L222.05300664891402,150.01961260177617L222.26775831371148,149.91666929423067L222.48250997850894,149.94162145998038L222.6972616433064,149.90329103660036L222.91201330810387,149.96916547993223L223.12676497290136,150.0096019841003L223.34151663769882,149.7332144924716L223.55626830249628,149.80567325472782L223.77101996729374,149.7016715994896L223.9857716320912,149.83931818209481L224.20052329688866,149.8452261066791L224.41527496168612,149.85979080385857L224.6300266264836,149.6244122102297L224.84477829128107,149.60975288721355L225.0595299560785,149.64793562395138L225.274281620876,149.57165304171517L225.48903328567346,149.8170676050195L225.70378495047092,149.6320054865537L225.9185366152684,149.6631617478248L226.13328828006587,149.93535136765342L226.3480399448633,150.1272754213881L226.5627916096608,149.4584300157547L226.77754327445825,149.77691155245526L226.99229493925571,149.53072416808251L227.20704660405318,149.45384425958494L227.42179826885064,149.6847695886346L227.6365499336481,149.6946818885736L227.85130159844556,149.69300673221804L228.06605326324305,149.8141375857407L228.2808049280405,149.74981662271887L228.49555659283797,149.78267348931666L228.71030825763543,150.13442366985413L228.9250599224329,150.13596875720748L229.13981158723035,149.98692901357154L229.35456325202784,150.15003463535052L229.5693149168253,149.8167389776195L229.78406658162277,149.88461900247484L229.9988182464202,149.92762305840648L230.2135699112177,149.9021613393565L230.42832157601515,149.94271379009098L230.6430732408126,150.0939109146818L230.8578249056101,149.8413620587613L231.07257657040756,149.74792557824657L231.287328235205,149.70736210376631L231.50207990000249,149.54708722995113L231.71683156479995,149.84530142945218L231.9315832295974,150.0342193091927L232.1463348943949,150.07630548467637L232.36108655919236,149.9479479137475L232.5758382239898,149.89624705866206L232.79058988878725,149.90919612010464L233.00534155358474,150.0423725272673L233.2200932183822,150.04545110328385L233.43484488317966,149.885161320378L233.64959654797713,149.9300953650743L233.8643482127746,150.03882039763326L234.07909987757205,150.2586095372231L234.29385154236954,150.25794504461658L234.508603207167,150.39430611569654L234.72335487196446,150.52771825230755L234.93810653676192,150.61931828696274L235.15285820155938,150.92200657159336L235.36760986635684,150.9162591538364L235.5823615311543,150.5718734719118L235.7971131959518,150.2930964323235L236.01186486074926,149.77399206764406L236.2266165255467,148.59186461272762" fill="none"></path></g></g></g></g><g opacity="0.2"><g><g><g><path style="fill: none;" stroke="rgb(0, 119, 187)" stroke-width="2px" d="M21.689703392879167,161.10121358972287L21.904455057676632,160.06423180012425L22.1192067224741,158.5498416463142L22.33395838727156,156.81654455720374L22.54871005206903,153.9992038284172L22.76346171686649,149.4847549620224L22.97821338166396,147.8803921844245L23.192965046461424,145.01765740162654L23.40771671125889,139.30379301991226L23.622468376056354,134.97062395232788L23.837220040853815,132.22538177575728L24.051971705651283,132.14246040151423L24.266723370448748,120.58039355054895L24.481475035246213,120.64916234915427L24.696226700043677,125.48523289826348L24.910978364841146,114.89380674036087L25.125730029638607,88.52266115523354L25.340481694436075,102.15739767925203L25.555233359233537,104.02765390284713L25.769985024031005,108.53656246164269L25.98473668882847,107.75983792395755L26.19948835362593,108.6304854064881L26.4142400184234,106.68136423360427L26.62899168322086,98.75620571842984L26.84374334801833,82.6958528245037L27.058495012815794,101.56836094206552L27.27324667761326,101.78059568258878L27.487998342410723,93.97047220529035L27.70275000720819,96.90570705092306L27.917501672005653,93.5223109030315L28.13225333680312,90.21971270409686L28.347005001600582,87.13992684981794L28.561756666398047,91.19663923901747L28.776508331195515,82.64377680741983L28.991259995992976,88.29877811559437L29.206011660790445,72.93278169728303L29.420763325587906,75.8796001691803L29.635514990385374,66.31050448078426L29.85026665518284,66.81928580237793L30.065018319980304,66.6048162555468L30.27976998477777,76.91473227031855L30.494521649575233,77.29099173361766L30.709273314372698,65.98241910587073L30.924024979170163,64.07056746004712L31.138776643967628,70.06538148684719L31.353528308765092,71.21864214391776L31.56827997356256,67.70541883987133L31.783031638360022,68.29112492521315L31.99778330315749,56.23734140307091L32.21253496795495,54.26288643713764L32.42728663275242,53.02797271229777L32.64203829754989,58.86507121226509L32.85678996234735,55.63955586627083L33.07154162714481,53.518660007257374L33.28629329194228,51.1382319957645L33.50104495673974,-38.662882085014225L33.71579662153721,-66.343135527228L33.93054828633468,3.2402104549961366L34.14529995113214,24.41114140853527L34.3600516159296,34.09578592468193L34.574803280727075,42.57239906453441L34.789554945524536,40.8745067686035L35.004306610322,51.170898971570125L35.21905827511946,39.40968105720388L35.43380993991693,59.28982812820655L35.648561604714395,42.111396608345835L35.863313269511856,51.22374387699784L36.078064934309324,54.980252076089336L36.292816599106786,46.725977013315934L36.507568263904254,48.033971060184655L36.72231992870172,53.61678309450454L36.937071593499184,40.50383072813786L37.151823258296645,51.130126331728256L37.36657492309412,45.50679316309956L37.58132658789158,50.36375304319577L37.79607825268904,52.100952061004556L38.010829917486504,53.79921083642646L38.22558158228397,50.826214231475994L38.44033324708144,56.79289556793753L38.6550849118789,54.76079553383166L38.86983657667637,50.456457982674046L39.08458824147383,52.302012769988494L39.2993399062713,66.20229961459839L39.51409157106877,53.36940225220712L39.72884323586623,63.17141362181465L39.94359490066369,59.9559728688867L40.15834656546116,63.23370794941229L40.37309823025863,73.58888058838637L40.58784989505609,62.12598416556655L40.80260155985355,69.97199388949352L41.01735322465102,71.67769004282103L41.232104889448486,77.16126517967601L41.44685655424595,73.32001398769502L41.661608219043416,75.41691621885654L41.87635988384088,82.92362342109645L42.091111548638345,75.01309893500871L42.30586321343581,81.51790869583341L42.520614878233275,73.6378810520948L42.735366543030736,82.01101762978254L42.950118207828204,76.27585072941984L43.16486987262567,83.35310145518665L43.379621537423134,89.02873340294278L43.594373202220595,86.9296969676866L43.80912486701806,91.99748315732107L44.02387653181553,93.07900006462411L44.23862819661299,85.14730599852686L44.45337986141046,87.26984023644127L44.66813152620792,87.55100905063442L44.882883191005384,92.9251577230002L45.09763485580286,92.06365067012752L45.31238652060032,90.18654271722521L45.52713818539778,89.38593593270987L45.74188985019525,97.29763171599433L45.95664151499272,89.75393164278053L46.17139317979018,97.42153052744183L46.38614484458764,90.11289471127891L46.60089650938511,101.78586651997406L46.81564817418257,99.18646701260867L47.03039983898004,98.89559727071257L47.24515150377751,99.87687125841855L47.45990316857497,105.65073408150741L47.67465483337243,100.12070227976392L47.889406498169905,106.41329885768246L48.104158162967366,105.05134609516827L48.31890982776483,103.76989666084374L48.533661492562295,103.53465994285594L48.748413157359764,106.30247833395298L48.963164822157225,108.33571373589372L49.177916486954686,104.33334091357543L49.392668151752154,111.00831213218211L49.607419816549616,105.1770198170918L49.822171481347084,106.51542088290496L50.03692314614455,107.17458814151135L50.25167481094201,104.19259482435046L50.466426475739475,108.20185530533784L50.68117814053695,106.85262872279544L50.89592980533441,108.644911045276L51.11068147013187,113.57011156235814L51.325433134929334,113.35071610001562L51.5401847997268,111.76918463541341L51.75493646452427,110.69753393087785L51.96968812932173,113.33965344949807L52.1844397941192,113.96175597840687L52.39919145891666,108.22903946052321L52.61394312371413,116.96676205184086L52.8286947885116,113.46492476256876L53.04344645330906,110.40732888217623L53.25819811810652,114.56901249499398L53.472949782903996,114.58303213199284L53.68770144770146,108.77959585115472L53.90245311249892,116.06235893384026L54.11720477729638,109.78595212637705L54.33195644209385,115.77106522547419L54.546708106891316,117.18401612421637L54.76145977168878,119.77367518158077L54.976211436486246,117.23732451841214L55.19096310128371,114.16068248329618L55.405714766081175,118.27419560066454L55.62046643087864,120.32557533034596L55.835218095676105,118.8422495905232L56.049969760473566,119.38320206272877L56.264721425271034,118.55455241127957L56.4794730900685,121.1913867207698L56.694224754865964,119.9006639181485L56.908976419663425,121.97269584502861L57.12372808446089,121.83126709792826L57.33847974925836,118.42880683063233L57.55323141405582,120.7031318436083L57.76798307885329,121.40913661833899L57.98273474365075,120.00923167088916L58.19748640844822,124.38709147522654L58.41223807324569,121.98084821723526L58.62698973804315,122.11677258609825L58.84174140284061,125.1875222058687L59.05649306763808,122.15626973359399L59.27124473243555,116.75353566093018L59.48599639723301,123.82612634846338L59.70074806203047,120.86690865378728L59.91549972682794,122.19757053505519L60.13025139162541,124.83813071937058L60.34500305642287,120.27691619557524L60.55975472122034,123.14597993546532L60.7745063860178,125.74012657012638L60.98925805081526,124.9479955220745L61.204009715612735,128.59837916503201L61.418761380410196,125.48577543162762L61.63351304520766,126.55324395844232L61.848264710005125,126.9965547968497L62.063016374802594,124.78676969658778L62.277768039600055,127.79272789811112L62.492519704397516,124.23591149931661L62.707271369194984,123.2660091546402L62.922023033992446,124.84340514969202L63.136774698789914,129.21781573529057L63.35152636358738,130.43328089655412L63.56627802838484,127.55794748301899L63.781029693182305,129.64727221176366L63.99578135797978,126.57624952884302L64.21053302277724,127.7112724418321L64.4252846875747,126.88329107651354L64.64003635237218,132.02653431546406L64.85478801716962,127.25154188505346L65.0695396819671,130.78714558860418L65.28429134676456,130.35911910073324L65.49904301156202,127.44114472053937L65.7137946763595,127.75175764677904L65.92854634115696,131.16880882792745L66.14329800595442,131.50174825962864L66.3580496707519,129.41161152730587L66.57280133554936,131.19318330701515L66.78755300034682,130.9453102324602L67.00230466514428,131.38547006583224L67.21705632994176,128.09647472329883L67.43180799473922,131.43640352920886L67.64655965953668,130.9460719349317L67.86131132433415,131.92526022318154L68.0760629891316,130.4354905523087L68.29081465392908,131.92936335630628L68.50556631872655,134.49894867919795L68.720317983524,133.21167329884742L68.93506964832147,129.4152511716626L69.14982131311893,126.3041888078821L69.3645729779164,132.51749108063765L69.57932464271387,131.00529430209008L69.79407630751132,133.3045219557731L70.0088279723088,129.64350681464046L70.22357963710627,130.27773909611412L70.43833130190372,132.78982127181254L70.65308296670119,132.6799367079596L70.86783463149865,134.2511348880901L71.08258629629611,133.4113615062082L71.29733796109359,134.1741203009373L71.51208962589105,135.93067805891772L71.72684129068851,134.1263683825536L71.94159295548599,133.46824307544122L72.15634462028345,135.09246221487257L72.37109628508091,134.4652900530049L72.58584794987837,134.21938411101198L72.80059961467585,124.84479561599612L73.01535127947331,129.2482263471712L73.23010294427077,130.17200976296058L73.44485460906824,131.40136162258412L73.65960627386569,132.6072983170817L73.87435793866317,130.76611613310592L74.08910960346063,132.7693900401893L74.30386126825809,128.69959577033555L74.51861293305556,132.43994833186545L74.73336459785301,133.33065697359208L74.94811626265049,133.88083071651974L75.16286792744796,132.87329416176019L75.37761959224541,130.4499664922032L75.59237125704288,131.54893069762682L75.80712292184036,132.31429077815477L76.02187458663781,134.2131988713673L76.23662625143528,133.42184569399976L76.45137791623274,134.46088870617675L76.6661295810302,129.67018436582353L76.88088124582768,134.6968979054446L77.09563291062514,134.40424966013632L77.3103845754226,132.35669820396137L77.52513624022006,134.85552963100483L77.73988790501754,132.17410518697486L77.954639569815,133.2462804601936L78.16939123461246,135.71971881074057L78.38414289940994,133.63698532342963L78.5988945642074,133.86445231691462L78.81364622900486,132.30929300391966L79.02839789380234,135.90761140860184L79.24314955859978,134.16552420111165L79.45790122339726,136.0216745572394L79.67265288819472,135.9946556771186L79.88740455299218,134.30051799950235L80.10215621778966,136.27219921869982L80.3169078825871,134.6660327871364L80.53165954738458,135.71817025524427L80.74641121218205,134.30769488953445L80.9611628769795,134.1026262602347L81.17591454177698,135.9189812551633L81.39066620657444,134.76028987504714L81.6054178713719,136.0726187994246L81.82016953616937,135.7992448602876L82.03492120096683,134.60832663904864L82.2496728657643,133.0163487124848L82.46442453056177,137.13591413085896L82.67917619535923,137.17209859119095L82.8939278601567,135.26511178096354L83.10867952495416,136.42795839177913L83.32343118975163,135.284659150285L83.53818285454909,135.51964076980354L83.75293451934655,135.72162127045118L83.96768618414403,134.66062182523987L84.18243784894148,138.11806659146248L84.39718951373895,137.1953269236352L84.61194117853643,134.05399227601725L84.82669284333387,137.5414344664591L85.04144450813135,136.77286948685298L85.25619617292881,136.7483764408711L85.47094783772627,135.84987651702457L85.68569950252375,137.42399395780643L85.9004511673212,135.5376916812034L86.11520283211867,136.81463916648653L86.32995449691614,136.21169596979104L86.54470616171359,132.73330079266626L86.75945782651107,136.43914859153128L86.97420949130853,135.34427853689192L87.18896115610599,137.73414878468233L87.40371282090346,136.68189993555268L87.61846448570093,135.62212388511279L87.83321615049839,135.36081502568928L88.04796781529586,136.75295923097673L88.26271948009332,138.62159863328802L88.47747114489079,135.89872787388126L88.69222280968825,135.93406440127328L88.90697447448572,138.86996573656856L89.12172613928318,137.36458296149826L89.33647780408064,137.43859744693552L89.55122946887812,137.8780297107298L89.76598113367557,137.03138483839166L89.98073279847304,139.12162756233192L90.1954844632705,136.18451181460568L90.41023612806796,138.7605769979093L90.62498779286544,136.7961139875101L90.83973945766289,138.4986124276318L91.05449112246036,137.63513464926095L91.26924278725784,139.21876259212786L91.48399445205528,139.89430106446704L91.69874611685276,137.04477750802602L91.91349778165024,138.49198525683622L92.12824944644768,138.02568860917717L92.34300111124516,138.47567691948672L92.55775277604262,139.91943724602623L92.77250444084008,138.4081135509719L92.98725610563756,135.5473548830764L93.20200777043502,137.0281260452707L93.41675943523248,139.69109357611177L93.63151110002994,137.74580786260677L93.84626276482742,140.77117151247222L94.06101442962488,140.08864118631456L94.27576609442234,139.96225067362187L94.49051775921981,139.62898428472775L94.70526942401727,140.80260251822978L94.92002108881474,140.8266823765502L95.13477275361221,139.6948032827241L95.34952441840966,138.81753761173843L95.56427608320713,136.48646217170023L95.7790277480046,141.50823542406516L95.99377941280206,140.67594972119548L96.20853107759953,138.98223421358108L96.42328274239698,140.8605799329996L96.63803440719445,139.919703123304L96.85278607199193,142.93469396639966L97.06753773678938,135.94791876320755L97.28228940158685,140.26266505049682L97.49704106638431,141.968548036506L97.71179273118177,142.119363329393L97.92654439597925,141.46324467714064L98.14129606077671,140.88916174036143L98.35604772557417,139.57071584212682L98.57079939037165,141.86405826633674L98.78555105516911,141.56816200671605L99.00030271996657,140.70569743634974L99.21505438476403,141.07412070582657L99.4298060495615,137.80919803574125L99.64455771435897,142.48006178606934L99.85930937915643,139.01428320436267L100.0740610439539,141.48426874323462L100.28881270875135,142.9493154202097L100.50356437354883,141.71495500754253L100.7183160383463,142.21890742290185L100.93306770314375,138.24534455939317L101.14781936794122,141.99928919851578L101.36257103273869,140.26487829918753L101.57732269753615,142.60152458678255L101.79207436233362,141.73433530533129L102.00682602713107,141.78502085611106L102.22157769192854,138.56483024154485L102.43632935672602,142.7130870518345L102.65108102152347,141.84490252705962L102.86583268632094,140.98142474868877L103.0805843511184,141.42588891961194L103.29533601591586,143.2244445086737L103.51008768071334,142.22609688821058L103.7248393455108,142.45466152370048L103.93959101030826,140.6692902139742L104.15434267510574,138.11972473151243L104.3690943399032,142.04152416338545L104.58384600470066,140.0571419147695L104.79859766949812,140.39712170492768L105.0133493342956,141.7455344874239L105.22810099909306,141.05948667673988L105.44285266389052,142.68827962393635L105.657604328688,144.14123427417653L105.87235599348544,143.07690597358862L106.08710765828292,143.32166217600195L106.30185932308038,141.2271007427658L106.51661098787784,142.94255351430715L106.73136265267532,142.29070865964835L106.94611431747276,142.5637358804434L107.16086598227024,141.99906104706795L107.37561764706771,142.75159793834706L107.59036931186516,142.33713298811122L107.80512097666264,144.10505520324884L108.01987264146011,143.8721772478673L108.23462430625756,143.37762754650748L108.44937597105503,143.53542032146822L108.6641276358525,143.52344686162743L108.87887930064996,141.90337756349123L109.09363096544743,144.03010835087122L109.30838263024489,142.42460840897036L109.52313429504235,141.36823846203507L109.73788595983982,145.32640020458123L109.95263762463729,145.18752962804555L110.16738928943475,143.8811308448435L110.38214095423221,143.89061260343908L110.59689261902969,142.04642672481162L110.81164428382715,141.58650574241508L111.02639594862461,143.80797686762287L111.24114761342209,143.06354564037994L111.45589927821953,145.05109146930792L111.67065094301701,143.49666511529497L111.88540260781447,144.47494798362587L112.10015427261193,144.98783243834427L112.3149059374094,143.2793194230467L112.52965760220685,144.25638787894667L112.74440926700433,143.33202779689935L112.9591609318018,144.65448520838592L113.17391259659925,144.43833057448344L113.38866426139673,145.13838185395346L113.60341592619419,144.74092766009153L113.81816759099165,144.41802868856288L114.03291925578912,143.58177279120736L114.24767092058659,147.05002690594637L114.46242258538405,144.96705448837903L114.67717425018152,142.86870789687063L114.89192591497898,144.58474811347844L115.10667757977644,142.61236627172462L115.3214292445739,144.87962397922223L115.53618090937138,145.00316708998727L115.75093257416884,145.28590242435763L115.9656842389663,144.29445863077643L116.18043590376378,145.79964918376075L116.39518756856123,143.38729434131665L116.6099392333587,143.62049745742303L116.82469089815618,144.86948650977263L117.03944256295362,145.3493428985987L117.2541942277511,142.75048233166123L117.46894589254856,144.96646883978067L117.68369755734602,138.79938789459345L117.8984492221435,141.69568788724362L118.11320088694094,145.7008128986806L118.32795255173842,143.1834580891288L118.5427042165359,143.69700723704165L118.75745588133334,146.78931088099358L118.97220754613082,145.23402940816828L119.18695921092828,145.07628154490988L119.40171087572574,144.90121033982936L119.61646254052322,144.73877369484785L119.83121420532068,143.4322024507089L120.04596587011814,143.05744483473566L120.26071753491561,146.64629225963083L120.47546919971307,144.39800345872868L120.69022086451054,146.28001756599335L120.904972529308,145.75462789687865L121.11972419410547,145.20184208934356L121.33447585890293,146.08815657011436L121.5492275237004,145.26620954112067L121.76397918849787,146.13217542780052L121.97873085329532,145.26056144543585L122.1934825180928,145.28458561324538L122.40823418289025,144.72413786929306L122.62298584768772,145.16826250774662L122.83773751248519,145.5995028770362L123.05248917728264,145.08527107124794L123.26724084208011,145.24995869075016L123.48199250687759,145.5848652550133L123.69674417167504,145.55747091306105L123.91149583647251,145.0730065835761L124.12624750126999,143.23836174699127L124.34099916606743,145.92764394246063L124.55575083086491,146.9595513833717L124.77050249566237,145.38165776665807L124.98525416045983,145.6689597229212L125.2000058252573,146.4744852370755L125.41475749005477,148.2771951586027L125.62950915485223,148.24043403201281L125.84426081964969,145.03639456383797L126.05901248444717,145.72735212182053L126.27376414924463,145.23222934713897L126.48851581404209,146.51315600924838L126.70326747883956,147.71256972809977L126.91801914363703,148.82464904883736L127.13277080843449,145.55897096391885L127.34752247323196,145.41194981164455L127.56227413802941,144.71055477404084L127.77702580282688,146.26374875094191L127.99177746762435,145.18383968258223L128.20652913242182,146.2859189636793L128.42128079721928,145.58238253610858L128.63603246201674,147.75010243773565L128.8507841268142,146.82648250054274L129.06553579161167,145.4752088426082L129.28028745640916,146.27205382293647L129.49503912120662,147.5558485463566L129.70979078600405,146.12512967993922L129.92454245080154,147.01146751479524L130.139294115599,148.58772724377815L130.35404578039646,147.02561919219895L130.56879744519392,145.83352338612497L130.78354910999138,146.4228673193554L130.99830077478885,148.02283324129533L131.2130524395863,147.21328723154858L131.4278041043838,148.47090112721332L131.64255576918126,147.09789110358588L131.85730743397872,146.95064718926804L132.07205909877618,145.64561821298705L132.28681076357364,147.43192548258983L132.5015624283711,146.0994886908459L132.7163140931686,148.12071380534994L132.93106575796605,148.26257999243097L133.1458174227635,147.36465044720396L133.36056908756095,148.0478553471306L133.57532075235844,148.34358722992076L133.7900724171559,145.614273437698L134.00482408195336,148.54928192835098L134.21957574675085,148.14513678907613L134.4343274115483,147.10153164617662L134.64907907634574,146.8269621575236L134.86383074114323,148.46352393098886L135.0785824059407,146.61165635479512L135.29333407073815,146.53381000291517L135.50808573553564,145.39475581552512L135.7228374003331,147.8290392457481L135.93758906513054,147.55706655172375L136.152340729928,147.96205962393853L136.3670923947255,147.99153966534692L136.58184405952295,147.20291083184262L136.7965957243204,148.26303899002875L137.01134738911787,147.7126685338449L137.22609905391533,146.30792569782028L137.4408507187128,146.4258764034114L137.65560238351028,148.09101549306823L137.87035404830775,148.52853362010927L138.0851057131052,147.3112666013483L138.29985737790267,149.8552989620832L138.51460904270013,148.27132070793812L138.7293607074976,147.46817102283697L138.94411237229505,149.73506225084355L139.15886403709254,145.88949234956667L139.37361570189,148.231642117165L139.58836736668744,148.83629195854897L139.80311903148493,148.6249680273489L140.0178706962824,148.8669864123883L140.23262236107985,147.90945634346934L140.44737402587734,149.7024276114636L140.6621256906748,148.74109980899573L140.87687735547223,149.95385769284297L141.0916290202697,148.87425132935695L141.30638068506718,148.9254955817137L141.52113234986464,149.52247180963784L141.7358840146621,143.98093722269397L141.95063567945957,148.00944326636315L142.16538734425703,149.5613428880031L142.3801390090545,148.2149421497712L142.59489067385198,150.41701950367948L142.80964233864944,150.15124013340622L143.0243940034469,147.69704644730697L143.23914566824436,148.2937064968467L143.45389733304182,148.81737245482606L143.66864899783928,150.1014357502261L143.88340066263675,149.77398273208138L144.09815232743424,150.47312499869628L144.3129039922317,148.16012741707934L144.52765565702913,149.74429519860823L144.74240732182662,148.63171645974077L144.95715898662408,148.82795904129895L145.17191065142154,148.40754508697268L145.38666231621903,147.93694230529434L145.6014139810165,149.76549531857535L145.81616564581392,149.92368690945275L146.03091731061141,150.0597945180612L146.24566897540888,149.23676601527546L146.46042064020634,149.6571135002823L146.6751723050038,150.70125578714166L146.88992396980126,151.3127834066202L147.10467563459872,147.4515698611883L147.31942729939618,147.6154858976445L147.53417896419367,150.24361452275534L147.74893062899113,149.9120916061456L147.9636822937886,150.41199208772085L148.17843395858606,148.78726903898936L148.39318562338352,151.31642035627476L148.60793728818098,150.33604999201964L148.82268895297847,149.5725456630319L149.03744061777593,148.35429328152182L149.2521922825734,150.2286149124117L149.46694394737082,149.6138033492589L149.6816956121683,149.23705524663845L149.89644727696577,149.9806062045157L150.11119894176323,147.6489073900492L150.32595060656072,149.48359624010234L150.54070227135819,149.67483386155303L150.75545393615562,150.84156623285406L150.9702056009531,151.20709988340306L151.18495726575057,149.56650414083467L151.39970893054803,150.12820581951598L151.61446059534552,148.45116961991238L151.82921226014298,150.8921179467609L152.0439639249404,149.3632095237769L152.25871558973788,151.0172545247246L152.47346725453536,149.99343478316882L152.68821891933283,150.73806362190197L152.9029705841303,149.26099408221356L153.11772224892775,151.0361964842986L153.3324739137252,150.07655287066808L153.54722557852267,151.2288883466707L153.76197724332016,151.55741385626706L153.97672890811762,150.6304237449314L154.19148057291508,150.05676207992002L154.40623223771254,148.8453335824617L154.62098390251,149.905020707731L154.83573556730747,151.7030822680672L155.05048723210493,150.5113843796758L155.26523889690242,148.73697062708365L155.47999056169988,151.48839265389464L155.6947422264973,152.02652197649186L155.9094938912948,149.98150713326442L156.12424555609226,149.929420337372L156.33899722088972,151.001118648312L156.5537488856872,151.3983824165561L156.76850055048467,151.3620766946278L156.9832522152821,149.0211772688223L157.19800388007957,149.99837866336114L157.41275554487706,149.8645669409757L157.62750720967452,152.05469778206464L157.84225887447198,150.03895369171275L158.05701053926944,151.21558280573888L158.2717622040669,151.31715600995892L158.48651386886436,150.72910014435126L158.70126553366185,150.04869324347968L158.91601719845931,148.98150766038964L159.13076886325678,151.16634161530598L159.34552052805424,151.0991105933884L159.5602721928517,151.57650222799066L159.77502385764916,151.225962798381L159.98977552244662,151.61978543199268L160.2045271872441,151.51954341062964L160.41927885204157,150.56994025717165L160.634030516839,151.03463265882354L160.8487821816365,150.44110744610632L161.06353384643396,150.50791629802202L161.27828551123142,150.80070197313944L161.4930371760289,149.7237992941336L161.70778884082637,149.70444235043007L161.9225405056238,149.41711704008173L162.1372921704213,151.4324730933255L162.35204383521875,151.13872271484206L162.5667955000162,148.985314376279L162.78154716481367,143.68984112581813L162.99629882961113,146.91302196152537L163.2110504944086,145.25907217338664L163.42580215920606,149.31855381815174L163.64055382400355,147.4494581129448L163.855305488801,145.05587905677612L164.07005715359847,148.75949743873755L164.28480881839593,146.448551423683L164.4995604831934,147.00643470943234L164.71431214799085,148.97044590810614L164.92906381278834,147.98423163314405L165.1438154775858,147.41366707912522L165.35856714238327,148.0190346095124L165.5733188071807,148.5459899005703L165.7880704719782,147.94461502052013L166.00282213677565,147.95179280878625L166.2175738015731,149.04823746770924L166.4323254663706,150.44134098695844L166.64707713116806,148.79626844590194L166.8618287959655,146.86268133261947L167.07658046076298,148.45339185094358L167.29133212556044,148.80121771549855L167.5060837903579,148.3185902746388L167.7208354551554,149.764485703507L167.93558711995286,149.65128755425624L168.1503387847503,148.67162769313197L168.36509044954775,149.12636586507978L168.57984211434524,150.0007428153717L168.7945937791427,149.6181741561295L169.00934544394016,149.37512459840462L169.22409710873762,148.89128903275227L169.43884877353509,150.0894766621301L169.65360043833255,149.6926287762496L169.86835210313004,149.99646722131004L170.0831037679275,147.45642751091214L170.29785543272496,149.72935487171165L170.51260709752242,150.22374917858144L170.72735876231988,149.4104988516266L170.94211042711734,149.1635635334163L171.1568620919148,150.37796159263254L171.3716137567123,148.56927392352546L171.58636542150975,147.39191634168756L171.8011170863072,149.6274151880006L172.01586875110468,148.25699028195916L172.23062041590214,149.273925957782L172.4453720806996,150.61739755478806L172.6601237454971,150.22881611683812L172.87487541029455,149.35633713508662L173.08962707509198,149.94089617555096L173.30437873988944,150.38642924498956L173.51913040468693,150.63182499004404L173.7338820694844,150.64775517085994L173.94863373428186,149.5870314835009L174.16338539907932,147.89047665806532L174.37813706387678,149.92810711919591L174.59288872867424,150.80341014878985L174.80764039347173,150.8067174465493L175.0223920582692,150.31340371523754L175.23714372306665,150.86488169400084L175.4518953878641,147.77483171927173L175.66664705266157,149.58756772922672L175.88139871745904,150.45059369587213L176.0961503822565,148.47940830186838L176.310902047054,149.08066281855633L176.52565371185145,151.07525170064343L176.74040537664888,150.98717715767523L176.95515704144637,149.24724661013082L177.16990870624383,148.3422398788509L177.3846603710413,150.95854864214297L177.59941203583878,150.12950286947924L177.81416370063624,148.33284704542595L178.02891536543368,151.65519830927866L178.24366703023117,149.9739341220178L178.45841869502863,150.59455456474979L178.6731703598261,151.28715229810138L178.88792202462355,150.94458739035716L179.102673689421,150.04718600674954L179.31742535421847,150.04168162851218L179.53217701901593,149.73033664152456L179.74692868381342,151.60597598176074L179.96168034861088,149.8279288724502L180.17643201340834,150.09957281281353L180.3911836782058,149.69681903807682L180.60593534300327,151.187386340783L180.82068700780073,144.85716094218563L181.03543867259822,147.74868412617613L181.25019033739568,148.87897334573975L181.46494200219314,147.4405296665219L181.67969366699057,149.04495532050308L181.89444533178806,148.9737280553123L182.10919699658552,149.49634846886147L182.32394866138299,149.85196112436614L182.53870032618048,148.38322090899158L182.75345199097794,150.87691443728866L182.96820365577537,148.73269772772412L183.18295532057286,149.2717423508148L183.39770698537032,147.1604701713763L183.61245865016778,148.44886205664673L183.82721031496527,147.53934080104875L184.04196197976273,150.03621048493454L184.25671364456016,147.1905852642556L184.47146530935763,149.30565787194516L184.68621697415512,149.09169672558437L184.90096863895258,149.76679506324072L185.11572030375004,149.188593723358L185.3304719685475,150.1583092353527L185.54522363334496,148.9258036759917L185.75997529814242,148.32504318802935L185.9747269629399,149.7703745259163L186.18947862773737,148.78130835785635L186.40423029253483,149.9962947603731L186.6189819573323,148.92150023667458L186.83373362212976,148.3002159989822L187.04848528692722,149.66293046396788L187.26323695172468,148.1487467917093L187.47798861652217,146.80037353151113L187.69274028131963,149.74730428266423L187.90749194611706,147.8390913829633L188.12224361091455,148.5600571439736L188.336995275712,149.81937229492257L188.55174694050947,149.09389739899845L188.76649860530696,149.93605918521018L188.98125027010443,148.75045401835672L189.19600193490186,150.76684214251998L189.41075359969932,148.95574990087022L189.6255052644968,148.7270163973796L189.84025692929427,149.97724591094752L190.05500859409173,150.38702477416243L190.2697602588892,151.91932582714028L190.48451192368665,149.0518878908745L190.69926358848411,151.33708782345226L190.9140152532816,149.61805379276726L191.12876691807907,147.91466071153516L191.34351858287653,149.74980047507964L191.558270247674,150.3854366963681L191.77302191247145,150.68025238043077L191.9877735772689,149.51694228084716L192.20252524206637,151.29723407704006L192.41727690686386,150.1721195838187L192.63202857166132,149.4789263212942L192.84678023645876,149.9595453108258L193.06153190125625,149.0403285169292L193.2762835660537,150.22235871227733L193.49103523085117,149.09843527740173L193.70578689564866,150.3585956665885L193.92053856044612,151.34669623304842L194.13529022524355,149.4382929077296L194.35004189004104,151.23138453908612L194.5647935548385,150.03578472199644L194.77954521963596,150.92071232939935L194.99429688443342,151.48692404122852L195.20904854923089,150.1977749446568L195.42380021402835,150.51241285765914L195.6385518788258,152.21671674821448L195.8533035436233,150.08257463171626L196.06805520842076,151.87783010889095L196.28280687321822,150.77071442949475L196.49755853801568,149.32906854590087L196.71231020281314,151.25285682396932L196.9270618676106,150.72495299775827L197.1418135324081,151.1097905962021L197.35656519720555,150.76954762346824L197.57131686200302,150.10547690520164L197.78606852680045,151.29465165415618L198.00082019159794,149.37056156944806L198.2155718563954,150.55119141791764L198.43032352119286,150.52367761083718L198.64507518599035,150.36731302801047L198.8598268507878,151.0028504435538L199.07457851558524,150.7984986050232L199.28933018038273,150.0408004609125L199.5040818451802,150.43632884097858L199.71883350997766,151.4078282457898L199.93358517477515,150.8086558356218L200.1483368395726,149.6390823500315L200.36308850437004,151.9993414142427L200.5778401691675,149.61820739078922L200.792591833965,152.1292790531853L201.00734349876245,151.85847945282575L201.2220951635599,152.10367848462403L201.43684682835737,152.08299934040392L201.65159849315484,150.31328963951364L201.8663501579523,150.27182895239213L202.0811018227498,149.56946651672027L202.29585348754725,152.7123578039409L202.5106051523447,151.28889038098148L202.72535681714217,151.1023397447858L202.94010848193963,152.82333641686256L203.1548601467371,150.6961178883953L203.36961181153455,151.84226363358303L203.58436347633204,151.57379405234025L203.7991151411295,150.94749227926377L204.01386680592694,150.1728507463326L204.22861847072443,152.32283411847612L204.4433701355219,151.49624052475951L204.65812180031935,150.35746748462603L204.87287346511684,151.5169502089372L205.0876251299143,150.96861784580503L205.30237679471173,153.21351760964944L205.5171284595092,151.20694898008327L205.73188012430668,151.98009315685877L205.94663178910415,151.69407747175035L206.1613834539016,152.41799572807173L206.37613511869907,150.44382190939507L206.59088678349653,152.63688368817796L206.805638448294,151.8660551587745L207.02039011309148,153.32548966942662L207.23514177788894,151.36616006660353L207.4498934426864,151.79161491039915L207.66464510748386,151.22950543346067L207.87939677228132,151.48038040619926L208.0941484370788,151.39362986021567L208.30890010187625,151.1653831995783L208.52365176667374,149.91993857877642L208.7384034314712,149.32747058753202L208.95315509626863,150.65713003960397L209.16790676106612,149.90435242160035L209.38265842586358,150.99577595220302L209.59741009066104,150.79245438812384L209.81216175545853,148.8322283477223L210.026913420256,148.73993839237352L210.24166508505343,150.18546105411238L210.45641674985092,152.17596746245783L210.67116841464838,150.39882218013005L210.88592007944584,149.41275341908351L211.1006717442433,150.06905620931542L211.31542340904076,149.57762876950144L211.53017507383822,149.42301933600174L211.74492673863568,148.63959217586108L211.95967840343317,150.38843410338148L212.17443006823063,151.185862037606L212.3891817330281,149.82504823586285L212.60393339782556,147.81746460182404L212.81868506262302,151.29623344431218L213.03343672742048,149.11735927229483L213.24818839221797,149.8810782792197L213.46294005701543,149.21598447237403L213.6776917218129,150.2886726372334L213.89244338661032,150.6118258089972L214.1071950514078,149.4496986836529L214.32194671620528,151.09384694187548L214.53669838100274,150.42983909999214L214.75145004580023,149.33010420975657L214.9662017105977,150.8878648085504L215.18095337539512,149.53167331921088L215.3957050401926,149.32749394161723L215.61045670499007,149.62944160400966L215.82520836978753,151.00110786950347L216.03996003458502,148.5260769499919L216.25471169938248,150.40288579095673L216.46946336417992,148.9113474972462L216.68421502897738,150.57589914183657L216.89896669377487,147.97638106757702L217.11371835857233,148.8418053191268L217.3284700233698,148.64572172499487L217.54322168816725,150.2403772872515L217.7579733529647,149.59621682486113L217.97272501776217,150.80902321334685L218.18747668255966,149.56748860534972L218.40222834735712,148.18875323790942L218.61698001215458,148.6522222447899L218.83173167695205,148.93536897035358L219.0464833417495,149.85614060738482L219.26123500654697,148.24031546511867L219.47598667134443,149.51913127721863L219.69073833614192,150.1292378904355L219.90549000093938,150.28977297394042L220.1202416657368,149.72706617136097L220.3349933305343,150.34101453159502L220.54974499533176,148.52886237377032L220.76449666012923,149.88552543598428L220.97924832492671,150.1215031970605L221.19399998972418,149.15955112193026L221.4087516545216,149.968344411546L221.62350331931907,150.2881489667842L221.83825498411656,151.0009973867157L222.05300664891402,149.98883851955253L222.26775831371148,149.5048960640486L222.48250997850894,150.04143012297914L222.6972616433064,149.7499693430804L222.91201330810387,150.23266325325957L223.12676497290136,150.1713480007727L223.34151663769882,148.6276645259567L223.55626830249628,150.0955083037528L223.77101996729374,149.28566497853663L223.9857716320912,150.38990451251573L224.20052329688866,149.86885780501615L224.41527496168612,149.9180495925765L224.6300266264836,148.68289783571427L224.84477829128107,149.55111559514887L225.0595299560785,149.8006665709028L225.274281620876,149.26652271277018L225.48903328567346,150.798725858237L225.70378495047092,148.89175701269053L225.9185366152684,149.78778679290903L226.13328828006587,151.02410984696797L226.3480399448633,150.89497163632683L226.5627916096608,146.78304839322092L226.77754327445825,151.0508376992577L226.99229493925571,148.5459746305915L227.20704660405318,149.14632462559456L227.42179826885064,150.60847090483327L227.6365499336481,149.73433108832964L227.85130159844556,149.6863061067958L228.06605326324305,150.2986609998312L228.2808049280405,149.49253277063164L228.49555659283797,149.91410095570777L228.71030825763543,151.54142439200407L228.9250599224329,150.14214910662088L229.13981158723035,149.39077003902779L229.35456325202784,150.80245712246645L229.5693149168253,148.48355634669545L229.78406658162277,150.1561391018962L229.9988182464202,150.09963928213298L230.2135699112177,149.80031446315655L230.42832157601515,150.10492359302893L230.6430732408126,150.69869941304515L230.8578249056101,148.83116663507923L231.07257657040756,149.37417965618764L231.287328235205,149.5451082058454L231.50207990000249,148.9059877346903L231.71683156479995,151.0381582274563L231.9315832295974,150.78989082815494L232.1463348943949,150.24465018661104L232.36108655919236,149.43451763003185L232.5758382239898,149.68944363832045L232.79058988878725,149.96099236587486L233.00534155358474,150.57507815591802L233.2200932183822,150.05776540735002L233.43484488317966,149.24400218875462L233.64959654797713,150.1098315438594L233.8643482127746,150.47372052786915L234.07909987757205,151.13776609558246L234.29385154236954,150.2552870741905L234.508603207167,150.93975040001638L234.72335487196446,151.06136679875155L234.93810653676192,150.9857184255836L235.15285820155938,152.13275971011575L235.36760986635684,150.8932694828086L235.5823615311543,149.19433074421343L235.7971131959518,149.17798827397016L236.01186486074926,147.69757460892635L236.2266165255467,143.86335479306192" fill="none"></path></g></g></g></g></g></g><g transform="translate(72, 176)" clip-path="url(#clip_1)"><clipPath id="clip_1"><rect width="257" height="23"></rect></clipPath><g><g><line x1="0" y1="0" x2="0" y2="5" style="visibility: inherit;" fill="rgb(0, 0, 0)" stroke="rgb(204, 204, 204)" stroke-width="1px"></line><line x1="21.4751664797465" y1="0" x2="21.4751664797465" y2="5" style="visibility: inherit;" fill="rgb(0, 0, 0)" stroke="rgb(204, 204, 204)" stroke-width="1px"></line><line x1="42.950332959493" y1="0" x2="42.950332959493" y2="5" style="visibility: inherit;" fill="rgb(0, 0, 0)" stroke="rgb(204, 204, 204)" stroke-width="1px"></line><line x1="64.4254994392395" y1="0" x2="64.4254994392395" y2="5" style="visibility: inherit;" fill="rgb(0, 0, 0)" stroke="rgb(204, 204, 204)" stroke-width="1px"></line><line x1="85.900665918986" y1="0" x2="85.900665918986" y2="5" style="visibility: inherit;" fill="rgb(0, 0, 0)" stroke="rgb(204, 204, 204)" stroke-width="1px"></line><line x1="107.37583239873251" y1="0" x2="107.37583239873251" y2="5" style="visibility: inherit;" fill="rgb(0, 0, 0)" stroke="rgb(204, 204, 204)" stroke-width="1px"></line><line x1="128.850998878479" y1="0" x2="128.850998878479" y2="5" style="visibility: inherit;" fill="rgb(0, 0, 0)" stroke="rgb(204, 204, 204)" stroke-width="1px"></line><line x1="150.32616535822552" y1="0" x2="150.32616535822552" y2="5" style="visibility: inherit;" fill="rgb(0, 0, 0)" stroke="rgb(204, 204, 204)" stroke-width="1px"></line><line x1="171.801331837972" y1="0" x2="171.801331837972" y2="5" style="visibility: inherit;" fill="rgb(0, 0, 0)" stroke="rgb(204, 204, 204)" stroke-width="1px"></line><line x1="193.2764983177185" y1="0" x2="193.2764983177185" y2="5" style="visibility: inherit;" fill="rgb(0, 0, 0)" stroke="rgb(204, 204, 204)" stroke-width="1px"></line><line x1="214.75166479746503" y1="0" x2="214.75166479746503" y2="5" style="visibility: inherit;" fill="rgb(0, 0, 0)" stroke="rgb(204, 204, 204)" stroke-width="1px"></line><line x1="236.2268312772115" y1="0" x2="236.2268312772115" y2="5" style="visibility: inherit;" fill="rgb(0, 0, 0)" stroke="rgb(204, 204, 204)" stroke-width="1px"></line><line x1="257.701997756958" y1="0" x2="257.701997756958" y2="5" style="visibility: inherit;" fill="rgb(0, 0, 0)" stroke="rgb(204, 204, 204)" stroke-width="1px"></line></g><g transform="translate(0, 8)"><text style="text-anchor: middle; visibility: hidden; font-family: Roboto, sans-serif; font-size: 12px; font-weight: 200;" x="0" y="0" dx="0em" dy="0.95em" fill="rgb(33, 33, 33)" stroke="none" stroke-width="1px">-100k</text><text style="text-anchor: middle; visibility: inherit; font-family: Roboto, sans-serif; font-size: 12px; font-weight: 200;" x="21.4751664797465" y="0" dx="0em" dy="0.95em" fill="rgb(33, 33, 33)" stroke="none" stroke-width="1px">0</text><text style="text-anchor: middle; visibility: hidden; font-family: Roboto, sans-serif; font-size: 12px; font-weight: 200;" x="42.950332959493" y="0" dx="0em" dy="0.95em" fill="rgb(33, 33, 33)" stroke="none" stroke-width="1px">100k</text><text style="text-anchor: middle; visibility: inherit; font-family: Roboto, sans-serif; font-size: 12px; font-weight: 200;" x="64.4254994392395" y="0" dx="0em" dy="0.95em" fill="rgb(33, 33, 33)" stroke="none" stroke-width="1px">200k</text><text style="text-anchor: middle; visibility: hidden; font-family: Roboto, sans-serif; font-size: 12px; font-weight: 200;" x="85.900665918986" y="0" dx="0em" dy="0.95em" fill="rgb(33, 33, 33)" stroke="none" stroke-width="1px">300k</text><text style="text-anchor: middle; visibility: inherit; font-family: Roboto, sans-serif; font-size: 12px; font-weight: 200;" x="107.37583239873251" y="0" dx="0em" dy="0.95em" fill="rgb(33, 33, 33)" stroke="none" stroke-width="1px">400k</text><text style="text-anchor: middle; visibility: hidden; font-family: Roboto, sans-serif; font-size: 12px; font-weight: 200;" x="128.850998878479" y="0" dx="0em" dy="0.95em" fill="rgb(33, 33, 33)" stroke="none" stroke-width="1px">500k</text><text style="text-anchor: middle; visibility: inherit; font-family: Roboto, sans-serif; font-size: 12px; font-weight: 200;" x="150.32616535822552" y="0" dx="0em" dy="0.95em" fill="rgb(33, 33, 33)" stroke="none" stroke-width="1px">600k</text><text style="text-anchor: middle; visibility: hidden; font-family: Roboto, sans-serif; font-size: 12px; font-weight: 200;" x="171.801331837972" y="0" dx="0em" dy="0.95em" fill="rgb(33, 33, 33)" stroke="none" stroke-width="1px">700k</text><text style="text-anchor: middle; visibility: inherit; font-family: Roboto, sans-serif; font-size: 12px; font-weight: 200;" x="193.2764983177185" y="0" dx="0em" dy="0.95em" fill="rgb(33, 33, 33)" stroke="none" stroke-width="1px">800k</text><text style="text-anchor: middle; visibility: hidden; font-family: Roboto, sans-serif; font-size: 12px; font-weight: 200;" x="214.75166479746503" y="0" dx="0em" dy="0.95em" fill="rgb(33, 33, 33)" stroke="none" stroke-width="1px">900k</text><text style="text-anchor: middle; visibility: inherit; font-family: Roboto, sans-serif; font-size: 12px; font-weight: 200;" x="236.2268312772115" y="0" dx="0em" dy="0.95em" fill="rgb(33, 33, 33)" stroke="none" stroke-width="1px">1M</text><text style="text-anchor: middle; visibility: hidden; font-family: Roboto, sans-serif; font-size: 12px; font-weight: 200;" x="257.701997756958" y="0" dx="0em" dy="0.95em" fill="rgb(33, 33, 33)" stroke="none" stroke-width="1px">1.1M</text></g><line x1="0" y1="0" x2="257.701997756958" y2="0" fill="rgb(0, 0, 0)" stroke="rgb(204, 204, 204)" stroke-width="1px"></line></g></g></g></g></svg>