<svg viewBox="0 0 330 200" xmlns="http://www.w3.org/2000/svg"><g><g><g><g><g><line x1="61.91500186920166" y1="176.5999994277954" x2="56.91500186920166" y2="176.5999994277954" style="visibility: inherit;" fill="rgb(0, 0, 0)" stroke="rgb(204, 204, 204)" stroke-width="1px"></line><line x1="61.91500186920166" y1="161.88333280881244" x2="56.91500186920166" y2="161.88333280881244" style="visibility: inherit;" fill="rgb(0, 0, 0)" stroke="rgb(204, 204, 204)" stroke-width="1px"></line><line x1="61.91500186920166" y1="147.16666618982953" x2="56.91500186920166" y2="147.16666618982953" style="visibility: inherit;" fill="rgb(0, 0, 0)" stroke="rgb(204, 204, 204)" stroke-width="1px"></line><line x1="61.91500186920166" y1="132.44999957084656" x2="56.91500186920166" y2="132.44999957084656" style="visibility: inherit;" fill="rgb(0, 0, 0)" stroke="rgb(204, 204, 204)" stroke-width="1px"></line><line x1="61.91500186920166" y1="117.73333295186362" x2="56.91500186920166" y2="117.73333295186362" style="visibility: inherit;" fill="rgb(0, 0, 0)" stroke="rgb(204, 204, 204)" stroke-width="1px"></line><line x1="61.91500186920166" y1="103.01666633288065" x2="56.91500186920166" y2="103.01666633288065" style="visibility: inherit;" fill="rgb(0, 0, 0)" stroke="rgb(204, 204, 204)" stroke-width="1px"></line><line x1="61.91500186920166" y1="88.2999997138977" x2="56.91500186920166" y2="88.2999997138977" style="visibility: inherit;" fill="rgb(0, 0, 0)" stroke="rgb(204, 204, 204)" stroke-width="1px"></line><line x1="61.91500186920166" y1="73.58333309491475" x2="56.91500186920166" y2="73.58333309491475" style="visibility: inherit;" fill="rgb(0, 0, 0)" stroke="rgb(204, 204, 204)" stroke-width="1px"></line><line x1="61.91500186920166" y1="58.86666647593181" x2="56.91500186920166" y2="58.86666647593181" style="visibility: inherit;" fill="rgb(0, 0, 0)" stroke="rgb(204, 204, 204)" stroke-width="1px"></line><line x1="61.91500186920166" y1="44.14999985694883" x2="56.91500186920166" y2="44.14999985694883" style="visibility: inherit;" fill="rgb(0, 0, 0)" stroke="rgb(204, 204, 204)" stroke-width="1px"></line><line x1="61.91500186920166" y1="29.433333237965936" x2="56.91500186920166" y2="29.433333237965936" style="visibility: inherit;" fill="rgb(0, 0, 0)" stroke="rgb(204, 204, 204)" stroke-width="1px"></line><line x1="61.91500186920166" y1="14.716666618982957" x2="56.91500186920166" y2="14.716666618982957" style="visibility: inherit;" fill="rgb(0, 0, 0)" stroke="rgb(204, 204, 204)" stroke-width="1px"></line><line x1="61.91500186920166" y1="0" x2="56.91500186920166" y2="0" style="visibility: inherit;" fill="rgb(0, 0, 0)" stroke="rgb(204, 204, 204)" stroke-width="1px"></line></g><g transform="translate(51.91500186920166, 0)"><text style="text-anchor: end; visibility: hidden; font-family: Roboto, sans-serif; font-size: 12px; font-weight: 200;" x="0" y="176.5999994277954" dx="0em" dy="0.3em" fill="rgb(33, 33, 33)" stroke="none" stroke-width="1px">2e-3</text><text style="text-anchor: end; visibility: inherit; font-family: Roboto, sans-serif; font-size: 12px; font-weight: 200;" x="0" y="161.88333280881244" dx="0em" dy="0.3em" fill="rgb(33, 33, 33)" stroke="none" stroke-width="1px">4e-3</text><text style="text-anchor: end; visibility: hidden; font-family: Roboto, sans-serif; font-size: 12px; font-weight: 200;" x="0" y="147.16666618982953" dx="0em" dy="0.3em" fill="rgb(33, 33, 33)" stroke="none" stroke-width="1px">6e-3</text><text style="text-anchor: end; visibility: inherit; font-family: Roboto, sans-serif; font-size: 12px; font-weight: 200;" x="0" y="132.44999957084656" dx="0em" dy="0.3em" fill="rgb(33, 33, 33)" stroke="none" stroke-width="1px">8e-3</text><text style="text-anchor: end; visibility: hidden; font-family: Roboto, sans-serif; font-size: 12px; font-weight: 200;" x="0" y="117.73333295186362" dx="0em" dy="0.3em" fill="rgb(33, 33, 33)" stroke="none" stroke-width="1px">0.01</text><text style="text-anchor: end; visibility: inherit; font-family: Roboto, sans-serif; font-size: 12px; font-weight: 200;" x="0" y="103.01666633288065" dx="0em" dy="0.3em" fill="rgb(33, 33, 33)" stroke="none" stroke-width="1px">0.012</text><text style="text-anchor: end; visibility: hidden; font-family: Roboto, sans-serif; font-size: 12px; font-weight: 200;" x="0" y="88.2999997138977" dx="0em" dy="0.3em" fill="rgb(33, 33, 33)" stroke="none" stroke-width="1px">0.014</text><text style="text-anchor: end; visibility: inherit; font-family: Roboto, sans-serif; font-size: 12px; font-weight: 200;" x="0" y="73.58333309491475" dx="0em" dy="0.3em" fill="rgb(33, 33, 33)" stroke="none" stroke-width="1px">0.016</text><text style="text-anchor: end; visibility: hidden; font-family: Roboto, sans-serif; font-size: 12px; font-weight: 200;" x="0" y="58.86666647593181" dx="0em" dy="0.3em" fill="rgb(33, 33, 33)" stroke="none" stroke-width="1px">0.018</text><text style="text-anchor: end; visibility: inherit; font-family: Roboto, sans-serif; font-size: 12px; font-weight: 200;" x="0" y="44.14999985694883" dx="0em" dy="0.3em" fill="rgb(33, 33, 33)" stroke="none" stroke-width="1px">0.02</text><text style="text-anchor: end; visibility: hidden; font-family: Roboto, sans-serif; font-size: 12px; font-weight: 200;" x="0" y="29.433333237965936" dx="0em" dy="0.3em" fill="rgb(33, 33, 33)" stroke="none" stroke-width="1px">0.022</text><text style="text-anchor: end; visibility: inherit; font-family: Roboto, sans-serif; font-size: 12px; font-weight: 200;" x="0" y="14.716666618982957" dx="0em" dy="0.3em" fill="rgb(33, 33, 33)" stroke="none" stroke-width="1px">0.024</text><text style="text-anchor: end; visibility: hidden; font-family: Roboto, sans-serif; font-size: 12px; font-weight: 200;" x="0" y="0" dx="0em" dy="0.3em" fill="rgb(33, 33, 33)" stroke="none" stroke-width="1px">0.026</text></g><line x1="61.91500186920166" y1="0" x2="61.91500186920166" y2="176.5999994277954" fill="rgb(0, 0, 0)" stroke="rgb(204, 204, 204)" stroke-width="1px"></line></g></g><g transform="translate(61, 0)" clip-path="url(#clip_0)"><clipPath id="clip_0"><rect width="268" height="176"></rect></clipPath><g><g><g><line x1="0" y1="0" x2="0" y2="176.5999994277954" fill="rgb(0, 0, 0)" stroke="rgb(66, 66, 66)" stroke-width="1px" opacity="0.25"></line><line x1="22.34041651089986" y1="0" x2="22.34041651089986" y2="176.5999994277954" fill="rgb(0, 0, 0)" stroke="rgb(66, 66, 66)" stroke-width="1px" opacity="0.25"></line><line x1="44.68083302179972" y1="0" x2="44.68083302179972" y2="176.5999994277954" fill="rgb(0, 0, 0)" stroke="rgb(66, 66, 66)" stroke-width="1px" opacity="0.25"></line><line x1="67.02124953269958" y1="0" x2="67.02124953269958" y2="176.5999994277954" fill="rgb(0, 0, 0)" stroke="rgb(66, 66, 66)" stroke-width="1px" opacity="0.25"></line><line x1="89.36166604359944" y1="0" x2="89.36166604359944" y2="176.5999994277954" fill="rgb(0, 0, 0)" stroke="rgb(66, 66, 66)" stroke-width="1px" opacity="0.25"></line><line x1="111.70208255449931" y1="0" x2="111.70208255449931" y2="176.5999994277954" fill="rgb(0, 0, 0)" stroke="rgb(66, 66, 66)" stroke-width="1px" opacity="0.25"></line><line x1="134.04249906539917" y1="0" x2="134.04249906539917" y2="176.5999994277954" fill="rgb(0, 0, 0)" stroke="rgb(66, 66, 66)" stroke-width="1px" opacity="0.25"></line><line x1="156.38291557629904" y1="0" x2="156.38291557629904" y2="176.5999994277954" fill="rgb(0, 0, 0)" stroke="rgb(66, 66, 66)" stroke-width="1px" opacity="0.25"></line><line x1="178.72333208719888" y1="0" x2="178.72333208719888" y2="176.5999994277954" fill="rgb(0, 0, 0)" stroke="rgb(66, 66, 66)" stroke-width="1px" opacity="0.25"></line><line x1="201.06374859809875" y1="0" x2="201.06374859809875" y2="176.5999994277954" fill="rgb(0, 0, 0)" stroke="rgb(66, 66, 66)" stroke-width="1px" opacity="0.25"></line><line x1="223.40416510899863" y1="0" x2="223.40416510899863" y2="176.5999994277954" fill="rgb(0, 0, 0)" stroke="rgb(66, 66, 66)" stroke-width="1px" opacity="0.25"></line><line x1="245.74458161989847" y1="0" x2="245.74458161989847" y2="176.5999994277954" fill="rgb(0, 0, 0)" stroke="rgb(66, 66, 66)" stroke-width="1px" opacity="0.25"></line><line x1="268.08499813079834" y1="0" x2="268.08499813079834" y2="176.5999994277954" fill="rgb(0, 0, 0)" stroke="rgb(66, 66, 66)" stroke-width="1px" opacity="0.25"></line></g><g><line x1="0" y1="176.5999994277954" x2="268.08499813079834" y2="176.5999994277954" fill="rgb(0, 0, 0)" stroke="rgb(66, 66, 66)" stroke-width="1px" opacity="0.25"></line><line x1="0" y1="161.88333280881244" x2="268.08499813079834" y2="161.88333280881244" fill="rgb(0, 0, 0)" stroke="rgb(66, 66, 66)" stroke-width="1px" opacity="0.25"></line><line x1="0" y1="147.16666618982953" x2="268.08499813079834" y2="147.16666618982953" fill="rgb(0, 0, 0)" stroke="rgb(66, 66, 66)" stroke-width="1px" opacity="0.25"></line><line x1="0" y1="132.44999957084656" x2="268.08499813079834" y2="132.44999957084656" fill="rgb(0, 0, 0)" stroke="rgb(66, 66, 66)" stroke-width="1px" opacity="0.25"></line><line x1="0" y1="117.73333295186362" x2="268.08499813079834" y2="117.73333295186362" fill="rgb(0, 0, 0)" stroke="rgb(66, 66, 66)" stroke-width="1px" opacity="0.25"></line><line x1="0" y1="103.01666633288065" x2="268.08499813079834" y2="103.01666633288065" fill="rgb(0, 0, 0)" stroke="rgb(66, 66, 66)" stroke-width="1px" opacity="0.25"></line><line x1="0" y1="88.2999997138977" x2="268.08499813079834" y2="88.2999997138977" fill="rgb(0, 0, 0)" stroke="rgb(66, 66, 66)" stroke-width="1px" opacity="0.25"></line><line x1="0" y1="73.58333309491475" x2="268.08499813079834" y2="73.58333309491475" fill="rgb(0, 0, 0)" stroke="rgb(66, 66, 66)" stroke-width="1px" opacity="0.25"></line><line x1="0" y1="58.86666647593181" x2="268.08499813079834" y2="58.86666647593181" fill="rgb(0, 0, 0)" stroke="rgb(66, 66, 66)" stroke-width="1px" opacity="0.25"></line><line x1="0" y1="44.14999985694883" x2="268.08499813079834" y2="44.14999985694883" fill="rgb(0, 0, 0)" stroke="rgb(66, 66, 66)" stroke-width="1px" opacity="0.25"></line><line x1="0" y1="29.433333237965936" x2="268.08499813079834" y2="29.433333237965936" fill="rgb(0, 0, 0)" stroke="rgb(66, 66, 66)" stroke-width="1px" opacity="0.25"></line><line x1="0" y1="14.716666618982957" x2="268.08499813079834" y2="14.716666618982957" fill="rgb(0, 0, 0)" stroke="rgb(66, 66, 66)" stroke-width="1px" opacity="0.25"></line><line x1="0" y1="0" x2="268.08499813079834" y2="0" fill="rgb(0, 0, 0)" stroke="rgb(66, 66, 66)" stroke-width="1px" opacity="0.25"></line></g></g></g><g><g><line x1="0" y1="191.31666604677835" x2="268.08499813079834" y2="191.31666604677835" fill="rgb(0, 0, 0)" stroke="rgb(153, 153, 153)" stroke-width="1.5px"></line></g></g><g><g><line x1="22.34041651089986" y1="0" x2="22.34041651089986" y2="176.5999994277954" fill="rgb(0, 0, 0)" stroke="rgb(153, 153, 153)" stroke-width="1.5px"></line></g></g><g><g><g><g><g><path style="fill: none;" stroke="rgb(0, 119, 187)" stroke-width="2px" d="M22.56359727184375,94.987917534199L22.78700143695275,96.85029151592933L23.01040560206175,90.40692099822388L23.233809767170747,72.8284179088366L23.457213932279746,53.6809463230994L23.68061809738874,39.74688941937421L23.904022262497744,26.178134621624107L24.127426427606743,21.131262328025063L24.350830592715738,17.438526373927658L24.57423475782474,16.95579879374196L24.797638922933736,16.15857948173133L25.021043088042735,15.00971097128796L25.244447253151737,14.146571112117357L25.467851418260732,11.475099921220371L25.69125558336973,11.144266042432502L25.914659748478734,10.83528106317755L26.13806391358773,14.700614704096333L26.361468078696728,17.03348504963503L26.584872243805727,20.858680253032414L26.808276408914725,22.860369748951683L27.031680574023724,27.496507980079542L27.255084739132723,31.280045104462257L27.478488904241722,34.44291897987012L27.701893069350717,38.640720480104726L27.925297234459716,42.49811508823671L28.14870139956872,45.52389408052076L28.372105564677714,48.713076212977676L28.595509729786713,52.7265029153085L28.818913894895715,54.605001053065344L29.04231806000471,58.380647702726606L29.26572222511371,61.499375500654715L29.489126390222708,65.14767131330002L29.712530555331707,65.67460597667471L29.935934720440706,68.56798144632435L30.159338885549705,71.69340136061707L30.382743050658704,74.7995181787898L30.6061472157677,76.39255539413647L30.8295513808767,78.71590986840008L31.0529555459857,80.79881813422575L31.276359711094695,81.51890464390853L31.499763876203698,82.9332770628164L31.723168041312693,84.80614224740664L31.946572206421692,85.15758952247035L32.169976371530694,86.89070286943033L32.39338053663969,88.67234439716188L32.61678470174869,89.84017062704073L32.84018886685769,91.21581201331033L33.06359303196668,92.96120226223891L33.286997197075685,93.94222015306151L33.51040136218468,95.2452046003247L33.73380552729368,96.19119717190307L33.957209692402685,96.45617037694836L34.18061385751168,97.37560301041303L34.404018022620676,96.1759423790011L34.62742218772968,97.59974262951158L34.85082635283867,98.59889135995154L35.07423051794767,100.0145927083186L35.29763468305668,100.05509819468733L35.521038848165674,100.40821038183321L35.74444301327467,100.71420565205248L35.96784717838367,102.47900454755258L36.19125134349267,102.89493368094129L36.41465550860166,103.60851927460156L36.63805967371066,105.35254614792044L36.86146383881967,106.198253768068L37.08486800392866,104.66165653384508L37.30827216903766,105.76133135870404L37.53167633414666,106.02994941829736L37.755080499255655,107.61236077684958L37.97848466436465,109.32054974886405L38.20188882947366,109.24990423204032L38.425292994582655,110.77601563382188L38.64869715969165,111.40725215354138L38.87210132480065,112.88099675780784L39.09550548990965,112.667278631975L39.31890965501864,114.05693925841288L39.542313820127646,114.06441931074879L39.76571798523665,114.97751614751506L39.98912215034564,115.45681810887602L40.21252631545464,115.678887023584L40.43593048056364,116.36216064972513L40.65933464567264,116.5604452132855L40.88273881078164,117.90088879493221L41.10614297589064,118.73594544913047L41.32954714099964,118.36208121051081L41.55295130610863,119.0564816908862L41.776355471217634,119.33277595395826L41.99975963632663,119.36018995342295L42.223163801435625,120.0803152882707L42.44656796654463,121.16822091722531L42.66997213165363,122.26446767503369L42.893376296762625,122.52752698842937L43.11678046187162,122.96846626264568L43.34018462698062,121.98905693070597L43.56358879208962,123.46380493517842L43.78699295719862,124.23295621425883L44.01039712230762,124.46604942930347L44.23380128741662,125.04158971472201L44.45720545252561,125.08748232519001L44.680609617634616,125.98653728218643L44.90401378274361,125.79836557582097L45.127417947852614,125.41785447275215L45.35082211296161,126.48483966208872L45.57422627807061,127.04668129648506L45.79763044317961,127.17000611770318L46.0210346082886,127.37008599534657L46.244438773397604,128.13367145646737L46.46784293850661,127.12865739999667L46.6912471036156,126.90643279636654L46.914651268724604,127.64461719488382L47.1380554338336,128.30019128856082L47.361459598942595,129.2022210849189L47.5848637640516,129.479516762479L47.80826792916059,129.9036560720779L48.031672094269595,129.47327348450855L48.25507625937859,129.01062738142L48.47848042448759,129.73037584962404L48.70188458959659,129.77037012077068L48.92528875470558,130.20898173768543L49.148692919814586,130.25518197254843L49.37209708492359,131.10266352078443L49.595501250032584,131.2495755546778L49.818905415141586,131.41845594593545L50.04230958025058,132.05516290017576L50.26571374535958,132.57337634852814L50.48911791046858,133.2237760329223L50.71252207557758,133.06170667899588L50.93592624068658,133.08000707556536L51.15933040579557,133.56483939141228L51.382734570904574,134.36377588233597L51.60613873601357,133.7167690778963L51.829542901122565,133.95544569866544L52.052947066231575,133.59893036670408L52.27635123134057,134.51023503887026L52.499755396449565,134.61597745589552L52.72315956155857,134.59742441740477L52.94656372666756,135.21477505136446L53.16996789177656,135.90918683025532L53.39337205688555,136.29170518644997L53.61677622199456,137.32262281680067L53.84018038710356,137.06480370212378L54.06358455221255,137.7386076635939L54.286988717321556,136.8814366312118L54.51039288243055,137.34850705374203L54.73379704753955,137.7693550811803L54.957201212648556,137.98027100537698L55.18060537775755,138.1110039599731L55.40400954286655,137.46028823574423L55.62741370797555,137.29515995504266L55.850817873084544,137.37383655137168L56.07422203819354,137.84142105493572L56.29762620330254,138.39102025145615L56.521030368411544,138.0042190240269L56.74443453352054,137.4854961977433L56.967838698629535,137.55360176490055L57.19124286373854,137.99195668632314L57.41464702884753,138.14212648419294L57.638051193956535,138.9814080777705L57.86145535906554,139.22519905707932L58.08485952417453,139.29703715509888L58.30826368928353,140.17504051514945L58.53166785439253,140.21085228097496L58.755072019501526,140.75537292853036L58.97847618461052,140.98319881110086L59.201880349719524,141.3741081459678L59.425284514828526,141.8066414997281L59.64868867993752,141.41146336394374L59.87209284504652,141.78656880648896L60.09549701015552,141.9962931673837L60.318901175264514,142.0043365004639L60.54230534037352,142.01102061547002L60.76570950548252,141.77122852052256L60.989113670591514,142.09424292925848L61.21251783570051,141.9121139398391L61.43592200080951,142.06938998798148L61.65932616591851,142.60898976319734L61.88273033102751,142.41108407823933L62.106134496136505,142.4490213942582L62.32953866124551,142.35843050740016L62.5529428263545,141.9810775410504L62.7763469914635,142.53582133479588L62.9997511565725,143.18318282720895L63.2231553216815,143.69284227514842L63.4465594867905,143.94138945469837L63.6699636518995,144.23962147754835L63.893367817008496,144.48998668645527L64.1167719821175,145.05969638240265L64.3401761472265,144.5119518431029L64.56358031233549,144.47110580950357L64.78698447744449,144.63889652161535L65.01038864255348,145.0653710789063L65.23379280766248,144.9737362601505L65.45719697277148,145.02269245562826L65.68060113788049,145.55992665576497L65.90400530298949,144.83777229905522L66.12740946809848,145.5732973895988L66.35081363320748,145.27394243647527L66.57421779831648,144.67061858714143L66.79762196342548,144.9628556414934L67.02102612853447,145.24096351906894L67.24443029364348,144.95286634708592L67.46783445875246,145.6119906400385L67.69123862386147,145.41656295076606L67.91464278897047,145.5763605055103L68.13804695407947,144.54555872795544L68.36145111918847,145.34116165420573L68.58485528429748,145.55631924010896L68.80825944940646,145.73599798020854L69.03166361451547,145.14401785373553L69.25506777962447,145.39546005162669L69.47847194473346,145.55383818207648L69.70187610984246,146.36678733140184L69.92528027495146,146.5607291459355L70.14868444006045,146.657465723759L70.37208860516945,146.3175289458727L70.59549277027845,146.53634554448308L70.81889693538744,147.15926449215672L71.04230110049646,146.8892755261404L71.26570526560546,146.81128216500605L71.48910943071445,146.6498824462617L71.71251359582345,146.60904621088505L71.93591776093244,146.90967953667314L72.15932192604144,147.57282535433336L72.38272609115045,147.54150782381117L72.60613025625943,146.62183675668345L72.82953442136844,146.59974271377908L73.05293858647744,146.88507687225396L73.27634275158643,147.58989507955113L73.49974691669543,148.1537277158467L73.72315108180445,148.02033931750245L73.94655524691343,148.03087284005113L74.16995941202244,148.54818016612572L74.39336357713144,148.60830251206463L74.61676774224043,148.47907194328644L74.84017190734943,148.41761814345597L75.06357607245843,148.4717185763952L75.28698023756742,148.04170389394085L75.51038440267642,147.6023877283787L75.73378856778542,148.70936996155595L75.95719273289441,148.58951913471617L76.18059689800342,149.06160333552273L76.40400106311243,149.1731186960443L76.62740522822142,149.31867962832075L76.85080939333042,150.1469667947995L77.07421355843941,150.3991358051275L77.29761772354841,151.0330090886627L77.52102188865742,151.0072712385481L77.7444260537664,151.09224703318606L77.9678302188754,151.44168237765348L78.19123438398441,151.44567910309854L78.4146385490934,150.68158578897334L78.6380427142024,151.09362649559282L78.8614468793114,151.39322860880503L79.08485104442039,151.50768164891264L79.3082552095294,151.47883170623177L79.53165937463841,150.9713178864642L79.7550635397474,151.2686619449856L79.9784677048564,151.7288588901454L80.2018718699654,151.11649796046072L80.42527603507439,150.82778809522773L80.64868020018339,150.85015918286422L80.8720843652924,151.36626578285725L81.09548853040138,151.59150956482696L81.31889269551039,151.6521063498882L81.54229686061939,151.35359948543916L81.76570102572838,151.7803453187372L81.98910519083738,151.2492491095048L82.2125093559464,151.2880668285492L82.43591352105538,151.63839594917656L82.65931768616439,151.98233852430033L82.88272185127337,151.92939511008024L83.10612601638238,152.37451148591518L83.32953018149138,152.09686069202178L83.55293434660037,151.89174024916264L83.77633851170937,151.94552760212486L83.99974267681837,152.33759835686763L84.22314684192736,152.23312369514082L84.44655100703636,152.26392982822347L84.66995517214536,152.7323752145984L84.89335933725437,152.18557061196296L85.11676350236337,151.21878547369244L85.34016766747237,151.5425088041251L85.56357183258136,152.23700063734094L85.78697599769036,151.9777327501179L86.01038016279936,152.49879110401793L86.23378432790835,152.62966490739933L86.45718849301736,152.67839701733837L86.68059265812636,152.5771247801728L86.90399682323535,152.4956581201244L87.12740098834435,152.71476361469303L87.35080515345335,152.28003462158838L87.57420931856234,152.74076486374545L87.79761348367136,152.99372554647172L88.02101764878036,152.38349833468067L88.24442181388935,152.15546877969817L88.46782597899835,152.58020288690454L88.69123014410734,152.7840050817816L88.91463430921634,153.06048013566016L89.13803847432534,152.47649442379148L89.36144263943433,152.87692900121309L89.58484680454333,152.88995400352988L89.80825096965233,152.73253008683497L90.03165513476132,152.33938153824468L90.25505929987033,152.4772897129255L90.47846346497934,152.66870621716478L90.70186763008833,153.06919711775694L90.92527179519733,153.30581419012057L91.14867596030633,153.42187825378215L91.37208012541532,153.63335599238928L91.59548429052433,153.51036266959815L91.81888845563333,154.08451074838004L92.04229262074232,154.45495700063952L92.26569678585132,154.45681738379304L92.48910095096032,154.7226896211035L92.71250511606931,154.51682303697334L92.93590928117831,154.39241365330525L93.15931344628733,154.8970930035472L93.38271761139632,155.1068827040671L93.60612177650532,154.64183610153844L93.8295259416143,154.48589252788685L94.05293010672331,155.14122973367841L94.27633427183231,155.53718974717705L94.4997384369413,155.46831922094307L94.7231426020503,155.28087869836344L94.9465467671593,155.30178688149041L95.16995093226829,155.54602351894826L95.3933550973773,155.16560884061482L95.6167592624863,155.2712300148426L95.84016342759529,155.32397092129332L96.0635675927043,155.12804102769215L96.2869717578133,154.85367390168685L96.5103759229223,154.37420136687484L96.7337800880313,154.79464601661203L96.9571842531403,153.95026653073646L97.18058841824929,154.73634157047084L97.40399258335829,154.2815539620879L97.62739674846729,154.1388894756738L97.85080091357628,153.86816587901308L98.07420507868528,154.57097483285216L98.29760924379428,154.34454999784342L98.52101340890327,154.56259838272675L98.74441757401227,155.11692049344765L98.96782173912129,155.29134107651123L99.19122590423028,155.36321257005397L99.41463006933928,155.56994098453453L99.63803423444827,154.95860880089765L99.86143839955727,154.49806859124126L100.08484256466627,155.02893953526487L100.30824672977526,155.3012328255054L100.53165089488427,155.38345996611375L100.75505505999327,154.95172752638172L100.97845922510226,155.35708300303233L101.20186339021126,155.38073871747434L101.42526755532026,155.53171476829237L101.64867172042926,154.94667890350465L101.87207588553827,155.72553451064667L102.09548005064727,155.7070435140577L102.31888421575626,155.89383460653295L102.54228838086526,155.5215561344237L102.76569254597426,155.79409196560024L102.98909671108325,155.74896955120172L103.21250087619225,155.49782436165123L103.43590504130125,156.0484411578591L103.65930920641024,156.35770273219893L103.88271337151924,155.89349149583836L104.10611753662825,155.55927457764733L104.32952170173724,155.20137589308874L104.55292586684625,155.80201715144963L104.77633003195525,156.36152379546283L104.99973419706424,156.15777716435994L105.22313836217324,156.30408508676837L105.44654252728223,156.2383068876638L105.66994669239124,156.21043866968122L105.89335085750024,156.26315752071898L106.11675502260923,156.19507497539527L106.34015918771823,156.4978117129792L106.56356335282723,156.42675609644823L106.78696751793622,155.20306328012617L107.01037168304522,155.7261661638261L107.23377584815424,155.57126015861405L107.45718001326323,155.56432809123194L107.68058417837223,155.84698801857527L107.90398834348123,156.01279944005753L108.12739250859022,156.6027281872958L108.35079667369922,155.70928717860195L108.57420083880822,155.39683936071563L108.79760500391721,156.0101957835884L109.02100916902621,156.03633852159246L109.24441333413522,156.33326135601877L109.4678174992442,156.0501998311382L109.69122166435321,156.42030405819892L109.91462582946222,156.5437217632184L110.13802999457121,156.11861673025751L110.36143415968021,156.36990803771323L110.5848383247892,156.42730669436767L110.8082424898982,156.81238312153536L111.03164665500721,156.99524165413865L111.2550508201162,157.44456939673648L111.4784549852252,157.81248200282363L111.7018591503342,158.03060418752045L111.92526331544319,158.16122777441254L112.14866748055219,157.9556566238529L112.3720716456612,158.587740980627L112.59547581077018,158.27404538842555L112.8188799758792,158.4406822211045L113.0422841409882,158.33474997653795L113.26568830609719,158.39818757959506L113.48909247120619,158.767932320472L113.7124966363152,159.24829810470055L113.93590080142418,158.79017490857296L114.15930496653318,158.73162742973375L114.38270913164219,158.9801748970718L114.60611329675118,158.62463473062374L114.82951746186018,158.48606900298762L115.05292162696918,158.58652606256982L115.27632579207817,158.48048032246595L115.49972995718717,158.15745121120548L115.72313412229619,158.1022037596442L115.94653828740518,157.9666377316129L116.16994245251418,158.217195499662L116.39334661762317,157.68862012657075L116.61675078273217,157.89655282864322L116.84015494784117,156.8606748892209L117.06355911295016,156.80249235724628L117.28696327805916,157.2559666193744L117.51036744316816,157.43935552128704L117.73377160827715,157.1537682077674L117.95717577338615,157.11275276856995L118.18057993849516,157.50628566686552L118.40398410360416,157.488588170159L118.62738826871316,157.48626253138147L118.85079243382216,157.8687138200921L119.07419659893115,158.2534162986503L119.29760076404015,158.68233968718795L119.52100492914916,158.59554218583705L119.74440909425815,158.24888119233654L119.96781325936715,157.62926445354978L120.19121742447615,157.8743215286115L120.41462158958514,157.99625218916714L120.63802575469414,158.27619979625473L120.86142991980314,158.0903639542109L121.08483408491213,158.37632098828652L121.30823825002115,158.5765891755198L121.53164241513015,158.10549880701134L121.75504658023914,158.45751789307855L121.97845074534814,157.94792144875169L122.20185491045713,158.09714844274544L122.42525907556613,158.31936862586483L122.64866324067513,158.41551342229383L122.87206740578412,158.44453788056862L123.09547157089312,158.57349484646616L123.31887573600213,158.824435380172L123.54227990111112,158.67790609522316L123.76568406622012,158.2668919057481L123.98908823132913,157.84307835107225L124.21249239643812,158.46013018914994L124.43589656154712,158.71856566995666L124.65930072665613,158.4040810466508L124.88270489176512,158.9691782802914L125.10610905687412,159.23525311715687L125.32951322198312,158.74102985014778L125.55291738709211,158.90623817848098L125.77632155220111,159.06401306399616L125.99972571731011,159.4943765337149L126.2231298824191,158.84741020100455L126.4465340475281,159.1256602195526L126.66993821263712,159.23104683158562L126.89334237774611,159.26874762055954L127.11674654285511,159.6501523577998L127.3401507079641,158.7432666736243L127.5635548730731,159.00269267364743L127.7869590381821,158.87935642987895L128.0103632032911,158.76474534301747L128.2337673684001,159.01356743930214L128.4571715335091,159.07249671257142L128.6805756986181,158.99522767087163L128.9039798637271,159.23692141269237L129.1273840288361,159.8012111851685L129.35078819394508,159.45346401318554L129.57419235905408,160.27220972864694L129.79759652416308,160.51321663512002L130.02100068927209,160.04791728559837L130.2444048543811,159.9209706997285L130.4678090194901,159.92674140741457L130.69121318459906,159.97625596992802L130.9146173497081,159.83217960718522L131.1380215148171,159.5487703260453L131.36142567992607,159.6054870305425L131.58482984503507,160.04298527856292L131.80823401014408,160.21627357041936L132.03163817525308,160.1523910498094L132.25504234036208,159.94281599404331L132.47844650547108,159.73898865203532L132.70185067058006,159.4572591728595L132.92525483568906,159.69572995042796L133.14865900079806,159.19098373118666L133.37206316590706,158.55713146735124L133.59546733101607,159.17282919382825L133.81887149612507,159.45396808560798L134.04227566123407,159.4528363315051L134.26567982634307,159.4070452672257L134.48908399145208,159.61406470567732L134.71248815656108,159.99023675541642L134.93589232167005,160.03235645633762L135.15929648677906,160.24284407411938L135.38270065188806,159.88734151810934L135.60610481699706,159.61837170329295L135.82950898210606,158.85741751813615L136.05291314721504,159.03650860734734L136.27631731232404,158.7990325442853L136.49972147743304,159.222076282852L136.72312564254204,158.9731785139171L136.94652980765105,158.68445550423564L137.16993397276005,159.05324870376657L137.39333813786902,159.44916463967863L137.61674230297803,159.2276189585207L137.84014646808703,159.71475434026274L138.06355063319603,159.9287885099632L138.28695479830503,159.90246150934766L138.51035896341403,160.2615944370487L138.733763128523,160.14890113325956L138.957167293632,160.37035569004138L139.180571458741,160.85483617005272L139.40397562385004,160.68665776874585L139.62737978895905,160.87738909346734L139.85078395406805,161.07105298278358L140.07418811917702,161.36411759495738L140.29759228428603,160.68027656003997L140.52099644939503,160.78103050451847L140.74440061450403,160.5092492178482L140.96780477961303,160.25511961733415L141.19120894472204,160.2713608069905L141.414613109831,160.53430736546858L141.63801727494,160.47173227181312L141.861421440049,160.69459631374838L142.08482560515802,160.18692324518628L142.30822977026702,160.4711027918624L142.531633935376,160.18032741623767L142.755038100485,160.27798932069396L142.978442265594,160.52060548696343L143.201846430703,160.4391441286574L143.425250595812,160.4275824931027L143.648654760921,160.38740156545276L143.87205892602998,160.67618333736803L144.09546309113898,160.51605219682324L144.31886725624798,161.1632521985782L144.542271421357,160.6374473084283L144.765675586466,160.5498905267654L144.98907975157502,160.0789908886393L145.212483916684,160.16415941853396L145.435888081793,160.55833856338472L145.659292246902,160.9414215496764L145.882696412011,160.77312500117614L146.10610057712,160.72061184184264L146.329504742229,161.09044771017562L146.55290890733798,161.13693022499217L146.77631307244698,160.50573325985766L146.99971723755598,160.33771008225847L147.223121402665,160.82058690752967L147.446525567774,160.47376389993903L147.66992973288296,160.10285000879063L147.89333389799197,160.15071972125722L148.11673806310097,160.8006215129888L148.34014222820997,160.8033799243867L148.56354639331897,160.51968847126935L148.78695055842798,160.4947242097535L149.01035472353695,160.20778118377925L149.23375888864595,160.03569038701784L149.45716305375495,160.0757004943034L149.68056721886396,159.4917954592351L149.90397138397296,159.89181623995884L150.12737554908196,159.9560192729427L150.35077971419094,160.16874132638293L150.57418387929997,160.86955906537162L150.79758804440897,161.21349284299444L151.02099220951797,161.24057117101745L151.24439637462697,160.71207918587635L151.46780053973598,160.34170405649L151.69120470484495,160.53073967102483L151.91460886995395,160.8916029355619L152.13801303506295,160.7154592098675L152.36141720017196,160.94488142830787L152.58482136528096,160.92641316962732L152.80822553038993,160.8396993849496L153.03162969549894,161.0538512959087L153.25503386060794,161.25845844317257L153.47843802571694,161.23588285351818L153.70184219082594,161.43858502674988L153.92524635593495,161.3891047540209L154.14865052104392,161.5880289774817L154.37205468615292,161.92001700749682L154.59545885126192,161.82123369738213L154.81886301637093,161.87238012620975L155.04226718147993,162.25735910762896L155.26567134658893,161.5844746475228L155.4890755116979,161.78274613543272L155.7124796768069,161.62548403291143L155.9358838419159,161.56021222260296L156.15928800702494,161.511412356441L156.38269217213394,160.96803548249054L156.60609633724295,161.01799262676013L156.82950050235192,161.02563762353387L157.05290466746092,161.1854803967405L157.27630883256992,161.8023542801347L157.49971299767893,161.29290680445004L157.72311716278793,161.71059724239828L157.94652132789693,162.30871960343634L158.1699254930059,162.2506660138238L158.3933296581149,162.2001771416066L158.6167338232239,161.54379548424035L158.8401379883329,161.52731916194645L159.06354215344192,160.8438157332395L159.2869463185509,161.05187031965292L159.5103504836599,161.42988849822606L159.7337546487689,161.81085431842592L159.9571588138779,162.14493272383086L160.1805629789869,161.68829063957688L160.4039671440959,161.8669056856565L160.62737130920488,161.88730341184512L160.85077547431388,161.9136927350296L161.07417963942288,161.75754222197253L161.29758380453188,161.4864038480319L161.52098796964088,161.3850686890053L161.74439213474992,161.55836063591337L161.9677962998589,161.9347844425783L162.1912004649679,162.00093679367635L162.4146046300769,162.27498555549917L162.6380087951859,162.039147845944L162.8614129602949,161.8548245247334L163.0848171254039,161.8799040789303L163.30822129051288,161.43399167817546L163.53162545562188,161.93640982174438L163.75502962073088,162.07103178398725L163.97843378583988,161.8379446113799L164.20183795094889,161.8969226444329L164.42524211605786,161.47420363871763L164.64864628116686,161.44694685338075L164.87205044627586,161.74936867788955L165.09545461138487,161.8020367136161L165.31885877649387,162.0521423537448L165.54226294160287,162.28577358295564L165.76566710671185,162.59752036595697L165.98907127182085,162.1145320760017L166.21247543692985,162.1675587567085L166.43587960203885,162.38930447778824L166.65928376714785,162.34889307285277L166.88268793225686,162.20958136281135L167.10609209736583,162.32989367571932L167.32949626247486,162.53125422012658L167.55290042758386,162.5090312142555L167.77630459269287,162.30813290900642L167.99970875780187,162.38251711708472L168.22311292291087,162.55796357436424L168.44651708801985,162.65240781720053L168.66992125312885,162.75648155309165L168.89332541823785,162.92531955210765L169.11672958334685,162.83163741474155L169.34013374845586,162.69855854449682L169.56353791356483,161.87334648067264L169.78694207867383,161.80611053152694L170.01034624378283,162.44610327079988L170.23375040889184,162.01906761426378L170.45715457400084,162.09777564413864L170.68055873910984,162.08024831297118L170.90396290421882,162.07150461471403L171.12736706932782,161.9116347059737L171.35077123443682,162.01443687712816L171.57417539954582,161.9423748171862L171.79757956465482,161.86124137078002L172.02098372976383,162.20112380867084L172.2443878948728,162.0269972628625L172.4677920599818,162.0847206270891L172.6911962250908,162.2383725780691L172.91460039019984,162.12632937416132L173.13800455530884,162.4908289023851L173.36140872041784,162.49058332501593L173.58481288552682,162.92193900843898L173.80821705063582,162.9488738694173L174.03162121574482,163.15047940377994L174.25502538085382,162.96454825063216L174.47842954596283,162.85006001414902L174.70183371107183,163.05229959112455L174.9252378761808,163.21245784446373L175.1486420412898,163.5423430879205L175.3720462063988,163.98005935140156L175.5954503715078,163.8090312206011L175.8188545366168,164.06469029809244L176.04225870172579,163.70587366351762L176.2656628668348,163.54917058235986L176.4890670319438,163.67349308729533L176.7124711970528,163.40431034792275L176.9358753621618,163.5240581826378L177.1592795272708,163.435665086134L177.38268369237977,163.33905250494703L177.60608785748877,163.1374945776008L177.82949202259778,163.0956449985698L178.05289618770678,163.0363247964092L178.27630035281578,162.89264385960985L178.4997045179248,162.57898936104232L178.7231086830338,163.10533542629628L178.9465128481428,162.89719443584892L179.1699170132518,162.50726483863713L179.3933211783608,162.72103567634733L179.6167253434698,163.0641156460336L179.8401295085788,163.51727386660914L180.06353367368777,163.38217835638557L180.28693783879677,162.92767274724443L180.51034200390578,163.00606709089286L180.73374616901478,162.58315628133417L180.95715033412378,162.6451911729773L181.18055449923276,163.23000956252497L181.40395866434176,162.98101906491286L181.62736282945076,163.05429506038493L181.85076699455976,163.1981035617979L182.07417115966877,163.11729213957824L182.29757532477777,162.97892992969855L182.52097948988674,162.6980977531096L182.74438365499574,162.3839683887325L182.96778782010475,162.39186591779037L183.19119198521375,162.64698727477392L183.41459615032275,162.81565204527692L183.63800031543175,163.0607003164056L183.86140448054073,163.1485563900808L184.08480864564976,162.8118275760731L184.30821281075876,163.1889253716298L184.53161697586776,162.89018096751641L184.75502114097677,162.97796063568285L184.97842530608577,162.92629140870469L185.20182947119474,163.16046303286845L185.42523363630374,162.78264450721122L185.64863780141275,162.24007068721744L185.87204196652175,162.47969264853455L186.09544613163075,162.86690270800028L186.31885029673973,162.41756971713826L186.54225446184873,162.3569803691477L186.76565862695773,162.55492156174884L186.98906279206673,162.6172080446413L187.21246695717574,162.4866763409252L187.43587112228474,162.51667324631285L187.6592752873937,163.09924464912362L187.8826794525027,162.92675393648307L188.10608361761172,162.92275121157186L188.32948778272072,163.3190538922981L188.55289194782972,162.47315288553042L188.77629611293872,162.92103142701117L188.9997002780477,162.88452095096486L189.2231044431567,162.9818950271688L189.4465086082657,162.91902581586194L189.66991277337473,163.1999350631393L189.89331693848374,163.44122234912822L190.11672110359274,163.56617088635946L190.3401252687017,163.74140115633762L190.56352943381071,163.8202114368171L190.78693359891972,163.51047423441284L191.01033776402872,163.34529202983086L191.23374192913772,163.521428343255L191.45714609424672,163.73448935681625L191.6805502593557,163.52209324871322L191.9039544244647,163.4559596337132L192.1273585895737,163.31219179559326L192.3507627546827,162.7734439468545L192.5741669197917,163.19637313040758L192.79757108490068,163.3699879242838L193.02097525000968,163.47900384204374L193.2443794151187,163.53618098443192L193.4677835802277,163.57096032580984L193.6911877453367,163.95942128729473L193.9145919104457,164.08462055754222L194.13799607555467,163.88141388323274L194.36140024066367,163.95151927277834L194.58480440577267,163.61429039292673L194.80820857088167,163.4818191172337L195.03161273599068,163.63430402313844L195.2550169010997,163.1185976518715L195.47842106620868,163.53451934996147L195.70182523131768,163.64462182881695L195.9252293964267,164.13768420511272L196.1486335615357,163.59412500985223L196.3720377266447,163.5686689686698L196.5954418917537,163.38795840734625L196.81884605686267,163.38118492170116L197.04225022197167,163.1181645986063L197.26565438708067,163.14211826599137L197.48905855218968,163.51954550064212L197.71246271729868,163.7178417618169L197.93586688240765,163.96195635692735L198.15927104751665,164.1382310081803L198.38267521262566,163.9355387355527L198.60607937773466,164.19632012329944L198.82948354284366,163.55802494496868L199.05288770795266,163.76833346534048L199.27629187306164,163.50693395059224L199.49969603817064,163.4482674451168L199.72310020327964,163.95489550560976L199.94650436838864,163.8385688436977L200.16990853349765,163.37869069198584L200.39331269860665,163.3282676347445L200.61671686371562,162.62774511953594L200.84012102882465,163.1156243255897L201.06352519393366,162.28839334243892L201.28692935904266,162.3777957708286L201.51033352415166,162.56714514352603L201.73373768926066,162.64953493383416L201.95714185436964,162.98036454416004L202.18054601947864,162.71996886201296L202.40395018458764,163.4483737372891L202.62735434969665,163.49503923111635L202.85075851480565,163.39901842299753L203.07416267991462,163.2988608627229L203.29756684502362,163.17966048217656L203.52097101013263,163.68613144873237L203.74437517524163,163.86354422804052L203.96777934035063,162.94590818979285L204.19118350545963,162.94701569973418L204.4145876705686,163.28667338664914L204.6379918356776,162.93488954217398L204.8613960007866,163.33366992124004L205.08480016589562,163.84049231315456L205.30820433100462,163.58693596128495L205.53160849611362,163.81444649446394L205.7550126612226,164.2716850662838L205.9784168263316,163.98461392285955L206.2018209914406,164.26616924325498L206.42522515654963,164.505202727147L206.64862932165863,164.69010112810417L206.87203348676763,164.23582023009862L207.0954376518766,164.10728043914654L207.3188418169856,163.3855349073533L207.5422459820946,163.19488240493567L207.76565014720362,163.70354226658495L207.98905431231262,164.1659344224464L208.21245847742162,164.30371503457428L208.4358626425306,164.20929303690886L208.6592668076396,164.47691508206353L208.8826709727486,164.23062596613104L209.1060751378576,164.03728671739586L209.3294793029666,164.01912157857095L209.55288346807558,164.00329459657675L209.77628763318458,163.99726566953524L209.99969179829358,164.01645434861177L210.22309596340259,164.79818248386403L210.4465001285116,164.69323619823356L210.6699042936206,164.54874506716072L210.89330845872956,164.2283391474741L211.11671262383857,164.19170148116723L211.34011678894757,164.2882429346407L211.56352095405657,164.41771466537054L211.78692511916557,164.42791297562695L212.0103292842746,164.40340448695397L212.23373344938358,164.3540468455947L212.45713761449258,164.29616630107952L212.68054177960158,164.47690184186376L212.90394594471059,164.49246027495647L213.1273501098196,165.05700997175083L213.3507542749286,164.59371667891742L213.57415844003756,164.38813063187277L213.79756260514657,164.37829556218213L214.02096677025557,164.56381591509475L214.24437093536457,164.81782602673124L214.46777510047357,164.536687283288L214.69117926558255,164.66843493561163L214.91458343069155,164.89484095636655L215.13798759580055,165.2057814668826L215.36139176090956,164.7342758810477L215.58479592601856,164.99476982015958L215.80820009112756,164.70944291677728L216.03160425623653,164.69702291270804L216.25500842134554,164.41729905976985L216.47841258645454,164.58735605142806L216.70181675156354,164.62100164767327L216.92522091667254,164.63284019384318L217.14862508178155,164.6841488280661L217.37202924689052,164.62705246808437L217.59543341199955,164.7424598599279L217.81883757710855,164.49490048487837L218.04224174221756,164.27750461832738L218.26564590732656,164.2932370041656L218.48905007243556,164.74974434787586L218.71245423754453,164.6760883443579L218.93585840265354,164.69672631901668L219.15926256776254,165.04013969831368L219.38266673287154,164.4585745486547L219.60607089798054,164.67035215585614L219.82947506308952,164.54534855132616L220.05287922819852,164.54705214301296L220.27628339330752,164.77315753056922L220.49968755841653,165.10225539244507L220.72309172352553,164.75452352696558L220.94649588863453,164.8943281286754L221.1699000537435,164.4141529812163L221.3933042188525,164.59384195093705L221.6167083839615,165.05023335765705L221.8401125490705,164.97926999904934L222.0635167141795,164.99524542851785L222.28692087928852,165.51538491814148L222.5103250443975,165.27772854475003L222.7337292095065,165.18850229742813L222.9571333746155,165.41770645001384L223.18053753972453,165.28168552162887L223.40394170483353,165.3410001800609L223.62734586994253,164.94427588348836L223.8507500350515,165.26226929459472L224.0741542001605,165.2417655625282L224.2975583652695,165.13606856507164L224.5209625303785,165.21518587410208L224.7443666954875,165.29175428995975L224.96777086059652,165.10735977383845L225.1911750257055,165.34356968807057L225.4145791908145,165.33797118319862L225.6379833559235,165.2601898008143L225.8613875210325,165.46920023702074L226.0847916861415,165.63947769394L226.30819585125047,165.6611421298141L226.53160001635948,165.02263165844414L226.75500418146848,165.1599204038975L226.97840834657748,165.1452138730249L227.20181251168648,164.98670848760935L227.4252166767955,164.66868165554848L227.64862084190446,164.56279240539L227.87202500701346,164.32648927599362L228.09542917212246,164.51038467811208L228.31883333723147,164.6224620458853L228.54223750234047,164.7168011002661L228.7656416674495,164.53924551727448L228.98904583255847,164.4677881352811L229.21244999766748,164.54658264983948L229.43585416277648,164.69606725784436L229.65925832788548,164.17251149968178L229.88266249299448,163.9073062934198L230.1060666581035,163.97320118462454L230.32947082321246,164.40030680744422L230.55287498832146,164.32466732144943L230.77627915343047,164.2832985097073L230.99968331853947,164.6912384193675L231.22308748364847,164.16908496384872L231.44649164875744,164.28716087781254L231.66989581386645,165.0334693685392L231.89329997897545,164.86010222012794L232.11670414408445,164.7389442541918L232.34010830919345,164.6053520296129L232.56351247430246,164.0935756380832L232.78691663941143,164.07423585007274L233.01032080452043,164.29093962071363L233.23372496962944,164.26875177011556L233.45712913473844,164.55763953636352L233.68053329984744,164.31625891798478L233.90393746495644,164.54781795117145L234.12734163006542,164.342479473038L234.35074579517445,164.2108593802527L234.57414996028345,164.4201261410463L234.79755412539245,164.78567159243315L235.02095829050145,164.74006063477L235.24436245561046,164.58469867361237L235.46776662071943,163.93338909615042L235.69117078582843,164.17301694521217L235.91457495093744,163.81560691545246L236.13797911604644,163.670131098799L236.36138328115544,164.12212922786273L236.58478744626441,164.80734815234277L236.80819161137342,164.84620761953906L237.03159577648242,164.96974020618748L237.25499994159142,164.7424085377203L237.47840410670042,164.5153231164316L237.70180827180943,165.02532007717247L237.9252124369184,164.5543552123102L238.1486166020274,164.52714090763038L238.3720207671364,164.61191757092567L238.5954249322454,164.23355461189132L238.8188290973544,164.5358602227087L239.0422332624634,164.65461453390935L239.2656374275724,164.8662560778429L239.4890415926814,164.55421277889923L239.7124457577904,164.91976450190813L239.93584992289942,164.92707146291488L240.15925408800842,164.9953062364952L240.38265825311743,164.7897576027675L240.6060624182264,165.08927585142328L240.8294665833354,165.48936021769836L241.0528707484444,165.56829217845439L241.2762749135534,165.98796173304265L241.4996790786624,165.63769127141322L241.7230832437714,165.61505416449717L241.9464874088804,165.7948284437707L242.1698915739894,165.8871429109533L242.3932957390984,166.19022775796012L242.6166999042074,166.2193287287013L242.8401040693164,165.83092621046427L243.06350823442537,165.841872545203L243.28691239953437,165.90046621078113L243.51031656464338,166.04845038117992L243.73372072975238,166.09925909216304L243.95712489486138,166.02496716284426L244.18052905997038,166.57104357107826L244.40393322507936,167.16354345540952L244.62733739018836,167.4466909001699L244.85074155529736,167.6288618393602L245.07414572040636,167.39262605635915L245.29754988551537,167.97145374815304L245.5209540506244,168.177629475673L245.74435821573337,168.67718437516749" fill="none"></path></g></g></g></g><g opacity="0.2"><g><g><g><path style="fill: none;" stroke="rgb(0, 119, 187)" stroke-width="2px" d="M22.56359727184375,94.987917534199L22.78700143695275,98.34019070131366L23.01040560206175,81.12846745272799L23.233809767170747,38.51517987835266L23.457213932279746,8.462277426222357L23.68061809738874,2.2743088693242424L23.904022262497744,-13.869013938570703L24.127426427606743,5.1773964833352775L24.350830592715738,5.145735706852522L24.57423475782474,15.284050869220927L24.797638922933736,13.312105320971352L25.021043088042735,10.808985143895294L25.244447253151737,10.931269753323496L25.467851418260732,1.3766778851646606L25.69125558336973,9.879131438735284L25.914659748478734,9.642826916077624L26.13806391358773,29.726751389148838L26.361468078696728,26.15484015141247L26.584872243805727,35.883826703539526L26.808276408914725,30.751738189359408L27.031680574023724,45.8272567659909L27.255084739132723,46.27460571993926L27.478488904241722,47.00106292163428L27.701893069350717,55.33280869551109L27.925297234459716,57.8548293967299L28.14870139956872,57.58128577030443L28.372105564677714,61.43124989657138L28.595509729786713,68.74139424330743L28.818913894895715,62.10445942872722L29.04231806000471,73.4598641805626L29.26572222511371,73.95884350031638L29.489126390222708,79.72640217520417L29.712530555331707,67.7806747075677L29.935934720440706,80.13414774662137L30.159338885549705,84.18874191309939L30.382743050658704,87.21894548879412L30.6061472157677,82.76263637499086L30.8295513808767,88.00691505622709L31.0529555459857,89.1287207850412L31.276359711094695,84.39877210306553L31.499763876203698,88.59001472908167L31.723168041312693,92.29680635702013L31.946572206421692,86.56325903141455L32.169976371530694,93.8226844589409L32.39338053663969,95.79852250092254L32.61678470174869,94.51127208253122L32.84018886685769,96.71818582196354L33.06359303196668,99.94256864043724L33.286997197075685,97.86620420663188L33.51040136218468,100.45704940530008L33.73380552729368,99.97511345158802L33.957209692402685,97.51605109529282L34.18061385751168,101.0532999504643L34.404018022620676,91.37733491947297L34.62742218772968,103.29491033737112L34.85082635283867,102.59546759041527L35.07423051794767,105.67737691471656L35.29763468305668,100.21711965520534L35.521038848165674,101.82065574827385L35.74444301327467,101.93818438824773L35.96784717838367,109.53818931136713L36.19125134349267,104.55864817478574L36.41465550860166,106.4628588497116L36.63805967371066,112.328648167479L36.86146383881967,109.58108212522114L37.08486800392866,98.51527068347414L37.30827216903766,110.1600288910306L37.53167633414666,107.10442131134853L37.755080499255655,113.9420045836427L37.97848466436465,116.15330423150552L38.20188882947366,108.9673222112445L38.425292994582655,116.88046043735666L38.64869715969165,113.93219796651135L38.87210132480065,118.77597467822265L39.09550548990965,111.81240618626202L39.31890965501864,119.61558146444295L39.542313820127646,114.09433951880185L39.76571798523665,118.62990336854084L39.98912215034564,117.37402590139153L40.21252631545464,116.56716266279776L40.43593048056364,119.09525510600005L40.65933464567264,117.35358345631619L40.88273881078164,123.26266306088915L41.10614297589064,122.07617203570689L41.32954714099964,116.86662426685479L41.55295130610863,121.83408359630651L41.776355471217634,120.43795300112771L41.99975963632663,119.46984595087537L42.223163801435625,122.96081661912304L42.44656796654463,125.51984342272426L42.66997213165363,126.6494546979483L42.893376296762625,123.57976424041514L43.11678046187162,124.73222335736935L43.34018462698062,118.07141960675249L43.56358879208962,129.36279694848432L43.78699295719862,127.309561328668L44.01039712230762,125.39842228901831L44.23380128741662,127.34375085548021L44.45720545252561,125.27105276700347L44.680609617634616,129.5827571092564L44.90401378274361,125.04567875051251L45.127417947852614,123.89581006072503L45.35082211296161,130.75278041887847L45.57422627807061,129.29404783383603L45.79763044317961,127.66330540253453L46.0210346082886,128.17040550586665L46.244438773397604,131.18801330078753L46.46784293850661,123.10860117428548L46.6912471036156,126.01753438187657L46.914651268724604,130.59735478887222L47.1380554338336,130.92248766321157L47.361459598942595,132.810340270288L47.5848637640516,130.58869947270387L47.80826792916059,131.60021331045445L48.031672094269595,127.75174313424664L48.25507625937859,127.1600429690791L48.47848042448759,132.60936972242365L48.70188458959659,129.93034720535636L48.92528875470558,131.96342820533812L49.148692919814586,130.4399829119999L49.37209708492359,134.49258971372035L49.595501250032584,131.83722369025017L49.818905415141586,132.09397751096506L50.04230958025058,134.60199071713393L50.26571374535958,134.64623014193575L50.48911791046858,135.8253747704969L50.71252207557758,132.41342926329057L50.93592624068658,133.15320866184325L51.15933040579557,135.50416865479923L51.382734570904574,137.55952184602964L51.60613873601357,131.12874186013832L51.829542901122565,134.91015218174178L52.052947066231575,132.17286903885892L52.27635123134057,138.15545372753445L52.499755396449565,135.03894712399654L52.72315956155857,134.52321226344182L52.94656372666756,137.68417758720312L53.16996789177656,138.68683394581865L53.39337205688555,137.8217786112285L53.61677622199456,141.4462933382033L53.84018038710356,136.03352724341622L54.06358455221255,140.4338235094745L54.286988717321556,133.45275250168336L54.51039288243055,139.21678874386288L54.73379704753955,139.45274719093345L54.957201212648556,138.82393470216368L55.18060537775755,138.6339357783575L55.40400954286655,134.85742533882873L55.62741370797555,136.63464683223646L55.850817873084544,137.68854293668784L56.07422203819354,139.7117590691919L56.29762620330254,140.58941703753786L56.521030368411544,136.4570141143098L56.74443453352054,135.41060489260894L56.967838698629535,137.8260240335296L57.19124286373854,139.7453763720136L57.41464702884753,138.7428056756721L57.638051193956535,142.3385344520807L57.86145535906554,140.20036297431474L58.08485952417453,139.5843895471771L58.30826368928353,143.6870539553517L58.53166785439253,140.35409934427705L58.755072019501526,142.9334555187519L58.97847618461052,141.89450234138295L59.201880349719524,142.93774548543553L59.425284514828526,143.53677491476938L59.64868867993752,139.83075082080626L59.87209284504652,143.2869905766698L60.09549701015552,142.8351906109627L60.318901175264514,142.0365098327846L60.54230534037352,142.03775707549454L60.76570950548252,140.81206014073265L60.989113670591514,143.38630056420226L61.21251783570051,141.18359798216142L61.43592200080951,142.6984941805511L61.65932616591851,144.76738886406076L61.88273033102751,141.61946133840735L62.106134496136505,142.60077065833377L62.32953866124551,141.99606695996795L62.5529428263545,140.4716656756515L62.7763469914635,144.75479650977783L62.9997511565725,145.77262879686114L63.2231553216815,145.73148006690644L63.4465594867905,144.93557817289798L63.6699636518995,145.43254956894842L63.893367817008496,145.49144752208284L64.1167719821175,147.33853516619226L64.3401761472265,142.32097368590385L64.56358031233549,144.3077216751064L64.78698447744449,145.31005937006253L65.01038864255348,146.77126930806998L65.23379280766248,144.60719698512727L65.45719697277148,145.21851723753946L65.68060113788049,147.70886345631166L65.90400530298949,141.94915487221627L66.12740946809848,148.51539775177312L66.35081363320748,144.07652262398113L66.57421779831648,142.25732318980604L66.79762196342548,146.13180385890138L67.02102612853447,146.35339502937106L67.24443029364348,143.80047765915387L67.46783445875246,148.2484878118488L67.69123862386147,144.6348521936762L67.91464278897047,146.21555072448743L68.13804695407947,140.42235161773596L68.36145111918847,148.5235733592069L68.58485528429748,146.41694958372196L68.80825944940646,146.45471294060684L69.03166361451547,142.77609734784346L69.25506777962447,146.40122884319132L69.47847194473346,146.1873507038756L69.70187610984246,149.61858392870334L69.92528027495146,147.33649640407023L70.14868444006045,147.04441203505297L70.37208860516945,144.95778183432745L70.59549277027845,147.4116119389247L70.81889693538744,149.65094028285122L71.04230110049646,145.80931966207513L71.26570526560546,146.49930872046866L71.48910943071445,146.00428357128425L71.71251359582345,146.44570126937853L71.93591776093244,148.11221283982545L72.15932192604144,150.22540862497422L72.38272609115045,147.41623770172248L72.60613025625943,142.9431524881725L72.82953442136844,146.5113665421616L73.05293858647744,148.02641350615357L73.27634275158643,150.4091679087398L73.49974691669543,150.409058261029L73.72315108180445,147.48678572412547L73.94655524691343,148.07300693024584L74.16995941202244,150.6174094704241L74.39336357713144,148.84879189582028L74.61676774224043,147.9621496681737L74.84017190734943,148.17180294413407L75.06357607245843,148.6881203081522L75.28698023756742,146.3216451641233L75.51038440267642,145.84512306613016L75.73378856778542,153.13729889426492L75.95719273289441,148.1101158273571L76.18059689800342,150.94994013874899L76.40400106311243,149.61918013813062L76.62740522822142,149.90092335742654L76.85080939333042,153.46011546071443L77.07421355843941,151.40781184643959L77.29761772354841,153.56850222280346L77.52102188865742,150.90431983808975L77.7444260537664,151.43215021173796L77.9678302188754,152.839423755523L78.19123438398441,151.46166600487894L78.4146385490934,147.62521253247252L78.6380427142024,152.74178932207067L78.8614468793114,152.5916370616539L79.08485104442039,151.96549380934297L79.3082552095294,151.36343193550834L79.53165937463841,148.94126260739387L79.7550635397474,152.45803817907137L79.9784677048564,153.56964667078455L80.2018718699654,148.6670542417219L80.42527603507439,149.6729486342959L80.64868020018339,150.93964353341016L80.8720843652924,153.43069218282943L81.09548853040138,152.4924846927057L81.31889269551039,151.89449349013313L81.54229686061939,150.1595720276431L81.76570102572838,153.48732865192937L81.98910519083738,149.1248642725752L82.2125093559464,151.44333770472673L82.43591352105538,153.03971243168604L82.65931768616439,153.35810882479544L82.88272185127337,151.71762145319985L83.10612601638238,154.15497698925498L83.32953018149138,150.9862575164482L83.55293434660037,151.0712584777261L83.77633851170937,152.16067701397364L83.99974267681837,153.90588137583865L84.22314684192736,151.81522504823354L84.44655100703636,152.38715436055418L84.66995517214536,154.6061567600981L84.89335933725437,149.9983522014212L85.11676350236337,147.3516449206103L85.34016766747237,152.83740212585582L85.56357183258136,155.01496797020425L85.78697599769036,150.94066120122568L86.01038016279936,154.58302451961808L86.23378432790835,153.15316012092495L86.45718849301736,152.87332545709447L86.68059265812636,152.17203583151047L86.90399682323535,152.1697914799308L87.12740098834435,153.59118559296752L87.35080515345335,150.5411186491699L87.57420931856234,154.58368583237365L87.79761348367136,154.00556827737682L88.02101764878036,149.94258948751641L88.24442181388935,151.2433505597683L88.46782597899835,154.27913931573L88.69123014410734,153.5992138612899L88.91463430921634,154.1663803511743L89.13803847432534,150.1405515763167L89.36144263943433,154.4786673108996L89.58484680454333,152.94205401279697L89.80825096965233,152.1028344200553L90.03165513476132,150.76678734388358L90.25505929987033,153.02892241164878L90.47846346497934,153.43437223412192L90.70186763008833,154.6711607201256L90.92527179519733,154.25228247957503L91.14867596030633,153.88613450842846L91.37208012541532,154.47926694681786L91.59548429052433,153.01838937843365L91.81888845563333,156.38110306350748L92.04229262074232,155.93674200967743L92.26569678585132,154.4642589164072L92.48910095096032,155.78617857034533L92.71250511606931,153.69335670045265L92.93590928117831,153.89477611863293L93.15931344628733,156.91581040451513L93.38271761139632,155.9460415061465L93.60612177650532,152.7816496914239L93.8295259416143,153.86211823328043L94.05293010672331,157.76257855684463L94.27633427183231,157.12102980117155L94.4997384369413,155.1928371160073L94.7231426020503,154.5311166080448L94.9465467671593,155.38541961399827L95.16995093226829,156.52297006877973L95.3933550973773,153.64395012728113L95.6167592624863,155.69371471175364L95.84016342759529,155.5349345470962L96.0635675927043,154.3443214532875L96.2869717578133,153.7562053976655L96.5103759229223,152.45631122762686L96.7337800880313,156.47642461556094L96.9571842531403,150.572748587234L97.18058841824929,157.88064172940847L97.40399258335829,152.4624035285561L97.62739674846729,153.56823153001753L97.85080091357628,152.78527149237004L98.07420507868528,157.3822106482085L98.29760924379428,153.4388506578084L98.52101340890327,155.4347919222602L98.74441757401227,157.33420893633115L98.96782173912129,155.98902340876552L99.19122590423028,155.650698544225L99.41463006933928,156.39685464245676L99.63803423444827,152.51328006635006L99.86143839955727,152.65590775261572L100.08484256466627,157.1524233113593L100.30824672977526,156.39040598646753L100.53165089488427,155.71236852854716L100.75505505999327,153.22479776745362L100.97845922510226,156.97850490963472L101.20186339021126,155.47536157524243L101.42526755532026,156.1356189715644L101.64867172042926,152.6065354443538L101.87207588553827,158.84095693921475L102.09548005064727,155.63307952770182L102.31888421575626,156.64099897643396L102.54228838086526,154.0324422459866L102.76569254597426,156.8842352903064L102.98909671108325,155.56847989360773L103.21250087619225,154.49324360344914L103.43590504130125,158.25090834269056L103.65930920641024,157.59474902955833L103.88271337151924,154.03664655039617L104.10611753662825,154.22240690488314L104.32952170173724,153.76978115485434L104.55292586684625,158.2045821848933L104.77633003195525,158.59955037151568L104.99973419706424,155.34279063994828L105.22313836217324,156.88931677640207L105.44654252728223,155.97519409124556L105.66994669239124,156.098965797751L105.89335085750024,156.47403292486993L106.11675502260923,155.9227447941004L106.34015918771823,157.7087586633149L106.56356335282723,156.14253363032438L106.78696751793622,150.308292014838L107.01037168304522,157.81857769862577L107.23377584815424,154.95163613776586L107.45718001326323,155.53659982170345L107.68058417837223,156.9776277279486L107.90398834348123,156.67604512598652L108.12739250859022,158.96244317624897L108.35079667369922,152.13552314382645L108.57420083880822,154.14704808917045L108.79760500391721,158.4636214750794L109.02100916902621,156.1409094736087L109.24441333413522,157.520952693724L109.4678174992442,154.91795373161594L109.69122166435321,157.9007209664419L109.91462582946222,157.03739258329625L110.13802999457121,154.41819659841394L110.36143415968021,157.37507326753604L110.5848383247892,156.65690132098553L110.8082424898982,158.35268883020612L111.03164665500721,157.72667578455173L111.2550508201162,159.24188036712795L111.4784549852252,159.28413242717218L111.7018591503342,158.90309292630764L111.92526331544319,158.6837221219809L112.14866748055219,157.13337202161426L112.3720716456612,161.11607840772345L112.59547581077018,157.0192630196198L112.8188799758792,159.10722955182027L113.0422841409882,157.91102099827168L113.26568830609719,158.65193799182353L113.48909247120619,160.24691128397967L113.7124966363152,161.1697612416147L113.93590080142418,156.95768212406267L114.15930496653318,158.49743751437686L114.38270913164219,159.97436476642395L114.60611329675118,157.20247406483156L114.82951746186018,157.93180609244317L115.05292162696918,158.98835430089858L115.27632579207817,158.05629736205046L115.49972995718717,156.86533476616367L115.72313412229619,157.881213953399L115.94653828740518,157.42437361948777L116.16994245251418,159.2194265718583L116.39334661762317,155.57431863420584L116.61675078273217,158.7282836369331L116.84015494784117,152.71716313153155L117.06355911295016,156.56976222934776L117.28696327805916,159.0698636678869L117.51036744316816,158.17291112893764L117.73377160827715,156.0114189536888L117.95717577338615,156.9486910117801L118.18057993849516,159.0804172600478L118.40398410360416,157.41779818333296L118.62738826871316,157.47695997627142L118.85079243382216,159.39851897493452L119.07419659893115,159.79222621288312L119.29760076404015,160.3980332413385L119.52100492914916,158.24835218043341L119.74440909425815,156.86223721833463L119.96781325936715,155.15079749840265L120.19121742447615,158.85454982885838L120.41462158958514,158.48397483138976L120.63802575469414,159.39599022460504L120.86142991980314,157.34702058603557L121.08483408491213,159.5201491245891L121.30823825002115,159.37766192445284L121.53164241513015,156.22113733297746L121.75504658023914,159.86559423734727L121.97845074534814,155.90953567144442L122.20185491045713,158.6940564187203L122.42525907556613,159.2082493583424L122.64866324067513,158.80009260800986L122.87206740578412,158.56063571366775L123.09547157089312,159.0893227100563L123.31887573600213,159.82819751499522L123.54227990111112,158.09178895542797L123.76568406622012,156.62283514784792L123.98908823132913,156.1478241323687L124.21249239643812,160.9283375414608L124.43589656154712,159.75230759318353L124.65930072665613,157.14614255342718L124.88270489176512,161.2295672148539L125.10610905687412,160.2995524646187L125.32951322198312,156.76413678211154L125.55291738709211,159.56707149181364L125.77632155220111,159.6951126060569L125.99972571731011,161.2158304125899L126.2231298824191,156.2595448701631L126.4465340475281,160.23866029374477L126.66993821263712,159.65259327971765L126.89334237774611,159.4195507764552L127.11674654285511,161.1757713067609L127.3401507079641,155.1157239369224L127.5635548730731,160.04039667373988L127.7869590381821,158.38601145480513L128.0103632032911,158.30630099557155L128.2337673684001,160.0088558244408L128.4571715335091,159.30821380564848L128.6805756986181,158.6861515040725L128.9039798637271,160.2036963799753L129.1273840288361,162.0583702750731L129.35078819394508,158.06247532525376L129.57419235905408,163.54719259049247L129.79759652416308,161.47724426101223L130.02100068927209,158.18671988751183L130.2444048543811,159.41318435624902L130.4678090194901,159.94982423815884L130.69121318459906,160.17431421998182L130.9146173497081,159.25587415621405L131.1380215148171,158.41513320148553L131.36142567992607,159.83235384853134L131.58482984503507,161.79297827064465L131.80823401014408,160.9094267378452L132.03163817525308,159.89686096736946L132.25504234036208,159.10451577097888L132.47844650547108,158.92367928400336L132.70185067058006,158.3303412561563L132.92525483568906,160.6496130607018L133.14865900079806,157.17199885422144L133.37206316590706,156.02172241200955L133.59546733101607,161.6356200997362L133.81887149612507,160.57852365272694L134.04227566123407,159.4483093150937L134.26567982634307,159.22388101010804L134.48908399145208,160.4421424594838L134.71248815656108,161.49492495437272L134.93589232167005,160.2008352600226L135.15929648677906,161.08479454524644L135.38270065188806,158.46533129406913L135.60610481699706,158.54249244402746L135.82950898210606,155.8136007775089L136.05291314721504,159.75287296419216L136.27631731232404,157.84912829203705L136.49972147743304,160.91425123711875L136.72312564254204,157.97758743817758L136.94652980765105,157.52956346550985L137.16993397276005,160.52842150189028L137.39333813786902,161.03282838332677L137.61674230297803,158.34143623388908L137.84014646808703,161.66329586723091L138.06355063319603,160.78492518876502L138.28695479830503,159.7971535068855L138.51035896341403,161.6981261478529L138.733763128523,159.69812791810287L138.957167293632,161.25617391716867L139.180571458741,162.79275809009815L139.40397562385004,160.01394416351837L139.62737978895905,161.64031439235322L139.85078395406805,161.84570854004866L140.07418811917702,162.53637604365252L140.29759228428603,157.94491242037026L140.52099644939503,161.18404628243252L140.74440061450403,159.42212407116716L140.96780477961303,159.23860121527792L141.19120894472204,160.33632556561577L141.414613109831,161.58609359938103L141.63801727494,160.22143189719117L141.861421440049,161.5860524814895L142.08482560515802,158.15623097093786L142.30822977026702,161.60782097856685L142.531633935376,159.01722591373883L142.755038100485,160.66863693851914L142.978442265594,161.49107015204123L143.201846430703,160.1132986954333L143.425250595812,160.38133595088388L143.648654760921,160.226677854853L143.87205892602998,161.83131042502913L144.09546309113898,159.8755276346442L144.31886725624798,163.75205220559795L144.542271421357,158.53422774782874L144.765675586466,160.19966340011382L144.98907975157502,158.19539233613497L145.212483916684,160.50483353811242L145.435888081793,162.13505514278782L145.659292246902,162.47375349484312L145.882696412011,160.09993880717505L146.10610057712,160.5105592045088L146.329504742229,162.5697911835075L146.55290890733798,161.3228602842582L146.77631307244698,157.9809453993197L146.99971723755598,159.66561737186169L147.223121402665,162.75209420861447L147.446525567774,159.08647186957649L147.66992973288296,158.619194444197L147.89333389799197,160.3421985711235L148.11673806310097,163.40022867991524L148.34014222820997,160.81441356997829L148.56354639331897,159.38492265879992L148.78695055842798,160.3948671636902L149.01035472353695,159.0600090798821L149.23375888864595,159.34732719997214L149.45716305375495,160.23574092344572L149.68056721886396,157.15617531896197L149.90397138397296,161.49189936285387L150.12737554908196,160.21283140487822L150.35077971419094,161.0196295401437L150.57418387929997,163.67283002132635L150.79758804440897,162.58922795348568L151.02099220951797,161.34888448310957L151.24439637462697,158.5981112453119L151.46780053973598,158.86020353894457L151.69120470484495,161.28688212916418L151.91460886995395,162.3350559937101L152.13801303506295,160.0108843070899L152.36141720017196,161.8625703020694L152.58482136528096,160.85254013490507L152.80822553038993,160.49284424623872L153.03162969549894,161.91045893974504L153.25503386060794,162.07688703222817L153.47843802571694,161.14558049490057L153.70184219082594,162.24939371967668L153.92524635593495,161.191183663105L154.14865052104392,162.38372587132494L154.37205468615292,163.24796912755727L154.59545885126192,161.4261004569233L154.81886301637093,162.07696584152026L155.04226718147993,163.79727503330568L155.26567134658893,158.89293680709824L155.4890755116979,162.5758320870723L155.7124796768069,160.99643562282643L155.9358838419159,161.29912498136903L156.15928800702494,161.3162128917932L156.38269217213394,158.79452798668862L156.60609633724295,161.2178212038384L156.82950050235192,161.0562176106289L157.05290466746092,161.824851489567L157.27630883256992,164.26984981371137L157.49971299767893,159.25511690171157L157.72311716278793,163.38135899419115L157.94652132789693,164.70120904758866L158.1699254930059,162.01845165537352L158.3933296581149,161.99822165273778L158.6167338232239,158.9182688547754L158.8401379883329,161.46141387277086L159.06354215344192,158.10980201841173L159.2869463185509,161.88408866530662L159.5103504836599,162.9419612125186L159.7337546487689,163.33471759922546L159.9571588138779,163.4812463454506L160.1805629789869,159.86172230256096L160.4039671440959,162.5813658699749L160.62737130920488,161.96889431659972L160.85077547431388,162.0192500277675L161.07417963942288,161.13294016974416L161.29758380453188,160.40185035226943L161.52098796964088,160.97972805289893L161.74439213474992,162.2515284235456L161.9677962998589,163.44047966923807L162.1912004649679,162.26554619806842L162.4146046300769,163.3711806027905L162.6380087951859,161.0957970077233L162.8614129602949,161.11753123989104L163.0848171254039,161.98022229571788L163.30822129051288,159.65034207515606L163.53162545562188,163.9460823960201L163.75502962073088,162.6095196329587L163.97843378583988,160.90559592095042L164.20183795094889,162.13283477664487L164.42524211605786,159.7833276158565L164.64864628116686,161.3379197120333L164.87205044627586,162.9590559759247L165.09545461138487,162.01270885652232L165.31885877649387,163.0525649142596L165.54226294160287,163.220298499799L165.76566710671185,163.84450749796224L165.98907127182085,160.18257891618057L166.21247543692985,162.37966547953576L166.43587960203885,163.27628736210724L166.65928376714785,162.1872474531109L166.88268793225686,161.6523345226456L167.10609209736583,162.8111429273512L167.32949626247486,163.33669639775562L167.55290042758386,162.42013919077107L167.77630459269287,161.50453968801025L167.99970875780187,162.68005394939783L168.22311292291087,163.25974940348235L168.44651708801985,163.03018478854563L168.66992125312885,163.1727764966562L168.89332541823785,163.60067154817153L169.11672958334685,162.4569088652772L169.34013374845586,162.1662430635179L169.56353791356483,158.5724982253759L169.78694207867383,161.5371667349441L170.01034624378283,165.0060742278917L170.23375040889184,160.31092498811938L170.45715457400084,162.41260776363808L170.68055873910984,162.01013898830132L170.90396290421882,162.03652982168555L171.12736706932782,161.27215507101235L171.35077123443682,162.42564556174594L171.57417539954582,161.6541265774184L171.79757956465482,161.53670758515526L172.02098372976383,163.5606535602341L172.2443878948728,161.3304910796291L172.4677920599818,162.31561408399548L172.6911962250908,162.85298038198914L172.91460039019984,161.67815655853025L173.13800455530884,163.94882701528013L173.36140872041784,162.4896010155393L173.58481288552682,164.64736174213124L173.80821705063582,163.05661331333044L174.03162121574482,163.95690154123054L174.25502538085382,162.22082363804105L174.47842954596283,162.39210706821638L174.70183371107183,163.86125789902673L174.9252378761808,163.85309085782038L175.1486420412898,164.86188406174767L175.3720462063988,165.73092440532588L175.5954503715078,163.1249186973992L175.8188545366168,165.0873266080579L176.04225870172579,162.27060712521833L176.2656628668348,162.9223582577288L176.4890670319438,164.1707831070372L176.7124711970528,162.32757939043248L176.9358753621618,164.00304952149781L177.1592795272708,163.08209270011892L177.38268369237977,162.95260218019902L177.60608785748877,162.33126286821593L177.82949202259778,162.92824668244586L178.05289618770678,162.7990439877667L178.27630035281578,162.31792011241248L178.4997045179248,161.32437136677217L178.7231086830338,165.2107196873121L178.9465128481428,162.06463047405944L179.1699170132518,160.94754644979008L179.3933211783608,163.5761190271881L179.6167253434698,164.43643552477872L179.8401295085788,165.32990674891124L180.06353367368777,162.84179631549134L180.28693783879677,161.10965031067997L180.51034200390578,163.31964446548653L180.73374616901478,160.89151304309934L180.95715033412378,162.8933307395498L181.18055449923276,165.56928312071574L181.40395866434176,161.98505707446432L181.62736282945076,163.34739904227337L181.85076699455976,163.77333756744977L182.07417115966877,162.7940464506996L182.29757532477777,162.4254810901798L182.52097948988674,161.5747690467538L182.74438365499574,161.1274509312241L182.96778782010475,162.42345603402165L183.19119198521375,163.6674727027083L183.41459615032275,163.4903111272888L183.63800031543175,164.0408934009203L183.86140448054073,163.49998068478172L184.08480864564976,161.46491232004237L184.30821281075876,164.69731655385655L184.53161697586776,161.6952033510629L184.75502114097677,163.32907930834858L184.97842530608577,162.71961450079195L185.20182947119474,164.09714952952353L185.42523363630374,161.2713704045822L185.64863780141275,160.0697754072424L185.87204196652175,163.43818049380303L186.09544613163075,164.4157429458632L186.31885029673973,160.62023775369025L186.54225446184873,162.11462297718538L186.76565862695773,163.34668633215338L186.98906279206673,162.86635397621123L187.21246695717574,161.96454952606072L187.43587112228474,162.63666086786347L187.6592752873937,165.42953026036665L187.8826794525027,162.23679108592088L188.10608361761172,162.90674031192702L188.32948778272072,164.90426461520298L188.55289194782972,159.08954885845978L188.77629611293872,164.71254559293422L188.9997002780477,162.7384790467796L189.2231044431567,163.37139133198463L189.4465086082657,162.66754897063444L189.66991277337473,164.32357205224872L189.89331693848374,164.40637149308395L190.11672110359274,164.06596503528442L190.3401252687017,164.4423222362503L190.56352943381071,164.13545255873487L190.78693359891972,162.27152542479595L191.01033776402872,162.68456321150296L191.23374192913772,164.22597359695146L191.45714609424672,164.58673341106135L191.6805502593557,162.672508816301L191.9039544244647,163.19142517371327L192.1273585895737,162.73712044311344L192.3507627546827,160.6184525518994L192.5741669197917,164.88808986461999L192.79757108490068,164.06444709978857L193.02097525000968,163.91506751308356L193.2443794151187,163.7648895539846L193.4677835802277,163.71007769132157L193.6911877453367,165.5132651332343L193.9145919104457,164.5854176385322L194.13799607555467,163.06858718599483L194.36140024066367,164.23194083096064L194.58480440577267,162.26537487352036L194.80820857088167,162.95193401446159L195.03161273599068,164.2442436467573L195.2550169010997,161.0557721668039L195.47842106620868,165.19820614232128L195.70182523131768,164.0850317442388L195.9252293964267,166.10993371029582L196.1486335615357,161.4198882288104L196.3720377266447,163.4668448039401L196.5954418917537,162.66511616205187L196.81884605686267,163.35409097912085L197.04225022197167,162.06608330622706L197.26565438708067,163.23793293553152L197.48905855218968,165.02925443924516L197.71246271729868,164.51102680651607L197.93586688240765,164.93841473736913L198.15927104751665,164.84332961319203L198.38267521262566,163.1247696450424L198.60607937773466,165.23944567428646L198.82948354284366,161.00484423164556L199.05288770795266,164.6095675468277L199.27629187306164,162.46133589159922L199.49969603817064,163.21360142321507L199.72310020327964,165.98140774758153L199.94650436838864,163.37326219604952L200.16990853349765,161.5391780851384L200.39331269860665,163.12657540577902L200.61671686371562,159.82565505870193L200.84012102882465,165.06714114980466L201.06352519393366,158.97946940983584L201.28692935904266,162.7354054843873L201.51033352415166,163.32454263431575L201.73373768926066,162.9790940950666L201.95714185436964,164.30368298546364L202.18054601947864,161.67838613342465L202.40395018458764,166.3619932383937L202.62735434969665,163.68170120642526L202.85075851480565,163.0149351905222L203.07416267991462,162.89823062162455L203.29756684502362,162.70285895999103L203.52097101013263,165.71201531495572L203.74437517524163,164.5731953452731L203.96777934035063,159.27536403680213L204.19118350545963,162.95144573949958L204.4145876705686,164.64530413430896L204.6379918356776,161.5277541642733L204.8613960007866,164.92879143750423L205.08480016589562,165.86778188081263L205.30820433100462,162.57271055380656L205.53160849611362,164.72448862717997L205.7550126612226,166.10063935356317L205.9784168263316,162.8363293491625L206.2018209914406,165.3923905248367L206.42522515654963,165.46133666271527L206.64862932165863,165.42969473193278L206.87203348676763,162.41869663807634L207.0954376518766,163.59312127533823L207.3188418169856,160.4985527801803L207.5422459820946,162.4322723952652L207.76565014720362,165.73818171318197L207.98905431231262,166.01550304589233L208.21245847742162,164.85483748308567L208.4358626425306,163.83160504624732L208.6592668076396,165.5474032626821L208.8826709727486,163.24546950240097L209.1060751378576,163.26392972245517L209.3294793029666,163.94646102327135L209.55288346807558,163.9399866685999L209.77628763318458,163.97314996136922L209.99969179829358,164.09320906491803L210.22309596340259,167.92509502487295L210.4465001285116,164.27345105571175L210.6699042936206,163.97078054286945L210.89330845872956,162.94671546872746L211.11671262383857,164.04515081593976L211.34011678894757,164.67440874853455L211.56352095405657,164.9356015882899L211.78692511916557,164.46870621665258L212.0103292842746,164.3053705322621L212.23373344938358,164.15661628015755L212.45713761449258,164.06464412301884L212.68054177960158,165.19984400500078L212.90394594471059,164.55469400732736L213.1273501098196,167.3152087589281L213.3507542749286,162.7405435075838L213.57415844003756,163.56578644369418L213.79756260514657,164.33895528341964L214.02096677025557,165.30589732674514L214.24437093536457,165.8338664732773L214.46777510047357,163.41213230951493L214.69117926558255,165.19542554490616L214.91458343069155,165.8004650393862L215.13798759580055,166.44954350894682L215.36139176090956,162.84825353770796L215.58479592601856,166.03674557660713L215.80820009112756,163.56813530324817L216.03160425623653,164.64734289643093L216.25500842134554,163.29840364801717L216.47841258645454,165.26758401806097L216.70181675156354,164.7555840326541L216.92522091667254,164.68019437852277L217.14862508178155,164.88938336495787L217.37202924689052,164.39866702815738L217.59543341199955,165.2040894273019L217.81883757710855,163.50466298468038L218.04224174221756,163.40792115212344L218.26564590732656,164.35616654751843L218.48905007243556,166.57577372271703L218.71245423754453,164.38146433028598L218.93585840265354,164.77927821765175L219.15926256776254,166.4137932155017L219.38266673287154,162.13231395001876L219.60607089798054,165.51746258466196L219.82947506308952,164.0453341332062L220.05287922819852,164.55386650976018L220.27628339330752,165.6775790807943L220.49968755841653,166.41864683994845L220.72309172352553,163.36359606504757L220.94649588863453,165.45354653551465L221.1699000537435,162.49345239137986L221.3933042188525,165.31259782982005L221.6167083839615,166.87579898453717L221.8401125490705,164.6954165646185L222.0635167141795,165.05914714639187L222.28692087928852,167.59594287663595L222.5103250443975,164.32710305118437L222.7337292095065,164.8315973081404L222.9571333746155,166.33452306035664L223.18053753972453,164.737601808089L223.40394170483353,165.57825881378898L223.62734586994253,163.35737869719824L223.8507500350515,166.53424293902012L224.0741542001605,165.1597506342622L224.2975583652695,164.71328057524542L224.5209625303785,165.53165511022382L224.7443666954875,165.59802795339039L224.96777086059652,164.3697817093533L225.1911750257055,166.28840934499897L225.4145791908145,165.31557716371094L225.6379833559235,164.94906427127697L225.8613875210325,166.30524198184654L226.0847916861415,166.32058752161691L226.30819585125047,165.74779987331044L226.53160001635948,162.4685897729644L226.75500418146848,165.7090753857109L226.97840834657748,165.08638774953448L227.20181251168648,164.3526869459472L227.4252166767955,163.396574327305L227.64862084190446,164.1392354047562L227.87202500701346,163.3812767584081L228.09542917212246,165.24596628658588L228.31883333723147,165.0707715169782L228.54223750234047,165.09415731778932L228.7656416674495,163.82902318530796L228.98904583255847,164.1819586073076L229.21244999766748,164.86176070807306L229.43585416277648,165.29400568986384L229.65925832788548,162.07828846703137L229.88266249299448,162.8464854683719L230.1060666581035,164.2367807494435L230.32947082321246,166.1087292987229L230.55287498832146,164.02210937747026L230.77627915343047,164.1178232627388L230.99968331853947,166.3229980580082L231.22308748364847,162.08047114177373L231.44649164875744,164.75946453366782L231.66989581386645,168.01870333144575L231.89329997897545,164.16663362648302L232.11670414408445,164.25431239044718L232.34010830919345,164.07098313129728L232.56351247430246,162.04647007196436L232.78691663941143,163.99687669803097L233.01032080452043,165.15775470327722L233.23372496962944,164.1800003677232L233.45712913473844,165.71319060135545L233.68053329984744,163.35073644446967L233.90393746495644,165.47405408391825L234.12734163006542,163.52112556050412L234.35074579517445,163.68437900911155L234.57414996028345,165.2571931842207L234.79755412539245,166.2478533979806L235.02095829050145,164.55761680411737L235.24436245561046,163.9632508289819L235.46776662071943,161.32815078630253L235.69117078582843,165.13152834145916L235.91457495093744,162.38596679641367L236.13797911604644,163.0882278321852L236.36138328115544,165.9301217441177L236.58478744626441,167.54822385026287L236.80819161137342,165.00164548832416L237.03159577648242,165.46387055278117L237.25499994159142,163.83308186385167L237.47840410670042,163.60698143127686L237.70180827180943,167.06530792013587L237.9252124369184,162.67049575286117L238.1486166020274,164.41828368891103L238.3720207671364,164.95102422410685L238.5954249322454,162.72010277575396L238.8188290973544,165.7450826659781L239.0422332624634,165.12963177871205L239.2656374275724,165.71282225357712L239.4890415926814,163.30603958312454L239.7124457577904,166.3819713939438L239.93584992289942,164.95629930694184L240.15925408800842,165.2682453308165L240.38265825311743,163.96756306785673L240.6060624182264,166.28734884604646L240.8294665833354,167.08969768279866L241.0528707484444,165.8840200214784L241.2762749135534,167.66663995139572L241.4996790786624,164.23660942489545L241.7230832437714,165.524505736833L241.9464874088804,166.51392556086486L242.1698915739894,166.25640077968367L242.3932957390984,167.4025671459874L242.6166999042074,166.33573261166603L242.8401040693164,164.27731613751615L243.06350823442537,165.88565788415792L243.28691239953437,166.1348408730938L243.51031656464338,166.64038706277495L243.73372072975238,166.30249393609557L243.95712489486138,165.72779944556913L244.18052905997038,168.7553492040143L244.40393322507936,169.53354299273457L244.62733739018836,168.57928067921145L244.85074155529736,168.3575455961214L245.07414572040636,166.44768292435484L245.29754988551537,170.28676451532857L245.5209540506244,169.00233238575296L245.74435821573337,170.67540397314536" fill="none"></path></g></g></g></g></g></g><g transform="translate(61, 176)" clip-path="url(#clip_1)"><clipPath id="clip_1"><rect width="268" height="23"></rect></clipPath><g><g><line x1="0" y1="0" x2="0" y2="5" style="visibility: inherit;" fill="rgb(0, 0, 0)" stroke="rgb(204, 204, 204)" stroke-width="1px"></line><line x1="22.34041651089986" y1="0" x2="22.34041651089986" y2="5" style="visibility: inherit;" fill="rgb(0, 0, 0)" stroke="rgb(204, 204, 204)" stroke-width="1px"></line><line x1="44.68083302179972" y1="0" x2="44.68083302179972" y2="5" style="visibility: inherit;" fill="rgb(0, 0, 0)" stroke="rgb(204, 204, 204)" stroke-width="1px"></line><line x1="67.02124953269958" y1="0" x2="67.02124953269958" y2="5" style="visibility: inherit;" fill="rgb(0, 0, 0)" stroke="rgb(204, 204, 204)" stroke-width="1px"></line><line x1="89.36166604359944" y1="0" x2="89.36166604359944" y2="5" style="visibility: inherit;" fill="rgb(0, 0, 0)" stroke="rgb(204, 204, 204)" stroke-width="1px"></line><line x1="111.70208255449931" y1="0" x2="111.70208255449931" y2="5" style="visibility: inherit;" fill="rgb(0, 0, 0)" stroke="rgb(204, 204, 204)" stroke-width="1px"></line><line x1="134.04249906539917" y1="0" x2="134.04249906539917" y2="5" style="visibility: inherit;" fill="rgb(0, 0, 0)" stroke="rgb(204, 204, 204)" stroke-width="1px"></line><line x1="156.38291557629904" y1="0" x2="156.38291557629904" y2="5" style="visibility: inherit;" fill="rgb(0, 0, 0)" stroke="rgb(204, 204, 204)" stroke-width="1px"></line><line x1="178.72333208719888" y1="0" x2="178.72333208719888" y2="5" style="visibility: inherit;" fill="rgb(0, 0, 0)" stroke="rgb(204, 204, 204)" stroke-width="1px"></line><line x1="201.06374859809875" y1="0" x2="201.06374859809875" y2="5" style="visibility: inherit;" fill="rgb(0, 0, 0)" stroke="rgb(204, 204, 204)" stroke-width="1px"></line><line x1="223.40416510899863" y1="0" x2="223.40416510899863" y2="5" style="visibility: inherit;" fill="rgb(0, 0, 0)" stroke="rgb(204, 204, 204)" stroke-width="1px"></line><line x1="245.74458161989847" y1="0" x2="245.74458161989847" y2="5" style="visibility: inherit;" fill="rgb(0, 0, 0)" stroke="rgb(204, 204, 204)" stroke-width="1px"></line><line x1="268.08499813079834" y1="0" x2="268.08499813079834" y2="5" style="visibility: inherit;" fill="rgb(0, 0, 0)" stroke="rgb(204, 204, 204)" stroke-width="1px"></line></g><g transform="translate(0, 8)"><text style="text-anchor: middle; visibility: hidden; font-family: Roboto, sans-serif; font-size: 12px; font-weight: 200;" x="0" y="0" dx="0em" dy="0.95em" fill="rgb(33, 33, 33)" stroke="none" stroke-width="1px">-100k</text><text style="text-anchor: middle; visibility: inherit; font-family: Roboto, sans-serif; font-size: 12px; font-weight: 200;" x="22.34041651089986" y="0" dx="0em" dy="0.95em" fill="rgb(33, 33, 33)" stroke="none" stroke-width="1px">0</text><text style="text-anchor: middle; visibility: hidden; font-family: Roboto, sans-serif; font-size: 12px; font-weight: 200;" x="44.68083302179972" y="0" dx="0em" dy="0.95em" fill="rgb(33, 33, 33)" stroke="none" stroke-width="1px">100k</text><text style="text-anchor: middle; visibility: inherit; font-family: Roboto, sans-serif; font-size: 12px; font-weight: 200;" x="67.02124953269958" y="0" dx="0em" dy="0.95em" fill="rgb(33, 33, 33)" stroke="none" stroke-width="1px">200k</text><text style="text-anchor: middle; visibility: hidden; font-family: Roboto, sans-serif; font-size: 12px; font-weight: 200;" x="89.36166604359944" y="0" dx="0em" dy="0.95em" fill="rgb(33, 33, 33)" stroke="none" stroke-width="1px">300k</text><text style="text-anchor: middle; visibility: inherit; font-family: Roboto, sans-serif; font-size: 12px; font-weight: 200;" x="111.70208255449931" y="0" dx="0em" dy="0.95em" fill="rgb(33, 33, 33)" stroke="none" stroke-width="1px">400k</text><text style="text-anchor: middle; visibility: hidden; font-family: Roboto, sans-serif; font-size: 12px; font-weight: 200;" x="134.04249906539917" y="0" dx="0em" dy="0.95em" fill="rgb(33, 33, 33)" stroke="none" stroke-width="1px">500k</text><text style="text-anchor: middle; visibility: inherit; font-family: Roboto, sans-serif; font-size: 12px; font-weight: 200;" x="156.38291557629904" y="0" dx="0em" dy="0.95em" fill="rgb(33, 33, 33)" stroke="none" stroke-width="1px">600k</text><text style="text-anchor: middle; visibility: hidden; font-family: Roboto, sans-serif; font-size: 12px; font-weight: 200;" x="178.72333208719888" y="0" dx="0em" dy="0.95em" fill="rgb(33, 33, 33)" stroke="none" stroke-width="1px">700k</text><text style="text-anchor: middle; visibility: inherit; font-family: Roboto, sans-serif; font-size: 12px; font-weight: 200;" x="201.06374859809875" y="0" dx="0em" dy="0.95em" fill="rgb(33, 33, 33)" stroke="none" stroke-width="1px">800k</text><text style="text-anchor: middle; visibility: hidden; font-family: Roboto, sans-serif; font-size: 12px; font-weight: 200;" x="223.40416510899863" y="0" dx="0em" dy="0.95em" fill="rgb(33, 33, 33)" stroke="none" stroke-width="1px">900k</text><text style="text-anchor: middle; visibility: inherit; font-family: Roboto, sans-serif; font-size: 12px; font-weight: 200;" x="245.74458161989847" y="0" dx="0em" dy="0.95em" fill="rgb(33, 33, 33)" stroke="none" stroke-width="1px">1M</text><text style="text-anchor: middle; visibility: hidden; font-family: Roboto, sans-serif; font-size: 12px; font-weight: 200;" x="268.08499813079834" y="0" dx="0em" dy="0.95em" fill="rgb(33, 33, 33)" stroke="none" stroke-width="1px">1.1M</text></g><line x1="0" y1="0" x2="268.08499813079834" y2="0" fill="rgb(0, 0, 0)" stroke="rgb(204, 204, 204)" stroke-width="1px"></line></g></g></g></g></svg>