<svg viewBox="0 0 330 200" xmlns="http://www.w3.org/2000/svg"><g><g><g><g><g><line x1="30.766000747680664" y1="176.5999994277954" x2="25.766000747680664" y2="176.5999994277954" style="visibility: inherit;" fill="rgb(0, 0, 0)" stroke="rgb(204, 204, 204)" stroke-width="1px"></line><line x1="30.766000747680664" y1="156.97777726915146" x2="25.766000747680664" y2="156.97777726915146" style="visibility: inherit;" fill="rgb(0, 0, 0)" stroke="rgb(204, 204, 204)" stroke-width="1px"></line><line x1="30.766000747680664" y1="137.35555511050754" x2="25.766000747680664" y2="137.35555511050754" style="visibility: inherit;" fill="rgb(0, 0, 0)" stroke="rgb(204, 204, 204)" stroke-width="1px"></line><line x1="30.766000747680664" y1="117.73333295186362" x2="25.766000747680664" y2="117.73333295186362" style="visibility: inherit;" fill="rgb(0, 0, 0)" stroke="rgb(204, 204, 204)" stroke-width="1px"></line><line x1="30.766000747680664" y1="98.11111079321968" x2="25.766000747680664" y2="98.11111079321968" style="visibility: inherit;" fill="rgb(0, 0, 0)" stroke="rgb(204, 204, 204)" stroke-width="1px"></line><line x1="30.766000747680664" y1="78.48888863457573" x2="25.766000747680664" y2="78.48888863457573" style="visibility: inherit;" fill="rgb(0, 0, 0)" stroke="rgb(204, 204, 204)" stroke-width="1px"></line><line x1="30.766000747680664" y1="58.86666647593181" x2="25.766000747680664" y2="58.86666647593181" style="visibility: inherit;" fill="rgb(0, 0, 0)" stroke="rgb(204, 204, 204)" stroke-width="1px"></line><line x1="30.766000747680664" y1="39.244444317287865" x2="25.766000747680664" y2="39.244444317287865" style="visibility: inherit;" fill="rgb(0, 0, 0)" stroke="rgb(204, 204, 204)" stroke-width="1px"></line><line x1="30.766000747680664" y1="19.622222158643943" x2="25.766000747680664" y2="19.622222158643943" style="visibility: inherit;" fill="rgb(0, 0, 0)" stroke="rgb(204, 204, 204)" stroke-width="1px"></line><line x1="30.766000747680664" y1="0" x2="25.766000747680664" y2="0" style="visibility: inherit;" fill="rgb(0, 0, 0)" stroke="rgb(204, 204, 204)" stroke-width="1px"></line></g><g transform="translate(20.766000747680664, 0)"><text style="text-anchor: end; visibility: hidden; font-family: Roboto, sans-serif; font-size: 12px; font-weight: 200;" x="0" y="176.5999994277954" dx="0em" dy="0.3em" fill="rgb(33, 33, 33)" stroke="none" stroke-width="1px">0</text><text style="text-anchor: end; visibility: inherit; font-family: Roboto, sans-serif; font-size: 12px; font-weight: 200;" x="0" y="156.97777726915146" dx="0em" dy="0.3em" fill="rgb(33, 33, 33)" stroke="none" stroke-width="1px">2</text><text style="text-anchor: end; visibility: hidden; font-family: Roboto, sans-serif; font-size: 12px; font-weight: 200;" x="0" y="137.35555511050754" dx="0em" dy="0.3em" fill="rgb(33, 33, 33)" stroke="none" stroke-width="1px">4</text><text style="text-anchor: end; visibility: inherit; font-family: Roboto, sans-serif; font-size: 12px; font-weight: 200;" x="0" y="117.73333295186362" dx="0em" dy="0.3em" fill="rgb(33, 33, 33)" stroke="none" stroke-width="1px">6</text><text style="text-anchor: end; visibility: hidden; font-family: Roboto, sans-serif; font-size: 12px; font-weight: 200;" x="0" y="98.11111079321968" dx="0em" dy="0.3em" fill="rgb(33, 33, 33)" stroke="none" stroke-width="1px">8</text><text style="text-anchor: end; visibility: inherit; font-family: Roboto, sans-serif; font-size: 12px; font-weight: 200;" x="0" y="78.48888863457573" dx="0em" dy="0.3em" fill="rgb(33, 33, 33)" stroke="none" stroke-width="1px">10</text><text style="text-anchor: end; visibility: hidden; font-family: Roboto, sans-serif; font-size: 12px; font-weight: 200;" x="0" y="58.86666647593181" dx="0em" dy="0.3em" fill="rgb(33, 33, 33)" stroke="none" stroke-width="1px">12</text><text style="text-anchor: end; visibility: inherit; font-family: Roboto, sans-serif; font-size: 12px; font-weight: 200;" x="0" y="39.244444317287865" dx="0em" dy="0.3em" fill="rgb(33, 33, 33)" stroke="none" stroke-width="1px">14</text><text style="text-anchor: end; visibility: hidden; font-family: Roboto, sans-serif; font-size: 12px; font-weight: 200;" x="0" y="19.622222158643943" dx="0em" dy="0.3em" fill="rgb(33, 33, 33)" stroke="none" stroke-width="1px">16</text><text style="text-anchor: end; visibility: hidden; font-family: Roboto, sans-serif; font-size: 12px; font-weight: 200;" x="0" y="0" dx="0em" dy="0.3em" fill="rgb(33, 33, 33)" stroke="none" stroke-width="1px">18</text></g><line x1="30.766000747680664" y1="0" x2="30.766000747680664" y2="176.5999994277954" fill="rgb(0, 0, 0)" stroke="rgb(204, 204, 204)" stroke-width="1px"></line></g></g><g transform="translate(30, 0)" clip-path="url(#clip_0)"><clipPath id="clip_0"><rect width="299" height="176"></rect></clipPath><g><g><g><line x1="0" y1="0" x2="0" y2="176.5999994277954" fill="rgb(0, 0, 0)" stroke="rgb(66, 66, 66)" stroke-width="1px" opacity="0.25"></line><line x1="24.936166604359943" y1="0" x2="24.936166604359943" y2="176.5999994277954" fill="rgb(0, 0, 0)" stroke="rgb(66, 66, 66)" stroke-width="1px" opacity="0.25"></line><line x1="49.87233320871989" y1="0" x2="49.87233320871989" y2="176.5999994277954" fill="rgb(0, 0, 0)" stroke="rgb(66, 66, 66)" stroke-width="1px" opacity="0.25"></line><line x1="74.80849981307983" y1="0" x2="74.80849981307983" y2="176.5999994277954" fill="rgb(0, 0, 0)" stroke="rgb(66, 66, 66)" stroke-width="1px" opacity="0.25"></line><line x1="99.74466641743977" y1="0" x2="99.74466641743977" y2="176.5999994277954" fill="rgb(0, 0, 0)" stroke="rgb(66, 66, 66)" stroke-width="1px" opacity="0.25"></line><line x1="124.68083302179973" y1="0" x2="124.68083302179973" y2="176.5999994277954" fill="rgb(0, 0, 0)" stroke="rgb(66, 66, 66)" stroke-width="1px" opacity="0.25"></line><line x1="149.61699962615967" y1="0" x2="149.61699962615967" y2="176.5999994277954" fill="rgb(0, 0, 0)" stroke="rgb(66, 66, 66)" stroke-width="1px" opacity="0.25"></line><line x1="174.55316623051962" y1="0" x2="174.55316623051962" y2="176.5999994277954" fill="rgb(0, 0, 0)" stroke="rgb(66, 66, 66)" stroke-width="1px" opacity="0.25"></line><line x1="199.48933283487955" y1="0" x2="199.48933283487955" y2="176.5999994277954" fill="rgb(0, 0, 0)" stroke="rgb(66, 66, 66)" stroke-width="1px" opacity="0.25"></line><line x1="224.4254994392395" y1="0" x2="224.4254994392395" y2="176.5999994277954" fill="rgb(0, 0, 0)" stroke="rgb(66, 66, 66)" stroke-width="1px" opacity="0.25"></line><line x1="249.36166604359946" y1="0" x2="249.36166604359946" y2="176.5999994277954" fill="rgb(0, 0, 0)" stroke="rgb(66, 66, 66)" stroke-width="1px" opacity="0.25"></line><line x1="274.29783264795935" y1="0" x2="274.29783264795935" y2="176.5999994277954" fill="rgb(0, 0, 0)" stroke="rgb(66, 66, 66)" stroke-width="1px" opacity="0.25"></line><line x1="299.23399925231934" y1="0" x2="299.23399925231934" y2="176.5999994277954" fill="rgb(0, 0, 0)" stroke="rgb(66, 66, 66)" stroke-width="1px" opacity="0.25"></line></g><g><line x1="0" y1="176.5999994277954" x2="299.23399925231934" y2="176.5999994277954" fill="rgb(0, 0, 0)" stroke="rgb(66, 66, 66)" stroke-width="1px" opacity="0.25"></line><line x1="0" y1="156.97777726915146" x2="299.23399925231934" y2="156.97777726915146" fill="rgb(0, 0, 0)" stroke="rgb(66, 66, 66)" stroke-width="1px" opacity="0.25"></line><line x1="0" y1="137.35555511050754" x2="299.23399925231934" y2="137.35555511050754" fill="rgb(0, 0, 0)" stroke="rgb(66, 66, 66)" stroke-width="1px" opacity="0.25"></line><line x1="0" y1="117.73333295186362" x2="299.23399925231934" y2="117.73333295186362" fill="rgb(0, 0, 0)" stroke="rgb(66, 66, 66)" stroke-width="1px" opacity="0.25"></line><line x1="0" y1="98.11111079321968" x2="299.23399925231934" y2="98.11111079321968" fill="rgb(0, 0, 0)" stroke="rgb(66, 66, 66)" stroke-width="1px" opacity="0.25"></line><line x1="0" y1="78.48888863457573" x2="299.23399925231934" y2="78.48888863457573" fill="rgb(0, 0, 0)" stroke="rgb(66, 66, 66)" stroke-width="1px" opacity="0.25"></line><line x1="0" y1="58.86666647593181" x2="299.23399925231934" y2="58.86666647593181" fill="rgb(0, 0, 0)" stroke="rgb(66, 66, 66)" stroke-width="1px" opacity="0.25"></line><line x1="0" y1="39.244444317287865" x2="299.23399925231934" y2="39.244444317287865" fill="rgb(0, 0, 0)" stroke="rgb(66, 66, 66)" stroke-width="1px" opacity="0.25"></line><line x1="0" y1="19.622222158643943" x2="299.23399925231934" y2="19.622222158643943" fill="rgb(0, 0, 0)" stroke="rgb(66, 66, 66)" stroke-width="1px" opacity="0.25"></line><line x1="0" y1="0" x2="299.23399925231934" y2="0" fill="rgb(0, 0, 0)" stroke="rgb(66, 66, 66)" stroke-width="1px" opacity="0.25"></line></g></g></g><g><g><line x1="0" y1="176.5999994277954" x2="299.23399925231934" y2="176.5999994277954" fill="rgb(0, 0, 0)" stroke="rgb(153, 153, 153)" stroke-width="1.5px"></line></g></g><g><g><line x1="24.936166604359943" y1="0" x2="24.936166604359943" y2="176.5999994277954" fill="rgb(0, 0, 0)" stroke="rgb(153, 153, 153)" stroke-width="1.5px"></line></g></g><g><g><g><g><g><path style="fill: none;" stroke="rgb(0, 153, 136)" stroke-width="2px" d="M25.185278908737498,115.33874858466473L25.4346405747811,116.69182277769656L25.6840022408247,109.41457715306589L25.933363906868298,100.97804964099207L26.1827255729119,85.25887579338523L26.432087238955496,64.37479032064725L26.681448904999097,45.07504022471274L26.9308105710427,25.501554503782277L27.180172237086296,15.471151638214753L27.429533903129897,14.52019207622757L27.67889556917349,17.75749817404468L27.928257235217092,19.876290386112935L28.177618901260693,22.424571774746347L28.42698056730429,26.007929422415792L28.676342233347892,32.01567177671432L28.925703899391493,36.258652192625824L29.17506556543509,41.32185956202009L29.424427231478692,44.05211945572806L29.67378889752229,46.49825670891272L29.92315056356589,50.90628167287201L30.17251222960949,55.43639241945682L30.42187389565309,57.52790265338494L30.67123556169669,57.22927204887897L30.920597227740284,60.995016896157026L31.169958893783885,62.28124370548704L31.419320559827487,65.06000042772604L31.668682225871084,65.86556055883646L31.918043891914685,67.52188470336256L32.16740555795829,71.50808064542142L32.41676722400189,73.47370639649859L32.666128890045485,75.80264021645417L32.91549055608908,78.30456404577387L33.16485222213268,80.90032784167322L33.414213888176285,85.49541948579315L33.66357555421988,88.46174083542708L33.91293722026348,89.3755913772049L34.16229888630708,90.49792801850265L34.41166055235068,92.49477811368034L34.66102221839428,94.57907941050145L34.91038388443788,95.48300493467592L35.15974555048148,97.64577910524041L35.40910721652508,97.812112450731L35.65846888256868,100.18016145144868L35.907830548612274,102.11865955244667L36.15719221465587,103.77141334097493L36.40655388069948,105.73388428700868L36.655915546743074,106.52496345727629L36.90527721278667,107.53683342018367L37.154638878830276,107.64793932132736L37.404000544873874,108.3792466807388L37.65336221091748,109.12044764705503L37.902723876961076,110.76270109447101L38.152085543004674,112.21243032639619L38.401447209048264,111.87196126645989L38.650808875091876,112.18487503443433L38.900170541135466,112.21013155497494L39.149532207179064,113.63120522924385L39.39889387322267,114.71868116678161L39.648255539266266,116.02087051034172L39.897617205309864,118.11434903783658L40.14697887135347,119.31778274671491L40.396340537397066,119.16524607714756L40.64570220344066,120.92665881352916L40.89506386948426,122.50312961300608L41.144425535527866,123.2154574841222L41.39378720157146,124.13333028112588L41.64314886761506,124.49740894111865L41.892510533658665,122.25490263583539L42.14187219970226,124.31932095079104L42.39123386574586,125.76539654151516L42.640595531789465,126.14139857744527L42.88995719783306,125.6517513371645L43.13931886387666,126.4731380433381L43.388680529920265,126.86377407190346L43.63804219596386,128.58749192231056L43.88740386200746,129.882494381447L44.13676552805106,130.96624308383176L44.38612719409466,132.18464991420433L44.63548886013826,132.68150735778093L44.88485052618185,133.04201319947322L45.13421219222546,133.4449314851646L45.38357385826905,133.63689960191988L45.63293552431265,133.7802987868918L45.882297190356255,134.28023422900532L46.13165885639985,134.74199137642054L46.38102052244345,135.3985325782734L46.630382188487054,135.05103197917632L46.87974385453065,135.2009090323554L47.12910552057425,135.96306299012593L47.37846718661785,136.11611928724741L47.62782885266145,136.74917950429406L47.87719051870505,136.32550164293187L48.12655218474865,137.02389289682878L48.37591385079225,136.97739965799565L48.62527551683585,136.1908972891682L48.87463718287945,135.76048394549144L49.12399884892305,136.23292357129006L49.37336051496665,136.72004439233086L49.622722181010246,137.6153462339547L49.87208384705385,138.47981457026478L50.12144551309745,138.72211175012208L50.370807179141046,139.5648913124382L50.620168845184644,139.61581632236548L50.86953051122825,140.18773030859978L51.118892177271846,140.82861539365908L51.368253843315436,140.63486238402703L51.61761550935905,139.882867430457L51.86697717540264,140.5192616066778L52.116338841446236,141.04476223371321L52.36570050748984,140.7472225072773L52.61506217353344,141.35215296988537L52.864423839577036,141.3809775869629L53.11378550562064,142.2658675854846L53.36314717166424,141.92657669590847L53.612508837707836,141.67242610087078L53.86187050375143,142.79941784980102L54.11123216979504,143.51638625812328L54.360593835838635,143.73290686947453L54.60995550188223,143.8162803050283L54.85931716792584,145.14641541450808L55.108678833969435,145.42018794904365L55.35804050001303,145.05608412939443L55.60740216605664,144.88210810100608L55.856763832100235,145.17976843627721L56.10612549814383,145.45113323553798L56.35548716418744,145.67645046609593L56.604848830231035,145.54684204212L56.85421049627463,146.0851152229083L57.10357216231822,146.70220762343686L57.352933828361834,146.70872758351456L57.602295494405425,146.31431454595582L57.85165716044902,146.66987067832846L58.10101882649263,147.31334066830055L58.350380492536225,146.96469386131625L58.59974215857982,147.96620296731967L58.84910382462343,148.16188869330938L59.098465490667024,148.25024025760612L59.34782715671062,148.31264980270112L59.59718882275422,148.51894267656616L59.846550488797824,147.541514495318L60.09591215484142,147.62499051305363L60.34527382088502,147.62163000830049L60.594635486928624,147.95680158101945L60.84399715297222,148.28713031899395L61.09335881901582,148.31750579506328L61.342720485059424,148.50306632143136L61.59208215110302,148.91021550454226L61.84144381714662,148.77244842215268L62.09080548319022,148.51492671175487L62.34016714923382,148.16923488485568L62.58952881527742,148.80085686234756L62.838890481321016,149.53383151231372L63.08825214736462,149.6051465202655L63.33761381340822,149.96919433921389L63.58697547945181,149.89476619231678L63.83633714549542,149.9281254023864L64.08569881153902,149.913210499179L64.33506047758262,149.60426579335927L64.58442214362621,150.11908430955896L64.83378380966981,149.39659864284653L65.08314547571341,149.6303760298166L65.33250714175702,150.3736391971653L65.58186880780062,150.79932325151023L65.83123047384422,150.7576340139223L66.08059213988781,150.96129056581356L66.32995380593141,151.4875795489776L66.57931547197501,151.26720051606335L66.8286771380186,150.99801333969353L67.07803880406222,150.74562267210226L67.3274004701058,150.8574871498376L67.5767621361494,150.61510511116055L67.82612380219301,150.96681537774896L68.07548546823661,151.51787368519965L68.3248471342802,151.60943781167987L68.5742088003238,151.1735971894223L68.8235704663674,151.34438560433304L69.072932132411,151.70413065597583L69.3222937984546,151.68949363296153L69.5716554644982,152.3198398397165L69.8210171305418,151.85097986350277L70.0703787965854,152.29646049652817L70.319740462629,152.35136818361536L70.5691021286726,152.06540010213388L70.8184637947162,152.02185880706978L71.0678254607598,152.12178286602477L71.3171871268034,152.03859579287834L71.566548792847,151.6579159107273L71.8159104588906,152.28216752934927L72.0652721249342,152.90608277631057L72.3146337909778,152.60545965910083L72.56399545702139,153.05735271654453L72.813357123065,153.14653242401474L73.06271878910859,153.5056642967185L73.31208045515218,153.42132499028344L73.5614421211958,153.8274890830795L73.8108037872394,153.87964492275248L74.06016545328299,153.73447235223244L74.30952711932659,153.61052948404617L74.55888878537019,154.15688640876147L74.80825045141378,153.7267555142157L75.0576121174574,153.40234270872924L75.30697378350098,153.85326553734106L75.55633544954459,154.22099084475423L75.80569711558819,154.35308943528375L76.05505878163179,154.64023871926773L76.30442044767538,154.57366067562677L76.553782113719,154.73570961997888L76.80314377976258,154.43700762497514L77.05250544580619,153.93857381490218L77.30186711184979,154.36610805581034L77.55122877789339,154.78322547567885L77.80059044393698,154.9591296307264L78.0499521099806,155.05002997065432L78.29931377602418,155.08890459658983L78.54867544206779,154.95712920186276L78.79803710811139,154.77647476722748L79.04739877415497,154.74204991862626L79.29676044019858,154.61193966474107L79.5461221062422,154.35775889160246L79.79548377228578,154.11499817250532L80.04484543832938,153.54738621878528L80.29420710437297,153.59244063718518L80.54356877041657,153.91964065630734L80.79293043646018,154.25062738244202L81.04229210250377,154.38432511821586L81.29165376854738,154.48455684375077L81.54101543459097,154.72391912166557L81.79037710063457,154.81801744966796L82.03973876667817,154.89067392361622L82.28910043272178,154.96702810778763L82.53846209876536,154.87281333809625L82.78782376480898,155.35898844278353L83.03718543085257,155.22509736482104L83.28654709689617,155.29093572547598L83.53590876293977,155.22734498723906L83.78527042898338,155.25736024386396L84.03463209502696,155.37097269879982L84.28399376107058,155.5777783629675L84.53335542711417,155.72547902924006L84.78271709315777,156.02056523702402L85.03207875920137,156.15397657790862L85.28144042524498,156.52628749360878L85.53080209128856,156.35479139320296L85.78016375733218,156.1756834736617L86.02952542337576,155.509858838042L86.27888708941936,155.76877349704773L86.52824875546297,155.36518513589485L86.77761042150655,155.59132351717957L87.02697208755016,155.52882636266395L87.27633375359376,156.00467660401864L87.52569541963736,156.29528474067692L87.77505708568096,156.20391015753174L88.02441875172457,156.35038661068074L88.27378041776815,156.58317914985264L88.52314208381176,156.88483602225915L88.77250374985536,156.96634275961836L89.02186541589896,157.06962882869306L89.27122708194256,156.91982675907173L89.52058874798617,157.13676415814376L89.76995041402975,156.9275833336968L90.01931208007336,156.5894829783958L90.26867374611696,156.87479366532878L90.51803541216056,156.77841832520912L90.76739707820416,156.8947742752327L91.01675874424777,156.8065930655028L91.26612041029135,156.43993214502098L91.51548207633496,156.71754669929743L91.76484374237856,156.76655659505874L92.01420540842214,156.8219425489409L92.26356707446575,156.67968716491384L92.51292874050934,156.73506617602388L92.76229040655295,156.0974184010011L93.01165207259655,156.363325508959L93.26101373864014,155.91466906933553L93.51037540468374,156.4568481026825L93.75973707072735,156.4572336352906L94.00909873677094,156.4427081003622L94.25846040281455,156.43537861131279L94.50782206885815,156.1768525428688L94.75718373490174,156.7653667089398L95.00654540094534,156.78111746932228L95.25590706698895,156.659170102736L95.50526873303254,156.85145713181217L95.75463039907615,156.99086869513496L96.00399206511975,157.2973963702742L96.25335373116334,157.09576204278508L96.50271539720694,157.05591126228757L96.75207706325055,156.70367172253893L97.00143872929414,156.9216434793439L97.25080039533775,157.3212858200813L97.50016206138135,157.29670120257373L97.74952372742493,156.68737116072433L97.99888539346854,156.97996515182584L98.24824705951215,156.653461598933L98.49760872555574,156.58421932548447L98.74697039159933,157.04700199153882L98.99633205764293,156.97298565820634L99.24569372368653,157.24212836297173L99.49505538973014,157.09971777684152L99.74441705577372,157.2678427516739L99.99377872181734,157.45369341527447L100.24314038786093,157.52508535083487L100.49250205390453,157.71970192383964L100.74186371994813,157.40634648581477L100.99122538599174,157.55903471853682L101.24058705203532,157.11521411376447L101.48994871807894,157.44073061990736L101.73931038412253,157.78192453891288L101.98867205016613,158.0677319062669L102.23803371620973,157.5545620901018L102.48739538225334,157.6768488491594L102.73675704829692,157.0290392037813L102.98611871434053,157.26335185447905L103.23548038038413,157.15269517078454L103.48484204642773,157.8373016218165L103.73420371247133,157.85307573786054L103.98356537851494,157.69330052564763L104.23292704455852,157.8944330786854L104.48228871060213,158.19673636452814L104.73165037664572,157.97318147782386L104.98101204268931,158.00289932704464L105.23037370873293,158.04749906922493L105.47973537477651,158.20124424310688L105.72909704082012,158.06511810515642L105.97845870686372,158.29425892336292L106.22782037290732,158.03686918312218L106.47718203895091,158.21887239535658L106.72654370499453,158.301008647961L106.97590537103811,158.4672632558021L107.22526703708172,158.69252049087504L107.47462870312532,158.66976865870535L107.72399036916892,158.72974747271294L107.97335203521251,158.83927756757294L108.22271370125613,158.9701885713916L108.47207536729971,159.04573061581095L108.72143703334332,158.9928382253799L108.97079869938692,158.9514620787363L109.22016036543052,158.7398001860775L109.46952203147411,158.70557419524394L109.71888369751773,159.01132876157968L109.96824536356131,159.01634181588767L110.21760702960492,158.84115947926105L110.46696869564852,159.1277147815648L110.7163303616921,159.09474906681672L110.96569202773571,159.27852302851534L111.2150536937793,159.09737004980914L111.46441535982291,159.1514640512778L111.7137770258665,159.16377707808448L111.9631386919101,158.77786628035693L112.2125003579537,158.78184355666576L112.46186202399731,158.37858874046253L112.7112236900409,158.30247083605866L112.96058535608451,158.7064170760221L113.2099470221281,159.03873020738996L113.4593086881717,159.4898824197344L113.7086703542153,159.31426232727117L113.95803202025891,158.81068554894026L114.2073936863025,159.1649849018679L114.45675535234611,158.97742483571145L114.7061170183897,159.07662105839634L114.9554786844333,158.97423300863733L115.2048403504769,158.81970829927897L115.45420201652051,159.0319040901974L115.7035636825641,159.171992099157L115.9529253486077,158.82174775826385L116.2022870146513,158.8020588722636L116.45164868069489,158.8154091430815L116.7010103467385,158.7077051532946L116.95037201278211,158.66615729334117L117.1997336788257,158.78384197407175L117.44909534486929,158.72352480727193L117.69845701091289,158.88270933811276L117.94781867695649,158.77508361450535L118.1971803430001,158.70997036768352L118.44654200904368,159.03492567485935L118.6959036750873,159.16290682495793L118.94526534113089,159.09991562913788L119.19462700717449,159.12670507033909L119.44398867321809,159.25138909478335L119.6933503392617,159.4662744807112L119.94271200530528,159.20356616422816L120.1920736713489,159.19880622253737L120.44143533739249,159.29974218344952L120.69079700343609,159.22957850966617L120.94015866947969,159.40445746118905L121.1895203355233,159.22854082988846L121.43888200156688,159.43845330162608L121.6882436676105,159.1538527324397L121.93760533365409,159.3274765827743L122.18696699969769,159.24162042878694L122.43632866574129,158.96349024961864L122.6856903317849,158.78258136009362L122.93505199782848,159.28330792461932L123.18441366387209,159.24701152750046L123.43377532991568,159.40872306445357L123.68313699595927,159.26987095285128L123.93249866200289,159.56207506420327L124.18186032804647,159.8542174845188L124.43122199409008,159.34439970942975L124.68058366013368,159.02458318601757L124.92994532617728,159.19817075273494L125.17930699222087,159.2796684455354L125.42866865826448,159.2726214482782L125.67803032430807,159.74061541185947L125.92739199035168,159.95827763037272L126.17675365639528,160.00094991680749L126.42611532243887,159.55159432326525L126.67547698848247,159.85868418825757L126.92483865452608,159.9972026063737L127.17420032056967,159.65875061190775L127.42356198661328,160.04336256473252L127.67292365265688,159.46268859658582L127.92228531870047,159.52393235863332L128.1716469847441,159.7310705948593L128.42100865078768,159.60922722614384L128.67037031683128,159.55001028410183L128.91973198287488,159.6994519736575L129.16909364891848,159.6135770936157L129.41845531496207,159.32013084410167L129.66781698100567,159.18596623327127L129.91717864704927,159.4498711673271L130.16654031309287,159.74837995414126L130.41590197913646,160.0849279471058L130.66526364518006,159.76317746100958L130.91462531122366,160.28726759288583L131.16398697726726,160.4520573615776L131.41334864331085,160.27252757221353L131.66271030935445,160.46459602586108L131.91207197539808,160.59179919959837L132.16143364144165,160.74083645142144L132.41079530748527,160.60845920068016L132.66015697352887,160.46066600974032L132.90951863957247,160.3655670654806L133.15888030561607,160.4686170652342L133.40824197165966,160.5732946733978L133.65760363770326,160.58241549867975L133.90696530374686,160.5838701288759L134.15632696979046,160.80600291721544L134.40568863583405,160.98925925185142L134.65505030187765,160.93212425326814L134.90441196792128,160.75403643872218L135.15377363396485,160.68702790534718L135.40313530000847,160.69670119939772L135.65249696605207,161.07121897090218L135.90185863209564,161.06510636502466L136.15122029813926,160.82657016641244L136.40058196418283,160.43751077787982L136.64994363022646,160.60778455139834L136.89930529627006,160.78509894741921L137.14866696231365,160.86650469294955L137.39802862835725,160.8717105288444L137.64739029440085,160.64297129631407L137.89675196044445,160.50398870026936L138.14611362648805,160.52240305970113L138.39547529253164,160.64249014954046L138.64483695857524,160.9192952716769L138.89419862461884,160.71751721730567L139.14356029066246,160.86037600147105L139.39292195670603,160.96315510682703L139.64228362274966,161.00979335230025L139.89164528879326,160.5827328528307L140.14100695483685,160.29578433362477L140.39036862088045,160.09551449780145L140.63973028692405,160.47759901381454L140.88909195296765,160.78189354489234L141.13845361901124,160.84653825585133L141.38781528505484,160.5946064730062L141.63717695109844,160.4620173516926L141.88653861714204,160.7959771130639L142.13590028318563,161.02918980387977L142.38526194922923,161.13665898689132L142.63462361527283,160.50327587790716L142.88398528131643,160.7447714512732L143.13334694736002,160.73254599398788L143.38270861340365,160.60381277407066L143.63207027944722,160.88587293540792L143.88143194549085,160.79299323665742L144.13079361153444,161.13816056693256L144.38015527757804,161.12187761210382L144.62951694362164,161.44164953556086L144.87887860966524,161.14650270766236L145.12824027570883,161.01057857493598L145.37760194175243,161.27253297449008L145.62696360779603,161.24149935862738L145.87632527383963,161.176093807223L146.12568693988322,161.22991162492949L146.37504860592685,161.3097342944796L146.62441027197042,161.4582900528332L146.87377193801404,161.77323763117624L147.12313360405764,161.45975361889376L147.37249527010124,161.06464171797487L147.62185693614484,161.0616155340283L147.87121860218843,161.11973345637372L148.12058026823203,161.0434721821155L148.36994193427563,161.3991284401645L148.61930360031923,161.15620386483528L148.86866526636283,161.25655000024875L149.11802693240642,161.00811582008654L149.36738859845002,160.9554105718335L149.61675026449362,160.9697368738161L149.86611193053722,161.28612381312504L150.11547359658084,161.1427568329737L150.36483526262444,161.36272911446116L150.614196928668,161.38980429581719L150.8635585947116,161.6172947726733L151.11292026075523,161.96571612199548L151.36228192679883,161.9981019880015L151.61164359284243,161.72672374903627L151.861005258886,161.5367384694658L152.11036692492962,161.309053910686L152.35972859097322,161.68971047785263L152.60909025701682,161.62147304664708L152.85845192306041,161.73986473367276L153.10781358910404,161.56176054400845L153.3571752551476,161.58700368726443L153.6065369211912,161.0588422226669L153.8558985872348,161.17530143152896L154.10526025327843,161.12859059997137L154.35462191932203,161.02159335771853L154.60398358536563,161.20396755156702L154.8533452514092,161.4226842145179L155.1027069174528,161.53587260955138L155.35206858349642,161.51543972558625L155.60143024954002,161.80945339820366L155.8507919155836,161.85177933489229L156.1001535816272,161.85997211070205L156.3495152476708,161.81677305394433L156.5988769137144,161.3970875401276L156.848238579758,161.62373960577398L157.0976002458016,161.64012162799918L157.34696191184523,161.187202370059L157.59632357788882,161.29334443942153L157.8456852439324,161.4140564643092L158.095046909976,161.50351880732583L158.34440857601962,161.31325439282483L158.59377024206321,161.04465628987592L158.8431319081068,161.18053375831468L159.09249357415038,160.93860375727945L159.34185524019398,161.01470657633467L159.5912169062376,161.03969011259636L159.8405785722812,161.02690239291638L160.0899402383248,161.16797155528786L160.33930190436843,161.0373907219126L160.588663570412,161.1826093894957L160.8380252364556,161.23649483332912L161.0873869024992,161.2673762113521L161.3367485685428,161.57841727545613L161.5861102345864,161.74607503176208L161.83547190063,161.80052296465877L162.08483356667358,162.12767882839532L162.33419523271718,161.8439270352638L162.5835568987608,161.8663359561012L162.8329185648044,162.16479585433663L163.082280230848,161.7751150239885L163.3316418968916,161.97769706953923L163.5810035629352,162.0049990613503L163.8303652289788,161.47195306380453L164.0797268950224,161.52541979316825L164.329088561066,161.26548689947484L164.5784502271096,161.42369119086666L164.82781189315318,160.97805520914372L165.07717355919678,161.12180851939718L165.32653522524038,161.64714249153653L165.575896891284,161.64535989973047L165.8252585573276,161.65864802276096L166.0746202233712,161.9811364933796L166.32398188941477,162.00414456498982L166.57334355545837,161.83824345427206L166.822705221502,161.88992744239215L167.0720668875456,161.81697130956584L167.3214285535892,162.0185696052039L167.5707902196328,162.0294302957571L167.82015188567638,162.57296412419996L168.06951355171998,162.34006013687804L168.31887521776358,162.00782022964611L168.56823688380717,161.93350373277508L168.8175985498508,161.87534478761668L169.0669602158944,161.8467869907237L169.31632188193797,161.88133346439784L169.56568354798156,162.06031723230606L169.8150452140252,162.01934568255584L170.0644068800688,161.97082151104186L170.31376854611239,161.3676375118994L170.56313021215595,161.65749323107065L170.81249187819958,162.0753616101369L171.06185354424318,162.187467829706L171.31121521028678,161.76779211345098L171.56057687633037,161.99354559607104L171.809938542374,161.8736696786352L172.05930020841757,161.9838668753508L172.30866187446117,162.07598177474563L172.55802354050476,162.199779013917L172.8073852065484,162.2071370502343L173.056746872592,161.8415775025389L173.30610853863558,161.959607619182L173.55547020467915,162.11139471646524L173.80483187072275,162.3929748464927L174.05419353676638,162.39306407254108L174.30355520280997,162.3094251863721L174.55291686885357,162.4192888769528L174.80227853489717,162.15087003201333L175.05164020094077,161.8162104185797L175.30100186698436,162.0658229661052L175.55036353302796,161.9175340935884L175.79972519907156,161.91782801376505L176.04908686511519,161.57004564337493L176.29844853115878,161.6286097958424L176.54781019720235,161.93134928447455L176.79717186324595,162.11462140022766L177.04653352928958,162.12784244814026L177.29589519533317,162.42686305726892L177.54525686137677,162.25691194833885L177.79461852742034,162.43898415854412L178.04398019346394,162.54370701527196L178.29334185950756,162.41657363081177L178.54270352555116,162.37083041307162L178.79206519159476,161.94675264175714L179.04142685763838,162.08631162686277L179.29078852368195,162.1843926738627L179.54015018972555,161.94923348014035L179.78951185576915,161.91853497498528L180.03887352181275,161.65224945925866L180.28823518785637,161.7734373274323L180.53759685389997,161.78437984069137L180.78695851994354,161.78962722979023L181.03632018598714,161.5547061151832L181.28568185203076,161.86627577330376L181.53504351807436,161.99873019695093L181.78440518411796,161.9117848751215L182.03376685016156,160.82745993147245L182.28312851620515,161.10389635655622L182.53249018224875,161.4966128778202L182.78185184829235,161.6874183268375L183.03121351433595,162.01899137595808L183.28057518037957,162.2496614887535L183.52993684642314,162.3885179333346L183.77929851246674,161.8929283286632L184.02866017851034,162.05464781910814L184.27802184455396,161.97907470576612L184.52738351059756,161.95876985004045L184.77674517664116,161.85884634133248L185.02610684268473,161.95963386194154L185.27546850872832,162.082296787421L185.52483017477195,162.23934496555137L185.77419184081555,162.31021813145333L186.02355350685914,162.31706818331705L186.27291517290277,162.2915530684084L186.52227683894634,162.46898427660688L186.77163850498994,162.4208285333896L187.02100017103353,162.03751071824732L187.27036183707713,162.17183651818246L187.51972350312076,162.33736214136337L187.76908516916436,162.5300118057968L188.01844683520793,162.83908369391506L188.26780850125152,162.92322962075158L188.51717016729515,162.91675199090798L188.76653183333875,162.7691242360694L189.01589349938234,162.36043092063233L189.2652551654259,162.56963895421796L189.51461683146954,162.882190178062L189.76397849751314,162.7880440106351L190.01334016355673,163.01361138903712L190.26270182960033,162.89526048479905L190.51206349564396,162.7594843842025L190.76142516168753,162.58342928442443L191.01078682773112,162.76376329068987L191.26014849377472,163.09153479919877L191.50951015981835,162.57330100402947L191.75887182586195,162.56549352470483L192.00823349190554,162.50396708355672L192.2575951579491,162.71834955349217L192.5069568239927,162.85230139318006L192.75631849003634,162.83085142177447L193.00568015607993,162.86650901007894L193.25504182212353,162.45729919742143L193.50440348816713,162.64496354511542L193.75376515421073,162.40035952188268L194.00312682025432,162.8074170792069L194.25248848629792,162.75754679137847L194.50185015234152,162.6571343813793L194.75121181838514,162.52183627237181L195.00057348442874,162.10400645044848L195.2499351504723,162.27771733775606L195.4992968165159,162.69633882050016L195.74865848255953,162.7673500482961L195.99802014860313,162.19043432614833L196.24738181464673,162.4492644014178L196.4967434806903,162.4382444864951L196.7461051467339,162.52773395524576L196.99546681277752,162.80365693395228L197.24482847882112,162.90755869288566L197.49419014486472,163.08733242259436L197.74355181090834,162.85043537355332L197.9929134769519,162.8121803477627L198.2422751429955,162.73884939198794L198.4916368090391,162.88276143378687L198.7409984750827,162.796611086212L198.99036014112633,162.72534159863918L199.23972180716993,162.77391880080276L199.4890834732135,162.43178593682217L199.7384451392571,162.7499964673719L199.98780680530072,162.68410118248892L200.23716847134432,162.69319912929927L200.48653013738792,162.6156142521317L200.7358918034315,162.86092438028464L200.9852534694751,162.99783617091717L201.2346151355187,163.1107707057711L201.4839768015623,162.94191371847728L201.7333384676059,163.04763321468658L201.98270013364953,163.1611010711582L202.2320617996931,162.67155651389743L202.4814234657367,162.75608526235516L202.7307851317803,162.86726863582294L202.98014679782392,162.94046349066593L203.22950846386752,163.1224961469784L203.47887012991112,162.85343310947528L203.72823179595468,162.89967381491147L203.97759346199828,162.2775855101848L204.2269551280419,162.35051710882578L204.4763167940855,162.77900498945982L204.7256784601291,162.88932366785576L204.97504012617273,162.9094658035193L205.2244017922163,162.72184365623022L205.4737634582599,162.6761088049393L205.7231251243035,162.45243187125283L205.9724867903471,162.55274497367373L206.22184845639072,162.2893968395409L206.47121012243431,162.3926115998558L206.72057178847788,162.61975113700643L206.96993345452148,162.7486578327143L207.2192951205651,162.48459774245953L207.4686567866087,162.25766425821752L207.7180184526523,162.58699463443315L207.96738011869587,162.67006102465348L208.2167417847395,162.87094515416388L208.4661034507831,162.8960588823101L208.7154651168267,162.6868931680741L208.9648267828703,162.32782528807658L209.21418844891392,162.62882516292183L209.46355011495748,162.54242506595628L209.71291178100108,162.58695077631432L209.96227344704468,162.6253184437265L210.2116351130883,162.8667300979522L210.4609967791319,162.924290640873L210.7103584451755,163.184599473857L210.95972011121907,161.88803434028213L211.20908177726267,161.78616340394922L211.4584434433063,162.23382171176422L211.7078051093499,162.57588400348965L211.9571667753935,162.32540000187498L212.2065284414371,162.42416567323602L212.45589010748068,162.30422498297264L212.70525177352428,162.6970757265919L212.95461343956788,162.70923459817854L213.20397510561148,162.43758309682178L213.4533367716551,162.44960701240333L213.7026984376987,162.8539230502623L213.95206010374227,163.00476219703728L214.20142176978587,163.12144479389426L214.4507834358295,162.9045354516473L214.7001451018731,163.01681482354232L214.9495067679167,163.09289580797608L215.19886843396026,162.93827869213845L215.44823010000385,163.08778990218573L215.69759176604748,162.7478384726571L215.94695343209108,163.10856087723607L216.19631509813468,163.00211909264505L216.4456767641783,163.23558869624483L216.69503843022187,162.91853437622402L216.94440009626547,163.09267090832873L217.19376176230907,163.0533688669186L217.44312342835266,163.01058118107466L217.6924850943963,163.16116245356594L217.9418467604399,163.18264044222124L218.19120842648346,162.9321219531145L218.44057009252705,162.87186442121012L218.68993175857068,162.94176354139412L218.93929342461428,162.40888527388293L219.18865509065787,162.23100051337815L219.43801675670147,162.3693620729678L219.68737842274507,162.63247883136083L219.93674008878867,162.8781322531205L220.18610175483226,162.9108676260992L220.43546342087586,162.7812307966967L220.6848250869195,163.23464772574732L220.93418675296306,163.0258735411503L221.18354841900666,163.03371229252568L221.43291008505025,163.17851928733597L221.68227175109388,162.97830649724665L221.93163341713748,162.64513404865485L222.18099508318107,162.85366622913375L222.43035674922464,163.10510866160018L222.67971841526824,162.54095784329203L222.92908008131187,162.5608690148546L223.17844174735546,162.7349376699659L223.42780341339906,162.97815593357663L223.6771650794427,162.89004365859375L223.92652674548626,162.78292109398998L224.17588841152985,162.8615671247128L224.42525007757345,163.04243985715436L224.67461174361705,163.28110010791707L224.92397340966068,163.4619439939487L225.17333507570427,163.45032474126523L225.42269674174784,163.52466989942144L225.67205840779144,163.39553956593323L225.92142007383507,163.4745702609729L226.17078173987866,163.2152450526748L226.42014340592226,163.10696349185426L226.66950507196583,163.25275677057772L226.91886673800946,163.06208470777997L227.16822840405305,163.32702542394156L227.41759007009665,162.70866143823315L227.66695173614025,162.41876971752015L227.91631340218387,162.64011366179253L228.16567506822744,162.97211173439237L228.41503673427104,162.87551672814806L228.66439840031464,163.00401748836222L228.91376006635826,163.0736381729477L229.16312173240186,163.30091262799328L229.41248339844546,163.4389458553258L229.66184506448903,163.44825023067258L229.91120673053263,163.61844648881967L230.16056839657625,163.21018992150505L230.40993006261985,163.36114132469186L230.65929172866345,163.5618160379964L230.90865339470704,163.66564776699687L231.15801506075064,163.98314896154008L231.40737672679424,163.80165587634812L231.65673839283784,163.76254191343384L231.90610005888144,163.57224366798997L232.15546172492506,163.49227571988018L232.40482339096866,163.38530238296983L232.65418505701223,163.79892243095472L232.90354672305583,163.91831686557686L233.15290838909945,164.0018026266738L233.40227005514305,163.70152765850588L233.65163172118665,163.8418768180865L233.90099338723022,163.99326488187438L234.1503550532738,163.62021608265695L234.39971671931744,163.4326088323645L234.64907838536104,163.7703087972046L234.89844005140463,163.71529143624554L235.14780171744826,163.31435816728114L235.39716338349183,163.20913158365823L235.64652504953543,163.2154176897319L235.89588671557902,163.33326172994342L236.14524838162262,162.96527788584947L236.39461004766625,162.8887104616312L236.64397171370985,163.20904154972155L236.89333337975341,163.1769812443592L237.142695045797,163.08836702731998L237.39205671184064,163.32368106709765L237.64141837788424,163.36379315402544L237.89078004392783,163.5449440618504L238.14014170997143,163.50716936308598L238.38950337601503,163.64656706886197L238.63886504205863,163.7595567934794L238.88822670810222,163.7582763034372L239.13758837414582,163.6461897159325L239.38695004018945,163.86402478997852L239.63631170623302,163.15342892286367L239.8856733722766,163.09675125225436L240.1350350383202,163.313844332615L240.38439670436384,162.95068033019726L240.63375837040743,163.50029292876653L240.88312003645103,163.61821802850727L241.1324817024946,163.78161406110195L241.3818433685382,163.80442935275804L241.63120503458182,164.23556305261732L241.88056670062542,164.28210870860553L242.12992836666902,164.3519508953714L242.37929003271265,164.2343267621324L242.62865169875622,164.3307630135184L242.8780133647998,163.89373080000033L243.1273750308434,164.00113493302425L243.376736696887,163.94003253050263L243.62609836293063,163.81045948388368L243.87546002897423,163.61810253972592L244.1248216950178,163.79288596817176L244.3741833610614,163.86791167409177L244.62354502710502,163.90036043015508L244.87290669314862,163.92192042732873L245.12226835919222,163.78190963153435L245.3716300252358,163.6988912648368L245.62099169127941,163.27741471122005L245.870353357323,163.1569958230579L246.1197150233666,163.41249009979478L246.3690766894102,163.55136636494058L246.61843835545383,163.70490846792734L246.8678000214974,163.71925255329475L247.117161687541,163.91112994281292L247.3665233535846,163.81750146972337L247.61588501962822,163.87559487326254L247.86524668567182,164.0495671354659L248.11460835171542,164.04421090010663L248.363970017759,164.1032914115872L248.61333168380258,164.24531062391023L248.8626933498462,164.05203146642705L249.1120550158898,163.55275854375344L249.3614166819334,163.69367172675246L249.610778347977,163.73852595428104L249.8601400140206,163.6847361051517L250.1095016800642,163.5183432413927L250.3588633461078,163.33117607922742L250.6082250121514,162.9053953781148L250.85758667819502,162.69526901970863L251.10694834423862,163.1300745547116L251.3563100102822,163.59963343866588L251.60567167632578,163.83121362919456L251.8550333423694,163.66743221814994L252.104395008413,163.65426498674387L252.3537566744566,163.4578638876176L252.60311834050017,163.7500305557208L252.85248000654377,163.81241521964012L253.1018416725874,163.92742924683898L253.351203338631,163.6128206758118L253.6005650046746,163.91392155398566L253.84992667071822,163.8438764360689L254.0992883367618,163.86122185286808L254.34865000280539,163.99453805166854L254.59801166884898,163.86324156040422L254.84737333489258,164.09173387336628L255.0967350009362,164.20086598229406L255.3460966669798,164.2864792935699L255.59545833302337,163.9175089095511L255.84481999906697,164.00593117112209L256.09418166511057,163.86955188155292L256.3435433311542,163.95513763859486L256.5929049971978,163.82308040554938L256.8422666632414,163.90205118898749L257.09162832928496,163.8500314045016L257.3409899953286,163.85042275524233L257.5903516613722,163.92348390483255L257.8397133274158,163.76860925589813L258.0890749934594,164.09854673316667L258.338436659503,164.1756104667336L258.5877983255466,164.20777200879104L258.83715999159017,163.8912022587536L259.0865216576338,164.0032400000841L259.33588332367736,164.0967997331871L259.585244989721,164.0126275792257L259.83460665576456,163.99234843132234L260.0839683218082,164.2279543845599L260.33332998785176,164.3294021393583L260.5826916538954,164.38820835034448L260.832053319939,164.40129141731381L261.0814149859826,164.58244643299432L261.33077665202615,164.21699947424113L261.58013831806977,164.1966872927245L261.8294999841134,164.17626637315746L262.07886165015697,164.2180138017761L262.3282233162006,163.80456931197747L262.57758498224416,163.78817762497368L262.8269466482878,163.96784120799225L263.07630831433136,163.51666722097738L263.325669980375,163.9548999618442L263.57503164641855,163.79478676641682L263.8243933124622,163.35859070417624L264.07375497850575,163.59454959668727L264.3231166445494,163.4552659645764L264.57247831059294,163.69634843739732L264.82183997663657,164.00339540137065L265.0712016426802,163.89960776484799L265.32056330872376,163.70082101768995L265.56992497476733,163.72007166325275L265.81928664081096,163.63828278803402L266.0686483068546,163.9088104023153L266.31800997289815,163.9406493737274L266.5673716389418,163.68795337286267L266.8167333049854,163.64414704755185L267.066094971029,163.81544038270707L267.31545663707254,163.79672500979805L267.56481830311617,163.87900151757935L267.81417996915974,163.7850771786698L268.06354163520336,163.92208632051964L268.312903301247,163.7439300883591L268.56226496729056,163.87814025228315L268.81162663333413,163.84080451592598L269.06098829937775,163.6903395851442L269.3103499654214,163.8870119786715L269.55971163146495,163.9897321173294L269.8090732975086,164.13848000252273L270.05843496355214,164.5022251003465L270.30779662959577,164.87129783395233L270.55715829563934,165.0691975085389L270.80651996168297,165.43946481114318L271.0558816277266,164.8635080137031L271.30524329377016,165.20869032540347L271.55460495981373,165.59003142824545L271.80396662585736,165.95955505946907L272.053328291901,166.17158732157927L272.30268995794455,166.5174867676467L272.5520516239882,166.7606362305008L272.80141329003175,167.0334108164071L273.0507749560753,167.1597809077379L273.30013662211894,167.41672164050027L273.54949828816257,167.70800622206795L273.79885995420614,168.02939824644108L274.04822162024976,168.33804547129517L274.29758328629333,168.73306251354546" fill="none"></path></g></g></g></g><g opacity="0.2"><g><g><g><path style="fill: none;" stroke="rgb(0, 153, 136)" stroke-width="2px" d="M25.185278908737498,115.33874858466473L25.4346405747811,117.77428213212201L25.6840022408247,98.93534345359771L25.933363906868298,84.50994793742397L26.1827255729119,48.136474834876935L26.432087238955496,8.21163694052252L26.681448904999097,-11.886705402430788L27.180172237086296,-17.91917040634953L27.429533903129897,11.226896355598093L27.67889556917349,29.31631018358637L27.928257235217092,27.62344777375772L28.177618901260693,31.91723107486814L28.42698056730429,39.55337133307496L28.676342233347892,54.98974798187116L28.925703899391493,52.63342744939564L29.17506556543509,61.00462256904459L29.424427231478692,54.727239081761425L29.67378889752229,56.106542956500356L29.92315056356589,68.28427619001943L30.17251222960949,73.34792092187652L30.42187389565309,65.81678048107172L30.67123556169669,56.043563650589384L30.920597227740284,75.96908014902006L31.169958893783885,67.40185480531211L31.419320559827487,76.13303593233282L31.668682225871084,69.07806245886063L31.918043891914685,74.13116229727521L32.16740555795829,87.4220227164L32.41676722400189,81.32404276670964L32.666128890045485,85.10684317457824L32.91549055608908,88.30234822166531L33.16485222213268,91.27515672143586L33.414213888176285,103.86413612091133L33.66357555421988,100.32100981949984L33.91293722026348,93.02951073703585L34.16229888630708,94.9858177074394L34.41166055235068,100.48010484669598L34.66102221839428,102.91455302801369L34.91038388443788,99.09810626981735L35.15974555048148,106.29572585950791L35.40910721652508,98.47737508231276L35.65846888256868,109.65155164900052L35.907830548612274,109.87212424706107L36.15719221465587,110.38206855718654L36.40655388069948,113.58342616048326L36.655915546743074,109.6891698780029L36.90527721278667,111.5842004445421L37.154638878830276,108.09235301492456L37.404000544873874,111.30442393054754L37.65336221091748,112.08520919722514L37.902723876961076,117.33163987925664L38.152085543004674,118.0112942845557L38.401447209048264,110.51009497863654L38.650808875091876,113.43652278914833L38.900170541135466,112.31115716465811L39.149532207179064,119.315478658848L39.39889387322267,119.06857189699508L39.648255539266266,121.22961541208608L39.897617205309864,126.48824710658349L40.14697887135347,124.13151020520095L40.396340537397066,118.5551001469159L40.64570220344066,127.97230284870116L40.89506386948426,128.80900786307998L41.144425535527866,126.06476718004492L41.39378720157146,127.8048196254347L41.64314886761506,125.95372299603784L41.892510533658665,113.2848802975573L42.14187219970226,132.57699208748255L42.39123386574586,131.54969771464974L42.640595531789465,127.64540647368037L42.88995719783306,123.69316263387074L43.13931886387666,129.75868452202414L43.388680529920265,128.42631805452075L43.63804219596386,135.48236285922556L43.88740386200746,135.06250393868723L44.13676552805106,135.30123770637684L44.38612719409466,137.05827706751188L44.63548886013826,134.6689370772203L44.88485052618185,134.4840365343946L45.13421219222546,135.05660459945426L45.38357385826905,134.40477205808722L45.63293552431265,134.3538955202933L45.882297190356255,136.27997597936934L46.13165885639985,136.58901995271458L46.38102052244345,138.02469737048037L46.630382188487054,133.66102958922596L46.87974385453065,135.80041724285044L47.12910552057425,139.01167881217106L47.37846718661785,136.72834447428158L47.62782885266145,139.28142036767662L47.87719051870505,134.6307902000551L48.12655218474865,139.81745790902465L48.37591385079225,136.79142670284372L48.62527551683585,133.04488781630303L48.87463718287945,134.03883057185462L49.12399884892305,138.12268207354472L49.37336051496665,138.668527675719L49.622722181010246,141.1965535993101L49.87208384705385,141.9376879146247L50.12144551309745,139.69130046935385L50.370807179141046,142.93600956115333L50.620168845184644,139.81951636204806L50.86953051122825,142.47538625329844L51.118892177271846,143.39215573368236L51.368253843315436,139.8598503455506L51.61761550935905,136.87488761633742L51.86697717540264,143.0648383114522L52.116338841446236,143.14676474178302L52.36570050748984,139.55706360156623L52.61506217353344,143.77187482026466L52.864423839577036,141.49627605527104L53.11378550562064,145.80542757952196L53.36314717166424,140.56941313761902L53.612508837707836,140.6558237207292L53.86187050375143,147.30738484548962L54.11123216979504,146.384259891396L54.360593835838635,144.5989893148754L54.60995550188223,144.14977404724218L54.85931716792584,150.4669558524116L55.108678833969435,146.5152780871834L55.35804050001303,143.5996688508002L55.60740216605664,144.1862039874538L55.856763832100235,146.37040977736024L56.10612549814383,146.5365924325801L56.35548716418744,146.5777193883269L56.604848830231035,145.0284083462167L56.85421049627463,148.2382079460605L57.10357216231822,149.17057722555006L57.352933828361834,146.7348074238253L57.602295494405425,144.7366623957214L57.85165716044902,148.09209520781863L58.10101882649263,149.8872206281887L58.350380492536225,145.57010663337908L58.59974215857982,151.97223939133295L58.84910382462343,148.94463159726823L59.098465490667024,148.60364651479304L59.34782715671062,148.56228798308112L59.59718882275422,149.3441141720262L59.846550488797824,143.6318017703255L60.09591215484142,147.9588945839962L60.34527382088502,147.60818798928784L60.594635486928624,149.29748787189533L60.84399715297222,149.60844527089188L61.09335881901582,148.43900769934072L61.342720485059424,149.24530842690362L61.59208215110302,150.53881223698596L61.84144381714662,148.2213800925943L62.09080548319022,147.4848398701637L62.34016714923382,146.7864675772588L62.58952881527742,151.32734477231517L62.838890481321016,152.4657301121783L63.08825214736462,149.8904065520726L63.33761381340822,151.42538561500746L63.58697547945181,149.59705360472836L63.83633714549542,150.06156224266488L64.08569881153902,149.8535508863493L64.33506047758262,148.3684869700804L64.58442214362621,152.1783583743577L64.83378380966981,146.5066559759968L65.08314547571341,150.56548557769696L65.33250714175702,153.34669186655998L65.58186880780062,152.50205946888994L65.83123047384422,150.59087706357064L66.08059213988781,151.7759167733786L66.32995380593141,153.59273548163375L66.57931547197501,150.38568438440643L66.8286771380186,149.92126463421408L67.07803880406222,149.73606000173717L67.3274004701058,151.30494506077886L67.5767621361494,149.64557695645235L67.82612380219301,152.3736564441027L68.07548546823661,153.72210691500246L68.3248471342802,151.9756943176006L68.5742088003238,149.43023470039216L68.8235704663674,152.02753926397602L69.072932132411,153.143110862547L69.3222937984546,151.6309455409043L69.5716554644982,154.84122466673645L69.8210171305418,149.97553995864777L70.0703787965854,154.07838302862976L70.319740462629,152.57099893196408L70.5691021286726,150.92152777620797L70.8184637947162,151.8476936268134L71.0678254607598,152.52147910184468L71.3171871268034,151.70584750029278L71.566548792847,150.13519638212307L71.8159104588906,154.77917400383714L72.0652721249342,155.40174376415584L72.3146337909778,151.40296719026188L72.56399545702139,154.86492494631938L72.813357123065,153.50325125389548L73.06271878910859,154.94219178753357L73.31208045515218,153.08396776454325L73.5614421211958,155.4521454542637L73.8108037872394,154.08826828144436L74.06016545328299,153.15378207015232L74.30952711932659,153.11475801130103L74.55888878537019,156.34231410762268L74.80825045141378,152.0062319360328L75.0576121174574,152.10469148678325L75.30697378350098,155.65695685178838L75.55633544954459,155.69189207440687L75.80569711558819,154.8814837974018L76.05505878163179,155.78883585520373L76.30442044767538,154.30734850106293L76.553782113719,155.38390539738728L76.80314377976258,153.2421996449603L77.05250544580619,151.9448385746103L77.30186711184979,156.07624501944295L77.55122877789339,156.4516951551529L77.80059044393698,155.66274625091665L78.0499521099806,155.41363133036592L78.29931377602418,155.24440310033188L78.54867544206779,154.43002762295447L78.79803710811139,154.05385702868634L79.04739877415497,154.6043505242214L79.29676044019858,154.09149864920036L79.5461221062422,153.34103579904797L79.79548377228578,153.14395529611684L80.04484543832938,151.276938403905L80.29420710437297,153.77265831078472L80.54356877041657,155.22844073279597L80.79293043646018,155.57457428698078L81.04229210250377,154.91911606131117L81.29165376854738,154.88548374589044L81.54101543459097,155.6813682333248L81.79037710063457,155.19441076167752L82.03973876667817,155.18129981940928L82.28910043272178,155.2724448444732L82.53846209876536,154.49595425933074L82.78782376480898,157.30368886153266L83.03718543085257,154.68953305297097L83.28654709689617,155.55428916809578L83.53590876293977,154.97298203429133L83.78527042898338,155.3774212703636L84.03463209502696,155.82542251854326L84.28399376107058,156.4050010196383L84.53335542711417,156.3162816943303L84.78271709315777,157.20091006815986L85.03207875920137,156.68762194144696L85.28144042524498,158.01553115640937L85.53080209128856,155.66880699157983L85.78016375733218,155.45925179549673L86.02952542337576,152.84656029556302L86.27888708941936,156.80443213307066L86.52824875546297,153.75083169128337L86.77761042150655,156.49587704231848L87.02697208755016,155.2788377446015L87.27633375359376,157.9080775694374L87.52569541963736,157.45771728730992L87.77505708568096,155.83841182495107L88.02441875172457,156.93629242327674L88.27378041776815,157.51434930654025L88.52314208381176,158.09146351188514L88.77250374985536,157.2923697090552L89.02186541589896,157.48277310499176L89.27122708194256,156.3206184805864L89.52058874798617,158.00451375443194L89.76995041402975,156.09086003590897L90.01931208007336,155.23708155719186L90.26867374611696,158.01603641306056L90.51803541216056,156.39291696473055L90.76739707820416,157.360198075327L91.01675874424777,156.45386822658324L91.26612041029135,154.9732884630937L91.51548207633496,157.82800491640324L91.76484374237856,156.96259617810398L92.01420540842214,157.04348636446963L92.26356707446575,156.1106656288056L92.51292874050934,156.9565822204641L92.76229040655295,153.5468273009099L93.01165207259655,157.42695394079053L93.26101373864014,154.1200433108417L93.51037540468374,158.62556423607026L93.75973707072735,156.45877576572312L94.00909873677094,156.3846059606486L94.25846040281455,156.4060606551151L94.50782206885815,155.14274826909283L94.75718373490174,159.11942337322378L95.00654540094534,156.8441205108523L95.25590706698895,156.17138063639086L95.50526873303254,157.62060524811682L95.75463039907615,157.54851494842615L96.00399206511975,158.52350707083124L96.25335373116334,156.2892247328286L96.50271539720694,156.89650814029747L96.75207706325055,155.29471356354438L97.00143872929414,157.79353050656385L97.25080039533775,158.91985518303085L97.50016206138135,157.19836273254342L97.74952372742493,154.25005099332674L97.99888539346854,158.15034111623189L98.24824705951215,155.34744738736168L98.49760872555574,156.3072502316902L98.74697039159933,158.89813265575623L98.99633205764293,156.67692032487653L99.24569372368653,158.31869918203333L99.49505538973014,156.53007543232064L99.74441705577372,157.94034265100342L99.99377872181734,158.19709606967672L100.24314038786093,157.81065309307658L100.49250205390453,158.49816821585867L100.74186371994813,156.15292473371525L100.99122538599174,158.16978764942502L101.24058705203532,155.33993169467516L101.48994871807894,158.7427966444789L101.73931038412253,159.14670021493484L101.98867205016613,159.21096137568313L102.23803371620973,155.5018828254413L102.48739538225334,158.1659958853899L102.73675704829692,154.43780062226892L102.98611871434053,158.20060245726998L103.23548038038413,156.71006843600654L103.48484204642773,160.57572742594436L103.73420371247133,157.91617220203676L103.98356537851494,157.0541996767959L104.23292704455852,158.69896329083656L104.48228871060213,159.405949507899L104.73165037664572,157.07896193100675L104.98101204268931,158.12177072392774L105.23037370873293,158.225898037946L105.47973537477651,158.81622493863472L105.72909704082012,157.52061355335462L105.97845870686372,159.2108221961889L106.22782037290732,157.00731022215916L106.47718203895091,158.9468852442942L106.72654370499453,158.62955365837865L106.97590537103811,159.13228168716648L107.22526703708172,159.59354943116676L107.47462870312532,158.57876133002662L107.72399036916892,158.96966272874334L107.97335203521251,159.2773979470129L108.22271370125613,159.49383258666623L108.47207536729971,159.34789879348835L108.72143703334332,158.78126866365577L108.97079869938692,158.78595749216188L109.22016036543052,157.89315261544226L109.46952203147411,158.56867023190966L109.71888369751773,160.23434702692265L109.96824536356131,159.03639403311968L110.21760702960492,158.14043013275455L110.46696869564852,160.27393599077982L110.7163303616921,158.96288620782428L110.96569202773571,160.01361887530976L111.2150536937793,158.37275813498442L111.46441535982291,159.3678400571524L111.7137770258665,159.21302918531114L111.9631386919101,157.23422308944686L112.2125003579537,158.797752661901L112.46186202399731,156.76556947564958L112.7112236900409,157.99799921844314L112.96058535608451,160.32220203587593L113.2099470221281,160.36798273286138L113.4593086881717,161.2944912691122L113.7086703542153,158.61178195741826L113.95803202025891,156.79637843561667L114.2073936863025,160.5821823135785L114.45675535234611,158.22718457108564L114.7061170183897,159.47340594913584L114.9554786844333,158.56468080960127L115.2048403504769,158.20160946184563L115.45420201652051,159.88068725387106L115.7035636825641,159.73234413499537L115.9529253486077,157.4207703946913L116.2022870146513,158.72330332826255L116.45164868069489,158.86881022635322L116.7010103467385,158.27688919414695L116.95037201278211,158.49996585352739L117.1997336788257,159.25458069699403L117.44909534486929,158.4822561400728L117.69845701091289,159.51944746147598L117.94781867695649,158.34458072007564L118.1971803430001,158.4495173803963L118.44654200904368,160.33474690356277L118.6959036750873,159.67483142535218L118.94526534113089,158.84795084585767L119.19462700717449,159.23386283514387L119.44398867321809,159.75012519256046L119.6933503392617,160.32581602442264L119.94271200530528,158.15273289829602L120.1920736713489,159.17976645577414L120.44143533739249,159.70348602709817L120.69079700343609,158.94892381453272L120.94015866947969,160.10397326728065L121.1895203355233,158.52487430468597L121.43888200156688,160.27810318857658L121.6882436676105,158.01545045569426L121.93760533365409,160.02197198411264L122.18696699969769,158.89819581283763L122.43632866574129,157.8509695329454L122.6856903317849,158.05894580199353L122.93505199782848,161.28621418272212L123.18441366387209,159.10182593902502L123.43377532991568,160.0555692122659L123.68313699595927,158.71446250644223L123.93249866200289,160.73089150961124L124.18186032804647,161.02278716578095L124.43122199409008,157.30512860907345L124.68058366013368,157.74531709236894L124.92994532617728,159.8925210196044L125.17930699222087,159.60565921673728L125.42866865826448,159.2444334592492L125.67803032430807,161.61259126618475L125.92739199035168,160.8289265044256L126.17675365639528,160.17163906254655L126.42611532243887,157.75417194909625L126.67547698848247,161.0870436482269L126.92483865452608,160.55127627883815L127.17420032056967,158.30494263404407L127.42356198661328,161.58181037603163L127.67292365265688,157.139992723999L127.92228531870047,159.76890740682325L128.1716469847441,160.5596235397631L128.42100865078768,159.1218537512821L128.67037031683128,159.3131425159338L128.91973198287488,160.29721873188012L129.16909364891848,159.2700775734485L129.41845531496207,158.14634584604562L129.66781698100567,158.64930778994972L129.91717864704927,160.50549090355037L130.16654031309287,160.94241510139796L130.41590197913646,161.4311199189639L130.66526364518006,158.47617551662472L130.91462531122366,162.38362812039082L131.16398697726726,161.1112164363447L131.41334864331085,159.5544084147573L131.66271030935445,161.2328698404513L131.91207197539808,161.10061189454754L132.16143364144165,161.33698545871374L132.41079530748527,160.0789501977151L132.66015697352887,159.86949324598083L132.90951863957247,159.98517128844168L133.15888030561607,160.88081706424867L133.40824197165966,160.99200510605226L133.65760363770326,160.61889879980757L133.90696530374686,160.58968864966036L134.15632696979046,161.6945340705737L134.40568863583405,161.72228459039522L134.65505030187765,160.70358425893508L134.90441196792128,160.04168518053828L135.15377363396485,160.41899377184717L135.40313530000847,160.7353943755999L135.65249696605207,162.56929005692007L135.90185863209564,161.04065594151467L136.15122029813926,159.87242537196357L136.40058196418283,158.88127322374936L136.64994363022646,161.2888796454723L136.89930529627006,161.49435653150283L137.14866696231365,161.19212767507082L137.39802862835725,160.89253387242383L137.64739029440085,159.72801436619275L137.89675196044445,159.94805831609048L138.14611362648805,160.59606049742823L138.39547529253164,161.1228385088978L138.64483695857524,162.02651576022274L138.89419862461884,159.91040499982066L139.14356029066246,161.43181113813256L139.39292195670603,161.374271528251L139.64228362274966,161.19634633419318L139.89164528879326,158.8744908549524L140.14100695483685,159.1479902568012L140.39036862088045,159.2944351545082L140.63973028692405,162.00593707786678L140.88909195296765,161.99907166920354L141.13845361901124,161.10511709968736L141.38781528505484,159.58687934162563L141.63717695109844,159.93166086643828L141.88653861714204,162.13181615854919L142.13590028318563,161.96204056714305L142.38526194922923,161.56653571893764L142.63462361527283,157.9697434419704L142.88398528131643,161.71075374473753L143.13334694736002,160.68364416484658L143.38270861340365,160.08887989440177L143.63207027944722,162.01411358075683L143.88143194549085,160.4214744416555L144.13079361153444,162.5188298880331L144.38015527757804,161.05674579278892L144.62951694362164,162.72073722938902L144.87887860966524,159.96591539606834L145.12824027570883,160.46688204403048L145.37760194175243,162.32035057270653L145.62696360779603,161.1173648951765L145.87632527383963,160.91447160160544L146.12568693988322,161.4451828957555L146.37504860592685,161.62902497268L146.62441027197042,162.05251308624764L146.87377193801404,163.03302794454842L147.12313360405764,160.20581756976384L147.37249527010124,159.48419411429933L147.62185693614484,161.04951079824195L147.87121860218843,161.3522051457554L148.12058026823203,160.73842708508263L148.36994193427563,162.82175347236054L148.61930360031923,160.18450556351831L148.86866526636283,161.65793454190276L149.11802693240642,160.01437909943772L149.36738859845002,160.74458957882138L149.61675026449362,161.02704208174634L149.86611193053722,162.55167157036078L150.11547359658084,160.56928891236836L150.36483526262444,162.2426182404109L150.614196928668,161.49810502124143L150.8635585947116,162.52725668009762L151.11292026075523,163.3594015192843L151.36228192679883,162.12764545202566L151.61164359284243,160.64121079317528L151.861005258886,160.77679735118392L152.11036692492962,160.3983156755668L152.35972859097322,163.2123367465191L152.60909025701682,161.34852332182496L152.85845192306041,162.21343148177533L153.10781358910404,160.84934378535132L153.3571752551476,161.6879762602884L153.6065369211912,158.94619636427674L153.8558985872348,161.64113826697726L154.10526025327843,160.9417472737409L154.35462191932203,160.59360438870712L154.60398358536563,161.933464326961L154.8533452514092,162.29755086632136L155.1027069174528,161.98862618968542L155.35206858349642,161.4337081897257L155.60143024954002,162.98550808867327L155.8507919155836,162.02108308164682L156.1001535816272,161.89274321394095L156.3495152476708,161.6439768269135L156.5988769137144,159.71834548486075L156.848238579758,162.53034786835943L157.0976002458016,161.70564971689998L157.34696191184523,159.37552533829822L157.59632357788882,161.7179127168717L157.8456852439324,161.89690456385983L158.095046909976,161.86136817939246L158.34440857601962,160.5521967348208L158.59377024206321,159.97026387808026L158.8431319081068,161.72404363206977L159.09249357415038,159.97088375313842L159.34185524019398,161.31911785255562L159.5912169062376,161.13962425764305L159.8405785722812,160.9757515141966L160.0899402383248,161.73224820477378L160.33930190436843,160.51506738841144L160.588663570412,161.76348405982807L160.8380252364556,161.45203660866292L161.0873869024992,161.39090172344393L161.3367485685428,162.82258153187223L161.5861102345864,162.41670605698593L161.83547190063,162.01831469624548L162.08483356667358,163.4363022833415L162.33419523271718,160.70891986273773L162.5835568987608,161.9559716394508L162.8329185648044,163.35863544727843L163.082280230848,160.21639170259593L163.3316418968916,162.7880252517421L163.5810035629352,162.1142070285946L163.8303652289788,159.33976907362154L164.0797268950224,161.73928671062308L164.329088561066,160.22575532470117L164.5784502271096,162.05650835643394L164.82781189315318,159.1955112822519L165.07717355919678,161.69682176041104L165.32653522524038,163.74847838009393L165.575896891284,161.63822953250616L165.8252585573276,161.71180051488292L166.0746202233712,163.27109037585427L166.32398188941477,162.09617685143067L166.57334355545837,161.17463901140107L166.822705221502,162.09666339487256L167.0720668875456,161.5251467782606L167.3214285535892,162.82496278775608L167.5707902196328,162.07287305796987L167.82015188567638,164.74709943797143L168.06951355171998,161.40844418759036L168.31887521776358,160.6788606007184L168.56823688380717,161.63623774529094L168.8175985498508,161.6427090069832L169.0669602158944,161.73255580315168L169.31632188193797,162.01951935909437L169.56568354798156,162.77625230393906L169.8150452140252,161.85545948355485L170.0644068800688,161.7767248249859L170.31376854611239,158.95490151532962L170.56313021215595,162.8169161077556L170.81249187819958,163.74683512640195L171.06185354424318,162.63589270798244L171.31121521028678,160.08908924843087L171.56057687633037,162.89655952655136L171.809938542374,161.3941660088918L172.05930020841757,162.42465566221318L172.30866187446117,162.4444413723249L172.55802354050476,162.69496797060248L172.8073852065484,162.23656919550353L173.056746872592,160.37933931175746L173.30610853863558,162.43172808575432L173.55547020467915,162.71854310559814L173.80483187072275,163.51929536660262L174.05419353676638,162.39342097673443L174.30355520280997,161.9748696416962L174.55291686885357,162.85874363927567L174.80227853489717,161.07719465225534L175.05164020094077,160.47757196484508L175.30100186698436,163.06427315620738L175.55036353302796,161.3243786035211L175.79972519907156,161.9190036944717L176.04908686511519,160.17891616181447L176.29844853115878,161.86286640571234L176.54781019720235,163.14230723900303L176.79717186324595,162.84770986324008L177.04653352928958,162.1807266397907L177.29589519533317,163.62294549378362L177.54525686137677,161.57710751261854L177.79461852742034,163.16727299936508L178.04398019346394,162.96259844218346L178.29334185950756,161.908040092971L178.54270352555116,162.1878575421109L178.79206519159476,160.25044155649925L179.04142685763838,162.64454756728531L179.29078852368195,162.5767168618624L179.54015018972555,161.00859670525097L179.78951185576915,161.79574095436504L180.03887352181275,160.58710739635205L180.28823518785637,162.25818880012702L180.53759685389997,161.82814989372756L180.78695851994354,161.81061678618573L181.03632018598714,160.615021656755L181.28568185203076,163.11255440578603L181.53504351807436,162.52854789153955L181.78440518411796,161.56400358780377L182.03376685016156,156.49016015687624L182.28312851620515,162.20964205689137L182.53249018224875,163.06747896287618L182.78185184829235,162.4506401229067L183.03121351433595,163.34528357244037L183.28057518037957,163.1723419399352L183.52993684642314,162.94394371165902L183.77929851246674,159.91056990997762L184.02866017851034,162.70152578088778L184.27802184455396,161.67678225239817L184.52738351059756,161.8775504271377L184.77674517664116,161.45915230650058L185.02610684268473,162.36278394437787L185.27546850872832,162.5729484893389L185.52483017477195,162.86753767807278L185.77419184081555,162.59371079506116L186.02355350685914,162.34446839077205L186.27291517290277,162.1894926087738L186.52227683894634,163.1787091094007L186.77163850498994,162.22820556052045L187.02100017103353,160.5042394576782L187.27036183707713,162.70913971792316L187.51972350312076,162.99946463408696L187.76908516916436,163.30061046353055L188.01844683520793,164.075371246388L188.26780850125152,163.25981332809772L188.51717016729515,162.89084147153355L188.76653183333875,162.17861321671495L189.01589349938234,160.72565765888416L189.2652551654259,163.40647108856052L189.51461683146954,164.13239507343815L189.76397849751314,162.41145934092748L190.01334016355673,163.91588090264528L190.26270182960033,162.42185686784674L190.51206349564396,162.2163799818162L190.76142516168753,161.87920888531218L191.01078682773112,163.4850993157516L191.26014849377472,164.4026208332344L191.50951015981835,160.50036582335238L191.75887182586195,162.5342636074062L192.00823349190554,162.25786131896422L192.2575951579491,163.5758794332341L192.5069568239927,163.38810875193147L192.75631849003634,162.74505153615218L193.00568015607993,163.00913936329687L193.25504182212353,160.82045994679135L193.50440348816713,163.39562093589123L193.75376515421073,161.42194342895172L194.00312682025432,164.43564730850392L194.25248848629792,162.5580656400647L194.50185015234152,162.25548474138265L194.75121181838514,161.98064383634193L195.00057348442874,160.43268716275503L195.2499351504723,162.9725608869864L195.4992968165159,164.37082475147656L195.74865848255953,163.0513949594798L195.99802014860313,159.88277143755724L196.24738181464673,163.48458470249574L196.4967434806903,162.39416482680429L196.7461051467339,162.88569183024833L196.99546681277752,163.90734884877844L197.24482847882112,163.3231657286192L197.49419014486472,163.806427341429L197.74355181090834,161.90284717738928L197.9929134769519,162.6591602446002L198.2422751429955,162.4455255688889L198.4916368090391,163.45840960098243L198.7409984750827,162.45200969591258L198.99036014112633,162.4402636483479L199.23972180716993,162.96822760945707L199.4890834732135,161.06325448089981L199.7384451392571,164.0228385895707L199.98780680530072,162.42052004295712L200.23716847134432,162.72959091654073L200.48653013738792,162.30527474346138L200.7358918034315,163.84216489289642L200.9852534694751,163.5454833334473L201.2346151355187,163.56250884518676L201.4839768015623,162.26648576930194L201.7333384676059,163.4705111995239L201.98270013364953,163.61497249704473L202.2320617996931,160.7133782848543L202.4814234657367,163.094200256186L202.7307851317803,163.31200212969406L202.98014679782392,163.2332429100379L203.22950846386752,163.85062677222834L203.47887012991112,161.7771809594627L203.72823179595468,163.08463663665634L203.97759346199828,159.78923229127804L204.2269551280419,162.64224350338984L204.4763167940855,164.49295651199597L204.7256784601291,163.33059838143942L204.97504012617273,162.99003434617356L205.2244017922163,161.97135506707386L205.4737634582599,162.49316939977567L205.7231251243035,161.55772413650686L205.9724867903471,162.95399738335735L206.22184845639072,161.23600430300962L206.47121012243431,162.8054706411153L206.72057178847788,163.528309285609L206.96993345452148,163.26428461554568L207.2192951205651,161.4283573814405L207.4686567866087,161.34993032124945L207.7180184526523,163.9043161392957L207.96738011869587,163.00232658553483L208.2167417847395,163.6744816722055L208.4661034507831,162.99651379489492L208.7154651168267,161.8502303111301L208.9648267828703,160.89155376808657L209.21418844891392,163.83282466230278L209.46355011495748,162.19682467809403L209.71291178100108,162.76505361774647L209.96227344704468,162.77878911337527L210.2116351130883,163.8323767148551L210.4609967791319,163.15453281255614L210.7103584451755,164.2258348057929L210.95972011121907,156.70177380598275L211.20908177726267,161.37867965861756L211.4584434433063,164.02445494302427L211.7078051093499,163.94413317039127L211.9571667753935,161.32346399541638L212.2065284414371,162.81922835868014L212.45589010748068,161.82446222191916L212.70525177352428,164.2684787010689L212.95461343956788,162.75787008452508L213.20397510561148,161.35097709139487L213.4533367716551,162.49770267472945L213.7026984376987,164.47118720169806L213.95206010374227,163.60811878413733L214.20142176978587,163.5881751813221L214.4507834358295,162.03689808265943L214.7001451018731,163.46593231112246L214.9495067679167,163.3972197457111L215.19886843396026,162.3198102287879L215.44823010000385,163.68583474237482L215.69759176604748,161.38803275454256L215.94695343209108,164.55145049555202L216.19631509813468,162.576351954281L216.4456767641783,164.16946711064398L216.69503843022187,161.65031709614064L216.94440009626547,163.7892170367477L217.19376176230907,162.89616070127806L217.44312342835266,162.8394304376989L217.6924850943963,163.7634875435309L217.9418467604399,163.26855239684247L218.19120842648346,161.9300479966875L218.44057009252705,162.63083429359259L218.68993175857068,163.22136002213014L218.93929342461428,160.27737220383818L219.18865509065787,161.51946147135908L219.43801675670147,162.9228083113263L219.68737842274507,163.68494586493293L219.93674008878867,163.86074594015923L220.18610175483226,163.0418091180141L220.43546342087586,162.2626834790866L220.6848250869195,165.04831544194988L220.93418675296306,162.19077680276226L221.18354841900666,163.06506729802717L221.43291008505025,163.7577472665771L221.68227175109388,162.1774553368893L221.93163341713748,161.31244425428775L222.18099508318107,163.68779495104937L222.43035674922464,164.11087839146583L222.67971841526824,160.28435457005955L222.92908008131187,162.64051370110482L223.17844174735546,163.43121229041097L223.42780341339906,163.95102898801963L223.6771650794427,162.53759455866225L223.92652674548626,162.354430835575L224.17588841152985,163.17615124760403L224.42525007757345,163.76593078692062L224.67461174361705,164.23574111096798L224.92397340966068,164.18531953807522L225.17333507570427,163.4038477305313L225.42269674174784,163.8220505320463L225.67205840779144,162.87901823198047L225.92142007383507,163.7906930411315L226.17078173987866,162.17794421948238L226.42014340592226,162.67383724857206L226.66950507196583,163.8359298854716L226.91886673800946,162.29939645658894L227.16822840405305,164.38678828858804L227.41759007009665,160.23520549539944L227.66695173614025,161.2592028346681L227.91631340218387,163.52548943888206L228.16567506822744,164.3001040247918L228.41503673427104,162.48913670317077L228.66439840031464,163.5180205292188L228.91376006635826,163.35212091128966L229.16312173240186,164.2100104481756L229.41248339844546,163.9910787646559L229.66184506448903,163.48546773205976L229.91120673053263,164.29923152140805L230.16056839657625,161.57716365224647L230.40993006261985,163.9649469374391L230.65929172866345,164.36451489121453L230.90865339470704,164.08097468299883L231.15801506075064,165.25315373971293L231.40737672679424,163.0756835355802L231.65673839283784,163.60608606177675L231.90610005888144,162.81105068621451L232.15546172492506,163.172403927441L232.40482339096866,162.95740903532848L232.65418505701223,165.45340262289426L232.90354672305583,164.39589460406538L233.15290838909945,164.33574567106152L233.40227005514305,162.5004277858343L233.65163172118665,164.40327345640887L233.90099338723022,164.59881713702595L234.1503550532738,162.12802088578735L234.39971671931744,162.6821798311947L234.64907838536104,165.121108656565L234.89844005140463,163.49522199240923L235.14780171744826,161.71062509142357L235.39716338349183,162.78822524916654L235.64652504953543,163.24056211402674L235.89588671557902,163.80463789078937L236.14524838162262,161.4933425094737L236.39461004766625,162.5824407647581L236.64397171370985,164.490365902083L236.89333337975341,163.04874002290987L237.142695045797,162.7339101591631L237.39205671184064,164.2649372262082L237.64141837788424,163.52424150173664L237.89078004392783,164.26954769315034L238.14014170997143,163.35607056802826L238.38950337601503,164.20415789196593L238.63886504205863,164.21151569194896L238.88822670810222,163.75315434326865L239.13758837414582,163.19784336591354L239.38695004018945,164.73536508616255L239.63631170623302,160.31104545440428L239.8856733722766,162.87004056981712L240.1350350383202,164.18221665405758L240.38439670436384,161.4980243205263L240.63375837040743,165.69874332304363L240.88312003645103,164.0899184274703L241.1324817024946,164.43519819148065L241.3818433685382,163.89569051938238L241.63120503458182,165.96009785205445L241.88056670062542,164.46829133255832L242.12992836666902,164.631319642435L242.37929003271265,163.7638302291763L242.62865169875622,164.7165080190625L242.8780133647998,162.14560194592798L243.1273750308434,164.4307514651199L243.376736696887,163.69562292041616L243.62609836293063,163.2921672974079L243.87546002897423,162.84867476309483L244.1248216950178,164.4920196819552L244.3741833610614,164.1680144977718L244.62354502710502,164.03015545440837L244.87290669314862,164.00816041602323L245.12226835919222,163.22186644835693L245.3716300252358,163.36681779804638L245.62099169127941,161.5915084967532L245.870353357323,162.67532027040937L246.1197150233666,164.43446720674223L246.3690766894102,164.1068714255237L246.61843835545383,164.31907687987444L246.8678000214974,163.77662889476434L247.117161687541,164.67863950088568L247.3665233535846,163.4429875773652L247.61588501962822,164.10796848741913L247.86524668567182,164.74545618427945L248.11460835171542,164.02278595866954L248.363970017759,164.33961345750947L248.61333168380258,164.8133874732024L248.8626933498462,163.27891483649427L249.1120550158898,161.55566685305905L249.3614166819334,164.2573244587484L249.610778347977,163.91794286439543L249.8601400140206,163.46957670863432L250.1095016800642,162.8527717863567L250.3588633461078,162.58250743056627L250.6082250121514,161.2022725736645L250.85758667819502,161.8547635860839L251.10694834423862,164.86929669472337L251.3563100102822,165.47786897448304L251.60567167632578,164.75753439130932L251.8550333423694,163.0123065739715L252.104395008413,163.60159606111947L252.3537566744566,162.67225949111264L252.60311834050017,164.9186972281335L252.85248000654377,164.06195387531739L253.1018416725874,164.3874853556346L253.351203338631,162.35438639170292L253.6005650046746,165.11832506668108L253.84992667071822,163.56369596440194L254.0992883367618,163.9306035200648L254.34865000280539,164.52780284687026L254.59801166884898,163.3380555953469L254.84737333489258,165.0057031252146L255.0967350009362,164.63739441800513L255.3460966669798,164.6289325386732L255.59545833302337,162.4416273734759L255.84481999906697,164.35962021740607L256.09418166511057,163.32403472327624L256.3435433311542,164.29748066676257L256.5929049971978,163.29485147336737L256.8422666632414,164.21793432274006L257.09162832928496,163.64195226655806L257.3409899953286,163.8519881582052L257.5903516613722,164.21572850319345L257.8397133274158,163.14911066016046L258.0890749934594,165.41829664224088L258.338436659503,164.4838654010012L258.5877983255466,164.33641817702087L258.83715999159017,162.62492325860381L259.0865216576338,164.45139096540612L259.33588332367736,164.4710386655992L259.585244989721,163.67593896338002L259.83460665576456,163.91123183970893L260.0839683218082,165.17037819751L260.33332998785176,164.73519315855205L260.5826916538954,164.62343319428913L260.832053319939,164.45362368519113L261.0814149859826,165.30706649571636L261.33077665202615,162.7552116392284L261.58013831806977,164.11543856665799L261.8294999841134,164.09458269488923L262.07886165015697,164.38500351625072L262.3282233162006,162.15079135278296L262.57758498224416,163.72261087695858L262.8269466482878,164.6864955400664L263.07630831433136,161.71197127291785L263.325669980375,165.7078309253116L263.57503164641855,163.1543339847073L263.8243933124622,161.61380645521393L264.07375497850575,164.5383851667314L264.3231166445494,162.89813143613284L264.57247831059294,164.66067832868103L264.82183997663657,165.23158325726388L265.0712016426802,163.48445721875737L265.32056330872376,162.90567402905776L265.56992497476733,163.797074245504L265.81928664081096,163.3111272871591L266.0686483068546,164.99092085944045L266.31800997289815,164.0680052593759L266.5673716389418,162.67716936940369L266.8167333049854,163.4689217463087L267.066094971029,164.50061372332783L267.31545663707254,163.72186351816202L267.56481830311617,164.2081075487046L267.81417996915974,163.40937982303166L268.06354163520336,164.4701228879189L268.312903301247,163.0313051597169L268.56226496729056,164.41498090797938L268.81162663333413,163.6914615704973L269.06098829937775,163.08847986201707L269.3103499654214,164.67370155278073L269.55971163146495,164.40061267196103L269.8090732975086,164.73347154329616L270.05843496355214,165.95720549164145L270.30779662959577,166.3475887683756L270.55715829563934,165.8607962068853L270.80651996168297,166.92053402156031L271.0558816277266,162.5596808239427L271.30524329377016,166.58941957220492L271.55460495981373,167.1153958396134L271.80396662585736,167.43764958436356L272.053328291901,167.0197163700201L272.30268995794455,167.9010845519163L272.5520516239882,167.73323408191726L272.80141329003175,168.12450916003226L273.0507749560753,167.6652612730612L273.30013662211894,168.44448457154974L273.54949828816257,168.87314454833864L273.79885995420614,169.3149663439336L274.04822162024976,169.57263437071163L274.29758328629333,170.31313068254653" fill="none"></path></g></g></g></g></g></g><g transform="translate(30, 176)" clip-path="url(#clip_1)"><clipPath id="clip_1"><rect width="299" height="23"></rect></clipPath><g><g><line x1="0" y1="0" x2="0" y2="5" style="visibility: inherit;" fill="rgb(0, 0, 0)" stroke="rgb(204, 204, 204)" stroke-width="1px"></line><line x1="24.936166604359943" y1="0" x2="24.936166604359943" y2="5" style="visibility: inherit;" fill="rgb(0, 0, 0)" stroke="rgb(204, 204, 204)" stroke-width="1px"></line><line x1="49.87233320871989" y1="0" x2="49.87233320871989" y2="5" style="visibility: inherit;" fill="rgb(0, 0, 0)" stroke="rgb(204, 204, 204)" stroke-width="1px"></line><line x1="74.80849981307983" y1="0" x2="74.80849981307983" y2="5" style="visibility: inherit;" fill="rgb(0, 0, 0)" stroke="rgb(204, 204, 204)" stroke-width="1px"></line><line x1="99.74466641743977" y1="0" x2="99.74466641743977" y2="5" style="visibility: inherit;" fill="rgb(0, 0, 0)" stroke="rgb(204, 204, 204)" stroke-width="1px"></line><line x1="124.68083302179973" y1="0" x2="124.68083302179973" y2="5" style="visibility: inherit;" fill="rgb(0, 0, 0)" stroke="rgb(204, 204, 204)" stroke-width="1px"></line><line x1="149.61699962615967" y1="0" x2="149.61699962615967" y2="5" style="visibility: inherit;" fill="rgb(0, 0, 0)" stroke="rgb(204, 204, 204)" stroke-width="1px"></line><line x1="174.55316623051962" y1="0" x2="174.55316623051962" y2="5" style="visibility: inherit;" fill="rgb(0, 0, 0)" stroke="rgb(204, 204, 204)" stroke-width="1px"></line><line x1="199.48933283487955" y1="0" x2="199.48933283487955" y2="5" style="visibility: inherit;" fill="rgb(0, 0, 0)" stroke="rgb(204, 204, 204)" stroke-width="1px"></line><line x1="224.4254994392395" y1="0" x2="224.4254994392395" y2="5" style="visibility: inherit;" fill="rgb(0, 0, 0)" stroke="rgb(204, 204, 204)" stroke-width="1px"></line><line x1="249.36166604359946" y1="0" x2="249.36166604359946" y2="5" style="visibility: inherit;" fill="rgb(0, 0, 0)" stroke="rgb(204, 204, 204)" stroke-width="1px"></line><line x1="274.29783264795935" y1="0" x2="274.29783264795935" y2="5" style="visibility: inherit;" fill="rgb(0, 0, 0)" stroke="rgb(204, 204, 204)" stroke-width="1px"></line><line x1="299.23399925231934" y1="0" x2="299.23399925231934" y2="5" style="visibility: inherit;" fill="rgb(0, 0, 0)" stroke="rgb(204, 204, 204)" stroke-width="1px"></line></g><g transform="translate(0, 8)"><text style="text-anchor: middle; visibility: hidden; font-family: Roboto, sans-serif; font-size: 12px; font-weight: 200;" x="0" y="0" dx="0em" dy="0.95em" fill="rgb(33, 33, 33)" stroke="none" stroke-width="1px">-100k</text><text style="text-anchor: middle; visibility: inherit; font-family: Roboto, sans-serif; font-size: 12px; font-weight: 200;" x="24.936166604359943" y="0" dx="0em" dy="0.95em" fill="rgb(33, 33, 33)" stroke="none" stroke-width="1px">0</text><text style="text-anchor: middle; visibility: hidden; font-family: Roboto, sans-serif; font-size: 12px; font-weight: 200;" x="49.87233320871989" y="0" dx="0em" dy="0.95em" fill="rgb(33, 33, 33)" stroke="none" stroke-width="1px">100k</text><text style="text-anchor: middle; visibility: inherit; font-family: Roboto, sans-serif; font-size: 12px; font-weight: 200;" x="74.80849981307983" y="0" dx="0em" dy="0.95em" fill="rgb(33, 33, 33)" stroke="none" stroke-width="1px">200k</text><text style="text-anchor: middle; visibility: hidden; font-family: Roboto, sans-serif; font-size: 12px; font-weight: 200;" x="99.74466641743977" y="0" dx="0em" dy="0.95em" fill="rgb(33, 33, 33)" stroke="none" stroke-width="1px">300k</text><text style="text-anchor: middle; visibility: inherit; font-family: Roboto, sans-serif; font-size: 12px; font-weight: 200;" x="124.68083302179973" y="0" dx="0em" dy="0.95em" fill="rgb(33, 33, 33)" stroke="none" stroke-width="1px">400k</text><text style="text-anchor: middle; visibility: hidden; font-family: Roboto, sans-serif; font-size: 12px; font-weight: 200;" x="149.61699962615967" y="0" dx="0em" dy="0.95em" fill="rgb(33, 33, 33)" stroke="none" stroke-width="1px">500k</text><text style="text-anchor: middle; visibility: inherit; font-family: Roboto, sans-serif; font-size: 12px; font-weight: 200;" x="174.55316623051962" y="0" dx="0em" dy="0.95em" fill="rgb(33, 33, 33)" stroke="none" stroke-width="1px">600k</text><text style="text-anchor: middle; visibility: hidden; font-family: Roboto, sans-serif; font-size: 12px; font-weight: 200;" x="199.48933283487955" y="0" dx="0em" dy="0.95em" fill="rgb(33, 33, 33)" stroke="none" stroke-width="1px">700k</text><text style="text-anchor: middle; visibility: inherit; font-family: Roboto, sans-serif; font-size: 12px; font-weight: 200;" x="224.4254994392395" y="0" dx="0em" dy="0.95em" fill="rgb(33, 33, 33)" stroke="none" stroke-width="1px">800k</text><text style="text-anchor: middle; visibility: hidden; font-family: Roboto, sans-serif; font-size: 12px; font-weight: 200;" x="249.36166604359946" y="0" dx="0em" dy="0.95em" fill="rgb(33, 33, 33)" stroke="none" stroke-width="1px">900k</text><text style="text-anchor: middle; visibility: inherit; font-family: Roboto, sans-serif; font-size: 12px; font-weight: 200;" x="274.29783264795935" y="0" dx="0em" dy="0.95em" fill="rgb(33, 33, 33)" stroke="none" stroke-width="1px">1M</text><text style="text-anchor: middle; visibility: hidden; font-family: Roboto, sans-serif; font-size: 12px; font-weight: 200;" x="299.23399925231934" y="0" dx="0em" dy="0.95em" fill="rgb(33, 33, 33)" stroke="none" stroke-width="1px">1.1M</text></g><line x1="0" y1="0" x2="299.23399925231934" y2="0" fill="rgb(0, 0, 0)" stroke="rgb(204, 204, 204)" stroke-width="1px"></line></g></g></g></g></svg>