<svg viewBox="0 0 330 200" xmlns="http://www.w3.org/2000/svg"><g><g><g><g><g><line x1="41.149001121520996" y1="176.5999994277954" x2="36.149001121520996" y2="176.5999994277954" style="visibility: inherit;" fill="rgb(0, 0, 0)" stroke="rgb(204, 204, 204)" stroke-width="1px"></line><line x1="41.149001121520996" y1="161.88333280881244" x2="36.149001121520996" y2="161.88333280881244" style="visibility: inherit;" fill="rgb(0, 0, 0)" stroke="rgb(204, 204, 204)" stroke-width="1px"></line><line x1="41.149001121520996" y1="147.16666618982953" x2="36.149001121520996" y2="147.16666618982953" style="visibility: inherit;" fill="rgb(0, 0, 0)" stroke="rgb(204, 204, 204)" stroke-width="1px"></line><line x1="41.149001121520996" y1="132.44999957084656" x2="36.149001121520996" y2="132.44999957084656" style="visibility: inherit;" fill="rgb(0, 0, 0)" stroke="rgb(204, 204, 204)" stroke-width="1px"></line><line x1="41.149001121520996" y1="117.73333295186362" x2="36.149001121520996" y2="117.73333295186362" style="visibility: inherit;" fill="rgb(0, 0, 0)" stroke="rgb(204, 204, 204)" stroke-width="1px"></line><line x1="41.149001121520996" y1="103.01666633288065" x2="36.149001121520996" y2="103.01666633288065" style="visibility: inherit;" fill="rgb(0, 0, 0)" stroke="rgb(204, 204, 204)" stroke-width="1px"></line><line x1="41.149001121520996" y1="88.2999997138977" x2="36.149001121520996" y2="88.2999997138977" style="visibility: inherit;" fill="rgb(0, 0, 0)" stroke="rgb(204, 204, 204)" stroke-width="1px"></line><line x1="41.149001121520996" y1="73.58333309491475" x2="36.149001121520996" y2="73.58333309491475" style="visibility: inherit;" fill="rgb(0, 0, 0)" stroke="rgb(204, 204, 204)" stroke-width="1px"></line><line x1="41.149001121520996" y1="58.86666647593181" x2="36.149001121520996" y2="58.86666647593181" style="visibility: inherit;" fill="rgb(0, 0, 0)" stroke="rgb(204, 204, 204)" stroke-width="1px"></line><line x1="41.149001121520996" y1="44.14999985694885" x2="36.149001121520996" y2="44.14999985694885" style="visibility: inherit;" fill="rgb(0, 0, 0)" stroke="rgb(204, 204, 204)" stroke-width="1px"></line><line x1="41.149001121520996" y1="29.433333237965893" x2="36.149001121520996" y2="29.433333237965893" style="visibility: inherit;" fill="rgb(0, 0, 0)" stroke="rgb(204, 204, 204)" stroke-width="1px"></line><line x1="41.149001121520996" y1="14.716666618982957" x2="36.149001121520996" y2="14.716666618982957" style="visibility: inherit;" fill="rgb(0, 0, 0)" stroke="rgb(204, 204, 204)" stroke-width="1px"></line><line x1="41.149001121520996" y1="0" x2="36.149001121520996" y2="0" style="visibility: inherit;" fill="rgb(0, 0, 0)" stroke="rgb(204, 204, 204)" stroke-width="1px"></line></g><g transform="translate(31.149001121520996, 0)"><text style="text-anchor: end; visibility: hidden; font-family: Roboto, sans-serif; font-size: 12px; font-weight: 200;" x="0" y="176.5999994277954" dx="0em" dy="0.3em" fill="rgb(33, 33, 33)" stroke="none" stroke-width="1px">0</text><text style="text-anchor: end; visibility: inherit; font-family: Roboto, sans-serif; font-size: 12px; font-weight: 200;" x="0" y="161.88333280881244" dx="0em" dy="0.3em" fill="rgb(33, 33, 33)" stroke="none" stroke-width="1px">10</text><text style="text-anchor: end; visibility: hidden; font-family: Roboto, sans-serif; font-size: 12px; font-weight: 200;" x="0" y="147.16666618982953" dx="0em" dy="0.3em" fill="rgb(33, 33, 33)" stroke="none" stroke-width="1px">20</text><text style="text-anchor: end; visibility: inherit; font-family: Roboto, sans-serif; font-size: 12px; font-weight: 200;" x="0" y="132.44999957084656" dx="0em" dy="0.3em" fill="rgb(33, 33, 33)" stroke="none" stroke-width="1px">30</text><text style="text-anchor: end; visibility: hidden; font-family: Roboto, sans-serif; font-size: 12px; font-weight: 200;" x="0" y="117.73333295186362" dx="0em" dy="0.3em" fill="rgb(33, 33, 33)" stroke="none" stroke-width="1px">40</text><text style="text-anchor: end; visibility: inherit; font-family: Roboto, sans-serif; font-size: 12px; font-weight: 200;" x="0" y="103.01666633288065" dx="0em" dy="0.3em" fill="rgb(33, 33, 33)" stroke="none" stroke-width="1px">50</text><text style="text-anchor: end; visibility: hidden; font-family: Roboto, sans-serif; font-size: 12px; font-weight: 200;" x="0" y="88.2999997138977" dx="0em" dy="0.3em" fill="rgb(33, 33, 33)" stroke="none" stroke-width="1px">60</text><text style="text-anchor: end; visibility: inherit; font-family: Roboto, sans-serif; font-size: 12px; font-weight: 200;" x="0" y="73.58333309491475" dx="0em" dy="0.3em" fill="rgb(33, 33, 33)" stroke="none" stroke-width="1px">70</text><text style="text-anchor: end; visibility: hidden; font-family: Roboto, sans-serif; font-size: 12px; font-weight: 200;" x="0" y="58.86666647593181" dx="0em" dy="0.3em" fill="rgb(33, 33, 33)" stroke="none" stroke-width="1px">80</text><text style="text-anchor: end; visibility: inherit; font-family: Roboto, sans-serif; font-size: 12px; font-weight: 200;" x="0" y="44.14999985694885" dx="0em" dy="0.3em" fill="rgb(33, 33, 33)" stroke="none" stroke-width="1px">90</text><text style="text-anchor: end; visibility: hidden; font-family: Roboto, sans-serif; font-size: 12px; font-weight: 200;" x="0" y="29.433333237965893" dx="0em" dy="0.3em" fill="rgb(33, 33, 33)" stroke="none" stroke-width="1px">100</text><text style="text-anchor: end; visibility: inherit; font-family: Roboto, sans-serif; font-size: 12px; font-weight: 200;" x="0" y="14.716666618982957" dx="0em" dy="0.3em" fill="rgb(33, 33, 33)" stroke="none" stroke-width="1px">110</text><text style="text-anchor: end; visibility: hidden; font-family: Roboto, sans-serif; font-size: 12px; font-weight: 200;" x="0" y="0" dx="0em" dy="0.3em" fill="rgb(33, 33, 33)" stroke="none" stroke-width="1px">120</text></g><line x1="41.149001121520996" y1="0" x2="41.149001121520996" y2="176.5999994277954" fill="rgb(0, 0, 0)" stroke="rgb(204, 204, 204)" stroke-width="1px"></line></g></g><g transform="translate(41, 0)" clip-path="url(#clip_0)"><clipPath id="clip_0"><rect width="288" height="176"></rect></clipPath><g><g><g><line x1="0" y1="0" x2="0" y2="176.5999994277954" fill="rgb(0, 0, 0)" stroke="rgb(66, 66, 66)" stroke-width="1px" opacity="0.25"></line><line x1="24.07091657320658" y1="0" x2="24.07091657320658" y2="176.5999994277954" fill="rgb(0, 0, 0)" stroke="rgb(66, 66, 66)" stroke-width="1px" opacity="0.25"></line><line x1="48.14183314641316" y1="0" x2="48.14183314641316" y2="176.5999994277954" fill="rgb(0, 0, 0)" stroke="rgb(66, 66, 66)" stroke-width="1px" opacity="0.25"></line><line x1="72.21274971961975" y1="0" x2="72.21274971961975" y2="176.5999994277954" fill="rgb(0, 0, 0)" stroke="rgb(66, 66, 66)" stroke-width="1px" opacity="0.25"></line><line x1="96.28366629282633" y1="0" x2="96.28366629282633" y2="176.5999994277954" fill="rgb(0, 0, 0)" stroke="rgb(66, 66, 66)" stroke-width="1px" opacity="0.25"></line><line x1="120.35458286603293" y1="0" x2="120.35458286603293" y2="176.5999994277954" fill="rgb(0, 0, 0)" stroke="rgb(66, 66, 66)" stroke-width="1px" opacity="0.25"></line><line x1="144.4254994392395" y1="0" x2="144.4254994392395" y2="176.5999994277954" fill="rgb(0, 0, 0)" stroke="rgb(66, 66, 66)" stroke-width="1px" opacity="0.25"></line><line x1="168.4964160124461" y1="0" x2="168.4964160124461" y2="176.5999994277954" fill="rgb(0, 0, 0)" stroke="rgb(66, 66, 66)" stroke-width="1px" opacity="0.25"></line><line x1="192.56733258565265" y1="0" x2="192.56733258565265" y2="176.5999994277954" fill="rgb(0, 0, 0)" stroke="rgb(66, 66, 66)" stroke-width="1px" opacity="0.25"></line><line x1="216.63824915885925" y1="0" x2="216.63824915885925" y2="176.5999994277954" fill="rgb(0, 0, 0)" stroke="rgb(66, 66, 66)" stroke-width="1px" opacity="0.25"></line><line x1="240.70916573206586" y1="0" x2="240.70916573206586" y2="176.5999994277954" fill="rgb(0, 0, 0)" stroke="rgb(66, 66, 66)" stroke-width="1px" opacity="0.25"></line><line x1="264.7800823052724" y1="0" x2="264.7800823052724" y2="176.5999994277954" fill="rgb(0, 0, 0)" stroke="rgb(66, 66, 66)" stroke-width="1px" opacity="0.25"></line><line x1="288.850998878479" y1="0" x2="288.850998878479" y2="176.5999994277954" fill="rgb(0, 0, 0)" stroke="rgb(66, 66, 66)" stroke-width="1px" opacity="0.25"></line></g><g><line x1="0" y1="176.5999994277954" x2="288.850998878479" y2="176.5999994277954" fill="rgb(0, 0, 0)" stroke="rgb(66, 66, 66)" stroke-width="1px" opacity="0.25"></line><line x1="0" y1="161.88333280881244" x2="288.850998878479" y2="161.88333280881244" fill="rgb(0, 0, 0)" stroke="rgb(66, 66, 66)" stroke-width="1px" opacity="0.25"></line><line x1="0" y1="147.16666618982953" x2="288.850998878479" y2="147.16666618982953" fill="rgb(0, 0, 0)" stroke="rgb(66, 66, 66)" stroke-width="1px" opacity="0.25"></line><line x1="0" y1="132.44999957084656" x2="288.850998878479" y2="132.44999957084656" fill="rgb(0, 0, 0)" stroke="rgb(66, 66, 66)" stroke-width="1px" opacity="0.25"></line><line x1="0" y1="117.73333295186362" x2="288.850998878479" y2="117.73333295186362" fill="rgb(0, 0, 0)" stroke="rgb(66, 66, 66)" stroke-width="1px" opacity="0.25"></line><line x1="0" y1="103.01666633288065" x2="288.850998878479" y2="103.01666633288065" fill="rgb(0, 0, 0)" stroke="rgb(66, 66, 66)" stroke-width="1px" opacity="0.25"></line><line x1="0" y1="88.2999997138977" x2="288.850998878479" y2="88.2999997138977" fill="rgb(0, 0, 0)" stroke="rgb(66, 66, 66)" stroke-width="1px" opacity="0.25"></line><line x1="0" y1="73.58333309491475" x2="288.850998878479" y2="73.58333309491475" fill="rgb(0, 0, 0)" stroke="rgb(66, 66, 66)" stroke-width="1px" opacity="0.25"></line><line x1="0" y1="58.86666647593181" x2="288.850998878479" y2="58.86666647593181" fill="rgb(0, 0, 0)" stroke="rgb(66, 66, 66)" stroke-width="1px" opacity="0.25"></line><line x1="0" y1="44.14999985694885" x2="288.850998878479" y2="44.14999985694885" fill="rgb(0, 0, 0)" stroke="rgb(66, 66, 66)" stroke-width="1px" opacity="0.25"></line><line x1="0" y1="29.433333237965893" x2="288.850998878479" y2="29.433333237965893" fill="rgb(0, 0, 0)" stroke="rgb(66, 66, 66)" stroke-width="1px" opacity="0.25"></line><line x1="0" y1="14.716666618982957" x2="288.850998878479" y2="14.716666618982957" fill="rgb(0, 0, 0)" stroke="rgb(66, 66, 66)" stroke-width="1px" opacity="0.25"></line><line x1="0" y1="0" x2="288.850998878479" y2="0" fill="rgb(0, 0, 0)" stroke="rgb(66, 66, 66)" stroke-width="1px" opacity="0.25"></line></g></g></g><g><g><line x1="0" y1="176.5999994277954" x2="288.850998878479" y2="176.5999994277954" fill="rgb(0, 0, 0)" stroke="rgb(153, 153, 153)" stroke-width="1.5px"></line></g></g><g><g><line x1="24.07091657320658" y1="0" x2="24.07091657320658" y2="176.5999994277954" fill="rgb(0, 0, 0)" stroke="rgb(153, 153, 153)" stroke-width="1.5px"></line></g></g><g><g><g><g><g><path style="fill: none;" stroke="rgb(0, 119, 187)" stroke-width="2px" d="M24.311385029772914,165.4715665995047L24.552094195504985,163.84209947463555L24.792803361237052,161.08016194986837L25.033512526969115,159.15948759554482L25.274221692701182,155.73724182504225L25.514930858433246,153.57978353627252L25.755640024165313,150.56760868766054L25.99634918989738,148.42144715034135L26.237058355629443,145.43827195552848L26.47776752136151,143.37705021199022L26.718476687093574,140.08525354487122L26.95918585282564,138.24072030320218L27.199895018557708,135.366270481168L27.44060418428977,131.59991579364646L27.68131335002184,126.73817489716039L27.922022515753905,123.03595763911002L28.16273168148597,119.51757420668493L28.403440847218036,116.15594795078945L28.6441500129501,113.82839697623565L28.88485917868217,110.36646642962833L29.125568344414237,106.96725416083771L29.3662775101463,105.49831136549031L29.606986675878368,103.7191833623982L29.84769584161043,103.44472931150874L30.088405007342498,102.19002610190871L30.329114173074565,101.87569592227194L30.56982333880663,102.48757701124315L30.810532504538696,103.02050977419952L31.051241670270763,103.91909953096675L31.291950836002826,104.60142204426933L31.532660001734893,104.58704364278755L31.773369167466956,105.3300159207544L32.01407833319902,104.78988914147119L32.254787498931094,105.88233258766451L32.49549666466316,105.94915532502733L32.73620583039522,106.52223460589579L32.976914996127284,107.9195866701527L33.217624161859355,108.66910427385548L33.45833332759142,109.67274389255766L33.69904249332348,110.20547975169669L33.93975165905555,111.28399865075986L34.180460824787616,111.6383916366556L34.42116999051968,112.30105995291369L34.66187915625175,112.81303866804626L34.902588321983814,113.04275373611524L35.14329748771588,113.4587428686853L35.38400665344795,114.22484015703552L35.62471581918001,114.34295756725908L35.86542498491208,114.70013704379018L36.106134150644145,114.78206836250176L36.346843316376216,115.42856934135118L36.58755248210828,115.49664970966006L36.82826164784034,116.13708890227652L37.068970813572406,116.1186622337598L37.30967997930448,116.04333139954247L37.55038914503654,116.04679904863944L37.791098310768604,116.01028092006396L38.031807476500674,116.05885034286385L38.27251664223274,115.73099098210461L38.5132258079648,115.35525883124662L38.75393497369687,114.79054839543409L38.994644139428935,114.8907389222448L39.235353305161,114.74090166861258L39.47606247089306,114.62065464949491L39.71677163662513,114.35872942818092L39.957480802357196,114.57044214807983L40.19818996808926,114.48363473817383L40.43889913382133,114.31558964364993L40.679608299553394,114.26557861898722L40.92031746528546,114.30218468856937L41.16102663101753,114.43249506137579L41.40173579674959,113.94633629804379L41.642444962481655,114.03761424990296L41.883154128213725,114.08383554845095L42.12386329394579,113.98408339222671L42.36457245967785,113.36212441717663L42.605281625409916,113.27737103254039L42.845990791141986,113.11832683170748L43.08669995687405,112.3598395177731L43.32740912260611,112.67581563013317L43.568118288338184,112.65648886047536L43.80882745407025,112.94908355135705L44.04953661980231,112.68052885892305L44.29024578553439,112.85908691965835L44.53095495126645,113.2045278125728L44.77166411699851,113.31889524306104L45.012373282730586,112.99614609929964L45.25308244846265,112.67601803819677L45.49379161419471,112.67103712823598L45.734500779926776,112.70551365942607L45.97520994565885,113.06358213761025L46.21591911139091,113.2413775472166L46.456628277122974,113.88603210691973L46.697337442855044,114.3220026761926L46.93804660858711,114.6414843508344L47.17875577431917,114.90174275310598L47.41946494005124,115.16517514966675L47.660174105783305,115.24537285330034L47.90088327151537,115.25189919696294L48.14159243724744,115.01180693976173L48.3823016029795,114.84904138817014L48.623010768711566,113.72361257019982L48.86371993444363,113.37775612963651L49.1044291001757,113.5589019935657L49.345138265907764,113.38527569916253L49.58584743163983,112.57501208135166L49.8265565973719,112.55555379181797L50.06726576310396,112.21889094438316L50.307974928836025,112.13377724147016L50.548684094568095,111.46123876496242L50.78939326030016,110.44008157388045L51.03010242603222,110.06745494144465L51.27081159176429,110.0916793091499L51.511520757496356,109.94929583386599L51.75222992322842,110.21532521345227L51.99293908896048,109.71459383610738L52.233648254692554,109.05727772462618L52.47435742042462,108.32521949095582L52.71506658615668,107.42194387164218L52.95577575188875,107.51400818292133L53.196484917620815,107.42666689819261L53.43719408335288,107.15112185238887L53.677903249084956,107.12263618591285L53.91861241481702,105.96508275747182L54.15932158054908,105.68217334647801L54.40003074628115,105.36702506678057L54.64073991201322,104.900456432782L54.88144907774528,104.45811834506156L55.122158243477344,104.01388440700786L55.362867409209414,103.92733646111797L55.60357657494148,103.03915229992029L55.84428574067354,102.4839489353535L56.08499490640561,101.62344690356751L56.325704072137675,101.38074002970579L56.56641323786974,101.33560054128264L56.80712240360181,101.10536597677735L57.04783156933387,100.96114524907519L57.288540735065936,100.50505501953923L57.529249900798,100.47184340688784L57.76995906653007,100.53615631480602L58.010668232262134,100.09474561978827L58.2513773979942,99.7811606948817L58.49208656372627,99.9147447864358L58.73279572945833,99.6148276842169L58.973504895190395,99.28469783065557L59.214214060922465,98.48794115819123L59.45492322665453,98.13465398590482L59.69563239238659,97.32970676395871L59.93634155811866,96.3928314954381L60.177050723850726,96.62966187689273L60.41775988958279,95.90409066764657L60.65846905531485,95.12089104801349L60.899178221046924,94.92565323633634L61.13988738677899,94.65363682948212L61.38059655251105,93.87408848446533L61.62130571824312,93.40605538350924L61.862014883975185,93.04657888565694L62.10272404970725,92.36216349956379L62.343433215439326,92.14536321222104L62.58414238117139,91.11454960255647L62.824851546903446,91.27903067852868L63.06556071263552,91.21227984786127L63.30626987836759,91.41213178158719L63.54697904409965,90.71875610629593L63.787688209831714,90.31149619363696L64.02839737556378,89.61697778369656L64.26910654129584,88.23072561235L64.50981570702791,87.4844341516549L64.75052487275998,86.55892016064628L64.99123403849204,85.70011386095372L65.23194320422411,85.74216427400697L65.47265236995618,84.74356863443602L65.71336153568824,84.34027102851046L65.9540707014203,83.90539523127357L66.19477986715238,82.62734629124067L66.43548903288443,81.8953937842896L66.6761981986165,80.6130424361988L66.91690736434856,80.23813851829598L67.15761653008065,80.21791199256454L67.3983256958127,79.53425754314436L67.63903486154477,79.01552955033002L67.87974402727684,78.11856374903017L68.1204531930089,78.57758788559075L68.36116235874097,78.03863949605413L68.60187152447304,77.0800085596731L68.8425806902051,75.7099418938825L69.08328985593717,74.8784881011031L69.32399902166924,74.36159431536157L69.5647081874013,74.47796776110533L69.80541735313336,74.20834613618516L70.04612651886542,73.29889777038163L70.28683568459749,72.15798524301854L70.52754485032956,71.02503293434569L70.76825401606162,70.39494542428079L71.00896318179369,69.858550218478L71.24967234752576,69.40455521633092L71.49038151325782,68.56434977859777L71.73109067898989,66.63258508815254L71.97179984472196,65.97685843982688L72.21250901045401,65.74178469113083L72.45321817618608,64.6879515784631L72.69392734191814,64.28089238570362L72.93463650765021,63.31246874777142L73.17534567338228,62.321538375927254L73.41605483911434,61.139476986817854L73.65676400484641,59.88261672541563L73.89747317057848,59.21653523313035L74.13818233631054,58.40234987267211L74.3788915020426,58.839111080393366L74.61960066777468,57.98015946749813L74.86030983350673,57.36370267015762L75.1010189992388,56.946372887251904L75.34172816497089,55.463991079622595L75.58243733070293,54.480870951872554L75.823146496435,54.79916455200513L76.06385566216709,53.733081001738775L76.30456482789913,53.29205222629238L76.54527399363121,52.778651905430145L76.78598315936328,51.317172969893974L77.02669232509534,50.947195809984706L77.26740149082741,50.70052264004369L77.50811065655947,49.390784113798695L77.74881982229154,49.363357977098325L77.98952898802361,49.0601328304699L78.23023815375566,48.80565784880549L78.47094731948773,48.08760982213142L78.7116564852198,47.317309221352765L78.95236565095186,46.26917984645862L79.19307481668393,45.39959969411715L79.433783982416,45.14896113944624L79.67449314814806,44.43624131299412L79.91520231388013,44.05446330634489L80.1559114796122,43.694167783120605L80.39662064534426,42.890450564311195L80.63732981107633,41.73839141544519L80.8780389768084,40.8779924304028L81.11874814254045,40.063853108295774L81.35945730827252,40.34382172775219L81.6001664740046,38.38222476913176L81.84087563973665,37.760494297960825L82.08158480546872,37.08724692263148L82.32229397120079,36.43945744608202L82.56300313693285,34.87351669058411L82.80371230266492,34.11393275269905L83.04442146839698,33.98635373560111L83.28513063412905,32.64490943005222L83.52583979986112,32.65265515347726L83.76654896559317,30.83063555670374L84.00725813132524,30.34625422315707L84.24796729705731,29.46201225505652L84.48867646278937,28.411668430425888L84.72938562852144,26.077984953725874L84.97009479425351,25.16325833071857L85.21080395998557,25.4431535477929L85.45151312571764,23.62977834367435L85.69222229144971,23.19602059295772L85.93293145718177,21.283904442621548L86.17364062291384,22.10127013901546L86.41434978864591,22.529400550866008L86.65505895437796,22.977957128639684L86.89576812011003,22.646898012295665L87.1364772858421,23.286633034913358L87.37718645157416,24.06062904471164L87.61789561730623,24.175721186520036L87.8586047830383,24.430078845160356L88.09931394877036,23.407127432813187L88.34002311450243,22.215657844671686L88.5807322802345,21.153840766225986L88.82144144596656,21.71319759237396L89.06215061169863,21.330930370433975L89.30285977743068,21.326528009548582L89.54356894316275,20.341676442623417L89.78427810889482,19.616936551386836L90.02498727462688,19.823557528509003L90.26569644035895,21.049785489630526L90.50640560609102,22.373140993303018L90.74711477182308,22.803793624390817L90.98782393755515,22.527678669199236L91.22853310328722,21.03124046487551L91.46924226901928,20.630244139763008L91.70995143475135,20.663786937533683L91.95066060048342,21.04513618924999L92.19136976621547,21.450523632188485L92.43207893194754,22.24658835338232L92.67278809767961,21.851068302424277L92.91349726341167,21.38054224628803L93.15420642914374,21.160706051547123L93.39491559487583,21.581136504324434L93.63562476060787,20.9470579952399L93.87633392633994,21.580446884614133L94.11704309207202,22.200142365661193L94.35775225780407,23.59911125927071L94.59846142353615,24.17021539713371L94.83917058926822,22.761226315093282L95.07987975500028,22.95587851797667L95.32058892073235,22.400984870191657L95.5612980864644,22.132825162270656L95.80200725219647,21.89368353747274L96.04271641792855,22.316342401070678L96.2834255836606,21.25673198325359L96.52413474939267,22.259944725359556L96.76484391512474,22.51485937526621L97.0055530808568,23.062327443057104L97.24626224658887,22.745257585669698L97.48697141232094,23.606588604106072L97.727680578053,24.124261380429388L97.96838974378507,23.919567991859818L98.20909890951714,24.05595594208L98.4498080752492,23.948946699481457L98.69051724098126,24.855820559307634L98.93122640671334,23.905219407441468L99.17193557244539,24.368000767853353L99.41264473817746,24.224972676388347L99.65335390390953,24.364891910257633L99.89406306964159,24.30959632814801L100.13477223537366,24.59525203515852L100.37548140110573,24.983817206429197L100.61619056683779,25.547731066970695L100.85689973256986,25.273196833861892L101.09760889830191,25.35607670957829L101.33831806403398,25.96858999711453L101.57902722976606,25.385684759953378L101.81973639549811,25.79500403052205L102.06044556123018,25.051481519742314L102.30115472696225,24.41625645253362L102.54186389269431,24.098793942704408L102.78257305842638,24.63366879363355L103.02328222415845,24.183715558324728L103.2639913898905,24.649908225579537L103.50470055562258,23.062381220512588L103.74540972135465,23.156783869952374L103.9861188870867,23.256964759667607L104.22682805281877,23.98857167839476L104.46753721855085,24.866059485480672L104.7082463842829,25.938762150093908L104.94895555001497,26.123102783825345L105.18966471574704,26.669595555732602L105.4303738814791,26.563039301997772L105.67108304721117,23.66322058020385L105.91179221294324,24.2071041621137L106.1525013786753,23.103062287409717L106.39321054440737,23.880007828898208L106.63391971013944,23.55477841971804L106.8746288758715,22.749580156692744L107.11533804160356,23.926305886380913L107.35604720733562,26.000047466523505L107.59675637306769,27.505391060216656L107.83746553879976,27.178587827847686L108.07817470453182,27.39491368573735L108.31888387026389,28.738070180737477L108.55959303599596,27.47978724322355L108.80030220172802,28.60738070695567L109.04101136746009,28.781719726922017L109.28172053319216,27.731356441033338L109.52242969892421,29.868949708720244L109.76313886465628,30.37707938047516L110.00384803038835,30.467283471890596L110.24455719612041,30.814292889762285L110.48526636185248,30.39191336832394L110.72597552758455,30.29528664400722L110.96668469331661,29.692873149759507L111.20739385904868,28.851965363235227L111.44810302478076,28.268328232339616L111.6888121905128,28.804094737956678L111.92952135624488,28.48085236169553L112.17023052197696,27.883397421033422L112.410939687709,28.38758278528808L112.65164885344109,27.939647723737178L112.89235801917316,29.027101687023798L113.13306718490522,28.79714358385287L113.37377635063729,29.548002957357017L113.61448551636934,28.932809412533206L113.85519468210141,29.221909357773168L114.09590384783348,29.476051616035413L114.33661301356554,29.85321862235862L114.57732217929761,31.020998056927155L114.81803134502968,32.52698350458492L115.05874051076174,31.9420135779014L115.29944967649381,33.07955015373207L115.54015884222588,31.26344581981573L115.78086800795793,30.577766507708223L116.02157717369,31.027973985572274L116.26228633942208,31.92808641793696L116.50299550515413,31.118838584970447L116.7437046708862,30.292552517052812L116.98441383661827,30.649766269079315L117.22512300235033,31.693404282812025L117.4658321680824,31.96851502571047L117.70654133381447,30.613595131073186L117.94725049954653,31.339252753506408L118.1879596652786,30.99637628689935L118.42866883101067,30.332515498787053L118.66937799674272,30.250768450093265L118.9100871624748,30.89456701143638L119.15079632820685,31.440859914161223L119.39150549393892,31.66300072304L119.63221465967099,31.00512441156703L119.87292382540305,31.37629615560299L120.11363299113512,32.38904749046797L120.35434215686719,32.87694646335529L120.59505132259925,33.716692555695595L120.83576048833132,33.97106434903153L121.07646965406339,34.044113498702195L121.31717881979544,34.67296287620154L121.55788798552751,34.6329655824753L121.79859715125959,35.157785278547394L122.03930631699164,36.121822659008075L122.28001548272371,37.00118646907283L122.52072464845578,37.119293897805505L122.76143381418784,37.06128215553543L123.00214297991991,35.70334775681358L123.24285214565198,36.84551441620301L123.48356131138404,36.34897762448438L123.72427047711611,36.270293422214394L123.96497964284818,35.573720536023195L124.20568880858023,36.39696936116737L124.4463979743123,35.78365329224552L124.68710714004438,35.65995374656766L124.92781630577643,35.97471846628985L125.1685254715085,35.79962430116972L125.40923463724056,34.35661108165303L125.64994380297263,34.60255187581065L125.8906529687047,35.32155799607788L126.13136213443676,34.36145410260887L126.37207130016883,34.44744784867311L126.6127804659009,35.05326554377635L126.85348963163295,35.399003313386835L127.09419879736502,35.61462140199415L127.3349079630971,36.14649931491218L127.57561712882915,35.20980501218874L127.81632629456122,35.355375869702314L128.0570354602933,36.70513484867351L128.29774462602535,36.365988234975035L128.53845379175743,37.11452588049045L128.7791629574895,36.93036762409391L129.01987212322155,37.44808227913061L129.26058128895363,38.25525160879986L129.5012904546857,38.854977279084906L129.74199962041774,40.10136464469751L129.98270878614983,39.87391430708551L130.22341795188188,40.25607870201787L130.46412711761394,40.24158528919172L130.70483628334603,39.91222903703152L130.94554544907808,39.853792903454085L131.18625461481014,40.24519133658282L131.42696378054222,40.858870422993306L131.66767294627428,40.09581159555818L131.90838211200634,39.6403413448348L132.14909127773842,39.93345450166351L132.38980044347048,39.6287014451945L132.63050960920253,40.428893976495054L132.87121877493462,39.76406887724406L133.11192794066667,39.64991233093403L133.35263710639873,40.57838364514719L133.59334627213082,40.6044485228349L133.83405543786287,40.919276709331214L134.07476460359493,41.688007830360206L134.315473769327,42.85141401548622L134.55618293505907,43.37034356493757L134.79689210079113,43.378867879542526L135.0376012665232,43.52290156418036L135.27831043225527,43.48485385418412L135.51901959798732,43.97774480639904L135.7597287637194,45.081096577510976L136.00043792945146,44.10409892582078L136.24114709518352,44.78293055844435L136.4818562609156,44.33392330712939L136.72256542664766,42.88556381291042L136.96327459237972,43.241067524783254L137.20398375811178,43.22825832178258L137.44469292384386,43.57015463499888L137.68540208957592,44.42227812900966L137.92611125530797,45.237268119973734L138.16682042104006,45.2002247756221L138.4075295867721,45.758369758779125L138.64823875250417,45.219999060263476L138.88894791823625,45.961491195467886L139.12965708396834,46.02057248369042L139.37036624970037,45.69631668468202L139.61107541543245,46.24089439353762L139.85178458116454,45.82728300634668L140.09249374689657,46.39991405052676L140.33320291262865,45.5104005913888L140.57391207836073,45.63178513184491L140.8146212440928,45.74790613339054L141.05533040982485,45.87955275139605L141.29603957555693,46.18301598530328L141.536748741289,47.92910700212844L141.77745790702105,48.168677105308404L142.01816707275313,48.02172589931735L142.2588762384852,47.162890550838284L142.49958540421724,46.817115280389295L142.74029456994933,46.10074662185143L142.98100373568138,46.51830504264138L143.22171290141344,48.86846953498861L143.4624220671455,48.94195155281096L143.70313123287758,49.38202180074149L143.94384039860964,50.72774267634727L144.1845495643417,49.252845147021176L144.42525873007378,49.418349235798466L144.66596789580584,49.80502684630811L144.90667706153792,50.18280538672387L145.14738622726998,50.745111887240505L145.38809539300203,51.589865686227775L145.6288045587341,51.91099202978942L145.86951372446617,51.055591920091686L146.11022289019823,51.35185373070657L146.35093205593031,50.6012615817515L146.59164122166234,49.956852989784636L146.83235038739443,50.624235233573835L147.07305955312648,50.971431854100295L147.31376871885857,51.139916733171276L147.55447788459063,51.042351698846744L147.7951870503227,51.243385480826284L148.03589621605474,53.11237071925906L148.27660538178682,53.675353651795284L148.51731454751888,53.19236928093883L148.75802371325096,53.122151186305395L148.99873287898302,53.41687633206099L149.2394420447151,53.847036541928034L149.48015121044713,52.13997091458792L149.72086037617922,52.30954860691956L149.96156954191127,53.08717414269734L150.20227870764336,53.852762969088715L150.44298787337542,53.84450714673532L150.6836970391075,54.93278916082183L150.92440620483953,54.61929752993569L151.1651153705716,53.64591535529426L151.40582453630367,53.640113065632164L151.64653370203575,54.26659068528777L151.8872428677678,55.59111431836325L152.1279520334999,55.812523668416794L152.36866119923192,56.60306640678704L152.609370364964,56.846661815478996L152.85007953069606,56.525215247783855L153.09078869642815,56.16645649503523L153.3314978621602,57.99548455830681L153.57220702789226,58.73127441189544L153.81291619362432,57.98960370711704L154.0536253593564,58.74355309117913L154.29433452508846,57.63439556194405L154.53504369082054,58.30957011841351L154.7757528565526,57.96732281118692L155.01646202228466,59.627395920646826L155.2571711880167,60.138409491530204L155.4978803537488,59.69076990392938L155.73858951948085,58.39537121652026L155.97929868521294,59.072909774467576L156.22000785094502,58.97625803876807L156.46071701667705,58.128204680965L156.7014261824091,58.396925095393044L156.9421353481412,58.61606474174132L157.18284451387328,58.544575426599586L157.42355367960533,58.45917717983881L157.66426284533742,59.93634885503087L157.90497201106945,60.88729843042937L158.1456811768015,61.658250801591606L158.3863903425336,60.80183251225464L158.62709950826567,60.32405521043547L158.86780867399773,60.32739584229955L159.10851783972976,60.43786766130463L159.34922700546184,60.30674366254871L159.58993617119393,60.293089323579515L159.83064533692598,59.84796400546304L160.07135450265807,61.80075864857913L160.31206366839012,62.185622858606365L160.55277283412218,62.01090430133236L160.79348199985424,61.99193519802128L161.03419116558632,61.88108676148727L161.27490033131838,62.23669253637391L161.51560949705046,62.058941424748696L161.75631866278252,61.79976576114898L161.99702782851458,62.11050192689383L162.23773699424663,62.021139281808665L162.47844615997872,61.43883469138243L162.71915532571077,62.29016816168526L162.95986449144286,61.83855731403404L163.2005736571749,61.23659131430521L163.44128282290697,61.799648991585805L163.68199198863903,61.94502341300391L163.9227011543711,61.91120109393534L164.16341032010317,62.58326125297615L164.40411948583525,62.632815736058674L164.64482865156728,62.02865006964651L164.88553781729937,63.16849158063495L165.12624698303142,62.678874908000694L165.3669561487635,63.04839225824313L165.60766531449556,63.03790144887715L165.84837448022765,63.25880549762221L166.08908364595968,64.58794056251483L166.32979281169176,65.23078525723007L166.57050197742382,63.88200458440743L166.8112111431559,65.0241444244302L167.05192030888796,64.97088264388084L167.29262947462004,65.22142088287954L167.53333864035207,64.6347155055596L167.77404780608416,64.28670262339506L168.0147569718162,64.94351339668479L168.2554661375483,65.72031260298282L168.49617530328035,65.60362814025335L168.73688446901244,66.26598957488437L168.97759363474447,66.85232375007556L169.21830280047655,66.3002629069933L169.4590119662086,66.54952238763752L169.6997211319407,66.3141038525494L169.94043029767275,66.36921515253532L170.18113946340483,66.88235976605716L170.42184862913686,65.90146151586706L170.66255779486895,65.60049359824994L170.903266960601,65.49907578531112L171.1439761263331,65.57250066735317L171.38468529206514,65.13529411768458L171.6253944577972,65.00038870747406L171.86610362352926,64.6082788460671L172.10681278926134,63.54185286123593L172.3475219549934,64.51847321144466L172.58823112072548,63.70244886893882L172.82894028645754,62.41167887362474L173.0696494521896,63.89269226121713L173.31035861792165,64.52148262295428L173.55106778365374,62.95841716869251L173.7917769493858,64.35666613387956L174.03248611511788,65.69220005620113L174.27319528084996,66.95025338362954L174.513904446582,67.31413084684857L174.75461361231405,67.44504175755873L174.99532277804613,67.47175661359725L175.23603194377822,65.98035640097365L175.47674110951027,65.30414746882394L175.71745027524236,65.06810158930777L175.95815944097438,64.30183512885807L176.19886860670644,64.94692674106956L176.43957777243853,65.49779537221771L176.6802869381706,65.47333977612057L176.92099610390267,65.8240251276534L177.1617052696347,65.10648717452406L177.40241443536678,65.06911347989846L177.64312360109886,65.48371013331274L177.88383276683092,65.54761041325135L178.124541932563,65.32045772957522L178.36525109829506,64.7878247332464L178.60596026402712,65.55185823762093L178.84666942975917,65.31830041149287L179.08737859549126,65.1247398510923L179.32808776122332,64.28601866583159L179.5687969269554,63.73390502900549L179.80950609268746,65.17484082242903L180.0502152584195,65.3247358456101L180.29092442415157,64.0851454420666L180.53163358988365,63.26437786568733L180.7723427556157,63.09541282288097L181.0130519213478,63.807859346680495L181.25376108707985,63.29787875387097L181.4944702528119,62.777531937152936L181.73517941854396,64.27345105147599L181.97588858427605,63.293006240328936L182.2165977500081,63.56604028310647L182.4573069157402,65.23639324046833L182.69801608147222,66.29347976324794L182.9387252472043,66.01169683414412L183.17943441293636,66.04338324993599L183.42014357866844,66.68657593474647L183.6608527444005,65.26377173366785L183.90156191013259,63.85535753627803L184.1422710758646,63.85268075541258L184.3829802415967,63.06653370785357L184.62368940732875,64.01041939417806L184.86439857306084,63.68744049352442L185.1051077387929,63.24695838474061L185.34581690452498,64.17247231108604L185.586526070257,65.26760505949287L185.8272352359891,65.57393445545834L186.06794440172115,65.66679670420987L186.30865356745323,67.16150442158244L186.5493627331853,67.16927522782906L186.79007189891738,67.38798485563804L187.0307810646494,67.01094507015148L187.2714902303815,68.10303115309928L187.51219939611354,68.39513164925123L187.75290856184563,68.28007267759244L187.99361772757769,66.86508169504265L188.23432689330977,66.6936671351588L188.4750360590418,66.85845216056956L188.71574522477388,67.89205551519552L188.95645439050594,67.35272421406519L189.19716355623802,67.71426285558904L189.43787272197008,66.91411776271464L189.67858188770214,66.85403407840177L189.9192910534342,67.10547204585427L190.16000021916628,66.94105463637347L190.40070938489833,66.09320824925673L190.64141855063042,64.55386377225649L190.88212771636248,65.42648797123293L191.12283688209453,65.87389919035722L191.3635460478266,65.8110100060094L191.60425521355867,66.62255647179902L191.84496437929073,67.45374666965903L192.08567354502281,67.69262150795713L192.3263827107549,68.70472526184044L192.56709187648693,68.85420399513387L192.80780104221898,68.39668283477378L193.04851020795107,68.5191794750526L193.28921937368315,67.43651999178472L193.5299285394152,67.11435171584688L193.7706377051473,67.5125165782416L194.01134687087932,67.57407268977452L194.25205603661138,68.25496249730338L194.49276520234346,68.51438398221065L194.73347436807555,68.93152408490326L194.9741835338076,68.98982188928356L195.21489269953963,70.01571264477197L195.45560186527172,70.79336840014042L195.6963110310038,71.73829361933572L195.93702019673586,71.68168004824024L196.17772936246794,71.78105876690425L196.4184385282,72.16844044363738L196.65914769393206,72.91445637931393L196.8998568596641,71.2983864674837L197.1405660253962,71.61646838883827L197.38127519112825,71.22312977712164L197.62198435686034,70.08575958774063L197.8626935225924,71.63809586793482L198.10340268832445,72.27135967708215L198.3441118540565,72.68586355967975L198.5848210197886,73.08634325244871L198.82553018552065,72.82009708760516L199.06623935125273,73.02532466456809L199.3069485169848,72.55026050221683L199.54765768271685,73.0716005115783L199.7883668484489,72.48765130496471L200.029076014181,73.09314507340535L200.26978517991304,73.94161904866844L200.51049434564513,73.68477743570685L200.75120351137716,71.90404639643363L200.99191267710924,72.492062734438L201.2326218428413,73.89999411743695L201.47333100857338,73.95095321301793L201.71404017430544,74.37309270097488L201.95474934003752,75.5302317738335L202.19545850576955,75.3129604181277L202.43616767150164,75.60107591110686L202.6768768372337,76.52559333274176L202.91758600296578,76.70612169802902L203.15829516869783,75.39518516747597L203.39900433442992,75.1953165199136L203.63971350016195,77.18005082541414L203.88042266589403,74.9207680931214L204.1211318316261,75.22821825083759L204.36184099735817,75.91901082389279L204.60255016309023,76.57853922504887L204.8432593288223,74.00669533461745L205.08396849455434,74.11220373577181L205.32467766028643,74.55953743204117L205.56538682601848,74.68715781031457L205.80609599175057,75.11999960797574L206.04680515748262,75.89986409389411L206.2875143232147,75.73189500302493L206.52822348894674,75.64112225653516L206.76893265467882,75.54993307043053L207.00964182041088,76.93170544374173L207.25035098614296,77.98862993180154L207.49106015187502,78.20035312313931L207.73176931760707,77.49199757616854L207.97247848333913,77.02265027104836L208.21318764907122,76.9553340724788L208.45389681480327,76.28757182657014L208.69460598053536,77.22601001243738L208.9353151462674,76.81406620098649L209.17602431199947,76.46958699314203L209.41673347773153,76.65165162800817L209.6574426434636,76.45539728282999L209.89815180919567,75.94320736323787L210.13886097492775,77.20688117541765L210.37957014065984,77.23634233832692L210.62027930639186,77.50377956671265L210.86098847212392,76.80589379380227L211.101697637856,76.46281552654254L211.3424068035881,75.49365196436312L211.58311596932015,76.81378662042363L211.82382513505223,77.03526425154078L212.06453430078426,77.26100713457713L212.30524346651632,76.87047504159125L212.5459526322484,77.20120740039698L212.78666179798049,77.24057008260489L213.02737096371254,77.5393477336087L213.26808012944457,76.90351234890491L213.50878929517665,76.54796599906047L213.74949846090874,75.94969941682447L213.9902076266408,77.8313993338482L214.23091679237288,78.00500940021033L214.47162595810494,78.16351488487712L214.712335123837,78.16663693556826L214.95304428956905,78.3103279859013L215.19375345530113,77.79094569689575L215.4344626210332,78.19463829850251L215.67517178676528,77.50429904302389L215.91588095249733,77.13053369071564L216.1565901182294,77.06554955294716L216.39729928396144,79.37847101548566L216.63800844969353,77.6408077953272L216.8787176154256,77.45607587150414L217.11942678115767,77.86833476931109L217.36013594688973,78.395989164239L217.60084511262178,79.57679596248263L217.84155427835384,78.38831631007854L218.08226344408592,78.7061287423904L218.32297260981798,78.59543068628923L218.56368177555007,79.24195554692855L218.8043909412821,79.82151961502724L219.04510010701418,79.38438808383026L219.28580927274623,80.1057562234748L219.52651843847832,80.55089453978667L219.76722760421038,80.56557969498003L220.00793676994246,79.9413758685789L220.2486459356745,80.2480835496786L220.48935510140657,80.57449735258027L220.73006426713863,81.1030034779586L220.97077343287071,80.64751288194121L221.21148259860277,81.24068505605706L221.45219176433486,81.53599815603786L221.69290093006688,82.03457788932292L221.93361009579897,81.34226920176432L222.17431926153102,81.26203860862202L222.4150284272631,81.16331029826223L222.65573759299517,79.63344836949884L222.89644675872725,79.77819579765986L223.13715592445928,81.55692137762286L223.37786509019136,82.42870388729399L223.61857425592342,82.64024702942791L223.8592834216555,82.06259095107262L224.09999258738756,81.14417217507193L224.34070175311965,80.68451683986281L224.58141091885167,80.60947090784437L224.82212008458376,80.98210564291391L225.06282925031581,80.6704798094405L225.3035384160479,81.65229760409638L225.54424758177996,81.10360817883017L225.784956747512,82.13376108789765L226.02566591324407,82.28608968055259L226.26637507897615,80.57477363605574L226.5070842447082,81.73748440690956L226.7477934104403,81.67671785504028L226.98850257617235,81.88484460549049L227.2292117419044,80.3751447147933L227.46992090763646,80.41296820019757L227.71063007336855,80.43945665111055L227.9513392391006,81.43603527183973L228.1920484048327,80.92830781620607L228.43275757056477,81.27031663754397L228.6734667362968,82.52485814985067L228.91417590202886,81.7571783110326L229.15488506776094,82.91871515169301L229.39559423349303,83.06718724022562L229.63630339922508,83.37399561239762L229.87701256495717,81.42162977148001L230.1177217306892,80.8244112721543L230.35843089642125,81.00872478841957L230.59914006215334,81.65549043440869L230.83984922788542,81.05456563385998L231.08055839361748,80.7625829415521L231.3212675593495,80.65046048665305L231.5619767250816,81.3252147131992L231.80268589081368,80.96901054551026L232.04339505654573,81.17609533089924L232.28410422227782,81.29722646959644L232.52481338800987,81.05039966678349L232.76552255374193,81.59471786487059L233.006231719474,82.13157406485739L233.24694088520607,83.34280109791611L233.48765005093813,83.07723188607802L233.7283592166702,83.06268217850295L233.96906838240227,83.5808455545454L234.20977754813433,84.73491367897809L234.45048671386638,84.55816830924492L234.69119587959847,85.56395274882628L234.93190504533052,85.72906348356322L235.1726142110626,84.65168778719584L235.41332337679466,84.27888240521395L235.65403254252672,84.0343356537249L235.89474170825878,84.74986237820279L236.13545087399086,85.08277526323035L236.37616003972292,85.98378876621742L236.616869205455,84.50145151971526L236.85757837118703,84.28174359606153L237.09828753691912,84.69423522540666L237.33899670265117,84.84161754721535L237.57970586838326,85.34898870491403L237.8204150341153,86.5904094676806L238.0611241998474,88.22628530946402L238.30183336557943,88.1945614203292L238.5425425313115,88.05430491122054L238.78325169704357,88.61557987295508L239.02396086277565,87.48108283138055L239.2646700285077,88.09078888634026L239.5053791942398,88.13885356820936L239.74608835997182,87.83202751458126L239.9867975257039,87.04482824468245L240.22750669143596,86.81496936305118L240.46821585716805,87.56827720608487L240.7089250229001,88.29801686134594L240.9496341886322,88.17117521078215L241.19034335436422,87.94641926743955L241.4310525200963,87.24760252993988L241.67176168582836,87.71481409912917L241.91247085156044,86.2940004300483L242.1531800172925,86.32390513853595L242.39388918302458,87.11140868597374L242.6345983487566,87.84671374678834L242.8753075144887,87.29507184332282L243.11601668022075,88.37678712802406L243.35672584595284,87.49623264686281L243.5974350116849,86.8921364012388L243.83814417741695,87.51978292281773L244.078853343149,88.05468568278062L244.3195625088811,87.05270462084785L244.56027167461315,87.69265854048547L244.80098084034523,88.21106538268712L245.0416900060773,88.70627150422844L245.28239917180935,88.62577053996887L245.5231083375414,88.11942963530886L245.7638175032735,88.75299055359116L246.00452666900554,89.34370403276745L246.24523583473763,90.16106869163926L246.4859450004697,90.0167110494766L246.72665416620174,89.97901200417932L246.9673633319338,90.40091824448378L247.20807249766588,89.50455147767396L247.44878166339797,88.45098744992933L247.68949082913002,88.84029327228457L247.9301999948621,90.05503240279741L248.17090916059414,90.2398640171204L248.4116183263262,89.9336742436234L248.65232749205828,89.82301066037293L248.89303665779036,89.80662033843019L249.13374582352242,90.28170277635634L249.37445498925445,91.3977367927534L249.61516415498653,91.76867767409644L249.85587332071862,91.14707364437385L250.09658248645067,90.63094434750619L250.33729165218276,90.12920668559897L250.5780008179148,90.35234521514177L250.81870998364687,89.3137814666595L251.05941914937893,89.52947193787145L251.300128315111,89.40824676477763L251.54083748084307,89.41249086659558L251.78154664657515,89.49310171507062L252.0222558123072,89.94065240814297L252.26296497803926,89.36357854887248L252.50367414377132,89.81033499094275L252.7443833095034,89.48714933030635L252.98509247523546,90.04077841274194L253.22580164096755,90.33307589889479L253.4665108066996,90.72280914335443L253.70721997243166,89.92528005978733L253.94792913816372,90.0792555760222L254.1886383038958,89.96473855885174L254.42934746962786,89.16315850912228L254.67005663535994,89.26790254645036L254.91076580109197,88.59288874124502L255.15147496682405,89.70284943118573L255.3921841325561,88.56148608180544L255.6328932982882,87.35835001470137L255.87360246402025,87.3842848528838L256.1143116297523,87.19172459322078L256.3550207954844,86.99587145017053L256.5957299612164,88.10915601967905L256.8364391269485,87.72872299138545L257.0771482926806,88.61866182031305L257.3178574584127,89.239626265708L257.5585666241447,89.8462327584458L257.7992757898768,90.99423503219448L258.0399849556088,91.18893753942086L258.2806941213409,90.74343177956186L258.521403287073,90.96116153235305L258.76211245280507,89.93561790749385L259.0028216185371,87.90845609170644L259.2435307842692,88.01916187261932L259.4842399500012,87.25773996979972L259.7249491157333,88.34651966946974L259.9656582814654,88.04551080335445L260.20636744719747,87.87775596267709L260.4470766129295,87.3105269297951L260.6877857786616,88.64266316054267L260.9284949443936,89.18172517291931L261.1692041101257,89.44089784093431L261.4099132758578,89.96346110885665L261.65062244158986,91.0549525944764L261.8913316073219,91.08690805503589L262.132040773054,91.34828468493664L262.372749938786,91.40037467751701L262.6134591045181,92.28650007740433L262.85416827025017,90.82842760185538L263.09487743598226,91.56007963367838L263.3355866017143,91.93427359207593L263.57629576744637,92.49340253623187L263.8170049331784,92.4630877019746L264.0577140989105,93.41195116242979L264.29842326464257,93.15826844698438L264.53913243037465,93.33052137263518L264.7798415961067,92.74857438560304" fill="none"></path></g></g></g></g><g opacity="0.2"><g><g><g><path style="fill: none;" stroke="rgb(0, 119, 187)" stroke-width="2px" d="M24.311385029772914,165.4715665995047L24.552094195504985,162.5385257747402L24.792803361237052,157.10297191420364L25.033512526969115,155.41033125590522L25.274221692701182,147.6552662134234L25.514930858433246,147.7777741094498L25.755640024165313,141.6774035472709L25.99634918989738,141.6371317851893L26.237058355629443,135.50754616064575L26.47776752136151,136.23877323512485L26.718476687093574,128.33188277943103L26.95918585282564,131.49636413247424L27.199895018557708,124.65859394372752L27.44060418428977,117.36272719821213L27.68131335002184,108.14649781472335L27.922022515753905,108.74812936515232L28.16273168148597,105.84017523486496L28.403440847218036,103.01223130227572L28.6441500129501,104.68591080124733L28.88485917868217,96.71831095193106L29.125568344414237,93.5271660826117L29.3662775101463,99.67673460771L29.606986675878368,96.65518194034563L29.84769584161043,102.35339347100589L30.088405007342498,97.19491393704045L30.329114173074565,100.62312522710045L30.56982333880663,104.92770417865806L30.810532504538696,105.14708661660693L31.051241670270763,107.50650605654309L31.291950836002826,107.32648872568514L31.532660001734893,104.529601235256L31.773369167466956,108.29896181620283L32.01407833319902,102.63109375442822L32.254787498931094,110.24933669925717L32.49549666466316,106.21631074186566L32.73620583039522,108.81362185507277L32.976914996127284,113.50718106049702L33.217624161859355,111.66639634508685L33.45833332759142,113.68646857619214L33.69904249332348,112.33606912454343L33.93975165905555,115.59750080800677L34.180460824787616,113.0558128381334L34.42116999051968,114.95150772360289L34.66187915625175,114.8608141547134L34.902588321983814,113.96156398087942L35.14329748771588,115.12262692343702L35.38400665344795,117.28912253205858L35.62471581918001,114.81541403762213L35.86542498491208,116.12882308844057L36.106134150644145,115.10978779053389L36.346843316376216,118.01453634806754L36.58755248210828,115.76896807353396L36.82826164784034,118.69882227266922L37.068970813572406,116.04495609830502L37.30967997930448,115.74200982421131L37.55038914503654,116.06066958015717L37.791098310768604,115.8642089522842L38.031807476500674,116.25312745256011L38.27251664223274,114.41955667933648L38.5132258079648,113.85233310685386L38.75393497369687,112.53171011384889L38.994644139428935,115.29150053815474L39.235353305161,114.14155324192342L39.47606247089306,114.13966695042564L39.71677163662513,113.31102920057756L39.957480802357196,115.41729260241391L40.19818996808926,114.13640523804402L40.43889913382133,113.64340948158475L40.679608299553394,114.06553457176975L40.92031746528546,114.44860893678019L41.16102663101753,114.95373646683092L41.40173579674959,112.00170150070821L41.642444962481655,114.40272601888888L41.883154128213725,114.2687207270664L42.12386329394579,113.5850747942229L42.36457245967785,110.87428865112018L42.605281625409916,112.93835750861895L42.845990791141986,112.48215005032948L43.08669995687405,109.32589034579374L43.32740912260611,113.93972005165944L43.568118288338184,112.57918178321006L43.80882745407025,114.11946229834062L44.04953661980231,111.6063101013342L44.29024578553439,113.57331915613842L44.53095495126645,114.58629137423081L44.77166411699851,113.77636496236532L45.012373282730586,111.70514953023353L45.25308244846265,111.39550579853008L45.49379161419471,112.65111348845184L45.734500779926776,112.84341978385943L45.97520994565885,114.4958560476297L46.21591911139091,113.95255918456256L46.456628277122974,116.46465034260147L46.697337442855044,116.06588495159006L46.93804660858711,115.91941104840866L47.17875577431917,115.94277636154501L47.41946494005124,116.21890473538583L47.660174105783305,115.5661636677071L47.90088327151537,115.27800457160505L48.14159243724744,114.0514379112014L48.3823016029795,114.19797918193633L48.623010768711566,109.22189729905226L48.86371993444363,111.99433036756355L49.1044291001757,114.28348544920688L49.345138265907764,112.69077052160786L49.58584743163983,109.3339576103245L49.8265565973719,112.47772063368733L50.06726576310396,110.87223955470145L50.307974928836025,111.79332242982983L50.548684094568095,108.77108485900494L50.78939326030016,106.35545280964193L51.03010242603222,108.57694841172749L51.27081159176429,110.18857677996957L51.511520757496356,109.3797619327367L51.75222992322842,111.27944273178781L51.99293908896048,107.71166832674218L52.233648254692554,106.42801327871634L52.47435742042462,105.39698655628794L52.71506658615668,103.80884139440083L52.95577575188875,107.88226542803676L53.196484917620815,107.07730175927858L53.43719408335288,106.04894166917592L53.677903249084956,107.0086935200091L53.91861241481702,101.33486904371317L54.15932158054908,104.55053570250385L54.40003074628115,104.10643194799187L54.64073991201322,103.03418189678874L54.88144907774528,102.68876599418073L55.122158243477344,102.23694865479382L55.362867409209414,103.58114467755844L55.60357657494148,99.48641565513043L55.84428574067354,100.26313547708683L56.08499490640561,98.18143877642416L56.325704072137675,100.40991253425896L56.56641323786974,101.15504258759012L56.80712240360181,100.18442771875624L57.04783156933387,100.38426233826665L57.288540735065936,98.68069410139546L57.529249900798,100.33899695628237L57.76995906653007,100.79340794647872L58.010668232262134,98.32910283971727L58.2513773979942,98.52682099525542L58.49208656372627,100.44908115265216L58.73279572945833,98.41515927534134L58.973504895190395,97.96417841641033L59.214214060922465,95.30091446833389L59.45492322665453,96.72150529675915L59.69563239238659,94.10991787617436L59.93634155811866,92.64533042135561L60.177050723850726,97.57698340271128L60.41775988958279,93.001805830662L60.65846905531485,91.98809256948121L60.899178221046924,94.14470198962776L61.13988738677899,93.56557120206533L61.38059655251105,90.75589510439816L61.62130571824312,91.53392297968489L61.862014883975185,91.60867289424777L62.10272404970725,89.62450195519128L62.343433215439326,91.27816206285L62.58414238117139,86.99129516389816L62.824851546903446,91.93695498241749L63.06556071263552,90.9452765251916L63.30626987836759,92.21153951649079L63.54697904409965,87.94525340513094L63.787688209831714,88.68245654300112L64.02839737556378,86.83890414393495L64.26910654129584,82.68571692696372L64.50981570702791,84.49926830887448L64.75052487275998,82.85686419661182L64.99123403849204,82.26488866218345L65.23194320422411,85.91036592622008L65.47265236995618,80.74918607615213L65.71336153568824,82.72708060480822L65.9540707014203,82.16589204232599L66.19477986715238,77.51515053110911L66.43548903288443,78.96758375648527L66.6761981986165,75.48363704383569L66.91690736434856,78.73852284668465L67.15761653008065,80.13700588963874L67.3983256958127,76.7996397454636L67.63903486154477,76.94061757907258L67.87974402727684,74.53070054383085L68.1204531930089,80.4136844318331L68.36116235874097,75.88284593790758L68.60187152447304,73.24548481414907L68.8425806902051,70.22967523071996L69.08328985593717,71.55267292998555L69.32399902166924,72.29401917239551L69.5647081874013,74.94346154408036L69.80541735313336,73.12985963650449L70.04612651886542,69.66110430716749L70.28683568459749,67.59433513356622L70.52754485032956,66.4932236996543L70.76825401606162,67.87459538402126L71.00896318179369,67.7129693952668L71.24967234752576,67.58857520774261L71.49038151325782,65.20352802766526L71.73109067898989,58.90552632637148L71.97179984472196,63.35395184652432L72.21250901045401,64.80148969634666L72.45321817618608,60.47261912779214L72.69392734191814,62.65265561466574L72.93463650765021,59.43877419604264L73.17534567338228,58.35781688855059L73.41605483911434,56.41123143038021L73.65676400484641,54.85517567980679L73.89747317057848,56.55220926398918L74.13818233631054,55.145608430839225L74.3788915020426,60.58615591127843L74.61960066777468,54.544353015917245L74.86030983350673,54.89787548079555L75.1010189992388,55.27705375562896L75.34172816497089,49.53446384910542L75.58243733070293,50.548390440872275L75.823146496435,56.072338952535404L76.06385566216709,49.46874680067334L76.30456482789913,51.527937124506686L76.54527399363121,50.72505062198119L76.78598315936328,45.4712572277492L77.02669232509534,49.467287170347674L77.26740149082741,49.713829960279625L77.50811065655947,44.15183000881874L77.74881982229154,49.253653430296865L77.98952898802361,47.8472322439562L78.23023815375566,47.78775792214777L78.47094731948773,45.21541771543525L78.7116564852198,44.23610681823806L78.95236565095186,42.076662346882046L79.19307481668393,41.921279084751234L79.433783982416,44.14640692076257L79.67449314814806,41.58536200718567L79.91520231388013,42.52735127974793L80.1559114796122,42.2529856902235L80.39662064534426,39.675581689073454L80.63732981107633,37.130154819981236L80.8780389768084,37.436396490233285L81.11874814254045,36.80729581986767L81.35945730827252,41.463696205577925L81.6001664740046,30.535836934650014L81.84087563973665,35.27357241327706L82.08158480546872,34.39425742131413L82.32229397120079,33.848299539884046L82.56300313693285,28.60975366859256L82.80371230266492,31.075597001158762L83.04442146839698,33.47603766720919L83.28513063412905,27.279132207856737L83.52583979986112,32.68363804717737L83.76654896559317,23.54255716960966L84.00725813132524,28.408728888970472L84.24796729705731,25.925044382654296L84.48867646278937,24.210293131903324L84.72938562852144,16.743251046925867L84.97009479425351,21.504351838689267L85.21080395998557,26.56273441609023L85.45151312571764,16.376277527200187L85.69222229144971,21.46098959009118L85.93293145718177,13.635439841276943L86.17364062291384,25.370732924591106L86.41434978864591,24.241922198268135L86.65505895437796,24.772183439734413L86.89576812011003,21.32266154691958L87.1364772858421,25.845573125384117L87.37718645157416,27.156613083904755L87.61789561730623,24.636089753753662L87.8586047830383,25.447509479721578L88.09931394877036,19.315321783424398L88.34002311450243,17.449779492105705L88.5807322802345,16.906572452443225L88.82144144596656,23.95062489696586L89.06215061169863,19.801861482673967L89.30285977743068,21.308918566007083L89.54356894316275,16.402270174922755L89.78427810889482,16.71797698644054L90.02498727462688,20.6500414369977L90.26569644035895,25.954697334116645L90.50640560609102,27.666563007993023L90.74711477182308,24.526404148742046L90.98782393755515,21.423218848432953L91.22853310328722,15.04548764758061L91.46924226901928,19.026258839312995L91.70995143475135,20.797958128616425L91.95066060048342,22.57053319611527L92.19136976621547,23.072073403942515L92.43207893194754,25.430847238157725L92.67278809767961,20.268988098592057L92.91349726341167,19.498438021743038L93.15420642914374,20.281361272583545L93.39491559487583,23.262858315433732L93.63562476060787,18.410743958901723L93.87633392633994,24.114002442111136L94.11704309207202,24.67892428984942L94.35775225780407,29.194986833708878L94.59846142353615,26.45463194858567L94.83917058926822,17.125269986931556L95.07987975500028,23.734487329510262L95.32058892073235,20.1814102790516L95.5612980864644,21.0601863305866L95.80200725219647,20.93711703828108L96.04271641792855,24.006977855462488L96.2834255836606,17.018290311985226L96.52413474939267,26.272795693783387L96.76484391512474,23.53451797489288L97.0055530808568,25.252199714220787L97.24626224658887,21.476978156120087L97.48697141232094,27.051912677851586L97.727680578053,26.194952485722627L97.96838974378507,23.10079443758155L98.20909890951714,24.60150774296078L98.4498080752492,23.520909729087354L98.69051724098126,28.483315998612433L98.93122640671334,20.10281479997684L99.17193557244539,26.21912620950091L99.41264473817746,23.652860310528308L99.65335390390953,24.924568845734814L99.89406306964159,24.088413999709527L100.13477223537366,25.737874863200517L100.37548140110573,26.53807789151191L100.61619056683779,27.803386509136594L100.85689973256986,24.17505990142667L101.09760889830191,25.687596212443832L101.33831806403398,28.41864314725948L101.57902722976606,23.05406381130883L101.81973639549811,27.432281112796723L102.06044556123018,22.077391476623408L102.30115472696225,21.875356183698926L102.54186389269431,22.82894390338751L102.78257305842638,26.77316819735011L103.02328222415845,22.383902617089426L103.2639913898905,26.51467889459879L103.50470055562258,16.712273200244823L103.74540972135465,23.534394467711486L103.9861188870867,23.65768831852863L104.22682805281877,26.914999353303337L104.46753721855085,28.376010713824193L104.7082463842829,30.229572808546806L104.94895555001497,26.86046531875102L105.18966471574704,28.85556664336169L105.4303738814791,26.136814287058474L105.67108304721117,12.063945693028105L105.91179221294324,26.38263848975318L106.1525013786753,18.686894788593726L106.39321054440737,26.987789994852147L106.63391971013944,22.253860782997435L106.8746288758715,19.52878710459147L107.11533804160356,28.6332088051336L107.35604720733562,34.29501378709387L107.59675637306769,33.52676543498915L107.83746553879976,25.87137489837182L108.07817470453182,28.2602171172959L108.31888387026389,34.11069616073795L108.55959303599596,22.44665549316783L108.80030220172802,33.117754561884055L109.04101136746009,29.479075806787428L109.28172053319216,23.529903297478626L109.52242969892421,38.41932277946792L109.76313886465628,32.40959806749482L110.00384803038835,30.82809983755232L110.24455719612041,32.202330561249084L110.48526636185248,28.702395282570546L110.72597552758455,29.908779746740333L110.96668469331661,27.283219172768614L111.20739385904868,25.488334217138135L111.44810302478076,25.933779708757182L111.6888121905128,30.947160760425014L111.92952135624488,27.187882856650923L112.17023052197696,25.493577658384975L112.410939687709,30.404324242306757L112.65164885344109,26.147907477533582L112.89235801917316,33.376917540170325L113.13306718490522,27.877311171169207L113.37377635063729,32.55144045137361L113.61448551636934,26.472035233237925L113.85519468210141,30.378309138733005L114.09590384783348,30.49262064908448L114.33661301356554,31.361886647651403L114.57732217929761,35.69211579520136L114.81803134502968,38.550925295215826L115.05874051076174,29.602133871167343L115.29944967649381,37.62969645705488L115.54015884222588,23.99902848415034L115.78086800795793,27.835049259278144L116.02157717369,32.82880389702847L116.26228633942208,35.52853614739561L116.50299550515413,27.881847253104382L116.7437046708862,26.987408245382365L116.98441383661827,32.0786212771854L117.22512300235033,35.867956337742775L117.4658321680824,33.06895799730422L117.70654133381447,25.193915552524057L117.94725049954653,34.24188324323933L118.1879596652786,29.624870420471115L118.42866883101067,27.67707234633786L118.66937799674272,29.92378025531803L118.9100871624748,33.4697612568088L119.15079632820685,33.62603152506059L119.39150549393892,32.55156395855502L119.63221465967099,28.373619165675212L119.87292382540305,32.86098313174679L120.11363299113512,36.44005282992802L120.35434215686719,34.82854235490455L120.59505132259925,37.07567692505684L120.83576048833132,34.98855152237519L121.07646965406339,34.33631009738486L121.31717881979544,37.18836038619889L121.55788798552751,34.47297640757031L121.79859715125959,37.25706406283582L122.03930631699164,39.977972180850834L122.28001548272371,40.51864170933174L122.52072464845578,37.59172361273618L122.76143381418784,36.82923518645512L123.00214297991991,30.27161016192622L123.24285214565198,41.41418105376082L123.48356131138404,34.36283045760981L123.72427047711611,35.95555661313441L123.96497964284818,32.7874289912584L124.20568880858023,39.68996466174411L124.4463979743123,33.33038901655805L124.68710714004438,35.16515556385622L124.92781630577643,37.23377734517854L125.1685254715085,35.09924764068922L125.40923463724056,28.58455820358631L125.64994380297263,35.586315052441144L125.8906529687047,38.19758247714683L126.13136213443676,30.521038528732788L126.37207130016883,34.79142283293009L126.6127804659009,37.47653632418934L126.85348963163295,36.78195439182885L127.09419879736502,36.47709375642341L127.3349079630971,38.274010966584264L127.57561712882915,31.46302780129505L127.81632629456122,35.93765929975652L128.0570354602933,42.1041707645582L128.29774462602535,35.00940178018118L128.53845379175743,40.10867646255217L128.7791629574895,36.193734598507696L129.01987212322155,39.51894089927742L129.26058128895363,41.48392892747688L129.5012904546857,41.25387996022503L129.74199962041774,45.086914107148004L129.98270878614983,38.96411295663748L130.22341795188188,41.78473628174718L130.46412711761394,40.183611637887175L130.70483628334603,38.59480402839071L130.94554544907808,39.62004836914432L131.18625461481014,41.81078506909767L131.42696378054222,43.313586768635155L131.66767294627428,37.043576285817586L131.90838211200634,37.81846034194132L132.14909127773842,41.10590712897841L132.38980044347048,38.40968921931847L132.63050960920253,43.62966410169714L132.87121877493462,37.1047684802401L133.11192794066667,39.19328614569391L133.35263710639873,44.292268901999755L133.59334627213082,40.70870803358569L133.83405543786287,42.17858945531643L134.07476460359493,44.76293231447623L134.315473769327,47.505038755990256L134.55618293505907,45.44606176274295L134.79689210079113,43.41296513796243L135.0376012665232,44.09903630273166L135.27831043225527,43.33266301419917L135.51901959798732,45.949308615258694L135.7597287637194,49.4945036619587L136.00043792945146,40.19610831906005L136.24114709518352,47.49825708893865L136.4818562609156,42.53789430186953L136.72256542664766,37.09212583603464L136.96327459237972,44.66308237227452L137.20398375811178,43.17702150977997L137.44469292384386,44.937739887864105L137.68540208957592,47.83077210505284L137.92611125530797,48.49722808383012L138.16682042104006,45.05205139821555L138.4075295867721,47.99094969140722L138.64823875250417,43.06651626620083L138.88894791823625,48.92745973628541L139.12965708396834,46.2568976365806L139.37036624970037,44.399293488648425L139.61107541543245,48.41920522896003L139.85178458116454,44.17283745758286L140.09249374689657,48.69043822724706L140.33320291262865,41.95234675483693L140.57391207836073,46.11732329366938L140.8146212440928,46.2123901395731L141.05533040982485,46.406139223417995L141.29603957555693,47.3968689209322L141.536748741289,54.9134710694291L141.77745790702105,49.12695751802833L142.01816707275313,47.43392107535316L142.2588762384852,43.72754915692197L142.49958540421724,45.43401419859335L142.74029456994933,43.23527198769994L142.98100373568138,48.18853872580117L143.22171290141344,58.26912750437751L143.4624220671455,49.23587962410039L143.70313123287758,51.14230279246355L143.94384039860964,56.11062617877038L144.1845495643417,43.35325502971677L144.42525873007378,50.080365590907604L144.66596789580584,51.35173728834665L144.90667706153792,51.693919548387015L145.14738622726998,52.99433788930698L145.38809539300203,54.96888088217681L145.6288045587341,53.19549740403606L145.86951372446617,47.633991481300775L146.11022289019823,52.53690097316625L146.35093205593031,47.598892985931094L146.59164122166234,47.37921862191711L146.83235038739443,53.29376420873069L147.07305955312648,52.360218336206174L147.31376871885857,51.81385624945511L147.55447788459063,50.65209156154863L147.7951870503227,52.0475206087444L148.03589621605474,60.58831167299018L148.27660538178682,55.927285381940116L148.51731454751888,51.260431797512915L148.75802371325096,52.84127880777165L148.99873287898302,54.59577691508329L149.2394420447151,55.56767738139631L149.48015121044713,45.311708405227414L149.72086037617922,52.9878593762461L149.96156954191127,56.197676285808484L150.20227870764336,56.91511827465414L150.44298787337542,53.811483857321775L150.6836970391075,59.28591721716778L150.92440620483953,53.36533100639104L151.1651153705716,49.75238665672859L151.40582453630367,53.6169039069838L151.64653370203575,56.77250116391017L151.8872428677678,60.889208850665156L152.1279520334999,56.69816106863102L152.36866119923192,59.765237360268046L152.609370364964,57.82104345024667L152.85007953069606,55.23942897700333L153.09078869642815,54.731421484040766L153.3314978621602,65.31159681139306L153.57220702789226,61.674433826249995L153.81291619362432,55.02292088800351L154.0536253593564,61.7593506274275L154.29433452508846,53.197765445003654L154.53504369082054,61.010268344291454L154.7757528565526,56.598333582280496L155.01646202228466,66.26768835848647L155.2571711880167,62.18246377506372L155.4978803537488,57.90021155352613L155.73858951948085,53.213776466883736L155.97929868521294,61.78306400625691L156.22000785094502,58.58965109596999L156.46071701667705,54.73599124975268L156.7014261824091,59.4718067531052L156.9421353481412,59.492623327134424L157.18284451387328,58.25861816603265L157.42355367960533,58.11758419279576L157.66426284533742,65.8450355557991L157.90497201106945,64.69109673202335L158.1456811768015,64.74206028624054L158.3863903425336,57.37615935490673L158.62709950826567,58.41294600315875L158.86780867399773,60.34075836975584L159.10851783972976,60.879754937325L159.34922700546184,59.78224766752494L159.58993617119393,60.238471967702814L159.83064533692598,58.06746273299723L160.07135450265807,69.61193722104343L160.31206366839012,63.72507969871537L160.55277283412218,61.31203007223625L160.79348199985424,61.91605878477701L161.03419116558632,61.437693015351215L161.27490033131838,63.65911563592048L161.51560949705046,61.34793697824782L161.75631866278252,60.76306310675015L161.99702782851458,63.35344658987312L162.23773699424663,61.663688701467926L162.47844615997872,59.1096163296775L162.71915532571077,65.69550204289656L162.95986449144286,60.03211392342923L163.2005736571749,58.82872731538985L163.44128282290697,64.05187970070826L163.68199198863903,62.52652109867631L163.9227011543711,61.7759118176611L164.16341032010317,65.27150188913934L164.40411948583525,62.831033668388706L164.64482865156728,59.61198740399782L164.88553781729937,67.72785762458868L165.12624698303142,60.72040821746371L165.3669561487635,64.52646165921288L165.60766531449556,62.99593821141315L165.84837448022765,64.14242169260238L166.08908364595968,69.9044808220853L166.32979281169176,67.80216403609107L166.57050197742382,58.486881893116944L166.8112111431559,69.59270378452129L167.05192030888796,64.7578355216834L167.29262947462004,66.22357383887434L167.53333864035207,62.28789399627973L167.77404780608416,62.89465109473696L168.0147569718162,67.57075648984379L168.2554661375483,68.82750942817492L168.49617530328035,65.13689028933544L168.73688446901244,68.91543531340842L168.97759363474447,69.19766045084035L169.21830280047655,64.0920195346643L169.4590119662086,67.54656031021436L169.6997211319407,65.37242971219695L169.94043029767275,66.58966035247903L170.18113946340483,68.93493822014456L170.42184862913686,61.97786851510652L170.66255779486895,64.39662192778137L170.903266960601,65.09340453355593L171.1439761263331,65.86620019552137L171.38468529206514,63.3864679190101L171.6253944577972,64.46076706663194L171.86610362352926,63.03983940043921L172.10681278926134,59.27614892191134L172.3475219549934,68.42495461227955L172.58823112072548,60.43835149891554L172.82894028645754,57.248598892368385L173.0696494521896,69.81674581158671L173.31035861792165,67.03664406990282L173.55106778365374,56.706155351645485L173.7917769493858,69.94966199462773L174.03248611511788,71.03433574548745L174.27319528084996,71.98246669334313L174.513904446582,68.76964069972473L174.75461361231405,67.96868540039935L174.99532277804613,67.57861603775126L175.23603194377822,60.014755550479265L175.47674110951027,62.59931174022512L175.71745027524236,64.12391807124307L175.95815944097438,61.23676928705936L176.19886860670644,67.52729318991545L176.43957777243853,67.70126989681025L176.6802869381706,65.375517391732L176.92099610390267,67.2267665337847L177.1617052696347,62.236335362006685L177.40241443536678,64.91961870139602L177.64312360109886,67.14209674697001L177.88383276683092,65.80321153300574L178.124541932563,64.4118469948707L178.36525109829506,62.657292747931145L178.60596026402712,68.60799225511909L178.84666942975917,64.38406910698056L179.08737859549126,64.35049760949005L179.32808776122332,60.93113392478876L179.5687969269554,61.52545048170098L179.80950609268746,70.93858399612321L180.0502152584195,65.92431593833437L180.29092442415157,59.12678382789255L180.53163358988365,59.981307560170166L180.7723427556157,62.41955265165556L181.0130519213478,66.65764544187873L181.25376108707985,61.25795638263281L181.4944702528119,60.69614467028077L181.73517941854396,70.25712750876822L181.97588858427605,59.37122699574064L182.2165977500081,64.65817645421662L182.4573069157402,71.91780506991576L182.69801608147222,70.52182585436645L182.9387252472043,64.88456511772868L183.17943441293636,66.1701289131035L183.42014357866844,69.25934667398845L183.6608527444005,59.57255492935346L183.90156191013259,58.22170074671868L184.1422710758646,63.84197363195071L184.3829802415967,59.92194551761755L184.62368940732875,67.7859621394761L184.86439857306084,62.395524890909826L185.1051077387929,61.485029949605384L185.34581690452498,67.87452801646776L185.586526070257,69.64813605312015L185.8272352359891,66.79925203932028L186.06794440172115,66.03824569921603L186.30865356745323,73.14033529107262L186.5493627331853,67.20035845281558L186.79007189891738,68.26282336687387L187.0307810646494,65.50278592820524L187.2714902303815,72.47137548489052L187.51219939611354,69.56353363385898L187.75290856184563,67.81983679095732L187.99361772757769,61.205117764843386L188.23432689330977,66.00800889562342L188.4750360590418,67.51759226221252L188.71574522477388,72.0264689336994L188.95645439050594,65.1953990095438L189.19716355623802,69.16041742168449L189.43787272197008,63.71353739121696L189.67858188770214,66.61369934115034L189.9192910534342,68.11122391566423L190.16000021916628,66.28338499845025L190.40070938489833,62.7018227007898L190.64141855063042,58.39648586425537L190.88212771636248,68.91698476713877L191.12283688209453,67.66354406685436L191.3635460478266,65.55945326861814L191.60425521355867,69.86874233495746L191.84496437929073,70.77850746109908L192.08567354502281,68.64812086114956L192.3263827107549,72.75314027737356L192.56709187648693,69.4521189283077L192.80780104221898,66.56659819333339L193.04851020795107,69.00916603616787L193.28921937368315,63.10588205871318L193.5299285394152,65.82567861209554L193.7706377051473,69.1051760278205L194.01134687087932,67.82029713590617L194.25205603661138,70.97852172741878L194.49276520234346,69.55206992183963L194.73347436807555,70.60008449567377L194.9741835338076,69.22301310680474L195.21489269953963,74.11927566672561L195.45560186527172,73.90399142161422L195.6963110310038,75.51799449611694L195.93702019673586,71.45522576385842L196.17772936246794,72.17857364156026L196.4184385282,73.71796715056983L196.65914769393206,75.89852012202022L196.8998568596641,64.83410682016269L197.1405660253962,72.88879607425662L197.38127519112825,69.64977533025517L197.62198435686034,65.53627883021666L197.8626935225924,77.84744098871165L198.10340268832445,74.80441491367152L198.3441118540565,74.34387909007013L198.5848210197886,74.6882620235246L198.82553018552065,71.75511242823099L199.06623935125273,73.84623497241985L199.3069485169848,70.65000385281184L199.54765768271685,75.15696054902418L199.7883668484489,70.15185447851036L200.029076014181,75.51512014716792L200.26978517991304,77.33551494972095L200.51049434564513,72.65741098386049L200.75120351137716,64.78112223934072L200.99191267710924,74.84412808645544L201.2326218428413,79.53171964943279L201.47333100857338,74.15478959534181L201.71404017430544,76.0616506528027L201.95474934003752,80.15878806526804L202.19545850576955,74.44387499530438L202.43616767150164,76.75353788302345L202.6768768372337,80.22366301928146L202.91758600296578,77.42823515917802L203.15829516869783,70.15143904526381L203.39900433442992,74.39584192966413L203.63971350016195,85.11898804741622L203.88042266589403,65.88363716395038L204.1211318316261,76.45801888170233L204.36184099735817,78.68218111611363L204.60255016309023,79.21665282967321L204.8432593288223,63.71931977289175L205.08396849455434,74.53423734038921L205.32467766028643,76.34887221711864L205.56538682601848,75.19763932340817L205.80609599175057,76.85136679862039L206.04680515748262,79.01932203756763L206.2875143232147,75.06001863954825L206.52822348894674,75.27803127057608L206.76893265467882,75.18517632601203L207.00964182041088,82.4587949369865L207.25035098614296,82.21632788404082L207.49106015187502,79.04724588849034L207.73176931760707,74.6585753882855L207.97247848333913,75.14526105056763L208.21318764907122,76.68606927820056L208.45389681480327,73.61652284293547L208.69460598053536,80.97976275590632L208.9353151462674,75.16629095518292L209.17602431199947,75.09167016176421L209.41673347773153,77.3799101674726L209.6574426434636,75.67037990211732L209.89815180919567,73.89444768486943L210.13886097492775,82.26157642413673L210.37957014065984,77.354186989964L210.62027930639186,78.57352848025555L210.86098847212392,74.0143507021608L211.101697637856,75.09050245750367L211.3424068035881,71.61699771564545L211.58311596932015,82.09432524466563L211.82382513505223,77.92117477600938L212.06453430078426,78.1639786667225L212.30524346651632,75.30834666964778L212.5459526322484,78.52413683561984L212.78666179798049,77.39802081143655L213.02737096371254,78.73445833762393L213.26808012944457,74.36017081008976L213.50878929517665,75.12578059968267L213.74949846090874,73.55663308788048L213.9902076266408,85.35819900194308L214.23091679237288,78.6994496656589L214.47162595810494,78.79753682354422L214.712335123837,78.17912513833276L214.95304428956905,78.88509218723351L215.19375345530113,75.71341654087354L215.4344626210332,79.80940870492954L215.67517178676528,74.74294202110947L215.91588095249733,75.63547228148255L216.1565901182294,76.80561300187327L216.39729928396144,88.63015686563963L216.63800844969353,70.69015491469344L216.8787176154256,76.71714817621184L217.11942678115767,79.51737036053886L217.36013594688973,80.50660674395063L217.60084511262178,84.30002315545714L217.84155427835384,73.6343977004622L218.08226344408592,79.9773784716379L218.32297260981798,78.15263846188458L218.56368177555007,81.82805498948589L218.8043909412821,82.13977588742199L219.04510010701418,77.6358619590424L219.28580927274623,82.99122878205293L219.52651843847832,82.3314478050342L219.76722760421038,80.62432031575348L220.00793676994246,77.4445605629744L220.2486459356745,81.47491427407736L220.48935510140657,81.88015256418687L220.73006426713863,83.21702797947195L220.97077343287071,78.82555049787157L221.21148259860277,83.61337375252043L221.45219176433486,82.71725055596107L221.69290093006688,84.02889682246314L221.93361009579897,78.57303445152994L222.17431926153102,80.94111623605271L222.4150284272631,80.7683970568231L222.65573759299517,73.51400065444523L222.89644675872725,80.35718551030392L223.13715592445928,88.67182369747486L223.37786509019136,85.91583392597856L223.61857425592342,83.4864195979635L223.8592834216555,79.75196663765146L224.09999258738756,77.47049707106908L224.34070175311965,78.84589549902635L224.58141091885167,80.30928717977064L224.82212008458376,82.47264458319201L225.06282925031581,79.42397647554687L225.3035384160479,85.57956878271995L225.54424758177996,78.90885047776526L225.784956747512,86.25437272416754L226.02566591324407,82.89540405117242L226.26637507897615,73.72950945806824L226.5070842447082,86.38832749032491L226.7477934104403,81.43365164756311L226.98850257617235,82.7173516072913L227.2292117419044,74.33634515200453L227.46992090763646,80.56426214181478L227.71063007336855,80.5454104547624L227.9513392391006,85.42234975475645L228.1920484048327,78.8973979936715L228.43275757056477,82.63835192289558L228.6734667362968,87.54302419907745L228.91417590202886,78.68645895576041L229.15488506776094,87.56486251433465L229.39559423349303,83.661075594356L229.63630339922508,84.60122910108561L229.87701256495717,73.61216640780962L230.1177217306892,78.43553727485141L230.35843089642125,81.74597885348066L230.59914006215334,84.2425530183651L230.83984922788542,78.65086643166511L231.08055839361748,79.59465217232052L231.3212675593495,80.20197066705684L231.5619767250816,84.02423161938378L231.80268589081368,79.54419387475451L232.04339505654573,82.00443447245524L232.28410422227782,81.78175102438527L232.52481338800987,80.06309245553172L232.76552255374193,83.77199065721888L233.006231719474,84.27899886480463L233.24694088520607,88.18770923015103L233.48765005093813,82.01495503872569L233.7283592166702,83.00448334820261L233.96906838240227,85.65349905871534L234.20977754813433,89.35118617670878L234.45048671386638,83.8511868303123L234.69119587959847,89.58709050715169L234.93190504533052,86.38950642251103L235.1726142110626,80.34218500172624L235.41332337679466,82.78766087728648L235.65403254252672,83.05614864776868L235.89474170825878,87.6119692761144L236.13545087399086,86.41442680334052L236.37616003972292,89.58784277816571L236.616869205455,78.57210253370663L236.85757837118703,83.40291190144656L237.09828753691912,86.34420174278722L237.33899670265117,85.43114683445005L237.57970586838326,87.37847333570885L237.8204150341153,91.55609251874677L238.0611241998474,94.76978867659777L238.30183336557943,88.0676658637899L238.5425425313115,87.4932788747859L238.78325169704357,90.86067971989321L239.02396086277565,82.94309466508243L239.2646700285077,90.52961310617911L239.5053791942398,88.33111229568574L239.74608835997182,86.6047233000689L239.9867975257039,83.89603116508724L240.22750669143596,85.89553383652611L240.46821585716805,90.58150857821961L240.7089250229001,91.21697548239028L240.9496341886322,87.66380860852699L241.19034335436422,87.04739549406916L241.4310525200963,84.45233557994123L241.67176168582836,89.58366037588635L241.91247085156044,80.61074575372471L242.1531800172925,86.44352397248655L242.39388918302458,90.26142287572483L242.6345983487566,90.78793399004672L242.8753075144887,85.0885042294608L243.11601668022075,92.70364826682908L243.35672584595284,83.97401472221777L243.5974350116849,84.47575141874273L243.83814417741695,90.03036900913338L244.078853343149,90.19429672263219L244.3195625088811,83.0447803731168L244.56027167461315,90.2524742190359L244.80098084034523,90.28469275149375L245.0416900060773,90.68709599039379L245.28239917180935,88.30376668293052L245.5231083375414,86.09406601666896L245.7638175032735,91.28723422672034L246.00452666900554,91.7065579494726L246.24523583473763,93.4305273271265L246.4859450004697,89.43928048082601L246.72665416620174,89.8282158229903L246.9673633319338,92.08854320570155L247.20807249766588,85.91908441043456L247.44878166339797,84.23673133895078L247.68949082913002,90.3975165617056L247.9301999948621,94.9139889248488L248.17090916059414,90.97919047441238L248.4116183263262,88.70891514963536L248.65232749205828,89.38035632737109L248.89303665779036,89.74105905065917L249.13374582352242,92.18203252806101L249.37445498925445,95.86187285834166L249.61516415498653,93.25244119946865L249.85587332071862,88.66065752548344L250.09658248645067,88.56642716003559L250.33729165218276,88.1222560379701L250.5780008179148,91.244899333313L250.81870998364687,85.15952647273042L251.05941914937893,90.39223382271922L251.300128315111,88.9233460724025L251.54083748084307,89.42946727386726L251.78154664657515,89.8155451089709L252.0222558123072,91.7308551804323L252.26296497803926,87.0552831117906L252.50367414377132,91.59736075922379L252.7443833095034,88.19440668776075L252.98509247523546,92.25529474248428L253.22580164096755,91.50226584350611L253.4665108066996,92.28174212119293L253.70721997243166,86.73516372551906L253.94792913816372,90.69515764096174L254.1886383038958,89.50667049016982L254.42934746962786,85.95683831020443L254.67005663535994,89.68687869576269L254.91076580109197,85.89283352042361L255.15147496682405,94.14269219094855L255.3921841325561,83.99603268428432L255.6328932982882,82.54580574628504L255.87360246402025,87.48802420561348L256.1143116297523,86.42148355456887L256.3550207954844,86.21245887796952L256.5957299612164,92.5622942977131L256.8364391269485,86.20699087821103L257.0771482926806,92.17841713602357L257.3178574584127,91.72348404728763L257.5585666241447,92.27265872939701L257.7992757898768,95.58624412718923L258.0399849556088,91.96774756832643L258.2806941213409,88.96140874012585L258.521403287073,91.8320805435178L258.76211245280507,85.83344340805702L259.0028216185371,79.79980882855683L259.2435307842692,88.46198499627081L259.4842399500012,84.2120523585213L259.7249491157333,92.70163846814988L259.9656582814654,86.84147533889328L260.20636744719747,87.20673659996767L260.4470766129295,85.04161079826712L260.6877857786616,93.971208083533L260.9284949443936,91.33797322242589L261.1692041101257,90.4775885129944L261.4099132758578,92.05371418054587L261.65062244158986,95.42091853695547L261.8913316073219,91.21472989727387L262.132040773054,92.39379120453958L262.372749938786,91.60873464783849L262.6134591045181,95.83100167695366L262.85416827025017,84.99613769965957L263.09487743598226,94.48668776097044L263.3355866017143,93.43104942566606L263.57629576744637,94.72991831285567L263.8170049331784,92.3418283649456L264.0577140989105,97.20740500425055L264.29842326464257,92.14353758520275L264.53913243037465,94.0195330752384L264.7798415961067,90.4207864374745" fill="none"></path></g></g></g></g></g></g><g transform="translate(41, 176)" clip-path="url(#clip_1)"><clipPath id="clip_1"><rect width="288" height="23"></rect></clipPath><g><g><line x1="0" y1="0" x2="0" y2="5" style="visibility: inherit;" fill="rgb(0, 0, 0)" stroke="rgb(204, 204, 204)" stroke-width="1px"></line><line x1="24.07091657320658" y1="0" x2="24.07091657320658" y2="5" style="visibility: inherit;" fill="rgb(0, 0, 0)" stroke="rgb(204, 204, 204)" stroke-width="1px"></line><line x1="48.14183314641316" y1="0" x2="48.14183314641316" y2="5" style="visibility: inherit;" fill="rgb(0, 0, 0)" stroke="rgb(204, 204, 204)" stroke-width="1px"></line><line x1="72.21274971961975" y1="0" x2="72.21274971961975" y2="5" style="visibility: inherit;" fill="rgb(0, 0, 0)" stroke="rgb(204, 204, 204)" stroke-width="1px"></line><line x1="96.28366629282633" y1="0" x2="96.28366629282633" y2="5" style="visibility: inherit;" fill="rgb(0, 0, 0)" stroke="rgb(204, 204, 204)" stroke-width="1px"></line><line x1="120.35458286603293" y1="0" x2="120.35458286603293" y2="5" style="visibility: inherit;" fill="rgb(0, 0, 0)" stroke="rgb(204, 204, 204)" stroke-width="1px"></line><line x1="144.4254994392395" y1="0" x2="144.4254994392395" y2="5" style="visibility: inherit;" fill="rgb(0, 0, 0)" stroke="rgb(204, 204, 204)" stroke-width="1px"></line><line x1="168.4964160124461" y1="0" x2="168.4964160124461" y2="5" style="visibility: inherit;" fill="rgb(0, 0, 0)" stroke="rgb(204, 204, 204)" stroke-width="1px"></line><line x1="192.56733258565265" y1="0" x2="192.56733258565265" y2="5" style="visibility: inherit;" fill="rgb(0, 0, 0)" stroke="rgb(204, 204, 204)" stroke-width="1px"></line><line x1="216.63824915885925" y1="0" x2="216.63824915885925" y2="5" style="visibility: inherit;" fill="rgb(0, 0, 0)" stroke="rgb(204, 204, 204)" stroke-width="1px"></line><line x1="240.70916573206586" y1="0" x2="240.70916573206586" y2="5" style="visibility: inherit;" fill="rgb(0, 0, 0)" stroke="rgb(204, 204, 204)" stroke-width="1px"></line><line x1="264.7800823052724" y1="0" x2="264.7800823052724" y2="5" style="visibility: inherit;" fill="rgb(0, 0, 0)" stroke="rgb(204, 204, 204)" stroke-width="1px"></line><line x1="288.850998878479" y1="0" x2="288.850998878479" y2="5" style="visibility: inherit;" fill="rgb(0, 0, 0)" stroke="rgb(204, 204, 204)" stroke-width="1px"></line></g><g transform="translate(0, 8)"><text style="text-anchor: middle; visibility: hidden; font-family: Roboto, sans-serif; font-size: 12px; font-weight: 200;" x="0" y="0" dx="0em" dy="0.95em" fill="rgb(33, 33, 33)" stroke="none" stroke-width="1px">-100k</text><text style="text-anchor: middle; visibility: inherit; font-family: Roboto, sans-serif; font-size: 12px; font-weight: 200;" x="24.07091657320658" y="0" dx="0em" dy="0.95em" fill="rgb(33, 33, 33)" stroke="none" stroke-width="1px">0</text><text style="text-anchor: middle; visibility: hidden; font-family: Roboto, sans-serif; font-size: 12px; font-weight: 200;" x="48.14183314641316" y="0" dx="0em" dy="0.95em" fill="rgb(33, 33, 33)" stroke="none" stroke-width="1px">100k</text><text style="text-anchor: middle; visibility: inherit; font-family: Roboto, sans-serif; font-size: 12px; font-weight: 200;" x="72.21274971961975" y="0" dx="0em" dy="0.95em" fill="rgb(33, 33, 33)" stroke="none" stroke-width="1px">200k</text><text style="text-anchor: middle; visibility: hidden; font-family: Roboto, sans-serif; font-size: 12px; font-weight: 200;" x="96.28366629282633" y="0" dx="0em" dy="0.95em" fill="rgb(33, 33, 33)" stroke="none" stroke-width="1px">300k</text><text style="text-anchor: middle; visibility: inherit; font-family: Roboto, sans-serif; font-size: 12px; font-weight: 200;" x="120.35458286603293" y="0" dx="0em" dy="0.95em" fill="rgb(33, 33, 33)" stroke="none" stroke-width="1px">400k</text><text style="text-anchor: middle; visibility: hidden; font-family: Roboto, sans-serif; font-size: 12px; font-weight: 200;" x="144.4254994392395" y="0" dx="0em" dy="0.95em" fill="rgb(33, 33, 33)" stroke="none" stroke-width="1px">500k</text><text style="text-anchor: middle; visibility: inherit; font-family: Roboto, sans-serif; font-size: 12px; font-weight: 200;" x="168.4964160124461" y="0" dx="0em" dy="0.95em" fill="rgb(33, 33, 33)" stroke="none" stroke-width="1px">600k</text><text style="text-anchor: middle; visibility: hidden; font-family: Roboto, sans-serif; font-size: 12px; font-weight: 200;" x="192.56733258565265" y="0" dx="0em" dy="0.95em" fill="rgb(33, 33, 33)" stroke="none" stroke-width="1px">700k</text><text style="text-anchor: middle; visibility: inherit; font-family: Roboto, sans-serif; font-size: 12px; font-weight: 200;" x="216.63824915885925" y="0" dx="0em" dy="0.95em" fill="rgb(33, 33, 33)" stroke="none" stroke-width="1px">800k</text><text style="text-anchor: middle; visibility: hidden; font-family: Roboto, sans-serif; font-size: 12px; font-weight: 200;" x="240.70916573206586" y="0" dx="0em" dy="0.95em" fill="rgb(33, 33, 33)" stroke="none" stroke-width="1px">900k</text><text style="text-anchor: middle; visibility: inherit; font-family: Roboto, sans-serif; font-size: 12px; font-weight: 200;" x="264.7800823052724" y="0" dx="0em" dy="0.95em" fill="rgb(33, 33, 33)" stroke="none" stroke-width="1px">1M</text><text style="text-anchor: middle; visibility: hidden; font-family: Roboto, sans-serif; font-size: 12px; font-weight: 200;" x="288.850998878479" y="0" dx="0em" dy="0.95em" fill="rgb(33, 33, 33)" stroke="none" stroke-width="1px">1.1M</text></g><line x1="0" y1="0" x2="288.850998878479" y2="0" fill="rgb(0, 0, 0)" stroke="rgb(204, 204, 204)" stroke-width="1px"></line></g></g></g></g></svg>