<svg viewBox="0 0 330 200" xmlns="http://www.w3.org/2000/svg"><g><g><g><g><g><line x1="61.91500186920166" y1="176.5999994277954" x2="56.91500186920166" y2="176.5999994277954" style="visibility: inherit;" fill="rgb(0, 0, 0)" stroke="rgb(204, 204, 204)" stroke-width="1px"></line><line x1="61.91500186920166" y1="158.93999948501587" x2="56.91500186920166" y2="158.93999948501587" style="visibility: inherit;" fill="rgb(0, 0, 0)" stroke="rgb(204, 204, 204)" stroke-width="1px"></line><line x1="61.91500186920166" y1="141.27999954223634" x2="56.91500186920166" y2="141.27999954223634" style="visibility: inherit;" fill="rgb(0, 0, 0)" stroke="rgb(204, 204, 204)" stroke-width="1px"></line><line x1="61.91500186920166" y1="123.61999959945678" x2="56.91500186920166" y2="123.61999959945678" style="visibility: inherit;" fill="rgb(0, 0, 0)" stroke="rgb(204, 204, 204)" stroke-width="1px"></line><line x1="61.91500186920166" y1="105.95999965667724" x2="56.91500186920166" y2="105.95999965667724" style="visibility: inherit;" fill="rgb(0, 0, 0)" stroke="rgb(204, 204, 204)" stroke-width="1px"></line><line x1="61.91500186920166" y1="88.29999971389769" x2="56.91500186920166" y2="88.29999971389769" style="visibility: inherit;" fill="rgb(0, 0, 0)" stroke="rgb(204, 204, 204)" stroke-width="1px"></line><line x1="61.91500186920166" y1="70.63999977111814" x2="56.91500186920166" y2="70.63999977111814" style="visibility: inherit;" fill="rgb(0, 0, 0)" stroke="rgb(204, 204, 204)" stroke-width="1px"></line><line x1="61.91500186920166" y1="52.979999828338634" x2="56.91500186920166" y2="52.979999828338634" style="visibility: inherit;" fill="rgb(0, 0, 0)" stroke="rgb(204, 204, 204)" stroke-width="1px"></line><line x1="61.91500186920166" y1="35.31999988555907" x2="56.91500186920166" y2="35.31999988555907" style="visibility: inherit;" fill="rgb(0, 0, 0)" stroke="rgb(204, 204, 204)" stroke-width="1px"></line><line x1="61.91500186920166" y1="17.659999942779535" x2="56.91500186920166" y2="17.659999942779535" style="visibility: inherit;" fill="rgb(0, 0, 0)" stroke="rgb(204, 204, 204)" stroke-width="1px"></line><line x1="61.91500186920166" y1="0" x2="56.91500186920166" y2="0" style="visibility: inherit;" fill="rgb(0, 0, 0)" stroke="rgb(204, 204, 204)" stroke-width="1px"></line></g><g transform="translate(51.91500186920166, 0)"><text style="text-anchor: end; visibility: hidden; font-family: Roboto, sans-serif; font-size: 12px; font-weight: 200;" x="0" y="176.5999994277954" dx="0em" dy="0.3em" fill="rgb(33, 33, 33)" stroke="none" stroke-width="1px">-0.01</text><text style="text-anchor: end; visibility: inherit; font-family: Roboto, sans-serif; font-size: 12px; font-weight: 200;" x="0" y="158.93999948501587" dx="0em" dy="0.3em" fill="rgb(33, 33, 33)" stroke="none" stroke-width="1px">0</text><text style="text-anchor: end; visibility: hidden; font-family: Roboto, sans-serif; font-size: 12px; font-weight: 200;" x="0" y="141.27999954223634" dx="0em" dy="0.3em" fill="rgb(33, 33, 33)" stroke="none" stroke-width="1px">0.01</text><text style="text-anchor: end; visibility: inherit; font-family: Roboto, sans-serif; font-size: 12px; font-weight: 200;" x="0" y="123.61999959945678" dx="0em" dy="0.3em" fill="rgb(33, 33, 33)" stroke="none" stroke-width="1px">0.02</text><text style="text-anchor: end; visibility: hidden; font-family: Roboto, sans-serif; font-size: 12px; font-weight: 200;" x="0" y="105.95999965667724" dx="0em" dy="0.3em" fill="rgb(33, 33, 33)" stroke="none" stroke-width="1px">0.03</text><text style="text-anchor: end; visibility: inherit; font-family: Roboto, sans-serif; font-size: 12px; font-weight: 200;" x="0" y="88.29999971389769" dx="0em" dy="0.3em" fill="rgb(33, 33, 33)" stroke="none" stroke-width="1px">0.04</text><text style="text-anchor: end; visibility: hidden; font-family: Roboto, sans-serif; font-size: 12px; font-weight: 200;" x="0" y="70.63999977111814" dx="0em" dy="0.3em" fill="rgb(33, 33, 33)" stroke="none" stroke-width="1px">0.05</text><text style="text-anchor: end; visibility: inherit; font-family: Roboto, sans-serif; font-size: 12px; font-weight: 200;" x="0" y="52.979999828338634" dx="0em" dy="0.3em" fill="rgb(33, 33, 33)" stroke="none" stroke-width="1px">0.06</text><text style="text-anchor: end; visibility: hidden; font-family: Roboto, sans-serif; font-size: 12px; font-weight: 200;" x="0" y="35.31999988555907" dx="0em" dy="0.3em" fill="rgb(33, 33, 33)" stroke="none" stroke-width="1px">0.07</text><text style="text-anchor: end; visibility: inherit; font-family: Roboto, sans-serif; font-size: 12px; font-weight: 200;" x="0" y="17.659999942779535" dx="0em" dy="0.3em" fill="rgb(33, 33, 33)" stroke="none" stroke-width="1px">0.08</text><text style="text-anchor: end; visibility: hidden; font-family: Roboto, sans-serif; font-size: 12px; font-weight: 200;" x="0" y="0" dx="0em" dy="0.3em" fill="rgb(33, 33, 33)" stroke="none" stroke-width="1px">0.09</text></g><line x1="61.91500186920166" y1="0" x2="61.91500186920166" y2="176.5999994277954" fill="rgb(0, 0, 0)" stroke="rgb(204, 204, 204)" stroke-width="1px"></line></g></g><g transform="translate(61, 0)" clip-path="url(#clip_0)"><clipPath id="clip_0"><rect width="268" height="176"></rect></clipPath><g><g><g><line x1="0" y1="0" x2="0" y2="176.5999994277954" fill="rgb(0, 0, 0)" stroke="rgb(66, 66, 66)" stroke-width="1px" opacity="0.25"></line><line x1="22.34041651089986" y1="0" x2="22.34041651089986" y2="176.5999994277954" fill="rgb(0, 0, 0)" stroke="rgb(66, 66, 66)" stroke-width="1px" opacity="0.25"></line><line x1="44.68083302179972" y1="0" x2="44.68083302179972" y2="176.5999994277954" fill="rgb(0, 0, 0)" stroke="rgb(66, 66, 66)" stroke-width="1px" opacity="0.25"></line><line x1="67.02124953269958" y1="0" x2="67.02124953269958" y2="176.5999994277954" fill="rgb(0, 0, 0)" stroke="rgb(66, 66, 66)" stroke-width="1px" opacity="0.25"></line><line x1="89.36166604359944" y1="0" x2="89.36166604359944" y2="176.5999994277954" fill="rgb(0, 0, 0)" stroke="rgb(66, 66, 66)" stroke-width="1px" opacity="0.25"></line><line x1="111.70208255449931" y1="0" x2="111.70208255449931" y2="176.5999994277954" fill="rgb(0, 0, 0)" stroke="rgb(66, 66, 66)" stroke-width="1px" opacity="0.25"></line><line x1="134.04249906539917" y1="0" x2="134.04249906539917" y2="176.5999994277954" fill="rgb(0, 0, 0)" stroke="rgb(66, 66, 66)" stroke-width="1px" opacity="0.25"></line><line x1="156.38291557629904" y1="0" x2="156.38291557629904" y2="176.5999994277954" fill="rgb(0, 0, 0)" stroke="rgb(66, 66, 66)" stroke-width="1px" opacity="0.25"></line><line x1="178.72333208719888" y1="0" x2="178.72333208719888" y2="176.5999994277954" fill="rgb(0, 0, 0)" stroke="rgb(66, 66, 66)" stroke-width="1px" opacity="0.25"></line><line x1="201.06374859809875" y1="0" x2="201.06374859809875" y2="176.5999994277954" fill="rgb(0, 0, 0)" stroke="rgb(66, 66, 66)" stroke-width="1px" opacity="0.25"></line><line x1="223.40416510899863" y1="0" x2="223.40416510899863" y2="176.5999994277954" fill="rgb(0, 0, 0)" stroke="rgb(66, 66, 66)" stroke-width="1px" opacity="0.25"></line><line x1="245.74458161989847" y1="0" x2="245.74458161989847" y2="176.5999994277954" fill="rgb(0, 0, 0)" stroke="rgb(66, 66, 66)" stroke-width="1px" opacity="0.25"></line><line x1="268.08499813079834" y1="0" x2="268.08499813079834" y2="176.5999994277954" fill="rgb(0, 0, 0)" stroke="rgb(66, 66, 66)" stroke-width="1px" opacity="0.25"></line></g><g><line x1="0" y1="176.5999994277954" x2="268.08499813079834" y2="176.5999994277954" fill="rgb(0, 0, 0)" stroke="rgb(66, 66, 66)" stroke-width="1px" opacity="0.25"></line><line x1="0" y1="158.93999948501587" x2="268.08499813079834" y2="158.93999948501587" fill="rgb(0, 0, 0)" stroke="rgb(66, 66, 66)" stroke-width="1px" opacity="0.25"></line><line x1="0" y1="141.27999954223634" x2="268.08499813079834" y2="141.27999954223634" fill="rgb(0, 0, 0)" stroke="rgb(66, 66, 66)" stroke-width="1px" opacity="0.25"></line><line x1="0" y1="123.61999959945678" x2="268.08499813079834" y2="123.61999959945678" fill="rgb(0, 0, 0)" stroke="rgb(66, 66, 66)" stroke-width="1px" opacity="0.25"></line><line x1="0" y1="105.95999965667724" x2="268.08499813079834" y2="105.95999965667724" fill="rgb(0, 0, 0)" stroke="rgb(66, 66, 66)" stroke-width="1px" opacity="0.25"></line><line x1="0" y1="88.29999971389769" x2="268.08499813079834" y2="88.29999971389769" fill="rgb(0, 0, 0)" stroke="rgb(66, 66, 66)" stroke-width="1px" opacity="0.25"></line><line x1="0" y1="70.63999977111814" x2="268.08499813079834" y2="70.63999977111814" fill="rgb(0, 0, 0)" stroke="rgb(66, 66, 66)" stroke-width="1px" opacity="0.25"></line><line x1="0" y1="52.979999828338634" x2="268.08499813079834" y2="52.979999828338634" fill="rgb(0, 0, 0)" stroke="rgb(66, 66, 66)" stroke-width="1px" opacity="0.25"></line><line x1="0" y1="35.31999988555907" x2="268.08499813079834" y2="35.31999988555907" fill="rgb(0, 0, 0)" stroke="rgb(66, 66, 66)" stroke-width="1px" opacity="0.25"></line><line x1="0" y1="17.659999942779535" x2="268.08499813079834" y2="17.659999942779535" fill="rgb(0, 0, 0)" stroke="rgb(66, 66, 66)" stroke-width="1px" opacity="0.25"></line><line x1="0" y1="0" x2="268.08499813079834" y2="0" fill="rgb(0, 0, 0)" stroke="rgb(66, 66, 66)" stroke-width="1px" opacity="0.25"></line></g></g></g><g><g><line x1="0" y1="158.93999948501587" x2="268.08499813079834" y2="158.93999948501587" fill="rgb(0, 0, 0)" stroke="rgb(153, 153, 153)" stroke-width="1.5px"></line></g></g><g><g><line x1="22.34041651089986" y1="0" x2="22.34041651089986" y2="176.5999994277954" fill="rgb(0, 0, 0)" stroke="rgb(153, 153, 153)" stroke-width="1.5px"></line></g></g><g><g><g><g><g><path style="fill: none;" stroke="rgb(0, 119, 187)" stroke-width="2px" d="M22.56359727184375,62.97183404814259L22.78700143695275,37.956428857579155L23.01040560206175,29.499218840453967L23.233809767170747,23.865822625763997L23.457213932279746,16.429847226116408L23.68061809738874,15.567448759278854L23.904022262497744,20.2582461612411L24.127426427606743,27.247793761075002L24.350830592715738,35.89900819115738L24.57423475782474,44.10488196021387L24.797638922933736,50.64286137356358L25.021043088042735,56.93922806987737L25.244447253151737,61.96840666781238L25.467851418260732,64.87660769423833L25.69125558336973,67.19616973040209L25.914659748478734,72.82691527056126L26.13806391358773,79.02135575096503L26.361468078696728,83.54087995564339L26.584872243805727,87.59365590855143L26.808276408914725,91.8869294375854L27.031680574023724,96.55044764114919L27.255084739132723,98.8823863515345L27.478488904241722,101.69176793780028L27.701893069350717,104.9667729936238L27.925297234459716,108.15844520768182L28.14870139956872,109.29560978299266L28.372105564677714,112.17460405621455L28.595509729786713,113.79032716592619L28.818913894895715,116.12859904684984L29.04231806000471,117.88828923624116L29.26572222511371,118.77771299776899L29.489126390222708,119.73062566110161L29.712530555331707,121.84212308577605L29.935934720440706,122.15726017850777L30.159338885549705,122.88934953472138L30.382743050658704,123.37006824298108L30.6061472157677,124.66473594664359L30.8295513808767,125.5888865788414L31.0529555459857,125.74477355851391L31.276359711094695,126.05619952183362L31.499763876203698,126.23524647037573L31.723168041312693,127.37829409169562L31.946572206421692,127.45827218967425L32.169976371530694,127.92888803247784L32.39338053663969,128.06240679144233L32.61678470174869,129.3577619324874L32.84018886685769,130.28021558869895L33.06359303196668,131.29326823017297L33.286997197075685,131.78487233838075L33.51040136218468,132.88968734144038L33.73380552729368,133.27149361062732L33.957209692402685,133.6163188170269L34.18061385751168,134.06137164258624L34.404018022620676,134.6694385915765L34.62742218772968,134.66367253938014L34.85082635283867,134.85866281786446L35.07423051794767,134.4010286067541L35.29763468305668,135.15050411477498L35.521038848165674,135.10021238082854L35.74444301327467,134.99841393736648L35.96784717838367,134.80207723544484L36.19125134349267,135.44970858424716L36.41465550860166,135.58461017409732L36.63805967371066,135.307028235661L36.86146383881967,135.53542197546142L37.08486800392866,135.86955707632768L37.30827216903766,135.92471020685505L37.53167633414666,136.47982329521045L37.755080499255655,136.71921466378842L37.97848466436465,137.50368928128094L38.20188882947366,137.8835405074942L38.425292994582655,138.45760584842796L38.64869715969165,138.9574266593338L38.87210132480065,138.67669497217574L39.09550548990965,138.78427642215618L39.31890965501864,138.34471082645607L39.542313820127646,138.74235103581296L39.76571798523665,137.71866991462568L39.98912215034564,137.2430084435718L40.21252631545464,138.10839844493424L40.43593048056364,138.86483790506577L40.65933464567264,138.56821192748717L40.88273881078164,138.3288407785385L41.10614297589064,138.8339865385668L41.32954714099964,139.3070065346496L41.55295130610863,139.55459066214638L41.776355471217634,139.57052445331L41.99975963632663,139.77576473154463L42.223163801435625,140.16152449582677L42.44656796654463,140.63903901364043L42.66997213165363,140.99856210134905L42.893376296762625,141.15832761239275L43.11678046187162,141.28529365047766L43.34018462698062,140.78686927299395L43.56358879208962,139.98462411198201L43.78699295719862,140.1363713829085L44.01039712230762,140.29999793213312L44.23380128741662,140.34640618061664L44.45720545252561,140.45595092576238L44.680609617634616,141.0153102523682L44.90401378274361,141.1915380489574L45.127417947852614,141.2750904336878L45.35082211296161,141.70376024767234L45.57422627807061,141.98568438454816L45.79763044317961,141.67587071986412L46.0210346082886,141.89296972157226L46.244438773397604,141.9014421688827L46.46784293850661,142.15428702367703L46.6912471036156,141.01214962873394L46.914651268724604,141.61713561557042L47.1380554338336,142.0202389335194L47.361459598942595,142.20947067230176L47.5848637640516,142.10580408472765L47.80826792916059,141.99176562313616L48.031672094269595,142.2271799894319L48.25507625937859,142.42861262954077L48.47848042448759,142.48134138782657L48.70188458959659,142.51683336220128L48.92528875470558,142.72490850933957L49.148692919814586,142.5404356463673L49.37209708492359,142.9226949406321L49.595501250032584,142.58146465596886L49.818905415141586,142.1855083276636L50.04230958025058,142.4766156999912L50.26571374535958,142.92390146838883L50.48911791046858,143.6439218003777L50.71252207557758,143.68344497493135L50.93592624068658,143.6704157342856L51.15933040579557,143.47205759094177L51.382734570904574,143.8748225629947L51.60613873601357,143.63653863370834L51.829542901122565,143.7496500129424L52.052947066231575,143.84903834383053L52.27635123134057,143.81770734385572L52.499755396449565,143.61659316630457L52.72315956155857,143.84922669065733L52.94656372666756,143.49955619935832L53.16996789177656,143.76350030479668L53.39337205688555,143.7626435168092L53.61677622199456,144.3231676354733L53.84018038710356,144.56465505580147L54.06358455221255,144.74491473094844L54.286988717321556,144.83445442508162L54.51039288243055,144.4776175205799L54.73379704753955,144.17364527473046L54.957201212648556,144.3463361356484L55.18060537775755,144.3861525907577L55.40400954286655,144.63384080426673L55.62741370797555,144.0461409689469L55.850817873084544,144.1534512956035L56.07422203819354,144.17419513218633L56.29762620330254,144.24547897085426L56.521030368411544,144.33655231386675L56.74443453352054,144.45648110579154L56.967838698629535,144.48609407247795L57.19124286373854,144.68071661956097L57.41464702884753,144.61773967727316L57.638051193956535,144.86900489672772L57.86145535906554,144.84227625513972L58.08485952417453,144.63349542623402L58.30826368928353,144.7502565821973L58.53166785439253,144.7193654629682L58.755072019501526,145.10633608171028L58.97847618461052,145.1245247173574L59.201880349719524,145.44546510124124L59.425284514828526,145.21840406653254L59.64868867993752,145.17531036234618L59.87209284504652,145.10974566779197L60.09549701015552,145.25563116059126L60.318901175264514,144.9063248324884L60.54230534037352,145.18861184522578L60.76570950548252,145.1744907626082L60.989113670591514,144.79210755694635L61.21251783570051,144.7461048822143L61.43592200080951,144.7998042085289L61.65932616591851,145.2829464877443L61.88273033102751,145.70227666482313L62.106134496136505,145.56712745915445L62.32953866124551,145.560150213163L62.5529428263545,145.78713499374373L62.7763469914635,145.8805362894016L62.9997511565725,145.9399928843456L63.2231553216815,145.73848094028793L63.4465594867905,146.15033736035608L63.6699636518995,145.99763808098592L63.893367817008496,145.97691830509646L64.1167719821175,146.01595953130595L64.3401761472265,146.03129057890087L64.56358031233549,145.8748191031225L64.78698447744449,145.9499796386015L65.01038864255348,146.15733774990684L65.23379280766248,146.04040238771248L65.45719697277148,146.32667568687424L65.68060113788049,145.86568281744132L65.90400530298949,145.9254862918827L66.12740946809848,145.88452429401187L66.35081363320748,145.58862124224498L66.57421779831648,145.47185778231443L66.79762196342548,145.5798075791415L67.02102612853447,145.80516529763977L67.24443029364348,146.0268173870962L67.46783445875246,145.95662612771412L67.69123862386147,145.92605815256624L67.91464278897047,145.9167445314125L68.13804695407947,145.7864953803602L68.36145111918847,145.67738674774054L68.58485528429748,146.02260989677634L68.80825944940646,145.99557324186543L69.03166361451547,146.0960250760376L69.25506777962447,145.6227532125441L69.47847194473346,145.5332673601515L69.70187610984246,145.5343134336359L69.92528027495146,145.8365110496547L70.14868444006045,146.02562919536743L70.37208860516945,145.86069702772883L70.59549277027845,146.15279172097934L70.81889693538744,146.3612273400961L71.04230110049646,146.21936681623825L71.26570526560546,146.0632332226527L71.48910943071445,145.7590617155664L71.71251359582345,145.61430547721284L71.93591776093244,145.48967691594947L72.15932192604144,145.51568823746425L72.38272609115045,145.39862735964005L72.60613025625943,145.77977402322475L72.82953442136844,145.99065144671823L73.05293858647744,146.32001611912847L73.27634275158643,146.02685894006018L73.49974691669543,146.01187839581627L73.72315108180445,146.20869785039008L73.94655524691343,146.25378035461148L74.16995941202244,146.66199074314136L74.39336357713144,146.61701531897208L74.61676774224043,146.5753615329625L74.84017190734943,146.8349090746702L75.06357607245843,146.48933646913014L75.28698023756742,146.91883080659423L75.51038440267642,146.9121212483232L75.73378856778542,147.1772535721526L75.95719273289441,147.36376880682508L76.18059689800342,147.10377063937779L76.40400106311243,146.80465304858882L76.62740522822142,146.66462562523242L76.85080939333042,147.0487361131388L77.07421355843941,147.1454448139953L77.29761772354841,147.11067588324124L77.52102188865742,147.12075202698944L77.7444260537664,147.09357474447L77.9678302188754,147.43940927032912L78.19123438398441,147.4122612311889L78.4146385490934,147.51673541818803L78.6380427142024,147.4576200593585L78.8614468793114,147.59555828163153L79.08485104442039,147.6135773182332L79.3082552095294,147.7166241363793L79.53165937463841,147.69932290822658L79.7550635397474,147.69563524889716L79.9784677048564,147.69517308281473L80.2018718699654,147.47765252799798L80.42527603507439,147.15528454066975L80.64868020018339,147.06499687394523L80.8720843652924,147.27649779062187L81.09548853040138,147.43394456348872L81.31889269551039,147.50646237392533L81.54229686061939,147.54960444537755L81.76570102572838,147.38985892657925L81.98910519083738,147.3819288955318L82.2125093559464,147.33681119239L82.43591352105538,147.37973443334238L82.65931768616439,147.3600806293136L82.88272185127337,147.27762242576972L83.10612601638238,147.31771666813523L83.32953018149138,147.28675323568436L83.55293434660037,147.20827265508356L83.77633851170937,147.05883404337797L83.99974267681837,146.99123396525366L84.22314684192736,147.21239460162295L84.44655100703636,147.24394932494863L84.66995517214536,147.4300885644907L84.89335933725437,147.61676739738644L85.11676350236337,147.5742706644809L85.34016766747237,147.64237837771975L85.56357183258136,147.77844606349282L85.78697599769036,147.6071812865906L86.01038016279936,147.93311449010068L86.23378432790835,148.22655800025817L86.45718849301736,147.91411886831065L86.68059265812636,147.81389770689492L86.90399682323535,148.11919953066865L87.12740098834435,148.17329442523894L87.35080515345335,148.2977339338276L87.57420931856234,148.0653062632991L87.79761348367136,148.04863645356468L88.02101764878036,148.08664714848325L88.24442181388935,148.20308749123683L88.46782597899835,147.0812610040526L88.69123014410734,147.17440564280056L88.91463430921634,147.43963468726457L89.13803847432534,147.52553912142375L89.36144263943433,147.53006415339493L89.58484680454333,147.54230084432214L89.80825096965233,147.5186146413203L90.03165513476132,147.36338881547252L90.25505929987033,147.24108247276206L90.47846346497934,147.33822255204677L90.70186763008833,147.44999503210732L90.92527179519733,147.5333403969906L91.14867596030633,147.67695138892094L91.37208012541532,147.74102685657653L91.59548429052433,147.883471911687L91.81888845563333,148.04991181936134L92.04229262074232,147.9155670258524L92.26569678585132,147.94550734903024L92.48910095096032,147.95579448749945L92.71250511606931,147.93122873245724L92.93590928117831,148.13505581623943L93.15931344628733,148.10146047634225L93.38271761139632,148.29848987359685L93.60612177650532,148.2499699934855L93.8295259416143,148.10361830319064L94.05293010672331,148.3502271686646L94.27633427183231,148.2534882777762L94.4997384369413,148.36417566404148L94.7231426020503,148.18648229121084L94.9465467671593,148.05124576043303L95.16995093226829,147.99843657920502L95.3933550973773,147.83631462665315L95.6167592624863,147.2879129172138L95.84016342759529,147.52916519427126L96.0635675927043,147.9980114899054L96.2869717578133,147.8595500739761L96.5103759229223,148.03503103779602L96.7337800880313,147.3635519219373L96.9571842531403,147.69869061916393L97.18058841824929,147.75772449970492L97.40399258335829,147.745006323482L97.62739674846729,147.77713633638945L97.85080091357628,148.01137039152673L98.07420507868528,148.18966038437L98.29760924379428,148.02120115461707L98.52101340890327,148.04395888036282L98.74441757401227,148.16522738503767L98.96782173912129,148.26170486017097L99.19122590423028,148.3981989054036L99.41463006933928,148.59086181669227L99.63803423444827,148.68980206698785L99.86143839955727,148.7612280509331L100.08484256466627,148.50692794751222L100.30824672977526,148.72295581812645L100.53165089488427,148.46564681174746L100.75505505999327,148.5815275357975L100.97845922510226,148.44387669339883L101.20186339021126,148.57889398101204L101.42526755532026,148.57286108900786L101.64867172042926,148.2867688251816L101.87207588553827,148.5234891826683L102.09548005064727,148.49582467818465L102.31888421575626,148.54519379854756L102.54228838086526,148.3619409765481L102.76569254597426,148.55709961380123L102.98909671108325,148.24836573376948L103.21250087619225,148.31127710597391L103.43590504130125,148.47761638738882L103.65930920641024,148.3910487002458L103.88271337151924,148.33838446846516L104.10611753662825,148.4157870699967L104.32952170173724,148.76593948544166L104.55292586684625,148.71267179671852L104.77633003195525,148.7846333083915L104.99973419706424,148.65858037583857L105.22313836217324,148.63999930596106L105.44654252728223,148.4386983641426L105.66994669239124,148.5342140106995L105.89335085750024,148.34968317784956L106.11675502260923,148.55459788603798L106.34015918771823,148.50544752824123L106.56356335282723,148.82654135058763L106.78696751793622,148.81445029984434L107.01037168304522,149.0411178367088L107.23377584815424,149.03482237459994L107.45718001326323,148.66318579178323L107.68058417837223,148.63078643638605L107.90398834348123,148.7086744968127L108.12739250859022,148.81381564357991L108.35079667369922,148.78149206704288L108.57420083880822,148.69061068791063L108.79760500391721,148.82284768220077L109.02100916902621,148.77449584161505L109.24441333413522,148.86037214009036L109.4678174992442,148.79835989509223L109.69122166435321,148.79390708335114L109.91462582946222,148.86016811240503L110.13802999457121,148.29427766899647L110.36143415968021,148.47614858946878L110.5848383247892,148.51106632225247L110.8082424898982,148.65687201684486L111.03164665500721,148.80888585387495L111.2550508201162,148.91165308722276L111.4784549852252,148.93033463285923L111.7018591503342,148.85765221494344L111.92526331544319,148.96399511626942L112.14866748055219,148.99741911564143L112.3720716456612,149.13219080547458L112.59547581077018,149.04331776269024L112.8188799758792,148.8836038578115L113.0422841409882,148.87299076462L113.26568830609719,149.08801237878131L113.48909247120619,149.2166588470613L113.7124966363152,149.39419117921162L113.93590080142418,149.29225028542228L114.15930496653318,149.19085029308948L114.38270913164219,149.27478721967137L114.60611329675118,149.4286279142642L114.82951746186018,149.34041700663835L115.05292162696918,149.28643540245488L115.27632579207817,149.21776886830853L115.49972995718717,149.20813719575548L115.72313412229619,149.15390022010578L115.94653828740518,149.2296110794937L116.16994245251418,149.40920060267368L116.39334661762317,149.25911268188727L116.61675078273217,149.24372158930316L116.84015494784117,149.35279596779915L117.06355911295016,149.13984584985613L117.28696327805916,149.22349531331164L117.51036744316816,149.4070271981311L117.73377160827715,149.46642027931065L117.95717577338615,149.52492440536093L118.18057993849516,149.5181131005979L118.40398410360416,149.66558939004523L118.62738826871316,149.48677325691756L118.85079243382216,149.464348566701L119.07419659893115,149.59581725228665L119.29760076404015,149.3675126137294L119.52100492914916,149.29590299930123L119.74440909425815,149.22706973275857L119.96781325936715,149.23908893322425L120.19121742447615,149.36981276685552L120.41462158958514,149.22189903273357L120.63802575469414,149.13693126709992L120.86142991980314,149.13671637935622L121.08483408491213,149.23062746808586L121.30823825002115,149.35427857604185L121.53164241513015,149.48594624464064L121.75504658023914,149.4440123747226L121.97845074534814,149.49731564059158L122.20185491045713,149.3754993514532L122.42525907556613,149.3157499464369L122.64866324067513,149.2498712144586L122.87206740578412,149.2667545037959L123.09547157089312,149.17828136303592L123.31887573600213,149.42027448044672L123.54227990111112,149.54822261582237L123.76568406622012,149.540920200811L123.98908823132913,149.48124738308914L124.21249239643812,149.4451211504246L124.43589656154712,149.5509131665573L124.65930072665613,149.35569084397713L124.88270489176512,149.15351357829377L125.10610905687412,149.0969712333558L125.32951322198312,149.02528819143907L125.55291738709211,149.08121645046896L125.77632155220111,149.17211668695867L125.99972571731011,149.3173584751114L126.2231298824191,149.29219566681L126.4465340475281,149.2007194639627L126.66993821263712,149.35336388297728L126.89334237774611,149.39309577517886L127.11674654285511,149.3780220239731L127.3401507079641,149.41876777062006L127.5635548730731,149.4388707788302L127.7869590381821,149.40908913787803L128.0103632032911,149.54094307027754L128.2337673684001,149.46981056302357L128.4571715335091,149.3921895279361L128.6805756986181,149.3078398614384L128.9039798637271,149.40793625966694L129.1273840288361,149.452342949456L129.35078819394508,149.46359081788026L129.57419235905408,149.5304133679584L129.79759652416308,149.59946035200318L130.02100068927209,149.67855667803858L130.2444048543811,149.77250044920385L130.4678090194901,149.60689507980845L130.69121318459906,149.5116126078383L130.9146173497081,149.60197346521852L131.1380215148171,149.4427222052647L131.36142567992607,149.50176419102388L131.58482984503507,149.4734957914202L131.80823401014408,149.51323421612133L132.03163817525308,149.42533225386487L132.25504234036208,149.49713286696684L132.47844650547108,149.4056810314641L132.70185067058006,149.4010357859725L132.92525483568906,149.23281167521895L133.14865900079806,149.43047235144783L133.37206316590706,149.38810857305705L133.59546733101607,149.45266266414635L133.81887149612507,149.58954431300134L134.04227566123407,149.64309525398215L134.26567982634307,149.45452171718532L134.48908399145208,149.5628067544381L134.71248815656108,149.59418878517252L134.93589232167005,149.5563159444815L135.15929648677906,149.57311953245576L135.38270065188806,149.56849816178243L135.60610481699706,149.34006185417422L135.82950898210606,149.46784203277366L136.05291314721504,149.43290889591327L136.27631731232404,149.4980824043298L136.49972147743304,149.58706284187932L136.72312564254204,149.50253324325723L136.94652980765105,149.54605040282365L137.16993397276005,149.68009278681978L137.39333813786902,149.76828697210513L137.61674230297803,149.4779719676251L137.84014646808703,149.6738333652665L138.06355063319603,149.62466197655834L138.28695479830503,149.52031205151164L138.51035896341403,149.6107066815265L138.733763128523,149.82981523198086L138.957167293632,149.98960144959312L139.180571458741,150.01681379179325L139.40397562385004,150.1223297910173L139.62737978895905,149.88363638951913L139.85078395406805,149.7413047263629L140.07418811917702,149.94010444828186L140.29759228428603,149.98746655216104L140.52099644939503,149.8097060518831L140.74440061450403,149.78813738095596L140.96780477961303,149.72150890241556L141.19120894472204,149.84664099274997L141.414613109831,149.4952158022045L141.63801727494,149.36879964407322L141.861421440049,149.57090031252318L142.08482560515802,149.6804867813089L142.30822977026702,149.81073978294256L142.531633935376,149.89023888395778L142.755038100485,150.01664804669315L142.978442265594,150.1477404515173L143.201846430703,149.95405736493336L143.425250595812,150.0248856197162L143.648654760921,149.81128081589074L143.87205892602998,149.5688898344894L144.09546309113898,149.69091853988147L144.31886725624798,149.77877189316612L144.542271421357,149.81817569713655L144.765675586466,149.55787026164066L144.98907975157502,149.6495437614254L145.212483916684,149.75839674205918L145.435888081793,149.75656382424987L145.659292246902,149.94487547367135L145.882696412011,149.83631283528987L146.10610057712,149.93456938683204L146.329504742229,149.99341567199548L146.55290890733798,149.98811146679753L146.77631307244698,149.86177444469922L146.99971723755598,149.81606694301414L147.223121402665,149.79529531063443L147.446525567774,149.84421104237455L147.66992973288296,149.7337935799893L147.89333389799197,149.66175923570074L148.11673806310097,149.84797352138924L148.34014222820997,149.92768679579453L148.56354639331897,149.69093908144927L148.78695055842798,149.54024929306507L149.01035472353695,149.43284679959942L149.23375888864595,149.44975621082622L149.45716305375495,149.61787220954227L149.68056721886396,149.3934355847589L149.90397138397296,149.62650301072387L150.12737554908196,149.76251598923295L150.35077971419094,149.73286269465038L150.57418387929997,149.6679450302838L150.79758804440897,149.89955823410742L151.02099220951797,149.94933261471337L151.24439637462697,149.90371062083034L151.46780053973598,149.89714915336407L151.69120470484495,150.03604236654513L151.91460886995395,149.8843641042332L152.13801303506295,149.6551544624437L152.36141720017196,149.87864894364753L152.58482136528096,149.84784508967618L152.80822553038993,150.0200104917345L153.03162969549894,150.1029500979496L153.25503386060794,150.1354115943598L153.47843802571694,150.00724609880442L153.70184219082594,149.8658219334718L153.92524635593495,149.95859179161056L154.14865052104392,149.82637333000602L154.37205468615292,149.87678700985245L154.59545885126192,150.1229332308701L154.81886301637093,150.11656236510063L155.04226718147993,150.0273414268905L155.26567134658893,150.0630989874352L155.4890755116979,150.24095163360877L155.7124796768069,150.28455262004834L155.9358838419159,150.30722731639017L156.15928800702494,150.21043483645676L156.38269217213394,150.26408929593083L156.60609633724295,150.30341093621152L156.82950050235192,150.3435571168039L157.05290466746092,150.15239371299995L157.27630883256992,150.1939438735881L157.49971299767893,150.0443240214048L157.72311716278793,150.10914188190955L157.94652132789693,150.16606814447013L158.1699254930059,150.01884995924166L158.3933296581149,150.0057620563244L158.6167338232239,150.05205004910908L158.8401379883329,150.21687402787305L159.06354215344192,150.13799826025715L159.2869463185509,150.19781201721943L159.5103504836599,149.89720583259256L159.7337546487689,149.92955388450306L159.9571588138779,150.09591324718005L160.1805629789869,150.0848071995105L160.4039671440959,150.21087670895784L160.62737130920488,150.29232631642637L160.85077547431388,150.31391057672383L161.07417963942288,150.28383435123249L161.29758380453188,150.08688859067223L161.52098796964088,149.9259170590962L161.74439213474992,150.10888203632166L161.9677962998589,150.02803737183172L162.1912004649679,149.9479128260318L162.4146046300769,150.09476178858336L162.6380087951859,150.22673287726067L162.8614129602949,150.07069058444182L163.0848171254039,150.19013090705346L163.30822129051288,150.29318586457558L163.53162545562188,150.13135912762942L163.75502962073088,150.2551244112276L163.97843378583988,150.28458375091412L164.20183795094889,150.19226537951596L164.42524211605786,150.15441087668137L164.64864628116686,150.30077927580336L164.87205044627586,150.2508721983832L165.09545461138487,150.2800836395199L165.31885877649387,150.31285480950788L165.54226294160287,150.31802514153662L165.76566710671185,150.3207084653443L165.98907127182085,150.18734371161293L166.21247543692985,150.3770479271635L166.43587960203885,150.42125314526515L166.65928376714785,150.33893248660866L166.88268793225686,150.22064522041327L167.10609209736583,150.37126076892184L167.32949626247486,150.25275217374406L167.55290042758386,150.27763832856235L167.77630459269287,150.12610603918583L167.99970875780187,150.28190180467163L168.22311292291087,150.3645419184179L168.44651708801985,150.4778101455588L168.66992125312885,150.41221391000852L168.89332541823785,150.3893549611995L169.11672958334685,150.57535003982483L169.34013374845586,150.63386469958033L169.56353791356483,150.55483298220832L169.78694207867383,150.5305868760722L170.01034624378283,150.4882814046013L170.23375040889184,150.6080787988245L170.45715457400084,150.4601613006559L170.68055873910984,150.3896097459888L170.90396290421882,150.28823141648164L171.12736706932782,150.17005357243568L171.35077123443682,150.1963687868477L171.57417539954582,150.04370641915895L171.79757956465482,150.05107946253108L172.02098372976383,149.99201968770856L172.2443878948728,150.02879907522112L172.4677920599818,150.0321168358949L172.6911962250908,150.18080748614372L172.91460039019984,150.32562957451003L173.13800455530884,150.37237530627988L173.36140872041784,150.53504626525333L173.58481288552682,150.4541538421732L173.80821705063582,150.5711967735688L174.03162121574482,150.67682142480032L174.25502538085382,150.7225486187827L174.47842954596283,150.62965227165193L174.70183371107183,150.56447701700833L174.9252378761808,150.45274037682952L175.1486420412898,150.59034287832594L175.3720462063988,150.65434340059235L175.5954503715078,150.63652316120152L175.8188545366168,150.57012339777316L176.04225870172579,150.5209556742934L176.2656628668348,150.46339492102103L176.4890670319438,150.44296457401734L176.7124711970528,150.58887133194403L176.9358753621618,150.5983418695146L177.1592795272708,150.43654071108034L177.38268369237977,150.57637625079863L177.60608785748877,150.6218983330348L177.82949202259778,150.67129247644942L178.05289618770678,150.7087982775859L178.27630035281578,150.63636427059572L178.4997045179248,150.65613053789295L178.7231086830338,150.61056901316525L178.9465128481428,150.47168657304536L179.1699170132518,150.52394003036335L179.3933211783608,150.52549643951073L179.6167253434698,150.53279576517835L179.8401295085788,150.6240747504215L180.06353367368777,150.68387195762452L180.28693783879677,150.59489668263495L180.51034200390578,150.57281895530093L180.73374616901478,150.64095714875887L180.95715033412378,150.63104715155472L181.18055449923276,150.38906312191452L181.40395866434176,150.4083512817912L181.62736282945076,150.47185273668737L181.85076699455976,150.45202240888148L182.07417115966877,150.51088498035654L182.29757532477777,150.46771994984246L182.52097948988674,150.4539305859386L182.74438365499574,150.41441656687692L182.96778782010475,150.35480571220717L183.19119198521375,150.47139978125765L183.41459615032275,150.51079184882727L183.63800031543175,150.5015262583016L183.86140448054073,150.58299586494107L184.08480864564976,150.57192401243225L184.30821281075876,150.56895658615198L184.53161697586776,150.41019732353305L184.75502114097677,150.4107746190851L184.97842530608577,150.2342421888079L185.20182947119474,150.29905487411352L185.42523363630374,150.42605948214978L185.64863780141275,150.43374266756155L185.87204196652175,150.60202857522722L186.09544613163075,150.74552988446695L186.31885029673973,150.8714753607091L186.54225446184873,150.83375605788873L186.76565862695773,150.75514653541956L186.98906279206673,150.77572313864385L187.21246695717574,150.7140753942173L187.43587112228474,150.64946035619528L187.6592752873937,150.53989061717994L187.8826794525027,150.4669550311376L188.10608361761172,150.55162149687183L188.32948778272072,150.60207133940256L188.55289194782972,150.70071681150887L188.77629611293872,150.66496443563602L188.9997002780477,150.71629226218096L189.2231044431567,150.6671203236116L189.4465086082657,150.67549663198085L189.66991277337473,150.86765367853008L189.89331693848374,150.66503999023683L190.11672110359274,150.5827922548017L190.3401252687017,150.6855246263786L190.56352943381071,150.82257560656078L190.78693359891972,150.62766998371058L191.01033776402872,150.8007794060233L191.23374192913772,150.8436158730373L191.45714609424672,150.8355954596752L191.6805502593557,150.65857129318007L191.9039544244647,150.74662729169663L192.1273585895737,150.70026356187645L192.3507627546827,150.77669759630723L192.5741669197917,150.871306892927L192.79757108490068,150.62733199946885L193.02097525000968,150.7455023256908L193.2443794151187,150.8348503311144L193.4677835802277,150.36889355128534L193.6911877453367,150.5576603696889L193.9145919104457,150.70783765096948L194.13799607555467,150.73813869217494L194.36140024066367,150.7722251220318L194.58480440577267,150.7222113795881L194.80820857088167,150.57953723404592L195.03161273599068,150.6629948795356L195.2550169010997,150.70204276735666L195.47842106620868,150.74823581923673L195.70182523131768,150.7587991532373L195.9252293964267,150.84809861479255L196.1486335615357,150.82149520321408L196.3720377266447,150.79284513461747L196.5954418917537,150.71573630389952L196.81884605686267,150.63146581304946L197.04225022197167,150.6461580669209L197.26565438708067,150.4843899270036L197.48905855218968,150.52785641239095L197.71246271729868,150.84365706715283L197.93586688240765,150.79071402627028L198.15927104751665,150.89779533360309L198.38267521262566,150.94898467213204L198.60607937773466,150.9214980440385L198.82948354284366,150.9365784944422L199.05288770795266,150.91848090766467L199.27629187306164,150.85673847980826L199.49969603817064,150.98673811544887L199.72310020327964,150.89955459523125L199.94650436838864,151.00292495754726L200.16990853349765,150.63931202786907L200.39331269860665,150.81043876058212L200.61671686371562,150.6113806574525L200.84012102882465,150.6994824698583L201.06352519393366,150.59386569415653L201.28692935904266,150.63655566862087L201.51033352415166,150.69213122098358L201.73373768926066,150.74090920595663L201.95714185436964,150.75767645290537L202.18054601947864,150.4564505523973L202.40395018458764,150.7213401265991L202.62735434969665,150.89337910865174L202.85075851480565,150.9755559097517L203.07416267991462,150.9309109432415L203.29756684502362,150.9631623513277L203.52097101013263,151.0809020964419L203.74437517524163,150.8801498289835L203.96777934035063,150.72836977641003L204.19118350545963,150.78109020224352L204.4145876705686,150.85507353461537L204.6379918356776,150.8451017161365L204.8613960007866,150.9630982969533L205.08480016589562,150.97413462855064L205.30820433100462,150.77606372670928L205.53160849611362,151.00280878802513L205.7550126612226,150.86080669917044L205.9784168263316,150.7876311522155L206.2018209914406,150.9574861286365L206.42522515654963,151.04514244137596L206.64862932165863,151.00590607097752L206.87203348676763,151.02907663388112L207.0954376518766,151.08105031807264L207.3188418169856,150.95972642907958L207.5422459820946,151.00306534536432L207.76565014720362,151.0743427503973L207.98905431231262,151.1812799855612L208.21245847742162,151.2218686750702L208.4358626425306,151.27470367363952L208.6592668076396,151.39072121616874L208.8826709727486,151.32953838468094L209.1060751378576,151.4066248714398L209.3294793029666,151.22494012239267L209.55288346807558,151.14498769809802L209.77628763318458,150.87530472372916L209.99969179829358,150.88548750708463L210.22309596340259,150.96402147863077L210.4465001285116,151.0206747222178L210.6699042936206,150.84634208659895L210.89330845872956,150.8772948360798L211.11671262383857,150.91779548430043L211.34011678894757,150.96578774287582L211.56352095405657,150.78428372368762L211.78692511916557,150.8169331521596L212.0103292842746,150.94359301202016L212.23373344938358,150.89698974575685L212.45713761449258,150.86226269194094L212.68054177960158,151.00952287364538L212.90394594471059,151.10507505562143L213.1273501098196,151.05852858241406L213.3507542749286,151.1409901913135L213.57415844003756,151.11594469657484L213.79756260514657,150.90615153394702L214.02096677025557,150.80842087078332L214.24437093536457,150.85041653599177L214.46777510047357,150.96712170183216L214.69117926558255,150.70713594415813L214.91458343069155,150.83435733039207L215.13798759580055,150.89926846677113L215.36139176090956,150.84442144830416L215.58479592601856,150.57720197288702L215.80820009112756,150.64948043900986L216.03160425623653,150.73452654553628L216.25500842134554,150.74792926591564L216.47841258645454,150.8759320042474L216.70181675156354,150.94265916091518L216.92522091667254,150.98612654024222L217.14862508178155,151.01167983876272L217.37202924689052,150.90257529720463L217.59543341199955,151.00810497038034L217.81883757710855,150.86378922041962L218.04224174221756,150.7811676121269L218.26564590732656,150.76349782684292L218.48905007243556,150.74521007840002L218.71245423754453,150.6895233360038L218.93585840265354,150.8384604306292L219.15926256776254,150.819782440486L219.38266673287154,150.9064102864016L219.60607089798054,150.8506661471672L219.82947506308952,150.83509315939835L220.05287922819852,150.94475211102872L220.27628339330752,150.97697620420726L220.49968755841653,151.06129913271914L220.72309172352553,151.20198909824063L220.94649588863453,151.18837657698424L221.1699000537435,151.0451158962287L221.3933042188525,151.00266398817993L221.6167083839615,151.13923184460933L221.8401125490705,151.24411825837075L222.0635167141795,151.02434856989535L222.28692087928852,150.92153780000885L222.5103250443975,150.87148745366056L222.7337292095065,150.7587037054783L222.9571333746155,150.812075680032L223.18053753972453,150.8947393568333L223.40394170483353,150.9294785972738L223.62734586994253,151.14647133598424L223.8507500350515,151.21634893498427L224.0741542001605,151.18296729555976L224.2975583652695,151.1332481356559L224.5209625303785,151.0037274174221L224.7443666954875,151.12513014898175L224.96777086059652,150.9424421218385L225.1911750257055,151.0199611881272L225.4145791908145,151.08373464220028L225.6379833559235,151.04195854784018L225.8613875210325,151.00473591210067L226.0847916861415,151.12868230410666L226.30819585125047,151.00872677891977L226.53160001635948,151.02405714262022L226.75500418146848,151.2019627215032L226.97840834657748,151.0037729842283L227.20181251168648,151.13114267678256L227.4252166767955,151.20388091157994L227.64862084190446,151.18538728958936L227.87202500701346,151.1567461887295L228.09542917212246,151.14192711828312L228.31883333723147,151.1325267645223L228.54223750234047,151.1497765572612L228.7656416674495,151.14847740826562L228.98904583255847,151.22324550097846L229.21244999766748,151.10130524341946L229.43585416277648,151.3057844274145L229.65925832788548,151.2454314314911L229.88266249299448,151.09914799417913L230.1060666581035,151.12761591670045L230.32947082321246,151.20452623518543L230.55287498832146,151.20802744119365L230.77627915343047,151.19298587261864L230.99968331853947,151.19269013107652L231.22308748364847,151.264770698647L231.44649164875744,151.211539705816L231.66989581386645,151.35660693575616L231.89329997897545,151.1573853390381L232.11670414408445,151.06601031093L232.34010830919345,151.08938042767917L232.56351247430246,151.1444959533845L232.78691663941143,151.1356540227431L233.01032080452043,151.0365171901376L233.23372496962944,151.06552475019822L233.45712913473844,151.08586570356448L233.68053329984744,151.0416708239077L233.90393746495644,151.12482046643515L234.12734163006542,151.23994695581445L234.35074579517445,151.32392621243852L234.57414996028345,151.286668364049L234.79755412539245,151.3049708407924L235.02095829050145,150.97148786455404L235.24436245561046,150.94146011221517L235.46776662071943,150.9512279357221L235.69117078582843,151.14549999069084L235.91457495093744,151.06112187407365L236.13797911604644,151.00027176221573L236.36138328115544,151.06650203501795L236.58478744626441,151.24089340688258L236.80819161137342,151.21483807735544L237.03159577648242,151.09758206190412L237.25499994159142,151.17862253077865L237.47840410670042,151.1928544061962L237.70180827180943,151.22254131558137L237.9252124369184,151.1659535553054L238.1486166020274,150.99319535071834L238.3720207671364,151.02863655081117L238.5954249322454,150.9496677021872L238.8188290973544,150.9856441424665L239.0422332624634,151.16550114518637L239.2656374275724,151.18983631324966L239.4890415926814,151.11831022478788L239.7124457577904,151.20430856227173L239.93584992289942,151.16117265401653L240.15925408800842,151.33189483707838L240.38265825311743,151.35452010364054L240.6060624182264,151.39860090336467L240.8294665833354,151.4831147444386L241.0528707484444,151.4717398279011L241.2762749135534,151.3208096487939L241.4996790786624,151.4445839026506L241.7230832437714,151.32201635670316L241.9464874088804,151.1385984521566L242.1698915739894,150.9327153836585L242.3932957390984,150.97928992508668L242.6166999042074,151.1192136966458L242.8401040693164,151.06194683371746L243.06350823442537,151.0282856539825L243.28691239953437,151.15170181352255L243.51031656464338,151.15052599488564L243.73372072975238,151.226526783334L243.95712489486138,151.37395261432206L244.18052905997038,151.62066094649919L244.40393322507936,151.7029989126605L244.62733739018836,151.74488900230259L244.85074155529736,151.68128423258258L245.07414572040636,151.74125458133088L245.29754988551537,151.89319958720876L245.5209540506244,152.02629689065054L245.74435821573337,152.1174480393339" fill="none"></path></g></g></g></g><g opacity="0.2"><g><g><g><path style="fill: none;" stroke="rgb(0, 119, 187)" stroke-width="2px" d="M22.56359727184375,62.97183404814259L22.78700143695275,17.94410470512844L23.01040560206175,17.32083641579372L23.233809767170747,12.86943321468925L23.457213932279746,-1.1309522776914562L23.68061809738874,13.248217810381957L23.904022262497744,34.10277819253018L24.127426427606743,49.34272666917579L24.350830592715738,64.69813418525462L24.57423475782474,72.52288210228956L24.797638922933736,73.98673825073662L25.021043088042735,79.96127973158917L25.244447253151737,80.70271097290453L25.467851418260732,75.86989163104904L25.69125558336973,76.06635620623959L25.914659748478734,94.55744044630792L26.13806391358773,103.10168567659724L26.361468078696728,101.21189422387525L26.584872243805727,103.51272643584214L26.808276408914725,108.81253318488214L27.031680574023724,114.98945363844379L27.255084739132723,108.12410783990374L27.478488904241722,112.84637597385975L27.701893069350717,117.9894643463836L27.925297234459716,120.86484508036197L28.14870139956872,113.82708373903299L28.372105564677714,123.65577624398797L28.595509729786713,120.23759328969525L28.818913894895715,125.4635950681437L29.04231806000471,124.91615803909542L29.26572222511371,122.33100383073507L29.489126390222708,123.53850143846452L29.712530555331707,130.28142118202948L29.935934720440706,123.41700958198513L30.159338885549705,125.81622210595684L30.382743050658704,125.2921630653203L30.6061472157677,129.84172618653093L30.8295513808767,129.28452941474765L31.0529555459857,126.36819197136805L31.276359711094695,127.3016963970579L31.499763876203698,126.95133906685756L31.723168041312693,131.94999837828755L31.946572206421692,127.77815736645232L32.169976371530694,129.81122328987382L32.39338053663969,128.5964527494895L32.61678470174869,134.53895681397282L32.84018886685769,133.96990164227054L33.06359303196668,135.34536583692474L33.286997197075685,133.75124491866015L33.51040136218468,137.30886851144558L33.73380552729368,134.79869689009035L33.957209692402685,134.99560389379383L34.18061385751168,135.84156668368777L34.404018022620676,137.10168861372074L34.62742218772968,134.64060846542822L34.85082635283867,135.6386202840755L35.07423051794767,132.57049861116406L35.29763468305668,138.14839717367195L35.521038848165674,134.8990459267419L35.74444301327467,134.59122094354646L35.96784717838367,134.01673163129877L36.19125134349267,138.0402308034816L36.41465550860166,136.12421600425355L36.63805967371066,134.19670135312074L36.86146383881967,136.44899636120283L37.08486800392866,137.20609680862472L37.30827216903766,136.14532264033684L37.53167633414666,138.70027493500615L37.755080499255655,137.67677989190048L37.97848466436465,140.6415871058228L38.20188882947366,139.40294516232828L38.425292994582655,140.75386690988245L38.64869715969165,140.95670969240808L38.87210132480065,137.55376831814993L39.09550548990965,139.21460219307392L39.31890965501864,136.58644853846084L39.542313820127646,140.33291180463038L39.76571798523665,133.62394557118023L39.98912215034564,135.34036261188263L40.21252631545464,141.56995837393328L40.43593048056364,141.89059569213137L40.65933464567264,137.38170803394385L40.88273881078164,137.37135619357073L41.10614297589064,140.85456956040122L41.32954714099964,141.19908650528777L41.55295130610863,140.54492716639984L41.776355471217634,139.63425961766913L41.99975963632663,140.5967258414413L42.223163801435625,141.70456354838134L42.44656796654463,142.5490970803655L42.66997213165363,142.43665444945538L42.893376296762625,141.79738965559747L43.11678046187162,141.79315780220057L43.34018462698062,138.7931717649957L43.56358879208962,136.7756434704278L43.78699295719862,140.74336046623716L44.01039712230762,140.95450412870608L44.23380128741662,140.5320391744768L44.45720545252561,140.89412990620588L44.680609617634616,143.25274755822187L44.90401378274361,141.89644923517045L45.127417947852614,141.60929997255496L45.35082211296161,143.41843950338685L45.57422627807061,143.11338093193393L45.79763044317961,140.43661606123126L46.0210346082886,142.76136572834685L46.244438773397604,141.9353319581226L46.46784293850661,143.16566644281116L46.6912471036156,136.44360004911763L46.914651268724604,144.03707956285027L47.1380554338336,143.63265220528L47.361459598942595,142.96639762741785L47.5848637640516,141.691137734437L47.80826792916059,141.5356117767754L48.031672094269595,143.16883745460643L48.25507625937859,143.23434318997033L48.47848042448759,142.69225642096873L48.70188458959659,142.65880125969935L48.92528875470558,143.55720909788968L49.148692919814586,141.80254419448042L49.37209708492359,144.4517321176877L49.595501250032584,141.2165435173183L49.818905415141586,140.6016830144449L50.04230958025058,143.64104518930034L50.26571374535958,144.71304454197758L50.48911791046858,146.524003128331L50.71252207557758,143.84153767314578L50.93592624068658,143.61829877170263L51.15933040579557,142.6786250175667L51.382734570904574,145.48588245120598L51.60613873601357,142.68340291656318L51.829542901122565,144.2020955298784L52.052947066231575,144.24659166738303L52.27635123134057,143.6923833439566L52.499755396449565,142.8121364560999L52.72315956155857,144.7797607880683L52.94656372666756,142.10087423416238L53.16996789177656,144.8192767265501L53.39337205688555,143.7592163648593L53.61677622199456,146.5652641101296L53.84018038710356,145.5306047371141L54.06358455221255,145.4659534315363L54.286988717321556,145.19261320161428L54.51039288243055,143.0502699025731L54.73379704753955,142.95775629133263L54.957201212648556,145.03709957932014L55.18060537775755,144.54541841119476L55.40400954286655,145.62459365830284L55.62741370797555,141.69534162766766L55.850817873084544,144.58269260223L56.07422203819354,144.25717047851742L56.29762620330254,144.5306143255261L56.521030368411544,144.70084568591668L56.74443453352054,144.93619627349068L56.967838698629535,144.60454593922358L57.19124286373854,145.45920680789305L57.41464702884753,144.36583190812192L57.638051193956535,145.874065774546L57.86145535906554,144.7353616887877L58.08485952417453,143.79837211061124L58.30826368928353,145.21730120605037L58.53166785439253,144.5958009860517L58.755072019501526,146.65421855667867L58.97847618461052,145.19727925994582L59.201880349719524,146.72922663677656L59.425284514828526,144.31015992769775L59.64868867993752,145.00293554560068L59.87209284504652,144.84748688957515L60.09549701015552,145.83917313178853L60.318901175264514,143.50909952007683L60.54230534037352,146.31775989617535L60.76570950548252,145.1180064321378L60.989113670591514,143.262574734299L61.21251783570051,144.56209418328612L61.43592200080951,145.01460151378728L61.65932616591851,147.21551560460594L61.88273033102751,147.37959737313835L62.106134496136505,145.02653063647972L62.32953866124551,145.5322412291972L62.5529428263545,146.69507411606673L62.7763469914635,146.25414147203296L62.9997511565725,146.17781926412158L63.2231553216815,144.9324331640573L63.4465594867905,147.79776304062864L63.6699636518995,145.38684096350528L63.893367817008496,145.89403920153856L64.1167719821175,146.17212443614383L64.3401761472265,146.09261476928057L64.56358031233549,145.24893320000905L64.78698447744449,146.25062178051746L65.01038864255348,146.98677019512826L65.23379280766248,145.57266093893497L65.45719697277148,147.4717688835212L65.68060113788049,144.02171133970975L65.90400530298949,146.16470018964807L66.12740946809848,145.7206763025286L66.35081363320748,144.40500903517744L66.57421779831648,145.00480394259208L66.79762196342548,146.01160676644975L67.02102612853447,146.70659617163295L67.24443029364348,146.9134257449219L67.46783445875246,145.67586109018563L67.69123862386147,145.80378625197477L67.91464278897047,145.87949004679743L68.13804695407947,145.26549877615108L68.36145111918847,145.2409522172619L68.58485528429748,147.40350249291959L68.80825944940646,145.88742662222174L69.03166361451547,146.49783241272615L69.25506777962447,143.72966575857018L69.47847194473346,145.1753239505812L69.70187610984246,145.53849772757334L69.92528027495146,147.0453015137298L70.14868444006045,146.78210177821842L70.37208860516945,145.20096835717442L70.59549277027845,147.3211704939813L70.81889693538744,147.1949698165632L71.04230110049646,145.65192472080685L71.26570526560546,145.43869884831054L71.48910943071445,144.54237568722107L71.71251359582345,145.0352805237986L71.93591776093244,144.99116267089607L72.15932192604144,145.61973352352328L72.38272609115045,144.93038384834315L72.60613025625943,147.30436067756352L72.82953442136844,146.83416114069223L73.05293858647744,147.63747480876933L73.27634275158643,144.85423022378708L73.49974691669543,145.95195621884056L73.72315108180445,146.99597566868533L73.94655524691343,146.43411037149707L74.16995941202244,148.2948322972609L74.39336357713144,146.43711362229487L74.61676774224043,146.40874638892413L74.84017190734943,147.87309924150097L75.06357607245843,145.10704604696994L75.28698023756742,148.63680815645054L75.51038440267642,146.885283015239L75.73378856778542,148.23778286747032L75.95719273289441,148.10982974551493L76.18059689800342,146.0637779695885L76.40400106311243,145.60818268543298L76.62740522822142,146.10451593180676L76.85080939333042,148.5851780647644L77.07421355843941,147.53227961742132L77.29761772354841,146.97160016022494L77.52102188865742,147.1610566019821L77.7444260537664,146.9848656143923L77.9678302188754,148.8227473737657L78.19123438398441,147.3036690746279L78.4146385490934,147.93463216618466L78.6380427142024,147.22115862404033L78.8614468793114,148.14731117072355L79.08485104442039,147.68565346463993L79.3082552095294,148.12881140896366L79.53165937463841,147.63011799561568L79.7550635397474,147.6808846115796L79.9784677048564,147.6933244184849L80.2018718699654,146.60757030873103L80.42527603507439,145.8658125913569L80.64868020018339,146.70384620704704L80.8720843652924,148.12250145732853L81.09548853040138,148.06373165495606L81.31889269551039,147.7965336156717L81.54229686061939,147.7221727311866L81.76570102572838,146.75087685138595L81.98910519083738,147.35020877134187L82.2125093559464,147.15634037982292L82.43591352105538,147.55142739715183L82.65931768616439,147.28146541319842L82.88272185127337,146.94778961159426L83.10612601638238,147.47809363759728L83.32953018149138,147.16289950588074L83.55293434660037,146.89435033268052L83.77633851170937,146.46107959655555L83.99974267681837,146.72083365275623L84.22314684192736,148.09703714710025L84.44655100703636,147.3701682182513L84.66995517214536,148.17464552265886L84.89335933725437,148.3634827289695L85.11676350236337,147.40428373285877L85.34016766747237,147.91480923067513L85.56357183258136,148.322716806585L85.78697599769036,146.9221221789818L86.01038016279936,149.23684730414092L86.23378432790835,149.40033204088823L86.45718849301736,146.66436234052063L86.68059265812636,147.41301306123188L86.90399682323535,149.3404068257636L87.12740098834435,148.38967400352013L87.35080515345335,148.79549196818212L87.57420931856234,147.13559558118516L87.79761348367136,147.981957214627L88.02101764878036,148.23868992815758L88.24442181388935,148.66884886225108L88.46782597899835,142.59395505531566L88.69123014410734,147.54698419779245L88.91463430921634,148.50055086512057L89.13803847432534,147.8691568580605L89.36144263943433,147.54816428127953L89.58484680454333,147.591247608031L89.80825096965233,147.42386982931305L90.03165513476132,146.7424855120813L90.25505929987033,146.75185710192017L90.47846346497934,147.7267828691856L90.70186763008833,147.89708495234962L90.92527179519733,147.86672185652372L91.14867596030633,148.25139535664223L91.37208012541532,147.99732872719883L91.59548429052433,148.45325213212882L91.81888845563333,148.71567145005886L92.04229262074232,147.3781878518165L92.26569678585132,148.06526864174168L92.48910095096032,147.99694304137623L92.71250511606931,147.83296571228828L92.93590928117831,148.9503641513683L93.15931344628733,147.96707911675358L93.38271761139632,149.08660746261518L93.60612177650532,148.05589047304014L93.8295259416143,147.5182115420112L94.05293010672331,149.3366626305603L94.27633427183231,147.86653271422267L94.4997384369413,148.80692520910264L94.7231426020503,147.4757087998882L94.9465467671593,147.51029963732182L95.16995093226829,147.78719985429302L95.3933550973773,147.18782681644555L95.6167592624863,145.09430607945643L95.84016342759529,148.49417430250116L96.0635675927043,149.87339667244177L96.2869717578133,147.30570441025893L96.5103759229223,148.73695489307573L96.7337800880313,144.6776354585024L96.9571842531403,149.03924540807046L97.18058841824929,147.99386002186884L97.40399258335829,147.6941336185903L97.62739674846729,147.90565638801922L97.85080091357628,148.94830661207584L98.07420507868528,148.902820355743L98.29760924379428,147.34736423560543L98.52101340890327,148.13498978334584L98.74441757401227,148.65030140373702L98.96782173912129,148.64761476070404L99.19122590423028,148.9441750863343L99.41463006933928,149.36151346184687L99.63803423444827,149.08556306817016L99.86143839955727,149.0469319867142L100.08484256466627,147.4897275338285L100.30824672977526,149.58706730058353L100.53165089488427,147.43641078623153L100.75505505999327,149.04505043199754L100.97845922510226,147.8932733238042L101.20186339021126,149.1189631314649L101.42526755532026,148.54872952099117L101.64867172042926,147.14239976987653L101.87207588553827,149.47037061261508L102.09548005064727,148.38516666024995L102.31888421575626,148.74267027999926L102.54228838086526,147.6289296885503L102.76569254597426,149.33773416281375L102.98909671108325,147.0134302136424L103.21250087619225,148.5629225947916L103.43590504130125,149.14297351304845L103.65930920641024,148.04477795167358L103.88271337151924,148.12772754134275L104.10611753662825,148.7253974761228L104.32952170173724,150.1665491472215L104.55292586684625,148.49960104182608L104.77633003195525,149.0724793550834L104.99973419706424,148.1543686456268L105.22313836217324,148.565675026451L105.44654252728223,147.63349459686862L105.66994669239124,148.91627659692708L105.89335085750024,147.6115598464498L106.11675502260923,149.37425671879174L106.34015918771823,148.30884609705421L106.56356335282723,150.11091663997323L106.78696751793622,148.7660860968712L107.01037168304522,149.9477879841666L107.23377584815424,149.0096405261645L107.45718001326323,147.17663946051644L107.68058417837223,148.5011890147972L107.90398834348123,149.0202267385194L108.12739250859022,149.23438023064875L108.35079667369922,148.65219776089467L108.57420083880822,148.32708517138178L108.79760500391721,149.35179565936124L109.02100916902621,148.5810884792722L109.24441333413522,149.20387733399164L109.4678174992442,148.55031091509966L109.69122166435321,148.77609583638673L109.91462582946222,149.12521222862054L110.13802999457121,146.03071589536222L110.36143415968021,149.2036322713581L110.5848383247892,148.6507372533873L110.8082424898982,149.24009479521442L111.03164665500721,149.41694120199531L111.2550508201162,149.32272202061395L111.4784549852252,149.00506081540522L111.7018591503342,148.5669225432802L111.92526331544319,149.3893667215734L112.14866748055219,149.13111511312945L112.3720716456612,149.67127756480718L112.59547581077018,148.6878255915528L112.8188799758792,148.24474823829652L113.0422841409882,148.83053839185396L113.26568830609719,149.94809883542663L113.48909247120619,149.7312447201812L113.7124966363152,150.10432050781301L113.93590080142418,148.8844867102649L114.15930496653318,148.78525032375833L114.38270913164219,149.61053492599882L114.60611329675118,150.04399069263567L114.82951746186018,148.98757337613492L115.05292162696918,149.07050898572098L115.27632579207817,148.94310273172303L115.49972995718717,149.16961050554335L115.72313412229619,148.93695231750706L115.94653828740518,149.53245451704535L116.16994245251418,150.12755869539353L116.39334661762317,148.65876099874166L116.61675078273217,149.18215721896664L116.84015494784117,149.78909348178325L117.06355911295016,148.28804537808398L117.28696327805916,149.55809316713373L117.51036744316816,150.14115473740884L117.73377160827715,149.7039926040289L117.95717577338615,149.75894090956203L118.18057993849516,149.4908678815458L118.40398410360416,150.25549454783445L118.62738826871316,148.77150872440697L118.85079243382216,149.37464980583482L119.07419659893115,150.12169199462917L119.29760076404015,148.45429405950034L119.52100492914916,149.00946454158876L119.74440909425815,148.95173666658778L119.96781325936715,149.28716573508706L120.19121742447615,149.89270810138058L120.41462158958514,148.63024409624572L120.63802575469414,148.7970602045653L120.86142991980314,149.1358568283814L121.08483408491213,149.60627182300436L121.30823825002115,149.84888300786582L121.53164241513015,150.01261691903585L121.75504658023914,149.2762768950505L121.97845074534814,149.71052870406749L122.20185491045713,148.8882341948995L122.42525907556613,149.07675232637183L122.64866324067513,148.98635628654546L122.87206740578412,149.3342876611452L123.09547157089312,148.82438879999583L123.31887573600213,150.3882469500899L123.54227990111112,150.0600151573251L123.76568406622012,149.51171054076542L123.98908823132913,149.24255611220178L124.21249239643812,149.30061621976634L124.43589656154712,149.97408123108826L124.65930072665613,148.57480155365636L124.88270489176512,148.34480451556033L125.10610905687412,148.8708018536039L125.32951322198312,148.73855602377216L125.55291738709211,149.30492948658846L125.77632155220111,149.53571763291765L125.99972571731011,149.89832562772224L126.2231298824191,149.19154443360432L126.4465340475281,148.8348146525737L126.66993821263712,149.96394155903548L126.89334237774611,149.55202334398518L127.11674654285511,149.31772701915014L127.3401507079641,149.5817507572079L127.5635548730731,149.51928281167068L127.7869590381821,149.28996257406934L128.0103632032911,150.0683587998756L128.2337673684001,149.18528053400772L128.4571715335091,149.08170538758625L128.6805756986181,148.97044119544753L128.9039798637271,149.80832185258117L129.1273840288361,149.62996970861224L129.35078819394508,149.50858229157734L129.57419235905408,149.7977035682709L129.79759652416308,149.87564828818228L130.02100068927209,149.99494198218017L130.2444048543811,150.14827553386505L130.4678090194901,148.94447360222685L130.69121318459906,149.13048271995763L130.9146173497081,149.96341689473948L131.1380215148171,148.8057171654493L131.36142567992607,149.7379321340606L131.58482984503507,149.36042219300552L131.80823401014408,149.6721879149258L132.03163817525308,149.0737244048391L132.25504234036208,149.7843353193747L132.47844650547108,149.03987368945315L132.70185067058006,149.3824548040062L132.92525483568906,148.55991523220465L133.14865900079806,150.22111505636335L133.37206316590706,149.21865345949405L133.59546733101607,149.71087902850337L133.81887149612507,150.1370709084215L134.04227566123407,149.8572990179054L134.26567982634307,148.7002275699979L134.48908399145208,149.9959469034493L134.71248815656108,149.71971690811014L134.93589232167005,149.40482458171746L135.15929648677906,149.6403338843528L135.38270065188806,149.55001267908906L135.60610481699706,148.4263166237414L135.82950898210606,149.9789627471714L136.05291314721504,149.2931763484718L136.27631731232404,149.7587764379959L136.49972147743304,149.94298459207738L136.72312564254204,149.16441484876884L136.94652980765105,149.72011904108936L137.16993397276005,150.21626232280425L137.39333813786902,150.1210637132465L137.61674230297803,148.31671194970508L137.84014646808703,150.45727895583195L138.06355063319603,149.42797642172576L138.28695479830503,149.10291235132487L138.51035896341403,149.97228520158598L138.733763128523,150.70624943379838L138.957167293632,150.62874632004207L139.180571458741,150.12566316059372L139.40397562385004,150.5443937879137L139.62737978895905,148.92886278352628L139.85078395406805,149.171978073738L140.07418811917702,150.73530333595772L140.29759228428603,150.17691496767773L140.52099644939503,149.0986640507714L140.74440061450403,149.70186269724735L140.96780477961303,149.45499498825407L141.19120894472204,150.34716935408755L141.414613109831,148.08951504002263L141.63801727494,148.86313501154808L141.861421440049,150.37930298632298L142.08482560515802,150.11883265645176L142.30822977026702,150.3317517894772L142.531633935376,150.20823528801859L142.755038100485,150.52228469763477L142.978442265594,150.6721100708138L143.201846430703,149.17932501859764L143.425250595812,150.30819863884753L143.648654760921,148.95686160058884L143.87205892602998,148.5993259088841L144.09546309113898,150.17903336144968L144.31886725624798,150.13018530630487L144.542271421357,149.97579091301833L144.765675586466,148.51664851965694L144.98907975157502,150.0162377605645L145.212483916684,150.19380866459426L145.435888081793,149.74923215301254L145.659292246902,150.69812207135735L145.882696412011,149.40206228176407L146.10610057712,150.32759559300075L146.329504742229,150.22880081264924L146.55290890733798,149.96689464600558L146.77631307244698,149.35642635630603L146.99971723755598,149.6332369362737L147.223121402665,149.71220878111566L147.446525567774,150.03987396933508L147.66992973288296,149.29212373044848L147.89333389799197,149.37362185854641L148.11673806310097,150.59283066414315L148.34014222820997,150.24653989341573L148.56354639331897,148.7439482240682L148.78695055842798,148.93749013952836L149.01035472353695,149.00323682573668L149.23375888864595,149.51739385573353L149.45716305375495,150.29033620440643L149.68056721886396,148.49568908562534L149.90397138397296,150.55877271458385L150.12737554908196,150.3065679032692L150.35077971419094,149.61424951632017L150.57418387929997,149.40827437281735L150.79758804440897,150.82601104940193L151.02099220951797,150.14843013713724L151.24439637462697,149.72122264529818L151.46780053973598,149.87090328349902L151.69120470484495,150.59161521926936L151.91460886995395,149.27765105498563L152.13801303506295,148.73831589528558L152.36141720017196,150.77262686846282L152.58482136528096,149.72462967379087L152.80822553038993,150.70867209996766L153.03162969549894,150.43470852280998L153.25503386060794,150.26525758000076L153.47843802571694,149.4945841165828L153.70184219082594,149.3001252721414L153.92524635593495,150.32967122416548L154.14865052104392,149.2974994835879L154.37205468615292,150.07844172923808L154.59545885126192,151.1075181149408L154.81886301637093,150.09107890202276L155.04226718147993,149.67045767404994L155.26567134658893,150.2061292296141L155.4890755116979,150.95236221830302L155.7124796768069,150.4589565658066L155.9358838419159,150.3979261017575L156.15928800702494,149.8232649167232L156.38269217213394,150.47870713382704L156.60609633724295,150.46069749733425L156.82950050235192,150.5041418391734L157.05290466746092,149.38774009778425L157.27630883256992,150.36014451594068L157.49971299767893,149.44584461267166L157.72311716278793,150.36841332392856L157.94652132789693,150.39377319471234L158.1699254930059,149.42997721832788L158.3933296581149,149.95341044465525L158.6167338232239,150.2372020202479L158.8401379883329,150.8761699429289L159.06354215344192,149.82249518979364L159.2869463185509,150.4370670450685L159.5103504836599,148.69478109408504L159.7337546487689,150.05894609214516L159.9571588138779,150.761350697888L160.1805629789869,150.0403830088323L160.4039671440959,150.71515474674723L160.62737130920488,150.61812474630048L160.85077547431388,150.4002476179136L161.07417963942288,150.1635294492671L161.29758380453188,149.2991055484313L161.52098796964088,149.28203093279205L161.74439213474992,150.8407419452236L161.9677962998589,149.7046587138718L162.1912004649679,149.62741464283218L162.4146046300769,150.68215763878956L162.6380087951859,150.75461723197006L162.8614129602949,149.44652141316632L163.0848171254039,150.66789219750004L163.30822129051288,150.70540569466405L163.53162545562188,149.48405217984478L163.75502962073088,150.7501855456203L163.97843378583988,150.4024211096602L164.20183795094889,149.8229918939234L164.42524211605786,150.00299286534292L164.64864628116686,150.88625287229138L164.87205044627586,150.05124388870263L165.09545461138487,150.39692940406664L165.31885877649387,150.4439394894598L165.54226294160287,150.3387064696516L165.76566710671185,150.33144176057502L165.98907127182085,149.65388469668744L166.21247543692985,151.13586478936577L166.43587960203885,150.59807401767185L166.65928376714785,150.0096498519826L166.88268793225686,149.7474961556319L167.10609209736583,150.973722962956L167.32949626247486,149.77871779303305L167.55290042758386,150.3771829478354L167.77630459269287,149.5199768816798L167.99970875780187,150.90508486661489L168.22311292291087,150.69510237340293L168.44651708801985,150.93088305412243L168.66992125312885,150.14982896780728L168.89332541823785,150.29791916596352L169.11672958334685,151.3193303543261L169.34013374845586,150.86792333860242L169.56353791356483,150.23870611272028L169.78694207867383,150.43360245152766L170.01034624378283,150.31905951871786L170.23375040889184,151.08726837571714L170.45715457400084,149.86849130798151L170.68055873910984,150.1074035273204L170.90396290421882,149.88271809845298L171.12736706932782,149.69734219625187L171.35077123443682,150.30162964449573L171.57417539954582,149.43305694840393L171.79757956465482,150.08057163601964L172.02098372976383,149.75578058841856L172.2443878948728,150.17591662527124L172.4677920599818,150.04538787859008L172.6911962250908,150.775570087139L172.91460039019984,150.90491792797525L173.13800455530884,150.55935823335932L173.36140872041784,151.1857301011472L173.58481288552682,150.13058414985275L173.80821705063582,151.03936849915112L174.03162121574482,151.09932002972636L174.25502538085382,150.90545739471222L174.47842954596283,150.25806688312895L174.70183371107183,150.3037759984339L174.9252378761808,150.00579381611436L175.1486420412898,151.14075288431158L175.3720462063988,150.910345489658L175.5954503715078,150.56524220363815L175.8188545366168,150.30452434405987L176.04225870172579,150.32428478037426L176.2656628668348,150.23315190793159L176.4890670319438,150.36124318600253L176.7124711970528,151.17249836365087L176.9358753621618,150.63622401979683L177.1592795272708,149.7893360773433L177.38268369237977,151.13571840967188L177.60608785748877,150.80398666197954L177.82949202259778,150.86886905010778L178.05289618770678,150.85882148213202L178.27630035281578,150.34662824263495L178.4997045179248,150.73519560708192L178.7231086830338,150.42832291425444L178.9465128481428,149.91615681256576L179.1699170132518,150.73295385963536L179.3933211783608,150.53172207610012L179.6167253434698,150.56199306784896L179.8401295085788,150.98919069139404L180.06353367368777,150.92306078643662L180.28693783879677,150.2389955826767L180.51034200390578,150.48450804596493L180.73374616901478,150.91350992259063L180.95715033412378,150.5914071627382L181.18055449923276,149.42112700335366L181.40395866434176,150.48550392129795L181.62736282945076,150.7258585562719L181.85076699455976,150.37270109765797L182.07417115966877,150.74633526625686L182.29757532477777,150.2950598277861L182.52097948988674,150.39877313032312L182.74438365499574,150.25636049063021L182.96778782010475,150.11636229352828L183.19119198521375,150.93777605745953L183.41459615032275,150.66836011910573L183.63800031543175,150.46446389619894L183.86140448054073,150.90887429149885L184.08480864564976,150.5276366023971L184.30821281075876,150.55708688103087L184.53161697586776,149.77516027305734L184.75502114097677,150.41308380129334L184.97842530608577,149.52811246769915L185.20182947119474,150.558305615336L185.42523363630374,150.9340779142948L185.64863780141275,150.46447540920857L185.87204196652175,151.2751722058899L186.09544613163075,151.31953512142596L186.31885029673973,151.3752572656778L186.54225446184873,150.6828788466071L186.76565862695773,150.44070844554292L186.98906279206673,150.85802955154102L187.21246695717574,150.46748441651118L187.43587112228474,150.39100020410714L187.6592752873937,150.10161166111862L187.8826794525027,150.17521268696817L188.10608361761172,150.8902873598089L188.32948778272072,150.80387070952543L188.55289194782972,151.09529869993412L188.77629611293872,150.52195493214464L188.9997002780477,150.92160356836058L189.2231044431567,150.47043256933432L189.4465086082657,150.7090018654578L189.66991277337473,151.6362818647269L189.89331693848374,149.85458523706404L190.11672110359274,150.253801313061L190.3401252687017,151.0964541126863L190.56352943381071,151.3707795272895L190.78693359891972,149.8480474923098L191.01033776402872,151.49321709527422L191.23374192913772,151.01496174109317L191.45714609424672,150.80351380622687L191.6805502593557,149.95047462719958L191.9039544244647,151.09885128576283L192.1273585895737,150.51480864259568L192.3507627546827,151.08243373403033L192.5741669197917,151.24974407940616L192.79757108490068,149.65143242563622L193.02097525000968,151.21818363057875L193.2443794151187,151.19224235280868L193.4677835802277,148.50506643196906L193.6911877453367,151.31272764330325L193.9145919104457,151.30854677609187L194.13799607555467,150.8593428569967L194.36140024066367,150.90857084145932L194.58480440577267,150.52215640981316L194.80820857088167,150.00884065187716L195.03161273599068,150.99682546149444L195.2550169010997,150.85823431864088L195.47842106620868,150.93300802675702L195.70182523131768,150.80105248923954L195.9252293964267,151.20529646101352L196.1486335615357,150.71508155690032L196.3720377266447,150.678244860231L196.5954418917537,150.4073009810277L196.81884605686267,150.29438384964925L197.04225022197167,150.70492708240656L197.26565438708067,149.83731736733455L197.48905855218968,150.70172235394026L197.71246271729868,152.10685968620035L197.93586688240765,150.57894186274012L198.15927104751665,151.32612056293436L198.38267521262566,151.1537420262478L198.60607937773466,150.81155153166435L198.82948354284366,150.99690029605705L199.05288770795266,150.84609056055461L199.27629187306164,150.6097687683825L199.49969603817064,151.50673665801128L199.72310020327964,150.5508205143608L199.94650436838864,151.4164064068114L200.16990853349765,149.18486030915622L200.39331269860665,151.4949456914344L200.61671686371562,149.81514824493397L200.84012102882465,151.0518897194817L201.06352519393366,150.17139859134926L201.28692935904266,150.8073155664783L201.51033352415166,150.9144334304345L201.73373768926066,150.93602114584877L201.95714185436964,150.82474544070044L202.18054601947864,149.25154695036505L202.40395018458764,151.78089842340617L202.62735434969665,151.58153503686233L202.85075851480565,151.30426311415164L203.07416267991462,150.75233107720064L203.29756684502362,151.09216798367257L203.52097101013263,151.5518610768986L203.74437517524163,150.07714075914987L203.96777934035063,150.12124956611623L204.19118350545963,150.99197190557754L204.4145876705686,151.15100686410284L204.6379918356776,150.8052144422208L204.8613960007866,151.43508462022055L205.08480016589562,151.01827995494014L205.30820433100462,149.98378011934378L205.53160849611362,151.90978903328855L205.7550126612226,150.29279834375163L205.9784168263316,150.49492896439583L206.2018209914406,151.63690603432042L206.42522515654963,151.39576769233378L206.64862932165863,150.84896058938384L206.87203348676763,151.1217588854954L207.0954376518766,151.2889450548388L207.3188418169856,150.47443087310728L207.5422459820946,151.17642101050342L207.76565014720362,151.35945237052914L207.98905431231262,151.6090289262168L208.21245847742162,151.38422343310614L208.4358626425306,151.48604366791685L208.6592668076396,151.8547913862856L208.8826709727486,151.08480705872978L209.1060751378576,151.7149708184751L209.3294793029666,150.49820112620426L209.55288346807558,150.8251780009194L209.77628763318458,149.79657282625365L209.99969179829358,150.9262186405066L210.22309596340259,151.2781573648154L210.4465001285116,151.2472876965658L210.6699042936206,150.14901154412354L210.89330845872956,151.00110583400334L211.11671262383857,151.07979807718286L211.34011678894757,151.15775677717738L211.56352095405657,150.0582676469348L211.78692511916557,150.94753086604754L212.0103292842746,151.45023245146243L212.23373344938358,150.7105766807036L212.45713761449258,150.72335447667737L212.68054177960158,151.59856360046305L212.90394594471059,151.48728378352556L213.1273501098196,150.87234268958474L213.3507542749286,151.47083662691114L213.57415844003756,151.0157627176203L213.79756260514657,150.06697888343564L214.02096677025557,150.41749821812866L214.24437093536457,151.01839919682558L214.46777510047357,151.43394236519367L214.69117926558255,149.667192913462L214.91458343069155,151.3432428753278L215.13798759580055,151.15891301228737L215.36139176090956,150.62503337443636L215.58479592601856,149.5083240712185L215.80820009112756,150.9385943035011L216.03160425623653,151.07471097164202L216.25500842134554,150.80154014743314L216.47841258645454,151.38794295757447L216.70181675156354,151.2095677875863L216.92522091667254,151.15999605755044L217.14862508178155,151.11389303284457L217.37202924689052,150.4661571309724L217.59543341199955,151.43022366308315L217.81883757710855,150.28652622057672L218.04224174221756,150.45068117895607L218.26564590732656,150.69281868570704L218.48905007243556,150.6720590846283L218.71245423754453,150.46677636641894L218.93585840265354,151.43420880913084L219.15926256776254,150.7450704799132L219.38266673287154,151.25292167006407L219.60607089798054,150.62768959022958L219.82947506308952,150.77280120832296L220.05287922819852,151.38338791755012L220.27628339330752,151.10587257692154L220.49968755841653,151.39859084676667L220.72309172352553,151.76474896032647L220.94649588863453,151.13392649195876L221.1699000537435,150.4720731732066L221.3933042188525,150.83285635598483L221.6167083839615,151.68550327032688L221.8401125490705,151.66366391341643L222.0635167141795,150.14526981599377L222.28692087928852,150.51029472046287L222.5103250443975,150.67128606826742L222.7337292095065,150.3075687127492L222.9571333746155,151.02556357824682L223.18053753972453,151.2253940640385L223.40394170483353,151.0684355590358L223.62734586994253,152.0144422908261L223.8507500350515,151.49585933098433L224.0741542001605,151.0494407378618L224.2975583652695,150.93437149604034L224.5209625303785,150.485644544487L224.7443666954875,151.61074107522037L224.96777086059652,150.21169001326544L225.1911750257055,151.3300374532821L225.4145791908145,151.33882845849251L225.6379833559235,150.87485417039974L225.8613875210325,150.85584536914263L226.0847916861415,151.62446787213077L226.30819585125047,150.52890467817207L226.53160001635948,151.08537859742214L226.75500418146848,151.91358503703518L226.97840834657748,150.21101403512858L227.20181251168648,151.64062144699963L227.4252166767955,151.49483385076942L227.64862084190446,151.1114128016271L227.87202500701346,151.04218178529004L228.09542917212246,151.08265083649763L228.31883333723147,151.09492534947898L228.54223750234047,151.21877572821688L228.7656416674495,151.1432808122832L228.98904583255847,151.52231787182996L229.21244999766748,150.61354421318336L229.43585416277648,152.1237011633946L229.65925832788548,151.0040194477976L229.88266249299448,150.51401424493122L230.1060666581035,151.24148760678574L230.32947082321246,151.51216750912536L230.55287498832146,151.22203226522655L230.77627915343047,151.1328195983186L230.99968331853947,151.191507164908L231.22308748364847,151.553092968929L231.44649164875744,150.99861573449192L231.66989581386645,151.93687585551683L231.89329997897545,150.36049895216573L232.11670414408445,150.70051019849777L232.34010830919345,151.1828608946758L232.56351247430246,151.36495805620584L232.78691663941143,151.10028630017746L233.01032080452043,150.63996985971576L233.23372496962944,151.18155499044062L233.45712913473844,151.16722951702945L233.68053329984744,150.86489130528057L233.90393746495644,151.4574190365451L234.12734163006542,151.70045291333156L234.35074579517445,151.65984323893488L234.57414996028345,151.13763697049097L234.79755412539245,151.37818074776598L235.02095829050145,149.63755595960063L235.24436245561046,150.82134910285956L235.46776662071943,150.99029922974984L235.69117078582843,151.9225882105659L235.91457495093744,150.72360940760487L236.13797911604644,150.75687131478406L236.36138328115544,151.33142312622687L236.58478744626441,151.93845889434098L236.80819161137342,151.11061675924697L237.03159577648242,150.62855800009882L237.25499994159142,151.50278440627682L237.47840410670042,151.24978190786638L237.70180827180943,151.34128895312202L237.9252124369184,150.93960251420157L238.1486166020274,150.30216253237003L238.3720207671364,151.17040135118256L238.5954249322454,150.63379230769138L238.8188290973544,151.12954990358367L239.0422332624634,151.88492915606585L239.2656374275724,151.28717698550275L239.4890415926814,150.83220587094073L239.7124457577904,151.54830191220722L239.93584992289942,150.98862902099566L240.15925408800842,152.01478356932586L240.38265825311743,151.44502116988915L240.6060624182264,151.57492410226115L240.8294665833354,151.8211701087344L241.0528707484444,151.42624016175117L241.2762749135534,150.7170889323651L241.4996790786624,151.93968091807744L241.7230832437714,150.83174617291337L241.9464874088804,150.40492683397042L242.1698915739894,150.10918310966608L242.3932957390984,151.16558809079933L242.6166999042074,151.67890878288233L242.8401040693164,150.8328793820041L243.06350823442537,150.89364093504258L243.28691239953437,151.6453664516829L243.51031656464338,151.14582272033797L243.73372072975238,151.5305299371275L243.95712489486138,151.96365593827426L244.18052905997038,152.60749427520773L244.40393322507936,152.0323507773057L244.62733739018836,151.91244936087094L244.85074155529736,151.4268651537025L245.07414572040636,151.98113597632408L245.29754988551537,152.50097961072035L245.5209540506244,152.5586861044177L245.74435821573337,152.48205263406737" fill="none"></path></g></g></g></g></g></g><g transform="translate(61, 176)" clip-path="url(#clip_1)"><clipPath id="clip_1"><rect width="268" height="23"></rect></clipPath><g><g><line x1="0" y1="0" x2="0" y2="5" style="visibility: inherit;" fill="rgb(0, 0, 0)" stroke="rgb(204, 204, 204)" stroke-width="1px"></line><line x1="22.34041651089986" y1="0" x2="22.34041651089986" y2="5" style="visibility: inherit;" fill="rgb(0, 0, 0)" stroke="rgb(204, 204, 204)" stroke-width="1px"></line><line x1="44.68083302179972" y1="0" x2="44.68083302179972" y2="5" style="visibility: inherit;" fill="rgb(0, 0, 0)" stroke="rgb(204, 204, 204)" stroke-width="1px"></line><line x1="67.02124953269958" y1="0" x2="67.02124953269958" y2="5" style="visibility: inherit;" fill="rgb(0, 0, 0)" stroke="rgb(204, 204, 204)" stroke-width="1px"></line><line x1="89.36166604359944" y1="0" x2="89.36166604359944" y2="5" style="visibility: inherit;" fill="rgb(0, 0, 0)" stroke="rgb(204, 204, 204)" stroke-width="1px"></line><line x1="111.70208255449931" y1="0" x2="111.70208255449931" y2="5" style="visibility: inherit;" fill="rgb(0, 0, 0)" stroke="rgb(204, 204, 204)" stroke-width="1px"></line><line x1="134.04249906539917" y1="0" x2="134.04249906539917" y2="5" style="visibility: inherit;" fill="rgb(0, 0, 0)" stroke="rgb(204, 204, 204)" stroke-width="1px"></line><line x1="156.38291557629904" y1="0" x2="156.38291557629904" y2="5" style="visibility: inherit;" fill="rgb(0, 0, 0)" stroke="rgb(204, 204, 204)" stroke-width="1px"></line><line x1="178.72333208719888" y1="0" x2="178.72333208719888" y2="5" style="visibility: inherit;" fill="rgb(0, 0, 0)" stroke="rgb(204, 204, 204)" stroke-width="1px"></line><line x1="201.06374859809875" y1="0" x2="201.06374859809875" y2="5" style="visibility: inherit;" fill="rgb(0, 0, 0)" stroke="rgb(204, 204, 204)" stroke-width="1px"></line><line x1="223.40416510899863" y1="0" x2="223.40416510899863" y2="5" style="visibility: inherit;" fill="rgb(0, 0, 0)" stroke="rgb(204, 204, 204)" stroke-width="1px"></line><line x1="245.74458161989847" y1="0" x2="245.74458161989847" y2="5" style="visibility: inherit;" fill="rgb(0, 0, 0)" stroke="rgb(204, 204, 204)" stroke-width="1px"></line><line x1="268.08499813079834" y1="0" x2="268.08499813079834" y2="5" style="visibility: inherit;" fill="rgb(0, 0, 0)" stroke="rgb(204, 204, 204)" stroke-width="1px"></line></g><g transform="translate(0, 8)"><text style="text-anchor: middle; visibility: hidden; font-family: Roboto, sans-serif; font-size: 12px; font-weight: 200;" x="0" y="0" dx="0em" dy="0.95em" fill="rgb(33, 33, 33)" stroke="none" stroke-width="1px">-100k</text><text style="text-anchor: middle; visibility: inherit; font-family: Roboto, sans-serif; font-size: 12px; font-weight: 200;" x="22.34041651089986" y="0" dx="0em" dy="0.95em" fill="rgb(33, 33, 33)" stroke="none" stroke-width="1px">0</text><text style="text-anchor: middle; visibility: hidden; font-family: Roboto, sans-serif; font-size: 12px; font-weight: 200;" x="44.68083302179972" y="0" dx="0em" dy="0.95em" fill="rgb(33, 33, 33)" stroke="none" stroke-width="1px">100k</text><text style="text-anchor: middle; visibility: inherit; font-family: Roboto, sans-serif; font-size: 12px; font-weight: 200;" x="67.02124953269958" y="0" dx="0em" dy="0.95em" fill="rgb(33, 33, 33)" stroke="none" stroke-width="1px">200k</text><text style="text-anchor: middle; visibility: hidden; font-family: Roboto, sans-serif; font-size: 12px; font-weight: 200;" x="89.36166604359944" y="0" dx="0em" dy="0.95em" fill="rgb(33, 33, 33)" stroke="none" stroke-width="1px">300k</text><text style="text-anchor: middle; visibility: inherit; font-family: Roboto, sans-serif; font-size: 12px; font-weight: 200;" x="111.70208255449931" y="0" dx="0em" dy="0.95em" fill="rgb(33, 33, 33)" stroke="none" stroke-width="1px">400k</text><text style="text-anchor: middle; visibility: hidden; font-family: Roboto, sans-serif; font-size: 12px; font-weight: 200;" x="134.04249906539917" y="0" dx="0em" dy="0.95em" fill="rgb(33, 33, 33)" stroke="none" stroke-width="1px">500k</text><text style="text-anchor: middle; visibility: inherit; font-family: Roboto, sans-serif; font-size: 12px; font-weight: 200;" x="156.38291557629904" y="0" dx="0em" dy="0.95em" fill="rgb(33, 33, 33)" stroke="none" stroke-width="1px">600k</text><text style="text-anchor: middle; visibility: hidden; font-family: Roboto, sans-serif; font-size: 12px; font-weight: 200;" x="178.72333208719888" y="0" dx="0em" dy="0.95em" fill="rgb(33, 33, 33)" stroke="none" stroke-width="1px">700k</text><text style="text-anchor: middle; visibility: inherit; font-family: Roboto, sans-serif; font-size: 12px; font-weight: 200;" x="201.06374859809875" y="0" dx="0em" dy="0.95em" fill="rgb(33, 33, 33)" stroke="none" stroke-width="1px">800k</text><text style="text-anchor: middle; visibility: hidden; font-family: Roboto, sans-serif; font-size: 12px; font-weight: 200;" x="223.40416510899863" y="0" dx="0em" dy="0.95em" fill="rgb(33, 33, 33)" stroke="none" stroke-width="1px">900k</text><text style="text-anchor: middle; visibility: inherit; font-family: Roboto, sans-serif; font-size: 12px; font-weight: 200;" x="245.74458161989847" y="0" dx="0em" dy="0.95em" fill="rgb(33, 33, 33)" stroke="none" stroke-width="1px">1M</text><text style="text-anchor: middle; visibility: hidden; font-family: Roboto, sans-serif; font-size: 12px; font-weight: 200;" x="268.08499813079834" y="0" dx="0em" dy="0.95em" fill="rgb(33, 33, 33)" stroke="none" stroke-width="1px">1.1M</text></g><line x1="0" y1="0" x2="268.08499813079834" y2="0" fill="rgb(0, 0, 0)" stroke="rgb(204, 204, 204)" stroke-width="1px"></line></g></g></g></g></svg>