<svg viewBox="0 0 330 200" xmlns="http://www.w3.org/2000/svg"><g><g><g><g><g><line x1="72.29800224304199" y1="176.5999994277954" x2="67.29800224304199" y2="176.5999994277954" style="visibility: inherit;" fill="rgb(0, 0, 0)" stroke="rgb(204, 204, 204)" stroke-width="1px"></line><line x1="72.29800224304199" y1="154.52499949932098" x2="67.29800224304199" y2="154.52499949932098" style="visibility: inherit;" fill="rgb(0, 0, 0)" stroke="rgb(204, 204, 204)" stroke-width="1px"></line><line x1="72.29800224304199" y1="132.44999957084656" x2="67.29800224304199" y2="132.44999957084656" style="visibility: inherit;" fill="rgb(0, 0, 0)" stroke="rgb(204, 204, 204)" stroke-width="1px"></line><line x1="72.29800224304199" y1="110.37499964237213" x2="67.29800224304199" y2="110.37499964237213" style="visibility: inherit;" fill="rgb(0, 0, 0)" stroke="rgb(204, 204, 204)" stroke-width="1px"></line><line x1="72.29800224304199" y1="88.2999997138977" x2="67.29800224304199" y2="88.2999997138977" style="visibility: inherit;" fill="rgb(0, 0, 0)" stroke="rgb(204, 204, 204)" stroke-width="1px"></line><line x1="72.29800224304199" y1="66.22499978542328" x2="67.29800224304199" y2="66.22499978542328" style="visibility: inherit;" fill="rgb(0, 0, 0)" stroke="rgb(204, 204, 204)" stroke-width="1px"></line><line x1="72.29800224304199" y1="44.14999985694885" x2="67.29800224304199" y2="44.14999985694885" style="visibility: inherit;" fill="rgb(0, 0, 0)" stroke="rgb(204, 204, 204)" stroke-width="1px"></line><line x1="72.29800224304199" y1="22.074999928474426" x2="67.29800224304199" y2="22.074999928474426" style="visibility: inherit;" fill="rgb(0, 0, 0)" stroke="rgb(204, 204, 204)" stroke-width="1px"></line><line x1="72.29800224304199" y1="0" x2="67.29800224304199" y2="0" style="visibility: inherit;" fill="rgb(0, 0, 0)" stroke="rgb(204, 204, 204)" stroke-width="1px"></line></g><g transform="translate(62.29800224304199, 0)"><text style="text-anchor: end; visibility: hidden; font-family: Roboto, sans-serif; font-size: 12px; font-weight: 200;" x="0" y="176.5999994277954" dx="0em" dy="0.3em" fill="rgb(33, 33, 33)" stroke="none" stroke-width="1px">-500</text><text style="text-anchor: end; visibility: inherit; font-family: Roboto, sans-serif; font-size: 12px; font-weight: 200;" x="0" y="154.52499949932098" dx="0em" dy="0.3em" fill="rgb(33, 33, 33)" stroke="none" stroke-width="1px">0</text><text style="text-anchor: end; visibility: hidden; font-family: Roboto, sans-serif; font-size: 12px; font-weight: 200;" x="0" y="132.44999957084656" dx="0em" dy="0.3em" fill="rgb(33, 33, 33)" stroke="none" stroke-width="1px">500</text><text style="text-anchor: end; visibility: inherit; font-family: Roboto, sans-serif; font-size: 12px; font-weight: 200;" x="0" y="110.37499964237213" dx="0em" dy="0.3em" fill="rgb(33, 33, 33)" stroke="none" stroke-width="1px">1e+3</text><text style="text-anchor: end; visibility: hidden; font-family: Roboto, sans-serif; font-size: 12px; font-weight: 200;" x="0" y="88.2999997138977" dx="0em" dy="0.3em" fill="rgb(33, 33, 33)" stroke="none" stroke-width="1px">1.5e+3</text><text style="text-anchor: end; visibility: inherit; font-family: Roboto, sans-serif; font-size: 12px; font-weight: 200;" x="0" y="66.22499978542328" dx="0em" dy="0.3em" fill="rgb(33, 33, 33)" stroke="none" stroke-width="1px">2e+3</text><text style="text-anchor: end; visibility: hidden; font-family: Roboto, sans-serif; font-size: 12px; font-weight: 200;" x="0" y="44.14999985694885" dx="0em" dy="0.3em" fill="rgb(33, 33, 33)" stroke="none" stroke-width="1px">2.5e+3</text><text style="text-anchor: end; visibility: inherit; font-family: Roboto, sans-serif; font-size: 12px; font-weight: 200;" x="0" y="22.074999928474426" dx="0em" dy="0.3em" fill="rgb(33, 33, 33)" stroke="none" stroke-width="1px">3e+3</text><text style="text-anchor: end; visibility: hidden; font-family: Roboto, sans-serif; font-size: 12px; font-weight: 200;" x="0" y="0" dx="0em" dy="0.3em" fill="rgb(33, 33, 33)" stroke="none" stroke-width="1px">3.5e+3</text></g><line x1="72.29800224304199" y1="0" x2="72.29800224304199" y2="176.5999994277954" fill="rgb(0, 0, 0)" stroke="rgb(204, 204, 204)" stroke-width="1px"></line></g></g><g transform="translate(72, 0)" clip-path="url(#clip_0)"><clipPath id="clip_0"><rect width="257" height="176"></rect></clipPath><g><g><g><line x1="0" y1="0" x2="0" y2="176.5999994277954" fill="rgb(0, 0, 0)" stroke="rgb(66, 66, 66)" stroke-width="1px" opacity="0.25"></line><line x1="21.4751664797465" y1="0" x2="21.4751664797465" y2="176.5999994277954" fill="rgb(0, 0, 0)" stroke="rgb(66, 66, 66)" stroke-width="1px" opacity="0.25"></line><line x1="42.950332959493" y1="0" x2="42.950332959493" y2="176.5999994277954" fill="rgb(0, 0, 0)" stroke="rgb(66, 66, 66)" stroke-width="1px" opacity="0.25"></line><line x1="64.4254994392395" y1="0" x2="64.4254994392395" y2="176.5999994277954" fill="rgb(0, 0, 0)" stroke="rgb(66, 66, 66)" stroke-width="1px" opacity="0.25"></line><line x1="85.900665918986" y1="0" x2="85.900665918986" y2="176.5999994277954" fill="rgb(0, 0, 0)" stroke="rgb(66, 66, 66)" stroke-width="1px" opacity="0.25"></line><line x1="107.37583239873251" y1="0" x2="107.37583239873251" y2="176.5999994277954" fill="rgb(0, 0, 0)" stroke="rgb(66, 66, 66)" stroke-width="1px" opacity="0.25"></line><line x1="128.850998878479" y1="0" x2="128.850998878479" y2="176.5999994277954" fill="rgb(0, 0, 0)" stroke="rgb(66, 66, 66)" stroke-width="1px" opacity="0.25"></line><line x1="150.32616535822552" y1="0" x2="150.32616535822552" y2="176.5999994277954" fill="rgb(0, 0, 0)" stroke="rgb(66, 66, 66)" stroke-width="1px" opacity="0.25"></line><line x1="171.801331837972" y1="0" x2="171.801331837972" y2="176.5999994277954" fill="rgb(0, 0, 0)" stroke="rgb(66, 66, 66)" stroke-width="1px" opacity="0.25"></line><line x1="193.2764983177185" y1="0" x2="193.2764983177185" y2="176.5999994277954" fill="rgb(0, 0, 0)" stroke="rgb(66, 66, 66)" stroke-width="1px" opacity="0.25"></line><line x1="214.75166479746503" y1="0" x2="214.75166479746503" y2="176.5999994277954" fill="rgb(0, 0, 0)" stroke="rgb(66, 66, 66)" stroke-width="1px" opacity="0.25"></line><line x1="236.2268312772115" y1="0" x2="236.2268312772115" y2="176.5999994277954" fill="rgb(0, 0, 0)" stroke="rgb(66, 66, 66)" stroke-width="1px" opacity="0.25"></line><line x1="257.701997756958" y1="0" x2="257.701997756958" y2="176.5999994277954" fill="rgb(0, 0, 0)" stroke="rgb(66, 66, 66)" stroke-width="1px" opacity="0.25"></line></g><g><line x1="0" y1="176.5999994277954" x2="257.701997756958" y2="176.5999994277954" fill="rgb(0, 0, 0)" stroke="rgb(66, 66, 66)" stroke-width="1px" opacity="0.25"></line><line x1="0" y1="154.52499949932098" x2="257.701997756958" y2="154.52499949932098" fill="rgb(0, 0, 0)" stroke="rgb(66, 66, 66)" stroke-width="1px" opacity="0.25"></line><line x1="0" y1="132.44999957084656" x2="257.701997756958" y2="132.44999957084656" fill="rgb(0, 0, 0)" stroke="rgb(66, 66, 66)" stroke-width="1px" opacity="0.25"></line><line x1="0" y1="110.37499964237213" x2="257.701997756958" y2="110.37499964237213" fill="rgb(0, 0, 0)" stroke="rgb(66, 66, 66)" stroke-width="1px" opacity="0.25"></line><line x1="0" y1="88.2999997138977" x2="257.701997756958" y2="88.2999997138977" fill="rgb(0, 0, 0)" stroke="rgb(66, 66, 66)" stroke-width="1px" opacity="0.25"></line><line x1="0" y1="66.22499978542328" x2="257.701997756958" y2="66.22499978542328" fill="rgb(0, 0, 0)" stroke="rgb(66, 66, 66)" stroke-width="1px" opacity="0.25"></line><line x1="0" y1="44.14999985694885" x2="257.701997756958" y2="44.14999985694885" fill="rgb(0, 0, 0)" stroke="rgb(66, 66, 66)" stroke-width="1px" opacity="0.25"></line><line x1="0" y1="22.074999928474426" x2="257.701997756958" y2="22.074999928474426" fill="rgb(0, 0, 0)" stroke="rgb(66, 66, 66)" stroke-width="1px" opacity="0.25"></line><line x1="0" y1="0" x2="257.701997756958" y2="0" fill="rgb(0, 0, 0)" stroke="rgb(66, 66, 66)" stroke-width="1px" opacity="0.25"></line></g></g></g><g><g><line x1="0" y1="154.52499949932098" x2="257.701997756958" y2="154.52499949932098" fill="rgb(0, 0, 0)" stroke="rgb(153, 153, 153)" stroke-width="1.5px"></line></g></g><g><g><line x1="21.4751664797465" y1="0" x2="21.4751664797465" y2="176.5999994277954" fill="rgb(0, 0, 0)" stroke="rgb(153, 153, 153)" stroke-width="1.5px"></line></g></g><g><g><g><g><g><path style="fill: none;" stroke="rgb(0, 153, 136)" stroke-width="2px" d="M21.689703392879167,154.51090402294793L21.904455057676632,154.50382333781727L22.1192067224741,154.49237929515922L22.33395838727156,154.48081850516914L22.54871005206903,154.46657689423898L22.76346171686649,154.44897506978822L22.97821338166396,154.42208855412602L23.192965046461424,154.37205391687894L23.40771671125889,154.23774670059973L23.622468376056354,154.04647434271348L23.837220040853815,153.8447320711718L24.051971705651283,153.52656219410002L24.266723370448748,152.9559616356104L24.481475035246213,152.03226093871402L24.696226700043677,151.11463887424551L24.910978364841146,150.10665723114414L25.125730029638607,149.19669032413162L25.340481694436075,148.4019178185249L25.555233359233537,147.79754251870912L25.769985024031005,147.14309623248855L25.98473668882847,146.44811699614954L26.19948835362593,145.8537248917962L26.4142400184234,145.39368126882027L26.62899168322086,145.03661249319387L26.84374334801833,144.63427683539933L27.058495012815794,144.12593578176765L27.27324667761326,143.9249044594163L27.487998342410723,143.9871802042366L27.70275000720819,143.83003246759662L27.917501672005653,143.66925399480544L28.13225333680312,143.44364038251675L28.347005001600582,143.09419321678075L28.561756666398047,142.9157905069905L28.776508331195515,142.65656824037325L28.991259995992976,141.98718458518394L29.206011660790445,141.7049073681199L29.420763325587906,141.57650183416666L29.635514990385374,141.52004738226884L29.85026665518284,141.17393412352203L30.065018319980304,140.3406250782953L30.27976998477777,139.9239307635155L30.494521649575233,139.35291152060506L30.709273314372698,138.6948565983587L30.924024979170163,138.0623244997891L31.138776643967628,137.65784312571506L31.353528308765092,136.59943013824568L31.56827997356256,135.72697601638305L31.783031638360022,135.08450824573205L31.99778330315749,133.46234606639496L32.21253496795495,132.5379965254751L32.42728663275242,131.87471952673582L32.64203829754989,131.17888264527795L32.85678996234735,130.93737069170788L33.07154162714481,129.50549803650034L33.28629329194228,128.40222479428294L33.50104495673974,127.35790592280453L33.71579662153721,124.53079623097054L33.93054828633468,122.3267702035713L34.14529995113214,122.30858714134283L34.3600516159296,122.18192960552899L34.574803280727075,122.56965711462104L34.789554945524536,121.39989307166304L35.004306610322,122.06721624409934L35.21905827511946,121.995566019627L35.43380993991693,122.2762694623898L35.648561604714395,121.99683104338185L35.863313269511856,121.55985502006823L36.078064934309324,120.20285905908905L36.292816599106786,120.16808867845106L36.507568263904254,119.82558824250161L36.72231992870172,119.63763730984552L36.937071593499184,118.91189185447315L37.151823258296645,118.38617097562667L37.36657492309412,117.53915171779916L37.58132658789158,116.1509325607244L37.79607825268904,115.3026827540446L38.010829917486504,113.16091404250375L38.22558158228397,111.70195659631328L38.44033324708144,110.8549331318178L38.6550849118789,108.3644254455353L38.86983657667637,105.89608963675529L39.08458824147383,105.74805289324891L39.2993399062713,104.01029828334555L39.51409157106877,103.3285436554274L39.72884323586623,100.20610466387511L39.94359490066369,95.51779716916158L40.15834656546116,93.52819185219337L40.37309823025863,90.7686193789387L40.58784989505609,90.79266844968099L40.80260155985355,90.89281236556945L41.01735322465102,92.5549321549108L41.232104889448486,91.13585610505828L41.44685655424595,90.54891649135917L41.661608219043416,88.50417342997318L41.87635988384088,88.18783665132128L42.091111548638345,87.13767325726815L42.30586321343581,87.61181452700356L42.520614878233275,89.25989247554028L42.735366543030736,90.07341076830551L42.950118207828204,86.21303317248864L43.16486987262567,86.30339527334868L43.379621537423134,86.00693760166251L43.594373202220595,86.55078021920264L43.80912486701806,86.46463316861937L44.02387653181553,86.19674734519302L44.23862819661299,85.77621097593392L44.45337986141046,82.57162176397297L44.66813152620792,79.91452507126667L44.882883191005384,79.68883369125466L45.09763485580286,81.3329873623808L45.31238652060032,82.47169413162506L45.52713818539778,84.47094949833632L45.74188985019525,84.64814928578937L45.95664151499272,85.0123125842708L46.17139317979018,85.30698249794628L46.38614484458764,85.81229966458626L46.60089650938511,87.57373905268564L46.81564817418257,88.13363362621358L47.03039983898004,88.38105482279359L47.24515150377751,88.9794255958995L47.45990316857497,89.58342478599945L47.67465483337243,87.79088135248051L47.889406498169905,87.86695013959358L48.104158162967366,88.77568457449658L48.31890982776483,90.81081743190182L48.533661492562295,90.12703958713124L48.748413157359764,91.9101704446352L48.963164822157225,91.8670912938464L49.177916486954686,93.77843466246796L49.392668151752154,94.88648154989117L49.607419816549616,93.6258903387585L49.822171481347084,92.81246206648613L50.03692314614455,92.95608099150472L50.25167481094201,95.26819960828728L50.466426475739475,96.27947134525007L50.68117814053695,96.80983820960007L50.89592980533441,98.5959145177127L51.11068147013187,98.14068509911596L51.325433134929334,98.3018305127318L51.5401847997268,99.88243462456538L51.75493646452427,99.03876512179058L51.96968812932173,98.20782135601372L52.1844397941192,99.11173545574125L52.39919145891666,99.96267106860525L52.61394312371413,99.93480882754986L52.8286947885116,100.38326733029943L53.04344645330906,101.55544398582053L53.25819811810652,101.48086871317567L53.472949782903996,103.7457636541539L53.68770144770146,104.30935506813455L53.90245311249892,105.73561767613916L54.11720477729638,104.4074743476916L54.33195644209385,103.87872305112404L54.546708106891316,102.90612134426404L54.76145977168878,102.10839236653499L54.976211436486246,99.2071832370944L55.19096310128371,94.54671972896396L55.405714766081175,92.3745156947612L55.62046643087864,90.1280099495161L55.835218095676105,88.90677853382688L56.049969760473566,87.35457042584437L56.264721425271034,86.42822637007696L56.4794730900685,82.6279765089103L56.694224754865964,83.11591132778365L56.908976419663425,83.80000974101259L57.12372808446089,84.36885686752196L57.33847974925836,85.11923080800703L57.55323141405582,85.80805415932701L57.76798307885329,87.00961285902724L57.98273474365075,88.21337438831416L58.19748640844822,87.04629917772745L58.41223807324569,88.42349376373353L58.62698973804315,89.09799470736026L58.84174140284061,87.76467507648442L59.05649306763808,86.41658791395537L59.27124473243555,83.02761050709228L59.48599639723301,83.31389883067872L59.70074806203047,81.83126546921494L59.91549972682794,79.73628101931693L60.13025139162541,76.64678421837297L60.34500305642287,75.9540814605747L60.55975472122034,67.94218233514061L60.7745063860178,64.15492511369929L60.98925805081526,57.58984905747356L61.204009715612735,54.75279104890637L61.418761380410196,46.70231008558789L61.63351304520766,40.773558709271455L61.848264710005125,30.96804225596908L62.063016374802594,23.940251031599214L62.277768039600055,19.5620111266859L62.492519704397516,18.791394462458037L62.707271369194984,19.647501956382463L62.922023033992446,20.198594912404744L63.136774698789914,22.74283088905975L63.35152636358738,25.39091517376967L63.56627802838484,28.866824791963552L63.781029693182305,32.29493204008512L63.99578135797978,32.38010523000488L64.21053302277724,36.285014582497375L64.4252846875747,43.11698047654919L64.64003635237218,51.02132653471877L64.85478801716962,57.32995665034552L65.0695396819671,59.92265537970508L65.28429134676456,65.97275036105243L65.49904301156202,70.92856595879242L65.7137946763595,76.76767480298125L65.92854634115696,80.44668200850056L66.14329800595442,83.07230311330046L66.3580496707519,86.79621252239794L66.57280133554936,90.65425811201366L66.78755300034682,92.82621399829037L67.00230466514428,96.32039736556051L67.21705632994176,98.34595981687568L67.43180799473922,100.37921119870944L67.64655965953668,103.2906301161756L67.86131132433415,106.22765017127462L68.0760629891316,108.21854046029054L68.29081465392908,109.79212353995395L68.50556631872655,111.58560812939383L68.720317983524,112.99456708093669L68.93506964832147,115.29844437690808L69.14982131311893,116.92903230202025L69.3645729779164,115.56484048706048L69.57932464271387,116.82667771594461L69.79407630751132,117.47474859946605L70.0088279723088,117.86358204925692L70.22357963710627,115.99026936060085L70.43833130190372,115.33552500711254L70.65308296670119,114.87262979267922L70.86783463149865,116.58627768908735L71.08258629629611,117.05659205893657L71.29733796109359,115.94811279729757L71.51208962589105,115.9147825151039L71.72684129068851,117.1223931901349L71.94159295548599,116.22431912633654L72.15634462028345,116.84419662755329L72.37109628508091,116.22828823906268L72.58584794987837,117.26723022447926L72.80059961467585,118.1388657841169L73.01535127947331,118.5366392260837L73.23010294427077,118.43836266118241L73.44485460906824,119.37750723299006L73.65960627386569,121.00689050477864L73.87435793866317,119.92563369426746L74.08910960346063,120.23096648791609L74.30386126825809,121.37964428423567L74.51861293305556,122.63062179060123L74.73336459785301,123.91375845847513L74.94811626265049,122.95080962356111L75.16286792744796,123.39244350336307L75.37761959224541,124.82652934576821L75.59237125704288,122.87956910088499L75.80712292184036,119.15000900222589L76.02187458663781,117.60059188483802L76.23662625143528,112.82820290391273L76.45137791623274,106.8480573328678L76.6661295810302,100.9662119220691L76.88088124582768,98.87768371971656L77.09563291062514,90.9221927529046L77.3103845754226,88.7586196496818L77.52513624022006,85.41241334640972L77.73988790501754,82.03612243813804L77.954639569815,82.52504469019856L78.16939123461246,83.77866394901334L78.38414289940994,80.56960517659716L78.5988945642074,81.20311242563716L78.81364622900486,84.78117911945894L79.02839789380234,85.38570921523072L79.24314955859978,85.00902915401063L79.45790122339726,88.77820299223623L79.67265288819472,91.30392869648318L79.88740455299218,94.18844801196431L80.10215621778966,97.13232683264896L80.3169078825871,100.24823592310857L80.53165954738458,102.9118019217293L80.74641121218205,104.01560564802595L80.9611628769795,105.97381969247412L81.17591454177698,107.7391758712362L81.39066620657444,109.1126333900553L81.6054178713719,109.7854230466275L81.82016953616937,110.90857005197248L82.03492120096683,112.6673939498477L82.2496728657643,114.66105038131069L82.46442453056177,116.29028878564726L82.67917619535923,118.1613292936542L82.8939278601567,117.9558553023772L83.10867952495416,119.2650114573644L83.32343118975163,120.74558250726969L83.53818285454909,121.61360263068993L83.75293451934655,122.71817664740868L83.96768618414403,123.00428350554209L84.18243784894148,124.2768136572464L84.39718951373895,125.74382635442558L84.61194117853643,127.1409997804875L84.82669284333387,126.94397771810192L85.04144450813135,126.22066555952833L85.25619617292881,126.07945222041224L85.47094783772627,126.84668121179476L85.68569950252375,126.45782879474615L85.9004511673212,126.91642115976086L86.11520283211867,127.56922881793601L86.32995449691614,127.20140081528001L86.54470616171359,127.94774075963704L86.75945782651107,127.09826912056648L86.97420949130853,128.1155988323153L87.18896115610599,129.159739720414L87.40371282090346,127.89130871029232L87.61846448570093,129.00935031404674L87.83321615049839,130.67929030901507L88.04796781529586,131.0256862400808L88.26271948009332,130.42672702494235L88.47747114489079,130.90020934670537L88.69222280968825,130.4095110244989L88.90697447448572,130.65868651931754L89.12172613928318,131.23190632771838L89.33647780408064,131.86619911997562L89.55122946887812,131.9084636305572L89.76598113367557,132.47785052293167L89.98073279847304,133.38649279506762L90.1954844632705,134.40331722035756L90.41023612806796,134.87537767081432L90.62498779286544,135.46960382314157L90.83973945766289,135.75904975842323L91.05449112246036,136.3154638978689L91.26924278725784,136.74458652295388L91.48399445205528,137.3246705252698L91.69874611685276,137.70399500370323L91.91349778165024,137.67998656779667L92.12824944644768,137.70884090961397L92.34300111124516,137.2620707285843L92.55775277604262,138.0748394972664L92.77250444084008,138.62290509085116L92.98725610563756,139.08233231876378L93.20200777043502,139.6262563685888L93.41675943523248,139.039021574591L93.63151110002994,139.33822439211357L93.84626276482742,139.25293135757175L94.06101442962488,139.65936871184752L94.27576609442234,139.5971807623557L94.49051775921981,138.81204106890232L94.70526942401727,139.20461511710687L94.92002108881474,138.98104031932658L95.13477275361221,139.08186900558675L95.34952441840966,139.55141439077383L95.56427608320713,139.90499590926106L95.7790277480046,139.9992357468544L95.99377941280206,139.69842025120465L96.20853107759953,139.79013618917924L96.42328274239698,139.4991709283493L96.63803440719445,139.08774374040578L96.85278607199193,138.0538398323003L97.06753773678938,137.79442334856878L97.28228940158685,137.7196893945517L97.49704106638431,137.219240285134L97.71179273118177,136.74380066764292L97.92654439597925,137.46654442692403L98.14129606077671,138.16623277501975L98.35604772557417,138.17263364480337L98.57079939037165,139.62968127638607L98.78555105516911,140.55218839901104L99.00030271996657,141.0210464389865L99.21505438476403,140.8932936370615L99.4298060495615,141.4122731896208L99.64455771435897,141.58251015872534L99.85930937915643,141.5803407915862L100.0740610439539,142.20668054425295L100.28881270875135,142.68382662502827L100.50356437354883,143.09550170595165L100.7183160383463,143.63928401120646L100.93306770314375,143.70404013111562L101.14781936794122,142.85298399725352L101.36257103273869,142.96071780220834L101.57732269753615,142.20833375056162L101.79207436233362,142.19423482154866L102.00682602713107,142.91552716217075L102.22157769192854,143.53915620724692L102.43632935672602,144.1994132222345L102.65108102152347,144.4556686858748L102.86583268632094,145.10469287132736L103.0805843511184,145.26604216729058L103.29533601591586,145.40130567600158L103.51008768071334,145.01871704349006L103.7248393455108,144.5484976829651L103.93959101030826,144.23898265819633L104.15434267510574,144.11092567980305L104.3690943399032,144.38960866259544L104.58384600470066,144.35716775244614L104.79859766949812,144.43629237429752L105.0133493342956,144.376279133488L105.22810099909306,144.0617328574999L105.44285266389052,143.85154116402873L105.657604328688,144.40431063467472L105.87235599348544,144.56799667809736L106.08710765828292,144.87433154894936L106.30185932308038,145.2645738287055L106.51661098787784,145.1546488948754L106.73136265267532,145.53607432226715L106.94611431747276,145.65769264863135L107.16086598227024,145.95169867962977L107.37561764706771,146.31650277860575L107.59036931186516,146.54468627970303L107.80512097666264,146.795360674812L108.01987264146011,146.8544978518798L108.23462430625756,146.78556285895587L108.44937597105503,146.97530899086792L108.6641276358525,147.28618548145337L108.87887930064996,147.33980438619326L109.09363096544743,147.65314843977293L109.30838263024489,147.88228331161272L109.52313429504235,148.26527207338202L109.73788595983982,148.11356567270644L109.95263762463729,148.083841847798L110.16738928943475,148.2744654162659L110.38214095423221,148.51463862828484L110.59689261902969,148.80216049165833L110.81164428382715,148.81264336110493L111.02639594862461,148.70509157918752L111.24114761342209,148.339749262072L111.45589927821953,148.696271701596L111.67065094301701,148.32237884861863L111.88540260781447,148.65237174879914L112.10015427261193,148.6912905337842L112.3149059374094,148.74849256081802L112.52965760220685,149.01807122433766L112.74440926700433,149.19776978461869L112.9591609318018,149.25877392592778L113.17391259659925,149.35002324393398L113.38866426139673,148.96768116012618L113.60341592619419,149.16551105269667L113.81816759099165,149.31432114323633L114.03291925578912,149.4144883135533L114.24767092058659,149.40289371529576L114.46242258538405,149.62244971716166L114.67717425018152,149.55473111795365L114.89192591497898,149.72203953369174L115.10667757977644,149.55237926958497L115.3214292445739,149.63200444497664L115.53618090937138,149.6651841193855L115.75093257416884,149.7674530310915L115.9656842389663,149.88573866342043L116.18043590376378,149.8899875331933L116.39518756856123,150.13602030437295L116.6099392333587,149.95641623635777L116.82469089815618,150.09071434525694L117.03944256295362,150.10795993914434L117.2541942277511,149.92065241038927L117.46894589254856,149.93743262051842L117.68369755734602,150.20152283212107L117.8984492221435,150.08497357256425L118.11320088694094,150.16644564971955L118.32795255173842,150.26944999062724L118.5427042165359,150.16279484542042L118.75745588133334,150.19846359637089L118.97220754613082,149.77251235737765L119.18695921092828,149.17359795805342L119.40171087572574,148.00354912149677L119.61646254052322,146.34765581096204L119.83121420532068,144.95407185153914L120.04596587011814,143.64205219135349L120.26071753491561,142.83707984742202L120.47546919971307,142.57212206809473L120.69022086451054,140.41515379343977L120.904972529308,140.3769835990956L121.11972419410547,139.54657038444438L121.33447585890293,139.89191775745L121.5492275237004,139.79633026368776L121.76397918849787,140.35185118673525L121.97873085329532,141.12593616812362L122.1934825180928,140.8621839458293L122.40823418289025,141.59578413392737L122.62298584768772,141.529931974509L122.83773751248519,141.90565776572785L123.05248917728264,142.04209654620743L123.26724084208011,141.67950466043746L123.48199250687759,141.5488031120595L123.69674417167504,141.8900261788585L123.91149583647251,142.60093617155871L124.12624750126999,142.07523204508894L124.34099916606743,142.8489397135543L124.55575083086491,143.3021712921314L124.77050249566237,142.95033914474072L124.98525416045983,143.20521710505255L125.2000058252573,143.66647080333973L125.41475749005477,143.74837278557428L125.62950915485223,144.02761308435353L125.84426081964969,144.67724576266968L126.05901248444717,145.03559031175976L126.27376414924463,145.53538751802924L126.48851581404209,145.30231398947177L126.70326747883956,145.3386414175824L126.91801914363703,145.5696774832568L127.13277080843449,145.88873712927625L127.34752247323196,145.81351816289737L127.56227413802941,146.01082932440923L127.77702580282688,146.36656572627464L127.99177746762435,146.75447808137994L128.20652913242182,147.0296608307209L128.42128079721928,147.26207425747936L128.63603246201674,147.65052021826168L128.8507841268142,147.76148503349435L129.06553579161167,147.97849210163463L129.28028745640916,148.12480662128655L129.49503912120662,147.95950748154476L129.70979078600405,147.9188305106107L129.92454245080154,147.77437364247797L130.139294115599,147.76313003819774L130.35404578039646,147.62309057710368L130.56879744519392,147.24579239486064L130.78354910999138,147.28616997253013L130.99830077478885,147.4199339027757L131.2130524395863,147.5184661666896L131.4278041043838,147.61318479210024L131.64255576918126,147.81022708232516L131.85730743397872,148.17206746367864L132.07205909877618,148.48446858506287L132.28681076357364,148.62387065280117L132.5015624283711,148.55134933815148L132.7163140931686,148.58082037239092L132.93106575796605,148.55484095375778L133.1458174227635,148.80528309653076L133.36056908756095,148.87638394053198L133.57532075235844,149.21649701036884L133.7900724171559,149.32573172770657L134.00482408195336,149.48990355696148L134.21957574675085,149.53744636052645L134.4343274115483,149.71596741734584L134.64907907634574,149.95183576343064L134.86383074114323,150.00299351676338L135.0785824059407,150.1152053698334L135.29333407073815,150.22512111916137L135.50808573553564,150.21467398345365L135.7228374003331,150.46862275795476L135.93758906513054,150.37886981073132L136.152340729928,150.52917989363914L136.3670923947255,150.6244576373229L136.58184405952295,150.85900833647187L136.7965957243204,150.9304995536686L137.01134738911787,150.91210714292055L137.22609905391533,151.0344611923173L137.4408507187128,151.10060420900666L137.65560238351028,150.64257372441648L137.87035404830775,150.79288077069324L138.0851057131052,150.8740920303997L138.29985737790267,150.99903001746276L138.51460904270013,151.03523466803145L138.7293607074976,151.06879002619732L138.94411237229505,151.09420645743376L139.15886403709254,151.17319195025533L139.37361570189,151.19206657413307L139.58836736668744,151.2149132724167L139.80311903148493,151.23328609086695L140.0178706962824,151.41853052827918L140.23262236107985,151.4362752444718L140.44737402587734,151.3512888673261L140.6621256906748,151.25830613379358L140.87687735547223,151.14088393697514L141.0916290202697,151.17469601225162L141.30638068506718,150.75638888146585L141.52113234986464,150.87204030001203L141.7358840146621,151.06978527556484L141.95063567945957,151.05255287938587L142.16538734425703,151.16263042838045L142.3801390090545,151.34181611092714L142.59489067385198,151.39491773495465L142.80964233864944,151.48458027078675L143.0243940034469,151.43182600782546L143.23914566824436,151.53474470330946L143.45389733304182,151.6007945978369L143.66864899783928,151.55131205853678L143.88340066263675,151.67500631595055L144.09815232743424,151.70500085838128L144.3129039922317,151.7891209559372L144.52765565702913,151.90970254566534L144.74240732182662,152.037666931802L144.95715898662408,152.04010002245602L145.17191065142154,152.12488382819933L145.38666231621903,152.15059537305248L145.6014139810165,152.1605525013873L145.81616564581392,152.02289589411743L146.03091731061141,151.8603881586727L146.24566897540888,151.99586439564231L146.46042064020634,151.97478886288658L146.6751723050038,151.9681132655217L146.88992396980126,152.13372563451853L147.10467563459872,152.20861398098293L147.31942729939618,152.00739936408627L147.53417896419367,152.0080966959622L147.74893062899113,152.01401078722225L147.9636822937886,152.11053493285766L148.17843395858606,152.16933764442996L148.39318562338352,152.21425702839343L148.60793728818098,152.29035259101425L148.82268895297847,152.3213258977828L149.03744061777593,152.4478461550735L149.2521922825734,152.17020185882245L149.46694394737082,152.33494887559286L149.6816956121683,152.42065074578846L149.89644727696577,152.28218659644418L150.11119894176323,152.44482396653544L150.32595060656072,152.32071596590256L150.54070227135819,152.47973476946575L150.75545393615562,152.5363089536089L150.9702056009531,152.5928236338719L151.18495726575057,152.6662113857577L151.39970893054803,152.73733678738327L151.61446059534552,152.7587439741857L151.82921226014298,152.83379450188235L152.0439639249404,152.85597338214728L152.25871558973788,152.69702907753077L152.47346725453536,152.75548495300694L152.68821891933283,152.8277105633968L152.9029705841303,152.69702053567585L153.11772224892775,152.75429403371905L153.3324739137252,152.7868754447301L153.54722557852267,152.82867601721352L153.76197724332016,152.88248165293732L153.97672890811762,152.995494978352L154.19148057291508,153.01765567129172L154.40623223771254,153.0345958568487L154.62098390251,153.04099660265328L154.83573556730747,153.09246545295005L155.05048723210493,153.0627422967419L155.26523889690242,153.1015989904216L155.47999056169988,153.05659343473852L155.6947422264973,153.02191858991156L155.9094938912948,153.08786786541495L156.12424555609226,153.14901719040398L156.33899722088972,153.12062965437647L156.5537488856872,153.10706672460017L156.76850055048467,153.19465544992195L156.9832522152821,153.1629598417831L157.19800388007957,153.14312365470784L157.41275554487706,153.21007100274915L157.62750720967452,153.16863919919703L157.84225887447198,153.21747099117806L158.05701053926944,153.22243651863863L158.2717622040669,153.19117582802363L158.48651386886436,153.17289082684042L158.70126553366185,153.19758750683866L158.91601719845931,153.21344583578568L159.13076886325678,153.20617009496667L159.34552052805424,153.21972978325834L159.5602721928517,153.27522591890934L159.77502385764916,153.27819381990068L159.98977552244662,153.32486801651532L160.2045271872441,153.31405469707556L160.41927885204157,153.31651662262632L160.634030516839,153.27123577366316L160.8487821816365,153.33882986698723L161.06353384643396,153.31342010209764L161.27828551123142,153.348947890877L161.4930371760289,153.30427730319053L161.70778884082637,153.314692558699L161.9225405056238,153.35396102155045L162.1372921704213,153.39440749025815L162.35204383521875,153.4090522701668L162.5667955000162,153.41107723784003L162.78154716481367,153.40366152202452L162.99629882961113,153.4221734682596L163.2110504944086,153.47165137878824L163.42580215920606,153.47952437240642L163.64055382400355,153.51123660423184L163.855305488801,153.50236364751262L164.07005715359847,153.4742190184344L164.28480881839593,153.49191414891527L164.4995604831934,153.51200873682413L164.71431214799085,153.34220373566106L164.92906381278834,153.4077166363914L165.1438154775858,153.4697621676302L165.35856714238327,153.49370179512377L165.5733188071807,153.51205802104698L165.7880704719782,153.5368571957454L166.00282213677565,153.4947803475982L166.2175738015731,153.49562739310042L166.4323254663706,153.51920031360387L166.64707713116806,153.5799196098682L166.8618287959655,153.580556034765L167.07658046076298,153.62544289371206L167.29133212556044,153.5078790730899L167.5060837903579,153.50837736740579L167.7208354551554,153.53811482503286L167.93558711995286,153.59989268087352L168.1503387847503,153.61728937376137L168.36509044954775,153.6099442482059L168.57984211434524,153.6182960571659L168.7945937791427,153.61500223911125L169.00934544394016,153.5852046881506L169.22409710873762,153.58446890145004L169.43884877353509,153.6245404642567L169.65360043833255,153.6630850920102L169.86835210313004,153.6659683289219L170.0831037679275,153.70658331774695L170.29785543272496,153.70671367924453L170.51260709752242,153.75246462270985L170.72735876231988,153.76993188072555L170.94211042711734,153.73815796469876L171.1568620919148,153.70677311501967L171.3716137567123,153.71692532856503L171.58636542150975,153.7304941534646L171.8011170863072,153.7038558351717L172.01586875110468,153.68725026520843L172.23062041590214,153.69245453113987L172.4453720806996,153.72165464883054L172.6601237454971,153.72971659051913L172.87487541029455,153.77676798731488L173.08962707509198,153.7710242066205L173.30437873988944,153.7382758772551L173.51913040468693,153.75675595628422L173.7338820694844,153.72433051378778L173.94863373428186,153.7547974081144L174.16338539907932,153.74642561895425L174.37813706387678,153.7392729345415L174.59288872867424,153.7649731107754L174.80764039347173,153.75222765119867L175.0223920582692,153.76062518303223L175.23714372306665,153.76023352321556L175.4518953878641,153.777777843286L175.66664705266157,153.76160842516313L175.88139871745904,153.6885559048519L176.0961503822565,153.6619137990834L176.310902047054,153.68955886081952L176.52565371185145,153.6747232344935L176.74040537664888,153.67506995296705L176.95515704144637,153.71999835694007L177.16990870624383,153.7502860539966L177.3846603710413,153.78871421827344L177.59941203583878,153.78524115663942L177.81416370063624,153.7709785773302L178.02891536543368,153.78522456243135L178.24366703023117,153.81105746776174L178.45841869502863,153.75324384269155L178.6731703598261,153.78589032659417L178.88792202462355,153.7886761004942L179.102673689421,153.75494871949803L179.31742535421847,153.76489681490568L179.53217701901593,153.75864555422493L179.74692868381342,153.78918352379853L179.96168034861088,153.7458609530331L180.17643201340834,153.7608522275625L180.3911836782058,153.77372841054952L180.60593534300327,153.80219912715916L180.82068700780073,153.76278616027173L181.03543867259822,153.77390790275058L181.25019033739568,153.71762454455308L181.46494200219314,153.68660601444L181.67969366699057,153.65191286703634L181.89444533178806,153.69721343357253L182.10919699658552,153.74149922319356L182.32394866138299,153.72859097000483L182.53870032618048,153.73630064886666L182.75345199097794,153.71740579260722L182.96820365577537,153.71606522493786L183.18295532057286,153.71006128062592L183.39770698537032,153.7388253223714L183.61245865016778,153.6938971359554L183.82721031496527,153.67023739285506L184.04196197976273,153.6922369197334L184.25671364456016,153.69458831655024L184.47146530935763,153.66835009928263L184.68621697415512,153.68798689279527L184.90096863895258,153.67009644030503L185.11572030375004,153.66605697338684L185.3304719685475,153.64147050854496L185.54522363334496,153.65109685835083L185.75997529814242,153.64654083288477L185.9747269629399,153.63251148940176L186.18947862773737,153.63629747184976L186.40423029253483,153.61607914665836L186.6189819573323,153.6436165804226L186.83373362212976,153.6442750973923L187.04848528692722,153.65860188483083L187.26323695172468,153.66519964688968L187.47798861652217,153.67882868794203L187.69274028131963,153.64835116526464L187.90749194611706,153.7026515443764L188.12224361091455,153.61530922030673L188.336995275712,153.55779954708805L188.55174694050947,153.6125850199709L188.76649860530696,153.64020025128076L188.98125027010443,153.64313443462453L189.19600193490186,153.65264118383752L189.41075359969932,153.654251931986L189.6255052644968,153.68531645020815L189.84025692929427,153.68468345824002L190.05500859409173,153.70570756634288L190.2697602588892,153.67490080510123L190.48451192368665,153.72482632630908L190.69926358848411,153.68537354254386L190.9140152532816,153.7056417722691L191.12876691807907,153.6980018421953L191.34351858287653,153.7184167649441L191.558270247674,153.71584311082003L191.77302191247145,153.70749741374507L191.9877735772689,153.75451382357394L192.20252524206637,153.741057007011L192.41727690686386,153.74170299417244L192.63202857166132,153.75874033746553L192.84678023645876,153.76292928104883L193.06153190125625,153.79815585700243L193.2762835660537,153.8047701702415L193.49103523085117,153.82339013129337L193.70578689564866,153.86529510810206L193.92053856044612,153.88251866788707L194.13529022524355,153.90351678274524L194.35004189004104,153.90599970319843L194.5647935548385,153.88471167823573L194.77954521963596,153.85268874397093L194.99429688443342,153.86892151233687L195.20904854923089,153.86555677128158L195.42380021402835,153.87417434858463L195.6385518788258,153.90317077000324L195.8533035436233,153.85788896585265L196.06805520842076,153.87980908110154L196.28280687321822,153.91271125752138L196.49755853801568,153.9024994649259L196.71231020281314,153.92817722443874L196.9270618676106,153.92670896181582L197.1418135324081,153.94397832472214L197.35656519720555,153.95490035336186L197.57131686200302,153.931518684643L197.78606852680045,153.93378827113165L198.00082019159794,153.93511744553504L198.2155718563954,153.8864175016992L198.43032352119286,153.87093576217262L198.64507518599035,153.8883924451922L198.8598268507878,153.89875001491097L199.07457851558524,153.9029012270924L199.28933018038273,153.9176942848894L199.5040818451802,153.88483027517518L199.71883350997766,153.89179676121614L199.93358517477515,153.89240880130708L200.1483368395726,153.86184377645986L200.36308850437004,153.88348596719098L200.5778401691675,153.90520540619727L200.792591833965,153.92845808592713L201.00734349876245,153.88636740289274L201.2220951635599,153.85882297965244L201.43684682835737,153.85511784079065L201.65159849315484,153.891522469026L201.8663501579523,153.87447506936405L202.0811018227498,153.8794751327723L202.29585348754725,153.88196836500896L202.5106051523447,153.89197657391458L202.72535681714217,153.88437671465033L202.94010848193963,153.9097614325638L203.1548601467371,153.90233753876007L203.36961181153455,153.92784599347186L203.58436347633204,153.92631506080775L203.7991151411295,153.9063109354649L204.01386680592694,153.84190147961812L204.22861847072443,153.83896957544115L204.4433701355219,153.8283663984417L204.65812180031935,153.8162170914312L204.87287346511684,153.82892256124507L205.0876251299143,153.84156347783482L205.30237679471173,153.87080373741372L205.5171284595092,153.87536497916116L205.73188012430668,153.89333091660643L205.94663178910415,153.90463829972268L206.1613834539016,153.9108815644134L206.37613511869907,153.92019431845162L206.59088678349653,153.91156600874143L206.805638448294,153.91715130962706L207.02039011309148,153.89700721887232L207.23514177788894,153.91627484218623L207.4498934426864,153.93495919767034L207.66464510748386,153.91926239458977L207.87939677228132,153.87885440552174L208.0941484370788,153.8310775521859L208.30890010187625,153.84891287182774L208.52365176667374,153.88908749707662L208.7384034314712,153.89671640555753L208.95315509626863,153.90931960863418L209.16790676106612,153.9061160179842L209.38265842586358,153.92040600632765L209.59741009066104,153.91889340580823L209.81216175545853,153.88886522072306L210.026913420256,153.90171279994632L210.24166508505343,153.8560296471519L210.45641674985092,153.8708868082024L210.67116841464838,153.90320612653045L210.88592007944584,153.90289658761958L211.1006717442433,153.9239191583625L211.31542340904076,153.93460751705305L211.53017507383822,153.9440160371688L211.74492673863568,153.95601893035533L211.95967840343317,153.9421558965652L212.17443006823063,153.95460462744822L212.3891817330281,153.90261943303022L212.60393339782556,153.877214294354L212.81868506262302,153.92016258964298L213.03343672742048,153.91463866579792L213.24818839221797,153.89560635912093L213.46294005701543,153.89618770389842L213.6776917218129,153.90058959639043L213.89244338661032,153.91207686043265L214.1071950514078,153.94297160478166L214.32194671620528,153.968840985405L214.53669838100274,153.9656545406135L214.75145004580023,153.91448467197097L214.9662017105977,153.90554023033383L215.18095337539512,153.93306666407338L215.3957050401926,153.9415468149198L215.61045670499007,153.9317826602847L215.82520836978753,153.94954549986392L216.03996003458502,153.98558885457118L216.25471169938248,153.96227086259117L216.46946336417992,153.9704542370744L216.68421502897738,153.97865043962915L216.89896669377487,153.94930485771044L217.11371835857233,153.9237670124062L217.3284700233698,153.9357423483167L217.54322168816725,153.97364726280634L217.7579733529647,153.96810370682624L217.97272501776217,153.97293437640496L218.18747668255966,153.96744501147495L218.40222834735712,153.96734663477048L218.61698001215458,153.9648096492752L218.83173167695205,153.95424372449423L219.0464833417495,153.95845796259664L219.26123500654697,153.91402554764377L219.47598667134443,153.943202622178L219.69073833614192,153.96842031659315L219.90549000093938,153.94191606693443L220.1202416657368,153.94282270668467L220.3349933305343,153.96578891943477L220.54974499533176,153.94496466810122L220.76449666012923,153.947021135485L220.97924832492671,153.9602748925281L221.19399998972418,153.9464886375109L221.4087516545216,153.94732273967128L221.62350331931907,153.97258541834407L221.83825498411656,153.98584122557713L222.05300664891402,153.93801152493427L222.26775831371148,153.94816181041713L222.48250997850894,153.96149034225715L222.6972616433064,153.964770492277L222.91201330810387,153.9439059800429L223.12676497290136,153.97523773496815L223.34151663769882,153.99175054168035L223.55626830249628,153.95076755653L223.77101996729374,153.98207908821928L223.9857716320912,153.9191055481813L224.20052329688866,153.95340272042944L224.41527496168612,153.94679426088564L224.6300266264836,153.97400566842308L224.84477829128107,153.97193027625977L225.0595299560785,153.99072653277344L225.274281620876,153.93419525543086L225.48903328567346,153.95233845328974L225.70378495047092,153.9283320676499L225.9185366152684,153.9527397364397L226.13328828006587,153.97189384257825L226.3480399448633,153.95691902503683L226.5627916096608,153.9522784364885L226.77754327445825,153.92650287293648L226.99229493925571,153.93592819095463L227.20704660405318,153.9184035471025L227.42179826885064,153.91368471434924L227.6365499336481,153.87774788969446L227.85130159844556,153.90633768313415L228.06605326324305,153.90775462786638L228.2808049280405,153.89360362259217L228.49555659283797,153.90033608483003L228.71030825763543,153.89583956293976L228.9250599224329,153.914477730659L229.13981158723035,153.91721753314815L229.35456325202784,153.92825596437086L229.5693149168253,153.932015903072L229.78406658162277,153.9585429364171L229.9988182464202,153.9633781214864L230.2135699112177,153.9562593626102L230.42832157601515,153.96602154592512L230.6430732408126,153.97193490436717L230.8578249056101,153.9751884227754L231.07257657040756,153.95809205539874L231.287328235205,153.9531765749811L231.50207990000249,153.97237671800917L231.71683156479995,153.97467105542972L231.9315832295974,153.99534316699823L232.1463348943949,153.99626519208854L232.36108655919236,154.02745505157552L232.5758382239898,154.04340586771255L232.79058988878725,153.98029109353612L233.00534155358474,153.96020609103675L233.2200932183822,153.98911401510003L233.43484488317966,154.0103837214183L233.64959654797713,154.0071228297011L233.8643482127746,153.9674270823556L234.07909987757205,153.9620014380205L234.29385154236954,153.97520771132156L234.508603207167,153.96165730999468L234.72335487196446,153.9885954582112L234.93810653676192,154.00404662796345L235.15285820155938,153.9648039841061L235.36760986635684,153.98567876221674L235.5823615311543,154.00036132226248L235.7971131959518,153.97872609070984L236.01186486074926,153.9445711666307L236.2266165255467,153.95746110949267" fill="none"></path></g></g></g></g><g opacity="0.2"><g><g><g><path style="fill: none;" stroke="rgb(0, 153, 136)" stroke-width="2px" d="M21.689703392879167,154.51090402294793L21.904455057676632,154.49815878971273L22.1192067224741,154.4758998737317L22.33395838727156,154.45825184310843L22.54871005206903,154.4329439058664L22.76346171686649,154.40163883532915L22.97821338166396,154.34273504652427L23.192965046461424,154.21388746371937L23.40771671125889,153.79064988259788L23.622468376056354,153.3840734763873L23.837220040853815,153.12441063085416L24.051971705651283,152.36320502314064L24.266723370448748,150.83040488887065L24.481475035246213,148.54058208249293L24.696226700043677,147.60558039713743L24.910978364841146,146.21659146349705L25.125730029638607,145.65927586166512L25.340481694436075,145.29441453929996L25.555233359233537,145.4235911494466L25.769985024031005,144.56303734745583L25.98473668882847,143.70025031106678L26.19948835362593,143.4980856724396L26.4142400184234,143.56708486807787L26.62899168322086,143.6167684387787L26.84374334801833,143.03253410992218L27.058495012815794,142.10025340005225L27.27324667761326,143.12320948957222L27.487998342410723,144.2356808894711L27.70275000720819,143.20265739275717L27.917501672005653,143.02713527418527L28.13225333680312,142.54230311785824L28.347005001600582,141.69778885667853L28.561756666398047,142.20274504858492L28.776508331195515,141.62033638042803L28.991259995992976,139.3110076357743L29.206011660790445,140.5762565208349L29.420763325587906,141.06304637826645L29.635514990385374,141.29428820033212L29.85026665518284,139.78976862818055L30.065018319980304,137.0079427262443L30.27976998477777,138.2573750570959L30.494521649575233,137.06907743368782L30.709273314372698,136.0628608338597L30.924024979170163,135.53236829712642L31.138776643967628,136.04000571766178L31.353528308765092,132.36596258991767L31.56827997356256,132.2372811312892L31.783031638360022,132.5147088006784L31.99778330315749,126.97384205074815L32.21253496795495,128.84066432558322L32.42728663275242,129.22164939820132L32.64203829754989,128.39556689965724L32.85678996234735,129.97133170168047L33.07154162714481,123.77804926935484L33.28629329194228,123.98915762438372L33.50104495673974,123.18064997319478L33.71579662153721,113.22239977352707L33.93054828633468,113.51069248194356L34.14529995113214,122.23585506658807L34.3600516159296,121.67530043278421L34.574803280727075,124.12056477422651L34.789554945524536,116.72084263633724L35.004306610322,124.73650631580988L35.21905827511946,121.70896534661554L35.43380993991693,123.39908252863938L35.648561604714395,120.87907792865018L35.863313269511856,119.81195162900723L36.078064934309324,114.77487695965898L36.292816599106786,120.02900719165844L36.507568263904254,118.45558678049673L36.72231992870172,118.8858337029308L36.937071593499184,116.00891041513324L37.151823258296645,116.28328768170027L37.36657492309412,114.1510749719341L37.58132658789158,110.59805630668846L37.79607825268904,111.90968371027556L38.010829917486504,104.59383956588891L38.22558158228397,105.86612701293842L38.44033324708144,107.46683936737108L38.6550849118789,98.40239492042257L38.86983657667637,96.02274657608214L39.08458824147383,105.15590592759317L39.2993399062713,97.05927992233302L39.51409157106877,100.6015251684241L39.72884323586623,87.71634878805443L39.94359490066369,76.76456729888127L40.15834656546116,85.56977062118146L40.37309823025863,79.73032952682068L40.58784989505609,90.88886473236495L40.80260155985355,91.2933880281734L41.01735322465102,99.20341129966314L41.232104889448486,85.45955191426319L41.44685655424595,88.20115803941327L41.661608219043416,80.3252011923737L41.87635988384088,86.92248953769693L42.091111548638345,82.93701968366696L42.30586321343581,89.50837960500195L42.520614878233275,95.85220426706441L42.735366543030736,93.32748393833072L42.950118207828204,70.77152279315295L43.16486987262567,86.66484367671534L43.379621537423134,84.82110691511112L43.594373202220595,88.72615068907943L43.80912486701806,86.12004496632234L44.02387653181553,85.125204051577L44.23862819661299,84.0940654990098L44.45337986141046,69.75326491681356L44.66813152620792,69.28613830089544L44.882883191005384,78.78606817123763L45.09763485580286,87.90960204670561L45.31238652060032,87.02652120850243L45.52713818539778,92.46797096504143L45.74188985019525,85.35694843559175L45.95664151499272,86.46896577818008L46.17139317979018,86.48566215263769L46.38614484458764,87.83356833113166L46.60089650938511,94.6194966050429L46.81564817418257,90.37321192031503L47.03039983898004,89.37073960911002L47.24515150377751,91.37290868831612L47.45990316857497,91.99942154639356L47.67465483337243,80.62070761841818L47.889406498169905,88.17122528804542L48.104158162967366,92.41062231410419L48.31890982776483,98.95134886151499L48.533661492562295,87.39192820805091L48.748413157359764,99.04269387464676L48.963164822157225,91.69477469069122L49.177916486954686,101.4238081369512L49.392668151752154,99.31866909958266L49.607419816549616,88.58352549422905L49.822171481347084,89.55874897739733L50.03692314614455,93.53055669157898L50.25167481094201,104.51667407541628L50.466426475739475,100.32455829310081L50.68117814053695,98.93130566699988L50.89592980533441,105.7402197501628L51.11068147013187,96.31976742472912L51.325433134929334,98.94641216719506L51.5401847997268,106.20485107189953L51.75493646452427,95.66408711069148L51.96968812932173,94.88404629290643L52.1844397941192,102.72739185465126L52.39919145891666,103.36641352006123L52.61394312371413,99.82335986332824L52.8286947885116,102.17710134129756L53.04344645330906,106.24415060790498L53.25819811810652,101.18256762259615L53.472949782903996,112.80534341806687L53.68770144770146,106.56372072405705L53.90245311249892,111.44066810815752L54.11720477729638,99.09490103390144L54.33195644209385,101.76371786485377L54.546708106891316,99.01571451682402L54.76145977168878,98.9174764556189L54.976211436486246,87.602346719332L55.19096310128371,75.9048656964422L55.405714766081175,83.68569955795013L55.62046643087864,81.1419869685358L55.835218095676105,84.02185287106994L56.049969760473566,81.14573799391428L56.264721425271034,82.72285014700739L56.4794730900685,67.42697706424359L56.694224754865964,85.06765060327716L56.908976419663425,86.53640339392837L57.12372808446089,86.64424537355943L57.33847974925836,88.12072656994732L57.55323141405582,88.56334756460693L57.76798307885329,91.8158476578282L57.98273474365075,93.02842050546184L58.19748640844822,82.3779983353806L58.41223807324569,93.93227210775785L58.62698973804315,91.79599848186714L58.84174140284061,82.43139655298101L59.05649306763808,81.0242392638392L59.27124473243555,69.47170087963991L59.48599639723301,84.45905212502446L59.70074806203047,75.9007320233599L59.91549972682794,71.35634321972485L60.13025139162541,64.2887970145972L60.34500305642287,73.18327042938157L60.55975472122034,35.894585833404385L60.7745063860178,49.00589622793394L60.98925805081526,31.329544832570647L61.204009715612735,43.40455901463761L61.418761380410196,14.500386232313932L61.63351304520766,17.058553204005648L61.848264710005125,-8.254023557240368L62.063016374802594,-4.170913865880303L62.277768039600055,2.049051507032713L62.492519704397516,15.708927805546548L62.707271369194984,23.071931932080187L62.922023033992446,22.402966736493802L63.136774698789914,32.91977479567985L63.35152636358738,35.98325231260929L63.56627802838484,42.770463264739014L63.781029693182305,46.00736103257142L63.99578135797978,32.72079798968392L64.21053302277724,51.9046519924674L64.4252846875747,70.44484405275635L64.64003635237218,82.63871076739719L64.85478801716962,82.56447711285256L65.0695396819671,70.29345029714338L65.28429134676456,90.17313028644183L65.49904301156202,90.75182834975232L65.7137946763595,100.1241101797366L65.92854634115696,95.16271083057774L66.14329800595442,93.57478753250014L66.3580496707519,101.69185015878779L66.57280133554936,106.08644047047655L66.78755300034682,101.51403754339714L67.00230466514428,110.29713083464104L67.21705632994176,106.44820962213642L67.43180799473922,108.51221672604449L67.64655965953668,114.93630578604024L67.86131132433415,117.97573039167065L68.0760629891316,116.18210161635429L68.29081465392908,116.08645585860755L68.50556631872655,118.75954648715347L68.720317983524,118.63040288710803L68.93506964832147,124.51395356079367L69.14982131311893,123.45138400246894L69.3645729779164,110.10807322722138L69.57932464271387,121.87402663148113L69.79407630751132,120.06703213355182L70.0088279723088,119.41891584842035L70.22357963710627,108.49701860597655L70.43833130190372,112.71654759315926L70.65308296670119,113.02104893494608L70.86783463149865,123.4408692747198L71.08258629629611,118.93784953833355L71.29733796109359,111.51419575074155L71.51208962589105,115.78146138632918L71.72684129068851,121.95283589025897L71.94159295548599,112.6320228711431L72.15634462028345,119.32370663242024L72.37109628508091,113.7646546851002L72.58584794987837,121.42299816614565L72.80059961467585,121.62540802266753L73.01535127947331,120.12773299395084L73.23010294427077,118.04525640157723L73.44485460906824,123.13408552022065L73.65960627386569,127.52442359193296L73.87435793866317,115.60060645222278L74.08910960346063,121.45229766251067L74.30386126825809,125.97435546951395L74.51861293305556,127.6345318160635L74.73336459785301,129.04630512997062L74.94811626265049,119.0990142839051L75.16286792744796,125.15897902257089L75.37761959224541,130.5628727153888L75.59237125704288,115.09172812135208L75.80712292184036,104.23176860758942L76.02187458663781,111.40292341528665L76.23662625143528,93.73864698021141L76.45137791623274,82.92747504868814L76.6661295810302,77.43883027887432L76.88088124582768,90.52357091030636L77.09563291062514,59.10022888565681L77.3103845754226,80.10432723679052L77.52513624022006,72.02758813332144L77.73988790501754,68.5309588050513L77.954639569815,84.48073369844055L78.16939123461246,88.79314098427253L78.38414289940994,67.73337008693247L78.5988945642074,83.73714142179715L78.81364622900486,99.093445894746L79.02839789380234,87.80382959831786L79.24314955859978,83.50230890913029L79.45790122339726,103.85489834513865L79.67265288819472,101.40683151347106L79.88740455299218,105.72652527388881L80.10215621778966,108.90784211538761L80.3169078825871,112.71187228494688L80.53165954738458,113.56606591621238L80.74641121218205,108.4308205532125L80.9611628769795,113.80667587026679L81.17591454177698,114.80060058628463L81.39066620657444,114.60646346533161L81.6054178713719,112.47658167291628L81.82016953616937,115.4011580733524L82.03492120096683,119.70268954134855L82.2496728657643,122.63567610716271L82.46442453056177,122.80724240299354L82.67917619535923,125.64549132568206L82.8939278601567,117.1339593372692L83.10867952495416,124.50163607731307L83.32343118975163,126.6678667068909L83.53818285454909,125.08568312437087L83.75293451934655,127.1364727142837L83.96768618414403,124.14871093807572L84.18243784894148,129.3669342640636L84.39718951373895,131.61187714314227L84.61194117853643,132.72969348473524L84.82669284333387,126.15588946855954L85.04144450813135,123.32741692523389L85.25619617292881,125.51459886394794L85.47094783772627,129.9155971773249L85.68569950252375,124.90241912655159L85.9004511673212,128.75079061981972L86.11520283211867,130.18045945063665L86.32995449691614,125.73008880465599L86.54470616171359,130.9331005370652L86.75945782651107,123.70038256428423L86.97420949130853,132.18491767931044L87.18896115610599,133.33630327280883L87.40371282090346,122.81758466980574L87.61846448570093,133.4815167290644L87.83321615049839,137.35905028888843L88.04796781529586,132.41126996434363L88.26271948009332,128.0308901643886L88.47747114489079,132.79413863375737L88.69222280968825,128.44671773567313L88.90697447448572,131.6553884985921L89.12172613928318,133.52478556132166L89.33647780408064,134.4033702890047L89.55122946887812,132.07752167288353L89.76598113367557,134.75539809242952L89.98073279847304,137.02106188361148L90.1954844632705,138.4706149215173L90.41023612806796,136.7636194726414L90.62498779286544,137.8465084324506L90.83973945766289,136.91683349954977L91.05449112246036,138.54112045565165L91.26924278725784,138.4610770232938L91.48399445205528,139.6450065345334L91.69874611685276,139.22129291743704L91.91349778165024,137.58395282417044L92.12824944644768,137.82425827688303L92.34300111124516,135.47499000446564L92.55775277604262,141.3259145719948L92.77250444084008,140.8151674651902L92.98725610563756,140.92004123041437L93.20200777043502,141.8019525678889L93.41675943523248,136.69008239859988L93.63151110002994,140.53503566220382L93.84626276482742,138.91175921940433L94.06101442962488,141.2851181289507L94.27576609442234,139.3484289643884L94.49051775921981,135.67148229508877L94.70526942401727,140.77491130992513L94.92002108881474,138.08674112820543L95.13477275361221,139.4851837506274L95.34952441840966,141.42959593152213L95.56427608320713,141.31932198321L95.7790277480046,140.37619509722774L95.99377941280206,138.49515826860573L96.20853107759953,140.1569999410776L96.42328274239698,138.3353098850294L96.63803440719445,137.44203498863175L96.85278607199193,133.9182241998784L97.06753773678938,136.75675741364265L97.28228940158685,137.4207535784834L97.49704106638431,135.21744384746322L97.71179273118177,134.84204219767858L97.92654439597925,140.3575194640485L98.14129606077671,140.96498616740251L98.35604772557417,138.1982371239379L98.57079939037165,145.45787180271688L98.78555105516911,144.24221688951096L99.00030271996657,142.8964785988884L99.21505438476403,140.38228242936134L99.4298060495615,143.48819139985815L99.64455771435897,142.26345803514357L99.85930937915643,141.57166332302958L100.0740610439539,144.71203955491984L100.28881270875135,144.59241094812973L100.50356437354883,144.74220202964509L100.7183160383463,145.8144132322257L100.93306770314375,143.96306461075235L101.14781936794122,139.44875946180503L101.36257103273869,143.3916530220276L101.57732269753615,139.19879754397476L101.79207436233362,142.13783910549685L102.00682602713107,145.80069652465906L102.22157769192854,146.03367238755166L102.43632935672602,146.84044128218494L102.65108102152347,145.4806905404359L102.86583268632094,147.70078961313754L103.0805843511184,145.91143935114349L103.29533601591586,145.94235971084555L103.51008768071334,143.48836251344403L103.7248393455108,142.66762024086526L103.93959101030826,143.00092255912128L104.15434267510574,143.59869776622983L104.3690943399032,145.50434059376505L104.58384600470066,144.22740411184898L104.79859766949812,144.75279086170306L105.0133493342956,144.1362261702499L105.22810099909306,142.8035477535474L105.44285266389052,143.01077439014404L105.657604328688,146.61538851725862L105.87235599348544,145.22274085178805L106.08710765828292,146.09967103235732L106.30185932308038,146.82554294773004L106.51661098787784,144.71494915955518L106.73136265267532,147.061776031834L106.94611431747276,146.14416595408818L107.16086598227024,147.1277228036235L107.37561764706771,147.77571917450976L107.59036931186516,147.4574202840921L107.80512097666264,147.79805825524792L108.01987264146011,147.09104656015103L108.23462430625756,146.5098228872601L108.44937597105503,147.73429351851604L108.6641276358525,148.52969144379531L108.87887930064996,147.55428000515278L109.09363096544743,148.90652465409164L109.30838263024489,148.79882279897188L109.52313429504235,149.7972271204592L109.73788595983982,147.50674007000407L109.95263762463729,147.96494654816422L110.16738928943475,149.03695969013754L110.38214095423221,149.4753314763606L110.59689261902969,149.95224794515224L110.81164428382715,148.85457483889132L111.02639594862461,148.2748844515179L111.24114761342209,146.87837999360985L111.45589927821953,150.122361459692L111.67065094301701,146.8268074367091L111.88540260781447,149.97234334952134L112.10015427261193,148.84696567372433L112.3149059374094,148.9773006689533L112.52965760220685,150.0963858784163L112.74440926700433,149.91656402574273L112.9591609318018,149.5027904911642L113.17391259659925,149.71502051595874L113.38866426139673,147.43831282489498L113.60341592619419,149.9568306229786L113.81816759099165,149.90956150539492L114.03291925578912,149.81515699482128L114.24767092058659,149.35651532226558L114.46242258538405,150.5006737246253L114.67717425018152,149.28385672112162L114.89192591497898,150.3912731966442L115.10667757977644,148.87373821315785L115.3214292445739,149.95050514654338L115.53618090937138,149.79790281702074L115.75093257416884,150.17652867791554L115.9656842389663,150.35888119273608L116.18043590376378,149.906983012285L116.39518756856123,151.1201513890915L116.6099392333587,149.23799996429693L116.82469089815618,150.62790678085366L117.03944256295362,150.17694231469397L117.2541942277511,149.17142229536898L117.46894589254856,150.00455346103502L117.68369755734602,151.2578836785317L117.8984492221435,149.61877653433697L118.11320088694094,150.49233395834065L118.32795255173842,150.681467354258L118.5427042165359,149.7361742645932L118.75745588133334,150.3411386001727L118.97220754613082,148.06870740140468L119.18695921092828,146.7779403607566L119.40171087572574,143.32335377527016L119.61646254052322,139.7240825688231L119.83121420532068,139.3797360138475L120.04596587011814,138.39397355061084L120.26071753491561,139.6171904716963L120.47546919971307,141.51229095078543L120.69022086451054,131.78728069482003L120.904972529308,140.22430282171894L121.11972419410547,136.22491752583952L121.33447585890293,141.27330724947237L121.5492275237004,139.4139802886389L121.76397918849787,142.57393487892517L121.97873085329532,144.22227609367712L122.1934825180928,139.807175056652L122.40823418289025,144.5301848863196L122.62298584768772,141.26652333683566L122.83773751248519,143.40856093060322L123.05248917728264,142.5878516681257L123.26724084208011,140.22913711735754L123.48199250687759,141.0259969185476L123.69674417167504,143.25491844605466L123.91149583647251,145.44457614235955L124.12624750126999,139.97241553920986L124.34099916606743,145.9437703874157L124.55575083086491,145.1150976064398L124.77050249566237,141.54301055517809L124.98525416045983,144.2247289462998L125.2000058252573,145.51148559648846L125.41475749005477,144.07598071451247L125.62950915485223,145.14457427947053L125.84426081964969,147.27577647593432L126.05901248444717,146.46896850811999L126.27376414924463,147.53457634310723L126.48851581404209,144.3700198752419L126.70326747883956,145.48395113002496L126.91801914363703,146.4938217459545L127.13277080843449,147.16497571335387L127.34752247323196,145.51264229738192L127.56227413802941,146.8000739704566L127.77702580282688,147.7895113337363L127.99177746762435,148.3061275018012L128.20652913242182,148.13039182808467L128.42128079721928,148.19172796451315L128.63603246201674,149.20430406139099L128.8507841268142,148.2053442944251L129.06553579161167,148.84652037419576L129.28028745640916,148.71006469989422L129.49503912120662,147.2983109225776L129.70979078600405,147.7561226268743L129.92454245080154,147.19654616994714L130.139294115599,147.71815562107687L130.35404578039646,147.06293273272746L130.56879744519392,145.73659966588846L130.78354910999138,147.44768028320811L130.99830077478885,147.954989623758L131.2130524395863,147.91259522234506L131.4278041043838,147.99205929374287L131.64255576918126,148.59839624322478L131.85730743397872,149.61942898909257L132.07205909877618,149.73407307059978L132.28681076357364,149.18147892375436L132.5015624283711,148.26126407955275L132.7163140931686,148.69870450934877L132.93106575796605,148.4509232792251L133.1458174227635,149.80705166762283L133.36056908756095,149.16078731653687L133.57532075235844,150.57694928971628L133.7900724171559,149.7626705970574L134.00482408195336,150.14659087398118L134.21957574675085,149.72761757478634L134.4343274115483,150.4300516446234L134.64907907634574,150.89530914776984L134.86383074114323,150.20762453009445L135.0785824059407,150.5640527821134L135.29333407073815,150.6647841164733L135.50808573553564,150.17288544062265L135.7228374003331,151.48441785595932L135.93758906513054,150.01985802183748L136.152340729928,151.13042022527037L136.3670923947255,151.00556861205797L136.58184405952295,151.79721113306778L136.7965957243204,151.21646442245557L137.01134738911787,150.83853749992826L137.22609905391533,151.52387738990436L137.4408507187128,151.36517627576401L137.65560238351028,148.81045178605578L137.87035404830775,151.39410895580028L138.0851057131052,151.19893706922562L138.29985737790267,151.498781965715L138.51460904270013,151.18005327030608L138.7293607074976,151.20301145886086L138.94411237229505,151.19587218237947L139.15886403709254,151.48913392154157L139.37361570189,151.26756506964412L139.58836736668744,151.30630006555134L139.80311903148493,151.30677736466785L140.0178706962824,152.15950827792813L140.23262236107985,151.50725410924227L140.44737402587734,151.01134335874337L140.6621256906748,150.8863751996634L140.87687735547223,150.67119514970142L141.0916290202697,151.30994431335753L141.30638068506718,149.0831603583228L141.52113234986464,151.3346459741967L141.7358840146621,151.8607651777761L141.95063567945957,150.98362329466997L142.16538734425703,151.60294062435887L142.3801390090545,152.0585588411138L142.59489067385198,151.60732423106464L142.80964233864944,151.84323041411525L143.0243940034469,151.22080895598032L143.23914566824436,151.94641948524546L143.45389733304182,151.8649941759466L143.66864899783928,151.35338190133626L143.88340066263675,152.1697833456057L144.09815232743424,151.82497902810417L144.3129039922317,152.12560134616086L144.52765565702913,152.392028904578L144.74240732182662,152.54952447634858L144.95715898662408,152.04983238507214L145.17191065142154,152.46401905117244L145.38666231621903,152.2534415524651L145.6014139810165,152.20038101472656L145.81616564581392,151.47226946503798L146.03091731061141,151.2103572168937L146.24566897540888,152.53776934352078L146.46042064020634,151.89048673186375L146.6751723050038,151.94141087606218L146.88992396980126,152.79617511050577L147.10467563459872,152.50816736684055L147.31942729939618,151.20254089649973L147.53417896419367,152.01088602346584L147.74893062899113,152.03766715226243L147.9636822937886,152.49663151539937L148.17843395858606,152.4045484907191L148.39318562338352,152.39393456424742L148.60793728818098,152.5947348414975L148.82268895297847,152.44521912485703L149.03744061777593,152.95392718423628L149.2521922825734,151.05962467381823L149.46694394737082,152.99393694267445L149.6816956121683,152.76345822657095L149.89644727696577,151.72832999906703L150.11119894176323,153.09537344690054L150.32595060656072,151.824283963371L150.54070227135819,153.1158099837186L150.75545393615562,152.7626056901815L150.9702056009531,152.81888235492377L151.18495726575057,152.95976239330093L151.39970893054803,153.02183839388562L151.61446059534552,152.84437272139544L151.82921226014298,153.13399661266894L152.0439639249404,152.94468890320695L152.25871558973788,152.0612518590647L152.47346725453536,152.98930845491174L152.68821891933283,153.11661300495626L152.9029705841303,152.17426042479195L153.11772224892775,152.9833880258919L153.3324739137252,152.91720108877422L153.54722557852267,152.99587830714722L153.76197724332016,153.09770419583248L153.97672890811762,153.44754828001084L154.19148057291508,153.10629844305043L154.40623223771254,153.1023565990767L154.62098390251,153.06659958587161L154.83573556730747,153.29834085413702L155.05048723210493,152.9438496719093L155.26523889690242,153.2570257651405L155.47999056169988,152.87657121200613L155.6947422264973,152.88321921060367L155.9094938912948,153.3516649674286L156.12424555609226,153.39361449036014L156.33899722088972,153.00707951026644L156.5537488856872,153.05281500549484L156.76850055048467,153.54501035120919L156.9832522152821,153.03617740922763L157.19800388007957,153.0637789064069L157.41275554487706,153.4778603949143L157.62750720967452,153.00291198498851L157.84225887447198,153.41279815910218L158.05701053926944,153.2422986284809L158.2717622040669,153.0661330655637L158.48651386886436,153.09975082210758L158.70126553366185,153.2963742268317L158.91601719845931,153.27687915157364L159.13076886325678,153.17706713169062L159.34552052805424,153.273968536425L159.5602721928517,153.49721046151345L159.77502385764916,153.290065423866L159.98977552244662,153.51156480297388L160.2045271872441,153.27080141931643L160.41927885204157,153.32636432482946L160.634030516839,153.09011237781053L160.8487821816365,153.6092062402834L161.06353384643396,153.2117810425393L161.27828551123142,153.4910590459946L161.4930371760289,153.12559495244454L161.70778884082637,153.35635358073282L161.9225405056238,153.51103487295623L162.1372921704213,153.55619336508897L162.35204383521875,153.46763138980143L162.5667955000162,153.41917710853295L162.78154716481367,153.3739986587625L162.99629882961113,153.49622125319985L163.2110504944086,153.66956302090296L163.42580215920606,153.51101634687902L163.64055382400355,153.63808553153353L163.855305488801,153.4668718206358L164.07005715359847,153.36164050212147L164.28480881839593,153.56269467083877L164.4995604831934,153.59238708845953L164.71431214799085,152.66298373100872L164.92906381278834,153.66976823931282L165.1438154775858,153.71794429258534L165.35856714238327,153.58946030509804L165.5733188071807,153.58548292473986L165.7880704719782,153.63605389453906L166.00282213677565,153.32647295500948L166.2175738015731,153.49901557510927L166.4323254663706,153.61349199561772L166.64707713116806,153.82279679492544L166.8618287959655,153.58310173435223L167.07658046076298,153.8049903295004L167.29133212556044,153.03762379060112L167.5060837903579,153.51037054466934L167.7208354551554,153.65706465554126L167.93558711995286,153.8470041042361L168.1503387847503,153.68687614531282L168.36509044954775,153.5805637459838L168.57984211434524,153.65170329300597L168.7945937791427,153.6018269668927L169.00934544394016,153.46601448430818L169.22409710873762,153.58152575464769L169.43884877353509,153.7848267154834L169.65360043833255,153.81726360302403L169.86835210313004,153.67750127656876L170.0831037679275,153.86904327304708L170.29785543272496,153.70723512523494L170.51260709752242,153.9354683965711L170.72735876231988,153.83980091278835L170.94211042711734,153.61106230059158L171.1568620919148,153.5812337163033L171.3716137567123,153.75753418274638L171.58636542150975,153.78476945306295L171.8011170863072,153.59730256200012L172.01586875110468,153.6208279853553L172.23062041590214,153.71327159486566L172.4453720806996,153.8384551195932L172.6601237454971,153.7619643572735L172.87487541029455,153.9649735744979L173.08962707509198,153.74804908384294L173.30437873988944,153.60728255979342L173.51913040468693,153.83067627240084L173.7338820694844,153.59462874380202L173.94863373428186,153.87666498542092L174.16338539907932,153.71293846231364L174.37813706387678,153.71066219689058L174.59288872867424,153.86777381571096L174.80764039347173,153.7012458128917L175.0223920582692,153.79421531036647L175.23714372306665,153.7586668839489L175.4518953878641,153.84795512356783L175.66664705266157,153.6969307526716L175.88139871745904,153.39634582360708L176.0961503822565,153.55534537600937L176.310902047054,153.80013910776398L176.52565371185145,153.61538072918933L176.74040537664888,153.6764568268613L176.95515704144637,153.89971197283214L177.16990870624383,153.87143684222266L177.3846603710413,153.9424268753808L177.59941203583878,153.77134891010334L177.81416370063624,153.71392826009333L178.02891536543368,153.84220850283603L178.24366703023117,153.91438908908324L178.45841869502863,153.5219893424108L178.6731703598261,153.9164762622046L178.88792202462355,153.79981919609435L179.102673689421,153.62003919551336L179.31742535421847,153.80468919653632L179.53217701901593,153.73364051150193L179.74692868381342,153.91133540209287L179.96168034861088,153.57257066997136L180.17643201340834,153.82081732568022L180.3911836782058,153.8252331424975L180.60593534300327,153.9160819935978L180.82068700780073,153.60513429272197L181.03543867259822,153.81839487266606L181.25019033739568,153.49249111176294L181.46494200219314,153.56253189398765L181.67969366699057,153.51314027742177L181.89444533178806,153.8784156997173L182.10919699658552,153.91864238167773L182.32394866138299,153.67695795724984L182.53870032618048,153.76713936431392L182.75345199097794,153.64182636756954L182.96820365577537,153.71070295426043L183.18295532057286,153.68604550337827L183.39770698537032,153.8538814893533L183.61245865016778,153.51418439029146L183.82721031496527,153.57559842045364L184.04196197976273,153.7802350272468L184.25671364456016,153.70399390381752L184.47146530935763,153.56339723021225L184.68621697415512,153.7665340668458L184.90096863895258,153.5985346303441L185.11572030375004,153.649899105714L185.3304719685475,153.54312464917749L185.54522363334496,153.68960225757434L185.75997529814242,153.62831673102042L185.9747269629399,153.57639411546984L186.18947862773737,153.65144140164176L186.40423029253483,153.53520584589276L186.6189819573323,153.75376631547954L186.83373362212976,153.64690916527113L187.04848528692722,153.7159090345849L187.26323695172468,153.69159069512511L187.47798861652217,153.73334485215153L187.69274028131963,153.52644107455504L187.90749194611706,153.91985306082344L188.12224361091455,153.2659399240281L188.336995275712,153.32776085421335L188.55174694050947,153.83172691150227L188.76649860530696,153.75066117652017L188.98125027010443,153.65487116799952L189.19600193490186,153.69066818068947L189.41075359969932,153.66069492458007L189.6255052644968,153.80957452309673L189.84025692929427,153.6821514903675L190.05500859409173,153.78980399875434L190.2697602588892,153.55167376013458L190.48451192368665,153.92452841114056L190.69926358848411,153.52756240748292L190.9140152532816,153.78671469117003L191.12876691807907,153.66744212190014L191.34351858287653,153.80007645593923L191.558270247674,153.7055484943238L191.77302191247145,153.67411462544527L191.9877735772689,153.94257946288946L192.20252524206637,153.68722974075922L192.41727690686386,153.74428694281815L192.63202857166132,153.8268897106379L192.84678023645876,153.77968505538198L193.06153190125625,153.9390621608169L193.2762835660537,153.83122742319784L193.49103523085117,153.89786997550075L193.70578689564866,154.03291501533684L193.92053856044612,153.95141290702702L194.13529022524355,153.98750924217808L194.35004189004104,153.91593138501102L194.5647935548385,153.79955957838507L194.77954521963596,153.72459700691164L194.99429688443342,153.9338525858006L195.20904854923089,153.8520978070604L195.42380021402835,153.90864465779694L195.6385518788258,154.0191564556776L195.8533035436233,153.67676174925032L196.06805520842076,153.9674895420972L196.28280687321822,154.04431996320068L196.49755853801568,153.86165229454397L196.71231020281314,154.03088826249004L196.9270618676106,153.92083591132416L197.1418135324081,154.01305577634747L197.35656519720555,153.99858846792077L197.57131686200302,153.83799200976762L197.78606852680045,153.94286661708622L198.00082019159794,153.94043414314848L198.2155718563954,153.69161772635596L198.43032352119286,153.80900880406625L198.64507518599035,153.95821917727054L198.8598268507878,153.940180293786L199.07457851558524,153.91950607581822L199.28933018038273,153.9768665160773L199.5040818451802,153.7533742363182L199.71883350997766,153.9196627053801L199.93358517477515,153.8948569616708L200.1483368395726,153.73958367707107L200.36308850437004,153.97005473011535L200.5778401691675,153.99208316222246L200.792591833965,154.02146880484653L201.00734349876245,153.71800467075516L201.2220951635599,153.74864528669136L201.43684682835737,153.84029728534344L201.65159849315484,154.03714098196747L201.8663501579523,153.80628547071632L202.0811018227498,153.89947538640521L202.29585348754725,153.89194129395563L202.5106051523447,153.93200940953702L202.72535681714217,153.85397727759343L202.94010848193963,154.0113003042176L203.1548601467371,153.87264196354522L203.36961181153455,154.02987981231897L203.58436347633204,153.92019133015143L203.7991151411295,153.82629443409334L204.01386680592694,153.5842636562311L204.22861847072443,153.8272419587332L204.4433701355219,153.7859536904439L204.65812180031935,153.7676198633892L204.87287346511684,153.8797444405005L205.0876251299143,153.89212714419384L205.30237679471173,153.98776477572943L205.5171284595092,153.89360994615092L205.73188012430668,153.9651946663875L205.94663178910415,153.94986783218766L206.1613834539016,153.9358546231762L206.37613511869907,153.95744533460453L206.59088678349653,153.8770527699007L206.805638448294,153.93949251316954L207.02039011309148,153.81643085585344L207.23514177788894,153.9933453354419L207.4498934426864,154.00969661960673L207.66464510748386,153.85647518226747L207.87939677228132,153.71722244924968L208.0941484370788,153.6399701388425L208.30890010187625,153.92025415039504L208.52365176667374,154.0497859980722L208.7384034314712,153.92723203948108L208.95315509626863,153.9597324209409L209.16790676106612,153.89330165538425L209.38265842586358,153.97756595970145L209.59741009066104,153.9128430037306L209.81216175545853,153.7687524803823L210.026913420256,153.95310311683943L210.24166508505343,153.67329703597417L210.45641674985092,153.93031545240444L210.67116841464838,154.0324833998426L210.88592007944584,153.90165843197613L211.1006717442433,154.00800944133422L211.31542340904076,153.97736095181523L211.53017507383822,153.98165011763194L211.74492673863568,154.00403050310135L211.95967840343317,153.88670376140462L212.17443006823063,154.00439955098034L212.3891817330281,153.69467865535833L212.60393339782556,153.77559373964894L212.81868506262302,154.09195577079893L213.03343672742048,153.89254297041776L213.24818839221797,153.81947713241294L213.46294005701543,153.89851308300828L213.6776917218129,153.9181971663586L213.89244338661032,153.95802591660146L214.1071950514078,154.0665505821777L214.32194671620528,154.07231850789833L214.53669838100274,153.9529087614476L214.75145004580023,153.7098051974007L214.9662017105977,153.86976246378532L215.18095337539512,154.04317239903165L215.3957050401926,153.97546741830544L215.61045670499007,153.89272604174437L215.82520836978753,154.0205968581807L216.03996003458502,154.12976227340013L216.25471169938248,153.86899889467122L216.46946336417992,154.00318773500715L216.68421502897738,154.0114352498482L216.89896669377487,153.8319225300357L217.11371835857233,153.8216156311891L217.3284700233698,153.9836436919587L217.54322168816725,154.12526692076503L217.7579733529647,153.94592948290577L217.97272501776217,153.99225705471991L218.18747668255966,153.94548755175484L218.40222834735712,153.96695312795254L218.61698001215458,153.9546617072942L218.83173167695205,153.91198002537035L219.0464833417495,153.9753149150062L219.26123500654697,153.73629588783228L219.47598667134443,154.0599109203149L219.69073833614192,154.0692910942538L219.90549000093938,153.8358990682995L220.1202416657368,153.9464492656857L220.3349933305343,154.05765377043514L220.54974499533176,153.8616676627671L220.76449666012923,153.95524700501988L220.97924832492671,154.01328992070057L221.19399998972418,153.891343617442L221.4087516545216,153.95065914831287L221.62350331931907,154.0736361330352L221.83825498411656,154.0388644545094L222.05300664891402,153.7466927223628L222.26775831371148,153.98876295234857L222.48250997850894,154.01480446961727L222.6972616433064,153.9778910923565L222.91201330810387,153.8604479311064L223.12676497290136,154.1005647546692L223.34151663769882,154.05780176852923L223.55626830249628,153.78683561592857L223.77101996729374,154.10732521497636L223.9857716320912,153.66721138802941L224.20052329688866,154.09059140942182L224.41527496168612,153.92036042271067L224.6300266264836,154.08285129857273L224.84477829128107,153.96362870760657L225.0595299560785,154.0659115588281L225.274281620876,153.7080701460605L225.48903328567346,154.02491124472527L225.70378495047092,153.83230652509064L225.9185366152684,154.05037041159872L226.13328828006587,154.04851026713263L226.3480399448633,153.89701975487094L226.5627916096608,153.93371608229532L226.77754327445825,153.82340061872833L226.99229493925571,153.97362946302727L227.20704660405318,153.84830497169406L227.42179826885064,153.89480938333614L227.6365499336481,153.73400059107536L227.85130159844556,154.02069685689293L228.06605326324305,153.91342240679535L228.2808049280405,153.83699960149525L228.49555659283797,153.92726593378143L228.71030825763543,153.87785347537869L228.9250599224329,153.98903040153596L229.13981158723035,153.92817674310464L229.35456325202784,153.97240968926184L229.5693149168253,153.94705565787658L229.78406658162277,154.06465106979755L229.9988182464202,153.98271886176337L230.2135699112177,153.92778432710557L230.42832157601515,154.0050702791848L230.6430732408126,153.9955883381354L230.8578249056101,153.98820249640826L231.07257657040756,153.88970658589213L231.287328235205,153.93351465331037L231.50207990000249,154.04917729012166L231.71683156479995,153.98384840511187L231.9315832295974,154.07803161327226L232.1463348943949,153.99995329244982L232.36108655919236,154.15221448952346L232.5758382239898,154.10720913226075L232.79058988878725,153.72783199683036L233.00534155358474,153.8798660810393L233.2200932183822,154.10474571135313L233.43484488317966,154.09546254669127L233.64959654797713,153.99407926283246L233.8643482127746,153.80864409297354L234.07909987757205,153.94029886068012L234.29385154236954,154.0280328045258L234.508603207167,153.9074557046872L234.72335487196446,154.09634805107723L234.93810653676192,154.06585130697246L235.15285820155938,153.80783340867671L235.36760986635684,154.0691778746592L235.5823615311543,154.05909156244556L235.7971131959518,153.89218516449927L236.01186486074926,153.8079514703142L236.2266165255467,154.00902088094048" fill="none"></path></g></g></g></g></g></g><g transform="translate(72, 176)" clip-path="url(#clip_1)"><clipPath id="clip_1"><rect width="257" height="23"></rect></clipPath><g><g><line x1="0" y1="0" x2="0" y2="5" style="visibility: inherit;" fill="rgb(0, 0, 0)" stroke="rgb(204, 204, 204)" stroke-width="1px"></line><line x1="21.4751664797465" y1="0" x2="21.4751664797465" y2="5" style="visibility: inherit;" fill="rgb(0, 0, 0)" stroke="rgb(204, 204, 204)" stroke-width="1px"></line><line x1="42.950332959493" y1="0" x2="42.950332959493" y2="5" style="visibility: inherit;" fill="rgb(0, 0, 0)" stroke="rgb(204, 204, 204)" stroke-width="1px"></line><line x1="64.4254994392395" y1="0" x2="64.4254994392395" y2="5" style="visibility: inherit;" fill="rgb(0, 0, 0)" stroke="rgb(204, 204, 204)" stroke-width="1px"></line><line x1="85.900665918986" y1="0" x2="85.900665918986" y2="5" style="visibility: inherit;" fill="rgb(0, 0, 0)" stroke="rgb(204, 204, 204)" stroke-width="1px"></line><line x1="107.37583239873251" y1="0" x2="107.37583239873251" y2="5" style="visibility: inherit;" fill="rgb(0, 0, 0)" stroke="rgb(204, 204, 204)" stroke-width="1px"></line><line x1="128.850998878479" y1="0" x2="128.850998878479" y2="5" style="visibility: inherit;" fill="rgb(0, 0, 0)" stroke="rgb(204, 204, 204)" stroke-width="1px"></line><line x1="150.32616535822552" y1="0" x2="150.32616535822552" y2="5" style="visibility: inherit;" fill="rgb(0, 0, 0)" stroke="rgb(204, 204, 204)" stroke-width="1px"></line><line x1="171.801331837972" y1="0" x2="171.801331837972" y2="5" style="visibility: inherit;" fill="rgb(0, 0, 0)" stroke="rgb(204, 204, 204)" stroke-width="1px"></line><line x1="193.2764983177185" y1="0" x2="193.2764983177185" y2="5" style="visibility: inherit;" fill="rgb(0, 0, 0)" stroke="rgb(204, 204, 204)" stroke-width="1px"></line><line x1="214.75166479746503" y1="0" x2="214.75166479746503" y2="5" style="visibility: inherit;" fill="rgb(0, 0, 0)" stroke="rgb(204, 204, 204)" stroke-width="1px"></line><line x1="236.2268312772115" y1="0" x2="236.2268312772115" y2="5" style="visibility: inherit;" fill="rgb(0, 0, 0)" stroke="rgb(204, 204, 204)" stroke-width="1px"></line><line x1="257.701997756958" y1="0" x2="257.701997756958" y2="5" style="visibility: inherit;" fill="rgb(0, 0, 0)" stroke="rgb(204, 204, 204)" stroke-width="1px"></line></g><g transform="translate(0, 8)"><text style="text-anchor: middle; visibility: hidden; font-family: Roboto, sans-serif; font-size: 12px; font-weight: 200;" x="0" y="0" dx="0em" dy="0.95em" fill="rgb(33, 33, 33)" stroke="none" stroke-width="1px">-100k</text><text style="text-anchor: middle; visibility: inherit; font-family: Roboto, sans-serif; font-size: 12px; font-weight: 200;" x="21.4751664797465" y="0" dx="0em" dy="0.95em" fill="rgb(33, 33, 33)" stroke="none" stroke-width="1px">0</text><text style="text-anchor: middle; visibility: hidden; font-family: Roboto, sans-serif; font-size: 12px; font-weight: 200;" x="42.950332959493" y="0" dx="0em" dy="0.95em" fill="rgb(33, 33, 33)" stroke="none" stroke-width="1px">100k</text><text style="text-anchor: middle; visibility: inherit; font-family: Roboto, sans-serif; font-size: 12px; font-weight: 200;" x="64.4254994392395" y="0" dx="0em" dy="0.95em" fill="rgb(33, 33, 33)" stroke="none" stroke-width="1px">200k</text><text style="text-anchor: middle; visibility: hidden; font-family: Roboto, sans-serif; font-size: 12px; font-weight: 200;" x="85.900665918986" y="0" dx="0em" dy="0.95em" fill="rgb(33, 33, 33)" stroke="none" stroke-width="1px">300k</text><text style="text-anchor: middle; visibility: inherit; font-family: Roboto, sans-serif; font-size: 12px; font-weight: 200;" x="107.37583239873251" y="0" dx="0em" dy="0.95em" fill="rgb(33, 33, 33)" stroke="none" stroke-width="1px">400k</text><text style="text-anchor: middle; visibility: hidden; font-family: Roboto, sans-serif; font-size: 12px; font-weight: 200;" x="128.850998878479" y="0" dx="0em" dy="0.95em" fill="rgb(33, 33, 33)" stroke="none" stroke-width="1px">500k</text><text style="text-anchor: middle; visibility: inherit; font-family: Roboto, sans-serif; font-size: 12px; font-weight: 200;" x="150.32616535822552" y="0" dx="0em" dy="0.95em" fill="rgb(33, 33, 33)" stroke="none" stroke-width="1px">600k</text><text style="text-anchor: middle; visibility: hidden; font-family: Roboto, sans-serif; font-size: 12px; font-weight: 200;" x="171.801331837972" y="0" dx="0em" dy="0.95em" fill="rgb(33, 33, 33)" stroke="none" stroke-width="1px">700k</text><text style="text-anchor: middle; visibility: inherit; font-family: Roboto, sans-serif; font-size: 12px; font-weight: 200;" x="193.2764983177185" y="0" dx="0em" dy="0.95em" fill="rgb(33, 33, 33)" stroke="none" stroke-width="1px">800k</text><text style="text-anchor: middle; visibility: hidden; font-family: Roboto, sans-serif; font-size: 12px; font-weight: 200;" x="214.75166479746503" y="0" dx="0em" dy="0.95em" fill="rgb(33, 33, 33)" stroke="none" stroke-width="1px">900k</text><text style="text-anchor: middle; visibility: inherit; font-family: Roboto, sans-serif; font-size: 12px; font-weight: 200;" x="236.2268312772115" y="0" dx="0em" dy="0.95em" fill="rgb(33, 33, 33)" stroke="none" stroke-width="1px">1M</text><text style="text-anchor: middle; visibility: hidden; font-family: Roboto, sans-serif; font-size: 12px; font-weight: 200;" x="257.701997756958" y="0" dx="0em" dy="0.95em" fill="rgb(33, 33, 33)" stroke="none" stroke-width="1px">1.1M</text></g><line x1="0" y1="0" x2="257.701997756958" y2="0" fill="rgb(0, 0, 0)" stroke="rgb(204, 204, 204)" stroke-width="1px"></line></g></g></g></g></svg>