<svg viewBox="0 0 330 200" xmlns="http://www.w3.org/2000/svg"><g><g><g><g><g><line x1="41.149001121520996" y1="176.5999994277954" x2="36.149001121520996" y2="176.5999994277954" style="visibility: inherit;" fill="rgb(0, 0, 0)" stroke="rgb(204, 204, 204)" stroke-width="1px"></line><line x1="41.149001121520996" y1="151.37142808096752" x2="36.149001121520996" y2="151.37142808096752" style="visibility: inherit;" fill="rgb(0, 0, 0)" stroke="rgb(204, 204, 204)" stroke-width="1px"></line><line x1="41.149001121520996" y1="126.14285673413958" x2="36.149001121520996" y2="126.14285673413958" style="visibility: inherit;" fill="rgb(0, 0, 0)" stroke="rgb(204, 204, 204)" stroke-width="1px"></line><line x1="41.149001121520996" y1="100.91428538731165" x2="36.149001121520996" y2="100.91428538731165" style="visibility: inherit;" fill="rgb(0, 0, 0)" stroke="rgb(204, 204, 204)" stroke-width="1px"></line><line x1="41.149001121520996" y1="75.68571404048376" x2="36.149001121520996" y2="75.68571404048376" style="visibility: inherit;" fill="rgb(0, 0, 0)" stroke="rgb(204, 204, 204)" stroke-width="1px"></line><line x1="41.149001121520996" y1="50.457142693655825" x2="36.149001121520996" y2="50.457142693655825" style="visibility: inherit;" fill="rgb(0, 0, 0)" stroke="rgb(204, 204, 204)" stroke-width="1px"></line><line x1="41.149001121520996" y1="25.228571346827923" x2="36.149001121520996" y2="25.228571346827923" style="visibility: inherit;" fill="rgb(0, 0, 0)" stroke="rgb(204, 204, 204)" stroke-width="1px"></line><line x1="41.149001121520996" y1="0" x2="36.149001121520996" y2="0" style="visibility: inherit;" fill="rgb(0, 0, 0)" stroke="rgb(204, 204, 204)" stroke-width="1px"></line></g><g transform="translate(31.149001121520996, 0)"><text style="text-anchor: end; visibility: hidden; font-family: Roboto, sans-serif; font-size: 12px; font-weight: 200;" x="0" y="176.5999994277954" dx="0em" dy="0.3em" fill="rgb(33, 33, 33)" stroke="none" stroke-width="1px">0</text><text style="text-anchor: end; visibility: inherit; font-family: Roboto, sans-serif; font-size: 12px; font-weight: 200;" x="0" y="151.37142808096752" dx="0em" dy="0.3em" fill="rgb(33, 33, 33)" stroke="none" stroke-width="1px">0.5</text><text style="text-anchor: end; visibility: inherit; font-family: Roboto, sans-serif; font-size: 12px; font-weight: 200;" x="0" y="126.14285673413958" dx="0em" dy="0.3em" fill="rgb(33, 33, 33)" stroke="none" stroke-width="1px">1</text><text style="text-anchor: end; visibility: inherit; font-family: Roboto, sans-serif; font-size: 12px; font-weight: 200;" x="0" y="100.91428538731165" dx="0em" dy="0.3em" fill="rgb(33, 33, 33)" stroke="none" stroke-width="1px">1.5</text><text style="text-anchor: end; visibility: inherit; font-family: Roboto, sans-serif; font-size: 12px; font-weight: 200;" x="0" y="75.68571404048376" dx="0em" dy="0.3em" fill="rgb(33, 33, 33)" stroke="none" stroke-width="1px">2</text><text style="text-anchor: end; visibility: inherit; font-family: Roboto, sans-serif; font-size: 12px; font-weight: 200;" x="0" y="50.457142693655825" dx="0em" dy="0.3em" fill="rgb(33, 33, 33)" stroke="none" stroke-width="1px">2.5</text><text style="text-anchor: end; visibility: inherit; font-family: Roboto, sans-serif; font-size: 12px; font-weight: 200;" x="0" y="25.228571346827923" dx="0em" dy="0.3em" fill="rgb(33, 33, 33)" stroke="none" stroke-width="1px">3</text><text style="text-anchor: end; visibility: hidden; font-family: Roboto, sans-serif; font-size: 12px; font-weight: 200;" x="0" y="0" dx="0em" dy="0.3em" fill="rgb(33, 33, 33)" stroke="none" stroke-width="1px">3.5</text></g><line x1="41.149001121520996" y1="0" x2="41.149001121520996" y2="176.5999994277954" fill="rgb(0, 0, 0)" stroke="rgb(204, 204, 204)" stroke-width="1px"></line></g></g><g transform="translate(41, 0)" clip-path="url(#clip_0)"><clipPath id="clip_0"><rect width="288" height="176"></rect></clipPath><g><g><g><line x1="0" y1="0" x2="0" y2="176.5999994277954" fill="rgb(0, 0, 0)" stroke="rgb(66, 66, 66)" stroke-width="1px" opacity="0.25"></line><line x1="24.07091657320658" y1="0" x2="24.07091657320658" y2="176.5999994277954" fill="rgb(0, 0, 0)" stroke="rgb(66, 66, 66)" stroke-width="1px" opacity="0.25"></line><line x1="48.14183314641316" y1="0" x2="48.14183314641316" y2="176.5999994277954" fill="rgb(0, 0, 0)" stroke="rgb(66, 66, 66)" stroke-width="1px" opacity="0.25"></line><line x1="72.21274971961975" y1="0" x2="72.21274971961975" y2="176.5999994277954" fill="rgb(0, 0, 0)" stroke="rgb(66, 66, 66)" stroke-width="1px" opacity="0.25"></line><line x1="96.28366629282633" y1="0" x2="96.28366629282633" y2="176.5999994277954" fill="rgb(0, 0, 0)" stroke="rgb(66, 66, 66)" stroke-width="1px" opacity="0.25"></line><line x1="120.35458286603293" y1="0" x2="120.35458286603293" y2="176.5999994277954" fill="rgb(0, 0, 0)" stroke="rgb(66, 66, 66)" stroke-width="1px" opacity="0.25"></line><line x1="144.4254994392395" y1="0" x2="144.4254994392395" y2="176.5999994277954" fill="rgb(0, 0, 0)" stroke="rgb(66, 66, 66)" stroke-width="1px" opacity="0.25"></line><line x1="168.4964160124461" y1="0" x2="168.4964160124461" y2="176.5999994277954" fill="rgb(0, 0, 0)" stroke="rgb(66, 66, 66)" stroke-width="1px" opacity="0.25"></line><line x1="192.56733258565265" y1="0" x2="192.56733258565265" y2="176.5999994277954" fill="rgb(0, 0, 0)" stroke="rgb(66, 66, 66)" stroke-width="1px" opacity="0.25"></line><line x1="216.63824915885925" y1="0" x2="216.63824915885925" y2="176.5999994277954" fill="rgb(0, 0, 0)" stroke="rgb(66, 66, 66)" stroke-width="1px" opacity="0.25"></line><line x1="240.70916573206586" y1="0" x2="240.70916573206586" y2="176.5999994277954" fill="rgb(0, 0, 0)" stroke="rgb(66, 66, 66)" stroke-width="1px" opacity="0.25"></line><line x1="264.7800823052724" y1="0" x2="264.7800823052724" y2="176.5999994277954" fill="rgb(0, 0, 0)" stroke="rgb(66, 66, 66)" stroke-width="1px" opacity="0.25"></line><line x1="288.850998878479" y1="0" x2="288.850998878479" y2="176.5999994277954" fill="rgb(0, 0, 0)" stroke="rgb(66, 66, 66)" stroke-width="1px" opacity="0.25"></line></g><g><line x1="0" y1="176.5999994277954" x2="288.850998878479" y2="176.5999994277954" fill="rgb(0, 0, 0)" stroke="rgb(66, 66, 66)" stroke-width="1px" opacity="0.25"></line><line x1="0" y1="151.37142808096752" x2="288.850998878479" y2="151.37142808096752" fill="rgb(0, 0, 0)" stroke="rgb(66, 66, 66)" stroke-width="1px" opacity="0.25"></line><line x1="0" y1="126.14285673413958" x2="288.850998878479" y2="126.14285673413958" fill="rgb(0, 0, 0)" stroke="rgb(66, 66, 66)" stroke-width="1px" opacity="0.25"></line><line x1="0" y1="100.91428538731165" x2="288.850998878479" y2="100.91428538731165" fill="rgb(0, 0, 0)" stroke="rgb(66, 66, 66)" stroke-width="1px" opacity="0.25"></line><line x1="0" y1="75.68571404048376" x2="288.850998878479" y2="75.68571404048376" fill="rgb(0, 0, 0)" stroke="rgb(66, 66, 66)" stroke-width="1px" opacity="0.25"></line><line x1="0" y1="50.457142693655825" x2="288.850998878479" y2="50.457142693655825" fill="rgb(0, 0, 0)" stroke="rgb(66, 66, 66)" stroke-width="1px" opacity="0.25"></line><line x1="0" y1="25.228571346827923" x2="288.850998878479" y2="25.228571346827923" fill="rgb(0, 0, 0)" stroke="rgb(66, 66, 66)" stroke-width="1px" opacity="0.25"></line><line x1="0" y1="0" x2="288.850998878479" y2="0" fill="rgb(0, 0, 0)" stroke="rgb(66, 66, 66)" stroke-width="1px" opacity="0.25"></line></g></g></g><g><g><line x1="0" y1="176.5999994277954" x2="288.850998878479" y2="176.5999994277954" fill="rgb(0, 0, 0)" stroke="rgb(153, 153, 153)" stroke-width="1.5px"></line></g></g><g><g><line x1="24.07091657320658" y1="0" x2="24.07091657320658" y2="176.5999994277954" fill="rgb(0, 0, 0)" stroke="rgb(153, 153, 153)" stroke-width="1.5px"></line></g></g><g><g><g><g><g><path style="fill: none;" stroke="rgb(0, 119, 187)" stroke-width="2px" d="M24.311385029772914,167.0283933677179L24.552094195504985,161.68541789724503L24.792803361237052,155.29787316513008L25.033512526969115,150.46966771919364L25.274221692701182,143.952010532848L25.514930858433246,138.45750314028075L25.755640024165313,130.07246867429373L25.99634918989738,126.5895988910094L26.237058355629443,123.41361984796501L26.47776752136151,119.3923902548779L26.718476687093574,115.24051847097685L26.95918585282564,113.21405272090585L27.199895018557708,110.08911579468094L27.44060418428977,106.19574538372576L27.68131335002184,99.2092878028093L27.922022515753905,96.78505622449592L28.16273168148597,92.43251424321234L28.403440847218036,88.81556475286557L28.6441500129501,87.57825567115492L28.88485917868217,86.29669660552722L29.125568344414237,78.4908710629883L29.3662775101463,71.59545158780021L29.606986675878368,67.69197939473071L29.84769584161043,70.06328491836419L30.088405007342498,67.91997658387419L30.329114173074565,73.09227811146998L30.56982333880663,70.53560934176544L30.810532504538696,64.71494075229586L31.051241670270763,67.32482073195885L31.291950836002826,66.12286994832658L31.532660001734893,63.91354682021398L31.773369167466956,61.2910516885196L32.01407833319902,56.2238082352101L32.254787498931094,45.15300364315235L32.49549666466316,44.880622942192815L32.73620583039522,55.64595486088699L32.976914996127284,52.76982730164021L33.217624161859355,44.61891152787525L33.45833332759142,43.07606864551685L33.69904249332348,42.019224016404095L33.93975165905555,40.600659008481244L34.180460824787616,34.95597542593548L34.42116999051968,36.24412619941425L34.66187915625175,39.366027304686774L34.902588321983814,41.42542002299504L35.14329748771588,45.95238290374227L35.38400665344795,49.022792815816004L35.62471581918001,45.18640386915069L35.86542498491208,48.69648638867105L36.106134150644145,58.6407635720161L36.346843316376216,61.98277073289672L36.58755248210828,55.285361413669534L36.82826164784034,53.99989043980696L37.068970813572406,64.10190253376526L37.30967997930448,65.66623913427895L37.55038914503654,61.33833780950577L37.791098310768604,62.0783028447882L38.031807476500674,59.931146099466325L38.27251664223274,52.069918172137875L38.5132258079648,58.76805285373975L38.75393497369687,61.59259424894061L38.994644139428935,70.18281546383443L39.235353305161,77.8979795088198L39.47606247089306,64.18823362801925L39.71677163662513,68.3207319397268L39.957480802357196,70.30564918131851L40.19818996808926,53.50525298124202L40.43889913382133,54.732284879997685L40.679608299553394,49.00401396198822L40.92031746528546,55.027922655774674L41.16102663101753,50.32501724181565L41.40173579674959,58.754413502614824L41.642444962481655,71.33192352289969L41.883154128213725,69.99831172893715L42.12386329394579,75.04234907184176L42.36457245967785,68.28211921111645L42.605281625409916,71.51667074033372L42.845990791141986,69.39685963422296L43.08669995687405,65.17631540814321L43.32740912260611,60.35252664421875L43.568118288338184,52.979180570717055L43.80882745407025,54.32936326248049L44.04953661980231,50.629824754565426L44.29024578553439,53.02807026343462L44.53095495126645,30.509158672857907L44.77166411699851,29.964796419253506L45.012373282730586,48.42350908186096L45.25308244846265,40.28401200385402L45.49379161419471,51.947494620099405L45.734500779926776,59.388125191368516L45.97520994565885,63.81627273031747L46.21591911139091,68.94510176102703L46.456628277122974,68.10881926418635L46.697337442855044,72.47656810653565L46.93804660858711,83.71667946215423L47.17875577431917,93.17272768227625L47.41946494005124,91.78788000350252L47.660174105783305,86.30061043758207L47.90088327151537,78.6329446659967L48.14159243724744,75.2026785829475L48.3823016029795,85.38939453259275L48.623010768711566,81.77492359709488L48.86371993444363,84.06018364070101L49.1044291001757,82.2877102252596L49.345138265907764,88.02599542523032L49.58584743163983,93.6455823642585L49.8265565973719,85.12141356937705L50.06726576310396,88.68160682118429L50.307974928836025,84.40839268031584L50.548684094568095,87.44216293614443L50.78939326030016,91.17467811805209L51.03010242603222,95.22644495982351L51.27081159176429,92.48271084828463L51.511520757496356,96.48990173252542L51.75222992322842,94.89887170160478L51.99293908896048,90.64782197032288L52.233648254692554,99.47225512412487L52.47435742042462,105.30414647945828L52.71506658615668,99.28891229841732L52.95577575188875,99.7750771725026L53.196484917620815,98.471662745518L53.43719408335288,99.24235386569785L53.677903249084956,74.91045451437397L53.91861241481702,85.83056477956718L54.15932158054908,89.1722623103506L54.40003074628115,94.91513629444543L54.64073991201322,101.31833609645658L54.88144907774528,98.10597169634464L55.122158243477344,96.12722684917777L55.362867409209414,95.79588402557764L55.60357657494148,104.04977193912536L55.84428574067354,92.97152019626725L56.08499490640561,95.16247870977587L56.325704072137675,102.01818912813681L56.56641323786974,97.35488754568273L56.80712240360181,101.7020586445557L57.04783156933387,106.07619540837956L57.288540735065936,100.56526656765485L57.529249900798,97.95332080703076L57.76995906653007,100.34503100001481L58.010668232262134,102.27418240979172L58.2513773979942,93.95920763569542L58.49208656372627,92.37506150017815L58.73279572945833,93.10857296041661L58.973504895190395,92.16792631047562L59.214214060922465,98.42698786827802L59.45492322665453,101.07138513733433L59.69563239238659,98.6578184210287L59.93634155811866,97.8786001420289L60.177050723850726,101.96426923662311L60.41775988958279,105.21333408634703L60.65846905531485,103.18944069100343L60.899178221046924,107.12934370895536L61.13988738677899,109.52401873229863L61.38059655251105,106.304561122697L61.62130571824312,105.88439224019668L61.862014883975185,107.07944583658688L62.10272404970725,107.51354295411831L62.343433215439326,109.81611817457086L62.58414238117139,107.11987890045808L62.824851546903446,109.2311669503159L63.06556071263552,103.23313608349638L63.30626987836759,108.7638072440299L63.54697904409965,108.14330297713006L63.787688209831714,112.15481985643589L64.02839737556378,104.38267222155923L64.26910654129584,107.73029138228448L64.50981570702791,108.0771277102831L64.75052487275998,108.51633905066574L64.99123403849204,98.45090993976747L65.23194320422411,100.33969456896182L65.47265236995618,101.1785083727031L65.71336153568824,97.40338629761455L65.9540707014203,102.48924740682692L66.19477986715238,98.82621872046963L66.43548903288443,101.90149406904368L66.6761981986165,104.96260645923287L66.91690736434856,109.01300476970074L67.15761653008065,116.11442798044929L67.3983256958127,113.39855889631616L67.63903486154477,107.30048621013127L67.87974402727684,108.13621733094435L68.1204531930089,115.07833406857306L68.36116235874097,115.3605903818851L68.60187152447304,116.92885994877565L68.8425806902051,114.3709099637013L69.08328985593717,104.24862149631996L69.32399902166924,111.33874009426937L69.5647081874013,111.42628433413232L69.80541735313336,105.03631991044088L70.04612651886542,102.41003906750706L70.28683568459749,97.79921814291055L70.52754485032956,102.14947502088707L70.76825401606162,108.48660433328098L71.00896318179369,106.69288278698761L71.24967234752576,111.81873775122489L71.49038151325782,117.87191507462798L71.73109067898989,111.24238692641248L71.97179984472196,116.15529990687126L72.21250901045401,116.41455756734653L72.45321817618608,109.23237464839609L72.69392734191814,112.90796743627178L72.93463650765021,110.77500444595248L73.17534567338228,112.46724412095185L73.41605483911434,110.28555056389581L73.65676400484641,103.46984176619544L73.89747317057848,99.43128118010124L74.13818233631054,107.83964041538705L74.3788915020426,111.23556408068018L74.61960066777468,115.33433393691224L74.86030983350673,113.98892937522693L75.1010189992388,117.7215477060541L75.34172816497089,122.00538926734191L75.58243733070293,121.05051052613753L75.823146496435,119.96267666716471L76.06385566216709,120.93218739107031L76.30456482789913,118.08928016345953L76.54527399363121,111.41497375112883L76.78598315936328,116.15326951671614L77.02669232509534,113.37663070261928L77.26740149082741,109.166923002293L77.50811065655947,108.32954711278569L77.74881982229154,110.61960106481138L77.98952898802361,111.75498071686799L78.23023815375566,113.22448142193967L78.47094731948773,107.3172017708221L78.7116564852198,108.8967609093L78.95236565095186,110.39431197478493L79.19307481668393,115.71406034928928L79.433783982416,119.95992353774463L79.67449314814806,126.82444521922145L79.91520231388013,128.06170020926322L80.1559114796122,121.9119317838736L80.39662064534426,124.54407993969028L80.63732981107633,125.78504388637529L80.8780389768084,129.89122998673108L81.11874814254045,132.20732217102878L81.35945730827252,120.91790080416193L81.6001664740046,114.03493995105829L81.84087563973665,113.07598939861228L82.08158480546872,115.70250976408101L82.32229397120079,122.34307210999403L82.56300313693285,127.65860766127282L82.80371230266492,128.6075538325408L83.04442146839698,123.9258467017143L83.28513063412905,123.72485159321748L83.52583979986112,120.9921596047627L83.76654896559317,119.84277221138642L84.00725813132524,115.10529642689099L84.24796729705731,110.50583088550293L84.48867646278937,119.3123436715099L84.72938562852144,125.09829974106223L84.97009479425351,116.25859022429196L85.21080395998557,99.10248571014172L85.45151312571764,107.58444333696112L85.69222229144971,106.73074480941796L85.93293145718177,109.62778680139327L86.17364062291384,112.66757169660619L86.41434978864591,118.26215767974155L86.65505895437796,124.06541237710506L86.89576812011003,127.01117543053512L87.1364772858421,126.25217306383868L87.37718645157416,126.95446829172799L87.61789561730623,124.32079976111686L87.8586047830383,129.9024131414786L88.09931394877036,130.35362501279633L88.34002311450243,132.0232543486464L88.5807322802345,133.66558544752039L88.82144144596656,138.2221147329711L89.06215061169863,130.319187931148L89.30285977743068,129.91830527068294L89.54356894316275,122.06304233781616L89.78427810889482,121.78648154224987L90.02498727462688,121.23842809183583L90.26569644035895,121.01771606140085L90.50640560609102,122.11387591149267L90.74711477182308,121.49233526930863L90.98782393755515,123.25908262256426L91.22853310328722,118.44687346054837L91.46924226901928,118.25338145140354L91.70995143475135,121.59139399151758L91.95066060048342,119.54447590122325L92.19136976621547,123.92452769385507L92.43207893194754,122.72259183684247L92.67278809767961,124.55411455045433L92.91349726341167,128.8821301399266L93.15420642914374,125.53480113448543L93.39491559487583,119.69391821240164L93.63562476060787,122.52843188841564L93.87633392633994,121.89527898228276L94.11704309207202,118.0912255891773L94.35775225780407,110.01184321886748L94.59846142353615,110.71967715049057L94.83917058926822,116.49424955401312L95.07987975500028,123.58801065290173L95.32058892073235,126.24648183765936L95.5612980864644,131.68391630116352L95.80200725219647,132.65202531805164L96.04271641792855,126.33176359705223L96.2834255836606,124.31033619093417L96.52413474939267,127.31919363974572L96.76484391512474,132.67648250831041L97.0055530808568,121.47043942344966L97.24626224658887,128.13499736431257L97.48697141232094,122.62409252040914L97.727680578053,126.17619244151388L97.96838974378507,129.74375295531297L98.20909890951714,129.23073555452433L98.4498080752492,127.4859057358069L98.69051724098126,127.0699907648016L98.93122640671334,126.88991546869977L99.17193557244539,133.30911236426797L99.41264473817746,130.75859562639914L99.65335390390953,132.28323888166278L99.89406306964159,133.2488887877964L100.13477223537366,134.61021436314144L100.37548140110573,136.81375671171097L100.61619056683779,138.89296786964053L100.85689973256986,138.68349174156768L101.09760889830191,136.3638128395615L101.33831806403398,137.90231533013863L101.57902722976606,123.99117878678935L101.81973639549811,119.34918751728016L102.06044556123018,121.47515298399554L102.30115472696225,123.28912991455611L102.54186389269431,124.51715703955618L102.78257305842638,116.07773375837297L103.02328222415845,122.73207602620367L103.2639913898905,119.89121828907565L103.50470055562258,120.80031488374381L103.74540972135465,122.74847809103342L103.9861188870867,128.92808237971795L104.22682805281877,131.10371423961405L104.46753721855085,132.5164434975084L104.7082463842829,124.58141251791847L104.94895555001497,125.4789906659069L105.18966471574704,118.70192805245263L105.4303738814791,118.64647411892369L105.67108304721117,116.53282393618747L105.91179221294324,118.79015730525572L106.1525013786753,124.10275297616069L106.39321054440737,123.28354502074083L106.63391971013944,121.54632191187432L106.8746288758715,117.48619826463843L107.11533804160356,120.28485034891521L107.35604720733562,128.70715825129355L107.59675637306769,128.52711772195704L107.83746553879976,129.9116316288917L108.07817470453182,126.44025270015904L108.31888387026389,123.15168185814437L108.55959303599596,127.2090536399313L108.80030220172802,125.71431978442693L109.04101136746009,125.46489765558404L109.28172053319216,113.33092356910313L109.52242969892421,112.07545621057444L109.76313886465628,109.88692794924229L110.00384803038835,113.7131553233869L110.24455719612041,111.8235706002052L110.48526636185248,111.53523864647721L110.72597552758455,118.13684720266909L110.96668469331661,117.02012320818227L111.20739385904868,121.09829322201912L111.44810302478076,122.32897088810086L111.6888121905128,123.49402919251793L111.92952135624488,122.69897446865629L112.17023052197696,125.34673501724605L112.410939687709,123.54643812919177L112.65164885344109,125.05872861110332L112.89235801917316,119.35351320657625L113.13306718490522,124.05470968375084L113.37377635063729,129.52394652038473L113.61448551636934,128.0470820317638L113.85519468210141,128.24739279637961L114.09590384783348,127.88114833863078L114.33661301356554,128.32902443448714L114.57732217929761,132.409579932334L114.81803134502968,135.33137851764351L115.05874051076174,139.33913392065222L115.29944967649381,136.79783692108813L115.54015884222588,136.18281293994374L115.78086800795793,134.08018953399815L116.02157717369,136.99180127545623L116.26228633942208,131.51912918746712L116.50299550515413,133.23575212643706L116.7437046708862,132.31789441923203L116.98441383661827,132.9961506642376L117.22512300235033,131.17580383471827L117.4658321680824,122.07826417384385L117.70654133381447,126.34679713183682L117.94725049954653,126.99406876288668L118.1879596652786,129.48854331908325L118.42866883101067,127.2703023424431L118.66937799674272,122.00606186926709L118.9100871624748,127.00440592524986L119.15079632820685,130.66945960175605L119.39150549393892,134.03062664075708L119.63221465967099,125.69596388806872L119.87292382540305,129.24743140630417L120.11363299113512,121.82105945095515L120.35434215686719,125.54079386537042L120.59505132259925,123.64754816050774L120.83576048833132,124.47518489196231L121.07646965406339,125.73135519823256L121.31717881979544,129.13654745002307L121.55788798552751,127.49906057859887L121.79859715125959,134.93284810307887L122.03930631699164,136.17159740256176L122.28001548272371,140.57179173549738L122.52072464845578,138.0309187896601L122.76143381418784,133.0787590824719L123.00214297991991,137.15033026983863L123.24285214565198,132.90677945430113L123.48356131138404,127.22432314902454L123.72427047711611,133.3736588668624L123.96497964284818,131.84420688136834L124.20568880858023,136.6039935025178L124.4463979743123,137.07099093548274L124.68710714004438,139.17233625596828L124.92781630577643,137.8838447394402L125.1685254715085,137.52825606401018L125.40923463724056,132.46050176042726L125.64994380297263,133.49640239121405L125.8906529687047,135.80403858719572L126.13136213443676,141.82240449030948L126.37207130016883,144.62668129844386L126.6127804659009,147.01955405339874L126.85348963163295,140.64768708697457L127.09419879736502,136.74763854425498L127.3349079630971,137.54371288736036L127.57561712882915,141.19897800206732L127.81632629456122,142.90057907171155L128.0570354602933,143.71613462445532L128.29774462602535,141.48820413007007L128.53845379175743,138.35744762574117L128.7791629574895,142.22071921369474L129.01987212322155,145.22061494560342L129.26058128895363,146.47911976407624L129.5012904546857,147.92608366475505L129.74199962041774,148.70200977531405L129.98270878614983,145.2645454817558L130.22341795188188,146.96073663881057L130.46412711761394,147.8821823909649L130.70483628334603,141.49562471690868L130.94554544907808,141.72672664671742L131.18625461481014,143.07583079168003L131.42696378054222,138.73762838535924L131.66767294627428,139.91731213830582L131.90838211200634,141.19425063929356L132.14909127773842,132.82400359075027L132.38980044347048,134.0406429976959L132.63050960920253,139.16182140773643L132.87121877493462,135.64096479424973L133.11192794066667,133.2995359394946L133.35263710639873,135.36837998548086L133.59334627213082,134.63520327143354L133.83405543786287,131.85045862973018L134.07476460359493,134.76049449568617L134.315473769327,139.6663143525349L134.55618293505907,140.86988828765104L134.79689210079113,145.75571390822688L135.0376012665232,146.4262586615628L135.27831043225527,143.45544098405756L135.51901959798732,145.67021974361347L135.7597287637194,146.41833834054802L136.00043792945146,140.09919298022194L136.24114709518352,139.2773517972899L136.4818562609156,140.68674125642764L136.72256542664766,140.62949695321527L136.96327459237972,138.07108243960542L137.20398375811178,138.8697686214913L137.44469292384386,137.76641519235588L137.68540208957592,136.1454604527617L137.92611125530797,133.50234347311934L138.16682042104006,141.0195862277562L138.4075295867721,142.1135671723247L138.64823875250417,141.04131775893433L138.88894791823625,140.77460956351078L139.12965708396834,145.64922951411017L139.37036624970037,144.75503563139978L139.61107541543245,141.92021969936667L139.85178458116454,142.5560396354047L140.09249374689657,142.9183612281288L140.33320291262865,139.32028120277926L140.57391207836073,138.24401412416682L140.8146212440928,140.47316156840938L141.05533040982485,141.31015847745186L141.29603957555693,142.54239357106414L141.536748741289,139.64388399880184L141.77745790702105,141.21299800162444L142.01816707275313,139.18995067047658L142.2588762384852,138.80049788093282L142.49958540421724,141.68863429317335L142.74029456994933,139.2425992642513L142.98100373568138,141.25859586851533L143.22171290141344,145.73544408820112L143.4624220671455,144.49486145422765L143.70313123287758,141.00323114033105L143.94384039860964,140.50940885541124L144.1845495643417,143.57325264912205L144.42525873007378,136.57896240429835L144.66596789580584,139.6278579844512L144.90667706153792,142.18647516528128L145.14738622726998,146.9104921782882L145.38809539300203,150.1727959041106L145.6288045587341,148.58002563763944L145.86951372446617,146.26769347002107L146.11022289019823,142.92864510912264L146.35093205593031,136.23075451626562L146.59164122166234,137.7479643260085L146.83235038739443,142.97648919352957L147.07305955312648,145.1800548771522L147.31376871885857,145.53060260420594L147.55447788459063,141.07502057335324L147.7951870503227,141.39136512193795L148.03589621605474,146.14459453710734L148.27660538178682,148.26926343684138L148.51731454751888,149.4026765264207L148.75802371325096,139.79275536395133L148.99873287898302,141.0754072715526L149.2394420447151,141.5209058989608L149.48015121044713,138.4347145481301L149.72086037617922,134.75593163413143L149.96156954191127,139.10583333942543L150.20227870764336,141.26889346672303L150.44298787337542,139.23027251268206L150.6836970391075,143.25628635834912L150.92440620483953,144.07364748427767L151.1651153705716,146.7557219953509L151.40582453630367,142.49357179321603L151.64653370203575,141.33502203941117L151.8872428677678,141.91118483557324L152.1279520334999,145.25453329104047L152.36866119923192,147.9402507102508L152.609370364964,140.61785668801943L152.85007953069606,128.35874631089945L153.09078869642815,133.61786217940084L153.3314978621602,135.40590813454685L153.57220702789226,141.685359896613L153.81291619362432,132.82959974354463L154.0536253593564,129.0627762630499L154.29433452508846,132.1207839519072L154.53504369082054,132.9711444914696L154.7757528565526,136.31421366939855L155.01646202228466,136.4778321733893L155.2571711880167,136.74708730003948L155.4978803537488,139.71589383775463L155.73858951948085,143.30748340125763L155.97929868521294,138.0108647752603L156.22000785094502,141.93951884863486L156.46071701667705,133.6748193907445L156.7014261824091,133.89165038202086L156.9421353481412,139.92494918572996L157.18284451387328,133.17768043548287L157.42355367960533,131.3222426736614L157.66426284533742,134.23029424467842L157.90497201106945,138.584225481683L158.1456811768015,142.1799085708922L158.3863903425336,142.94257218967434L158.62709950826567,144.61685238809437L158.86780867399773,146.4952458465803L159.10851783972976,149.74749778206143L159.34922700546184,151.3013588408712L159.58993617119393,144.3061625024358L159.83064533692598,145.2071289797159L160.07135450265807,149.0271840534705L160.31206366839012,150.14421488761565L160.55277283412218,145.91628957044986L160.79348199985424,140.00040119189362L161.03419116558632,141.64888349995627L161.27490033131838,143.19393831221183L161.51560949705046,145.5856397606501L161.75631866278252,149.51794920508047L161.99702782851458,141.53656246326528L162.23773699424663,144.44318002740937L162.47844615997872,146.99270487528892L162.71915532571077,148.09562704195818L162.95986449144286,146.89818313768802L163.2005736571749,149.28544147593556L163.44128282290697,148.5109091816409L163.68199198863903,148.17852656437756L163.9227011543711,145.84513311072567L164.16341032010317,147.26966077518406L164.40411948583525,147.43993117954489L164.64482865156728,147.22910836318425L164.88553781729937,148.96326410188024L165.12624698303142,145.10131794712927L165.3669561487635,145.63249334287283L165.60766531449556,136.8188687240174L165.84837448022765,142.84959996206592L166.08908364595968,142.36302357525366L166.32979281169176,136.28303755552284L166.57050197742382,135.3336311096653L166.8112111431559,137.18858055442806L167.05192030888796,133.83968264857293L167.29262947462004,129.65049414652626L167.53333864035207,133.10725957967998L167.77404780608416,130.18780378260368L168.0147569718162,135.28635934812397L168.2554661375483,139.17496775416114L168.49617530328035,138.3222613116538L168.73688446901244,137.32034147845914L168.97759363474447,141.2442274646443L169.21830280047655,138.24428929725795L169.4590119662086,141.8429854224965L169.6997211319407,136.9895357352769L169.94043029767275,141.4765069970208L170.18113946340483,143.78068431920343L170.42184862913686,137.53953570262598L170.66255779486895,139.60273947438608L170.903266960601,141.2402566447611L171.1439761263331,144.30566341419126L171.38468529206514,145.77655816033788L171.6253944577972,149.70002384774276L171.86610362352926,149.5019837300731L172.10681278926134,150.8796046365876L172.3475219549934,151.22456404455139L172.58823112072548,144.2304303081352L172.82894028645754,136.53182288652752L173.0696494521896,141.62360679985383L173.31035861792165,139.8939233998677L173.55106778365374,138.4816002057816L173.7917769493858,142.1200637026642L174.03248611511788,141.9878135378462L174.27319528084996,144.1194510584146L174.513904446582,146.70512838410752L174.75461361231405,149.44890485725503L174.99532277804613,150.83201919828366L175.23603194377822,150.97116433160912L175.47674110951027,151.07233650875276L175.71745027524236,145.14230594548698L175.95815944097438,142.60616283619427L176.19886860670644,144.93941472913232L176.43957777243853,148.26282064063713L176.6802869381706,149.19194418501428L176.92099610390267,147.51635116350877L177.1617052696347,143.20144347213602L177.40241443536678,136.96403740100013L177.64312360109886,138.58956479384557L177.88383276683092,139.12897756103632L178.124541932563,141.1645881700584L178.36525109829506,146.24281764501376L178.60596026402712,148.107712684726L178.84666942975917,148.24252679477058L179.08737859549126,152.08711702871693L179.32808776122332,151.74490450962017L179.5687969269554,152.51190064021895L179.80950609268746,155.03384439756107L180.0502152584195,156.17696194264394L180.29092442415157,152.02486047449395L180.53163358988365,154.52396133237073L180.7723427556157,147.2960731770643L181.0130519213478,147.56053591023712L181.25376108707985,146.7543110836482L181.4944702528119,144.94763009254928L181.73517941854396,145.76420263684335L181.97588858427605,147.67958035853928L182.2165977500081,150.04511661752997L182.4573069157402,152.1676861196177L182.69801608147222,150.95951568904684L182.9387252472043,153.75689072252888L183.17943441293636,154.54702909285058L183.42014357866844,155.23023116122795L183.6608527444005,149.97608255512387L183.90156191013259,152.54324429947772L184.1422710758646,151.67125016944772L184.3829802415967,150.94172384806024L184.62368940732875,152.2926730655064L184.86439857306084,151.38322679115447L185.1051077387929,150.00441199316305L185.34581690452498,152.3264721363719L185.586526070257,148.84946173267528L185.8272352359891,152.13936649891212L186.06794440172115,153.78389611027998L186.30865356745323,151.88547547558088L186.5493627331853,154.7133586311114L186.79007189891738,155.72409736346287L187.0307810646494,150.05840300344573L187.2714902303815,152.40570448048055L187.51219939611354,147.0334456455044L187.75290856184563,147.11570728374042L187.99361772757769,150.00105111140547L188.23432689330977,153.45961647287044L188.4750360590418,147.4410416001022L188.71574522477388,148.71657966066422L188.95645439050594,141.78904930513136L189.19716355623802,143.7680481648999L189.43787272197008,146.31059670271497L189.67858188770214,140.31619817137744L189.9192910534342,142.6147585150065L190.16000021916628,142.81441015513818L190.40070938489833,143.81248157321878L190.64141855063042,144.34911471103405L190.88212771636248,141.9508016955469L191.12283688209453,144.6989095304662L191.3635460478266,142.64548213353228L191.60425521355867,145.6976599051422L191.84496437929073,144.73931147273854L192.08567354502281,146.75862752544072L192.3263827107549,146.50781267209166L192.56709187648693,149.52263186174943L192.80780104221898,147.0139415577514L193.04851020795107,148.85999082338373L193.28921937368315,147.83658002811967L193.5299285394152,149.702589750154L193.7706377051473,151.75772111324085L194.01134687087932,148.6597429114003L194.25205603661138,150.04627298356246L194.49276520234346,152.69087516341548L194.73347436807555,150.57712024620253L194.9741835338076,152.4821154166565L195.21489269953963,150.66665170147147L195.45560186527172,146.57737213106563L195.6963110310038,149.50690049852307L195.93702019673586,150.2545750233197L196.17772936246794,154.0489519782238L196.4184385282,151.9657095365674L196.65914769393206,150.30642556429225L196.8998568596641,152.0483152507588L197.1405660253962,155.1611460615329L197.38127519112825,148.63971819138266L197.62198435686034,151.1184244572269L197.8626935225924,144.46687750733193L198.10340268832445,148.28045764749558L198.3441118540565,144.79616561867542L198.5848210197886,141.13712818254723L198.82553018552065,144.17510351893935L199.06623935125273,143.5923295087748L199.3069485169848,132.290175860944L199.54765768271685,135.70795745147186L199.7883668484489,135.17727439347377L200.029076014181,139.71021989392213L200.26978517991304,137.52582736576042L200.51049434564513,136.18044590892507L200.75120351137716,142.2961997030028L200.99191267710924,146.22941870224398L201.2326218428413,149.09485646949577L201.47333100857338,148.57232954985216L201.71404017430544,147.31077060654303L201.95474934003752,149.10764731460688L202.19545850576955,142.869858651333L202.43616767150164,144.10923711980698L202.6768768372337,143.62431680271314L202.91758600296578,144.3665819341439L203.15829516869783,142.90979728899754L203.39900433442992,138.1472315359549L203.63971350016195,142.14910118865706L203.88042266589403,146.2237237117966L204.1211318316261,143.6757816339327L204.36184099735817,148.4282089409545L204.60255016309023,145.5147312527688L204.8432593288223,142.81977815291935L205.08396849455434,143.47386489873386L205.32467766028643,143.15497190767772L205.56538682601848,140.35146867887235L205.80609599175057,145.1453500638134L206.04680515748262,147.97673441348084L206.2875143232147,150.92656781215024L206.52822348894674,148.57104863932727L206.76893265467882,147.18791045463962L207.00964182041088,147.94747873265212L207.25035098614296,150.8708779689719L207.49106015187502,151.92418052817888L207.73176931760707,144.74294575672786L207.97247848333913,148.306369795077L208.21318764907122,143.04055911467037L208.45389681480327,141.0857714184044L208.69460598053536,141.89290862278895L208.9353151462674,143.88322272460493L209.17602431199947,136.62430167574686L209.41673347773153,135.88533114771542L209.6574426434636,141.12759088044135L209.89815180919567,139.46323440886712L210.13886097492775,143.89022875806603L210.37957014065984,146.51600024194127L210.62027930639186,149.84065309447035L210.86098847212392,151.76980072469036L211.101697637856,147.44683046520734L211.3424068035881,149.81172693463483L211.58311596932015,150.65740465132734L211.82382513505223,151.15549528819543L212.06453430078426,154.3228718389663L212.30524346651632,156.10196791275288L212.5459526322484,156.98963633100666L212.78666179798049,156.48056571391584L213.02737096371254,152.72308319155243L213.26808012944457,150.8681217492529L213.50878929517665,149.65028570950196L213.74949846090874,148.12490517793023L213.9902076266408,146.42309236707612L214.23091679237288,142.59137137417122L214.47162595810494,144.78412656482337L214.712335123837,142.956694435675L214.95304428956905,144.5606087990544L215.19375345530113,145.3938958572947L215.4344626210332,148.44870136547763L215.67517178676528,151.1486955560315L215.91588095249733,149.30804287998444L216.1565901182294,151.6427243415228L216.39729928396144,149.41246243530216L216.63800844969353,145.56913476601395L216.8787176154256,147.30392407788204L217.11942678115767,142.93115061475518L217.36013594688973,145.03474601982873L217.60084511262178,147.46929897957844L217.84155427835384,146.21600542620325L218.08226344408592,146.9473969744998L218.32297260981798,149.74416022772849L218.56368177555007,150.95992473895885L218.8043909412821,153.04603960222298L219.04510010701418,149.91985519875806L219.28580927274623,148.17372923358266L219.52651843847832,142.41421396654016L219.76722760421038,147.524995245962L220.00793676994246,149.7809273295826L220.2486459356745,152.85072678029283L220.48935510140657,151.03361805965753L220.73006426713863,153.58104527104976L220.97077343287071,156.581145025424L221.21148259860277,156.95261320904157L221.45219176433486,158.1571354695997L221.69290093006688,152.36403908806605L221.93361009579897,151.96315618437865L222.17431926153102,151.23703914246207L222.4150284272631,153.90957037821073L222.65573759299517,149.05141027577562L222.89644675872725,153.22787715549683L223.13715592445928,153.11989883688113L223.37786509019136,154.7765367428726L223.61857425592342,154.19577026075692L223.8592834216555,154.74073986312166L224.09999258738756,157.05957114720573L224.34070175311965,156.62650549066507L224.58141091885167,153.25811233313954L224.82212008458376,150.9487606639616L225.06282925031581,150.76881514731073L225.3035384160479,140.08453011153662L225.54424758177996,142.15507782573118L225.784956747512,144.7855798440611L226.02566591324407,145.87654969767848L226.26637507897615,143.2028575678095L226.5070842447082,142.68548598868364L226.7477934104403,146.60454134663192L226.98850257617235,148.3226715517716L227.2292117419044,135.59010565753786L227.46992090763646,131.05861831809474L227.71063007336855,136.94518324730763L227.9513392391006,127.93443022289262L228.1920484048327,135.7407954931003L228.43275757056477,141.71180281788162L228.6734667362968,143.42855229566715L228.91417590202886,148.588233494066L229.15488506776094,151.5880568879438L229.39559423349303,154.52889465135044L229.63630339922508,153.45464493383173L229.87701256495717,152.26890349778603L230.1177217306892,153.7336281424012L230.35843089642125,154.87647950882837L230.59914006215334,152.45566219801452L230.83984922788542,151.60785507906496L231.08055839361748,153.28118060410895L231.3212675593495,150.60248614313585L231.5619767250816,151.0401003492749L231.80268589081368,154.7862964001714L232.04339505654573,157.42225322819596L232.28410422227782,155.58778105061353L232.52481338800987,155.53023958617766L232.76552255374193,153.73140041585216L233.006231719474,150.135407683513L233.24694088520607,152.19228229263666L233.48765005093813,152.21458183089044L233.7283592166702,140.93910704727617L233.96906838240227,144.7151973145434L234.20977754813433,149.03375432051988L234.45048671386638,152.4735999680947L234.69119587959847,153.5691474404354L234.93190504533052,153.1374870760405L235.1726142110626,154.95907403686476L235.41332337679466,150.7001703011633L235.65403254252672,151.47577840975865L235.89474170825878,151.67513708683998L236.13545087399086,152.15467674896848L236.37616003972292,150.32677515430646L236.616869205455,149.99962903421684L236.85757837118703,145.89533605896543L237.09828753691912,146.73631292546062L237.33899670265117,144.8282368278969L237.57970586838326,147.29003797242956L237.8204150341153,147.51607156523514L238.0611241998474,147.0527659827436L238.30183336557943,149.8759525670159L238.5425425313115,149.10962199187165L238.78325169704357,152.2172449550553L239.02396086277565,152.2612012416958L239.2646700285077,151.2593486482871L239.5053791942398,153.68032973630403L239.74608835997182,156.45438668146298L239.9867975257039,152.87148154420623L240.22750669143596,153.94640923531492L240.46821585716805,153.77550060335736L240.7089250229001,154.87214247611098L240.9496341886322,157.50185205355763L241.19034335436422,158.2861985115446L241.4310525200963,157.8000969359047L241.67176168582836,156.83076751131182L241.91247085156044,158.6027374815548L242.1531800172925,157.60351074677027L242.39388918302458,158.15976483338738L242.6345983487566,158.2471751137819L242.8753075144887,158.96971177590532L243.11601668022075,156.31355779304047L243.35672584595284,157.71570888430173L243.5974350116849,150.75748719434398L243.83814417741695,148.49953550454276L244.078853343149,150.56710501606423L244.3195625088811,153.00571773979283L244.56027167461315,149.78453918637848L244.80098084034523,148.6473895313004L245.0416900060773,150.2747685630283L245.28239917180935,149.88873502943508L245.5231083375414,153.4226402195817L245.7638175032735,153.92936944173616L246.00452666900554,152.83814171689139L246.24523583473763,150.98435291973192L246.4859450004697,151.81128100650992L246.72665416620174,155.41016910741493L246.9673633319338,152.26061948091828L247.20807249766588,155.05260897049644L247.44878166339797,152.60020301374158L247.68949082913002,151.7573188749162L247.9301999948621,147.79546111900586L248.17090916059414,149.41070066495644L248.4116183263262,153.29906804107424L248.65232749205828,155.06964521504156L248.89303665779036,155.93126868589394L249.13374582352242,154.94908492779288L249.37445498925445,152.98678886239531L249.61516415498653,152.43021354775203L249.85587332071862,150.90359278571776L250.09658248645067,146.18056623380676L250.33729165218276,141.55216255490092L250.5780008179148,140.75098660652966L250.81870998364687,139.65895631862188L251.05941914937893,142.57529110071755L251.300128315111,146.82412763856564L251.54083748084307,148.89288738404056L251.78154664657515,152.8744038662368L252.0222558123072,151.68877529462128L252.26296497803926,154.7073273645967L252.50367414377132,158.3294556535798L252.7443833095034,159.03942758620187L252.98509247523546,154.97454599730955L253.22580164096755,153.4101895202426L253.4665108066996,151.79068982976295L253.70721997243166,153.4664373762512L253.94792913816372,156.95437400059726L254.1886383038958,158.25996174415533L254.42934746962786,159.8947981708465L254.67005663535994,155.91737086501746L254.91076580109197,156.30816376252307L255.15147496682405,152.7043203966624L255.3921841325561,153.34931846490917L255.6328932982882,153.14794751117986L255.87360246402025,150.0161675009232L256.1143116297523,150.6069866267891L256.3550207954844,150.8381490975791L256.5957299612164,153.9054571428898L256.8364391269485,155.14672896912137L257.0771482926806,151.72362134611882L257.3178574584127,154.0785923608962L257.5585666241447,154.92671003131866L257.7992757898768,155.53216841648236L258.0399849556088,157.31651627818093L258.2806941213409,153.37927598526204L258.521403287073,155.92296546781105L258.76211245280507,156.4211718816627L259.0028216185371,156.6045175287034L259.2435307842692,158.39907462942597L259.4842399500012,157.04290739081597L259.7249491157333,152.4657536103631L259.9656582814654,151.03278323748714L260.20636744719747,154.11487579319626L260.4470766129295,153.5424139253118L260.6877857786616,155.79150896789847L260.9284949443936,154.33516572485527L261.1692041101257,157.13664696637142L261.4099132758578,158.05210527290632L261.65062244158986,158.2310871649289L261.8913316073219,157.0235315771627L262.132040773054,154.73418204322135L262.372749938786,155.44654574665606L262.6134591045181,154.84101936523615L262.85416827025017,155.40197246693452L263.09487743598226,154.95200246202808L263.3355866017143,153.23965319728646L263.57629576744637,155.91787518784068L263.8170049331784,151.9201738097403L264.0577140989105,153.23720689137485L264.29842326464257,151.68791650112985L264.53913243037465,154.26466120958463L264.7798415961067,158.2588748298633" fill="none"></path></g></g></g></g><g opacity="0.2"><g><g><g><path style="fill: none;" stroke="rgb(0, 119, 187)" stroke-width="2px" d="M24.311385029772914,167.0283933677179L24.552094195504985,157.41103752086676L24.792803361237052,146.09980875088453L25.033512526969115,141.04501068872568L25.274221692701182,128.55991132157413L25.514930858433246,123.68123429959755L25.755640024165313,105.32467671055242L25.99634918989738,115.57976269057376L26.237058355629443,112.84106713245265L26.47776752136151,105.46635308153154L26.718476687093574,100.41624668827664L26.95918585282564,105.80447805046337L27.199895018557708,98.44834421139394L27.44060418428977,91.47842494752187L27.68131335002184,72.49252809469252L27.922022515753905,87.4293101747659L28.16273168148597,75.51239897920361L28.403440847218036,74.67355263901734L28.6441500129501,82.7181768598216L28.88485917868217,81.24433719332583L29.125568344414237,47.6275490580007L29.3662775101463,44.26816976372713L29.606986675878368,52.193300786523785L29.84769584161043,79.49251614427082L30.088405007342498,59.38722919567922L30.329114173074565,93.7033226110588L30.56982333880663,60.3398424918262L30.810532504538696,41.4885604467795L31.051241670270763,77.74414768233234L31.291950836002826,61.322506528799046L31.532660001734893,55.08719434600359L31.773369167466956,50.811459935266406L32.01407833319902,35.97089315748487L32.254787498931094,0.8978530990936847L32.49549666466316,43.79165259204897L32.73620583039522,98.6898147859442L32.976914996127284,41.26905049167583L33.217624161859355,12.023712827688676L33.45833332759142,36.90597885980353L33.69904249332348,37.79254789368717L33.93975165905555,34.927153215318796L34.180460824787616,12.379642078614982L34.42116999051968,41.396290958335086L34.66187915625175,51.85278186345893L34.902588321983814,49.662542400209915L35.14329748771588,64.05944571856124L35.38400665344795,61.30400451142909L35.62471581918001,29.84127585415133L35.86542498491208,62.73650335692887L36.106134150644145,98.41716265806308L36.346843316376216,75.35060858153884L36.58755248210828,28.4960300203448L36.82826164784034,48.8580535123049L37.068970813572406,104.50965562745405L37.30967997930448,71.92354895584569L37.55038914503654,44.02681347341943L37.791098310768604,65.03815191176636L38.031807476500674,51.34254482527363L38.27251664223274,20.625081758428678L38.5132258079648,85.56054025583967L38.75393497369687,72.89074251535574L38.994644139428935,104.54365819708747L39.235353305161,108.75860542071777L39.47606247089306,9.349293133551715L39.71677163662513,84.85071481051212L39.957480802357196,78.24531416063664L40.19818996808926,-13.696304821868173L40.43889913382133,59.640410897608945L40.679608299553394,26.090936181135273L40.92031746528546,79.12355247473572L41.16102663101753,31.513398681440457L41.40173579674959,92.47199410721632L41.642444962481655,121.64195830577346L41.883154128213725,64.6638650025133L42.12386329394579,95.21849708359044L42.36457245967785,41.241201226258774L42.605281625409916,84.45487629910153L42.845990791141986,60.91761550238789L43.08669995687405,48.294138969890284L43.32740912260611,41.05737201466568L43.568118288338184,23.48579679781337L43.80882745407025,59.73009395319605L44.04953661980231,35.83167089024014L44.29024578553439,62.62105221213083L44.53095495126645,-59.56648703757101L44.77166411699851,27.78734741744256L45.012373282730586,122.25835939031101L45.25308244846265,7.726023812465041L45.49379161419471,98.60142494678576L45.734500779926776,89.15064740586544L45.97520994565885,81.52886285251004L46.21591911139091,89.46041785272901L46.456628277122974,64.76368928088512L46.697337442855044,89.94756345896266L46.93804660858711,128.6771248496912L47.17875577431917,130.99692053925077L47.41946494005124,86.24848929116251L47.660174105783305,64.35153218263297L47.90088327151537,47.96228158941735L48.14159243724744,61.48161425424437L48.3823016029795,126.13625832287339L48.623010768711566,67.31703985745955L48.86371993444363,93.20122381393382L49.1044291001757,75.19781656423342L49.345138265907764,110.97913622319795L49.58584743163983,116.12393011887085L49.8265565973719,51.02473839167201L50.06726576310396,102.92237982780489L50.307974928836025,67.31553611742622L50.548684094568095,99.57724395912692L50.78939326030016,106.10473884535622L51.03010242603222,111.43351232662553L51.27081159176429,81.50777440228278L51.511520757496356,112.51866526930921L51.75222992322842,88.5347515779791L51.99293908896048,73.64362304531726L52.233648254692554,134.76998773913039L52.47435742042462,128.631711900685L52.71506658615668,75.22797557434167L52.95577575188875,101.71973666883801L53.196484917620815,93.25800503759191L53.43719408335288,102.32511834641141L53.677903249084956,-22.417142890775267L53.91861241481702,129.51100584028745L54.15932158054908,102.53905243347154L54.40003074628115,117.88663223080691L54.64073991201322,126.93113530448541L54.88144907774528,85.25651409590338L55.122158243477344,88.2122474605134L55.362867409209414,94.47051273117738L55.60357657494148,137.06532359330802L55.84428574067354,48.6585132248437L56.08499490640561,103.92631276380898L56.325704072137675,129.44103080157703L56.56641323786974,78.70168121586835L56.80712240360181,119.09074304004632L57.04783156933387,123.57274246367372L57.288540735065936,78.52155120475723L57.529249900798,87.50553776453486L57.76995906653007,109.91187177195063L58.010668232262134,109.99078804889919L58.2513773979942,60.69930853931087L58.49208656372627,86.03847695810927L58.73279572945833,96.04261880137044L58.973504895190395,88.40533971071173L59.214214060922465,123.46323409948734L59.45492322665453,111.6489742135595L59.69563239238659,89.00355155580625L59.93634155811866,94.7617270260298L60.177050723850726,118.30694561499976L60.41775988958279,118.20959348524275L60.65846905531485,95.09386710962902L60.899178221046924,122.88895578076308L61.13988738677899,119.10271882567167L61.38059655251105,93.42673068429038L61.62130571824312,104.20371671019538L61.862014883975185,111.85966022214765L62.10272404970725,109.24993142424405L62.343433215439326,119.02641905638112L62.58414238117139,96.334921804007L62.824851546903446,117.67631914974702L63.06556071263552,79.24101261621828L63.30626987836759,130.88649188616404L63.54697904409965,105.66128590953068L63.787688209831714,128.2008873736592L64.02839737556378,73.29408168205251L64.26910654129584,121.12076802518546L64.50981570702791,109.46447302227766L64.75052487275998,110.27318441219623L64.99123403849204,58.189193496174404L65.23194320422411,107.89483308573922L65.47265236995618,104.53376358766823L65.71336153568824,82.30289799726029L65.9540707014203,122.83269184367646L66.19477986715238,84.17410397504048L66.43548903288443,114.20259546333993L66.6761981986165,117.2070560199896L66.91690736434856,125.2145980115722L67.15761653008065,144.5201208234435L67.3983256958127,102.53508255978356L67.63903486154477,82.90819546539183L67.87974402727684,111.47914181419655L68.1204531930089,142.84680101908788L68.36116235874097,116.4896156351333L68.60187152447304,123.20193821633784L68.8425806902051,104.13911002340392L69.08328985593717,63.75946762679464L69.32399902166924,139.69921448606698L69.5647081874013,111.77646129358422L69.80541735313336,79.47646221567513L70.04612651886542,91.90491569577162L70.28683568459749,79.35593444452459L70.52754485032956,119.55050253279319L70.76825401606162,133.83512158285663L71.00896318179369,99.51799660181419L71.24967234752576,132.322157608174L71.49038151325782,142.08462436824033L71.73109067898989,84.72427433355058L71.97179984472196,135.80695182870633L72.21250901045401,117.45158820924766L72.45321817618608,80.50364297259429L72.69392734191814,127.61033858777448L72.93463650765021,102.24315248467528L73.17534567338228,119.23620282094926L73.41605483911434,101.55877633567161L73.65676400484641,76.20700657539399L73.89747317057848,83.27703883572426L74.13818233631054,141.47307735653035L74.3788915020426,124.81925874185269L74.61960066777468,131.72941336184059L74.86030983350673,108.60731112848558L75.1010189992388,132.65202102936274L75.34172816497089,139.14075551249323L75.58243733070293,117.23099556132001L75.823146496435,115.61134123127344L76.06385566216709,124.81023028669264L76.30456482789913,106.7176512530165L76.54527399363121,84.71774810180598L76.78598315936328,135.10645257906543L77.02669232509534,102.27007544623181L77.26740149082741,92.32809220098791L77.50811065655947,104.9800435547564L77.74881982229154,119.77981687291408L77.98952898802361,116.29649932509444L78.23023815375566,119.10248424222648L78.47094731948773,83.68808316635175L78.7116564852198,115.21499746321167L78.95236565095186,116.38451623672464L79.19307481668393,136.99305384730673L79.433783982416,136.94337629156604L79.67449314814806,154.28253194512865L79.91520231388013,133.01072016943039L80.1559114796122,97.31285808231505L80.39662064534426,135.07267256295694L80.63732981107633,130.7488996731154L80.8780389768084,146.3159743881541L81.11874814254045,141.4716909082196L81.35945730827252,75.76021533669447L81.6001664740046,86.50309653864383L81.84087563973665,109.24018718882817L82.08158480546872,126.20859122595604L82.32229397120079,148.9053214936461L82.56300313693285,148.92074986638798L82.80371230266492,132.40333851761267L83.04442146839698,105.19901817840824L83.28513063412905,122.92087115923023L83.52583979986112,110.06139165094355L83.76654896559317,115.24522263788135L84.00725813132524,96.15539328890918L84.24796729705731,92.10796871995065L84.48867646278937,154.53839481553777L84.72938562852144,148.24212401927167L84.97009479425351,80.89975215721088L85.21080395998557,30.478067653540688L85.45151312571764,141.5122738442388L85.69222229144971,103.31595069924522L85.93293145718177,121.21595476929451L86.17364062291384,124.82671127745782L86.41434978864591,140.640501612283L86.65505895437796,147.2784311665592L86.89576812011003,138.79422764425524L87.1364772858421,123.21616359705301L87.37718645157416,129.76364920328527L87.61789561730623,113.78612563867223L87.8586047830383,152.2288666629257L88.09931394877036,132.1584724980672L88.34002311450243,138.7017716920467L88.5807322802345,140.23490984301634L88.82144144596656,156.44823187477394L89.06215061169863,98.70748072385564L89.30285977743068,128.31477462882262L89.54356894316275,90.64199060634905L89.78427810889482,120.68023835998467L90.02498727462688,119.0462142901797L90.26569644035895,120.13486793966095L90.50640560609102,126.49851531185989L90.74711477182308,119.0061727005725L90.98782393755515,130.32607203558683L91.22853310328722,99.19803681248486L91.46924226901928,117.4794134148242L91.70995143475135,134.94344415197367L91.95066060048342,111.35680354004589L92.19136976621547,141.44473486438238L92.43207893194754,117.91484840879211L92.67278809767961,131.8802054049017L92.91349726341167,146.19419249781578L93.15420642914374,112.14548511272066L93.39491559487583,96.33038652406648L93.63562476060787,133.86648659247157L93.87633392633994,119.36266735775135L94.11704309207202,102.87501201675536L94.35775225780407,77.69431373762816L94.59846142353615,113.55101287698285L94.83917058926822,139.59253916810337L95.07987975500028,151.9630550484561L95.32058892073235,136.88036657668994L95.5612980864644,153.43365415518014L95.80200725219647,136.52446138560418L96.04271641792855,101.05071671305457L96.2834255836606,116.22462656646196L96.52413474939267,139.35462343499188L96.76484391512474,154.1056379825692L97.0055530808568,76.64626708400667L97.24626224658887,154.79322912776414L97.48697141232094,100.5804731447954L97.727680578053,140.38459212593284L97.96838974378507,144.0139950105093L98.20909890951714,127.17866595136995L98.4498080752492,120.50658646093707L98.69051724098126,125.40633088078043L98.93122640671334,126.16961428429245L99.17193557244539,158.98589994654088L99.41264473817746,120.55652867492365L99.65335390390953,138.38181190271737L99.89406306964159,137.11148841233086L100.13477223537366,140.05551666452155L100.37548140110573,145.62792610598905L100.61619056683779,147.20981250135884L100.85689973256986,137.84558722927628L101.09760889830191,127.08509723153675L101.33831806403398,144.05632529244718L101.57902722976606,68.34663261339217L101.81973639549811,100.78122243924341L102.06044556123018,129.9790148508571L102.30115472696225,130.54503763679844L102.54186389269431,129.42926553955633L102.78257305842638,82.3200406336401L103.02328222415845,149.34944509752654L103.2639913898905,108.52778734056355L103.50470055562258,124.4367012624164L103.74540972135465,130.54113092019185L103.9861188870867,153.64649953445613L104.22682805281877,139.80624167919837L104.46753721855085,138.16736052908578L104.7082463842829,92.84128859955877L104.94895555001497,129.06930325786067L105.18966471574704,91.59367759863554L105.4303738814791,118.42465838480794L105.67108304721117,108.07822320524261L105.91179221294324,127.81949078152866L106.1525013786753,145.35313565978055L106.39321054440737,120.00671319906141L106.63391971013944,114.59742947640825L106.8746288758715,101.24570367569488L107.11533804160356,131.47945868602235L107.35604720733562,162.3963898608069L107.59675637306769,127.8069556046109L107.83746553879976,135.44968725663045L108.07817470453182,112.55473698522844L108.31888387026389,109.99739849008566L108.55959303599596,143.43854076707902L108.80030220172802,119.7353843624096L109.04101136746009,124.46720914021235L109.28172053319216,64.79502722317946L109.52242969892421,107.0535867764598L109.76313886465628,101.1328149039136L110.00384803038835,129.0180648199654L110.24455719612041,104.26523170747836L110.48526636185248,110.38191083156525L110.72597552758455,144.54328142743665L110.96668469331661,112.55322723023498L111.20739385904868,137.41097327736654L111.44810302478076,127.25168155242775L111.6888121905128,128.15426241018616L111.92952135624488,119.51875557320977L112.17023052197696,135.937777211605L112.410939687709,116.3452505769746L112.65164885344109,131.10789053874953L112.89235801917316,96.53265158846807L113.13306718490522,142.85949559244915L113.37377635063729,151.40089386692034L113.61448551636934,122.1396240772802L113.85519468210141,129.04863585484276L114.09590384783348,126.41617050763539L114.33661301356554,130.12052881791263L114.57732217929761,148.73180192372143L114.81803134502968,147.01857285888156L115.05874051076174,155.37015553268705L115.29944967649381,126.63264892283186L115.54015884222588,133.72271701536607L115.78086800795793,125.6696959102158L116.02157717369,148.6382482412886L116.26228633942208,109.62844083551067L116.50299550515413,140.10224388231686L116.7437046708862,128.64646359041186L116.98441383661827,135.70917564425991L117.22512300235033,123.89441651664102L117.4658321680824,85.68810553034612L117.70654133381447,143.42092896380876L117.94725049954653,129.58315528708607L118.1879596652786,139.46644154386942L118.42866883101067,118.3973384358826L118.66937799674272,100.94909997656305L118.9100871624748,146.99778214918086L119.15079632820685,145.32967430778075L119.39150549393892,147.47529479676112L119.63221465967099,92.35731287731535L119.87292382540305,143.45330147924602L120.11363299113512,92.1155716295591L120.35434215686719,140.41973152303143L120.59505132259925,116.07456534105707L120.83576048833132,127.78573181778067L121.07646965406339,130.75603642331353L121.31717881979544,142.75731645718514L121.55788798552751,120.94911309290212L121.79859715125959,164.6679982009988L122.03930631699164,141.12659460049332L122.28001548272371,158.17256906723995L122.52072464845578,127.86742700631078L122.76143381418784,113.27012025371914L123.00214297991991,153.4366150193057L123.24285214565198,115.932576192151L123.48356131138404,104.4944979279182L123.72427047711611,157.97100173821386L123.96497964284818,125.72639893939215L124.20568880858023,155.64313998711555L124.4463979743123,138.9389806673425L124.68710714004438,147.57771753791047L124.92781630577643,132.72987867332785L125.1685254715085,136.10590136229013L125.40923463724056,112.18948454609556L125.64994380297263,137.6400049143612L125.8906529687047,145.03458337112244L126.13136213443676,165.89586810276464L126.37207130016883,155.8437885309813L126.6127804659009,156.59104507321823L126.85348963163295,115.16021922127796L127.09419879736502,121.14744437337654L127.3349079630971,140.7280102597819L127.57561712882915,155.8200384608951L127.81632629456122,149.70698335028848L128.0570354602933,146.97835683543047L128.29774462602535,132.57648215252902L128.53845379175743,125.8344216084256L128.7791629574895,157.6738055655089L129.01987212322155,157.22019787323833L129.26058128895363,151.51313903796736L129.5012904546857,153.71393926747038L129.74199962041774,151.80571421754993L129.98270878614983,131.51468830752293L130.22341795188188,153.74550126702968L130.46412711761394,151.56796539958214L130.70483628334603,115.94939402068364L130.94554544907808,142.6511343659525L131.18625461481014,148.4722473715305L131.42696378054222,121.38481876007602L131.66767294627428,144.63604715009208L131.90838211200634,146.3020046432446L132.14909127773842,99.34301539657713L132.38980044347048,138.90720062547837L132.63050960920253,159.64653504789854L132.87121877493462,121.55753834030297L133.11192794066667,123.93382052047409L133.35263710639873,143.64375616942593L133.59334627213082,131.70249641524418L133.83405543786287,120.71148006291689L134.07476460359493,146.40063795951L134.315473769327,159.28959377992982L134.55618293505907,145.68418402811557L134.79689210079113,165.29901639053023L135.0376012665232,149.10843767490655L135.27831043225527,131.57217027403652L135.51901959798732,154.52933478183704L135.7597287637194,149.41081272828626L136.00043792945146,114.82261153891758L136.24114709518352,135.98998706556182L136.4818562609156,146.32429909297858L136.72256542664766,140.40051974036572L136.96327459237972,127.83742438516602L137.20398375811178,142.06451334903474L137.44469292384386,133.35300147581432L137.68540208957592,129.66164149438507L137.92611125530797,122.92987555454974L138.16682042104006,171.0885572463037L138.4075295867721,146.48949095059874L138.64823875250417,136.7523201053728L138.88894791823625,139.70777678181668L139.12965708396834,165.14770931650773L139.37036624970037,141.1782601005581L139.61107541543245,130.58095597123426L139.85178458116454,145.0993193795568L140.09249374689657,144.36764759902513L140.33320291262865,124.9279611013812L140.57391207836073,133.93894580971704L140.8146212440928,149.38975134537958L141.05533040982485,144.65814611362174L141.29603957555693,147.47133394551332L141.536748741289,128.04984570975262L141.77745790702105,147.48945401291482L142.01816707275313,131.0977613458851L142.2588762384852,137.2426867227578L142.49958540421724,153.24117994213546L142.74029456994933,129.45845914856318L142.98100373568138,149.32258228557134L143.22171290141344,163.64283696694434L143.4624220671455,139.53253091833375L143.70313123287758,127.03670988474464L143.94384039860964,138.53411971573206L144.1845495643417,155.8286278239654L144.42525873007378,108.60180142500349L144.66596789580584,151.8234403050627L144.90667706153792,152.42094388860153L145.14738622726998,165.80656023031582L145.38809539300203,163.22201080740012L145.6288045587341,142.2089445717549L145.86951372446617,137.01836479954756L146.11022289019823,129.57245166552892L146.35093205593031,109.43919214483749L146.59164122166234,143.81680356498015L146.83235038739443,163.89058866361378L147.07305955312648,153.99431761164269L147.31376871885857,146.93279351242091L147.55447788459063,123.25269244994237L147.7951870503227,142.65674331627673L148.03589621605474,165.1575121977849L148.27660538178682,156.76793903577766L148.51731454751888,153.93632888473783L148.75802371325096,101.35307071407381L148.99873287898302,146.20601490195776L149.2394420447151,143.30290040859364L149.48015121044713,126.08994914480732L149.72086037617922,120.04079997813669L149.96156954191127,156.5054401606015L150.20227870764336,149.9211339759134L150.44298787337542,131.07578869651826L150.6836970391075,159.36034174101738L150.92440620483953,147.3430919879919L151.1651153705716,157.4840200396438L151.40582453630367,125.44497098467657L151.64653370203575,136.7008230241918L151.8872428677678,144.2158360202215L152.1279520334999,158.6279271129093L152.36866119923192,158.6831203870922L152.609370364964,111.32828059909393L152.85007953069606,79.32230480241947L153.09078869642815,154.65432565340646L153.3314978621602,142.55809195513092L153.57220702789226,166.8031669448776L153.81291619362432,97.40655913127118L154.0536253593564,113.99548234107094L154.29433452508846,144.3528147073365L154.53504369082054,136.37258664971907L154.7757528565526,149.68649038111442L155.01646202228466,137.13230618935216L155.2571711880167,137.82410780664037L155.4978803537488,151.59111998861522L155.73858951948085,157.67384165526968L155.97929868521294,116.82439027127089L156.22000785094502,157.65413514213304L156.46071701667705,100.61602155918304L156.7014261824091,134.75897434712638L156.9421353481412,164.0581444005663L157.18284451387328,106.18860543449446L157.42355367960533,123.90049162637563L157.66426284533742,145.86250052874652L157.90497201106945,155.99995042970139L158.1456811768015,156.5626409277289L158.3863903425336,145.993226664803L158.62709950826567,151.31397318177446L158.86780867399773,154.00881968052403L159.10851783972976,162.75650552398596L159.34922700546184,157.5168030761102L159.58993617119393,116.32537714869427L159.83064533692598,148.81099488883612L160.07135450265807,164.30740434848914L160.31206366839012,154.61233822419615L160.55277283412218,129.00458830178678L160.79348199985424,116.33684767766844L161.03419116558632,148.24281273220694L161.27490033131838,149.37415756123409L161.51560949705046,155.15244555440327L161.75631866278252,165.24718698280185L161.99702782851458,109.61101549600457L162.23773699424663,156.0696502839857L162.47844615997872,157.19080426680705L162.71915532571077,152.50731570863528L162.95986449144286,142.1084075206073L163.2005736571749,158.83447482892578L163.44128282290697,145.4127800044621L163.68199198863903,146.84899609532425L163.9227011543711,136.51155929611826L164.16341032010317,152.9677714330176L164.40411948583525,148.12101279698825L164.64482865156728,146.3858170977416L164.88553781729937,155.89988705666428L165.12624698303142,129.65353332812543L165.3669561487635,147.75719492584716L165.60766531449556,101.56437024859557L165.84837448022765,166.97252491426005L166.08908364595968,140.41671802800465L166.32979281169176,111.96309347659944L166.57050197742382,131.53600532623526L166.8112111431559,144.60837833347904L167.05192030888796,120.44409102515237L167.29262947462004,112.89374013833972L167.53333864035207,146.9343213122948L167.77404780608416,118.5099805942984L168.0147569718162,155.68058161020514L168.2554661375483,154.72940137830992L168.49617530328035,134.91143554162446L168.73688446901244,133.31266214568052L168.97759363474447,156.93977140938495L169.21830280047655,126.2445366277125L169.4590119662086,156.23776992345074L169.6997211319407,117.57573698639844L169.94043029767275,159.42439204399653L170.18113946340483,152.9973936079339L170.42184862913686,112.57494123631609L170.66255779486895,147.8555545614265L170.903266960601,147.7903253262612L171.1439761263331,156.5672904919119L171.38468529206514,151.6601371449244L171.6253944577972,165.39388659736224L171.86610362352926,148.70982325939445L172.10681278926134,156.39008826264563L172.3475219549934,152.60440167640644L172.58823112072548,116.25389536247046L172.82894028645754,105.73739320009697L173.0696494521896,161.990742453159L173.31035861792165,132.97518979992316L173.55106778365374,132.83230742943732L173.7917769493858,156.67391769019443L174.03248611511788,141.4588128785743L174.27319528084996,152.64600114068816L174.513904446582,157.04783768687935L174.75461361231405,160.42401074984502L174.99532277804613,156.36447656239815L175.23603194377822,151.52774486491097L175.47674110951027,151.4770252173272L175.71745027524236,121.42218369242391L175.95815944097438,132.46159039902335L176.19886860670644,154.27242230088467L176.43957777243853,161.55644428665627L176.6802869381706,152.90843836252293L176.92099610390267,140.81397907748675L177.1617052696347,125.94181270664505L177.40241443536678,112.01441311645651L177.64312360109886,145.09167436522736L177.88383276683092,141.2866286297992L178.124541932563,149.30703060614675L178.36525109829506,166.55573554483527L178.60596026402712,155.56729284357502L178.84666942975917,148.7817832349489L179.08737859549126,167.46547796450238L179.32808776122332,150.37605443323304L179.5687969269554,155.57988516261403L179.80950609268746,165.12161942692964L180.0502152584195,160.74943212297535L180.29092442415157,135.41645460189415L180.53163358988365,164.5203647638777L180.7723427556157,118.38452055583859L181.0130519213478,148.61838684292852L181.25376108707985,143.5294117772924L181.4944702528119,137.7209061281537L181.73517941854396,149.0304928140195L181.97588858427605,155.34109124532307L182.2165977500081,159.50726165349266L182.4573069157402,160.6579641279687L182.69801608147222,146.12683396676334L182.9387252472043,164.94639085645713L183.17943441293636,157.7075825741373L183.42014357866844,157.96303943473742L183.6608527444005,128.95948813070748L183.90156191013259,162.81189127689314L184.1422710758646,148.18327364932776L184.3829802415967,148.0236185625103L184.62368940732875,157.69646993529105L184.86439857306084,147.74544169374673L185.1051077387929,144.48915280119735L185.34581690452498,161.61471270920734L185.586526070257,134.9414201178888L185.8272352359891,165.29898556385953L186.06794440172115,160.36201455575136L186.30865356745323,144.29179293678447L186.5493627331853,166.0248912532334L186.79007189891738,159.76705229286884L187.0307810646494,127.3956255633771L187.2714902303815,161.79491038861997L187.51219939611354,125.54441030559983L187.75290856184563,147.4447538366844L187.99361772757769,161.5424264220657L188.23432689330977,167.29387791873023L188.4750360590418,123.36674210902939L188.71574522477388,153.81873190291225L188.95645439050594,114.07892788299985L189.19716355623802,151.6840436039741L189.43787272197008,156.48079085397532L189.67858188770214,116.33860404602736L189.9192910534342,151.80899988952274L190.16000021916628,143.61301671566486L190.40070938489833,147.8047672455412L190.64141855063042,146.4956472622951L190.88212771636248,132.35754963359813L191.12283688209453,155.69134087014353L191.3635460478266,134.4317725457966L191.60425521355867,157.90637099158184L191.84496437929073,140.9059177431238L192.08567354502281,154.8358917362494L192.3263827107549,145.5045532586955L192.56709187648693,161.5819086203805L192.80780104221898,136.97918034175933L193.04851020795107,156.24418788591294L193.28921937368315,143.7429368470635L193.5299285394152,157.1666286382914L193.7706377051473,159.97824656558825L194.01134687087932,136.26783010403798L194.25205603661138,155.59239327221115L194.49276520234346,163.26928388282755L194.73347436807555,142.12210057735072L194.9741835338076,160.10209609847237L195.21489269953963,143.4047968407313L195.45560186527172,130.22025384944223L195.6963110310038,161.22501396835278L195.93702019673586,153.24527312250618L196.17772936246794,169.22645979784033L196.4184385282,143.63273976994185L196.65914769393206,143.6692896751917L196.8998568596641,159.015873996625L197.1405660253962,167.61246930462926L197.38127519112825,122.55400671078164L197.62198435686034,161.03324952060387L197.8626935225924,117.86068970775212L198.10340268832445,163.5347782081501L198.3441118540565,130.85899750339485L198.5848210197886,126.50097843803447L198.82553018552065,156.3270048645079L199.06623935125273,141.26123346811653L199.3069485169848,87.08156126962083L199.54765768271685,149.37908381358324L199.7883668484489,133.05454216148138L200.029076014181,157.8420018957156L200.26978517991304,128.78825725311356L200.51049434564513,130.7989200815837L200.75120351137716,166.75921487931376L200.99191267710924,161.96229469920868L201.2326218428413,160.55660753850296L201.47333100857338,146.48222187127766L201.71404017430544,142.26453483330664L201.95474934003752,156.2951541468622L202.19545850576955,117.91870399823752L202.43616767150164,149.0667509937029L202.6768768372337,141.68463553433781L202.91758600296578,147.33564245986685L203.15829516869783,137.0826587084121L203.39900433442992,119.09696852378427L203.63971350016195,158.15657979946567L203.88042266589403,162.52221380435478L204.1211318316261,133.48401332247713L204.36184099735817,167.43791816904172L204.60255016309023,133.86082050002602L204.8432593288223,132.03996575352147L205.08396849455434,146.09021188199193L205.32467766028643,141.8793999434532L205.56538682601848,129.13745576365073L205.80609599175057,164.3208756035776L206.04680515748262,159.3022718121507L206.2875143232147,162.72590140682786L206.52822348894674,139.14897194803527L206.76893265467882,141.65535771588912L207.00964182041088,150.98575184470207L207.25035098614296,162.56447491425115L207.49106015187502,156.13739076500664L207.73176931760707,116.01800667092388L207.97247848333913,162.56006594847346L208.21318764907122,121.97731639304395L208.45389681480327,133.26662063334038L208.69460598053536,145.12145744032728L208.9353151462674,151.84447913186887L209.17602431199947,107.58861748031443L209.41673347773153,132.9294490355897L209.6574426434636,162.09662981134514L209.89815180919567,132.8058085225702L210.13886097492775,161.5982061548616L210.37957014065984,157.01908617744232L210.62027930639186,163.13926450458672L210.86098847212392,159.48639124557025L211.101697637856,130.15494942727528L211.3424068035881,159.27131281234475L211.58311596932015,154.04011551809745L211.82382513505223,153.14785783566776L212.06453430078426,166.99237804204992L212.30524346651632,163.21835220789907L212.5459526322484,160.54031000402185L212.78666179798049,154.44428324555258L213.02737096371254,137.6931531020988L213.26808012944457,143.4482759800547L213.50878929517665,144.77894155049816L213.74949846090874,142.0233830516434L213.9902076266408,139.61584112365966L214.23091679237288,127.26448740255148L214.47162595810494,153.55514732743205L214.712335123837,135.64696591908154L214.95304428956905,150.97626625257192L215.19375345530113,148.72704409025602L215.4344626210332,160.66792339820938L215.67517178676528,161.94867231824685L215.91588095249733,141.94543217579627L216.1565901182294,160.98145018767616L216.39729928396144,140.4914148104197L216.63800844969353,130.19582408886092L216.8787176154256,154.24308132535455L217.11942678115767,125.44005676224769L217.36013594688973,153.44912764012298L217.60084511262178,157.20751081857722L217.84155427835384,141.2028312127025L218.08226344408592,149.87296316768612L218.32297260981798,160.93121324064307L218.56368177555007,155.82298278388032L218.8043909412821,161.39049905527943L219.04510010701418,137.41511758489838L219.28580927274623,141.18922537288103L219.52651843847832,119.37615289837012L219.76722760421038,167.9681203636494L220.00793676994246,158.80465566406505L220.2486459356745,165.12992458313366L220.48935510140657,143.7651831771164L220.73006426713863,163.7707541166186L220.97077343287071,168.581544042921L221.21148259860277,158.43848594351186L221.45219176433486,162.9752245118321L221.69290093006688,129.19165356193156L221.93361009579897,150.35962456962903L222.17431926153102,148.33257097479571L222.4150284272631,164.59969532120542L222.65573759299517,129.61876986603517L222.89644675872725,169.93374467438161L223.13715592445928,152.6879855624184L223.37786509019136,161.40308836683838L223.61857425592342,151.87270433229423L223.8592834216555,156.92061827258055L224.09999258738756,166.33489628354215L224.34070175311965,154.89424286450227L224.58141091885167,139.78453970303752L224.82212008458376,141.71135398724982L225.06282925031581,150.04903308070726L225.3035384160479,97.34738996844017L225.54424758177996,150.43726868250937L225.784956747512,155.30758791738074L226.02566591324407,150.240429112148L226.26637507897615,132.50808904833363L226.5070842447082,140.61599967218012L226.7477934104403,162.28076277842496L226.98850257617235,155.1951923723304L227.2292117419044,84.65984208060294L227.46992090763646,112.93266896032226L227.71063007336855,160.49144296415912L227.9513392391006,91.89141812523253L228.1920484048327,166.96625657393116L228.43275757056477,165.59583211700675L228.6734667362968,150.2955502068093L228.91417590202886,169.22695828766138L229.15488506776094,163.58735046345495L229.39559423349303,166.29224570497715L229.63630339922508,149.15764606375689L229.87701256495717,147.5259377536032L230.1177217306892,159.59252672086188L230.35843089642125,159.44788497453706L230.59914006215334,142.7723929547592L230.83984922788542,148.21662660326677L231.08055839361748,159.97448270428484L231.3212675593495,139.88770829924343L231.5619767250816,152.79055717383108L231.80268589081368,169.77108060375747L232.04339505654573,167.9660805402942L232.28410422227782,148.2498923402838L232.52481338800987,155.30007372843426L232.76552255374193,146.5360437345502L233.006231719474,135.7514367541563L233.24694088520607,160.4197807291313L233.48765005093813,152.30377998390557L233.7283592166702,95.83720791281917L233.96906838240227,159.8195583836122L234.20977754813433,166.30798234442582L234.45048671386638,166.23298255839404L234.69119587959847,157.95133732979815L234.93190504533052,151.41084561846085L235.1726142110626,162.2454218801619L235.41332337679466,133.6645553583574L235.65403254252672,154.57821084414L235.89474170825878,152.4725717951655L236.13545087399086,154.07283539748244L236.37616003972292,143.01516877565837L236.616869205455,148.69104455385838L236.85757837118703,129.47816415795978L237.09828753691912,150.1002203914414L237.33899670265117,137.19593243764191L237.57970586838326,157.1372425505603L237.8204150341153,148.42020593645742L238.0611241998474,145.19954365277744L238.30183336557943,161.168698904105L238.5425425313115,146.0442996912946L238.78325169704357,164.64773680778987L239.02396086277565,152.4370263882579L239.2646700285077,147.25193827465222L239.5053791942398,163.3642540883718L239.74608835997182,167.55061446209874L239.9867975257039,138.53986099517925L240.22750669143596,158.24611999974962L240.46821585716805,153.09186607552712L240.7089250229001,159.25870996712553L240.9496341886322,168.0206903633442L241.19034335436422,161.4235843434925L241.4310525200963,155.85569063334503L241.67176168582836,152.95344981294028L241.91247085156044,165.6906173625269L242.1531800172925,153.60660380763215L242.39388918302458,160.38478117985582L242.6345983487566,158.59681623535997L242.8753075144887,161.859858424399L243.11601668022075,145.688941861581L243.35672584595284,163.32431324934683L243.5974350116849,122.92460043451288L243.83814417741695,139.46772874533798L244.078853343149,158.8373830621502L244.3195625088811,162.76016863470713L244.56027167461315,136.8998249727211L244.80098084034523,144.09879091098813L245.0416900060773,156.78428468993982L245.28239917180935,148.34460089506226L245.5231083375414,167.55826098016817L245.7638175032735,155.95628633035392L246.00452666900554,148.4732308175123L246.24523583473763,143.56919773109396L246.4859450004697,155.11899335362207L246.72665416620174,169.80572151103502L246.9673633319338,139.66242097493176L247.20807249766588,166.22056692880895L247.44878166339797,142.79057918672214L247.68949082913002,148.38578231961475L247.9301999948621,131.94803009536446L248.17090916059414,155.87165884875884L248.4116183263262,168.85253754554537L248.65232749205828,162.15195391091095L248.89303665779036,159.37776256930337L249.13374582352242,151.02034989538868L249.37445498925445,145.13760460080505L249.61516415498653,150.20391228917893L249.85587332071862,144.7971097375807L250.09658248645067,127.28846002616265L250.33729165218276,123.03854783927758L250.5780008179148,137.54628281304457L250.81870998364687,135.2908351669908L251.05941914937893,154.24063022910022L251.300128315111,163.8194737899581L251.54083748084307,157.16792636594016L251.78154664657515,168.8004697950217L252.0222558123072,146.94626100815933L252.26296497803926,166.78153564449832L252.50367414377132,172.8179688095122L252.7443833095034,161.8793153166901L252.98509247523546,138.7150196417402L253.22580164096755,147.1527636119748L253.4665108066996,145.31269106784444L253.70721997243166,160.16942756220422L253.94792913816372,170.90612049798148L254.1886383038958,163.48231271838762L254.42934746962786,166.43414387761118L254.67005663535994,140.0076616417012L254.91076580109197,157.87133535254554L255.15147496682405,138.28894693321973L255.3921841325561,155.92931073789623L255.6328932982882,152.34246369626268L255.87360246402025,137.48904745989643L256.1143116297523,152.97026313025276L256.3550207954844,151.76279898073906L256.5957299612164,166.17468932413246L256.8364391269485,160.11181627404775L257.0771482926806,138.03119085410867L257.3178574584127,163.49847642000577L257.5585666241447,158.31918071300842L257.7992757898768,157.9540019571372L258.0399849556088,164.4539077249752L258.2806941213409,137.6303148135865L258.521403287073,166.09772339800713L258.76211245280507,158.41399753706926L259.0028216185371,157.33790011686625L259.2435307842692,165.5773030323162L259.4842399500012,151.61823843637603L259.7249491157333,134.15713848855154L259.9656582814654,145.30090174598323L260.20636744719747,166.44324601603284L260.4470766129295,151.2525664537739L260.6877857786616,164.7878891382452L260.9284949443936,148.50979275268242L261.1692041101257,168.3425719324361L261.4099132758578,161.71393849904587L261.65062244158986,158.9470147330193L261.8913316073219,152.19330922609785L262.132040773054,145.5767839074559L262.372749938786,158.29600056039482L262.6134591045181,152.41891383955658L262.85416827025017,157.64578487372805L263.09487743598226,153.15212244240223L263.3355866017143,146.39025613831998L263.57629576744637,166.63076315005765L263.8170049331784,135.92936829733873L264.0577140989105,158.50533921791313L264.29842326464257,145.49075494014977L264.53913243037465,164.5716400434038L264.7798415961067,174.23572931097792" fill="none"></path></g></g></g></g></g></g><g transform="translate(41, 176)" clip-path="url(#clip_1)"><clipPath id="clip_1"><rect width="288" height="23"></rect></clipPath><g><g><line x1="0" y1="0" x2="0" y2="5" style="visibility: inherit;" fill="rgb(0, 0, 0)" stroke="rgb(204, 204, 204)" stroke-width="1px"></line><line x1="24.07091657320658" y1="0" x2="24.07091657320658" y2="5" style="visibility: inherit;" fill="rgb(0, 0, 0)" stroke="rgb(204, 204, 204)" stroke-width="1px"></line><line x1="48.14183314641316" y1="0" x2="48.14183314641316" y2="5" style="visibility: inherit;" fill="rgb(0, 0, 0)" stroke="rgb(204, 204, 204)" stroke-width="1px"></line><line x1="72.21274971961975" y1="0" x2="72.21274971961975" y2="5" style="visibility: inherit;" fill="rgb(0, 0, 0)" stroke="rgb(204, 204, 204)" stroke-width="1px"></line><line x1="96.28366629282633" y1="0" x2="96.28366629282633" y2="5" style="visibility: inherit;" fill="rgb(0, 0, 0)" stroke="rgb(204, 204, 204)" stroke-width="1px"></line><line x1="120.35458286603293" y1="0" x2="120.35458286603293" y2="5" style="visibility: inherit;" fill="rgb(0, 0, 0)" stroke="rgb(204, 204, 204)" stroke-width="1px"></line><line x1="144.4254994392395" y1="0" x2="144.4254994392395" y2="5" style="visibility: inherit;" fill="rgb(0, 0, 0)" stroke="rgb(204, 204, 204)" stroke-width="1px"></line><line x1="168.4964160124461" y1="0" x2="168.4964160124461" y2="5" style="visibility: inherit;" fill="rgb(0, 0, 0)" stroke="rgb(204, 204, 204)" stroke-width="1px"></line><line x1="192.56733258565265" y1="0" x2="192.56733258565265" y2="5" style="visibility: inherit;" fill="rgb(0, 0, 0)" stroke="rgb(204, 204, 204)" stroke-width="1px"></line><line x1="216.63824915885925" y1="0" x2="216.63824915885925" y2="5" style="visibility: inherit;" fill="rgb(0, 0, 0)" stroke="rgb(204, 204, 204)" stroke-width="1px"></line><line x1="240.70916573206586" y1="0" x2="240.70916573206586" y2="5" style="visibility: inherit;" fill="rgb(0, 0, 0)" stroke="rgb(204, 204, 204)" stroke-width="1px"></line><line x1="264.7800823052724" y1="0" x2="264.7800823052724" y2="5" style="visibility: inherit;" fill="rgb(0, 0, 0)" stroke="rgb(204, 204, 204)" stroke-width="1px"></line><line x1="288.850998878479" y1="0" x2="288.850998878479" y2="5" style="visibility: inherit;" fill="rgb(0, 0, 0)" stroke="rgb(204, 204, 204)" stroke-width="1px"></line></g><g transform="translate(0, 8)"><text style="text-anchor: middle; visibility: hidden; font-family: Roboto, sans-serif; font-size: 12px; font-weight: 200;" x="0" y="0" dx="0em" dy="0.95em" fill="rgb(33, 33, 33)" stroke="none" stroke-width="1px">-100k</text><text style="text-anchor: middle; visibility: inherit; font-family: Roboto, sans-serif; font-size: 12px; font-weight: 200;" x="24.07091657320658" y="0" dx="0em" dy="0.95em" fill="rgb(33, 33, 33)" stroke="none" stroke-width="1px">0</text><text style="text-anchor: middle; visibility: hidden; font-family: Roboto, sans-serif; font-size: 12px; font-weight: 200;" x="48.14183314641316" y="0" dx="0em" dy="0.95em" fill="rgb(33, 33, 33)" stroke="none" stroke-width="1px">100k</text><text style="text-anchor: middle; visibility: inherit; font-family: Roboto, sans-serif; font-size: 12px; font-weight: 200;" x="72.21274971961975" y="0" dx="0em" dy="0.95em" fill="rgb(33, 33, 33)" stroke="none" stroke-width="1px">200k</text><text style="text-anchor: middle; visibility: hidden; font-family: Roboto, sans-serif; font-size: 12px; font-weight: 200;" x="96.28366629282633" y="0" dx="0em" dy="0.95em" fill="rgb(33, 33, 33)" stroke="none" stroke-width="1px">300k</text><text style="text-anchor: middle; visibility: inherit; font-family: Roboto, sans-serif; font-size: 12px; font-weight: 200;" x="120.35458286603293" y="0" dx="0em" dy="0.95em" fill="rgb(33, 33, 33)" stroke="none" stroke-width="1px">400k</text><text style="text-anchor: middle; visibility: hidden; font-family: Roboto, sans-serif; font-size: 12px; font-weight: 200;" x="144.4254994392395" y="0" dx="0em" dy="0.95em" fill="rgb(33, 33, 33)" stroke="none" stroke-width="1px">500k</text><text style="text-anchor: middle; visibility: inherit; font-family: Roboto, sans-serif; font-size: 12px; font-weight: 200;" x="168.4964160124461" y="0" dx="0em" dy="0.95em" fill="rgb(33, 33, 33)" stroke="none" stroke-width="1px">600k</text><text style="text-anchor: middle; visibility: hidden; font-family: Roboto, sans-serif; font-size: 12px; font-weight: 200;" x="192.56733258565265" y="0" dx="0em" dy="0.95em" fill="rgb(33, 33, 33)" stroke="none" stroke-width="1px">700k</text><text style="text-anchor: middle; visibility: inherit; font-family: Roboto, sans-serif; font-size: 12px; font-weight: 200;" x="216.63824915885925" y="0" dx="0em" dy="0.95em" fill="rgb(33, 33, 33)" stroke="none" stroke-width="1px">800k</text><text style="text-anchor: middle; visibility: hidden; font-family: Roboto, sans-serif; font-size: 12px; font-weight: 200;" x="240.70916573206586" y="0" dx="0em" dy="0.95em" fill="rgb(33, 33, 33)" stroke="none" stroke-width="1px">900k</text><text style="text-anchor: middle; visibility: inherit; font-family: Roboto, sans-serif; font-size: 12px; font-weight: 200;" x="264.7800823052724" y="0" dx="0em" dy="0.95em" fill="rgb(33, 33, 33)" stroke="none" stroke-width="1px">1M</text><text style="text-anchor: middle; visibility: hidden; font-family: Roboto, sans-serif; font-size: 12px; font-weight: 200;" x="288.850998878479" y="0" dx="0em" dy="0.95em" fill="rgb(33, 33, 33)" stroke="none" stroke-width="1px">1.1M</text></g><line x1="0" y1="0" x2="288.850998878479" y2="0" fill="rgb(0, 0, 0)" stroke="rgb(204, 204, 204)" stroke-width="1px"></line></g></g></g></g></svg>