<svg viewBox="0 0 330 200" xmlns="http://www.w3.org/2000/svg"><g><g><g><g><g><line x1="61.91500186920166" y1="176.5999994277954" x2="56.91500186920166" y2="176.5999994277954" style="visibility: inherit;" fill="rgb(0, 0, 0)" stroke="rgb(204, 204, 204)" stroke-width="1px"></line><line x1="61.91500186920166" y1="163.98571375438146" x2="56.91500186920166" y2="163.98571375438146" style="visibility: inherit;" fill="rgb(0, 0, 0)" stroke="rgb(204, 204, 204)" stroke-width="1px"></line><line x1="61.91500186920166" y1="151.37142808096752" x2="56.91500186920166" y2="151.37142808096752" style="visibility: inherit;" fill="rgb(0, 0, 0)" stroke="rgb(204, 204, 204)" stroke-width="1px"></line><line x1="61.91500186920166" y1="138.75714240755354" x2="56.91500186920166" y2="138.75714240755354" style="visibility: inherit;" fill="rgb(0, 0, 0)" stroke="rgb(204, 204, 204)" stroke-width="1px"></line><line x1="61.91500186920166" y1="126.14285673413958" x2="56.91500186920166" y2="126.14285673413958" style="visibility: inherit;" fill="rgb(0, 0, 0)" stroke="rgb(204, 204, 204)" stroke-width="1px"></line><line x1="61.91500186920166" y1="113.52857106072562" x2="56.91500186920166" y2="113.52857106072562" style="visibility: inherit;" fill="rgb(0, 0, 0)" stroke="rgb(204, 204, 204)" stroke-width="1px"></line><line x1="61.91500186920166" y1="100.91428538731168" x2="56.91500186920166" y2="100.91428538731168" style="visibility: inherit;" fill="rgb(0, 0, 0)" stroke="rgb(204, 204, 204)" stroke-width="1px"></line><line x1="61.91500186920166" y1="88.2999997138977" x2="56.91500186920166" y2="88.2999997138977" style="visibility: inherit;" fill="rgb(0, 0, 0)" stroke="rgb(204, 204, 204)" stroke-width="1px"></line><line x1="61.91500186920166" y1="75.68571404048377" x2="56.91500186920166" y2="75.68571404048377" style="visibility: inherit;" fill="rgb(0, 0, 0)" stroke="rgb(204, 204, 204)" stroke-width="1px"></line><line x1="61.91500186920166" y1="63.0714283670698" x2="56.91500186920166" y2="63.0714283670698" style="visibility: inherit;" fill="rgb(0, 0, 0)" stroke="rgb(204, 204, 204)" stroke-width="1px"></line><line x1="61.91500186920166" y1="50.45714269365585" x2="56.91500186920166" y2="50.45714269365585" style="visibility: inherit;" fill="rgb(0, 0, 0)" stroke="rgb(204, 204, 204)" stroke-width="1px"></line><line x1="61.91500186920166" y1="37.84285702024188" x2="56.91500186920166" y2="37.84285702024188" style="visibility: inherit;" fill="rgb(0, 0, 0)" stroke="rgb(204, 204, 204)" stroke-width="1px"></line><line x1="61.91500186920166" y1="25.228571346827906" x2="56.91500186920166" y2="25.228571346827906" style="visibility: inherit;" fill="rgb(0, 0, 0)" stroke="rgb(204, 204, 204)" stroke-width="1px"></line><line x1="61.91500186920166" y1="12.614285673413972" x2="56.91500186920166" y2="12.614285673413972" style="visibility: inherit;" fill="rgb(0, 0, 0)" stroke="rgb(204, 204, 204)" stroke-width="1px"></line><line x1="61.91500186920166" y1="0" x2="56.91500186920166" y2="0" style="visibility: inherit;" fill="rgb(0, 0, 0)" stroke="rgb(204, 204, 204)" stroke-width="1px"></line></g><g transform="translate(51.91500186920166, 0)"><text style="text-anchor: end; visibility: hidden; font-family: Roboto, sans-serif; font-size: 12px; font-weight: 200;" x="0" y="176.5999994277954" dx="0em" dy="0.3em" fill="rgb(33, 33, 33)" stroke="none" stroke-width="1px">-0.05</text><text style="text-anchor: end; visibility: inherit; font-family: Roboto, sans-serif; font-size: 12px; font-weight: 200;" x="0" y="163.98571375438146" dx="0em" dy="0.3em" fill="rgb(33, 33, 33)" stroke="none" stroke-width="1px">0</text><text style="text-anchor: end; visibility: hidden; font-family: Roboto, sans-serif; font-size: 12px; font-weight: 200;" x="0" y="151.37142808096752" dx="0em" dy="0.3em" fill="rgb(33, 33, 33)" stroke="none" stroke-width="1px">0.05</text><text style="text-anchor: end; visibility: inherit; font-family: Roboto, sans-serif; font-size: 12px; font-weight: 200;" x="0" y="138.75714240755354" dx="0em" dy="0.3em" fill="rgb(33, 33, 33)" stroke="none" stroke-width="1px">0.1</text><text style="text-anchor: end; visibility: hidden; font-family: Roboto, sans-serif; font-size: 12px; font-weight: 200;" x="0" y="126.14285673413958" dx="0em" dy="0.3em" fill="rgb(33, 33, 33)" stroke="none" stroke-width="1px">0.15</text><text style="text-anchor: end; visibility: inherit; font-family: Roboto, sans-serif; font-size: 12px; font-weight: 200;" x="0" y="113.52857106072562" dx="0em" dy="0.3em" fill="rgb(33, 33, 33)" stroke="none" stroke-width="1px">0.2</text><text style="text-anchor: end; visibility: hidden; font-family: Roboto, sans-serif; font-size: 12px; font-weight: 200;" x="0" y="100.91428538731168" dx="0em" dy="0.3em" fill="rgb(33, 33, 33)" stroke="none" stroke-width="1px">0.25</text><text style="text-anchor: end; visibility: inherit; font-family: Roboto, sans-serif; font-size: 12px; font-weight: 200;" x="0" y="88.2999997138977" dx="0em" dy="0.3em" fill="rgb(33, 33, 33)" stroke="none" stroke-width="1px">0.3</text><text style="text-anchor: end; visibility: hidden; font-family: Roboto, sans-serif; font-size: 12px; font-weight: 200;" x="0" y="75.68571404048377" dx="0em" dy="0.3em" fill="rgb(33, 33, 33)" stroke="none" stroke-width="1px">0.35</text><text style="text-anchor: end; visibility: inherit; font-family: Roboto, sans-serif; font-size: 12px; font-weight: 200;" x="0" y="63.0714283670698" dx="0em" dy="0.3em" fill="rgb(33, 33, 33)" stroke="none" stroke-width="1px">0.4</text><text style="text-anchor: end; visibility: hidden; font-family: Roboto, sans-serif; font-size: 12px; font-weight: 200;" x="0" y="50.45714269365585" dx="0em" dy="0.3em" fill="rgb(33, 33, 33)" stroke="none" stroke-width="1px">0.45</text><text style="text-anchor: end; visibility: inherit; font-family: Roboto, sans-serif; font-size: 12px; font-weight: 200;" x="0" y="37.84285702024188" dx="0em" dy="0.3em" fill="rgb(33, 33, 33)" stroke="none" stroke-width="1px">0.5</text><text style="text-anchor: end; visibility: hidden; font-family: Roboto, sans-serif; font-size: 12px; font-weight: 200;" x="0" y="25.228571346827906" dx="0em" dy="0.3em" fill="rgb(33, 33, 33)" stroke="none" stroke-width="1px">0.55</text><text style="text-anchor: end; visibility: inherit; font-family: Roboto, sans-serif; font-size: 12px; font-weight: 200;" x="0" y="12.614285673413972" dx="0em" dy="0.3em" fill="rgb(33, 33, 33)" stroke="none" stroke-width="1px">0.6</text><text style="text-anchor: end; visibility: hidden; font-family: Roboto, sans-serif; font-size: 12px; font-weight: 200;" x="0" y="0" dx="0em" dy="0.3em" fill="rgb(33, 33, 33)" stroke="none" stroke-width="1px">0.65</text></g><line x1="61.91500186920166" y1="0" x2="61.91500186920166" y2="176.5999994277954" fill="rgb(0, 0, 0)" stroke="rgb(204, 204, 204)" stroke-width="1px"></line></g></g><g transform="translate(61, 0)" clip-path="url(#clip_0)"><clipPath id="clip_0"><rect width="268" height="176"></rect></clipPath><g><g><g><line x1="0" y1="0" x2="0" y2="176.5999994277954" fill="rgb(0, 0, 0)" stroke="rgb(66, 66, 66)" stroke-width="1px" opacity="0.25"></line><line x1="22.34041651089986" y1="0" x2="22.34041651089986" y2="176.5999994277954" fill="rgb(0, 0, 0)" stroke="rgb(66, 66, 66)" stroke-width="1px" opacity="0.25"></line><line x1="44.68083302179972" y1="0" x2="44.68083302179972" y2="176.5999994277954" fill="rgb(0, 0, 0)" stroke="rgb(66, 66, 66)" stroke-width="1px" opacity="0.25"></line><line x1="67.02124953269958" y1="0" x2="67.02124953269958" y2="176.5999994277954" fill="rgb(0, 0, 0)" stroke="rgb(66, 66, 66)" stroke-width="1px" opacity="0.25"></line><line x1="89.36166604359944" y1="0" x2="89.36166604359944" y2="176.5999994277954" fill="rgb(0, 0, 0)" stroke="rgb(66, 66, 66)" stroke-width="1px" opacity="0.25"></line><line x1="111.70208255449931" y1="0" x2="111.70208255449931" y2="176.5999994277954" fill="rgb(0, 0, 0)" stroke="rgb(66, 66, 66)" stroke-width="1px" opacity="0.25"></line><line x1="134.04249906539917" y1="0" x2="134.04249906539917" y2="176.5999994277954" fill="rgb(0, 0, 0)" stroke="rgb(66, 66, 66)" stroke-width="1px" opacity="0.25"></line><line x1="156.38291557629904" y1="0" x2="156.38291557629904" y2="176.5999994277954" fill="rgb(0, 0, 0)" stroke="rgb(66, 66, 66)" stroke-width="1px" opacity="0.25"></line><line x1="178.72333208719888" y1="0" x2="178.72333208719888" y2="176.5999994277954" fill="rgb(0, 0, 0)" stroke="rgb(66, 66, 66)" stroke-width="1px" opacity="0.25"></line><line x1="201.06374859809875" y1="0" x2="201.06374859809875" y2="176.5999994277954" fill="rgb(0, 0, 0)" stroke="rgb(66, 66, 66)" stroke-width="1px" opacity="0.25"></line><line x1="223.40416510899863" y1="0" x2="223.40416510899863" y2="176.5999994277954" fill="rgb(0, 0, 0)" stroke="rgb(66, 66, 66)" stroke-width="1px" opacity="0.25"></line><line x1="245.74458161989847" y1="0" x2="245.74458161989847" y2="176.5999994277954" fill="rgb(0, 0, 0)" stroke="rgb(66, 66, 66)" stroke-width="1px" opacity="0.25"></line><line x1="268.08499813079834" y1="0" x2="268.08499813079834" y2="176.5999994277954" fill="rgb(0, 0, 0)" stroke="rgb(66, 66, 66)" stroke-width="1px" opacity="0.25"></line></g><g><line x1="0" y1="176.5999994277954" x2="268.08499813079834" y2="176.5999994277954" fill="rgb(0, 0, 0)" stroke="rgb(66, 66, 66)" stroke-width="1px" opacity="0.25"></line><line x1="0" y1="163.98571375438146" x2="268.08499813079834" y2="163.98571375438146" fill="rgb(0, 0, 0)" stroke="rgb(66, 66, 66)" stroke-width="1px" opacity="0.25"></line><line x1="0" y1="151.37142808096752" x2="268.08499813079834" y2="151.37142808096752" fill="rgb(0, 0, 0)" stroke="rgb(66, 66, 66)" stroke-width="1px" opacity="0.25"></line><line x1="0" y1="138.75714240755354" x2="268.08499813079834" y2="138.75714240755354" fill="rgb(0, 0, 0)" stroke="rgb(66, 66, 66)" stroke-width="1px" opacity="0.25"></line><line x1="0" y1="126.14285673413958" x2="268.08499813079834" y2="126.14285673413958" fill="rgb(0, 0, 0)" stroke="rgb(66, 66, 66)" stroke-width="1px" opacity="0.25"></line><line x1="0" y1="113.52857106072562" x2="268.08499813079834" y2="113.52857106072562" fill="rgb(0, 0, 0)" stroke="rgb(66, 66, 66)" stroke-width="1px" opacity="0.25"></line><line x1="0" y1="100.91428538731168" x2="268.08499813079834" y2="100.91428538731168" fill="rgb(0, 0, 0)" stroke="rgb(66, 66, 66)" stroke-width="1px" opacity="0.25"></line><line x1="0" y1="88.2999997138977" x2="268.08499813079834" y2="88.2999997138977" fill="rgb(0, 0, 0)" stroke="rgb(66, 66, 66)" stroke-width="1px" opacity="0.25"></line><line x1="0" y1="75.68571404048377" x2="268.08499813079834" y2="75.68571404048377" fill="rgb(0, 0, 0)" stroke="rgb(66, 66, 66)" stroke-width="1px" opacity="0.25"></line><line x1="0" y1="63.0714283670698" x2="268.08499813079834" y2="63.0714283670698" fill="rgb(0, 0, 0)" stroke="rgb(66, 66, 66)" stroke-width="1px" opacity="0.25"></line><line x1="0" y1="50.45714269365585" x2="268.08499813079834" y2="50.45714269365585" fill="rgb(0, 0, 0)" stroke="rgb(66, 66, 66)" stroke-width="1px" opacity="0.25"></line><line x1="0" y1="37.84285702024188" x2="268.08499813079834" y2="37.84285702024188" fill="rgb(0, 0, 0)" stroke="rgb(66, 66, 66)" stroke-width="1px" opacity="0.25"></line><line x1="0" y1="25.228571346827906" x2="268.08499813079834" y2="25.228571346827906" fill="rgb(0, 0, 0)" stroke="rgb(66, 66, 66)" stroke-width="1px" opacity="0.25"></line><line x1="0" y1="12.614285673413972" x2="268.08499813079834" y2="12.614285673413972" fill="rgb(0, 0, 0)" stroke="rgb(66, 66, 66)" stroke-width="1px" opacity="0.25"></line><line x1="0" y1="0" x2="268.08499813079834" y2="0" fill="rgb(0, 0, 0)" stroke="rgb(66, 66, 66)" stroke-width="1px" opacity="0.25"></line></g></g></g><g><g><line x1="0" y1="163.98571375438146" x2="268.08499813079834" y2="163.98571375438146" fill="rgb(0, 0, 0)" stroke="rgb(153, 153, 153)" stroke-width="1.5px"></line></g></g><g><g><line x1="22.34041651089986" y1="0" x2="22.34041651089986" y2="176.5999994277954" fill="rgb(0, 0, 0)" stroke="rgb(153, 153, 153)" stroke-width="1.5px"></line></g></g><g><g><g><g><g><path style="fill: none;" stroke="rgb(0, 153, 136)" stroke-width="2px" d="M22.56359727184375,160.83309481436345L22.78700143695275,160.85591811589168L23.01040560206175,160.62827057316304L23.233809767170747,160.49872479534338L23.457213932279746,160.17733663370396L23.68061809738874,159.77393210918663L23.904022262497744,159.41519432507016L24.127426427606743,158.98813643599345L24.350830592715738,158.59197698418683L24.57423475782474,157.92018817901968L24.797638922933736,157.37825123712884L25.021043088042735,157.0822985895442L25.244447253151737,156.89761699984356L25.467851418260732,156.7619792095491L25.69125558336973,156.69519864712908L25.914659748478734,156.66436187661213L26.13806391358773,156.71997517146792L26.361468078696728,156.8695036776099L26.584872243805727,156.98288931070698L26.808276408914725,157.05538865858108L27.031680574023724,157.13766515270027L27.255084739132723,157.4097283661935L27.478488904241722,157.59522568460378L27.701893069350717,157.71503672065862L27.925297234459716,157.73447509270153L28.14870139956872,157.5241945313997L28.372105564677714,157.20865219009332L28.595509729786713,156.972440688505L28.818913894895715,156.79997765637546L29.04231806000471,156.65914679463484L29.26572222511371,156.29311261671847L29.489126390222708,155.9909449632328L29.712530555331707,155.59733467278346L29.935934720440706,155.29428759492566L30.159338885549705,154.37344856714023L30.382743050658704,153.52268754256144L30.6061472157677,152.8834101183909L30.8295513808767,151.84405597988214L31.0529555459857,151.29590302035427L31.276359711094695,150.50327224737993L31.499763876203698,149.63594127971064L31.723168041312693,148.96641334562943L31.946572206421692,148.12655073045826L32.169976371530694,145.67485159352796L32.39338053663969,144.91242561650398L32.61678470174869,144.3653320052118L32.84018886685769,144.1134938340018L33.06359303196668,143.73670161589558L33.286997197075685,143.04942985385102L33.51040136218468,142.78748530494897L33.73380552729368,142.29938968905157L33.957209692402685,142.1024761321948L34.18061385751168,141.30303823173205L34.404018022620676,140.78027603533224L34.62742218772968,139.7522295226282L34.85082635283867,138.9743522828513L35.07423051794767,139.19373682789018L35.29763468305668,139.1534694219221L35.521038848165674,138.60840250732488L35.74444301327467,138.0289840607952L35.96784717838367,136.91435119479536L36.19125134349267,136.50089421540554L36.41465550860166,135.67784412975243L36.63805967371066,135.27244630666038L36.86146383881967,135.10587994688504L37.08486800392866,134.9047506683496L37.30827216903766,132.45844890381335L37.53167633414666,131.27776940541258L37.755080499255655,131.92190465591278L37.97848466436465,133.3215395356915L38.20188882947366,134.94293344313064L38.425292994582655,136.42175669765544L38.64869715969165,137.38229591161695L38.87210132480065,138.56230957501805L39.09550548990965,139.3681098435175L39.31890965501864,140.1102882644691L39.542313820127646,140.3822678290372L39.76571798523665,140.3651405836677L39.98912215034564,139.75081117081905L40.21252631545464,140.27130418019112L40.43593048056364,140.71965381240784L40.65933464567264,140.2690240042314L40.88273881078164,140.68639060026672L41.10614297589064,139.69337050300757L41.32954714099964,139.3807940901031L41.55295130610863,139.305619430856L41.776355471217634,118.12396253066798L41.99975963632663,118.96778845377742L42.223163801435625,120.6735479505358L42.44656796654463,123.59334078490487L42.66997213165363,127.05339854427658L42.893376296762625,130.11832551347686L43.11678046187162,132.8788270239339L43.34018462698062,134.8931788504539L43.56358879208962,136.429574059976L43.78699295719862,137.69812129842316L44.01039712230762,138.9242935855154L44.23380128741662,140.15939693894094L44.45720545252561,140.99032563029283L44.680609617634616,141.4777471825981L44.90401378274361,141.9699545359593L45.127417947852614,142.7381561981845L45.35082211296161,143.12201861914798L45.57422627807061,143.55767193786863L45.79763044317961,143.76527497901532L46.0210346082886,144.181658699837L46.244438773397604,144.45135897423867L46.46784293850661,144.8170668867934L46.6912471036156,145.21175784152322L46.914651268724604,145.73470868888862L47.1380554338336,145.95128061202726L47.361459598942595,146.08531421957218L47.5848637640516,146.01906138479174L47.80826792916059,146.31646024359958L48.031672094269595,146.4600241547736L48.25507625937859,146.68449642840196L48.47848042448759,146.81135688108589L48.70188458959659,146.9215503942857L48.92528875470558,147.36968496752004L49.148692919814586,147.55066464915564L49.37209708492359,147.85430555922656L49.595501250032584,148.04731291492726L49.818905415141586,148.06671057571867L50.04230958025058,148.16350171786763L50.26571374535958,148.27734243340348L50.48911791046858,148.0929636658788L50.71252207557758,148.2305423189208L50.93592624068658,148.5606529714875L51.15933040579557,148.85423923396945L51.382734570904574,148.89848739050134L51.60613873601357,148.80705333855158L51.829542901122565,148.23639765428598L52.052947066231575,148.3239751224792L52.27635123134057,148.4528955495804L52.499755396449565,148.4913000181121L52.72315956155857,148.35518156859825L52.94656372666756,148.04107328631522L53.16996789177656,146.56890651833282L53.39337205688555,146.48913528016942L53.61677622199456,146.13093749421114L53.84018038710356,145.80948873732143L54.06358455221255,145.09100634942817L54.286988717321556,144.16120809367254L54.51039288243055,142.81770728671137L54.73379704753955,140.18819771532986L54.957201212648556,138.93775125165806L55.18060537775755,138.29731613737044L55.40400954286655,137.41991673203688L55.62741370797555,137.74342159633034L55.850817873084544,138.44135479505985L56.07422203819354,138.87934876860683L56.29762620330254,138.74453478243865L56.521030368411544,138.53152667703915L56.74443453352054,138.80106415117737L56.967838698629535,138.76805898654894L57.19124286373854,138.9027196979449L57.41464702884753,136.7964342979509L57.638051193956535,136.92977692186022L57.86145535906554,137.32639954266708L58.08485952417453,138.10811985396774L58.30826368928353,138.52302475330984L58.53166785439253,138.3973169721838L58.755072019501526,139.27429417350734L58.97847618461052,140.33873817891612L59.201880349719524,141.1706338619825L59.425284514828526,141.21133589841168L59.64868867993752,141.6210896625524L59.87209284504652,142.54898193839117L60.09549701015552,142.80097688542318L60.318901175264514,143.14954989764536L60.54230534037352,143.6817009101803L60.76570950548252,144.19351722801088L60.989113670591514,144.37943030388234L61.21251783570051,144.8489705429627L61.43592200080951,145.4816024321013L61.65932616591851,146.07006515349198L61.88273033102751,146.27945711768817L62.106134496136505,146.42592133605874L62.32953866124551,146.761119226316L62.5529428263545,147.12718962347373L62.7763469914635,147.30970732454765L62.9997511565725,147.14324092306816L63.2231553216815,146.8347828411608L63.4465594867905,146.32739980704545L63.6699636518995,145.9246816845588L63.893367817008496,145.56190733347495L64.1167719821175,145.25527716168924L64.3401761472265,145.06421443100248L64.56358031233549,144.77005704365214L64.78698447744449,144.22305845576616L65.01038864255348,144.3730467553465L65.23379280766248,144.32739403944564L65.45719697277148,144.2299181404094L65.68060113788049,144.4447073350973L65.90400530298949,144.8828033070022L66.12740946809848,145.224833952694L66.35081363320748,145.72332737789486L66.57421779831648,146.08183917817297L66.79762196342548,146.2926018533655L67.02102612853447,146.3970898869538L67.24443029364348,146.65180743335608L67.46783445875246,147.1469021549377L67.69123862386147,147.2436347946654L67.91464278897047,147.73723829075723L68.13804695407947,147.96732809705438L68.36145111918847,148.29984953411625L68.58485528429748,146.85779037211753L68.80825944940646,146.23535612636363L69.03166361451547,145.99880649129727L69.25506777962447,145.9088245275584L69.47847194473346,145.88440526130125L69.70187610984246,146.1403993827304L69.92528027495146,146.24624557820135L70.14868444006045,146.4430053017015L70.37208860516945,146.38793085444368L70.59549277027845,146.58569788164056L70.81889693538744,147.16973985416308L71.04230110049646,147.34259150894852L71.26570526560546,147.38939205597993L71.48910943071445,147.33924339601435L71.71251359582345,147.26651285793932L71.93591776093244,147.27380465194506L72.15932192604144,147.0614476639252L72.38272609115045,146.8639488952775L72.60613025625943,146.78786987802442L72.82953442136844,146.94477942365216L73.05293858647744,147.04411341251398L73.27634275158643,146.86385800846375L73.49974691669543,146.36710822530725L73.72315108180445,145.48624770750007L73.94655524691343,145.02140958791864L74.16995941202244,144.5530324403302L74.39336357713144,144.1050414405156L74.61676774224043,143.4575241685228L74.84017190734943,142.88613923373103L75.06357607245843,142.31913044556254L75.28698023756742,141.76465817261789L75.51038440267642,141.20734196936206L75.73378856778542,140.27356559099152L75.95719273289441,137.14263421086991L76.18059689800342,136.2929129061429L76.40400106311243,136.2779660224769L76.62740522822142,135.95569672226853L76.85080939333042,136.01043928705218L77.07421355843941,136.35630012555197L77.29761772354841,136.21535357315827L77.52102188865742,135.87749847817585L77.7444260537664,135.71205929259793L77.9678302188754,136.12472648929156L78.19123438398441,137.01165570780833L78.4146385490934,138.01947606847565L78.6380427142024,138.77514954976877L78.8614468793114,139.2254380656005L79.08485104442039,140.02879550250427L79.3082552095294,140.4418408003191L79.53165937463841,140.6832669066488L79.7550635397474,140.96480552550622L79.9784677048564,140.9911412376052L80.2018718699654,141.19743411369342L80.42527603507439,141.869896842302L80.64868020018339,142.4326712170385L80.8720843652924,142.50963386949746L81.09548853040138,141.9470063907893L81.31889269551039,138.23702909529393L81.54229686061939,139.2030048680321L81.76570102572838,139.63881726931146L81.98910519083738,140.3180753387752L82.2125093559464,140.96733306277153L82.43591352105538,141.77630994896458L82.65931768616439,142.5747365026652L82.88272185127337,143.13632949102126L83.10612601638238,143.35553240847847L83.32953018149138,143.2598820671344L83.55293434660037,143.48555263928478L83.77633851170937,143.71683957125956L83.99974267681837,143.59888504874618L84.22314684192736,142.86125715830772L84.44655100703636,142.19507086336117L84.66995517214536,141.83841354208L84.89335933725437,141.84843087410397L85.11676350236337,142.0691123017402L85.34016766747237,142.47143085212664L85.56357183258136,142.51176525770816L85.78697599769036,142.85630545245237L86.01038016279936,143.40253863472344L86.23378432790835,143.7904667897583L86.45718849301736,144.06175192203082L86.68059265812636,144.63537769121993L86.90399682323535,144.84747171051276L87.12740098834435,145.24477331788052L87.35080515345335,145.25488097278628L87.57420931856234,145.47885153459424L87.79761348367136,145.7199046308016L88.02101764878036,146.03121926629245L88.24442181388935,145.96890957086634L88.46782597899835,146.40524013998265L88.69123014410734,146.5025446795475L88.91463430921634,146.4148163832858L89.13803847432534,146.61094723398213L89.36144263943433,146.75891330784614L89.58484680454333,146.75907941852824L89.80825096965233,146.92256847404843L90.03165513476132,146.92147194323232L90.25505929987033,147.14166517990267L90.47846346497934,147.00586363623697L90.70186763008833,146.8045638201264L90.92527179519733,146.9375720601831L91.14867596030633,147.01242868258944L91.37208012541532,146.98566171296457L91.59548429052433,147.17417626087604L91.81888845563333,147.3719440614206L92.04229262074232,147.31899297613248L92.26569678585132,147.64190710313537L92.48910095096032,148.08336161038514L92.71250511606931,148.4333152951163L92.93590928117831,148.5102428876676L93.15931344628733,148.77773794854193L93.38271761139632,148.9145891260521L93.60612177650532,148.88407882575595L93.8295259416143,148.60783999400925L94.05293010672331,148.2847100183938L94.27633427183231,148.1574013408483L94.4997384369413,147.9758659513563L94.7231426020503,147.12100016193926L94.9465467671593,145.94640031590308L95.16995093226829,143.60180732855056L95.3933550973773,141.75830169733132L95.6167592624863,141.31132342968436L95.84016342759529,140.4478969538889L96.0635675927043,139.65983484610118L96.2869717578133,138.43144699546252L96.5103759229223,137.25878728142288L96.7337800880313,135.92633977621426L96.9571842531403,135.15492835481362L97.18058841824929,134.46767530871938L97.40399258335829,134.56760172267497L97.62739674846729,134.7816775926165L97.85080091357628,135.2965150669923L98.07420507868528,135.66131535190502L98.29760924379428,135.93435243852358L98.52101340890327,136.70713812671124L98.74441757401227,137.22591307080782L98.96782173912129,137.44003862072384L99.19122590423028,137.7714121872034L99.41463006933928,138.04392936590642L99.63803423444827,138.29084123295914L99.86143839955727,139.0820995467215L100.08484256466627,139.15791186952572L100.30824672977526,139.8253354926783L100.53165089488427,140.33181722599699L100.75505505999327,140.96475419094327L100.97845922510226,141.2980221572603L101.20186339021126,141.22965888927183L101.42526755532026,141.12484110087044L101.64867172042926,141.76809780715985L101.87207588553827,142.0512508896781L102.09548005064727,142.51015908483166L102.31888421575626,142.77299412687873L102.54228838086526,143.0626464765503L102.76569254597426,143.21370548529032L102.98909671108325,143.45753231155717L103.21250087619225,143.27847265065628L103.43590504130125,143.58405448025027L103.65930920641024,143.74336314583863L103.88271337151924,144.08685955166132L104.10611753662825,144.31382458553466L104.32952170173724,144.51474673938205L104.55292586684625,144.2327164802196L104.77633003195525,144.57853453791105L104.99973419706424,144.8282306846169L105.22313836217324,145.07017728422636L105.44654252728223,145.34022643599377L105.66994669239124,145.58000492537866L105.89335085750024,145.98584939680367L106.11675502260923,146.4072041800358L106.34015918771823,146.8502654012421L106.56356335282723,147.1011587569102L106.78696751793622,147.3418956703989L107.01037168304522,147.4362625939211L107.23377584815424,147.57194896659755L107.45718001326323,147.55143844857412L107.68058417837223,147.5046533576773L107.90398834348123,147.41754547360912L108.12739250859022,147.3622071018825L108.35079667369922,147.2907672055142L108.57420083880822,147.13661804131038L108.79760500391721,147.19787490440197L109.02100916902621,147.0842787294625L109.24441333413522,147.04016020991196L109.4678174992442,146.6549879451093L109.69122166435321,146.49147646625664L109.91462582946222,146.332795837592L110.13802999457121,146.16212520603642L110.36143415968021,145.98904894578735L110.5848383247892,146.03514157594225L110.8082424898982,145.53377261156533L111.03164665500721,145.4357430860538L111.2550508201162,145.41293378703685L111.4784549852252,145.68328112753764L111.7018591503342,145.44197993023974L111.92526331544319,145.8000566871325L112.14866748055219,145.78541181992009L112.3720716456612,145.8196284173379L112.59547581077018,145.92350409353222L112.8188799758792,145.5526976979505L113.0422841409882,141.58786786551434L113.26568830609719,133.20321925015608L113.48909247120619,126.0177456081439L113.7124966363152,119.85123974834971L113.93590080142418,114.35335210694272L114.15930496653318,111.66106513641739L114.38270913164219,111.97698119819914L114.60611329675118,112.23064937392523L114.82951746186018,93.64463339758053L115.05292162696918,99.20110795540656L115.27632579207817,107.15481497521063L115.49972995718717,114.23518751769443L115.72313412229619,120.49906542427131L115.94653828740518,125.39627560721433L116.16994245251418,129.55435870390338L116.39334661762317,132.57743773489747L116.61675078273217,133.91439308284987L116.84015494784117,135.2578226313648L117.06355911295016,136.66438267373377L117.28696327805916,135.91960027861978L117.51036744316816,132.88872978120546L117.73377160827715,131.23814145941589L117.95717577338615,129.2520086976952L118.18057993849516,129.32697203843486L118.40398410360416,129.3108331648503L118.62738826871316,130.5755499735809L118.85079243382216,131.93402158736222L119.07419659893115,132.93408834091102L119.29760076404015,133.93144446604165L119.52100492914916,134.36865882289482L119.74440909425815,134.29841842406117L119.96781325936715,134.72859766104577L120.19121742447615,135.21087461009407L120.41462158958514,135.6612859390488L120.63802575469414,135.59140888827557L120.86142991980314,135.73426822184587L121.08483408491213,135.74275592337295L121.30823825002115,135.12098124692753L121.53164241513015,134.62085966086633L121.75504658023914,134.37283938093694L121.97845074534814,133.50849639445852L122.20185491045713,133.79304966154658L122.42525907556613,133.65306655837654L122.64866324067513,133.53426813348958L122.87206740578412,133.31135359675667L123.09547157089312,134.1728281256093L123.31887573600213,134.09785255189504L123.54227990111112,134.2697845198871L123.76568406622012,134.7578906173531L123.98908823132913,134.50452438835015L124.21249239643812,134.3284915881335L124.43589656154712,134.54158635407194L124.65930072665613,134.21343776104473L124.88270489176512,134.08227734536348L125.10610905687412,134.76138854001036L125.32951322198312,135.48083349786597L125.55291738709211,136.16182344471653L125.77632155220111,136.05090204196838L125.99972571731011,135.8962529866295L126.2231298824191,136.5060979797219L126.4465340475281,137.00341821347504L126.66993821263712,137.54441240676908L126.89334237774611,137.73111920121175L127.11674654285511,137.80462734298013L127.3401507079641,137.89868904147596L127.5635548730731,138.0914210978557L127.7869590381821,137.6375405134916L128.0103632032911,137.47970971827354L128.2337673684001,137.48524789601944L128.4571715335091,137.5658815922096L128.6805756986181,137.48629266046902L128.9039798637271,137.37427138585022L129.1273840288361,137.30279435811212L129.35078819394508,136.71658984943514L129.57419235905408,137.26270753116964L129.79759652416308,137.3720731877052L130.02100068927209,137.08840319953484L130.2444048543811,136.77642958230936L130.4678090194901,137.1703781154626L130.69121318459906,136.87468014695045L130.9146173497081,136.72041206578905L131.1380215148171,134.86809279804268L131.36142567992607,117.21997489643068L131.58482984503507,100.35288589638067L131.80823401014408,90.83180413880108L132.03163817525308,84.36033300489582L132.25504234036208,79.9868314623186L132.47844650547108,77.36974368557291L132.70185067058006,76.46290178921284L132.92525483568906,79.69251267685732L133.14865900079806,83.43100907173994L133.37206316590706,86.85509083336626L133.59546733101607,88.22046566496613L133.81887149612507,88.4284896999132L134.04227566123407,89.48328996849462L134.26567982634307,90.12906656861128L134.48908399145208,90.15862795565288L134.71248815656108,91.32730141739637L134.93589232167005,92.76932087464651L135.15929648677906,93.87918061295714L135.38270065188806,93.28176271935584L135.60610481699706,93.33898391875218L135.82950898210606,94.82522503472555L136.05291314721504,95.35798427322408L136.27631731232404,94.56698327909332L136.49972147743304,94.02978125266688L136.72312564254204,94.14300361641659L136.94652980765105,98.97083253112935L137.16993397276005,104.82312792998255L137.39333813786902,108.6023871506568L137.61674230297803,110.2778148940091L137.84014646808703,111.96892775943292L138.06355063319603,113.45744638033707L138.28695479830503,115.77014607753797L138.51035896341403,117.23342435139655L138.733763128523,118.5743710928373L138.957167293632,119.63497901839067L139.180571458741,120.937933190403L139.40397562385004,122.26485752508786L139.62737978895905,123.3578469637626L139.85078395406805,125.02635310011753L140.07418811917702,125.87833791117363L140.29759228428603,126.18368248498216L140.52099644939503,126.23441477182061L140.74440061450403,126.37499104293688L140.96780477961303,125.51033531983997L141.19120894472204,124.82224302541293L141.414613109831,124.84504827334341L141.63801727494,124.93319382713659L141.861421440049,124.77105386782618L142.08482560515802,124.76298469476306L142.30822977026702,124.99883601032138L142.531633935376,126.13933788791743L142.755038100485,126.57989884981977L142.978442265594,126.98422063553096L143.201846430703,127.42003300816936L143.425250595812,127.80459597762582L143.648654760921,127.2948192860393L143.87205892602998,125.6266126602638L144.09546309113898,124.26657851469909L144.31886725624798,122.35542420449934L144.542271421357,120.62713565459222L144.765675586466,119.52816356772153L144.98907975157502,117.17990331332462L145.212483916684,117.3383831618827L145.435888081793,117.09401392570558L145.659292246902,115.86207850058955L145.882696412011,114.63488440023256L146.10610057712,114.44327683915424L146.329504742229,113.06125698987661L146.55290890733798,111.71136004578197L146.77631307244698,110.28370110406138L146.99971723755598,110.393466099483L147.223121402665,111.03874760845211L147.446525567774,112.17127690893284L147.66992973288296,112.83424332903199L147.89333389799197,112.9987617780951L148.11673806310097,114.87682622700159L148.34014222820997,116.31249142815697L148.56354639331897,117.15277492713145L148.78695055842798,117.74240654937097L149.01035472353695,118.8249769127675L149.23375888864595,119.83637794827509L149.45716305375495,121.00377762140953L149.68056721886396,121.8250371566209L149.90397138397296,123.46555467553154L150.12737554908196,124.63145478799377L150.35077971419094,125.58679639115476L150.57418387929997,127.11377789663285L150.79758804440897,128.54848103317238L151.02099220951797,129.66143158469762L151.24439637462697,130.4616281494551L151.46780053973598,131.6249406941376L151.69120470484495,132.48456532875989L151.91460886995395,133.1422695580781L152.13801303506295,133.16327102595986L152.36141720017196,133.47281053564143L152.58482136528096,133.9039574492478L152.80822553038993,134.55527592151682L153.03162969549894,134.5599084024547L153.25503386060794,134.8258880773112L153.47843802571694,135.06766693251885L153.70184219082594,131.8473501442719L153.92524635593495,123.85958144081178L154.14865052104392,113.17723227850311L154.37205468615292,100.79203998534874L154.59545885126192,85.11943106222257L154.81886301637093,58.37948471013191L155.04226718147993,43.80126544499094L155.26567134658893,32.90388017875247L155.4890755116979,17.320830299931128L155.7124796768069,7.8782822822342515L155.9358838419159,9.079313075102307L156.15928800702494,15.268719999726104L156.38269217213394,22.046874647657653L156.60609633724295,27.75686233321221L156.82950050235192,30.298287602333414L157.05290466746092,33.322496257649405L157.27630883256992,34.74253018666003L157.49971299767893,40.484636358605144L157.72311716278793,49.66498704106769L157.94652132789693,58.12260512916593L158.1699254930059,65.1888145317541L158.3933296581149,70.34231630549806L158.6167338232239,74.47165598615804L158.8401379883329,79.29088866183068L159.06354215344192,82.79666727454254L159.2869463185509,83.81153125835645L159.5103504836599,77.34436580922596L159.7337546487689,57.95174588419458L159.9571588138779,31.990385987890043L160.1805629789869,45.04170162912305L160.4039671440959,57.96984391785573L160.62737130920488,71.73076109503323L160.85077547431388,84.54622457721186L161.07417963942288,94.23904204257175L161.29758380453188,102.43384485274589L161.52098796964088,109.25534796541643L161.74439213474992,113.56101791657845L161.9677962998589,117.42579057095918L162.1912004649679,120.65963844435073L162.4146046300769,122.38816539348113L162.6380087951859,124.22421495069756L162.8614129602949,125.16306217359767L163.0848171254039,125.9140271714153L163.30822129051288,124.9594943868686L163.53162545562188,125.24787491223049L163.75502962073088,124.66241465512628L163.97843378583988,123.87413553166469L164.20183795094889,123.44856147196866L164.42524211605786,121.96570189845976L164.64864628116686,121.77407285900121L164.87205044627586,119.51304413916364L165.09545461138487,118.33528897624612L165.31885877649387,117.61349253381564L165.54226294160287,117.02176082711455L165.76566710671185,116.8790854885812L165.98907127182085,117.16341301861334L166.21247543692985,117.03961114516612L166.43587960203885,116.00910946131006L166.65928376714785,116.24443807603554L166.88268793225686,115.61583629943674L167.10609209736583,115.84709805543403L167.32949626247486,115.23080650119752L167.55290042758386,115.36605614421912L167.77630459269287,114.5271394841812L167.99970875780187,114.44829251364413L168.22311292291087,114.10450802584485L168.44651708801985,112.8808362612764L168.66992125312885,112.5687098112961L168.89332541823785,112.69645115902486L169.11672958334685,113.21856589712202L169.34013374845586,113.54431676635265L169.56353791356483,113.34209485054238L169.78694207867383,113.52423845278445L170.01034624378283,112.7400247087037L170.23375040889184,112.01372340851712L170.45715457400084,112.56560161320986L170.68055873910984,112.51210077718632L170.90396290421882,111.87617842328572L171.12736706932782,110.63740332504985L171.35077123443682,109.43995282216727L171.57417539954582,107.63606571972808L171.79757956465482,106.53810572827416L172.02098372976383,106.15860649864446L172.2443878948728,105.81244751264771L172.4677920599818,105.05595431925458L172.6911962250908,104.84759149624266L172.91460039019984,105.06500305828364L173.13800455530884,104.59753530467503L173.36140872041784,104.03134703576926L173.58481288552682,105.13414179927523L173.80821705063582,105.6690918568652L174.03162121574482,107.64697329641866L174.25502538085382,109.63081688606833L174.47842954596283,111.19916192380302L174.70183371107183,111.74587113134446L174.9252378761808,112.34800028534818L175.1486420412898,112.60486214315938L175.3720462063988,113.13822485066301L175.5954503715078,114.82960775249761L175.8188545366168,116.22798266392833L176.04225870172579,117.18676735922965L176.2656628668348,117.05325257732748L176.4890670319438,117.84763967247352L176.7124711970528,118.56934071982008L176.9358753621618,119.18507775521765L177.1592795272708,118.33789441158042L177.38268369237977,119.05249146019072L177.60608785748877,119.47139587852396L177.82949202259778,119.82269138537892L178.05289618770678,120.01066207207079L178.27630035281578,119.5541449332474L178.4997045179248,120.53043725453234L178.7231086830338,120.19515014920604L178.9465128481428,120.33143330073779L179.1699170132518,120.76190079522532L179.3933211783608,121.53923312494838L179.6167253434698,121.05106817093194L179.8401295085788,121.33821018739395L180.06353367368777,121.54530529485243L180.28693783879677,121.66119104457599L180.51034200390578,122.26377578493216L180.73374616901478,122.6749053930153L180.95715033412378,123.02291184099509L181.18055449923276,122.39766472684673L181.40395866434176,123.13611950520281L181.62736282945076,123.23414456060006L181.85076699455976,123.25550293374359L182.07417115966877,122.90932588931959L182.29757532477777,122.70054427827058L182.52097948988674,122.72293459524826L182.74438365499574,123.87093981427981L182.96778782010475,124.03344695703666L183.19119198521375,124.82981627025676L183.41459615032275,125.06100341428912L183.63800031543175,125.60248838767475L183.86140448054073,126.53654811164105L184.08480864564976,127.43273758176417L184.30821281075876,127.35953316808524L184.53161697586776,127.54670632216686L184.75502114097677,128.18321602039748L184.97842530608577,128.8657087654615L185.20182947119474,127.7202337668249L185.42523363630374,127.72032692797187L185.64863780141275,127.83776385526984L185.87204196652175,127.77243499716909L186.09544613163075,127.50541227035009L186.31885029673973,127.6464842580337L186.54225446184873,127.65357178171708L186.76565862695773,128.35426593284336L186.98906279206673,128.53475396780328L187.21246695717574,128.18691088513484L187.43587112228474,127.23233836145538L187.6592752873937,127.7079989690213L187.8826794525027,127.18197070866754L188.10608361761172,126.45870086748322L188.32948778272072,126.1798435402575L188.55289194782972,126.47962688481208L188.77629611293872,126.37530761643056L188.9997002780477,126.12176115907663L189.2231044431567,125.87888766667642L189.4465086082657,125.42029453198028L189.66991277337473,125.9441807334499L189.89331693848374,125.71656794792622L190.11672110359274,125.56079166635031L190.3401252687017,126.53266103175446L190.56352943381071,126.08575199121871L190.78693359891972,125.3714376241748L191.01033776402872,125.8940758002414L191.23374192913772,126.89119241848361L191.45714609424672,127.27387376437203L191.6805502593557,128.27806624259935L191.9039544244647,128.53417238542585L192.1273585895737,127.95719593993343L192.3507627546827,128.09853408680831L192.5741669197917,128.46910429574365L192.79757108490068,128.91866901747431L193.02097525000968,129.2155569414782L193.2443794151187,128.19607670130026L193.4677835802277,127.68220366131287L193.6911877453367,127.43601363194682L193.9145919104457,128.045806858279L194.13799607555467,128.03590048083635L194.36140024066367,127.93736752317461L194.58480440577267,127.93612060910414L194.80820857088167,127.36267330700403L195.03161273599068,127.18137655383165L195.2550169010997,127.3608131682031L195.47842106620868,127.02747762358393L195.70182523131768,126.64668584553999L195.9252293964267,126.95388364168113L196.1486335615357,126.514842426771L196.3720377266447,125.85137362619467L196.5954418917537,125.00190870486244L196.81884605686267,124.24352725639048L197.04225022197167,123.75850248549897L197.26565438708067,124.48431343764486L197.48905855218968,124.86491590337913L197.71246271729868,125.60661856122402L197.93586688240765,125.41474493511153L198.15927104751665,125.50304442409904L198.38267521262566,125.88577097367396L198.60607937773466,126.65221395525187L198.82948354284366,127.6077225782897L199.05288770795266,128.4381353936125L199.27629187306164,128.5872557393952L199.49969603817064,128.42851800256105L199.72310020327964,128.74618449281593L199.94650436838864,129.17674248068886L200.16990853349765,129.38784246792264L200.39331269860665,130.0204552075596L200.61671686371562,130.2948059024095L200.84012102882465,130.5589610709393L201.06352519393366,130.5233688366822L201.28692935904266,130.62311369882747L201.51033352415166,131.13496793426677L201.73373768926066,131.08687676413976L201.95714185436964,131.36190843733945L202.18054601947864,131.01846170898938L202.40395018458764,130.75255158079537L202.62735434969665,130.7027852893909L202.85075851480565,130.7597935657926L203.07416267991462,130.8740188521143L203.29756684502362,130.04949884606813L203.52097101013263,130.23115321035118L203.74437517524163,130.40913718343126L203.96777934035063,130.80812932801092L204.19118350545963,130.3726177251827L204.4145876705686,130.03301284081516L204.6379918356776,129.07024084067876L204.8613960007866,129.38288147596248L205.08480016589562,129.59798841995382L205.30820433100462,129.98427196858285L205.53160849611362,130.27206524634562L205.7550126612226,130.7710821214612L205.9784168263316,131.4932546203795L206.2018209914406,131.84379742503515L206.42522515654963,132.00159302253738L206.64862932165863,131.50740140019238L206.87203348676763,131.34792401207267L207.0954376518766,131.3673026150331L207.3188418169856,131.16162413525075L207.5422459820946,131.4330118277337L207.76565014720362,131.67000443244066L207.98905431231262,131.85350686533124L208.21245847742162,131.83391095451682L208.4358626425306,131.81349518915027L208.6592668076396,132.07828489641088L208.8826709727486,132.06787027619004L209.1060751378576,131.89411740203815L209.3294793029666,132.49237478121205L209.55288346807558,132.92659666966276L209.77628763318458,133.1013170054078L209.99969179829358,133.33039475555745L210.22309596340259,133.31541251618967L210.4465001285116,133.53683424518707L210.6699042936206,132.7958184147765L210.89330845872956,132.89751071638116L211.11671262383857,132.8205305064667L211.34011678894757,133.3014299539299L211.56352095405657,132.97777442383503L211.78692511916557,133.0689413559411L212.0103292842746,132.493818209712L212.23373344938358,131.98229328732924L212.45713761449258,131.66993601179925L212.68054177960158,130.80271152492693L212.90394594471059,130.6212486460804L213.1273501098196,130.41869562333179L213.3507542749286,130.5402134632157L213.57415844003756,130.7232506900444L213.79756260514657,131.06670951311295L214.02096677025557,131.3520711719725L214.24437093536457,131.37334511989334L214.46777510047357,130.7589415826296L214.69117926558255,131.37468306488722L214.91458343069155,131.9813995930419L215.13798759580055,131.28345910692207L215.36139176090956,131.8994288131406L215.58479592601856,131.65538211203466L215.80820009112756,131.83600908369792L216.03160425623653,132.02329432058647L216.25500842134554,131.76883072408947L216.47841258645454,131.91960077240796L216.70181675156354,132.18143115791665L216.92522091667254,131.81252396722863L217.14862508178155,131.62299986225804L217.37202924689052,131.65668044762725L217.59543341199955,131.97609257809282L217.81883757710855,131.281887144742L218.04224174221756,131.54366415460674L218.26564590732656,130.91241914500193L218.48905007243556,130.69372922470174L218.71245423754453,130.1733787289886L218.93585840265354,129.8376145887621L219.15926256776254,130.04036938677493L219.38266673287154,130.8065015380164L219.60607089798054,130.56222581659705L219.82947506308952,130.99042916331416L220.05287922819852,131.46321647944325L220.27628339330752,131.7569936605303L220.49968755841653,132.75682660878581L220.72309172352553,133.07697658879115L220.94649588863453,133.7282249429753L221.1699000537435,134.1561195621597L221.3933042188525,134.5289269700978L221.6167083839615,135.00051916033414L221.8401125490705,135.0999385959968L222.0635167141795,134.77771127332008L222.28692087928852,135.30254452462407L222.5103250443975,135.34333367660307L222.7337292095065,135.45012381760438L222.9571333746155,135.82215562303062L223.18053753972453,135.37327526734632L223.40394170483353,134.33371019690696L223.62734586994253,134.7235540642551L223.8507500350515,134.95713618142884L224.0741542001605,134.74456153044247L224.2975583652695,134.2682824448785L224.5209625303785,134.37105896108685L224.7443666954875,133.86011187303075L224.96777086059652,133.49948290609223L225.1911750257055,133.3308206704317L225.4145791908145,133.00026670942387L225.6379833559235,133.56517752184357L225.8613875210325,133.84558394455388L226.0847916861415,133.06760657684922L226.30819585125047,132.8367429489803L226.53160001635948,132.810097755732L226.75500418146848,132.579983914092L226.97840834657748,132.30131210390442L227.20181251168648,132.27072330650623L227.4252166767955,132.12740643066437L227.64862084190446,130.98144064733017L227.87202500701346,131.3321573370215L228.09542917212246,131.12431705375784L228.31883333723147,130.61417030819766L228.54223750234047,130.57160609888908L228.7656416674495,129.82243912867744L228.98904583255847,129.76484293691135L229.21244999766748,129.63535878694046L229.43585416277648,129.61241328560052L229.65925832788548,128.684113715567L229.88266249299448,128.3510522436352L230.1060666581035,127.94936946928338L230.32947082321246,128.13527761963113L230.55287498832146,128.15072841262636L230.77627915343047,127.78151802104809L230.99968331853947,128.32316750009122L231.22308748364847,127.30334489464855L231.44649164875744,127.41118017812063L231.66989581386645,127.42444107441067L231.89329997897545,127.94616802128753L232.11670414408445,128.26717563192366L232.34010830919345,128.7650778637145L232.56351247430246,127.9988567514045L232.78691663941143,128.56607744491603L233.01032080452043,129.4154778522461L233.23372496962944,128.8874419245194L233.45712913473844,129.45138168288295L233.68053329984744,130.18062765263548L233.90393746495644,130.41854090765267L234.12734163006542,131.34502631717234L234.35074579517445,131.9607775383638L234.57414996028345,132.17854558845247L234.79755412539245,132.2973306671553L235.02095829050145,133.0444108593L235.24436245561046,133.22208718854014L235.46776662071943,133.4738200736905L235.69117078582843,133.96734284523862L235.91457495093744,134.21825050974346L236.13797911604644,133.5691635250981L236.36138328115544,134.0549682120712L236.58478744626441,134.4769889754292L236.80819161137342,134.15531745989279L237.03159577648242,135.02159961206962L237.25499994159142,134.88987993985228L237.47840410670042,134.0152787698247L237.70180827180943,133.3781534191887L237.9252124369184,133.11510484951492L238.1486166020274,133.1695355151146L238.3720207671364,133.33690213722286L238.5954249322454,132.85377292980317L238.8188290973544,132.35089512268888L239.0422332624634,131.43567692594283L239.2656374275724,132.01787266011837L239.4890415926814,131.98477176197568L239.7124457577904,131.5530857353834L239.93584992289942,131.89510400203957L240.15925408800842,132.23763426922142L240.38265825311743,132.17727481923797L240.6060624182264,132.71794208070068L240.8294665833354,132.9849009544772L241.0528707484444,133.50150738403786L241.2762749135534,133.41045203010674L241.4996790786624,133.99922817397632L241.7230832437714,134.70809226672685L241.9464874088804,135.3731033325469L242.1698915739894,135.87497949054526L242.3932957390984,136.5097635029478L242.6166999042074,136.39057811085218L242.8401040693164,136.5337628155708L243.06350823442537,136.93933502701893L243.28691239953437,136.93814059895197L243.51031656464338,137.2727634416838L243.73372072975238,137.2016254779017L243.95712489486138,137.1188628082232L244.18052905997038,137.38184279406923L244.40393322507936,136.96844722180003L244.62733739018836,136.99778815723744L244.85074155529736,136.6791431309321L245.07414572040636,136.77625377949263L245.29754988551537,137.32996699515832L245.5209540506244,137.2691651079088L245.74435821573337,137.38720115088228" fill="none"></path></g></g></g></g><g opacity="0.2"><g><g><g><path style="fill: none;" stroke="rgb(0, 153, 136)" stroke-width="2px" d="M22.56359727184375,160.83309481436345L22.78700143695275,160.87417675711433L23.01040560206175,160.3004581116337L23.233809767170747,160.24585143703942L23.457213932279746,159.41834635117633L23.68061809738874,158.68906438949267L23.904022262497744,158.356407019322L24.127426427606743,157.6381470021638L24.350830592715738,157.27319728469638L24.57423475782474,155.59369682685255L24.797638922933736,155.4432636137569L25.021043088042735,156.00017655460888L25.244447253151737,156.20965552986905L25.467851418260732,156.24925511389023L25.69125558336973,156.43982455823138L25.914659748478734,156.54535468417586L26.13806391358773,156.93616685054133L26.361468078696728,157.45414937168698L26.584872243805727,157.42826154717588L26.808276408914725,157.34120674721575L27.031680574023724,157.46297679560132L27.255084739132723,158.48794385922395L27.478488904241722,158.33174004375044L27.701893069350717,158.19145190677335L27.925297234459716,157.81186140040654L28.14870139956872,156.68624995619143L28.372105564677714,155.95029749770373L28.595509729786713,156.029879179617L28.818913894895715,156.1114598959371L29.04231806000471,156.09669504848495L29.26572222511371,154.83078841851133L29.489126390222708,154.78347135868793L29.712530555331707,154.0241409117885L29.935934720440706,154.0828675991147L30.159338885549705,150.69196013943255L30.382743050658704,150.12102388293238L30.6061472157677,150.32713025124906L30.8295513808767,147.68771875289278L31.0529555459857,149.10374656990513L31.276359711094695,147.3332759489894L31.499763876203698,146.16707856127505L31.723168041312693,146.28858639499228L31.946572206421692,144.76738606021215L32.169976371530694,135.86872246179502L32.39338053663969,141.86288775008236L32.61678470174869,142.1770528771933L32.84018886685769,143.10617625027982L33.06359303196668,142.22957475720702L33.286997197075685,140.30040411236251L33.51040136218468,141.73972580232848L33.73380552729368,140.3470350907957L33.957209692402685,141.3148308981891L34.18061385751168,138.10531583937606L34.404018022620676,138.68924253008907L34.62742218772968,135.64006751167872L34.85082635283867,135.86285787566504L35.07423051794767,140.07127172478562L35.29763468305668,138.99240028015612L35.521038848165674,136.42814006963997L35.74444301327467,135.71131471445733L35.96784717838367,132.45582656347568L36.19125134349267,134.84706832543327L36.41465550860166,132.3856470161207L36.63805967371066,133.6508562866539L36.86146383881967,134.43961492600536L37.08486800392866,134.1002339582107L37.30827216903766,122.67324577672363L37.53167633414666,126.5550529296326L37.755080499255655,134.49844499545884L37.97848466436465,138.9200779032537L38.20188882947366,141.42850800568283L38.425292994582655,142.33704893706332L38.64869715969165,141.2244523628366L38.87210132480065,143.28236383095862L39.09550548990965,142.59131070027198L39.31890965501864,143.0790017882027L39.542313820127646,141.4701860403813L39.76571798523665,140.2966316045539L39.98912215034564,137.29349358726358L40.21252631545464,142.35327617169787L40.43593048056364,142.513052309588L40.65933464567264,138.46650479700392L40.88273881078164,142.35585696553002L41.10614297589064,135.72129014990335L41.32954714099964,138.13048844753382L41.55295130610863,139.00492079560857L41.776355471217634,33.39733532234273L41.99975963632663,122.34309213370844L42.223163801435625,127.49658591734408L42.44656796654463,135.2725120946848L42.66997213165363,140.89362955550655L42.893376296762625,142.37803337167142L43.11678046187162,143.9208330523551L43.34018462698062,142.9505861487074L43.56358879208962,142.575154893289L43.78699295719862,142.77231024905737L44.01039712230762,143.828982731445L44.23380128741662,145.09981035067764L44.45720545252561,144.3140403946424L44.680609617634616,143.4274333913229L44.90401378274361,143.93878394900284L45.127417947852614,145.81096284658463L45.35082211296161,144.6574683028017L45.57422627807061,145.30028521256958L45.79763044317961,144.5956871435328L46.0210346082886,145.84719358301237L46.244438773397604,145.53016007178786L46.46784293850661,146.2798985369498L46.6912471036156,146.79052166038863L46.914651268724604,147.826512078293L47.1380554338336,146.8175683045629L47.361459598942595,146.6214486497425L47.5848637640516,145.75405004567358L47.80826792916059,147.5060556788177L48.031672094269595,147.03427979946457L48.25507625937859,147.5823855229089L48.47848042448759,147.31879869181864L48.70188458959659,147.36232444708304L48.92528875470558,149.16222326045076L49.148692919814586,148.2745833756959L49.37209708492359,149.06886919950733L49.595501250032584,148.81934233772859L49.818905415141586,148.14430121888427L50.04230958025058,148.55066628646304L50.26571374535958,148.73270529554648L50.48911791046858,147.3554485957807L50.71252207557758,148.78085693108838L50.93592624068658,149.88109558175378L51.15933040579557,150.0285842838967L51.382734570904574,149.07548001662883L51.60613873601357,148.4413171307527L51.829542901122565,145.95377491722388L52.052947066231575,148.67428499525207L52.27635123134057,148.96857725798517L52.499755396449565,148.64491789223888L52.72315956155857,147.81070777054282L52.94656372666756,146.78464015718333L53.16996789177656,140.6802394464035L53.39337205688555,146.1700503275159L53.61677622199456,144.698146350378L53.84018038710356,144.52369370976265L54.06358455221255,142.2170767978551L54.286988717321556,140.44201507065014L54.51039288243055,137.44370405886679L54.73379704753955,129.67015942980382L54.957201212648556,133.93596539697103L55.18060537775755,135.73557568021988L55.40400954286655,133.91031911070277L55.62741370797555,139.0374410535041L55.850817873084544,141.2330875899779L56.07422203819354,140.6313246627947L56.29762620330254,138.20527883776592L56.521030368411544,137.67949425544117L56.74443453352054,139.87921404773022L56.967838698629535,138.63603832803523L57.19124286373854,139.44136254352878L57.41464702884753,128.37129269797492L57.638051193956535,137.46314741749757L57.86145535906554,138.91289002589443L58.08485952417453,141.23500109917032L58.30826368928353,140.1826443506783L58.53166785439253,137.89448584767973L58.755072019501526,142.78220297880156L58.97847618461052,144.59651420055116L59.201880349719524,144.4982165942482L59.425284514828526,141.3741440441283L59.64868867993752,143.2601047191154L59.87209284504652,146.2605510417461L60.09549701015552,143.80895667355128L60.318901175264514,144.5438419465341L60.54230534037352,145.81030496032005L60.76570950548252,146.24078249933308L60.989113670591514,145.1230826073683L61.21251783570051,146.7271314992841L61.43592200080951,148.01212998865574L61.65932616591851,148.42391603905466L61.88273033102751,147.11702497447297L62.106134496136505,147.011778209541L62.32953866124551,148.101910787345L62.5529428263545,148.59147121210466L62.7763469914635,148.03977812884332L62.9997511565725,146.4773753171503L63.2231553216815,145.6009505135314L63.4465594867905,144.29786767058405L63.6699636518995,144.31380919461228L63.893367817008496,144.1108099291394L64.1167719821175,144.02875647454636L64.3401761472265,144.29996350825547L64.56358031233549,143.59342749425082L64.78698447744449,142.03506410422227L65.01038864255348,144.97299995366794L65.23379280766248,144.14478317584218L65.45719697277148,143.84001454426445L65.68060113788049,145.30386411384887L65.90400530298949,146.6351871946219L66.12740946809848,146.59295653546118L66.35081363320748,147.71730107869823L66.57421779831648,147.5158863792855L66.79762196342548,147.13565255413567L67.02102612853447,146.81504202130694L67.24443029364348,147.6706776189652L67.46783445875246,149.12728104126407L67.69123862386147,147.63056535357643L67.91464278897047,149.71165227512444L68.13804695407947,148.8876873222429L68.36145111918847,149.62993528236385L68.58485528429748,141.08955372412262L68.80825944940646,143.7456191433479L69.03166361451547,145.05260795103177L69.25506777962447,145.548896672603L69.47847194473346,145.78672819627263L69.70187610984246,147.1643758684471L69.92528027495146,146.66963036008505L70.14868444006045,147.2300441957021L70.37208860516945,146.16763306541233L70.59549277027845,147.376765990428L70.81889693538744,149.50590774425328L71.04230110049646,148.03399812809027L71.26570526560546,147.5765942441056L71.48910943071445,147.13864875615207L71.71251359582345,146.9755907056392L71.93591776093244,147.30297182796795L72.15932192604144,146.2120197118458L72.38272609115045,146.07395382068668L72.60613025625943,146.48355380901216L72.82953442136844,147.57241760616304L73.05293858647744,147.44144936796118L73.27634275158643,146.1428363922629L73.49974691669543,144.38010909268127L73.72315108180445,141.9628056362712L73.94655524691343,143.16205710959295L74.16995941202244,142.6795238499765L74.39336357713144,142.31307744125718L74.61676774224043,140.8674550805516L74.84017190734943,140.6005994945639L75.06357607245843,140.0510952928886L75.28698023756742,139.54676908083925L75.51038440267642,138.9780771563388L75.73378856778542,136.53846007750934L75.95719273289441,124.61890869038358L76.18059689800342,132.89402768723485L76.40400106311243,136.21817848781288L76.62740522822142,134.66661952143508L76.85080939333042,136.2294095461867L77.07421355843941,137.7397434795511L77.29761772354841,135.65156736358352L77.52102188865742,134.5260780982461L77.7444260537664,135.05030255028632L77.9678302188754,137.77539527606604L78.19123438398441,140.55937258187546L78.4146385490934,142.05075751114498L78.6380427142024,141.79784347494117L78.8614468793114,141.0265921289276L79.08485104442039,143.24222525011925L79.3082552095294,142.0940219915786L79.53165937463841,141.6489713319676L79.7550635397474,142.09096000093575L79.9784677048564,141.0964840860012L80.2018718699654,142.0226056180462L80.42527603507439,144.55974775673653L80.64868020018339,144.68376871598446L80.8720843652924,142.8174844793333L81.09548853040138,139.69649647595674L81.31889269551039,123.39711991331247L81.54229686061939,143.06690795898476L81.76570102572838,141.38206687442883L81.98910519083738,143.03510761663014L82.2125093559464,143.56436395875684L82.43591352105538,145.01221749373684L82.65931768616439,145.7684427174675L82.88272185127337,145.38270144444564L83.10612601638238,144.23234407830725L83.32953018149138,142.8772807017582L83.55293434660037,144.38823492788632L83.77633851170937,144.6419872991587L83.99974267681837,143.1270669586927L84.22314684192736,139.91074559655385L84.44655100703636,139.53032568357492L84.66995517214536,140.41178425695534L84.89335933725437,141.88850020219985L85.11676350236337,142.95183801228515L85.34016766747237,144.08070505367238L85.56357183258136,142.67310288003424L85.78697599769036,144.23446623142928L86.01038016279936,145.58747136380774L86.23378432790835,145.34217940989782L86.45718849301736,145.14689245112086L86.68059265812636,146.9298807679764L86.90399682323535,145.69584778768402L87.12740098834435,146.83397974735152L87.35080515345335,145.29531159240938L87.57420931856234,146.37473378182605L87.79761348367136,146.68411701563102L88.02101764878036,147.27647780825592L88.24442181388935,145.71967078916185L88.46782597899835,148.15056241644797L88.69123014410734,146.89176283780682L88.91463430921634,146.063903198239L89.13803847432534,147.39547063676744L89.36144263943433,147.3507776033022L89.58484680454333,146.75974386125668L89.80825096965233,147.57652469612907L90.03165513476132,146.91708581996792L90.25505929987033,148.02243812658412L90.47846346497934,146.46265746157417L90.70186763008833,145.999364555684L90.92527179519733,147.46960502041006L91.14867596030633,147.3118551722148L91.37208012541532,146.87859383446505L91.59548429052433,147.92823445252185L91.81888845563333,148.16301526359888L92.04229262074232,147.10718863498002L92.26569678585132,148.9335636111469L92.48910095096032,149.84917963938415L92.71250511606931,149.833130034041L92.93590928117831,148.8179532578728L93.15931344628733,149.84771819203925L93.38271761139632,149.46199383609277L93.60612177650532,148.76203762457138L93.8295259416143,147.5028846670224L94.05293010672331,146.992190115932L94.27633427183231,147.64816663066642L94.4997384369413,147.24972439338816L94.7231426020503,143.7015370042712L94.9465467671593,141.24800093175836L95.16995093226829,134.22343537914048L95.3933550973773,134.38427917245428L95.6167592624863,139.5234103590967L95.84016342759529,136.99419105070695L96.0635675927043,136.50758641495025L96.2869717578133,133.51789559290788L96.5103759229223,132.56814842526438L96.7337800880313,130.59654975537978L96.9571842531403,132.06928266921105L97.18058841824929,131.71866312434238L97.40399258335829,134.9673073784974L97.62739674846729,135.63798107238247L97.85080091357628,137.3558649644955L98.07420507868528,137.12051649155592L98.29760924379428,137.0265007849978L98.52101340890327,139.79828087946197L98.74441757401227,139.30101284719404L98.96782173912129,138.296540820388L99.19122590423028,139.09690645312168L99.41463006933928,139.13399808071853L99.63803423444827,139.27848870116998L99.86143839955727,142.24713280177104L100.08484256466627,139.46116116074245L100.30824672977526,142.49502998528868L100.53165089488427,142.35774415927187L100.75505505999327,143.49650205072822L100.97845922510226,142.63109402252846L101.20186339021126,140.95620581731805L101.42526755532026,140.70556994726473L101.64867172042926,144.3411246323175L101.87207588553827,143.18386321975112L102.09548005064727,144.3457918654459L102.31888421575626,143.824334295067L102.54228838086526,144.22125587523658L102.76569254597426,143.81794152025037L102.98909671108325,144.43283961662462L103.21250087619225,142.56223400705272L103.43590504130125,144.80638179862618L103.65930920641024,144.3805978081921L103.88271337151924,145.46084517495206L104.10611753662825,145.221684721028L104.32952170173724,145.3184353547717L104.55292586684625,143.1045954435698L104.77633003195525,145.96180676867684L104.99973419706424,145.8270152714403L105.22313836217324,146.03796368266424L105.44654252728223,146.42042304306338L105.66994669239124,146.5391188829183L105.89335085750024,147.60922728250364L106.11675502260923,148.09262331296424L106.34015918771823,148.6225102860674L106.56356335282723,148.10473217958253L106.78696751793622,148.30484332435387L107.01037168304522,147.8137302880098L107.23377584815424,148.11469445730324L107.45718001326323,147.4693963764804L107.68058417837223,147.31751299409015L107.90398834348123,147.0691139373364L108.12739250859022,147.14085361497592L108.35079667369922,147.00500762004097L108.57420083880822,146.52002138449518L108.79760500391721,147.4429023567684L109.02100916902621,146.62989402970462L109.24441333413522,146.86368613170976L109.4678174992442,145.11429888589868L109.69122166435321,145.83743055084605L109.91462582946222,145.6980733229333L110.13802999457121,145.47944267981413L110.36143415968021,145.2967439047911L110.5848383247892,146.2195120965618L110.8082424898982,143.52829675405772L111.03164665500721,145.04362498400775L111.2550508201162,145.32169659096897L111.4784549852252,146.76467048954083L111.7018591503342,144.4767751410481L111.92526331544319,147.2323637147035L112.14866748055219,145.72683235107056L112.3720716456612,145.95649480700914L112.59547581077018,146.33900679830944L112.8188799758792,144.0694721156235L113.0422841409882,125.72854853576979L113.26568830609719,99.66462478872303L113.48909247120619,97.2758510400951L113.7124966363152,95.18521630917303L113.93590080142418,92.3618015413148L114.15930496653318,100.89191725431607L114.38270913164219,113.24064544532608L114.60611329675118,113.2453220768297L114.82951746186018,19.300569492201543L115.05292162696918,121.42700618671077L115.27632579207817,138.9696430544269L115.49972995718717,142.55667768762962L115.72313412229619,145.5545770505789L115.94653828740518,144.9851163389864L116.16994245251418,146.1866910906596L116.39334661762317,144.66975385887392L116.61675078273217,139.2622144746594L116.84015494784117,140.63154082542448L117.06355911295016,142.29062284320963L117.28696327805916,132.94047069816392L117.51036744316816,120.76524779154825L117.73377160827715,124.63578817225756L117.95717577338615,121.3074776508124L118.18057993849516,129.62682540139366L118.40398410360416,129.2462776705119L118.62738826871316,135.63441720850352L118.85079243382216,137.36790804248736L119.07419659893115,136.93435535510616L119.29760076404015,137.92086896656429L119.52100492914916,136.11751625030752L119.74440909425815,134.01745682872664L119.96781325936715,136.44931460898414L120.19121742447615,137.13998240628723L120.41462158958514,137.46293125486778L120.63802575469414,135.31190068518254L120.86142991980314,136.3057055561272L121.08483408491213,135.7767067294812L121.30823825002115,132.63388254114585L121.53164241513015,132.6203733166215L121.75504658023914,133.3807582612193L121.97845074534814,130.05112444854484L122.20185491045713,134.93126272989878L122.42525907556613,133.09313414569647L122.64866324067513,133.05907443394182L122.87206740578412,132.4196954498251L123.09547157089312,137.61872624101974L123.31887573600213,133.79795025703802L123.54227990111112,134.95751239185537L123.76568406622012,136.7103150072171L123.98908823132913,133.49105947233826L124.21249239643812,133.6243603872668L124.43589656154712,135.39396541782585L124.65930072665613,132.90084338893587L124.88270489176512,133.5576356826384L125.10610905687412,137.477833318598L125.32951322198312,138.35861332928837L125.55291738709211,138.88578323211883L125.77632155220111,135.60721643097583L125.99972571731011,135.2776567652738L126.2231298824191,138.9454779520915L126.4465340475281,138.99269914848776L126.66993821263712,139.70838917994527L126.89334237774611,138.4779463789824L127.11674654285511,138.09865991005358L127.3401507079641,138.2749358354593L127.5635548730731,138.8623493233746L127.7869590381821,135.8220181760352L128.0103632032911,136.84838653740135L128.2337673684001,137.5074006070031L128.4571715335091,137.8884163769702L128.6805756986181,137.1679369335066L128.9039798637271,136.92618628737515L129.1273840288361,137.0168862471598L129.35078819394508,134.37177181472714L129.57419235905408,139.44717825810764L129.79759652416308,137.80953581384748L130.02100068927209,135.95372324685337L130.2444048543811,135.5285351134075L130.4678090194901,138.74617224807548L130.69121318459906,135.6918882729019L130.9146173497081,136.1033397411434L131.1380215148171,127.45881572705721L131.36142567992607,46.627503289982734L131.58482984503507,32.88452989618052L131.80823401014408,52.74747710848264L132.03163817525308,58.4744484692748L132.25504234036208,62.49282529200973L132.47844650547108,66.90139257859008L132.70185067058006,72.8355342037725L132.92525483568906,92.61095622743531L133.14865900079806,98.38499465127033L133.37206316590706,100.55141787987165L133.59546733101607,93.6819649913656L133.81887149612507,89.26058583970136L134.04227566123407,93.7024910428204L134.26567982634307,92.71217296907797L134.48908399145208,90.27687350381919L134.71248815656108,96.00199526437035L134.93589232167005,98.53739870364714L135.15929648677906,98.31861956619966L135.38270065188806,90.89209114495053L135.60610481699706,93.56786871633756L135.82950898210606,100.77018949861896L136.05291314721504,97.48902122721832L136.27631731232404,91.40297930257024L136.49972147743304,91.88097314696113L136.72312564254204,94.59589307141545L136.94652980765105,118.28214818998036L137.16993397276005,128.23230952539546L137.39333813786902,123.71942403335373L137.61674230297803,116.9795258674182L137.84014646808703,118.73337922112826L138.06355063319603,119.41152086395377L138.28695479830503,125.02094486634147L138.51035896341403,123.0865374468309L138.733763128523,123.93815805860021L138.957167293632,123.87741072060422L139.180571458741,126.1497498784523L139.40397562385004,127.57255486382734L139.62737978895905,127.7298047184615L139.85078395406805,131.70037764553723L140.07418811917702,129.28627715539815L140.29759228428603,127.40506078021616L140.52099644939503,126.43734391917452L140.74440061450403,126.93729612740194L140.96780477961303,122.05171242745234L141.19120894472204,122.06987384770476L141.414613109831,124.9362692650653L141.63801727494,125.2857760423093L141.861421440049,124.12249403058455L142.08482560515802,124.7307080025107L142.30822977026702,125.94224127255455L142.531633935376,130.70134539830173L142.755038100485,128.342142697429L142.978442265594,128.60150777837575L143.201846430703,129.163282498723L143.425250595812,129.3428478554516L143.648654760921,125.25571251969319L143.87205892602998,118.9537861571618L144.09546309113898,118.82644193244023L144.31886725624798,114.71080696370035L144.542271421357,113.71398145496376L144.765675586466,115.1322752202388L144.98907975157502,107.78686229573695L145.212483916684,117.9723025561151L145.435888081793,116.11653698099701L145.659292246902,110.93433680012535L145.882696412011,109.72610799880468L146.10610057712,113.67684659484095L146.329504742229,107.53317759276607L146.55290890733798,106.31177226940346L146.77631307244698,104.57306533717903L146.99971723755598,110.8325260811695L147.223121402665,113.6198736443286L147.446525567774,116.70139411085569L147.66992973288296,115.48610900942867L147.89333389799197,113.65683557434758L148.11673806310097,122.38908402262749L148.34014222820997,122.05515223277858L148.56354639331897,120.51390892302935L148.78695055842798,120.10093303832903L149.01035472353695,123.15525836635356L149.23375888864595,123.88198209030553L149.45716305375495,125.67337631394733L149.68056721886396,125.11007529746631L149.90397138397296,130.02762475117416L150.12737554908196,129.29505523784266L150.35077971419094,129.40816280379877L150.57418387929997,133.2217039185452L150.79758804440897,134.28729357933037L151.02099220951797,134.11323379079874L151.24439637462697,133.66241440848498L151.46780053973598,136.27819087286758L151.69120470484495,135.92306386724906L151.91460886995395,135.773086475351L152.13801303506295,133.24727689748678L152.36141720017196,134.7109685743677L152.58482136528096,135.6285451036734L152.80822553038993,137.16054981059295L153.03162969549894,134.57843832620625L153.25503386060794,135.88980677673717L153.47843802571694,136.03478235334939L153.70184219082594,118.96608299128425L153.92524635593495,91.90850662697119L154.14865052104392,70.44783562926841L154.37205468615292,51.251270812731285L154.59545885126192,22.42899536971788L154.81886301637093,-48.58030069823076L155.7124796768069,-29.89190978855322L155.9358838419159,13.883436246574455L156.15928800702494,40.02634769822134L156.38269217213394,49.15949323938389L156.60609633724295,50.59681307543051L156.82950050235192,40.46398867881813L157.05290466746092,45.41933087891334L157.27630883256992,40.42266590270255L157.49971299767893,63.453061046385606L157.72311716278793,86.38638977091797L157.94652132789693,91.95307748155874L158.1699254930059,93.45365214210689L158.3933296581149,90.9563234004737L158.6167338232239,90.98901470879807L158.8401379883329,98.56781936452117L159.06354215344192,96.81978172539002L159.2869463185509,87.87098719361212L159.5103504836599,51.47570401270404L159.7337546487689,-19.618733815931073L159.9571588138779,-71.85505359732804L160.1805629789869,97.24696419405507L160.4039671440959,109.68241307278655L160.62737130920488,126.77442980374332L160.85077547431388,135.80807850592632L161.07417963942288,133.0103119040114L161.29758380453188,135.21305609344245L161.52098796964088,136.5413604160986L161.74439213474992,130.78369772122642L161.9677962998589,132.8848811884822L162.1912004649679,133.59502993791693L162.4146046300769,129.30227319000258L162.6380087951859,131.5684131795633L162.8614129602949,128.91845106519824L163.0848171254039,128.91788716268576L163.30822129051288,121.14136324868181L163.53162545562188,126.40139701367805L163.75502962073088,122.32057362670949L163.97843378583988,120.72101903781825L164.20183795094889,121.74626523318457L164.42524211605786,116.0342636044241L164.64864628116686,121.00755670116706L164.87205044627586,110.46892925981334L165.09545461138487,113.62426832457598L165.31885877649387,114.72630676409378L165.54226294160287,114.65483400031016L165.76566710671185,116.30838413444779L165.98907127182085,118.30072313874192L166.21247543692985,116.54440365137725L166.43587960203885,111.88710272588571L166.65928376714785,117.18575253493758L166.88268793225686,113.10142919304147L167.10609209736583,116.7721450794233L167.32949626247486,112.76564028425143L167.55290042758386,115.90705471630554L167.77630459269287,111.17147284402955L167.99970875780187,114.13290463149579L168.22311292291087,112.72937007464776L168.44651708801985,107.98614920300254L168.66992125312885,111.32020401137495L168.89332541823785,113.20741654993981L169.11672958334685,115.30702484951073L169.34013374845586,114.84732024327508L169.56353791356483,112.53320718730141L169.78694207867383,114.2528128617526L170.01034624378283,109.60316973238076L170.23375040889184,109.1085182077708L170.45715457400084,114.77311443198091L170.68055873910984,112.2980974330921L170.90396290421882,109.33248900768331L171.12736706932782,105.68230293210635L171.35077123443682,104.65015081063702L171.57417539954582,100.42051730997127L171.79757956465482,102.1462657624586L172.02098372976383,104.64060958012561L172.2443878948728,104.42781156866066L172.4677920599818,102.02998154568209L172.6911962250908,104.01414020419497L172.91460039019984,105.93464930644758L173.13800455530884,102.72766429024061L173.36140872041784,101.76659396014622L173.58481288552682,109.54532085329899L173.80821705063582,107.80889208722505L174.03162121574482,115.55849905463263L174.25502538085382,117.56619124466692L174.47842954596283,117.47254207474197L174.70183371107183,113.93270796151006L174.9252378761808,114.75651690136314L175.1486420412898,113.63230957440416L175.3720462063988,115.2716756806775L175.5954503715078,121.59513935983608L175.8188545366168,121.82148230965116L176.04225870172579,121.021906140435L176.2656628668348,116.51919344971867L176.4890670319438,121.02518805305772L176.7124711970528,121.4561449092064L176.9358753621618,121.64802589680791L177.1592795272708,114.94916103703156L177.38268369237977,121.91087965463194L177.60608785748877,121.14701355185699L177.82949202259778,121.22787341279862L178.05289618770678,120.76254481883834L178.27630035281578,117.72807637795383L178.4997045179248,124.43560653967215L178.7231086830338,118.85400172790085L178.9465128481428,120.8765659068647L179.1699170132518,122.48377077317542L179.3933211783608,124.6485624438406L179.6167253434698,119.09840835486617L179.8401295085788,122.4867782532421L180.06353367368777,122.3736857246863L180.28693783879677,122.12473404347028L180.51034200390578,124.67411474635676L180.73374616901478,124.3194238253479L180.95715033412378,124.4149376329142L181.18055449923276,119.89667627025335L181.40395866434176,126.08993861862709L181.62736282945076,123.62624478218916L181.85076699455976,123.34093642631761L182.07417115966877,121.52461771162355L182.29757532477777,121.86541783407465L182.52097948988674,122.81249586315899L182.74438365499574,128.462960690406L182.96778782010475,124.68347552806418L183.19119198521375,128.01529352313705L183.41459615032275,125.9857519904186L183.63800031543175,127.76842828121727L183.86140448054073,130.2727870075062L184.08480864564976,131.01749546225668L184.30821281075876,127.06671551336947L184.53161697586776,128.29539893849335L184.75502114097677,130.72925481332013L184.97842530608577,131.59567974571743L185.20182947119474,123.13833377227856L185.42523363630374,127.72069957255975L185.64863780141275,128.3075115644617L185.87204196652175,127.5111195647661L186.09544613163075,126.43732136307402L186.31885029673973,128.21077220876825L186.54225446184873,127.68192187645057L186.76565862695773,131.1570425373486L186.98906279206673,129.25670610764294L187.21246695717574,126.79553855446103L187.43587112228474,123.41404826673752L187.6592752873937,129.61064139928507L187.8826794525027,125.07785766725246L188.10608361761172,123.56562150274596L188.32948778272072,125.0644142313546L188.55289194782972,127.67876026303051L188.77629611293872,125.9580305429044L188.9997002780477,125.10757532966092L189.2231044431567,124.90739369707552L189.4465086082657,123.58592199319575L189.66991277337473,128.03972553932837L189.89331693848374,124.80611680583154L190.11672110359274,124.93768654004668L190.3401252687017,130.42013849337104L190.56352943381071,124.29811582907575L190.78693359891972,122.51418015599921L191.01033776402872,127.98462850450763L191.23374192913772,130.8796588914526L191.45714609424672,128.80459914792564L191.6805502593557,132.29483615550862L191.9039544244647,129.55859695673192L192.1273585895737,125.64929015796368L192.3507627546827,128.6638866743079L192.5741669197917,129.9513851314849L192.79757108490068,130.71692790439698L193.02097525000968,130.40310863749374L193.2443794151187,124.1181557405884L193.4677835802277,125.6267115013634L193.6911877453367,126.45125351448273L193.9145919104457,130.48497976360773L194.13799607555467,127.99627497106566L194.36140024066367,127.5432356925277L194.58480440577267,127.93113295282231L194.80820857088167,125.06888409860363L195.03161273599068,126.45618954114208L195.2550169010997,128.07855962568885L195.47842106620868,125.69413544510729L195.70182523131768,125.12351873336418L195.9252293964267,128.18267482624572L196.1486335615357,124.7586775671304L196.3720377266447,123.19749842388944L196.5954418917537,121.6040490195335L196.81884605686267,121.21000146250262L197.04225022197167,121.81840340193294L197.26565438708067,127.38755724622835L197.48905855218968,126.38732576631625L197.71246271729868,128.5734291926036L197.93586688240765,124.64725043066154L198.15927104751665,125.85624238004908L198.38267521262566,127.41667717197355L198.60607937773466,129.71798588156352L198.82948354284366,131.4297570704411L199.05288770795266,131.75978665490356L199.27629187306164,129.18373712252617L199.49969603817064,127.79356705522427L199.72310020327964,130.01685045383545L199.94650436838864,130.89897443218058L200.16990853349765,130.23224241685787L200.39331269860665,132.55090616610732L200.61671686371562,131.39220868180914L200.84012102882465,131.61558174505842L201.06352519393366,130.38099989965386L201.28692935904266,131.02209314740853L201.51033352415166,133.18238487602397L201.73373768926066,130.89451208363172L201.95714185436964,132.46203513013825L202.18054601947864,129.64467479558914L202.40395018458764,129.68891106801928L202.62735434969665,130.50372012377295L202.85075851480565,130.9878266713993L203.07416267991462,131.33091999740117L203.29756684502362,126.75141882188346L203.52097101013263,130.95777066748335L203.74437517524163,131.12107307575164L203.96777934035063,132.40409790632953L204.19118350545963,128.63057131386972L204.4145876705686,128.67459330334512L204.6379918356776,125.21915284013313L204.8613960007866,130.63344401709725L205.08480016589562,130.45841619591917L205.30820433100462,131.52940616309903L205.53160849611362,131.42323835739668L205.7550126612226,132.76714962192364L205.9784168263316,134.38194461605255L206.2018209914406,133.24596864365782L206.42522515654963,132.63277541254632L206.64862932165863,129.53063491081238L206.87203348676763,130.71001445959382L207.0954376518766,131.4448170268748L207.3188418169856,130.3389102161213L207.5422459820946,132.51856259766572L207.76565014720362,132.6179748512684L207.98905431231262,132.58751659689352L208.21245847742162,131.7555273112592L208.4358626425306,131.73183212768416L208.6592668076396,133.13744372545324L208.8826709727486,132.02621179530672L209.1060751378576,131.19910590543057L209.3294793029666,134.88540429790768L209.55288346807558,134.66348422346562L209.77628763318458,133.80019834838785L209.99969179829358,134.24670575615608L210.22309596340259,133.25548355871862L210.4465001285116,134.4225211611766L210.6699042936206,129.83175509313426L210.89330845872956,133.3042799227998L211.11671262383857,132.51260966680883L211.34011678894757,135.2250277437827L211.56352095405657,131.68315230345556L211.78692511916557,133.43360908436534L212.0103292842746,130.19332562479556L212.23373344938358,129.93619359779834L212.45713761449258,130.4205069096792L212.68054177960158,127.33381357743752L212.90394594471059,129.8953971306944L213.1273501098196,129.60848353233726L213.3507542749286,131.02628482275142L213.57415844003756,131.45539959735927L213.79756260514657,132.44054480538708L214.02096677025557,132.4935178074108L214.24437093536457,131.45844091157664L214.46777510047357,128.30132743357467L214.69117926558255,133.83764899391764L214.91458343069155,134.40826570566074L215.13798759580055,128.4916971624427L215.36139176090956,134.36330763801462L215.58479592601856,130.67919530761097L215.80820009112756,132.55851697035098L216.03160425623653,132.77243526814075L216.25500842134554,130.7509763381014L216.47841258645454,132.52268096568196L216.70181675156354,133.22875269995134L216.92522091667254,130.33689520447663L217.14862508178155,130.8649034423757L217.37202924689052,131.79140278910407L217.59543341199955,133.25374109995502L217.81883757710855,128.5050654113389L218.04224174221756,132.59077219406566L218.26564590732656,128.38743910658266L218.48905007243556,129.818969543501L218.71245423754453,128.0919767461361L218.93585840265354,128.49455802785607L219.15926256776254,130.85138857882623L219.38266673287154,133.87103014298225L219.60607089798054,129.58512293091965L219.82947506308952,132.70324255018267L220.05287922819852,133.35436574395956L220.27628339330752,132.9321023848785L220.49968755841653,136.75615840180788L220.72309172352553,134.35757650881263L220.94649588863453,136.33321835971182L221.1699000537435,135.86769803889732L221.3933042188525,136.02015660185032L221.6167083839615,136.88688792127942L221.8401125490705,135.49761633864742L222.0635167141795,133.48880198261324L222.28692087928852,137.40187752984002L222.5103250443975,135.50649028451906L222.7337292095065,135.87728438160968L222.9571333746155,137.31028284473558L223.18053753972453,133.57775384460916L223.40394170483353,130.1754499151495L223.62734586994253,136.28292953364758L223.8507500350515,135.8914646501239L224.0741542001605,133.89426292649702L224.2975583652695,132.36316610262259L224.5209625303785,134.78216502592022L224.7443666954875,131.81632352080624L224.96777086059652,132.05696703833817L225.1911750257055,132.6561717277897L225.4145791908145,131.67805086539255L225.6379833559235,135.82482077152227L225.8613875210325,134.96720963539525L226.0847916861415,129.95569710603044L226.30819585125047,131.9132884375047L226.53160001635948,132.70351698273873L226.75500418146848,131.65952854753215L226.97840834657748,131.18662486315407L227.20181251168648,132.14836811691333L227.4252166767955,131.55413892729703L227.64862084190446,126.39757751399341L227.87202500701346,132.73502409578683L228.09542917212246,130.29295592070306L228.31883333723147,128.57358332595703L228.54223750234047,130.40134926165473L228.7656416674495,126.82577124783089L228.98904583255847,129.53445816984708L229.21244999766748,129.11742218705683L229.43585416277648,129.52063128024074L229.65925832788548,124.97091543543296L229.88266249299448,127.01880635590794L230.1060666581035,126.34263837187613L230.32947082321246,128.87891022102215L230.55287498832146,128.21253158460726L230.77627915343047,126.30467645473503L230.99968331853947,130.4897654162638L231.22308748364847,123.22405447287787L231.44649164875744,127.84252131200896L231.66989581386645,127.47748465957085L231.89329997897545,130.03307580879493L232.11670414408445,129.55120607446815L232.34010830919345,130.75668679087792L232.56351247430246,124.93397230216442L232.78691663941143,130.83496021896224L233.01032080452043,132.81307948156632L233.23372496962944,126.77529821361256L233.45712913473844,131.70714071633708L233.68053329984744,133.09761153164567L233.90393746495644,131.37019392772137L234.12734163006542,135.05096795525105L234.35074579517445,134.42378242312955L234.57414996028345,133.04961778880727L234.79755412539245,132.77247098196653L235.02095829050145,136.03273162787895L235.24436245561046,133.93279250550071L235.46776662071943,134.48075161429182L235.69117078582843,135.94143393143108L235.91457495093744,135.22188116776297L236.13797911604644,130.97281558651667L236.36138328115544,135.99818695996353L236.58478744626441,136.1650720288612L236.80819161137342,132.86863139774718L237.03159577648242,138.486728220777L237.25499994159142,134.36300125098282L237.47840410670042,130.5168740897144L237.70180827180943,130.82965201664462L237.9252124369184,132.06291057081984L238.1486166020274,133.38725817751333L238.3720207671364,134.00636862565594L238.5954249322454,130.92125610012428L238.8188290973544,130.3393838942318L239.0422332624634,127.77480413895854L239.2656374275724,134.34665559682065L239.4890415926814,131.85236816940488L239.7124457577904,129.82634162901434L239.93584992289942,133.2631770686641L240.15925408800842,133.60775533794887L240.38265825311743,131.9358370193043L240.6060624182264,134.88061112655149L240.8294665833354,134.0527364495833L241.0528707484444,135.56793310228042L241.2762749135534,133.0462306143822L241.4996790786624,136.35433274945464L241.7230832437714,137.54354863772903L241.9464874088804,138.03314759582705L242.1698915739894,137.88248412253878L242.3932957390984,139.04889955255797L242.6166999042074,135.9138365424696L242.8401040693164,137.1065016344454L243.06350823442537,138.56162387281145L243.28691239953437,136.93336288668417L243.51031656464338,138.61125481261112L243.73372072975238,136.91707362277324L243.95712489486138,136.7878121295092L244.18052905997038,138.43376273745343L244.40393322507936,135.3148649327232L244.62733739018836,137.11515189898705L244.85074155529736,135.40456302571064L245.07414572040636,137.1646963737348L245.29754988551537,139.54481985782107L245.5209540506244,137.0259575589108L245.74435821573337,137.8593453227761" fill="none"></path></g></g></g></g></g></g><g transform="translate(61, 176)" clip-path="url(#clip_1)"><clipPath id="clip_1"><rect width="268" height="23"></rect></clipPath><g><g><line x1="0" y1="0" x2="0" y2="5" style="visibility: inherit;" fill="rgb(0, 0, 0)" stroke="rgb(204, 204, 204)" stroke-width="1px"></line><line x1="22.34041651089986" y1="0" x2="22.34041651089986" y2="5" style="visibility: inherit;" fill="rgb(0, 0, 0)" stroke="rgb(204, 204, 204)" stroke-width="1px"></line><line x1="44.68083302179972" y1="0" x2="44.68083302179972" y2="5" style="visibility: inherit;" fill="rgb(0, 0, 0)" stroke="rgb(204, 204, 204)" stroke-width="1px"></line><line x1="67.02124953269958" y1="0" x2="67.02124953269958" y2="5" style="visibility: inherit;" fill="rgb(0, 0, 0)" stroke="rgb(204, 204, 204)" stroke-width="1px"></line><line x1="89.36166604359944" y1="0" x2="89.36166604359944" y2="5" style="visibility: inherit;" fill="rgb(0, 0, 0)" stroke="rgb(204, 204, 204)" stroke-width="1px"></line><line x1="111.70208255449931" y1="0" x2="111.70208255449931" y2="5" style="visibility: inherit;" fill="rgb(0, 0, 0)" stroke="rgb(204, 204, 204)" stroke-width="1px"></line><line x1="134.04249906539917" y1="0" x2="134.04249906539917" y2="5" style="visibility: inherit;" fill="rgb(0, 0, 0)" stroke="rgb(204, 204, 204)" stroke-width="1px"></line><line x1="156.38291557629904" y1="0" x2="156.38291557629904" y2="5" style="visibility: inherit;" fill="rgb(0, 0, 0)" stroke="rgb(204, 204, 204)" stroke-width="1px"></line><line x1="178.72333208719888" y1="0" x2="178.72333208719888" y2="5" style="visibility: inherit;" fill="rgb(0, 0, 0)" stroke="rgb(204, 204, 204)" stroke-width="1px"></line><line x1="201.06374859809875" y1="0" x2="201.06374859809875" y2="5" style="visibility: inherit;" fill="rgb(0, 0, 0)" stroke="rgb(204, 204, 204)" stroke-width="1px"></line><line x1="223.40416510899863" y1="0" x2="223.40416510899863" y2="5" style="visibility: inherit;" fill="rgb(0, 0, 0)" stroke="rgb(204, 204, 204)" stroke-width="1px"></line><line x1="245.74458161989847" y1="0" x2="245.74458161989847" y2="5" style="visibility: inherit;" fill="rgb(0, 0, 0)" stroke="rgb(204, 204, 204)" stroke-width="1px"></line><line x1="268.08499813079834" y1="0" x2="268.08499813079834" y2="5" style="visibility: inherit;" fill="rgb(0, 0, 0)" stroke="rgb(204, 204, 204)" stroke-width="1px"></line></g><g transform="translate(0, 8)"><text style="text-anchor: middle; visibility: hidden; font-family: Roboto, sans-serif; font-size: 12px; font-weight: 200;" x="0" y="0" dx="0em" dy="0.95em" fill="rgb(33, 33, 33)" stroke="none" stroke-width="1px">-100k</text><text style="text-anchor: middle; visibility: inherit; font-family: Roboto, sans-serif; font-size: 12px; font-weight: 200;" x="22.34041651089986" y="0" dx="0em" dy="0.95em" fill="rgb(33, 33, 33)" stroke="none" stroke-width="1px">0</text><text style="text-anchor: middle; visibility: hidden; font-family: Roboto, sans-serif; font-size: 12px; font-weight: 200;" x="44.68083302179972" y="0" dx="0em" dy="0.95em" fill="rgb(33, 33, 33)" stroke="none" stroke-width="1px">100k</text><text style="text-anchor: middle; visibility: inherit; font-family: Roboto, sans-serif; font-size: 12px; font-weight: 200;" x="67.02124953269958" y="0" dx="0em" dy="0.95em" fill="rgb(33, 33, 33)" stroke="none" stroke-width="1px">200k</text><text style="text-anchor: middle; visibility: hidden; font-family: Roboto, sans-serif; font-size: 12px; font-weight: 200;" x="89.36166604359944" y="0" dx="0em" dy="0.95em" fill="rgb(33, 33, 33)" stroke="none" stroke-width="1px">300k</text><text style="text-anchor: middle; visibility: inherit; font-family: Roboto, sans-serif; font-size: 12px; font-weight: 200;" x="111.70208255449931" y="0" dx="0em" dy="0.95em" fill="rgb(33, 33, 33)" stroke="none" stroke-width="1px">400k</text><text style="text-anchor: middle; visibility: hidden; font-family: Roboto, sans-serif; font-size: 12px; font-weight: 200;" x="134.04249906539917" y="0" dx="0em" dy="0.95em" fill="rgb(33, 33, 33)" stroke="none" stroke-width="1px">500k</text><text style="text-anchor: middle; visibility: inherit; font-family: Roboto, sans-serif; font-size: 12px; font-weight: 200;" x="156.38291557629904" y="0" dx="0em" dy="0.95em" fill="rgb(33, 33, 33)" stroke="none" stroke-width="1px">600k</text><text style="text-anchor: middle; visibility: hidden; font-family: Roboto, sans-serif; font-size: 12px; font-weight: 200;" x="178.72333208719888" y="0" dx="0em" dy="0.95em" fill="rgb(33, 33, 33)" stroke="none" stroke-width="1px">700k</text><text style="text-anchor: middle; visibility: inherit; font-family: Roboto, sans-serif; font-size: 12px; font-weight: 200;" x="201.06374859809875" y="0" dx="0em" dy="0.95em" fill="rgb(33, 33, 33)" stroke="none" stroke-width="1px">800k</text><text style="text-anchor: middle; visibility: hidden; font-family: Roboto, sans-serif; font-size: 12px; font-weight: 200;" x="223.40416510899863" y="0" dx="0em" dy="0.95em" fill="rgb(33, 33, 33)" stroke="none" stroke-width="1px">900k</text><text style="text-anchor: middle; visibility: inherit; font-family: Roboto, sans-serif; font-size: 12px; font-weight: 200;" x="245.74458161989847" y="0" dx="0em" dy="0.95em" fill="rgb(33, 33, 33)" stroke="none" stroke-width="1px">1M</text><text style="text-anchor: middle; visibility: hidden; font-family: Roboto, sans-serif; font-size: 12px; font-weight: 200;" x="268.08499813079834" y="0" dx="0em" dy="0.95em" fill="rgb(33, 33, 33)" stroke="none" stroke-width="1px">1.1M</text></g><line x1="0" y1="0" x2="268.08499813079834" y2="0" fill="rgb(0, 0, 0)" stroke="rgb(204, 204, 204)" stroke-width="1px"></line></g></g></g></g></svg>