<svg viewBox="0 0 330 200" xmlns="http://www.w3.org/2000/svg"><g><g><g><g><g><line x1="51.53200149536133" y1="176.5999994277954" x2="46.53200149536133" y2="176.5999994277954" style="visibility: inherit;" fill="rgb(0, 0, 0)" stroke="rgb(204, 204, 204)" stroke-width="1px"></line><line x1="51.53200149536133" y1="161.88333280881244" x2="46.53200149536133" y2="161.88333280881244" style="visibility: inherit;" fill="rgb(0, 0, 0)" stroke="rgb(204, 204, 204)" stroke-width="1px"></line><line x1="51.53200149536133" y1="147.16666618982953" x2="46.53200149536133" y2="147.16666618982953" style="visibility: inherit;" fill="rgb(0, 0, 0)" stroke="rgb(204, 204, 204)" stroke-width="1px"></line><line x1="51.53200149536133" y1="132.44999957084656" x2="46.53200149536133" y2="132.44999957084656" style="visibility: inherit;" fill="rgb(0, 0, 0)" stroke="rgb(204, 204, 204)" stroke-width="1px"></line><line x1="51.53200149536133" y1="117.73333295186362" x2="46.53200149536133" y2="117.73333295186362" style="visibility: inherit;" fill="rgb(0, 0, 0)" stroke="rgb(204, 204, 204)" stroke-width="1px"></line><line x1="51.53200149536133" y1="103.01666633288069" x2="46.53200149536133" y2="103.01666633288069" style="visibility: inherit;" fill="rgb(0, 0, 0)" stroke="rgb(204, 204, 204)" stroke-width="1px"></line><line x1="51.53200149536133" y1="88.2999997138977" x2="46.53200149536133" y2="88.2999997138977" style="visibility: inherit;" fill="rgb(0, 0, 0)" stroke="rgb(204, 204, 204)" stroke-width="1px"></line><line x1="51.53200149536133" y1="73.58333309491475" x2="46.53200149536133" y2="73.58333309491475" style="visibility: inherit;" fill="rgb(0, 0, 0)" stroke="rgb(204, 204, 204)" stroke-width="1px"></line><line x1="51.53200149536133" y1="58.86666647593181" x2="46.53200149536133" y2="58.86666647593181" style="visibility: inherit;" fill="rgb(0, 0, 0)" stroke="rgb(204, 204, 204)" stroke-width="1px"></line><line x1="51.53200149536133" y1="44.14999985694885" x2="46.53200149536133" y2="44.14999985694885" style="visibility: inherit;" fill="rgb(0, 0, 0)" stroke="rgb(204, 204, 204)" stroke-width="1px"></line><line x1="51.53200149536133" y1="29.433333237965915" x2="46.53200149536133" y2="29.433333237965915" style="visibility: inherit;" fill="rgb(0, 0, 0)" stroke="rgb(204, 204, 204)" stroke-width="1px"></line><line x1="51.53200149536133" y1="14.716666618982957" x2="46.53200149536133" y2="14.716666618982957" style="visibility: inherit;" fill="rgb(0, 0, 0)" stroke="rgb(204, 204, 204)" stroke-width="1px"></line><line x1="51.53200149536133" y1="0" x2="46.53200149536133" y2="0" style="visibility: inherit;" fill="rgb(0, 0, 0)" stroke="rgb(204, 204, 204)" stroke-width="1px"></line></g><g transform="translate(41.53200149536133, 0)"><text style="text-anchor: end; visibility: hidden; font-family: Roboto, sans-serif; font-size: 12px; font-weight: 200;" x="0" y="176.5999994277954" dx="0em" dy="0.3em" fill="rgb(33, 33, 33)" stroke="none" stroke-width="1px">0.01</text><text style="text-anchor: end; visibility: inherit; font-family: Roboto, sans-serif; font-size: 12px; font-weight: 200;" x="0" y="161.88333280881244" dx="0em" dy="0.3em" fill="rgb(33, 33, 33)" stroke="none" stroke-width="1px">0.02</text><text style="text-anchor: end; visibility: hidden; font-family: Roboto, sans-serif; font-size: 12px; font-weight: 200;" x="0" y="147.16666618982953" dx="0em" dy="0.3em" fill="rgb(33, 33, 33)" stroke="none" stroke-width="1px">0.03</text><text style="text-anchor: end; visibility: inherit; font-family: Roboto, sans-serif; font-size: 12px; font-weight: 200;" x="0" y="132.44999957084656" dx="0em" dy="0.3em" fill="rgb(33, 33, 33)" stroke="none" stroke-width="1px">0.04</text><text style="text-anchor: end; visibility: hidden; font-family: Roboto, sans-serif; font-size: 12px; font-weight: 200;" x="0" y="117.73333295186362" dx="0em" dy="0.3em" fill="rgb(33, 33, 33)" stroke="none" stroke-width="1px">0.05</text><text style="text-anchor: end; visibility: inherit; font-family: Roboto, sans-serif; font-size: 12px; font-weight: 200;" x="0" y="103.01666633288069" dx="0em" dy="0.3em" fill="rgb(33, 33, 33)" stroke="none" stroke-width="1px">0.06</text><text style="text-anchor: end; visibility: hidden; font-family: Roboto, sans-serif; font-size: 12px; font-weight: 200;" x="0" y="88.2999997138977" dx="0em" dy="0.3em" fill="rgb(33, 33, 33)" stroke="none" stroke-width="1px">0.07</text><text style="text-anchor: end; visibility: inherit; font-family: Roboto, sans-serif; font-size: 12px; font-weight: 200;" x="0" y="73.58333309491475" dx="0em" dy="0.3em" fill="rgb(33, 33, 33)" stroke="none" stroke-width="1px">0.08</text><text style="text-anchor: end; visibility: hidden; font-family: Roboto, sans-serif; font-size: 12px; font-weight: 200;" x="0" y="58.86666647593181" dx="0em" dy="0.3em" fill="rgb(33, 33, 33)" stroke="none" stroke-width="1px">0.09</text><text style="text-anchor: end; visibility: inherit; font-family: Roboto, sans-serif; font-size: 12px; font-weight: 200;" x="0" y="44.14999985694885" dx="0em" dy="0.3em" fill="rgb(33, 33, 33)" stroke="none" stroke-width="1px">0.1</text><text style="text-anchor: end; visibility: hidden; font-family: Roboto, sans-serif; font-size: 12px; font-weight: 200;" x="0" y="29.433333237965915" dx="0em" dy="0.3em" fill="rgb(33, 33, 33)" stroke="none" stroke-width="1px">0.11</text><text style="text-anchor: end; visibility: inherit; font-family: Roboto, sans-serif; font-size: 12px; font-weight: 200;" x="0" y="14.716666618982957" dx="0em" dy="0.3em" fill="rgb(33, 33, 33)" stroke="none" stroke-width="1px">0.12</text><text style="text-anchor: end; visibility: hidden; font-family: Roboto, sans-serif; font-size: 12px; font-weight: 200;" x="0" y="0" dx="0em" dy="0.3em" fill="rgb(33, 33, 33)" stroke="none" stroke-width="1px">0.13</text></g><line x1="51.53200149536133" y1="0" x2="51.53200149536133" y2="176.5999994277954" fill="rgb(0, 0, 0)" stroke="rgb(204, 204, 204)" stroke-width="1px"></line></g></g><g transform="translate(51, 0)" clip-path="url(#clip_0)"><clipPath id="clip_0"><rect width="278" height="176"></rect></clipPath><g><g><g><line x1="0" y1="0" x2="0" y2="176.5999994277954" fill="rgb(0, 0, 0)" stroke="rgb(66, 66, 66)" stroke-width="1px" opacity="0.25"></line><line x1="23.205666542053223" y1="0" x2="23.205666542053223" y2="176.5999994277954" fill="rgb(0, 0, 0)" stroke="rgb(66, 66, 66)" stroke-width="1px" opacity="0.25"></line><line x1="46.411333084106445" y1="0" x2="46.411333084106445" y2="176.5999994277954" fill="rgb(0, 0, 0)" stroke="rgb(66, 66, 66)" stroke-width="1px" opacity="0.25"></line><line x1="69.61699962615967" y1="0" x2="69.61699962615967" y2="176.5999994277954" fill="rgb(0, 0, 0)" stroke="rgb(66, 66, 66)" stroke-width="1px" opacity="0.25"></line><line x1="92.82266616821289" y1="0" x2="92.82266616821289" y2="176.5999994277954" fill="rgb(0, 0, 0)" stroke="rgb(66, 66, 66)" stroke-width="1px" opacity="0.25"></line><line x1="116.02833271026611" y1="0" x2="116.02833271026611" y2="176.5999994277954" fill="rgb(0, 0, 0)" stroke="rgb(66, 66, 66)" stroke-width="1px" opacity="0.25"></line><line x1="139.23399925231934" y1="0" x2="139.23399925231934" y2="176.5999994277954" fill="rgb(0, 0, 0)" stroke="rgb(66, 66, 66)" stroke-width="1px" opacity="0.25"></line><line x1="162.43966579437256" y1="0" x2="162.43966579437256" y2="176.5999994277954" fill="rgb(0, 0, 0)" stroke="rgb(66, 66, 66)" stroke-width="1px" opacity="0.25"></line><line x1="185.64533233642578" y1="0" x2="185.64533233642578" y2="176.5999994277954" fill="rgb(0, 0, 0)" stroke="rgb(66, 66, 66)" stroke-width="1px" opacity="0.25"></line><line x1="208.850998878479" y1="0" x2="208.850998878479" y2="176.5999994277954" fill="rgb(0, 0, 0)" stroke="rgb(66, 66, 66)" stroke-width="1px" opacity="0.25"></line><line x1="232.05666542053223" y1="0" x2="232.05666542053223" y2="176.5999994277954" fill="rgb(0, 0, 0)" stroke="rgb(66, 66, 66)" stroke-width="1px" opacity="0.25"></line><line x1="255.26233196258545" y1="0" x2="255.26233196258545" y2="176.5999994277954" fill="rgb(0, 0, 0)" stroke="rgb(66, 66, 66)" stroke-width="1px" opacity="0.25"></line><line x1="278.4679985046387" y1="0" x2="278.4679985046387" y2="176.5999994277954" fill="rgb(0, 0, 0)" stroke="rgb(66, 66, 66)" stroke-width="1px" opacity="0.25"></line></g><g><line x1="0" y1="176.5999994277954" x2="278.4679985046387" y2="176.5999994277954" fill="rgb(0, 0, 0)" stroke="rgb(66, 66, 66)" stroke-width="1px" opacity="0.25"></line><line x1="0" y1="161.88333280881244" x2="278.4679985046387" y2="161.88333280881244" fill="rgb(0, 0, 0)" stroke="rgb(66, 66, 66)" stroke-width="1px" opacity="0.25"></line><line x1="0" y1="147.16666618982953" x2="278.4679985046387" y2="147.16666618982953" fill="rgb(0, 0, 0)" stroke="rgb(66, 66, 66)" stroke-width="1px" opacity="0.25"></line><line x1="0" y1="132.44999957084656" x2="278.4679985046387" y2="132.44999957084656" fill="rgb(0, 0, 0)" stroke="rgb(66, 66, 66)" stroke-width="1px" opacity="0.25"></line><line x1="0" y1="117.73333295186362" x2="278.4679985046387" y2="117.73333295186362" fill="rgb(0, 0, 0)" stroke="rgb(66, 66, 66)" stroke-width="1px" opacity="0.25"></line><line x1="0" y1="103.01666633288069" x2="278.4679985046387" y2="103.01666633288069" fill="rgb(0, 0, 0)" stroke="rgb(66, 66, 66)" stroke-width="1px" opacity="0.25"></line><line x1="0" y1="88.2999997138977" x2="278.4679985046387" y2="88.2999997138977" fill="rgb(0, 0, 0)" stroke="rgb(66, 66, 66)" stroke-width="1px" opacity="0.25"></line><line x1="0" y1="73.58333309491475" x2="278.4679985046387" y2="73.58333309491475" fill="rgb(0, 0, 0)" stroke="rgb(66, 66, 66)" stroke-width="1px" opacity="0.25"></line><line x1="0" y1="58.86666647593181" x2="278.4679985046387" y2="58.86666647593181" fill="rgb(0, 0, 0)" stroke="rgb(66, 66, 66)" stroke-width="1px" opacity="0.25"></line><line x1="0" y1="44.14999985694885" x2="278.4679985046387" y2="44.14999985694885" fill="rgb(0, 0, 0)" stroke="rgb(66, 66, 66)" stroke-width="1px" opacity="0.25"></line><line x1="0" y1="29.433333237965915" x2="278.4679985046387" y2="29.433333237965915" fill="rgb(0, 0, 0)" stroke="rgb(66, 66, 66)" stroke-width="1px" opacity="0.25"></line><line x1="0" y1="14.716666618982957" x2="278.4679985046387" y2="14.716666618982957" fill="rgb(0, 0, 0)" stroke="rgb(66, 66, 66)" stroke-width="1px" opacity="0.25"></line><line x1="0" y1="0" x2="278.4679985046387" y2="0" fill="rgb(0, 0, 0)" stroke="rgb(66, 66, 66)" stroke-width="1px" opacity="0.25"></line></g></g></g><g><g><line x1="0" y1="191.31666604677835" x2="278.4679985046387" y2="191.31666604677835" fill="rgb(0, 0, 0)" stroke="rgb(153, 153, 153)" stroke-width="1.5px"></line></g></g><g><g><line x1="23.205666542053223" y1="0" x2="23.205666542053223" y2="176.5999994277954" fill="rgb(0, 0, 0)" stroke="rgb(153, 153, 153)" stroke-width="1.5px"></line></g></g><g><g><g><g><g><path style="fill: none;" stroke="rgb(0, 119, 187)" stroke-width="2px" d="M23.437491150808334,167.39963578296997L23.669547816228867,167.01866024327003L23.9016044816494,166.10461812746112L24.13366114706993,164.06369845329996L24.365717812490463,161.80788061313515L24.597774477910995,160.09974006267473L24.82983114333153,158.4696776663515L25.06188780875206,156.89747976912662L25.29394447417259,155.88492350217672L25.526001139593124,155.10177339754864L25.758057805013653,154.1680208135289L25.99011447043419,153.3300591305749L26.222171135854722,152.56533754418786L26.454227801275252,151.77014678143996L26.686284466695785,150.5554634858054L26.91834113211632,150.2043836606473L27.15039779753685,150.0743944702111L27.382454462957384,149.79767645077686L27.614511128377913,148.77243081454503L27.846567793798446,147.70636337728166L28.07862445921898,147.16756811697599L28.310681124639512,145.18007663309047L28.542737790060045,144.20426125443007L28.774794455480574,142.566546490629L29.006851120901107,140.61660870850932L29.23890778632164,138.3397879775906L29.47096445174217,136.62393216930377L29.703021117162706,133.2156972292292L29.93507778258324,130.339811609152L30.167134448003768,127.29333764378536L30.3991911134243,124.1534959991244L30.63124777884483,120.81259268838205L30.863304444265367,117.88601509721995L31.0953611096859,114.89555173730761L31.32741777510643,111.70810983165018L31.559474440526962,108.39276702833484L31.79153110594749,105.6059785000297L32.02358777136803,101.98273396819663L32.25564443678856,99.01932256366523L32.48770110220909,95.25003921151145L32.71975776762962,92.99652858421928L32.95181443305015,90.50198009682033L33.18387109847069,86.18141880273686L33.41592776389122,82.62009977356215L33.64798442931175,78.93036268570042L33.880041094732285,77.09016186962707L34.11209776015282,74.73255268731658L34.34415442557335,70.57230748401001L34.57621109099388,68.371593299302L34.80826775641441,67.015942352534L35.04032442183495,65.34993160255657L35.27238108725548,62.30848054531506L35.50443775267601,59.81861291171022L35.73649441809654,59.957072216627644L35.96855108351708,58.41085734427662L36.20060774893761,57.025520984195566L36.432664414358136,56.69451800878451L36.66472107977867,54.353628100573275L36.8967777451992,54.865177142524736L37.12883441061973,54.671045675861556L37.36089107604027,53.569196814197156L37.592947741460804,52.30627757381347L37.825004406881334,51.38279464726977L38.05706107230186,51.26830793658575L38.2891177377224,48.274719420852165L38.52117440314293,47.02297523837607L38.75323106856346,46.64709195595677L38.985287733983995,45.333067022145265L39.217344399404524,46.593613953908765L39.449401064825054,45.24145203139178L39.68145773024559,44.4426378269852L39.91351439566612,42.141645009490624L40.145571061086656,40.40871130489575L40.37762772650719,37.25149672879471L40.60968439192772,35.99697638574149L40.84174105734825,33.74767436948291L41.07379772276878,30.743548702361895L41.30585438818932,29.397771897083153L41.53791105360985,26.671757197024316L41.769967719030376,25.14902690778051L42.00202438445091,23.24349187894253L42.23408104987144,21.5425683294663L42.46613771529197,21.237017672018013L42.698194380712515,20.942794893053662L42.930251046133044,19.05965279330776L43.162307711553574,17.802258717442914L43.39436437697411,17.918793920360113L43.62642104239464,16.428165281783315L43.85847770781517,15.239690829415549L44.0905343732357,15.036077086541694L44.322591038656235,14.229782096465934L44.554647704076764,12.678665666994812L44.78670436949729,15.399728084791546L45.01876103491784,14.134771461826398L45.25081770033837,14.056213003615644L45.482874365758896,16.092429118638194L45.71493103117943,17.485352418467606L45.94698769659996,16.360083934187642L46.17904436202049,17.874237178060692L46.41110102744103,18.02425984374317L46.64315769286156,18.130251841115076L46.875214358282086,17.897363126571932L47.107271023702616,18.36721914348879L47.33932768912315,19.151664485066153L47.57138435454369,19.215089865254903L47.80344101996422,19.399949056262397L48.035497685384755,19.68407368969344L48.267554350805284,20.253358027452077L48.49961101622581,19.938361208635662L48.73166768164635,19.815590159585053L48.96372434706688,20.549038048770555L49.19578101248741,20.432577345989987L49.427837677907945,20.511220167670693L49.659894343328475,21.502968954711754L49.891951008749004,23.652471134477345L50.12400767416954,24.761951349466546L50.35606433959008,26.17566690382797L50.588121005010606,26.849660583167005L50.820177670431136,27.984817150085483L51.05223433585167,29.789246650480475L51.2842910012722,30.501029937567534L51.51634766669273,31.62972348780001L51.74840433211327,31.2710739609014L51.9804609975338,32.445826305432774L52.212517662954326,33.11586411122176L52.44457432837487,33.44136417232544L52.6766309937954,33.07449159747622L52.90868765921593,33.843565380103165L53.14074432463646,36.36337005488746L53.372800990056994,37.70025104717489L53.604857655477524,39.159158721007714L53.83691432089805,39.65110495855551L54.06897098631859,39.08521158510597L54.30102765173912,39.6435935145576L54.53308431715965,40.771695984837436L54.765140982580185,42.61458032423529L54.99719764800072,44.449823937088276L55.22925431342125,45.39000808323818L55.46131097884178,45.33865258977988L55.69336764426232,46.59110416842409L55.925424309682846,47.929431713646444L56.157480975103375,48.983254054405386L56.38953764052391,47.754970180717905L56.62159430594444,48.21580256305892L56.85365097136497,48.802981005802465L57.08570763678551,49.227915126516976L57.31776430220604,49.28410511240558L57.54982096762657,48.81064491758415L57.78187763304711,48.98510647933491L58.01393429846764,47.361292735843534L58.24599096388817,48.14175004884263L58.4780476293087,49.665012217983694L58.710104294729234,50.96667790124514L58.942160960149764,51.125791545919554L59.17421762557029,51.0000572113486L59.40627429099083,51.13990305089832L59.63833095641136,51.5462912806927L59.87038762183189,52.182998728973914L60.10244428725243,52.99529718994009L60.33450095267296,53.71555171856493L60.56655761809349,55.52993018571149L60.79861428351403,56.550572279986305L61.03067094893456,57.12413732971483L61.262727614355086,56.93511613386778L61.494784279775615,57.56647462549212L61.72684094519615,57.96805397983149L61.95889761061668,57.06151967840291L62.19095427603721,58.079730311564305L62.423010941457754,59.357393731545876L62.65506760687828,58.54550641936573L62.88712427229881,58.93084069902976L63.11918093771935,59.323758348424064L63.35123760313988,61.560569903239895L63.58329426856041,61.57173503030788L63.815350933980945,62.91482319630229L64.04740759940148,64.26644147577602L64.27946426482201,65.86281718543432L64.51152093024254,67.1867285538398L64.74357759566307,69.16355635674758L64.9756342610836,68.98135052213382L65.20769092650413,69.52141474163034L65.43974759192467,70.0773241713052L65.6718042573452,71.26800263499808L65.90386092276573,72.26421370324078L66.13591758818627,71.54932483457013L66.3679742536068,71.54090209706045L66.60003091902733,71.91118317460213L66.83208758444786,72.8559172289878L67.06414424986839,72.36802969907782L67.29620091528892,71.7114555602419L67.52825758070945,73.14587715273537L67.76031424613,74.69144877452433L67.99237091155052,74.3297841087252L68.22442757697105,74.32618773147108L68.45648424239158,75.13875188279378L68.68854090781213,75.0987024418531L68.92059757323266,76.5599682197043L69.15265423865318,77.7179897554584L69.38471090407371,78.18559710314585L69.61676756949424,77.93287087794924L69.84882423491479,77.63663409149963L70.0808809003353,76.80644835415903L70.31293756575585,76.55397648025388L70.54499423117637,77.77210350002827L70.7770508965969,78.67393061315418L71.00910756201743,79.516463112925L71.24116422743798,79.116794606456L71.4732208928585,79.89659827299323L71.70527755827904,79.6872611464498L71.93733422369958,77.61222829153263L72.1693908891201,78.84755068618428L72.40144755454064,78.92159888387869L72.63350421996117,79.43139085032958L72.8655608853817,79.67406646267675L73.09761755080223,80.4303422572305L73.32967421622277,80.58528096973441L73.56173088164329,81.60518531392246L73.79378754706383,82.24583692361858L74.02584421248437,82.52739846637894L74.25790087790489,81.70820281762471L74.48995754332543,81.69600248973417L74.72201420874595,81.86936048325826L74.95407087416649,82.76035517230054L75.18612753958702,82.42372145564053L75.41818420500755,82.46464732923637L75.65024087042808,82.09150948309083L75.88229753584862,82.45300605747731L76.11435420126914,82.15240608783922L76.34641086668968,81.69667011226768L76.57846753211022,81.31353551801203L76.81052419753074,81.17220115410055L77.04258086295128,80.95172057255394L77.27463752837181,80.5881850086783L77.50669419379234,82.21148541618066L77.73875085921287,82.60771192487952L77.97080752463341,82.52298558573382L78.20286419005393,83.04606532635894L78.43492085547447,83.29774398601774L78.66697752089502,83.63857415251452L78.89903418631553,84.29667411153956L79.13109085173608,81.36942224016046L79.3631475171566,82.08356165177999L79.59520418257713,82.34894291032212L79.82726084799766,83.09385509332344L80.0593175134182,83.56911534107583L80.29137417883872,83.30315203611889L80.52343084425927,84.44493850955784L80.75548750967978,85.47098465907928L80.98754417510033,86.11947511396522L81.21960084052087,86.84390956645538L81.45165750594138,86.74960615718372L81.68371417136193,84.06140321726726L81.91577083678246,85.04562505695802L82.14782750220299,84.66017114121591L82.37988416762352,85.0867305618267L82.61194083304406,85.39727235339332L82.84399749846457,85.56214984513693L83.07605416388512,85.72132780306119L83.30811082930565,86.29451969090422L83.54016749472618,86.46596944236316L83.77222416014672,87.30776271311368L84.00428082556725,87.31808086933395L84.23633749098778,85.76784888556638L84.46839415640831,86.73261735927402L84.70045082182885,85.26457940413684L84.93250748724937,85.32292702395003L85.16456415266991,86.769170429519L85.39662081809044,86.40796540711885L85.62867748351097,86.95589192750417L85.8607341489315,87.19425764892326L86.09279081435203,87.52255152420315L86.32484747977257,88.73533009022518L86.5569041451931,88.2366332633127L86.78896081061363,89.12214390951344L87.02101747603416,90.19945118456437L87.2530741414547,90.96272371262936L87.48513080687522,92.36587319552059L87.71718747229576,92.23768739720094L87.94924413771629,92.32443456640611L88.18130080313682,92.17232857534992L88.41335746855735,92.4143298884256L88.6454141339779,90.82153508445926L88.87747079939842,90.50509611729552L89.10952746481895,91.01544826905646L89.3415841302395,92.0757347518366L89.57364079566001,93.35412067920002L89.80569746108056,93.132001153755L90.03775412650108,93.30523303169531L90.26981079192161,94.66250678713745L90.50186745734214,93.8288373527862L90.73392412276269,94.27959355201145L90.9659807881832,94.99733207011715L91.19803745360375,94.4108316916427L91.43009411902429,94.2459366805431L91.6621507844448,94.54885498414386L91.89420744986535,94.9176507177556L92.12626411528586,94.14652340313457L92.3583207807064,93.79026731764621L92.59037744612694,92.19783191793685L92.82243411154747,91.79961354858119L93.054490776968,93.01115730611193L93.28654744238854,94.6179071285306L93.51860410780905,95.53698604605529L93.7506607732296,95.0204429324263L93.98271743865014,94.8104996831858L94.21477410407066,94.60528679167619L94.4468307694912,95.45270213546962L94.67888743491173,95.55606724838205L94.91094410033226,96.03546694920597L95.14300076575279,96.31726214268207L95.37505743117333,96.7902937931364L95.60711409659385,96.919000838146L95.83917076201439,97.60277478397268L96.07122742743493,96.7048388645682L96.30328409285545,96.78098647646075L96.53534075827599,96.6003725887065L96.76739742369652,96.449513139462L96.99945408911705,97.08950876643746L97.23151075453758,97.66362946798183L97.46356741995811,97.79110574099855L97.69562408537864,99.04728680789377L97.92768075079918,98.96751975314689L98.1597374162197,98.60573406944309L98.39179408164024,98.77260776025071L98.62385074706079,98.43685946639346L98.8559074124813,98.19508066136025L99.08796407790184,97.72136298135655L99.32002074332237,98.37477137565509L99.5520774087429,99.33276331907767L99.78413407416343,98.61161901279813L100.01619073958398,100.46400013414815L100.24824740500449,100.67536218276435L100.48030407042503,101.96416876158139L100.71236073584556,101.15607542837702L100.9444174012661,101.81533285009246L101.17647406668664,102.53375825733887L101.40853073210717,101.96323153364999L101.6405873975277,101.31654725402906L101.87264406294823,100.91203828947829L102.10470072836877,99.75569403481599L102.33675739378928,100.17028339641482L102.56881405920983,100.52072767025356L102.80087072463036,99.29966711755573L103.03292739005089,99.29638508516868L103.26498405547142,99.76805269341172L103.49704072089195,101.06820603628213L103.72909738631249,101.04068675792695L103.96115405173302,101.801982519684L104.19321071715355,102.08893994349503L104.42526738257408,101.53405984429627L104.65732404799462,101.72454452509754L104.88938071341514,101.10945311825441L105.12143737883568,101.80109281909067L105.35349404425621,102.84828199153166L105.58555070967674,102.60734656292783L105.81760737509727,103.02747300287625L106.04966404051781,103.6482064542499L106.28172070593834,103.3403298910244L106.51377737135887,103.53374008309915L106.74583403677941,104.11713157607764L106.97789070219993,103.6725988300554L107.20994736762047,103.39747378952549L107.442004033041,104.30396780144464L107.67406069846153,103.81416111392593L107.90611736388206,103.40637737267448L108.1381740293026,102.15283337430182L108.37023069472312,101.85145405452913L108.60228736014366,102.2424740371669L108.8343440255642,102.3030575259155L109.06640069098472,102.02276319982589L109.29845735640527,101.55589599514695L109.53051402182578,100.94899295654884L109.76257068724632,101.2356217661101L109.99462735266685,100.80572606608455L110.22668401808738,102.08347173631807L110.45874068350791,102.4228590832718L110.69079734892846,103.30771522882254L110.92285401434897,102.44961154014896L111.15491067976951,103.72241037510513L111.38696734519006,103.53535575432693L111.61902401061057,103.82219437527756L111.85108067603112,104.3427086731013L112.08313734145165,103.848411444738L112.31519400687218,104.26274393557274L112.5472506722927,103.02764567264485L112.77930733771325,104.10519287343509L113.01136400313376,103.99318506379997L113.24342066855431,104.4006118889796L113.47547733397485,104.43458232842706L113.70753399939537,103.78412157326858L113.93959066481591,104.14544336911067L114.17164733023644,104.27050182127354L114.40370399565697,104.4914900079752L114.6357606610775,104.07967848823658L114.86781732649803,103.35785493948102L115.09987399191856,104.08962704720598L115.3319306573391,104.6271769287753L115.56398732275962,104.60536629331709L115.79604398818016,102.88550769105949L116.0281006536007,103.01337995260126L116.26015731902122,104.17116855517945L116.49221398444176,103.11890737242136L116.72427064986229,103.23337997086149L116.95632731528282,104.29408263062184L117.18838398070335,104.48872225859743L117.4204406461239,105.26082075998518L117.65249731154441,106.090368543171L117.88455397696495,106.39573726071065L118.11661064238548,105.40556019368815L118.34866730780601,105.30443157102256L118.58072397322655,105.72100033662086L118.81278063864708,105.95358339993977L119.04483730406761,105.63900278916043L119.27689396948814,106.2727293107441L119.50895063490869,106.46526063013127L119.7410073003292,106.37361670024566L119.97306396574974,106.21471055331574L120.20512063117027,106.23256512837366L120.4371772965908,104.97419741447823L120.66923396201133,105.40211305791716L120.90129062743186,105.78676520311434L121.1333472928524,105.64506617182887L121.36540395827294,104.55193447660005L121.59746062369346,104.962164768562L121.829517289114,104.66034615040176L122.06157395453454,105.18368294196696L122.29363061995505,105.76036020881384L122.5256872853756,106.44575396150981L122.75774395079613,106.21404063168562L122.98980061621666,106.70799345633425L123.22185728163718,106.0475815904482L123.45391394705773,106.54619720606414L123.68597061247826,106.3324473688722L123.91802727789879,106.64424829914938L124.15008394331933,105.83948770710492L124.38214060873985,104.94052791404721L124.61419727416039,105.48123310933057L124.84625393958092,106.26947031677538L125.07831060500145,106.13927053808072L125.31036727042198,105.9431195752263L125.54242393584252,104.71502619600471L125.77448060126304,105.4517683876242L126.00653726668358,104.77942181067598L126.23859393210412,105.06893849919369L126.47065059752464,104.99168411708301L126.70270726294518,105.12595374425763L126.9347639283657,105.40579814651154L127.16682059378624,106.44443620211109L127.39887725920677,105.9625905259603L127.6309339246273,105.93242519881228L127.86299059004783,106.46227045208916L128.09504725546836,106.56727685761004L128.3271039208889,106.29393132083399L128.55916058630945,106.37029824096496L128.79121725172996,107.42888770323788L129.0232739171505,108.11056622497519L129.25533058257102,106.40670774444212L129.48738724799156,107.3647555421074L129.71944391341208,108.19309649182789L129.95150057883262,107.47714555816445L130.18355724425317,107.91117338088893L130.41561390967368,109.16777537543636L130.64767057509422,110.09583537781538L130.87972724051477,109.61794931449016L131.11178390593528,109.13094444368524L131.34384057135583,108.32587111675868L131.57589723677637,107.73048836345636L131.80795390219689,107.60956245264488L132.04001056761743,107.68752232507696L132.27206723303794,107.98100347481423L132.5041238984585,107.8913221783461L132.736180563879,108.45372138693688L132.96823722929955,107.43012025613581L133.20029389472006,107.41241653392782L133.4323505601406,107.1448094515959L133.66440722556115,107.58309915636416L133.89646389098166,107.8971502509141L134.1285205564022,108.75718811102226L134.36057722182272,108.88204144118053L134.59263388724327,108.4173842263341L134.8246905526638,108.616738819377L135.05674721808433,109.8399072605814L135.28880388350487,110.00985045291029L135.5208605489254,109.2814104367002L135.75291721434593,109.06354517208567L135.98497387976647,108.70312158546575L136.21703054518701,108.9812907715511L136.44908721060753,109.8472816497826L136.68114387602807,108.6674855289874L136.9132005414486,108.17339393701829L137.14525720686913,107.41709132155414L137.37731387228965,107.66094838477096L137.6093705377102,107.3435746260295L137.8414272031307,106.54837776531363L138.07348386855125,107.28822229341644L138.30554053397177,107.37532590758534L138.5375971993923,106.36801280006374L138.76965386481285,107.54398547632013L139.00171053023337,106.68940515902058L139.2337671956539,105.83520253120025L139.46582386107445,107.72357266102986L139.697880526495,107.66642163108193L139.9299371919155,107.36256706996872L140.16199385733603,108.43310795157782L140.39405052275657,109.33964308182102L140.62610718817712,109.37343381842254L140.85816385359766,108.81836206194362L141.09022051901817,108.81767394704669L141.3222771844387,108.68629728903252L141.55433384985923,108.8181238325145L141.78639051527978,109.0729778802602L142.0184471807003,109.89409220483687L142.25050384612084,109.485586200486L142.48256051154138,108.96813034343941L142.7146171769619,109.82912073014707L142.9466738423824,109.40129912980369L143.17873050780295,110.47191400542559L143.4107871732235,110.22489818708108L143.64284383864404,110.2388518867994L143.87490050406458,110.34881181987974L144.10695716948507,110.90225732455134L144.33901383490561,111.18767693868377L144.57107050032616,111.05202060695598L144.8031271657467,111.46752607380552L145.03518383116722,111.96708838234302L145.26724049658776,112.3501616882599L145.49929716200828,111.4857845338346L145.73135382742882,112.62692149025837L145.96341049284936,112.22356949745388L146.19546715826988,112.27315503897526L146.42752382369042,112.7394353028427L146.65958048911097,113.19113722879447L146.89163715453148,112.95762594787742L147.123693819952,113.47006778660578L147.35575048537254,113.14464805229278L147.58780715079308,113.09080302670509L147.81986381621363,112.66417273512404L148.0519204816341,113.03784394352171L148.28397714705466,112.84784751374615L148.5160338124752,112.76605012378735L148.74809047789574,112.67661142441148L148.9801471433163,114.10497645599636L149.2122038087368,114.22427924819957L149.44426047415732,114.19855418270656L149.67631713957786,113.87895934067652L149.9083738049984,114.17596056019809L150.14043047041892,114.41951321355556L150.37248713583946,114.55227609183896L150.60454380126,114.49622532617047L150.83660046668052,114.07372839288675L151.06865713210107,114.28908007987235L151.30071379752158,114.47546212506494L151.53277046294212,114.25300566023424L151.76482712836267,113.79948482645173L151.9968837937832,114.33749976026245L152.2289404592037,114.16078904338613L152.46099712462424,114.79230525350987L152.6930537900448,114.61122333165056L152.92511045546533,114.27767272405117L153.15716712088587,113.85165117387179L153.38922378630636,113.5445593766047L153.6212804517269,113.45793981154641L153.85333711714745,113.09021708159383L154.085393782568,113.93233018551474L154.3174504479885,113.813700828294L154.54950711340905,114.54245120917956L154.78156377882956,114.83115705820069L155.0136204442501,114.68710025115823L155.24567710967062,114.16576244746612L155.47773377509117,114.20176093129268L155.7097904405117,115.14242407184766L155.94184710593225,114.98424262823805L156.17390377135277,115.64194395276436L156.40596043677328,115.61086547799495L156.63801710219383,116.57312156500092L156.87007376761437,117.2028876678508L157.10213043303492,117.1160919279238L157.33418709845543,116.78297232818561L157.56624376387595,117.46440632691287L157.7983004292965,117.82204826515054L158.03035709471703,117.58743935494266L158.26241376013758,116.61634016644125L158.4944704255581,117.3243002464959L158.7265270909786,117.15203966471131L158.95858375639915,117.79222008384443L159.1906404218197,117.83527725830533L159.4226970872402,117.49496466612054L159.65475375266075,117.23390304477894L159.8868104180813,117.61174027129859L160.1188670835018,117.88153569001769L160.35092374892233,117.89087029835919L160.58298041434287,117.7753812351372L160.8150370797634,117.44807743959011L161.04709374518396,117.08316116912697L161.2791504106045,117.28599809689405L161.511207076025,116.62270590227828L161.74326374144553,116.57386528415448L161.97532040686608,117.08042172795327L162.20737707228662,116.63480064747301L162.43943373770713,117.33529565359393L162.67149040312768,118.24899631915632L162.9035470685482,118.89712239203337L163.13560373396874,119.28590452611711L163.36766039938928,119.78588613334159L163.5997170648098,119.27751579237189L163.83177373023034,119.62492165036721L164.06383039565088,119.35782923269174L164.2958870610714,118.32405401771793L164.5279437264919,118.63809042313162L164.76000039191246,118.68288360945525L164.992057057333,117.50485440469781L165.22411372275354,117.78383855720868L165.45617038817403,117.84001596856903L165.68822705359457,117.77998556528146L165.92028371901512,118.09376579385535L166.15234038443566,117.78827959960059L166.3843970498562,117.99580258762853L166.61645371527672,116.78935071413903L166.84851038069723,116.46514916281372L167.08056704611778,117.12550743724626L167.31262371153832,116.11832260253756L167.54468037695884,117.14842170675156L167.77673704237938,115.36257078503843L168.00879370779992,115.05253134354943L168.24085037322044,116.14297707097934L168.47290703864098,117.19443441663746L168.7049637040615,117.61195004718131L168.93702036948204,118.17111535385094L169.16907703490259,117.81384282931529L169.40113370032313,118.08705927710245L169.63319036574362,118.88131800410429L169.86524703116416,119.2137025722417L170.0973036965847,118.61911472927319L170.32936036200525,118.15590372427233L170.5614170274258,118.31953418119956L170.79347369284628,117.82303105632529L171.02553035826682,118.62860473372993L171.25758702368736,118.47740067659498L171.4896436891079,118.80131437719622L171.72170035452842,119.13727548860871L171.95375701994897,118.75611744048624L172.18581368536948,118.71441019996828L172.41787035079003,119.89923595651408L172.64992701621054,119.71828982660439L172.88198368163108,119.8427334032788L173.11404034705163,120.11280141962555L173.34609701247217,119.78548234781556L173.5781536778927,118.59269280701797L173.8102103433132,118.62301099533825L174.04226700873375,119.07139495247316L174.2743236741543,120.09751347939176L174.50638033957483,120.6365259660977L174.73843700499535,121.14977766208648L174.97049367041586,120.92966455350486L175.2025503358364,120.01962518510669L175.43460700125695,120.1655012958471L175.6666636666775,118.80078047272819L175.898720332098,119.2971708618032L176.13077699751852,119.02215915324392L176.36283366293907,118.60660296254503L176.5948903283596,118.8884088715875L176.82694699378013,118.78465937327546L177.05900365920067,119.12775845398976L177.2910603246212,119.87252881127104L177.52311699004173,119.0710933540747L177.75517365546224,119.50949248940381L177.9872303208828,119.50501900342208L178.21928698630333,120.17065857012079L178.45134365172387,120.9482482077141L178.68340031714442,120.95569077158503L178.9154569825649,121.11921735486474L179.14751364798545,121.29288894685465L179.379570313406,120.82865635649468L179.61162697882654,121.26606469310624L179.84368364424705,121.36460424888386L180.0757403096676,121.16656555553595L180.3077969750881,120.28636100112783L180.53985364050865,120.12566842895133L180.7719103059292,120.32808050376207L181.0039669713497,120.66166913719535L181.23602363677026,121.66145165813104L181.4680803021908,121.97408877346416L181.70013696761131,121.49363879493743L181.93219363303183,121.54945077515642L182.16425029845237,120.51740589167952L182.39630696387292,120.39177193517872L182.62836362929346,120.36067286736804L182.86042029471395,121.28195905997114L183.0924769601345,121.73370002132833L183.32453362555503,122.12150253802842L183.55659029097558,122.36751621185496L183.78864695639612,121.2685642324998L184.02070362181664,120.96253781203545L184.25276028723715,121.2860076028222L184.4848169526577,121.49317445094978L184.71687361807824,121.20388089455734L184.94893028349875,121.09351685871343L185.1809869489193,120.68938868861743L185.41304361433984,120.9167292806516L185.64510027976036,121.38996971256603L185.8771569451809,120.76060464384554L186.10921361060142,121.84615681812542L186.34127027602196,122.86364817317472L186.5733269414425,123.30569209981043L186.80538360686305,123.67883685829501L187.03744027228353,122.67787268927144L187.26949693770408,122.46920337808008L187.50155360312462,122.03241065873736L187.73361026854516,122.38821740116416L187.9656669339657,122.57289149481764L188.1977235993862,122.64956918487215L188.42978026480674,123.37204098077687L188.66183693022728,123.3582245035404L188.89389359564782,123.21298774275103L189.12595026106834,123.25446954924222L189.35800692648888,122.95716144351661L189.5900635919094,122.7637453078143L189.82212025732994,123.14316231871051L190.05417692275046,123.13098727382817L190.286233588171,123.02746116499846L190.51829025359154,122.45881868347243L190.7503469190121,122.54634508112046L190.9824035844326,122.65930643572779L191.21446024985312,122.90396739209064L191.44651691527366,123.44211828255332L191.6785735806942,124.07773174847398L191.91063024611475,123.75326943219855L192.14268691153526,123.79617265761135L192.37474357695578,123.2086688160034L192.60680024237632,123.17567985168742L192.83885690779687,122.9248080184671L193.0709135732174,122.61764920360281L193.30297023863793,122.76850476381509L193.53502690405844,123.5168763040634L193.76708356947898,123.77670838262675L193.99914023489953,123.39155317363371L194.23119690032004,123.50949369501292L194.4632535657406,123.09742171280169L194.69531023116113,123.3588113400827L194.92736689658165,123.68759913229667L195.15942356200216,122.79242388671179L195.3914802274227,123.01262031630274L195.62353689284325,122.88261473607523L195.8555935582638,123.02425184536085L196.08765022368434,122.52296747385311L196.31970688910482,122.9696088849203L196.55176355452537,123.79232501153805L196.7838202199459,124.02516786392074L197.01587688536645,124.05370075616933L197.24793355078697,124.49410721868298L197.4799902162075,124.88224662046038L197.71204688162803,124.71178407271287L197.94410354704857,124.47894378563156L198.1761602124691,123.55999458787845L198.40821687788963,123.22527086233588L198.64027354331017,121.84128476519928L198.87233020873072,122.45148166571701L199.10438687415123,122.81819886407585L199.33644353957175,123.53928421995224L199.5685002049923,123.27502627528112L199.80055687041283,122.23293653814507L200.03261353583338,121.06148291418326L200.26467020125386,121.73198681146606L200.4967268666744,120.82307959464364L200.72878353209495,120.51587494852528L200.9608401975155,122.24518228787545L201.19289686293604,121.94110383867772L201.42495352835655,122.24416079819515L201.65701019377707,122.08887683865079L201.8890668591976,121.19926588728381L202.12112352461816,122.30111078903094L202.35318019003867,122.59726091492625L202.58523685545921,122.09283529954158L202.81729352087976,122.6455281068877L203.04935018630027,123.11828064293005L203.28140685172082,123.24164604127172L203.51346351714133,123.53912856308087L203.74552018256188,124.0076401205901L203.97757684798242,123.63082965999806L204.20963351340296,123.57026854025341L204.44169017882345,123.56711511377381L204.673746844244,123.64105520369056L204.90580350966454,122.2313950506504L205.13786017508508,122.34349197051193L205.36991684050562,122.48265132531418L205.6019735059261,122.87460238826542L205.83403017134665,122.47431387895344L206.0660868367672,122.8793303107106L206.29814350218774,122.78260326037736L206.53020016760826,122.04007777355862L206.7622568330288,122.3416598856141L206.99431349844932,122.54578899210027L207.22637016386986,122.77486336011313L207.45842682929037,123.18019455608551L207.69048349471092,123.58251113929282L207.92254016013146,122.93999524606618L208.154596825552,123.29505138346786L208.38665349097252,123.72836849386746L208.61871015639304,124.41053759825863L208.85076682181358,122.64816554419555L209.08282348723412,122.8776996392053L209.31488015265467,122.23496803952645L209.54693681807518,122.22343966375608L209.7789934834957,122.4245980257804L210.01105014891624,121.34184336311866L210.24310681433678,121.44513372678279L210.47516347975733,120.82899870065654L210.70722014517784,121.89977010408107L210.93927681059836,121.96225600628141L211.1713334760189,122.35554842100866L211.40339014143944,122.24622399674061L211.63544680685996,122.2930861924419L211.8675034722805,122.38480112788359L212.09956013770105,122.57948401399354L212.33161680312156,122.22917324339801L212.56367346854208,122.5478324843561L212.79573013396262,123.0221156048891L213.02778679938316,123.81067827982446L213.2598434648037,122.88686532670326L213.49190013022425,121.66533104605965L213.72395679564474,122.14912099076021L213.95601346106528,122.7507006221702L214.18807012648583,122.68892965383706L214.42012679190637,122.21357428546429L214.65218345732688,122.79661859378339L214.88424012274743,123.37786396542418L215.11629678816794,123.65459075744867L215.3483534535885,124.13001058622616L215.58041011900903,123.86385367829676L215.81246678442955,123.77126103212984L216.0445234498501,124.76181794171029L216.27658011527063,125.12773826041584L216.50863678069115,125.13937616168322L216.74069344611166,125.63592253262821L216.9727501115322,125.86535367635572L217.20480677695275,125.62559263916691L217.4368634423733,124.54677988138339L217.66892010779378,124.59491530932067L217.90097677321432,125.04553018666401L218.13303343863487,124.69407511664741L218.3650901040554,124.89132266280306L218.59714676947596,125.30652637608296L218.82920343489647,125.27056579793165L219.06126010031699,126.01740686464784L219.29331676573753,126.45843655725862L219.52537343115807,126.18216534266263L219.7574300965786,125.88207811732346L219.98948676199913,125.59357694320819L220.22154342741968,124.97879629968733L220.4536000928402,125.24965604196312L220.68565675826073,125.95291651706475L220.91771342368125,125.5205749908218L221.1497700891018,125.09095504130103L221.38182675452234,125.51467025158793L221.61388341994288,125.45255438327848L221.84594008536337,125.0081485699957L222.0779967507839,124.7167513830091L222.31005341620445,123.8760065900254L222.542110081625,123.86986818176553L222.77416674704554,123.70674896625219L223.00622341246603,123.72034384350914L223.23828007788657,123.1420376398248L223.47033674330712,122.48061563146679L223.70239340872766,123.4629761035539L223.93445007414817,123.77199562234512L224.16650673956872,123.23590224589111L224.39856340498923,123.84064910216105L224.63062007040978,123.81580401467372L224.8626767358303,123.87143026183799L225.09473340125083,123.86883537484258L225.32679006667138,124.18444068116216L225.55884673209192,124.18414638325665L225.79090339751244,124.77962476455224L226.02296006293295,124.3577109238248L226.2550167283535,124.15633928199098L226.48707339377404,124.21257688898105L226.71913005919458,124.81400717715212L226.9511867246151,125.42513986527537L227.1832433900356,125.83229048967503L227.41530005545616,125.42561471924625L227.6473567208767,125.08985757038077L227.87941338629724,125.1729238575408L228.11147005171776,124.0670323356099L228.34352671713827,123.16808026634553L228.57558338255882,122.79848538113977L228.80764004797936,123.29732994288766L229.03969671339988,122.62240736184154L229.27175337882042,123.90607739151021L229.50381004424096,124.04790310317755L229.73586670966148,124.56369621056754L229.967923375082,123.66459649251344L230.19998004050254,123.93855502362938L230.43203670592308,123.86516311609617L230.66409337134363,124.49884418217759L230.89615003676417,124.80935516121122L231.12820670218466,124.84352218590158L231.3602633676052,124.17836472356042L231.59232003302574,124.79020538132382L231.8243766984463,124.81121464216318L232.0564333638668,124.48059998985146L232.28849002928735,125.12198804944235L232.52054669470786,124.98629106298947L232.7526033601284,124.2210664917941L232.98466002554895,124.93157813454042L233.21671669096946,125.90893503318392L233.44877335639,126.26971194005158L233.68083002181055,126.194840339596L233.91288668723107,126.9321400297637L234.14494335265158,127.3932018350383L234.37700001807212,127.49413258039463L234.60905668349267,127.1886584661973L234.8411133489132,127.2003000006079L235.0731700143337,127.58568952537321L235.30522667975424,126.21933082564034L235.53728334517479,126.24411214537464L235.76934001059533,126.07837160842136L236.00139667601587,126.07008678855054L236.2334533414364,126.39656100261146L236.4655100068569,126.98281842434417L236.69756667227745,126.8096484211517L236.929623337698,126.04124004764375L237.1616800031185,125.49548943424698L237.39373666853905,124.93996174700487L237.6257933339596,124.74180287319889L237.8578499993801,125.06648994605442L238.08990666480065,125.63443629327375L238.32196333022117,126.14425427963018L238.5540199956417,125.48627042090583L238.78607666106225,125.23343682864582L239.0181333264828,125.59238860465186L239.25018999190328,126.36693848570573L239.48224665732383,125.55977768595403L239.71430332274437,125.02706732754432L239.94635998816491,123.55728309454737L240.17841665358546,123.92464087885666L240.41047331900594,124.16897730581039L240.6425299844265,124.5669449360872L240.87458664984703,125.144517456735L241.10664331526758,125.22065500454413L241.3386999806881,126.05868332452873L241.57075664610863,125.33149678595801L241.80281331152915,125.1256111357794L242.0348699769497,125.43210159139144L242.2669266423702,126.51833027413045L242.49898330779075,126.8448838022239L242.7310399732113,126.756642090276L242.96309663863184,126.97706251689898L243.19515330405235,127.2767492433742L243.42720996947287,127.14907243521957L243.6592666348934,127.5645054637179L243.89132330031396,127.61505946281038L244.1233799657345,126.87617936488363L244.35543663115502,126.61010947794193L244.58749329657553,125.74937704332734L244.81954996199607,125.01265136470236L245.05160662741662,125.37424541724806L245.28366329283716,125.15488905155244L245.51571995825768,125.85151334199837L245.7477766236782,125.52655110981313L245.97983328909874,126.10514727939083L246.21188995451928,125.35294666107852L246.4439466199398,125.26704246182304L246.67600328536034,124.81512666875328L246.90805995078088,124.09406357661473L247.1401166162014,124.22171389875722L247.3721732816219,124.25758500962833L247.60422994704246,123.4329387210198L247.836286612463,123.34171656203328L248.06834327788354,124.16573824818967L248.3003999433041,124.72535600256627L248.53245660872457,125.04379309871194L248.76451327414512,124.93171306984026L248.99656993956566,125.50197366226271L249.2286266049862,125.46405911355659L249.46068327040672,125.97211637454785L249.69273993582726,125.95108852168391L249.92479660124778,125.18993810555907L250.15685326666832,125.86234776290786L250.38890993208886,126.058072658836L250.62096659750938,126.3471848600546L250.85302326292992,126.85195574825981L251.08507992835047,126.01543316876688L251.31713659377098,125.66989624382138L251.5491932591915,125.59050473658282L251.78124992461204,125.28047935450086L252.01330659003258,124.81792124147971L252.24536325545313,125.48536687268586L252.47741992087361,125.30760995538347L252.70947658629416,125.13415920988258L252.9415332517147,125.02030728393586L253.17358991713525,126.05360051785577L253.4056465825558,125.45044211437019L253.6377032479763,125.87085990380488L253.86975991339682,125.76385773937966L254.10181657881736,126.16179912287208L254.3338732442379,125.81450400364434L254.56592990965842,126.41577171873416L254.79798657507897,126.75444561860222L255.0300432404995,127.34079515032266L255.26209990592002,127.35653192964183" fill="none"></path></g></g></g></g><g opacity="0.2"><g><g><g><path style="fill: none;" stroke="rgb(0, 119, 187)" stroke-width="2px" d="M23.437491150808334,167.39963578296997L23.669547816228867,166.71387981151008L23.9016044816494,164.78839748069626L24.13366114706993,160.07982324933744L24.365717812490463,156.48054120180188L24.597774477910995,155.5060718431325L24.82983114333153,153.65867238834562L25.06188780875206,151.9275433660516L25.29394447417259,152.51421344248791L25.526001139593124,152.38962348994093L25.758057805013653,150.834054158542L25.99011447043419,150.26613384064612L26.222171135854722,149.71665626770053L26.454227801275252,148.7642480284366L26.686284466695785,145.91041964848577L26.91834113211632,148.84947445281978L27.15039779753685,149.56907319020658L27.382454462957384,148.71572891642407L27.614511128377913,144.7453250034625L27.846567793798446,143.50354823191728L28.07862445921898,145.03723462144075L28.310681124639512,137.3034361910522L28.542737790060045,140.32980072627385L28.774794455480574,136.0543568819702L29.006851120901107,132.85369086333446L29.23890778632164,129.26691139601866L29.47096445174217,129.7812523600503L29.703021117162706,119.61571989467781L29.93507778258324,118.85852021607765L30.167134448003768,115.12629854282055L30.3991911134243,111.60967716323631L30.63124777884483,107.46221412693497L30.863304444265367,106.18897942717192L31.0953611096859,102.94128002300451L31.32741777510643,98.96480710925219L31.559474440526962,95.13677526633057L31.79153110594749,94.46244184513941L32.02358777136803,87.4935184331044L32.25564443678856,87.1681388514158L32.48770110220909,80.17541092137418L32.71975776762962,83.98368424681637L32.95181443305015,80.52484721080413L33.18387109847069,68.90064383722654L33.41592776389122,68.37579314011828L33.64798442931175,64.1722178878341L33.880041094732285,69.72967921353292L34.11209776015282,65.30244456083477L34.34415442557335,53.93179055362506L34.57621109099388,59.56893287073521L34.80826775641441,61.59343530794616L35.04032442183495,58.68598371504676L35.27238108725548,50.142815225277126L35.50443775267601,49.85923335093132L35.73649441809654,60.51090538912727L35.96855108351708,52.22603401160155L36.20060774893761,51.48420145966481L36.432664414358136,55.37051106085686L36.66472107977867,44.990096494316994L36.8967777451992,56.91136841066422L37.12883441061973,53.89452129673679L37.36089107604027,49.16180812185351L37.592947741460804,47.25460680561661L37.825004406881334,47.688866564092635L38.05706107230186,50.81036145317208L38.2891177377224,36.30037287434182L38.52117440314293,42.01600102281597L38.75323106856346,45.14355943030059L38.985287733983995,40.07696897614463L39.217344399404524,51.63580038456545L39.449401064825054,39.83280545381804L39.68145773024559,41.24738153513989L39.91351439566612,32.937674951126404L40.145571061086656,33.47697721651319L40.37762772650719,24.62263948836982L40.60968439192772,30.97889535174667L40.84174105734825,24.750466789577082L41.07379772276878,18.727046552220703L41.30585438818932,24.01466486173231L41.53791105360985,15.767698697817284L41.769967719030376,19.05810588532679L42.00202438445091,15.621351898262187L42.23408104987144,14.73887422773001L42.46613771529197,20.014815056045382L42.698194380712515,19.76590378784277L42.930251046133044,11.527084448837407L43.162307711553574,12.772682443102719L43.39436437697411,18.384934729869723L43.62642104239464,10.465650749569285L43.85847770781517,10.485793034036423L44.0905343732357,14.221622116977613L44.322591038656235,11.004602142281644L44.554647704076764,6.4741999585268L44.78670436949729,26.283977742763337L45.01876103491784,9.074944974880502L45.25081770033837,13.741979171016867L45.482874365758896,24.23729357366508L45.71493103117943,23.0570456150144L45.94698769659996,11.859009998858534L46.17904436202049,23.930850151625233L46.41110102744103,18.624350506320273L46.64315769286156,18.55421983051639L46.875214358282086,16.965808268551225L47.107271023702616,20.246643210911138L47.33932768912315,22.28944585104839L47.57138435454369,19.468791385988823L47.80344101996422,20.13938582024299L48.035497685384755,20.820572223356823L48.267554350805284,22.53049537838931L48.49961101622581,18.67837393341309L48.73166768164635,19.324505963396074L48.96372434706688,23.48282960544847L49.19578101248741,19.966734534875894L49.427837677907945,20.825791454389137L49.659894343328475,25.46996410283144L49.891951008749004,32.250479853462764L50.12400767416954,29.19987220939146L50.35606433959008,31.830529121241266L50.588121005010606,29.54563530051084L50.820177670431136,32.525443417742615L51.05223433585167,37.00696465203941L51.2842910012722,33.348163085909064L51.51634766669273,36.14449768872143L51.74840433211327,29.83647585330915L51.9804609975338,37.14483568355253L52.212517662954326,35.79601533437513L52.44457432837487,34.743364416739105L52.6766309937954,31.607001298080245L52.90868765921593,36.919860510609446L53.14074432463646,46.442588754020605L53.372800990056994,43.04777501632275L53.604857655477524,44.99478941633763L53.83691432089805,41.618889908746375L54.06897098631859,36.82163809130814L54.30102765173912,41.87712123236382L54.53308431715965,45.28410586595634L54.765140982580185,49.98611768182603L54.99719764800072,51.79079838849973L55.22925431342125,49.15074466783755L55.46131097884178,45.13323061594674L55.69336764426232,51.600910483000725L55.925424309682846,53.28274189453579L56.157480975103375,53.19854341744105L56.38953764052391,42.84183468596809L56.62159430594444,50.05913209242296L56.85365097136497,51.15169477677665L57.08570763678551,50.92765160937504L57.31776430220604,49.5088650559599L57.54982096762657,46.916804138298595L57.78187763304711,49.68295272633798L58.01393429846764,40.866037761877976L58.24599096388817,51.263579300839L58.4780476293087,55.75806089454795L58.710104294729234,56.17334063429095L58.942160960149764,51.7622461246171L59.17421762557029,50.49711987306493L59.40627429099083,51.699286409097105L59.63833095641136,53.17184419987031L59.87038762183189,54.7298285220988L60.10244428725243,56.24449103380493L60.33450095267296,56.596569833064244L60.56655761809349,62.787444054297566L60.79861428351403,60.633140657085626L61.03067094893456,59.41839752862898L61.262727614355086,56.17903135047954L61.494784279775615,60.09190859198942L61.72684094519615,59.57437139718904L61.95889761061668,53.43538247268868L62.19095427603721,62.152572844209935L62.423010941457754,64.4680474114721L62.65506760687828,55.297957170645134L62.88712427229881,60.47217781768585L63.11918093771935,60.8954289460013L63.35123760313988,70.5078161225032L63.58329426856041,61.61639553857989L63.815350933980945,68.28717586027979L64.04740759940148,69.67291459367101L64.27946426482201,72.24832002406744L64.51152093024254,72.48237402746172L64.74357759566307,77.07086756837869L64.9756342610836,68.25252718367875L65.20769092650413,71.68167161961642L65.43974759192467,72.30096189000467L65.6718042573452,76.03071648976962L65.90386092276573,76.24905797621155L66.13591758818627,68.68976935988752L66.3679742536068,71.50721114702174L66.60003091902733,73.39230748476888L66.83208758444786,76.63485344653044L67.06414424986839,70.41647957943782L67.29620091528892,69.08515900489814L67.52825758070945,78.88356352270912L67.76031424613,80.87373526168024L67.99237091155052,72.88312544552863L68.22442757697105,74.31180222245456L68.45648424239158,78.38900848808466L68.68854090781213,74.93850467809037L68.92059757323266,82.40503133110907L69.15265423865318,82.35007589847478L69.38471090407371,80.05602649389567L69.61676756949424,76.92196597716281L69.84882423491479,76.45168694570118L70.0808809003353,73.48570540479662L70.31293756575585,75.54408898463328L70.54499423117637,82.6446115791258L70.7770508965969,82.2812390656579L71.00910756201743,82.88659311200819L71.24116422743798,77.51812058058009L71.4732208928585,83.01581293914212L71.70527755827904,78.84991264027603L71.93733422369958,69.3120968718639L72.1693908891201,83.78884026479089L72.40144755454064,79.21779167465627L72.63350421996117,81.4705587161332L72.8655608853817,80.6447689120654L73.09761755080223,83.45544543544554L73.32967421622277,81.20503581975002L73.56173088164329,85.68480269067462L73.79378754706383,84.80844336240303L74.02584421248437,83.65364463742037L74.25790087790489,78.4314202226077L74.48995754332543,81.64720117817205L74.72201420874595,82.56279245735458L74.95407087416649,86.32433392846967L75.18612753958702,81.0771865890006L75.41818420500755,82.62835082361966L75.65024087042808,80.59895809850869L75.88229753584862,83.89899235502318L76.11435420126914,80.95000620928684L76.34641086668968,79.87372620998146L76.57846753211022,79.78099714098936L76.81052419753074,80.60686369845469L77.04258086295128,80.06979824636745L77.27463752837181,79.13404275317566L77.50669419379234,88.70468704619019L77.73875085921287,84.19261795967488L77.97080752463341,82.18408022915098L78.20286419005393,85.13838428885933L78.43492085547447,84.30445862465292L78.66697752089502,85.00189481850181L78.89903418631553,86.92907394763971L79.13109085173608,69.66041475464405L79.3631475171566,84.94011929825805L79.59520418257713,83.41046794449065L79.82726084799766,86.07350382532871L80.0593175134182,85.47015633208538L80.29137417883872,82.23929881629113L80.52343084425927,89.01208440331366L80.75548750967978,89.5751692571649L80.98754417510033,88.71343693350906L81.21960084052087,89.74164737641605L81.45165750594138,86.37239252009701L81.68371417136193,73.3085914576015L81.91577083678246,88.98251241572095L82.14782750220299,83.11835547824751L82.37988416762352,86.79296824426984L82.61194083304406,86.63943951965979L82.84399749846457,86.2216598121114L83.07605416388512,86.35803963475816L83.30811082930565,88.58728724227646L83.54016749472618,87.15176844819894L83.77222416014672,90.67493579611569L84.00428082556725,87.35935349421504L84.23633749098778,79.56692095049608L84.46839415640831,90.59169125410457L84.70045082182885,79.39242758358817L84.93250748724937,85.55631750320278L85.16456415266991,92.55414405179486L85.39662081809044,84.96314531751824L85.62867748351097,89.1475980090454L85.8607341489315,88.14772053459951L86.09279081435203,88.83572702532278L86.32484747977257,93.58644435431331L86.5569041451931,86.24184595566284L86.78896081061363,92.6641864943164L87.02101747603416,94.50868028476806L87.2530741414547,94.01581382488932L87.48513080687522,97.9784711270855L87.71718747229576,91.72494420392233L87.94924413771629,92.67142324322674L88.18130080313682,91.56390461112503L88.41335746855735,93.38233514072837L88.6454141339779,84.45035586859387L88.87747079939842,89.23934024864062L89.10952746481895,93.0568568761001L89.3415841302395,96.31688068295725L89.57364079566001,98.4676643886537L89.80569746108056,92.24352305197496L90.03775412650108,93.9981605434565L90.26981079192161,100.091601808906L90.50186745734214,90.49415961538108L90.73392412276269,96.08261834891256L90.9659807881832,97.86828614253999L91.19803745360375,92.06483017774482L91.43009411902429,93.5863566361447L91.6621507844448,95.76052819854685L91.89420744986535,96.39283365220263L92.12626411528586,91.06201414465049L92.3583207807064,92.36524297569272L92.59037744612694,85.82809031909943L92.82243411154747,90.20674007115858L93.054490776968,97.85733233623479L93.28654744238854,101.04490641820543L93.51860410780905,99.21330171615392L93.7506607732296,92.95427047791044L93.98271743865014,93.97072668622366L94.21477410407066,93.78443522563768L94.4468307694912,98.8423635106434L94.67888743491173,95.96952770003182L94.91094410033226,97.95306575250177L95.14300076575279,97.44444291658642L95.37505743117333,98.68242039495371L95.60711409659385,97.43382901818458L95.83917076201439,100.33787056727925L96.07122742743493,93.11309518695035L96.30328409285545,97.08557692403087L96.53534075827599,95.8779170376895L96.76739742369652,95.84607534248399L96.99945408911705,99.64949127433937L97.23151075453758,99.96011227415929L97.46356741995811,98.30101083306535L97.69562408537864,104.0720110754747L97.92768075079918,98.64845153415939L98.1597374162197,97.15859133462783L98.39179408164024,99.4401025234812L98.62385074706079,97.09386629096454L98.8559074124813,97.22796544122744L99.08796407790184,95.82649226134174L99.32002074332237,100.98840495284935L99.5520774087429,103.164731092768L99.78413407416343,95.7270417876799L100.01619073958398,107.87352461954835L100.24824740500449,101.52081037722915L100.48030407042503,107.11939507684957L100.71236073584556,97.92370209555949L100.9444174012661,104.45236253695423L101.17647406668664,105.40745988632457L101.40853073210717,99.68112463889445L101.6405873975277,98.72981013554538L101.87264406294823,99.29400243127533L102.10470072836877,95.13031701616663L102.33675739378928,101.82864084281016L102.56881405920983,101.92250476560864L102.80087072463036,94.41542490676431L103.03292739005089,99.28325695562057L103.26498405547142,101.65472312638374L103.49704072089195,106.26881940776384L103.72909738631249,100.93060964450628L103.96115405173302,104.84716556671225L104.19321071715355,103.23676963873915L104.42526738257408,99.31453944750119L104.65732404799462,102.4864832483026L104.88938071341514,98.64908749088181L105.12143737883568,104.56765162243575L105.35349404425621,107.03703868129563L105.58555070967674,101.6436048485124L105.81760737509727,104.70797876266997L106.04966404051781,106.13114025974454L106.28172070593834,102.10882363812232L106.51377737135887,104.30738085139812L106.74583403677941,106.45069754799161L106.97789070219993,101.8944678459666L107.20994736762047,102.29697362740572L107.442004033041,107.92994384912136L107.67406069846153,101.85493436385107L107.90611736388206,101.77524240766869L108.1381740293026,97.13865738081115L108.37023069472312,100.64593677543837L108.60228736014366,103.80655396771797L108.8343440255642,102.5453914809099L109.06640069098472,100.90158589546738L109.29845735640527,99.68842717643125L109.53051402182578,98.5213808021564L109.76257068724632,102.38213700435519L109.99462735266685,99.0861432659823L110.22668401808738,107.19445441725223L110.45874068350791,103.7804084710866L110.69079734892846,106.84713981102556L110.92285401434897,99.01719678545466L111.15491067976951,108.81360571492976L111.38696734519006,102.78713727121418L111.61902401061057,104.96954885908013L111.85108067603112,106.42476586439622L112.08313734145165,101.87122253128489L112.31519400687218,105.92007389891171L112.5472506722927,98.08725262093327L112.77930733771325,108.41538167659591L113.01136400313376,103.5451538252595L113.24342066855431,106.03031918969816L113.47547733397485,104.57046408621682L113.70753399939537,101.18227855263457L113.93959066481591,105.59073055247904L114.17164733023644,104.77073562992504L114.40370399565697,105.37544275478186L114.6357606610775,102.43243240928207L114.86781732649803,100.47056074445884L115.09987399191856,107.01671547810575L115.3319306573391,106.77737645505273L115.56398732275962,104.51812375148418L115.79604398818016,96.00607328202905L116.0281006536007,103.52486899876838L116.26015731902122,108.80232296549228L116.49221398444176,98.90986264138897L116.72427064986229,103.691270364622L116.95632731528282,108.53689326966324L117.18838398070335,105.2672807704999L117.4204406461239,108.34921476553612L117.65249731154441,109.4085596759142L117.88455397696495,107.61721213086925L118.11661064238548,101.44485192559824L118.34866730780601,104.89991708036024L118.58072397322655,107.38727539901416L118.81278063864708,106.8839156532154L119.04483730406761,104.38068034604304L119.27689396948814,108.80763539707874L119.50895063490869,107.23538590768L119.7410073003292,106.00704098070321L119.97306396574974,105.57908596559604L120.20512063117027,106.30398342860548L120.4371772965908,99.94072655889643L120.66923396201133,107.113775631673L120.90129062743186,107.325373783903L121.1333472928524,105.078270046687L121.36540395827294,100.17940769568487L121.59746062369346,106.60308593640974L121.829517289114,103.4530716777609L122.06157395453454,107.2770301082277L122.29363061995505,108.06706927620131L122.5256872853756,109.18732897229366L122.75774395079613,105.28718731238888L122.98980061621666,108.68380475492877L123.22185728163718,103.40593412690397L123.45391394705773,108.54065966852795L123.68597061247826,105.47744802010448L123.91802727789879,107.89145202025807L124.15008394331933,102.62044533892704L124.38214060873985,101.34468874181643L124.61419727416039,107.64405389046398L124.84625393958092,109.42241914655462L125.07831060500145,105.61847142330203L125.31036727042198,105.15851572380873L125.54242393584252,99.80265267911838L125.77448060126304,108.39873715410212L126.00653726668358,102.09003550288311L126.23859393210412,106.22700525326445L126.47065059752464,104.68266658864037L126.70270726294518,105.66303225295603L126.9347639283657,106.52517575552724L127.16682059378624,110.59898842450922L127.39887725920677,104.03520782135718L127.6309339246273,105.81176389022022L127.86299059004783,108.58165146519663L128.09504725546836,106.98730247969362L128.3271039208889,105.20054917372966L128.55916058630945,106.67576592148886L128.79121725172996,111.66324555232947L129.0232739171505,110.83728031192446L129.25533058257102,99.59127382230987L129.48738724799156,111.19694673276857L129.71944391341208,111.50646029070975L129.95150057883262,104.61334182351061L130.18355724425317,109.64728467178695L130.41561390967368,114.19418335362604L130.64767057509422,113.8080753873315L130.87972724051477,107.70640506118924L131.11178390593528,107.18292496046553L131.34384057135583,105.10557780905248L131.57589723677637,105.34895735024709L131.80795390219689,107.12585880939903L132.04001056761743,107.99936181480527L132.27206723303794,109.15492807376326L132.5041238984585,107.53259699247361L132.736180563879,110.70331822130001L132.96823722929955,103.33571573293149L133.20029389472006,107.34160164509592L133.4323505601406,106.07438112226819L133.66440722556115,109.33625797543722L133.89646389098166,109.15335462911382L134.1285205564022,112.19733955145503L134.36057722182272,109.38145476181364L134.59263388724327,106.55875536694833L134.8246905526638,109.41415719154865L135.05674721808433,114.73258102539904L135.28880388350487,110.68962322222572L135.5208605489254,106.36765037185988L135.75291721434593,108.1920841136275L135.98497387976647,107.26142723898614L136.21703054518701,110.09396751589242L136.44908721060753,113.31124516270869L136.68114387602807,103.94830104580659L136.9132005414486,106.19702756914191L137.14525720686913,104.39188085969745L137.37731387228965,108.63637663763832L137.6093705377102,106.07407959106358L137.8414272031307,103.36759032245024L138.07348386855125,110.2476004058277L138.30554053397177,107.72374036426083L138.5375971993923,102.33876036997742L138.76965386481285,112.24787618134559L139.00171053023337,103.27108388982235L139.2337671956539,102.41839201991891L139.46582386107445,115.2770531803483L139.697880526495,107.43781751129026L139.9299371919155,106.1471488255159L140.16199385733603,112.71527147801415L140.39405052275657,112.96578360279389L140.62610718817712,109.50859676482864L140.85816385359766,106.5980750360279L141.09022051901817,108.81492148745892L141.3222771844387,108.16079065697579L141.55433384985923,109.34543000644251L141.78639051527978,110.09239407124295L142.0184471807003,113.17854950314356L142.25050384612084,107.85156218308258L142.48256051154138,106.89830691525302L142.7146171769619,113.27308227697769L142.9466738423824,107.69001272843022L143.17873050780295,114.75437350791316L143.4107871732235,109.23683491370306L143.64284383864404,110.29466668567262L143.87490050406458,110.78865155220115L144.10695716948507,113.11603934323767L144.33901383490561,112.32935539521343L144.57107050032616,110.50939528004493L144.8031271657467,113.12954794120367L145.03518383116722,113.96533761649303L145.26724049658776,113.88245491192745L145.49929716200828,108.02827591613342L145.73135382742882,117.19146931595341L145.96341049284936,110.61016152623594L146.19546715826988,112.47149720506077L146.42752382369042,114.60455635831241L146.65958048911097,114.99794493260163L146.89163715453148,112.02358082420925L147.123693819952,115.51983514151928L147.35575048537254,111.84296911504076L147.58780715079308,112.87542292435428L147.81986381621363,110.95765156879983L148.0519204816341,114.53252877711235L148.28397714705466,112.08786179464391L148.5160338124752,112.43886056395222L148.74809047789574,112.3188566269079L148.9801471433163,119.81843658233603L149.2122038087368,114.70149041701227L149.44426047415732,114.09565392073462L149.67631713957786,112.60057997255628L149.9083738049984,115.36396543828444L150.14043047041892,115.39372382698545L150.37248713583946,115.08332760497261L150.60454380126,114.27202226349657L150.83660046668052,112.38374065975178L151.06865713210107,115.1504868278148L151.30071379752158,115.2209903058353L151.53277046294212,113.36317980091148L151.76482712836267,111.98540149132162L151.9968837937832,116.4895594955054L152.2289404592037,113.45394617588092L152.46099712462424,117.31837009400472L152.6930537900448,113.88689564421334L152.92511045546533,112.94347029365368L153.15716712088587,112.14756497315426L153.38922378630636,112.31619218753636L153.6212804517269,113.11146155131335L153.85333711714745,111.61932616178345L154.085393782568,117.30078260119838L154.3174504479885,113.33918339941104L154.54950711340905,117.45745273272179L154.78156377882956,115.98598045428514L155.0136204442501,114.1108730229885L155.24567710967062,112.08041123269759L155.47773377509117,114.34575486659901L155.7097904405117,118.90507663406753L155.94184710593225,114.35151685379958L156.17390377135277,118.2727492508696L156.40596043677328,115.48655157891723L156.63801710219383,120.42214591302489L156.87007376761437,119.72195207925033L157.10213043303492,116.76890896821577L157.33418709845543,115.45049392923289L157.56624376387595,120.1901423218219L157.7983004292965,119.25261601810128L158.03035709471703,116.6490037141111L158.26241376013758,112.73194341243564L158.4944704255581,120.15614056671437L158.7265270909786,116.46299733757313L158.95858375639915,120.35294176037696L159.1906404218197,118.00750595614886L159.4226970872402,116.13371429738137L159.65475375266075,116.18965655941255L159.8868104180813,119.1230891773772L160.1188670835018,118.96071736489411L160.35092374892233,117.92820873172522L160.58298041434287,117.31342498224932L160.8150370797634,116.13886225740168L161.04709374518396,115.62349608727442L161.2791504106045,118.09734580796236L161.511207076025,113.96953712381526L161.74326374144553,116.3785028116593L161.97532040686608,119.10664750314832L162.20737707228662,114.85231632555201L162.43943373770713,120.13727567807763L162.67149040312768,121.90379898140588L162.9035470685482,121.48962668354159L163.13560373396874,120.841033062452L163.36766039938928,121.78581256223957L163.5997170648098,117.2440344284931L163.83177373023034,121.01454508234856L164.06383039565088,118.28945956198984L164.2958870610714,114.18895315782267L164.5279437264919,119.89423604478637L164.76000039191246,118.86205635474975L164.992057057333,112.79273758566805L165.22411372275354,118.89977516725216L165.45617038817403,118.06472561401043L165.68822705359457,117.5398639521311L165.92028371901512,119.348886708151L166.15234038443566,116.56633482258151L166.3843970498562,118.82589453974019L166.61645371527672,111.96354322018107L166.84851038069723,115.16834295751255L167.08056704611778,119.7669405349763L167.31262371153832,112.0895832637029L167.54468037695884,121.26881812360747L167.77673704237938,108.2191670981859L168.00879370779992,113.81237357759342L168.24085037322044,120.5047599806991L168.47290703864098,121.40026379926991L168.7049637040615,119.28201256935677L168.93702036948204,120.40777658052943L169.16907703490259,116.38475273117278L169.40113370032313,119.17992506825108L169.63319036574362,122.05835291211157L169.86524703116416,120.54324084479133L170.0973036965847,116.2407633573991L170.32936036200525,116.30305970426897L170.5614170274258,118.9740560089084L170.79347369284628,115.83701855682835L171.02553035826682,121.85089944334837L171.25758702368736,117.87258444805526L171.4896436891079,120.09696917960122L171.72170035452842,120.48111993425867L171.95375701994897,117.23148524799629L172.18581368536948,118.54758123789652L172.41787035079003,124.63853898269726L172.64992701621054,118.99450530696566L172.88198368163108,120.34050770997646L173.11404034705163,121.19307348501253L173.34609701247217,118.47620606057549L173.5781536778927,113.82153464382765L173.8102103433132,118.74428374861945L174.04226700873375,120.86493078101275L174.2743236741543,124.20198758706628L174.50638033957483,122.79257591292136L174.73843700499535,123.20278444604158L174.97049367041586,120.04921211917849L175.2025503358364,116.37946771151401L175.43460700125695,120.74900573880878L175.6666636666775,113.34189718025242L175.898720332098,121.28273241810328L176.13077699751852,117.9221123190068L176.36283366293907,116.94437819974945L176.5948903283596,120.01563250775739L176.82694699378013,118.36966138002728L177.05900365920067,120.50015477684707L177.2910603246212,122.85161024039606L177.52311699004173,115.86535152528944L177.75517365546224,121.26308903072011L177.9872303208828,119.48712505949518L178.21928698630333,122.8332168369156L178.45134365172387,124.05860675808732L178.68340031714442,120.98546102706872L178.9154569825649,121.7733236879837L179.14751364798545,121.98757531481418L179.379570313406,118.9717259950547L179.61162697882654,123.01569803955256L179.84368364424705,121.75876247199439L180.0757403096676,120.37441078214432L180.3077969750881,116.76554278349535L180.53985364050865,119.48289814024528L180.7719103059292,121.13772880300502L181.0039669713497,121.99602367092845L181.23602363677026,125.66058174187384L181.4680803021908,123.22463723479662L181.70013696761131,119.57183888083054L181.93219363303183,121.77269869603235L182.16425029845237,116.3892263577719L182.39630696387292,119.88923610917558L182.62836362929346,120.23627659612535L182.86042029471395,124.9671038303835L183.0924769601345,123.54066386675713L183.32453362555503,123.67271260482875L183.55659029097558,123.35157090716115L183.78864695639612,116.8727563150792L184.02070362181664,119.73843213017798L184.25276028723715,122.57988676596925L184.4848169526577,122.32184184346008L184.71687361807824,120.04670666898755L184.94893028349875,120.65206071533785L185.1809869489193,119.07287600823337L185.41304361433984,121.82609164878828L185.64510027976036,123.28293144022363L185.8771569451809,118.24314436896364L186.10921361060142,126.18836551524501L186.34127027602196,126.933613593372L186.5733269414425,125.07386780635323L186.80538360686305,125.17141589223334L187.03744027228353,118.67401601317711L187.26949693770408,121.63452613331462L187.50155360312462,120.28523978136647L187.73361026854516,123.81144437087137L187.9656669339657,123.3115878694315L188.1977235993862,122.95627994509022L188.42978026480674,126.26192816439575L188.66183693022728,123.30295859459447L188.89389359564782,122.63204069959356L189.12595026106834,123.42039677520695L189.35800692648888,121.76792902061418L189.5900635919094,121.99008076500512L189.82212025732994,124.66083036229533L190.05417692275046,123.08228709429882L190.286233588171,122.61335672967958L190.51829025359154,120.18424875736841L190.7503469190121,122.8964506717125L190.9824035844326,123.11115185415713L191.21446024985312,123.88261121754195L191.44651691527366,125.59472184440419L191.6785735806942,126.62018561215658L191.91063024611475,122.45542016709688L192.14268691153526,123.96778555926251L192.37474357695578,120.85865344957156L192.60680024237632,123.04372399442353L192.83885690779687,121.92132068558575L193.0709135732174,121.38901394414565L193.30297023863793,123.37192700466426L193.53502690405844,126.51036246505656L193.76708356947898,124.81603669688006L193.99914023489953,121.85093233766159L194.23119690032004,123.98125578052972L194.4632535657406,121.4491337839569L194.69531023116113,124.4043698492067L194.92736689658165,125.00275030115249L195.15942356200216,119.2117229043723L195.3914802274227,123.89340603466655L195.62353689284325,122.3625924151651L195.8555935582638,123.59080028250342L196.08765022368434,120.51782998782205L196.31970688910482,124.75617452918912L196.55176355452537,127.08318951800908L196.7838202199459,124.95653927345151L197.01587688536645,124.16783232516369L197.24793355078697,126.25573306873767L197.4799902162075,126.43480422756991L197.71204688162803,124.02993388172285L197.94410354704857,123.54758263730625L198.1761602124691,119.88419779686603L198.40821687788963,121.88637596016567L198.64027354331017,116.30534037665282L198.87233020873072,124.8922692677879L199.10438687415123,124.28506765751126L199.33644353957175,126.42362564345765L199.5685002049923,122.21799449659665L199.80055687041283,118.06457758960089L200.03261353583338,116.37566841833609L200.26467020125386,124.41400240059721L200.4967268666744,117.18745072735395L200.72878353209495,119.28705636405188L200.9608401975155,129.16241164527617L201.19289686293604,120.7247900418868L201.42495352835655,123.45638863626485L201.65701019377707,121.46774100047332L201.8890668591976,117.64082208181594L202.12112352461816,126.70849039601939L202.35318019003867,123.78186141850757L202.58523685545921,120.07513283800282L202.81729352087976,124.85629933627216L203.04935018630027,125.00929078709947L203.28140685172082,123.73510763463833L203.51346351714133,124.72905865031748L203.74552018256188,125.88168635062702L203.97757684798242,122.12358781762988L204.20963351340296,123.32802406127485L204.44169017882345,123.5545014078554L204.673746844244,123.93681556335756L204.90580350966454,116.59275443848979L205.13786017508508,122.79187964995803L205.36991684050562,123.03928874452319L205.6019735059261,124.44240664007032L205.83403017134665,120.87315984170547L206.0660868367672,124.49939603773927L206.29814350218774,122.39569505904437L206.53020016760826,119.0699758262837L206.7622568330288,123.54798833383609L206.99431349844932,123.36230541804483L207.22637016386986,123.6911608321646L207.45842682929037,124.80151933997507L207.69048349471092,125.191777472122L207.92254016013146,120.36993167315966L208.154596825552,124.71527593307461L208.38665349097252,125.46163693546583L208.61871015639304,127.13921401582331L208.85076682181358,115.59867732794326L209.08282348723412,123.79583601924429L209.31488015265467,119.66404164081096L209.54693681807518,122.17732616067474L209.7789934834957,123.22923147387756L210.01105014891624,117.0108247124717L210.24310681433678,121.8582951814393L210.47516347975733,118.3644585961516L210.70722014517784,126.18285571777918L210.93927681059836,122.21219961508285L211.1713334760189,123.92871807991772L211.40339014143944,121.80892629966837L211.63544680685996,122.48053497524708L211.8675034722805,122.75166086965024L212.09956013770105,123.35821555843337L212.33161680312156,120.82793016101583L212.56367346854208,123.82246944818857L212.79573013396262,124.91924808702107L213.02778679938316,126.96492897956585L213.2598434648037,119.1916135142184L213.49190013022425,116.77919392348532L213.72395679564474,124.08428076956244L213.95601346106528,125.15701914781019L214.18807012648583,122.44184578050442L214.42012679190637,120.3121528119732L214.65218345732688,125.12879582705985L214.88424012274743,125.70284545198737L215.11629678816794,124.76149792554665L215.3483534535885,126.03168990133607L215.58041011900903,122.79922604657914L215.81246678442955,123.40089044746225L216.0445234498501,128.72404558003208L216.27658011527063,126.59141953523796L216.50863678069115,125.18592776675281L216.74069344611166,127.62210801640818L216.9727501115322,126.78307825126578L217.20480677695275,124.6665484904116L217.4368634423733,120.23152885024932L217.66892010779378,124.78745702106974L217.90097677321432,126.84798969603735L218.13303343863487,123.28825483658119L218.3650901040554,125.68031284742563L218.59714676947596,126.96734122920263L218.82920343489647,125.12672348532642L219.06126010031699,129.0047711315125L219.29331676573753,128.22255532770183L219.52537343115807,125.07708048427858L219.7574300965786,124.68172921596671L219.98948676199913,124.4395722467471L220.22154342741968,122.51967372560385L220.4536000928402,126.33309501106635L220.68565675826073,128.76595841747115L220.91771342368125,123.79120888585011L221.1497700891018,123.37247524321808L221.38182675452234,127.20953109273549L221.61388341994288,125.20409091004065L221.84594008536337,123.23052531686457L222.0779967507839,123.55116263506267L222.31005341620445,120.51302741809064L222.542110081625,123.845314548726L222.77416674704554,123.05427210419892L223.00622341246603,123.77472335253691L223.23828007788657,120.82881282508748L223.47033674330712,119.83492759803478L223.70239340872766,127.39241799190228L223.93445007414817,125.00807369751001L224.16650673956872,121.09152874007512L224.39856340498923,126.25963652724081L224.63062007040978,123.71642366472435L224.8626767358303,124.0939352504951L225.09473340125083,123.85845582686092L225.32679006667138,125.44686190644056L225.55884673209192,124.18296919163447L225.79090339751244,127.16153828973462L226.02296006293295,122.67005556091503L226.2550167283535,123.35085271465566L226.48707339377404,124.43752731694137L226.71913005919458,127.21972832983643L226.9511867246151,127.8696706177684L227.1832433900356,127.46089298727365L227.41530005545616,123.79891163753118L227.6473567208767,123.74682897491886L227.87941338629724,125.50518900618081L228.11147005171776,119.64346624788632L228.34352671713827,119.57227198928803L228.57558338255882,121.32010584031678L228.80764004797936,125.29270818987914L229.03969671339988,119.922717037657L229.27175337882042,129.04075751018487L229.50381004424096,124.61520594984694L229.73586670966148,126.62686864012755L229.967923375082,120.06819762029707L230.19998004050254,125.03438914809308L230.43203670592308,123.5715954859633L230.66409337134363,127.03356844650337L230.89615003676417,126.05139907734565L231.12820670218466,124.98019028466305L231.3602633676052,121.51773487419564L231.59232003302574,127.23756801237752L231.8243766984463,124.89525168552065L232.0564333638668,123.15814138060452L232.28849002928735,127.68754028780589L232.52054669470786,124.44350311717795L232.7526033601284,121.16016820701263L232.98466002554895,127.77362470552575L233.21671669096946,129.81836262775795L233.44877335639,127.71281956752225L233.68083002181055,125.89535393777359L233.91288668723107,129.88133879043457L234.14494335265158,129.23744905613668L234.37700001807212,127.89785556181998L234.60905668349267,125.96676200940786L234.8411133489132,127.24686613825023L235.0731700143337,129.12724762443455L235.30522667975424,120.7538960267088L235.53728334517479,126.3432374243119L235.76934001059533,125.41540946060825L236.00139667601587,126.03694750906713L236.2334533414364,127.70245785885517L236.4655100068569,129.32784811127507L236.69756667227745,126.11696840838182L236.929623337698,122.967606553612L237.1616800031185,123.31248698065974L237.39373666853905,122.71785099803654L237.6257933339596,123.94916737797499L237.8578499993801,126.36523823747648L238.08990666480065,127.9062216821512L238.32196333022117,128.18352622505583L238.5540199956417,122.8543349860085L238.78607666106225,124.22210245960572L239.0181333264828,127.02819570867598L239.25018999190328,129.46513800992116L239.48224665732383,122.33113448694724L239.71430332274437,122.89622589390542L239.94635998816491,117.6781461625596L240.17841665358546,125.3940720160938L240.41047331900594,125.14632301362529L240.6425299844265,126.15881545719442L240.87458664984703,127.45480753932631L241.10664331526758,125.52520519578056L241.3386999806881,129.41079660446712L241.57075664610863,122.42275063167509L241.80281331152915,124.30206853506502L242.0348699769497,126.65806341383959L242.2669266423702,130.86324500508644L242.49898330779075,128.15109791459773L242.7310399732113,126.40367524248437L242.96309663863184,127.85874422339089L243.19515330405235,128.475496149275L243.42720996947287,126.63836520260102L243.6592666348934,129.2262375777112L243.89132330031396,127.81727545918042L244.1233799657345,123.92065897317666L244.35543663115502,125.54582993017505L244.58749329657553,122.30644730486898L244.81954996199607,122.06574865020252L245.05160662741662,126.82062162743095L245.28366329283716,124.27746358876985L245.51571995825768,128.63801050378206L245.7477766236782,124.22670218107221L245.97983328909874,128.41953195770165L246.21188995451928,122.34414418782924L246.4439466199398,124.92342566480114L246.67600328536034,123.00746349647429L246.90805995078088,121.20981120806049L247.1401166162014,124.73231518732715L247.3721732816219,124.40106945311275L247.60422994704246,120.13435356658579L247.836286612463,122.97682792608717L248.06834327788354,127.46182499281512L248.3003999433041,126.96382702007269L248.53245660872457,126.31754148329466L248.76451327414512,124.48339295435343L248.99656993956566,127.78301603195258L249.2286266049862,125.31240091873214L249.46068327040672,128.00434541851283L249.69273993582726,125.86697711022818L249.92479660124778,122.14533644105968L250.15685326666832,128.55198639230312L250.38890993208886,126.84097224254853L250.62096659750938,127.50363366492898L250.85302326292992,128.87103930108069L251.08507992835047,122.66934285079506L251.31713659377098,124.2877485440394L251.5491932591915,125.27293870762861L251.78124992461204,124.040377826173L252.01330659003258,122.96768878939508L252.24536325545313,128.15514939751043L252.47741992087361,124.59658228617387L252.70947658629416,124.44035622787905L252.9415332517147,124.56489958014897L253.17358991713525,130.1867734535354L253.4056465825558,123.03780850042789L253.6377032479763,127.55253106154365L253.86975991339682,125.33584908167876L254.10181657881736,127.75356465684169L254.3338732442379,124.42532352673348L254.56592990965842,128.82084257909347L254.79798657507897,128.10914121807434L255.0300432404995,129.6861932772045L255.26209990592002,127.41947904691854" fill="none"></path></g></g></g></g></g></g><g transform="translate(51, 176)" clip-path="url(#clip_1)"><clipPath id="clip_1"><rect width="278" height="23"></rect></clipPath><g><g><line x1="0" y1="0" x2="0" y2="5" style="visibility: inherit;" fill="rgb(0, 0, 0)" stroke="rgb(204, 204, 204)" stroke-width="1px"></line><line x1="23.205666542053223" y1="0" x2="23.205666542053223" y2="5" style="visibility: inherit;" fill="rgb(0, 0, 0)" stroke="rgb(204, 204, 204)" stroke-width="1px"></line><line x1="46.411333084106445" y1="0" x2="46.411333084106445" y2="5" style="visibility: inherit;" fill="rgb(0, 0, 0)" stroke="rgb(204, 204, 204)" stroke-width="1px"></line><line x1="69.61699962615967" y1="0" x2="69.61699962615967" y2="5" style="visibility: inherit;" fill="rgb(0, 0, 0)" stroke="rgb(204, 204, 204)" stroke-width="1px"></line><line x1="92.82266616821289" y1="0" x2="92.82266616821289" y2="5" style="visibility: inherit;" fill="rgb(0, 0, 0)" stroke="rgb(204, 204, 204)" stroke-width="1px"></line><line x1="116.02833271026611" y1="0" x2="116.02833271026611" y2="5" style="visibility: inherit;" fill="rgb(0, 0, 0)" stroke="rgb(204, 204, 204)" stroke-width="1px"></line><line x1="139.23399925231934" y1="0" x2="139.23399925231934" y2="5" style="visibility: inherit;" fill="rgb(0, 0, 0)" stroke="rgb(204, 204, 204)" stroke-width="1px"></line><line x1="162.43966579437256" y1="0" x2="162.43966579437256" y2="5" style="visibility: inherit;" fill="rgb(0, 0, 0)" stroke="rgb(204, 204, 204)" stroke-width="1px"></line><line x1="185.64533233642578" y1="0" x2="185.64533233642578" y2="5" style="visibility: inherit;" fill="rgb(0, 0, 0)" stroke="rgb(204, 204, 204)" stroke-width="1px"></line><line x1="208.850998878479" y1="0" x2="208.850998878479" y2="5" style="visibility: inherit;" fill="rgb(0, 0, 0)" stroke="rgb(204, 204, 204)" stroke-width="1px"></line><line x1="232.05666542053223" y1="0" x2="232.05666542053223" y2="5" style="visibility: inherit;" fill="rgb(0, 0, 0)" stroke="rgb(204, 204, 204)" stroke-width="1px"></line><line x1="255.26233196258545" y1="0" x2="255.26233196258545" y2="5" style="visibility: inherit;" fill="rgb(0, 0, 0)" stroke="rgb(204, 204, 204)" stroke-width="1px"></line><line x1="278.4679985046387" y1="0" x2="278.4679985046387" y2="5" style="visibility: inherit;" fill="rgb(0, 0, 0)" stroke="rgb(204, 204, 204)" stroke-width="1px"></line></g><g transform="translate(0, 8)"><text style="text-anchor: middle; visibility: hidden; font-family: Roboto, sans-serif; font-size: 12px; font-weight: 200;" x="0" y="0" dx="0em" dy="0.95em" fill="rgb(33, 33, 33)" stroke="none" stroke-width="1px">-100k</text><text style="text-anchor: middle; visibility: inherit; font-family: Roboto, sans-serif; font-size: 12px; font-weight: 200;" x="23.205666542053223" y="0" dx="0em" dy="0.95em" fill="rgb(33, 33, 33)" stroke="none" stroke-width="1px">0</text><text style="text-anchor: middle; visibility: hidden; font-family: Roboto, sans-serif; font-size: 12px; font-weight: 200;" x="46.411333084106445" y="0" dx="0em" dy="0.95em" fill="rgb(33, 33, 33)" stroke="none" stroke-width="1px">100k</text><text style="text-anchor: middle; visibility: inherit; font-family: Roboto, sans-serif; font-size: 12px; font-weight: 200;" x="69.61699962615967" y="0" dx="0em" dy="0.95em" fill="rgb(33, 33, 33)" stroke="none" stroke-width="1px">200k</text><text style="text-anchor: middle; visibility: hidden; font-family: Roboto, sans-serif; font-size: 12px; font-weight: 200;" x="92.82266616821289" y="0" dx="0em" dy="0.95em" fill="rgb(33, 33, 33)" stroke="none" stroke-width="1px">300k</text><text style="text-anchor: middle; visibility: inherit; font-family: Roboto, sans-serif; font-size: 12px; font-weight: 200;" x="116.02833271026611" y="0" dx="0em" dy="0.95em" fill="rgb(33, 33, 33)" stroke="none" stroke-width="1px">400k</text><text style="text-anchor: middle; visibility: hidden; font-family: Roboto, sans-serif; font-size: 12px; font-weight: 200;" x="139.23399925231934" y="0" dx="0em" dy="0.95em" fill="rgb(33, 33, 33)" stroke="none" stroke-width="1px">500k</text><text style="text-anchor: middle; visibility: inherit; font-family: Roboto, sans-serif; font-size: 12px; font-weight: 200;" x="162.43966579437256" y="0" dx="0em" dy="0.95em" fill="rgb(33, 33, 33)" stroke="none" stroke-width="1px">600k</text><text style="text-anchor: middle; visibility: hidden; font-family: Roboto, sans-serif; font-size: 12px; font-weight: 200;" x="185.64533233642578" y="0" dx="0em" dy="0.95em" fill="rgb(33, 33, 33)" stroke="none" stroke-width="1px">700k</text><text style="text-anchor: middle; visibility: inherit; font-family: Roboto, sans-serif; font-size: 12px; font-weight: 200;" x="208.850998878479" y="0" dx="0em" dy="0.95em" fill="rgb(33, 33, 33)" stroke="none" stroke-width="1px">800k</text><text style="text-anchor: middle; visibility: hidden; font-family: Roboto, sans-serif; font-size: 12px; font-weight: 200;" x="232.05666542053223" y="0" dx="0em" dy="0.95em" fill="rgb(33, 33, 33)" stroke="none" stroke-width="1px">900k</text><text style="text-anchor: middle; visibility: inherit; font-family: Roboto, sans-serif; font-size: 12px; font-weight: 200;" x="255.26233196258545" y="0" dx="0em" dy="0.95em" fill="rgb(33, 33, 33)" stroke="none" stroke-width="1px">1M</text><text style="text-anchor: middle; visibility: hidden; font-family: Roboto, sans-serif; font-size: 12px; font-weight: 200;" x="278.4679985046387" y="0" dx="0em" dy="0.95em" fill="rgb(33, 33, 33)" stroke="none" stroke-width="1px">1.1M</text></g><line x1="0" y1="0" x2="278.4679985046387" y2="0" fill="rgb(0, 0, 0)" stroke="rgb(204, 204, 204)" stroke-width="1px"></line></g></g></g></g></svg>