<svg viewBox="0 0 330 200" xmlns="http://www.w3.org/2000/svg"><g><g><g><g><g><line x1="30.766000747680664" y1="176.5999994277954" x2="25.766000747680664" y2="176.5999994277954" style="visibility: inherit;" fill="rgb(0, 0, 0)" stroke="rgb(204, 204, 204)" stroke-width="1px"></line><line x1="30.766000747680664" y1="161.88333280881244" x2="25.766000747680664" y2="161.88333280881244" style="visibility: inherit;" fill="rgb(0, 0, 0)" stroke="rgb(204, 204, 204)" stroke-width="1px"></line><line x1="30.766000747680664" y1="147.16666618982953" x2="25.766000747680664" y2="147.16666618982953" style="visibility: inherit;" fill="rgb(0, 0, 0)" stroke="rgb(204, 204, 204)" stroke-width="1px"></line><line x1="30.766000747680664" y1="132.44999957084656" x2="25.766000747680664" y2="132.44999957084656" style="visibility: inherit;" fill="rgb(0, 0, 0)" stroke="rgb(204, 204, 204)" stroke-width="1px"></line><line x1="30.766000747680664" y1="117.73333295186362" x2="25.766000747680664" y2="117.73333295186362" style="visibility: inherit;" fill="rgb(0, 0, 0)" stroke="rgb(204, 204, 204)" stroke-width="1px"></line><line x1="30.766000747680664" y1="103.01666633288065" x2="25.766000747680664" y2="103.01666633288065" style="visibility: inherit;" fill="rgb(0, 0, 0)" stroke="rgb(204, 204, 204)" stroke-width="1px"></line><line x1="30.766000747680664" y1="88.2999997138977" x2="25.766000747680664" y2="88.2999997138977" style="visibility: inherit;" fill="rgb(0, 0, 0)" stroke="rgb(204, 204, 204)" stroke-width="1px"></line><line x1="30.766000747680664" y1="73.58333309491475" x2="25.766000747680664" y2="73.58333309491475" style="visibility: inherit;" fill="rgb(0, 0, 0)" stroke="rgb(204, 204, 204)" stroke-width="1px"></line><line x1="30.766000747680664" y1="58.86666647593181" x2="25.766000747680664" y2="58.86666647593181" style="visibility: inherit;" fill="rgb(0, 0, 0)" stroke="rgb(204, 204, 204)" stroke-width="1px"></line><line x1="30.766000747680664" y1="44.14999985694885" x2="25.766000747680664" y2="44.14999985694885" style="visibility: inherit;" fill="rgb(0, 0, 0)" stroke="rgb(204, 204, 204)" stroke-width="1px"></line><line x1="30.766000747680664" y1="29.433333237965893" x2="25.766000747680664" y2="29.433333237965893" style="visibility: inherit;" fill="rgb(0, 0, 0)" stroke="rgb(204, 204, 204)" stroke-width="1px"></line><line x1="30.766000747680664" y1="14.716666618982957" x2="25.766000747680664" y2="14.716666618982957" style="visibility: inherit;" fill="rgb(0, 0, 0)" stroke="rgb(204, 204, 204)" stroke-width="1px"></line><line x1="30.766000747680664" y1="0" x2="25.766000747680664" y2="0" style="visibility: inherit;" fill="rgb(0, 0, 0)" stroke="rgb(204, 204, 204)" stroke-width="1px"></line></g><g transform="translate(20.766000747680664, 0)"><text style="text-anchor: end; visibility: hidden; font-family: Roboto, sans-serif; font-size: 12px; font-weight: 200;" x="0" y="176.5999994277954" dx="0em" dy="0.3em" fill="rgb(33, 33, 33)" stroke="none" stroke-width="1px">-5</text><text style="text-anchor: end; visibility: inherit; font-family: Roboto, sans-serif; font-size: 12px; font-weight: 200;" x="0" y="161.88333280881244" dx="0em" dy="0.3em" fill="rgb(33, 33, 33)" stroke="none" stroke-width="1px">0</text><text style="text-anchor: end; visibility: hidden; font-family: Roboto, sans-serif; font-size: 12px; font-weight: 200;" x="0" y="147.16666618982953" dx="0em" dy="0.3em" fill="rgb(33, 33, 33)" stroke="none" stroke-width="1px">5</text><text style="text-anchor: end; visibility: inherit; font-family: Roboto, sans-serif; font-size: 12px; font-weight: 200;" x="0" y="132.44999957084656" dx="0em" dy="0.3em" fill="rgb(33, 33, 33)" stroke="none" stroke-width="1px">10</text><text style="text-anchor: end; visibility: hidden; font-family: Roboto, sans-serif; font-size: 12px; font-weight: 200;" x="0" y="117.73333295186362" dx="0em" dy="0.3em" fill="rgb(33, 33, 33)" stroke="none" stroke-width="1px">15</text><text style="text-anchor: end; visibility: inherit; font-family: Roboto, sans-serif; font-size: 12px; font-weight: 200;" x="0" y="103.01666633288065" dx="0em" dy="0.3em" fill="rgb(33, 33, 33)" stroke="none" stroke-width="1px">20</text><text style="text-anchor: end; visibility: hidden; font-family: Roboto, sans-serif; font-size: 12px; font-weight: 200;" x="0" y="88.2999997138977" dx="0em" dy="0.3em" fill="rgb(33, 33, 33)" stroke="none" stroke-width="1px">25</text><text style="text-anchor: end; visibility: inherit; font-family: Roboto, sans-serif; font-size: 12px; font-weight: 200;" x="0" y="73.58333309491475" dx="0em" dy="0.3em" fill="rgb(33, 33, 33)" stroke="none" stroke-width="1px">30</text><text style="text-anchor: end; visibility: hidden; font-family: Roboto, sans-serif; font-size: 12px; font-weight: 200;" x="0" y="58.86666647593181" dx="0em" dy="0.3em" fill="rgb(33, 33, 33)" stroke="none" stroke-width="1px">35</text><text style="text-anchor: end; visibility: inherit; font-family: Roboto, sans-serif; font-size: 12px; font-weight: 200;" x="0" y="44.14999985694885" dx="0em" dy="0.3em" fill="rgb(33, 33, 33)" stroke="none" stroke-width="1px">40</text><text style="text-anchor: end; visibility: hidden; font-family: Roboto, sans-serif; font-size: 12px; font-weight: 200;" x="0" y="29.433333237965893" dx="0em" dy="0.3em" fill="rgb(33, 33, 33)" stroke="none" stroke-width="1px">45</text><text style="text-anchor: end; visibility: inherit; font-family: Roboto, sans-serif; font-size: 12px; font-weight: 200;" x="0" y="14.716666618982957" dx="0em" dy="0.3em" fill="rgb(33, 33, 33)" stroke="none" stroke-width="1px">50</text><text style="text-anchor: end; visibility: hidden; font-family: Roboto, sans-serif; font-size: 12px; font-weight: 200;" x="0" y="0" dx="0em" dy="0.3em" fill="rgb(33, 33, 33)" stroke="none" stroke-width="1px">55</text></g><line x1="30.766000747680664" y1="0" x2="30.766000747680664" y2="176.5999994277954" fill="rgb(0, 0, 0)" stroke="rgb(204, 204, 204)" stroke-width="1px"></line></g></g><g transform="translate(30, 0)" clip-path="url(#clip_0)"><clipPath id="clip_0"><rect width="299" height="176"></rect></clipPath><g><g><g><line x1="0" y1="0" x2="0" y2="176.5999994277954" fill="rgb(0, 0, 0)" stroke="rgb(66, 66, 66)" stroke-width="1px" opacity="0.25"></line><line x1="24.936166604359943" y1="0" x2="24.936166604359943" y2="176.5999994277954" fill="rgb(0, 0, 0)" stroke="rgb(66, 66, 66)" stroke-width="1px" opacity="0.25"></line><line x1="49.87233320871989" y1="0" x2="49.87233320871989" y2="176.5999994277954" fill="rgb(0, 0, 0)" stroke="rgb(66, 66, 66)" stroke-width="1px" opacity="0.25"></line><line x1="74.80849981307983" y1="0" x2="74.80849981307983" y2="176.5999994277954" fill="rgb(0, 0, 0)" stroke="rgb(66, 66, 66)" stroke-width="1px" opacity="0.25"></line><line x1="99.74466641743977" y1="0" x2="99.74466641743977" y2="176.5999994277954" fill="rgb(0, 0, 0)" stroke="rgb(66, 66, 66)" stroke-width="1px" opacity="0.25"></line><line x1="124.68083302179973" y1="0" x2="124.68083302179973" y2="176.5999994277954" fill="rgb(0, 0, 0)" stroke="rgb(66, 66, 66)" stroke-width="1px" opacity="0.25"></line><line x1="149.61699962615967" y1="0" x2="149.61699962615967" y2="176.5999994277954" fill="rgb(0, 0, 0)" stroke="rgb(66, 66, 66)" stroke-width="1px" opacity="0.25"></line><line x1="174.55316623051962" y1="0" x2="174.55316623051962" y2="176.5999994277954" fill="rgb(0, 0, 0)" stroke="rgb(66, 66, 66)" stroke-width="1px" opacity="0.25"></line><line x1="199.48933283487955" y1="0" x2="199.48933283487955" y2="176.5999994277954" fill="rgb(0, 0, 0)" stroke="rgb(66, 66, 66)" stroke-width="1px" opacity="0.25"></line><line x1="224.4254994392395" y1="0" x2="224.4254994392395" y2="176.5999994277954" fill="rgb(0, 0, 0)" stroke="rgb(66, 66, 66)" stroke-width="1px" opacity="0.25"></line><line x1="249.36166604359946" y1="0" x2="249.36166604359946" y2="176.5999994277954" fill="rgb(0, 0, 0)" stroke="rgb(66, 66, 66)" stroke-width="1px" opacity="0.25"></line><line x1="274.29783264795935" y1="0" x2="274.29783264795935" y2="176.5999994277954" fill="rgb(0, 0, 0)" stroke="rgb(66, 66, 66)" stroke-width="1px" opacity="0.25"></line><line x1="299.23399925231934" y1="0" x2="299.23399925231934" y2="176.5999994277954" fill="rgb(0, 0, 0)" stroke="rgb(66, 66, 66)" stroke-width="1px" opacity="0.25"></line></g><g><line x1="0" y1="176.5999994277954" x2="299.23399925231934" y2="176.5999994277954" fill="rgb(0, 0, 0)" stroke="rgb(66, 66, 66)" stroke-width="1px" opacity="0.25"></line><line x1="0" y1="161.88333280881244" x2="299.23399925231934" y2="161.88333280881244" fill="rgb(0, 0, 0)" stroke="rgb(66, 66, 66)" stroke-width="1px" opacity="0.25"></line><line x1="0" y1="147.16666618982953" x2="299.23399925231934" y2="147.16666618982953" fill="rgb(0, 0, 0)" stroke="rgb(66, 66, 66)" stroke-width="1px" opacity="0.25"></line><line x1="0" y1="132.44999957084656" x2="299.23399925231934" y2="132.44999957084656" fill="rgb(0, 0, 0)" stroke="rgb(66, 66, 66)" stroke-width="1px" opacity="0.25"></line><line x1="0" y1="117.73333295186362" x2="299.23399925231934" y2="117.73333295186362" fill="rgb(0, 0, 0)" stroke="rgb(66, 66, 66)" stroke-width="1px" opacity="0.25"></line><line x1="0" y1="103.01666633288065" x2="299.23399925231934" y2="103.01666633288065" fill="rgb(0, 0, 0)" stroke="rgb(66, 66, 66)" stroke-width="1px" opacity="0.25"></line><line x1="0" y1="88.2999997138977" x2="299.23399925231934" y2="88.2999997138977" fill="rgb(0, 0, 0)" stroke="rgb(66, 66, 66)" stroke-width="1px" opacity="0.25"></line><line x1="0" y1="73.58333309491475" x2="299.23399925231934" y2="73.58333309491475" fill="rgb(0, 0, 0)" stroke="rgb(66, 66, 66)" stroke-width="1px" opacity="0.25"></line><line x1="0" y1="58.86666647593181" x2="299.23399925231934" y2="58.86666647593181" fill="rgb(0, 0, 0)" stroke="rgb(66, 66, 66)" stroke-width="1px" opacity="0.25"></line><line x1="0" y1="44.14999985694885" x2="299.23399925231934" y2="44.14999985694885" fill="rgb(0, 0, 0)" stroke="rgb(66, 66, 66)" stroke-width="1px" opacity="0.25"></line><line x1="0" y1="29.433333237965893" x2="299.23399925231934" y2="29.433333237965893" fill="rgb(0, 0, 0)" stroke="rgb(66, 66, 66)" stroke-width="1px" opacity="0.25"></line><line x1="0" y1="14.716666618982957" x2="299.23399925231934" y2="14.716666618982957" fill="rgb(0, 0, 0)" stroke="rgb(66, 66, 66)" stroke-width="1px" opacity="0.25"></line><line x1="0" y1="0" x2="299.23399925231934" y2="0" fill="rgb(0, 0, 0)" stroke="rgb(66, 66, 66)" stroke-width="1px" opacity="0.25"></line></g></g></g><g><g><line x1="0" y1="161.88333280881244" x2="299.23399925231934" y2="161.88333280881244" fill="rgb(0, 0, 0)" stroke="rgb(153, 153, 153)" stroke-width="1.5px"></line></g></g><g><g><line x1="24.936166604359943" y1="0" x2="24.936166604359943" y2="176.5999994277954" fill="rgb(0, 0, 0)" stroke="rgb(153, 153, 153)" stroke-width="1.5px"></line></g></g><g><g><g><g><g><path style="fill: none;" stroke="rgb(0, 153, 136)" stroke-width="2px" d="M25.185278908737498,160.97417407837045L25.4346405747811,160.42686675038092L25.6840022408247,159.8834046266037L25.933363906868298,159.23972142179935L26.1827255729119,158.65959291731554L26.432087238955496,158.2530935986279L26.681448904999097,157.93320344734863L26.9308105710427,157.49292168048743L27.180172237086296,157.07113027889034L27.429533903129897,156.74429321399364L27.67889556917349,156.31924629582576L27.928257235217092,156.05597489824817L28.177618901260693,155.8043102653819L28.42698056730429,155.45770853708203L28.676342233347892,154.9456628955076L28.925703899391493,154.46318248489524L29.17506556543509,153.96298633092223L29.424427231478692,153.36528319951825L29.67378889752229,152.9895434454864L29.92315056356589,152.22619218904714L30.17251222960949,151.4963904931734L30.42187389565309,150.8034275786885L30.67123556169669,149.99249022858288L30.920597227740284,149.26651893451697L31.169958893783885,148.42106617957316L31.419320559827487,147.52135543372853L31.668682225871084,146.55185371691417L31.918043891914685,145.64759738401213L32.16740555795829,144.95118285418678L32.41676722400189,143.82780472101103L32.666128890045485,142.63457250880222L32.91549055608908,141.83028734515116L33.16485222213268,141.21838987986217L33.414213888176285,140.83333150405878L33.66357555421988,140.20388485553127L33.91293722026348,139.79739398904465L34.16229888630708,139.1463455065369L34.41166055235068,139.01111974560695L34.66102221839428,138.84281203155803L34.91038388443788,138.3803656291786L35.15974555048148,137.81308728240336L35.40910721652508,137.35502833163721L35.65846888256868,137.15267779805282L35.907830548612274,136.6611156422805L36.15719221465587,136.0489927676169L36.40655388069948,135.79347117538066L36.655915546743074,135.22222662270417L36.90527721278667,134.78388109953426L37.154638878830276,133.81099711229697L37.404000544873874,133.3815224821078L37.65336221091748,132.96011323863763L37.902723876961076,132.7448672601623L38.152085543004674,132.18023154668452L38.401447209048264,131.63759738139424L38.650808875091876,131.4396531842009L38.900170541135466,130.90664614413416L39.149532207179064,130.33228535918377L39.39889387322267,129.42728679253867L39.648255539266266,128.2576863059696L39.897617205309864,127.48582858395726L40.14697887135347,126.14788750762558L40.396340537397066,126.15790919066595L40.64570220344066,126.41664013316853L40.89506386948426,125.92795445905817L41.144425535527866,125.47836254543675L41.39378720157146,124.80784553538868L41.64314886761506,124.4885274036029L41.892510533658665,123.98848317995581L42.14187219970226,123.15753457115021L42.39123386574586,122.32833432748248L42.640595531789465,121.8138239334978L42.88995719783306,120.93572896940633L43.13931886387666,119.3596198575983L43.388680529920265,117.97310559373481L43.63804219596386,117.2147433310013L43.88740386200746,116.6983204471463L44.13676552805106,116.81750260946954L44.38612719409466,115.78516598691364L44.63548886013826,115.40889428755774L44.88485052618185,114.4391012510459L45.13421219222546,112.87771735426716L45.38357385826905,112.58090002704898L45.63293552431265,112.47457598774982L45.882297190356255,111.0667772901069L46.13165885639985,110.59953111611851L46.38102052244345,109.53139364272523L46.630382188487054,108.93490476500224L46.87974385453065,109.04695070874507L47.12910552057425,108.43212270949132L47.37846718661785,107.98906473483355L47.62782885266145,107.43565277703765L47.87719051870505,106.51122050160961L48.12655218474865,105.5823224533004L48.37591385079225,105.07962197169162L48.62527551683585,104.99900018281018L48.87463718287945,104.67477725423603L49.12399884892305,104.05641855178811L49.37336051496665,103.18025720418198L49.622722181010246,102.57277927363371L49.87208384705385,101.0699881287799L50.12144551309745,101.54290781608802L50.370807179141046,101.11361551030265L50.620168845184644,99.79938041319471L50.86953051122825,99.17910987137742L51.118892177271846,98.84805173209584L51.368253843315436,98.8406548175347L51.61761550935905,97.80619193496725L51.86697717540264,96.5346615918495L52.116338841446236,96.81434244041169L52.36570050748984,95.06789831588654L52.61506217353344,94.61837656704914L52.864423839577036,95.394650224193L53.11378550562064,95.53421906931563L53.36314717166424,95.11819420403344L53.612508837707836,94.54866269351506L53.86187050375143,94.73010549146416L54.11123216979504,94.22874454687664L54.360593835838635,94.15879538643904L54.60995550188223,93.56070353090318L54.85931716792584,94.07133730874506L55.108678833969435,93.58228283719004L55.35804050001303,92.64861480669613L55.60740216605664,91.66297019325533L55.856763832100235,91.2496827931171L56.10612549814383,90.76045281019644L56.35548716418744,90.76980696139651L56.604848830231035,90.71925874898542L56.85421049627463,90.41332015957163L57.10357216231822,90.02973149704758L57.352933828361834,90.4035501870663L57.602295494405425,90.2415539536955L57.85165716044902,89.41336217403526L58.10101882649263,89.99720280449635L58.350380492536225,88.99760844222848L58.59974215857982,89.02808647221595L58.84910382462343,88.50660420655811L59.098465490667024,87.30381166897718L59.34782715671062,87.6957204809503L59.59718882275422,86.93873893058343L59.846550488797824,85.99941033911706L60.09591215484142,85.78497016419585L60.34527382088502,85.48719368486479L60.594635486928624,85.17022769091494L60.84399715297222,84.33144306369735L61.09335881901582,83.33150114154327L61.342720485059424,82.34459927450021L61.59208215110302,81.5503081580785L61.84144381714662,81.15281184991439L62.09080548319022,80.63653974273609L62.34016714923382,80.40308690245047L62.58952881527742,79.36465615941982L62.838890481321016,78.48670824305559L63.08825214736462,78.60635195579326L63.33761381340822,78.08585703697858L63.58697547945181,76.73473742000877L63.83633714549542,75.71283998419666L64.08569881153902,76.16165127160713L64.33506047758262,75.78200721794055L64.58442214362621,75.25253993487571L64.83378380966981,75.02630251449224L65.08314547571341,74.5215957645574L65.33250714175702,74.45315573049693L65.58186880780062,73.6480964534315L65.83123047384422,73.50657505147252L66.08059213988781,73.07954077826305L66.32995380593141,71.8988605860774L66.57931547197501,70.76333390934747L66.8286771380186,71.48161442629959L67.07803880406222,70.48018166265588L67.3274004701058,70.84272909726238L67.5767621361494,70.04945411866844L67.82612380219301,70.8314042440676L68.07548546823661,71.51168813088158L68.3248471342802,70.92949381657363L68.5742088003238,71.62319795991176L68.8235704663674,71.79243824192702L69.072932132411,70.68295892005908L69.3222937984546,70.51004976775438L69.5716554644982,69.90732758428666L69.8210171305418,68.58851892744252L70.0703787965854,68.8578507360794L70.319740462629,69.84510357723705L70.5691021286726,70.03752743794469L70.8184637947162,71.14277385451368L71.0678254607598,72.2812655375227L71.3171871268034,72.12820058430692L71.566548792847,71.47582309524286L71.8159104588906,72.03979961126632L72.0652721249342,71.16018083933247L72.3146337909778,70.86793540032696L72.56399545702139,70.69440718526961L72.813357123065,70.88007839930205L73.06271878910859,71.9735676926514L73.31208045515218,72.89485172158126L73.5614421211958,71.67259021155122L73.8108037872394,71.42712244962026L74.06016545328299,71.55320303486812L74.30952711932659,70.97897388113878L74.55888878537019,71.48167894030213L74.80825045141378,72.34657836185573L75.0576121174574,73.24110132505754L75.30697378350098,73.95084299936933L75.55633544954459,74.45102401654842L75.80569711558819,74.34394280094963L76.05505878163179,73.73529003719638L76.30442044767538,73.4618297789832L76.553782113719,73.30040595673816L76.80314377976258,73.54450896952028L77.05250544580619,73.24518329317313L77.30186711184979,73.50680486055892L77.55122877789339,73.22833295736675L77.80059044393698,73.01568302368808L78.0499521099806,73.17273023190454L78.29931377602418,72.3725570438867L78.54867544206779,72.28825245824456L78.79803710811139,71.21385137137283L79.04739877415497,69.96343476390452L79.29676044019858,69.4741180549484L79.5461221062422,70.7865057632464L79.79548377228578,71.61978433370354L80.04484543832938,71.17716561524334L80.29420710437297,71.71896815573031L80.54356877041657,72.09550257009953L80.79293043646018,72.33428711626254L81.04229210250377,72.66331830931524L81.29165376854738,72.77928116020011L81.54101543459097,72.37161156978782L81.79037710063457,72.83247488528478L82.03973876667817,73.03697396793237L82.28910043272178,72.82434116688974L82.53846209876536,72.22505757581253L82.78782376480898,72.59481667940666L83.03718543085257,72.54841475522016L83.28654709689617,73.1897518470956L83.53590876293977,72.45873143673626L83.78527042898338,72.71709863588849L84.03463209502696,73.38334465253071L84.28399376107058,73.9605008971589L84.53335542711417,74.12196982973724L84.78271709315777,74.0216113703323L85.03207875920137,74.58155439301089L85.28144042524498,74.6197378074868L85.53080209128856,74.25150006058263L85.78016375733218,74.45381181482857L86.02952542337576,73.91870907077445L86.27888708941936,74.40547151520613L86.52824875546297,75.25038269252185L86.77761042150655,75.69506352467042L87.02697208755016,75.0604692246853L87.27633375359376,74.91070524568558L87.52569541963736,75.4260353568146L87.77505708568096,75.2245102974685L88.02441875172457,75.06014306245096L88.27378041776815,73.62639292209919L88.52314208381176,73.64910911462151L88.77250374985536,74.22420738777805L89.02186541589896,72.8527126810407L89.27122708194256,72.01539735838176L89.52058874798617,70.21052420829217L89.76995041402975,69.85275794661332L90.01931208007336,67.87188156817824L90.26867374611696,67.9530273635157L90.51803541216056,67.5689257822464L90.76739707820416,68.3288824224542L91.01675874424777,69.20756424833071L91.26612041029135,69.16934199063871L91.51548207633496,69.77328569732175L91.76484374237856,68.51018385273382L92.01420540842214,69.30525835316719L92.26356707446575,69.91756415415239L92.51292874050934,69.35565083071737L92.76229040655295,70.20538765051712L93.01165207259655,70.03390947249811L93.26101373864014,67.32211980519534L93.51037540468374,66.43360350553696L93.75973707072735,65.30178592259836L94.00909873677094,65.76896596892644L94.25846040281455,66.40698056762245L94.50782206885815,67.37401962928553L94.75718373490174,67.17835753662317L95.00654540094534,67.42775105606329L95.25590706698895,68.20796407758907L95.50526873303254,67.63844769168071L95.75463039907615,66.60174452237754L96.00399206511975,67.06348002682923L96.25335373116334,66.69064079582242L96.50271539720694,67.42559231568923L96.75207706325055,67.37436793845923L97.00143872929414,67.50173770726826L97.25080039533775,67.92443781204751L97.50016206138135,68.1098430911189L97.74952372742493,67.64383922569877L97.99888539346854,66.5557139768669L98.24824705951215,65.53483817048023L98.49760872555574,66.55927592043687L98.74697039159933,67.38135240365816L98.99633205764293,66.86825196555975L99.24569372368653,68.13000720282281L99.49505538973014,68.13889768076677L99.74441705577372,69.02253379278515L99.99377872181734,69.72845462494865L100.24314038786093,68.72983065172231L100.49250205390453,67.63878309507983L100.74186371994813,67.2876663310344L100.99122538599174,67.47249941339606L101.24058705203532,68.75412699799753L101.48994871807894,65.52135505908964L101.73931038412253,65.62213055396498L101.98867205016613,65.81891057676754L102.23803371620973,65.7184426178992L102.48739538225334,65.53875051227544L102.73675704829692,63.86276448970311L102.98611871434053,62.079182216048714L103.23548038038413,62.547915845227195L103.48484204642773,63.97684005314868L103.73420371247133,65.04918173472785L103.98356537851494,64.49046588424342L104.23292704455852,63.6565609236154L104.48228871060213,65.07128074160082L104.73165037664572,64.4262530917161L104.98101204268931,63.7740452168378L105.23037370873293,64.98966791124477L105.47973537477651,65.71805187714178L105.72909704082012,66.26239210535277L105.97845870686372,66.67887112900688L106.22782037290732,66.49430999790279L106.47718203895091,65.37912379858773L106.72654370499453,65.54125908661484L106.97590537103811,65.82547704655708L107.22526703708172,67.72489612751772L107.47462870312532,67.6200963806629L107.72399036916892,66.09512314210872L107.97335203521251,64.69525072758881L108.22271370125613,63.985587512966426L108.47207536729971,63.04453290683361L108.72143703334332,62.90399291562213L108.97079869938692,62.245459323775414L109.22016036543052,61.29968710863787L109.46952203147411,61.533965207340664L109.71888369751773,62.14072600535841L109.96824536356131,61.9509500756478L110.21760702960492,61.166229131496706L110.46696869564852,61.473008762002756L110.7163303616921,62.36038012922424L110.96569202773571,62.5158220474908L111.2150536937793,63.18658707172767L111.46441535982291,64.11769337923712L111.7137770258665,61.36123179632052L111.9631386919101,61.57449931516065L112.2125003579537,61.305549026033624L112.46186202399731,60.4078881102979L112.7112236900409,60.8435275370162L112.96058535608451,59.89360808029892L113.2099470221281,59.99110203434337L113.4593086881717,60.88838545379477L113.7086703542153,60.499228550364535L113.95803202025891,59.90323918475202L114.2073936863025,59.63017391077914L114.45675535234611,60.5737019556785L114.7061170183897,59.36092923907836L114.9554786844333,58.53326080898873L115.2048403504769,58.711123107076524L115.45420201652051,57.90697741445397L115.7035636825641,59.364924466930546L115.9529253486077,59.02344805312844L116.2022870146513,58.833490552086474L116.45164868069489,59.13187215518106L116.7010103467385,57.839202913097914L116.95037201278211,58.61594553226104L117.1997336788257,57.49386285203132L117.44909534486929,58.34798439392363L117.69845701091289,59.122283964280484L117.94781867695649,59.85222886414511L118.1971803430001,59.4474379381804L118.44654200904368,57.514497498459725L118.6959036750873,55.316566169302206L118.94526534113089,56.521591785766574L119.19462700717449,55.9892486719294L119.44398867321809,56.51497006654996L119.6933503392617,56.285908390406014L119.94271200530528,56.55035461739658L120.1920736713489,58.529339785401L120.44143533739249,58.79509927162769L120.69079700343609,58.7884771224481L120.94015866947969,55.43984000251962L121.1895203355233,55.78672151584843L121.43888200156688,54.60554852892658L121.6882436676105,56.12257759204433L121.93760533365409,55.46684779327729L122.18696699969769,57.24295797502769L122.43632866574129,57.75955348521514L122.6856903317849,59.03471240806926L122.93505199782848,59.50842356555869L123.18441366387209,59.885679110106416L123.43377532991568,60.52814554466115L123.68313699595927,58.11641545725737L123.93249866200289,58.35157333690466L124.18186032804647,57.18445084791486L124.43122199409008,57.173519920688676L124.68058366013368,57.40866368723212L124.92994532617728,58.40646932589514L125.17930699222087,58.573322669641186L125.42866865826448,58.96766149410206L125.67803032430807,60.00220708289607L125.92739199035168,60.21312728548271L126.17675365639528,61.54787229132855L126.42611532243887,58.75730844013923L126.67547698848247,59.249239397377906L126.92483865452608,58.7586815837377L127.17420032056967,60.48893080375129L127.42356198661328,60.57950473381937L127.67292365265688,60.59842014635788L127.92228531870047,60.09726775668699L128.1716469847441,58.40422943220575L128.42100865078768,57.86959003990269L128.67037031683128,58.454118683404666L128.91973198287488,59.53977377953298L129.16909364891848,58.625927546658986L129.41845531496207,59.812501654305066L129.66781698100567,60.060309763190304L129.91717864704927,60.63501512155593L130.16654031309287,58.744931774871006L130.41590197913646,59.6665044939347L130.66526364518006,61.024893757973054L130.91462531122366,60.93305248696689L131.16398697726726,60.03358814237359L131.41334864331085,58.20312121843478L131.66271030935445,57.45766950872109L131.91207197539808,58.61330915761234L132.16143364144165,59.2541046707761L132.41079530748527,59.20556486954304L132.66015697352887,59.63829692066473L132.90951863957247,58.909388476809035L133.15888030561607,58.3083397069103L133.40824197165966,58.563212760344186L133.65760363770326,57.973528159703115L133.90696530374686,57.87519658261495L134.15632696979046,57.72307823178624L134.40568863583405,57.626855223098865L134.65505030187765,56.76400286646547L134.90441196792128,56.402454431936874L135.15377363396485,55.948847836132366L135.40313530000847,55.532088726960694L135.65249696605207,53.06892360350644L135.90185863209564,54.42750736920045L136.15122029813926,55.665836852273216L136.40058196418283,56.349032679005816L136.64994363022646,57.83426862049253L136.89930529627006,57.67783468974521L137.14866696231365,59.64991583526777L137.39802862835725,59.09622181338089L137.64739029440085,58.31702166287882L137.89675196044445,58.95316981374615L138.14611362648805,58.16238408958708L138.39547529253164,57.495377847712525L138.64483695857524,57.10218480037251L138.89419862461884,57.74972660419522L139.14356029066246,57.07636935490593L139.39292195670603,56.82512294154677L139.64228362274966,56.268391444641445L139.89164528879326,57.75271837872276L140.14100695483685,58.49087876472389L140.39036862088045,58.72341589426477L140.63973028692405,58.25742873141879L140.88909195296765,57.25125150878917L141.13845361901124,56.4043666918809L141.38781528505484,56.870066010858665L141.63717695109844,55.503100920285554L141.88653861714204,54.97136077044514L142.13590028318563,54.429939267607296L142.38526194922923,55.288116804195L142.63462361527283,56.16472515771911L142.88398528131643,55.72717457667058L143.13334694736002,54.56778032417097L143.38270861340365,54.95467101278142L143.63207027944722,54.376762009436554L143.88143194549085,53.651555385106725L144.13079361153444,54.95516652810694L144.38015527757804,54.748081925642445L144.62951694362164,51.886703836247214L144.87887860966524,51.216874827502004L145.12824027570883,50.45649577498082L145.37760194175243,47.51571450046198L145.62696360779603,48.72326482585857L145.87632527383963,47.44141824500955L146.12568693988322,48.26463689210563L146.37504860592685,48.40236406112424L146.62441027197042,47.15204907121442L146.87377193801404,45.72956420101597L147.12313360405764,47.22310115289817L147.37249527010124,48.10633781481942L147.62185693614484,46.47705154157338L147.87121860218843,46.27410294747075L148.12058026823203,45.76982230002178L148.36994193427563,47.1338394419853L148.61930360031923,48.49956021694289L148.86866526636283,48.08927001540311L149.11802693240642,46.22078653164721L149.36738859845002,45.8501890567959L149.61675026449362,45.80007197445237L149.86611193053722,44.325844356315145L150.11547359658084,41.747429050497736L150.36483526262444,42.99234038541798L150.614196928668,44.46157367392759L150.8635585947116,40.02794902886206L151.11292026075523,39.870081879343424L151.36228192679883,38.532467899472834L151.61164359284243,38.427877264307575L151.861005258886,36.91823126022603L152.11036692492962,40.268021519728904L152.35972859097322,42.61309537168575L152.60909025701682,44.67595345116077L152.85845192306041,47.40071870917196L153.10781358910404,46.920866640446086L153.3571752551476,45.256835295806255L153.6065369211912,45.119426144367566L153.8558985872348,45.380303311150904L154.10526025327843,43.987067498905404L154.35462191932203,43.534953405474894L154.60398358536563,40.693952024221076L154.8533452514092,40.58748035454099L155.1027069174528,43.2495900251745L155.35206858349642,43.805636834061204L155.60143024954002,41.53256177370089L155.8507919155836,36.118448381146614L156.1001535816272,37.6943220156391L156.3495152476708,38.44064719646546L156.5988769137144,39.54575525462119L156.848238579758,40.600692553558524L157.0976002458016,42.498625731781935L157.34696191184523,42.97820951120621L157.59632357788882,42.98152606448143L157.8456852439324,43.09408497945465L158.095046909976,43.13707362973347L158.34440857601962,44.718630029054076L158.59377024206321,45.75385088269496L158.8431319081068,44.74974688103343L159.09249357415038,45.030513157901545L159.34185524019398,46.76946794084681L159.5912169062376,43.8192196057733L159.8405785722812,42.9953829068169L160.0899402383248,42.70279752982208L160.33930190436843,42.11030465103875L160.588663570412,43.57442770470844L160.8380252364556,42.79425205067537L161.0873869024992,43.83557443047955L161.3367485685428,42.43628494216223L161.5861102345864,42.46452025605396L161.83547190063,42.35255753816158L162.08483356667358,42.98608598160157L162.33419523271718,41.19318705394493L162.5835568987608,43.04187966825177L162.8329185648044,45.126333330489246L163.082280230848,45.29813671566685L163.3316418968916,43.796830001323265L163.5810035629352,44.91794419874033L163.8303652289788,45.130947100637904L164.0797268950224,45.18695707074032L164.329088561066,44.90401740791025L164.5784502271096,45.83469667212726L164.82781189315318,44.46219675031312L165.07717355919678,42.768692341423005L165.32653522524038,44.33910026621796L165.575896891284,42.596288246529134L165.8252585573276,44.561025268454145L166.0746202233712,42.800285732159765L166.32398188941477,42.72982480048942L166.57334355545837,43.16608129006819L166.822705221502,44.44887712303343L167.0720668875456,42.659197210699936L167.3214285535892,42.88187688743142L167.5707902196328,43.415927905088566L167.82015188567638,44.66471827964237L168.06951355171998,46.37349694793707L168.31887521776358,46.34275542685601L168.56823688380717,46.229596332999456L168.8175985498508,47.93378784024611L169.0669602158944,47.514204848817414L169.31632188193797,46.84799281770738L169.56568354798156,47.84571955067304L169.8150452140252,46.48841318666468L170.0644068800688,47.235100285565316L170.31376854611239,49.20102405947427L170.56313021215595,49.60282517549439L170.81249187819958,49.438191205180026L171.06185354424318,46.96039775062109L171.31121521028678,47.74918358244701L171.56057687633037,45.84891909153831L171.809938542374,44.168397422935115L172.05930020841757,44.23740974554154L172.30866187446117,45.37387108276901L172.55802354050476,46.6011924062605L172.8073852065484,44.63470848644751L173.056746872592,44.5566004829192L173.30610853863558,45.20222790836862L173.55547020467915,45.994530367141955L173.80483187072275,46.724550744696984L174.05419353676638,46.47570871966662L174.30355520280997,44.95949164077525L174.55291686885357,43.22447108655172L174.80227853489717,43.73470388171229L175.05164020094077,44.926707111557626L175.30100186698436,45.43371895540547L175.55036353302796,42.61594369564792L175.79972519907156,43.29260728775304L176.04908686511519,45.23667434260174L176.29844853115878,45.920182861945214L176.54781019720235,42.041945189499366L176.79717186324595,42.38712314238162L177.04653352928958,42.38470291658039L177.29589519533317,44.00983911581968L177.54525686137677,44.27050939093659L177.79461852742034,44.306396044939156L178.04398019346394,40.13035727131176L178.29334185950756,40.923161159772434L178.54270352555116,41.49317829062618L178.79206519159476,42.29435863796928L179.04142685763838,44.00068259938318L179.29078852368195,43.54246138908666L179.54015018972555,44.489167718901385L179.78951185576915,45.61946608537781L180.03887352181275,42.1427837925909L180.28823518785637,42.21176812897621L180.53759685389997,41.72466700273463L180.78695851994354,42.52810814021354L181.03632018598714,41.427492062722024L181.28568185203076,40.587347874100665L181.53504351807436,41.20481591593682L181.78440518411796,41.46460276878433L182.03376685016156,43.19617627739557L182.28312851620515,44.37669161570965L182.53249018224875,44.31507726303367L182.78185184829235,44.34681547423386L183.03121351433595,42.444202801862026L183.28057518037957,42.33900725928819L183.52993684642314,42.635293364483104L183.77929851246674,44.163661688933296L184.02866017851034,41.19873757493211L184.27802184455396,41.612282692939104L184.52738351059756,42.3790160510487L184.77674517664116,42.13732883690525L185.02610684268473,43.94541294022944L185.27546850872832,43.069076171068446L185.52483017477195,39.96382494488529L185.77419184081555,40.768377681513606L186.02355350685914,41.82220967610748L186.27291517290277,41.18152062520258L186.52227683894634,43.76203832383825L186.77163850498994,42.820736804416L187.02100017103353,42.71807991497727L187.27036183707713,40.400905572370576L187.51972350312076,41.71687461208318L187.76908516916436,41.7288368614875L188.01844683520793,43.26646221076772L188.26780850125152,44.23194947682808L188.51717016729515,43.99941973981151L188.76653183333875,41.91068697961763L189.01589349938234,42.513322018063015L189.2652551654259,42.74641262408907L189.51461683146954,43.42483217711982L189.76397849751314,43.940445642508294L190.01334016355673,43.54614483977608L190.26270182960033,44.18556291845479L190.51206349564396,43.36429770309903L190.76142516168753,44.52372136680717L191.01078682773112,45.44691284498832L191.26014849377472,45.01575870506995L191.50951015981835,43.585586772485755L191.75887182586195,42.959337293893206L192.00823349190554,42.45923594506574L192.2575951579491,43.00285752000986L192.5069568239927,44.09843511382301L192.75631849003634,44.74620904620221L193.00568015607993,45.19701123574038L193.25504182212353,43.407446853183835L193.50440348816713,43.72039042408684L193.75376515421073,42.38780763080712L194.00312682025432,39.25976205563538L194.25248848629792,40.73844036175319L194.50185015234152,42.434490223409405L194.75121181838514,42.38816951598275L195.00057348442874,42.1581363474766L195.2499351504723,42.09902722152797L195.4992968165159,41.57643712944209L195.74865848255953,41.79328179159053L195.99802014860313,43.107880790825625L196.24738181464673,44.15876056191225L196.4967434806903,42.072811261229745L196.7461051467339,43.51639461709761L196.99546681277752,40.976997578308435L197.24482847882112,39.74194183078455L197.49419014486472,39.17136048824873L197.74355181090834,39.85088303057514L197.9929134769519,41.22504194767053L198.2422751429955,40.78818002229838L198.4916368090391,37.726016924607585L198.7409984750827,38.708661051320796L198.99036014112633,38.277327890652984L199.23972180716993,38.46959395111662L199.4890834732135,37.978027882612984L199.7384451392571,37.00546122506068L199.98780680530072,34.33881467648001L200.23716847134432,34.00010169510644L200.48653013738792,32.07527583644376L200.7358918034315,31.10849520797982L200.9852534694751,33.11300545725521L201.2346151355187,33.653407699528806L201.4839768015623,32.8088965329055L201.7333384676059,34.72780520492915L201.98270013364953,36.38987731476453L202.2320617996931,37.313470337200485L202.4814234657367,37.05546215441604L202.7307851317803,36.056117047728726L202.98014679782392,36.095137953680606L203.22950846386752,35.8971186130024L203.47887012991112,37.0343361394967L203.72823179595468,34.170018131905L203.97759346199828,35.401837370625145L204.2269551280419,36.31032982290611L204.4763167940855,36.67819619647736L204.7256784601291,36.6533108092266L204.97504012617273,37.91200722652507L205.2244017922163,37.54374782480096L205.4737634582599,35.51733832488171L205.7231251243035,32.234816822146655L205.9724867903471,33.546325333518915L206.22184845639072,33.49526504870856L206.47121012243431,33.80608667801753L206.72057178847788,35.068879412647405L206.96993345452148,30.120359179350732L207.2192951205651,31.933734202241595L207.4686567866087,32.58382025016662L207.7180184526523,32.39688008811191L207.96738011869587,31.077261342386237L208.2167417847395,27.470038221952148L208.4661034507831,29.005405877763415L208.7154651168267,31.538910421970836L208.9648267828703,32.73760514278365L209.21418844891392,34.78763458787539L209.46355011495748,35.15429910368171L209.71291178100108,34.977261475500555L209.96227344704468,35.254527311743225L210.2116351130883,35.17403033002417L210.4609967791319,32.627190046902115L210.7103584451755,30.973120040841906L210.95972011121907,33.64389540783856L211.20908177726267,32.93044826427966L211.4584434433063,34.356159435379126L211.7078051093499,34.6910842912102L211.9571667753935,34.93182115777475L212.2065284414371,34.08858286761906L212.45589010748068,35.74663644129503L212.70525177352428,31.2109658803056L212.95461343956788,30.39510563089672L213.20397510561148,31.847476076791043L213.4533367716551,32.97337345850512L213.7026984376987,32.841706062452566L213.95206010374227,31.217588616799468L214.20142176978587,31.061627585547846L214.4507834358295,32.314927189207296L214.7001451018731,31.45557709647032L214.9495067679167,30.696806431589707L215.19886843396026,31.99996993194813L215.44823010000385,29.957235201154813L215.69759176604748,28.592068513467527L215.94695343209108,27.62892606357521L216.19631509813468,28.779135158045897L216.4456767641783,29.89563843152145L216.69503843022187,30.13236220619687L216.94440009626547,32.894568724619994L217.19376176230907,33.601884796684274L217.44312342835266,35.00147849636086L217.6924850943963,33.09671184348549L217.9418467604399,33.65494216474836L218.19120842648346,33.6175130057651L218.44057009252705,34.91743886830029L218.68993175857068,33.02325762467942L218.93929342461428,32.263424023107085L219.18865509065787,31.629613896999192L219.43801675670147,31.34522005157635L219.68737842274507,30.105907198161617L219.93674008878867,30.47356137778234L220.18610175483226,32.12810285112454L220.43546342087586,32.888341179939204L220.6848250869195,32.17729549879539L220.93418675296306,30.78169289922675L221.18354841900666,29.366386316959375L221.43291008505025,29.47268453976752L221.68227175109388,30.75383852144645L221.93163341713748,29.601177398863097L222.18099508318107,31.31244167565424L222.43035674922464,30.713839979886593L222.67971841526824,30.032285584174915L222.92908008131187,30.855068239625652L223.17844174735546,32.27423109095186L223.42780341339906,33.736096394962L223.6771650794427,35.86879869008255L223.92652674548626,34.219281635379424L224.17588841152985,34.07436500420885L224.42525007757345,33.18289866905003L224.67461174361705,33.050431666444574L224.92397340966068,32.65508747508785L225.17333507570427,30.489381903894103L225.42269674174784,28.982932149066986L225.67205840779144,29.372198408663L225.92142007383507,27.811619804566774L226.17078173987866,27.802055212360223L226.42014340592226,27.87042333154123L226.66950507196583,26.745727541400772L226.91886673800946,28.975948285621502L227.16822840405305,29.445597528791655L227.41759007009665,29.809994683170796L227.66695173614025,30.582094568609786L227.91631340218387,30.012421346652868L228.16567506822744,31.814735374075674L228.41503673427104,34.357996692746326L228.66439840031464,34.79639668964267L228.91376006635826,34.97450978718599L229.16312173240186,37.1185980675731L229.41248339844546,36.339953299776184L229.66184506448903,35.981560675497825L229.91120673053263,33.66974198872396L230.16056839657625,34.46557058735411L230.40993006261985,33.80479726237289L230.65929172866345,31.903028005132153L230.90865339470704,32.742816156650775L231.15801506075064,33.256871867585815L231.40737672679424,32.586303560912484L231.65673839283784,30.01773810265939L231.90610005888144,29.907441185282046L232.15546172492506,28.757805390252184L232.40482339096866,27.760482595849396L232.65418505701223,29.246130672610132L232.90354672305583,25.392309016689502L233.15290838909945,24.62012495004979L233.40227005514305,24.000486914070017L233.65163172118665,18.214236336209066L233.90099338723022,17.26438456398511L234.1503550532738,19.68837456533322L234.39971671931744,21.958399639273665L234.64907838536104,23.707119512486873L234.89844005140463,24.585544079634534L235.14780171744826,26.709887320665462L235.39716338349183,25.559076654577666L235.64652504953543,27.005470200321287L235.89588671557902,28.461564484901746L236.14524838162262,26.600284918505643L236.39461004766625,23.82784424938522L236.64397171370985,22.849434488087773L236.89333337975341,25.01173092843907L237.142695045797,25.59656444012261L237.39205671184064,28.414427091464525L237.64141837788424,29.552268432280982L237.89078004392783,29.896429497084167L238.14014170997143,23.627914480257314L238.38950337601503,20.78762604220862L238.63886504205863,20.61400461673667L238.88822670810222,21.862113333783185L239.13758837414582,24.477428327999565L239.38695004018945,27.50804297597192L239.63631170623302,27.41311170090576L239.8856733722766,29.408503374580917L240.1350350383202,30.757409373319245L240.38439670436384,26.417789077766038L240.63375837040743,25.59272374044258L240.88312003645103,25.841078017729973L241.1324817024946,29.25509799733846L241.3818433685382,31.47356156671167L241.63120503458182,32.94725784331111L241.88056670062542,34.73543312433545L242.12992836666902,34.10956979645107L242.37929003271265,35.25938868588393L242.62865169875622,33.431642409136295L242.8780133647998,32.92028900241454L243.1273750308434,34.36273611722933L243.376736696887,34.2378083838426L243.62609836293063,35.530874503573465L243.87546002897423,35.16095867781393L244.1248216950178,33.80250271793498L244.3741833610614,33.46408368124964L244.62354502710502,32.65406444943729L244.87290669314862,31.214073859542626L245.12226835919222,33.053838508873966L245.3716300252358,31.51574428818103L245.62099169127941,33.784725880675396L245.870353357323,33.567719500692284L246.1197150233666,34.576435170767994L246.3690766894102,32.06268359395123L246.61843835545383,33.47401468072301L246.8678000214974,34.806985415466904L247.117161687541,34.53133072454967L247.3665233535846,35.634855604915934L247.61588501962822,34.57658499781846L247.86524668567182,35.62303269464602L248.11460835171542,33.498037279450784L248.363970017759,33.675244562122856L248.61333168380258,27.5715127125738L248.8626933498462,31.342917957049906L249.1120550158898,30.88421996693241L249.3614166819334,32.77750587090038L249.610778347977,30.763846557716278L249.8601400140206,31.03082334455359L250.1095016800642,30.436798051583235L250.3588633461078,30.118333131843897L250.6082250121514,31.485275609844923L250.85758667819502,32.207376130212815L251.10694834423862,34.80957054497268L251.3563100102822,35.69949974092057L251.60567167632578,34.430149875949084L251.8550333423694,34.20404255526676L252.104395008413,34.298930270113324L252.3537566744566,33.907707089317164L252.60311834050017,34.494887057693774L252.85248000654377,34.86460368896916L253.1018416725874,35.205751286851886L253.351203338631,36.2421346209648L253.6005650046746,36.999652034743605L253.84992667071822,32.717929892532844L254.0992883367618,34.469620666323394L254.34865000280539,32.479288682799584L254.59801166884898,33.97249297530616L254.84737333489258,32.96877005219665L255.0967350009362,34.31631447539752L255.3460966669798,32.75479944471118L255.59545833302337,32.02488571509006L255.84481999906697,32.64319833660825L256.09418166511057,34.744402902494336L256.3435433311542,36.16417356797167L256.5929049971978,35.62411666472322L256.8422666632414,36.402762638547536L257.09162832928496,33.71214791385753L257.3409899953286,35.07636144243349L257.5903516613722,36.15522211061068L257.8397133274158,29.65214922594508L258.0890749934594,29.388754330452507L258.338436659503,32.283480527409516L258.5877983255466,34.431206386032336L258.83715999159017,34.487849452683456L259.0865216576338,30.900995102160216L259.33588332367736,30.078319789243054L259.585244989721,31.087032459126974L259.83460665576456,31.845897670670144L260.0839683218082,34.29127297349514L260.33332998785176,34.76239262262622L260.5826916538954,32.798405084338405L260.832053319939,34.07067148828165L261.0814149859826,36.00016746726728L261.33077665202615,35.58880275980115L261.58013831806977,32.655025379098774L261.8294999841134,30.81184091593826L262.07886165015697,32.40725745950656L262.3282233162006,31.856899271141714L262.57758498224416,33.43278661579301L262.8269466482878,32.43938264281993L263.07630831433136,32.06361154285694L263.325669980375,31.408957959016615L263.57503164641855,32.9169416995378L263.8243933124622,32.46082771569269L264.07375497850575,33.458326281994445L264.3231166445494,33.444501203746995L264.57247831059294,33.39226833803944L264.82183997663657,29.605542202667653L265.0712016426802,29.88925490902196L265.32056330872376,31.35215470165196L265.56992497476733,31.782816973353544L265.81928664081096,29.468641380424717L266.0686483068546,30.63996850645633L266.31800997289815,31.377884982401945L266.5673716389418,32.250353477185705L266.8167333049854,33.37374763656351L267.066094971029,30.677723572942128L267.31545663707254,31.02567487260438L267.56481830311617,29.525135031562403L267.81417996915974,30.597145473143183L268.06354163520336,32.40897255551411L268.312903301247,33.93777074357404L268.56226496729056,33.460970974029166L268.81162663333413,33.30322511976563L269.06098829937775,33.79596109731327L269.3103499654214,33.2404582498398L269.55971163146495,33.565067822905284L269.8090732975086,32.77392269820247L270.05843496355214,31.286208904778352L270.30779662959577,32.88087330514837L270.55715829563934,33.945847679927674L270.80651996168297,32.55298984317297L271.0558816277266,33.23536254164166L271.30524329377016,32.72424806702099L271.55460495981373,33.46450547804686L271.80396662585736,31.30418994158357L272.053328291901,32.95439561863349L272.30268995794455,34.97695448325395L272.5520516239882,32.49808422982637L272.80141329003175,29.597783277452L273.0507749560753,29.3271149983322L273.30013662211894,31.413731065917787L273.54949828816257,31.682551288619035L273.79885995420614,33.554081292589615L274.04822162024976,32.72317471604955L274.29758328629333,33.78213813433185" fill="none"></path></g></g></g></g><g opacity="0.2"><g><g><g><path style="fill: none;" stroke="rgb(0, 153, 136)" stroke-width="2px" d="M25.185278908737498,160.97417407837045L25.4346405747811,159.9890208879893L25.6840022408247,159.10081916836447L25.933363906868298,157.98325180602126L26.1827255729119,157.28956144112652L26.432087238955496,157.1599031108677L26.681448904999097,156.9890719774993L26.9308105710427,156.10112972821722L27.180172237086296,155.66702409056344L27.429533903129897,155.61241426751346L27.67889556917349,154.80161488443395L27.928257235217092,155.0933486713432L28.177618901260693,154.86682878145086L28.42698056730429,154.1475201499772L28.676342233347892,152.98756035110804L28.925703899391493,152.60116392361599L29.17506556543509,152.01851879534635L29.424427231478692,151.02830698589966L29.67378889752229,151.5136593320189L29.92315056356589,149.21679136724603L30.17251222960949,148.6108398724493L30.42187389565309,148.05714173982105L30.67123556169669,146.7726754741719L30.920597227740284,146.37977527078644L31.169958893783885,145.0552253108091L31.419320559827487,143.93610849473558L31.668682225871084,142.68556740623274L31.918043891914685,142.03931748303117L32.16740555795829,142.17091298132556L32.41676722400189,139.3412455621595L32.666128890045485,137.8675522596936L32.91549055608908,138.61633279232962L33.16485222213268,138.7727391991791L33.414213888176285,139.29407423980763L33.66357555421988,137.68737493089608L33.91293722026348,138.17209009223856L34.16229888630708,136.54299668575354L34.41166055235068,138.47035712834594L34.66102221839428,138.16972099994075L34.91038388443788,136.53088736801323L35.15974555048148,135.54427551220624L35.40910721652508,135.52298736530255L35.65846888256868,136.34334452003384L35.907830548612274,134.69500083513825L36.15719221465587,133.6006345775198L36.40655388069948,134.77142932457565L36.655915546743074,132.93732803186828L36.90527721278667,133.03054788401374L37.154638878830276,129.9195479474995L37.404000544873874,131.66365460968487L37.65336221091748,131.27450032297176L37.902723876961076,131.88389317695936L38.152085543004674,129.92170932317404L38.401447209048264,129.46707658144746L38.650808875091876,130.6478810241598L38.900170541135466,128.77462795494756L39.149532207179064,128.0348508151377L39.39889387322267,125.80730336116342L39.648255539266266,123.57929556224023L39.897617205309864,124.3984036102505L40.14697887135347,120.79613140385383L40.396340537397066,126.1979958736813L40.64570220344066,127.4515628881285L40.89506386948426,123.97321329638159L41.144425535527866,123.67999601980479L41.39378720157146,122.12577884204543L41.64314886761506,123.21125538958427L41.892510533658665,121.98830692819948L42.14187219970226,119.83374099050889L42.39123386574586,119.01153403503795L42.640595531789465,119.75578269621091L42.88995719783306,117.42334957541134L43.13931886387666,113.05518407430083L43.388680529920265,112.42704900553525L43.63804219596386,114.18129448452132L43.88740386200746,114.63262902310817L44.13676552805106,117.29423123819846L44.38612719409466,111.65581963918852L44.63548886013826,113.90380753168505L44.88485052618185,110.55992919067226L45.13421219222546,106.63218187750142L45.38357385826905,111.39363073495787L45.63293552431265,112.0492798353624L45.882297190356255,105.43558255047643L46.13165885639985,108.73054643369075L46.38102052244345,105.25884377388844L46.630382188487054,106.54894926516123L46.87974385453065,109.49513448205569L47.12910552057425,105.97281071976644L47.37846718661785,106.21683284040522L47.62782885266145,105.22200495005353L47.87719051870505,102.8134914055096L48.12655218474865,101.86673026457493L48.37591385079225,103.06882004720956L48.62527551683585,104.67651302753512L48.87463718287945,103.3778855407455L49.12399884892305,101.58298374322665L49.37336051496665,99.67561181515178L49.622722181010246,100.14286755221407L49.87208384705385,95.05882355089521L50.12144551309745,103.43458656493515L50.370807179141046,99.396446287441L50.620168845184644,94.54244002544841L50.86953051122825,96.69802770436696L51.118892177271846,97.52381917507996L51.368253843315436,98.81106715929211L51.61761550935905,93.66834040491837L51.86697717540264,91.44854021959571L52.116338841446236,97.9330658346223L52.36570050748984,88.08212181797687L52.61506217353344,92.82028957173883L52.864423839577036,98.49974485271416L53.11378550562064,96.0924944497982L53.36314717166424,93.45409474292333L53.612508837707836,92.270536651462L53.86187050375143,95.45587668325537L54.11123216979504,92.22330076853805L54.360593835838635,93.87899874468992L54.60995550188223,91.1683361087686L54.85931716792584,96.11387242010655L55.108678833969435,91.62606495097445L55.35804050001303,88.91394268472746L55.60740216605664,87.72039173949803L55.856763832100235,89.59653319256624L56.10612549814383,88.80353287851578L56.35548716418744,90.80722356619677L56.604848830231035,90.5170658993411L56.85421049627463,89.18956580191711L57.10357216231822,88.495376846952L57.352933828361834,91.89882494714067L57.602295494405425,89.59356902021258L57.85165716044902,86.10059505539498L58.10101882649263,92.33256532634036L58.350380492536225,84.99923099315744L58.59974215857982,89.14999859216574L58.84910382462343,86.42067514392697L59.098465490667024,82.49264151865377L59.34782715671062,89.26335572884273L59.59718882275422,83.9108127291161L59.846550488797824,82.24209597325176L60.09591215484142,84.92720946451101L60.34527382088502,84.29608776754061L60.594635486928624,83.90236371511554L60.84399715297222,80.97630455482704L61.09335881901582,79.33173345292704L61.342720485059424,78.39699180632802L61.59208215110302,78.37314369239162L61.84144381714662,79.56282661725804L62.09080548319022,78.57145131402285L62.34016714923382,79.4692755413079L62.58952881527742,75.21093318729739L62.838890481321016,74.97491657759866L63.08825214736462,79.08492680674391L63.33761381340822,76.00387736171994L63.58697547945181,71.33025895212954L63.83633714549542,71.6252502409483L64.08569881153902,77.95689642124886L64.33506047758262,74.26343100327432L64.58442214362621,73.13467080261643L64.83378380966981,74.12135283295828L65.08314547571341,72.50276876481809L65.33250714175702,74.17939559425501L65.58186880780062,70.4278593451698L65.83123047384422,72.94048944363664L66.08059213988781,71.37140368542516L66.32995380593141,67.17613981733497L66.57931547197501,66.22122720242768L66.8286771380186,74.35473649410802L67.07803880406222,66.474450608081L67.3274004701058,72.29291883568845L67.5767621361494,66.87635420429264L67.82612380219301,73.95920474566425L68.07548546823661,74.23282367813748L68.3248471342802,68.60071655934189L68.5742088003238,74.39801453326427L68.8235704663674,72.46939936998805L69.072932132411,66.24504163258734L69.3222937984546,69.81841315853565L69.5716554644982,67.49643885041581L69.8210171305418,63.31328430006591L70.0703787965854,69.93517797062681L70.319740462629,73.79411494186769L70.5691021286726,70.80722288077533L70.8184637947162,75.5637595207896L71.0678254607598,76.83523226955889L71.3171871268034,71.51594077144368L71.566548792847,68.8663131389867L71.8159104588906,74.29570567536008L72.0652721249342,67.64170575159716L72.3146337909778,69.69895364430481L72.56399545702139,70.00029432504024L72.813357123065,71.62276325543185L73.06271878910859,76.34752486604879L73.31208045515218,76.57998783730078L73.5614421211958,66.78354417143092L73.8108037872394,70.44525140189647L74.06016545328299,72.05752537585953L74.30952711932659,68.68205726622149L74.55888878537019,73.49249917695549L74.80825045141378,75.80617604807016L75.0576121174574,76.81919317786485L75.30697378350098,76.78980969661647L75.55633544954459,76.45174808526471L75.80569711558819,73.91561793855449L76.05505878163179,71.30067898218346L76.30442044767538,72.36798874613045L76.553782113719,72.654710667758L76.80314377976258,74.52092102064883L77.05250544580619,72.0478805877845L77.30186711184979,74.55329113010207L77.55122877789339,72.11444534459802L77.80059044393698,72.16508328897334L78.0499521099806,73.80091906477045L78.29931377602418,69.17186429181544L78.54867544206779,71.95103411567601L78.79803710811139,66.91624702388587L79.04739877415497,64.96176833403128L79.29676044019858,67.51685121912409L79.5461221062422,76.03605659643827L79.79548377228578,74.95289861553213L80.04484543832938,69.40669074140247L80.29420710437297,73.88617831767822L80.54356877041657,73.6016402275764L80.79293043646018,73.28942530091466L81.04229210250377,73.979443081526L81.29165376854738,73.24313256373961L81.54101543459097,70.74093320813853L81.79037710063457,74.67592814727264L82.03973876667817,73.85497029852273L82.28910043272178,71.97380996271932L82.53846209876536,69.82792321150369L82.78782376480898,74.07385309378317L83.03718543085257,72.36280705847429L83.28654709689617,75.75510021459712L83.53590876293977,69.534649795299L83.78527042898338,73.75056743249748L84.03463209502696,76.04832871909952L84.28399376107058,76.2691258756717L84.53335542711417,74.7678455600506L84.78271709315777,73.62017753271245L85.03207875920137,76.82132648372544L85.28144042524498,74.77247146539042L85.53080209128856,72.77854907296586L85.78016375733218,75.26305883181233L86.02952542337576,71.77829809455802L86.27888708941936,76.35252129293282L86.52824875546297,78.63002740178473L86.77761042150655,77.47378685326463L87.02697208755016,72.52209202474491L87.27633375359376,74.31164932968667L87.52569541963736,77.48735580133061L87.77505708568096,74.41841006008417L88.02441875172457,74.40267412238084L88.27378041776815,67.89139236069211L88.52314208381176,73.73997388471076L88.77250374985536,76.52460048040423L89.02186541589896,67.36673385409127L89.27122708194256,68.66613606774605L89.52058874798617,62.99103160793377L89.76995041402975,68.42169289989793L90.01931208007336,59.94837605443784L90.26867374611696,68.27761054486551L90.51803541216056,66.03251945716916L90.76739707820416,71.36870898328546L91.01675874424777,72.7222915518367L91.26612041029135,69.01645295987068L91.51548207633496,72.18906052405394L91.76484374237856,63.45777647438209L92.01420540842214,72.48555635490071L92.26356707446575,72.36678735809316L92.51292874050934,67.10799753697715L92.76229040655295,73.6043349297161L93.01165207259655,69.34799676042199L93.26101373864014,56.47496113598427L93.51037540468374,62.87953830690342L93.75973707072735,60.774515590843905L94.00909873677094,67.63768615423875L94.25846040281455,68.95903896240655L94.50782206885815,71.24217587593789L94.75718373490174,66.39570916597367L95.00654540094534,68.42532513382375L95.25590706698895,71.32881616369224L95.50526873303254,65.36038214804734L95.75463039907615,62.454931845164786L96.00399206511975,68.91042204463602L96.25335373116334,65.19928387179522L96.50271539720694,70.3653983951565L96.75207706325055,67.1694704295392L97.00143872929414,68.01121678250439L97.25080039533775,69.6152382311646L97.50016206138135,68.85146420740436L97.74952372742493,65.7798237640182L97.99888539346854,62.203212981539465L98.24824705951215,61.45133494493348L98.49760872555574,70.65702692026343L98.74697039159933,70.6696583365433L98.99633205764293,64.81585021316617L99.24569372368653,73.17702815187494L99.49505538973014,68.17445959254268L99.74441705577372,72.55707824085874L99.99377872181734,72.55213795360264L100.24314038786093,64.73533475881686L100.49250205390453,63.27459286850995L100.74186371994813,65.88319927485269L100.99122538599174,68.21183174284273L101.24058705203532,73.88063733640344L101.48994871807894,52.590267303458L101.73931038412253,66.0252325334664L101.98867205016613,66.60603066797776L102.23803371620973,65.31657078242593L102.48739538225334,64.81998208978038L102.73675704829692,57.158820399413834L102.98611871434053,54.9448531214311L103.23548038038413,64.42285036194116L103.48484204642773,69.69253688483462L103.73420371247133,69.33854846104465L103.98356537851494,62.25560248230559L104.23292704455852,60.3209410811034L104.48228871060213,70.7301600135425L104.73165037664572,61.846142492177194L104.98101204268931,61.16521371732457L105.23037370873293,69.85215868887268L105.47973537477651,68.63158774072991L105.72909704082012,68.43975301819677L105.97845870686372,68.34478722362329L106.22782037290732,65.75606547348646L106.47718203895091,60.91837900132747L106.72654370499453,66.18980023872336L106.97590537103811,66.96234888632601L107.22526703708172,75.3225724513603L107.47462870312532,67.20089739324352L107.72399036916892,59.995230187892L107.97335203521251,59.095761069509166L108.22271370125613,61.146934654476894L108.47207536729971,59.280314482302316L108.72143703334332,62.341832950776194L108.97079869938692,59.6113249563885L109.22016036543052,57.516598248087746L109.46952203147411,62.471077602151865L109.71888369751773,64.56776919742946L109.96824536356131,61.19184635680535L110.21760702960492,58.02734535489236L110.46696869564852,62.700127284026905L110.7163303616921,65.90986559811022L110.96569202773571,63.13758972055707L111.2150536937793,65.86964716867509L111.46441535982291,67.84211860927502L111.7137770258665,50.33538546465405L111.9631386919101,62.42756939052118L112.2125003579537,60.229747869525504L112.46186202399731,56.817244447354874L112.7112236900409,62.5860852438894L112.96058535608451,56.09393025342979L113.2099470221281,60.3810778505212L113.4593086881717,64.47751913160045L113.7086703542153,58.9426009366436L113.95803202025891,57.519281722301876L114.2073936863025,58.53791281488763L114.45675535234611,64.34781413527593L114.7061170183897,54.509838372677834L114.9554786844333,55.22258708863016L115.2048403504769,59.422572299427635L115.45420201652051,54.69039464396374L115.7035636825641,65.19671267683692L115.9529253486077,57.657542397919975L116.2022870146513,58.073660547918564L116.45164868069489,60.3253985675595L116.7010103467385,52.66852594476532L116.95037201278211,61.72291600891355L117.1997336788257,53.005532131112346L117.44909534486929,61.76447056149295L117.69845701091289,62.219482245707944L117.94781867695649,62.772008463603555L118.1971803430001,57.828274234321555L118.44654200904368,49.78273573957705L118.6959036750873,46.52484085267207L118.94526534113089,61.341694251624176L119.19462700717449,53.85987621658065L119.44398867321809,58.61785564503225L119.6933503392617,55.36966168583021L119.94271200530528,57.60813952535869L120.1920736713489,66.44528045741869L120.44143533739249,59.85813721653444L120.69079700343609,58.761988525729805L120.94015866947969,42.04529152280562L121.1895203355233,57.17424756916365L121.43888200156688,49.8808565812391L121.6882436676105,62.19069384451541L121.93760533365409,52.84392859820904L122.18696699969769,64.34739870202938L122.43632866574129,59.82593552596493L122.6856903317849,64.13534809948565L122.93505199782848,61.40326819551646L123.18441366387209,61.394701288297306L123.43377532991568,63.09801128288013L123.68313699595927,48.46949510764232L123.93249866200289,59.292204855493765L124.18186032804647,52.51596089195561L124.43122199409008,57.129796211784075L124.68058366013368,58.34923875340585L124.92994532617728,62.39769188054718L125.17930699222087,59.24073604462538L125.42866865826448,60.54501679194557L125.67803032430807,64.14038943807203L125.92739199035168,61.056808095829304L126.17675365639528,66.88685231471192L126.42611532243887,47.59505303538203L126.67547698848247,61.216963226332524L126.92483865452608,56.79645032917683L127.17420032056967,67.40992768380565L127.42356198661328,60.94180045409175L127.67292365265688,60.67408179651193L127.92228531870047,58.09265819800348L128.1716469847441,51.632076134280766L128.42100865078768,55.73103247069043L128.67037031683128,60.79223325741247L128.91973198287488,63.8823941640463L129.16909364891848,54.97054261516297L129.41845531496207,64.55879808488936L129.66781698100567,61.05154219873128L129.91717864704927,62.93383655501851L130.16654031309287,51.184598388131356L130.41590197913646,63.35279537018935L130.66526364518006,66.4584508141265L130.91462531122366,60.565687402942245L131.16398697726726,56.435730764000375L131.41334864331085,50.8812535226795L131.66271030935445,54.47586266986636L131.91207197539808,63.235867753177274L132.16143364144165,61.81728672343119L132.41079530748527,59.01140566461077L132.66015697352887,61.36922512515151L132.90951863957247,55.993754701386194L133.15888030561607,55.90414462731538L133.40824197165966,59.5827049740797L133.65760363770326,55.61478975713883L133.90696530374686,57.48187027426229L134.15632696979046,57.114604828471485L134.40568863583405,57.24196318834935L134.65505030187765,53.312593439931874L134.90441196792128,54.956260693822514L135.15377363396485,54.13442145291442L135.40313530000847,53.865052290274015L135.65249696605207,43.21626310968944L135.90185863209564,59.861842431976534L136.15122029813926,60.61915478456425L136.40058196418283,59.0818159859362L136.64994363022646,63.77521238643948L136.89930529627006,57.052098966755864L137.14866696231365,67.53824041735801L137.39802862835725,56.881445725833395L137.64739029440085,55.2002210608706L137.89675196044445,61.4977624172155L138.14611362648805,54.99924119295082L138.39547529253164,54.827352880214306L138.64483695857524,55.52941261101247L138.89419862461884,60.339893819486L139.14356029066246,54.38294035774883L139.39292195670603,55.82013728811005L139.64228362274966,54.041465457020124L139.89164528879326,63.69002611504803L140.14100695483685,61.443520308728324L140.39036862088045,59.65356441242838L140.63973028692405,56.39348008003489L140.88909195296765,53.226542618270585L141.13845361901124,53.01682742424794L141.38781528505484,58.732863286769806L141.63717695109844,50.0352405579931L141.88653861714204,52.84440017108348L142.13590028318563,52.26425325625587L142.38526194922923,58.720826950545785L142.63462361527283,59.671158571815546L142.88398528131643,53.976972252476486L143.13334694736002,49.93020331417247L143.38270861340365,56.50223376722322L143.63207027944722,52.06512599605715L143.88143194549085,50.750728887787474L144.13079361153444,60.16961110010773L144.38015527757804,53.91974351578446L144.62951694362164,40.44119147866634L144.87887860966524,48.53755879252106L145.12824027570883,47.414979564896136L145.37760194175243,35.7525894023866L145.62696360779603,53.55346612744489L145.87632527383963,42.314031921613434L146.12568693988322,51.557511480489964L146.37504860592685,48.95327273719869L146.62441027197042,42.15078911157513L146.87377193801404,40.03962472022219L147.12313360405764,53.197248960426855L147.37249527010124,51.63928446250446L147.62185693614484,39.95990644858921L147.87121860218843,45.46230857106027L148.12058026823203,43.7526997102259L148.36994193427563,52.58990800983938L148.61930360031923,53.962443316773225L148.86866526636283,46.44810920924391L149.11802693240642,38.746852596623654L149.36738859845002,44.36779915739061L149.61675026449362,45.5996036450783L149.86611193053722,38.4289338837662L150.11547359658084,31.43376782722808L150.36483526262444,47.97198572509903L150.614196928668,50.33850682796588L150.8635585947116,22.293450448599952L151.11292026075523,39.238613281268904L151.36228192679883,33.18201197999047L151.61164359284243,38.009514723646504L151.861005258886,30.879647243899804L152.11036692492962,53.66718255774049L152.35972859097322,51.99339077951304L152.60909025701682,52.92738576906086L152.85845192306041,58.29977974121667L153.10781358910404,45.00145836554256L153.3571752551476,38.6007099172469L153.6065369211912,44.569789538612774L153.8558985872348,46.42381197828424L154.10526025327843,38.41412424992342L154.35462191932203,41.72649703175279L154.60398358536563,29.329946499205843L154.8533452514092,40.16159367582065L155.1027069174528,53.89802870770866L155.35206858349642,46.029824069608L155.60143024954002,32.44026153225956L155.8507919155836,14.461994810929529L156.1001535816272,43.99781655360894L156.3495152476708,41.425947919770856L156.5988769137144,43.96618748724413L156.848238579758,44.820441749307804L157.0976002458016,50.09035844467569L157.34696191184523,44.89654462890333L157.59632357788882,42.99479227758233L157.8456852439324,43.54432063934751L158.095046909976,43.309028230848824L158.34440857601962,51.04485562633641L158.59377024206321,49.894734297258594L158.8431319081068,40.73333087438727L159.09249357415038,46.15357826537402L159.34185524019398,53.72528707262791L159.5912169062376,32.018226265479214L159.8405785722812,39.70003611099128L160.0899402383248,41.532456021842755L160.33930190436843,39.74033313590548L160.588663570412,49.430919919387215L160.8380252364556,39.67354943454307L161.0873869024992,48.000863949696225L161.3367485685428,36.83912698889295L161.5861102345864,42.57746151162089L161.83547190063,41.904706666592034L162.08483356667358,45.52019975536162L162.33419523271718,34.021591343318335L162.5835568987608,50.43665012547911L162.8329185648044,53.4641479794392L163.082280230848,45.98535025637727L163.3316418968916,37.79160314394891L163.5810035629352,49.40240098840865L163.8303652289788,45.98295870822828L164.0797268950224,45.41099695115003L164.329088561066,43.77225875658993L164.5784502271096,49.557413728995265L164.82781189315318,38.9721970630566L165.07717355919678,35.99467470586247L165.32653522524038,50.6207319653978L165.575896891284,35.62504016777385L165.8252585573276,52.419973356154145L166.0746202233712,35.757327586982264L166.32398188941477,42.44798107380799L166.57334355545837,44.911107248383324L166.822705221502,49.58006045489438L167.0720668875456,35.500477561365926L167.3214285535892,43.77259559435739L167.5707902196328,45.55213197571715L167.82015188567638,49.6598797778576L168.06951355171998,53.20861162111595L168.31887521776358,46.21978934253172L168.56823688380717,45.7769599575733L168.8175985498508,54.750553869232675L169.0669602158944,45.83587288310264L169.31632188193797,44.18314469326725L169.56568354798156,51.83662648253564L169.8150452140252,41.059187730631244L170.0644068800688,50.221848681167764L170.31376854611239,57.06471915511016L170.56313021215595,51.210029639574834L170.81249187819958,48.77965532392252L171.06185354424318,37.04922393238539L171.31121521028678,50.904326909750736L171.56057687633037,38.24786112790352L171.809938542374,37.44631074852229L172.05930020841757,44.51345903596732L172.30866187446117,49.91971643167877L172.55802354050476,51.51047770022652L172.8073852065484,36.76877280719546L173.056746872592,44.244168468806L173.30610853863558,47.78473761016618L173.55547020467915,49.163740202235324L173.80483187072275,49.6446322549171L174.05419353676638,45.48034061954513L174.30355520280997,38.89462332520981L174.55291686885357,36.28438886965766L174.80227853489717,45.775635062354624L175.05164020094077,49.69472003093887L175.30100186698436,47.4617663307968L175.55036353302796,31.34484265661777L175.79972519907156,45.999261656173495L176.04908686511519,53.01294256199654L176.29844853115878,48.65421693931918L176.54781019720235,26.52899449971598L176.79717186324595,43.76783495391059L177.04653352928958,42.37502201337545L177.29589519533317,50.51038391277684L177.54525686137677,45.313190491404264L177.79461852742034,44.44994266094934L178.04398019346394,23.42620217680227L178.29334185950756,44.09437671361507L178.54270352555116,43.77324681404116L178.79206519159476,45.499080027341684L179.04142685763838,50.825978445038764L179.29078852368195,41.709576547900554L179.54015018972555,48.27599303816024L179.78951185576915,50.140659551283534L180.03887352181275,28.236054621443195L180.28823518785637,42.4877054745175L180.53759685389997,39.776262497768215L180.78695851994354,45.74187269012922L181.03632018598714,37.02502775275595L181.28568185203076,37.22677111961531L181.53504351807436,43.67468808328141L181.78440518411796,42.50375018017434L182.03376685016156,50.122470311840516L182.28312851620515,49.09875296896607L182.53249018224875,44.06861985232973L182.78185184829235,44.473768319034576L183.03121351433595,34.83375211237465L183.28057518037957,41.918225088992884L183.52993684642314,43.820437785262754L183.77929851246674,50.27713498673408L184.02866017851034,29.33904111892735L184.27802184455396,43.26646316496706L184.52738351059756,45.44594948348714L184.77674517664116,41.17057998033136L185.02610684268473,51.17774935352628L185.27546850872832,39.56372909442446L185.52483017477195,27.542820040152577L185.77419184081555,43.986588628026816L186.02355350685914,46.03753765448292L186.27291517290277,38.618764421582945L186.52227683894634,54.08410911838097L186.77163850498994,39.055530726727L187.02100017103353,42.307452357222296L187.27036183707713,31.132208201943776L187.51972350312076,46.98075077093364L187.76908516916436,41.77668585910482L188.01844683520793,49.41696360788865L188.26780850125152,48.093898541069564L188.51717016729515,43.06930079174521L188.76653183333875,33.555755938842175L189.01589349938234,44.92386217184461L189.2652551654259,43.67877504819328L189.51461683146954,46.13851038924283L189.76397849751314,46.00289950406209L190.01334016355673,41.96894162884729L190.26270182960033,46.74323523316968L190.51206349564396,40.07923684167587L190.76142516168753,49.16141602163982L191.01078682773112,49.13967875771286L191.26014849377472,43.29114214539653L191.50951015981835,37.86489904214891L191.75887182586195,40.454339379522985L192.00823349190554,40.458830549755845L192.2575951579491,45.17734381978632L192.5069568239927,48.48074548907558L192.75631849003634,47.33730477571911L193.00568015607993,47.00021999389301L193.25504182212353,36.24918932295775L193.50440348816713,44.97216470769884L193.75376515421073,37.05747645768824L194.00312682025432,26.7475797549485L194.25248848629792,46.653153586224406L194.50185015234152,49.21868967003416L194.75121181838514,42.20288668627612L195.00057348442874,41.23800367345194L195.2499351504723,41.86259071773354L195.4992968165159,39.48607676109859L195.74865848255953,42.66066044018432L195.99802014860313,48.366276787765976L196.24738181464673,48.362279646258735L196.4967434806903,33.7290140584997L196.7461051467339,49.290728040568986L196.99546681277752,30.819409423151768L197.24482847882112,34.8017188406889L197.49419014486472,36.88903511810543L197.74355181090834,42.56897319988081L197.9929134769519,46.72167761605203L198.2422751429955,39.040732320809795L198.4916368090391,25.47736453384442L198.7409984750827,42.63923755817364L198.99036014112633,36.55199524798167L199.23972180716993,39.23865819297122L199.4890834732135,36.01176360859844L199.7384451392571,33.115194594851346L199.98780680530072,23.672228482157447L200.23716847134432,32.645249769612136L200.48653013738792,24.375972401792925L200.7358918034315,27.241372694124088L200.9852534694751,41.13104645435674L201.2346151355187,35.815016668623144L201.4839768015623,29.430851866412258L201.7333384676059,42.40343989302376L201.98270013364953,43.03816575410602L202.2320617996931,41.00784242694425L202.4814234657367,36.023429423278266L202.7307851317803,32.05873662097946L202.98014679782392,36.25122157748811L203.22950846386752,35.105041250289595L203.47887012991112,41.583206245473896L203.72823179595468,22.712746101538254L203.97759346199828,40.329114325505714L204.2269551280419,39.94429963203008L204.4763167940855,38.14966169076239L204.7256784601291,36.553769260223646L204.97504012617273,42.94679289571881L205.2244017922163,36.07071021790452L205.4737634582599,27.411700325204702L205.7231251243035,19.104730811206363L205.9724867903471,38.792359379007934L206.22184845639072,33.291023909467185L206.47121012243431,35.049373195253494L206.72057178847788,40.120050351166846L206.96993345452148,10.326278246164048L207.2192951205651,39.18723429380515L207.4686567866087,35.18416444186671L207.7180184526523,31.64911943989294L207.96738011869587,25.79878635948348L208.2167417847395,13.041145740215878L208.4661034507831,35.14687650100854L208.7154651168267,41.672928598800524L208.9648267828703,37.53238402603475L209.21418844891392,42.98775236824233L209.46355011495748,36.62095716690697L209.71291178100108,34.26911096277593L209.96227344704468,36.36359065671385L210.2116351130883,34.852042403147905L210.4609967791319,22.439828914413912L210.7103584451755,24.356840016601012L210.95972011121907,44.32699687582524L211.20908177726267,30.07665969004405L211.4584434433063,40.059004119776915L211.7078051093499,36.03078371453454L211.9571667753935,35.89476862403287L212.2065284414371,30.71562970699634L212.45589010748068,42.37885073599894L212.70525177352428,13.068283636347832L212.95461343956788,27.131664633261313L213.20397510561148,37.656957860368244L213.4533367716551,37.47696298536145L213.7026984376987,32.31503647824229L213.95206010374227,24.721118834186985L214.20142176978587,30.437783460541436L214.4507834358295,37.328125603844995L214.7001451018731,28.018176725522363L214.9495067679167,27.66172377206712L215.19886843396026,37.21262393338185L215.44823010000385,21.786296277981645L215.69759176604748,23.131401762718394L215.94695343209108,23.776356264005944L216.19631509813468,33.379971535928654L216.4456767641783,34.36165152542369L216.69503843022187,31.079257304898544L216.94440009626547,43.94339479831246L217.19376176230907,36.4311490849414L217.44312342835266,40.59985329506713L217.6924850943963,25.477645231983967L217.9418467604399,35.88786344979987L218.19120842648346,33.467796369831916L218.44057009252705,40.11714231844107L218.68993175857068,25.446532650195927L218.93929342461428,29.224089616817714L219.18865509065787,29.094373392567586L219.43801675670147,30.20764466988493L219.68737842274507,25.148655784502562L219.93674008878867,31.944178096265205L220.18610175483226,38.746268744493385L220.43546342087586,35.92929449519786L220.6848250869195,29.333112774219984L220.93418675296306,25.19928250095229L221.18354841900666,23.705159987889775L221.43291008505025,29.897877431000115L221.68227175109388,35.87845444816205L221.93163341713748,24.990532908529705L222.18099508318107,38.1574987828187L222.43035674922464,28.31943319681596L222.67971841526824,27.30606800132822L222.92908008131187,34.14619886142857L223.17844174735546,37.95088249625673L223.42780341339906,39.583557611002476L223.6771650794427,44.39960787056473L223.92652674548626,27.62121341656687L224.17588841152985,33.49469847952666L224.42525007757345,29.617033328414806L224.67461174361705,32.520563656022816L224.92397340966068,31.073710709660975L225.17333507570427,21.826559619119088L225.42269674174784,22.957133129758454L225.67205840779144,30.92926344704714L225.92142007383507,21.56930538818179L226.17078173987866,27.763796843534077L226.42014340592226,28.143895808265246L226.66950507196583,22.24694438083886L226.91886673800946,37.89683126250445L227.16822840405305,31.324194501472274L227.41759007009665,31.26758330068726L227.66695173614025,33.670494110365745L227.91631340218387,27.73372845882519L228.16567506822744,39.02399148376687L228.41503673427104,44.53104196742891L228.66439840031464,36.54999667722805L228.91376006635826,35.68696217735917L229.16312173240186,45.69495118912159L229.41248339844546,33.22537422858858L229.66184506448903,34.54799017838438L229.91120673053263,24.42246724162846L230.16056839657625,37.64888498187471L230.40993006261985,31.161703962447973L230.65929172866345,24.295950976169234L230.90865339470704,36.10196876272511L231.15801506075064,35.31309471132607L231.40737672679424,29.90403033421911L231.65673839283784,19.743476269647005L231.90610005888144,29.466253515772642L232.15546172492506,24.159262210132635L232.40482339096866,23.771191418238182L232.65418505701223,35.18872297965304L232.90354672305583,9.97702239300695L233.15290838909945,21.53138868349101L233.40227005514305,21.521934770150857L233.65163172118665,-4.930765975234689L233.90099338723022,13.464977475089357L234.1503550532738,29.384334570725564L234.39971671931744,31.038499935035485L234.64907838536104,30.701999005339655L234.89844005140463,28.099242348225204L235.14780171744826,35.20726028478913L235.39716338349183,20.955833990226473L235.64652504953543,32.79104438329584L235.89588671557902,34.28594162322352L236.14524838162262,19.155166652921203L236.39461004766625,12.73808157290357L236.64397171370985,18.93579544289792L236.89333337975341,33.66091668984422L237.142695045797,27.93589848685666L237.39205671184064,39.68587769683224L237.64141837788424,34.103633795546806L237.89078004392783,31.27307375629693L238.14014170997143,-1.4461455870501752L238.38950337601503,9.426472290013775L238.63886504205863,19.91951891484889L238.88822670810222,26.854548201969255L239.13758837414582,34.938688304865046L239.38695004018945,39.630501567861266L239.63631170623302,27.033386600641105L239.8856733722766,37.39007006928151L240.1350350383202,36.15303336827256L240.38439670436384,9.059307895553205L240.63375837040743,22.29246239114872L240.88312003645103,26.83449512687961L241.1324817024946,42.911177915772356L241.3818433685382,40.34741584420457L241.63120503458182,38.84204294970877L241.88056670062542,41.888134248432834L242.12992836666902,31.60611648491345L242.37929003271265,39.85866424361533L242.62865169875622,26.120657302145815L242.8780133647998,30.8748753755274L243.1273750308434,40.13252457648857L243.376736696887,33.73809745029563L243.62609836293063,40.70313898249697L243.87546002897423,33.68129537477575L244.1248216950178,28.36867887841908L244.3741833610614,32.11040753450834L244.62354502710502,29.413987522187934L244.87290669314862,25.45411149996385L245.12226835919222,40.41289710619942L245.3716300252358,25.363367405409253L245.62099169127941,42.86065225065286L245.870353357323,32.6996939807598L246.1197150233666,38.61129785107084L246.3690766894102,22.007677286684107L246.61843835545383,39.119339027810135L246.8678000214974,40.13886835444245L247.117161687541,33.4287119608806L247.3665233535846,40.04895512638091L247.61588501962822,30.343502569428473L247.86524668567182,39.808823481956345L248.11460835171542,24.99805561866973L248.363970017759,34.38407369281115L248.61333168380258,3.156585314377603L248.8626933498462,46.428538934954304L249.1120550158898,29.049428006462396L249.3614166819334,40.350649486772205L249.610778347977,22.70920930497989L249.8601400140206,32.09873049190294L250.1095016800642,28.060696879701812L250.3588633461078,28.844473452886582L250.6082250121514,36.95304552184904L250.85758667819502,35.095778211684355L251.10694834423862,45.21834820401219L251.3563100102822,39.25921652471206L251.60567167632578,29.352750416063092L251.8550333423694,33.2996132725375L252.104395008413,34.67848112949965L252.3537566744566,32.34281436613244L252.60311834050017,36.843606931200206L252.85248000654377,36.34347021407071L253.1018416725874,36.57034167838282L253.351203338631,40.38766795741643L253.6005650046746,40.02972168985877L253.84992667071822,15.591041323689751L254.0992883367618,41.47638376148569L254.34865000280539,24.517960748704304L254.59801166884898,39.94531014533247L254.84737333489258,28.953878359758654L255.0967350009362,39.706492168200995L255.3460966669798,26.508739321965844L255.59545833302337,29.105230796605486L255.84481999906697,35.11644882268101L256.09418166511057,43.14922116603867L256.3435433311542,41.84325622988114L256.5929049971978,33.46388905172935L256.8422666632414,39.51734653384478L257.09162832928496,22.949689015097523L257.3409899953286,40.53321555673731L257.5903516613722,40.47066478331938L257.8397133274158,3.639857687282774L258.0890749934594,28.335174748482082L258.338436659503,43.86238531523754L258.5877983255466,43.02210982052359L258.83715999159017,34.71442171928799L259.0865216576338,16.553577700067272L259.33588332367736,26.787618537574293L259.585244989721,35.12188313866276L259.83460665576456,34.88135851684279L260.0839683218082,44.0727741847951L260.33332998785176,36.64687121915048L260.5826916538954,24.942454931187108L260.832053319939,39.15973710405458L261.0814149859826,43.71815138320975L261.33077665202615,33.94334392993659L261.58013831806977,20.919915856289293L261.8294999841134,23.439103063296113L262.07886165015697,38.7889236337798L262.3282233162006,29.655466517682356L262.57758498224416,39.73633599439824L262.8269466482878,28.465766750927582L263.07630831433136,30.56052714300507L263.325669980375,28.790343623655225L263.57503164641855,38.948876661622556L263.8243933124622,30.636371780312228L264.07375497850575,37.4483205472015L264.3231166445494,33.38920089075716L264.57247831059294,33.183336875209164L264.82183997663657,14.458637661180495L265.0712016426802,31.024105734439217L265.32056330872376,37.203753872171966L265.56992497476733,33.50546606015991L265.81928664081096,20.21193900870937L266.0686483068546,35.325277010582674L266.31800997289815,34.329550886184435L266.5673716389418,35.74022745632071L266.8167333049854,37.867324274074655L267.066094971029,19.893627318456556L267.31545663707254,32.41748007125347L267.56481830311617,23.522975667394473L267.81417996915974,34.8851872394663L268.06354163520336,39.656280884997784L268.312903301247,40.052963495813735L268.56226496729056,31.553771895849668L268.81162663333413,32.67224170271154L269.06098829937775,35.76690500750379L269.3103499654214,31.01844685994584L269.55971163146495,34.86350611516723L269.8090732975086,29.609342199391044L270.05843496355214,25.33535373108188L270.30779662959577,39.25953090662836L270.55715829563934,38.20574517904503L270.80651996168297,26.981558496154076L271.0558816277266,35.96485333551639L271.30524329377016,30.679790168538233L271.55460495981373,36.425535122150364L271.80396662585736,22.662927795730447L272.053328291901,39.55521832683322L272.30268995794455,43.067189941735755L272.5520516239882,22.58260321611603L272.80141329003175,17.996579467954444L273.0507749560753,28.24444188185304L273.30013662211894,39.76019533626021L273.54949828816257,32.75783217942395L273.79885995420614,41.04020130847191L274.04822162024976,29.39954840988933L274.29758328629333,38.01799180746098" fill="none"></path></g></g></g></g></g></g><g transform="translate(30, 176)" clip-path="url(#clip_1)"><clipPath id="clip_1"><rect width="299" height="23"></rect></clipPath><g><g><line x1="0" y1="0" x2="0" y2="5" style="visibility: inherit;" fill="rgb(0, 0, 0)" stroke="rgb(204, 204, 204)" stroke-width="1px"></line><line x1="24.936166604359943" y1="0" x2="24.936166604359943" y2="5" style="visibility: inherit;" fill="rgb(0, 0, 0)" stroke="rgb(204, 204, 204)" stroke-width="1px"></line><line x1="49.87233320871989" y1="0" x2="49.87233320871989" y2="5" style="visibility: inherit;" fill="rgb(0, 0, 0)" stroke="rgb(204, 204, 204)" stroke-width="1px"></line><line x1="74.80849981307983" y1="0" x2="74.80849981307983" y2="5" style="visibility: inherit;" fill="rgb(0, 0, 0)" stroke="rgb(204, 204, 204)" stroke-width="1px"></line><line x1="99.74466641743977" y1="0" x2="99.74466641743977" y2="5" style="visibility: inherit;" fill="rgb(0, 0, 0)" stroke="rgb(204, 204, 204)" stroke-width="1px"></line><line x1="124.68083302179973" y1="0" x2="124.68083302179973" y2="5" style="visibility: inherit;" fill="rgb(0, 0, 0)" stroke="rgb(204, 204, 204)" stroke-width="1px"></line><line x1="149.61699962615967" y1="0" x2="149.61699962615967" y2="5" style="visibility: inherit;" fill="rgb(0, 0, 0)" stroke="rgb(204, 204, 204)" stroke-width="1px"></line><line x1="174.55316623051962" y1="0" x2="174.55316623051962" y2="5" style="visibility: inherit;" fill="rgb(0, 0, 0)" stroke="rgb(204, 204, 204)" stroke-width="1px"></line><line x1="199.48933283487955" y1="0" x2="199.48933283487955" y2="5" style="visibility: inherit;" fill="rgb(0, 0, 0)" stroke="rgb(204, 204, 204)" stroke-width="1px"></line><line x1="224.4254994392395" y1="0" x2="224.4254994392395" y2="5" style="visibility: inherit;" fill="rgb(0, 0, 0)" stroke="rgb(204, 204, 204)" stroke-width="1px"></line><line x1="249.36166604359946" y1="0" x2="249.36166604359946" y2="5" style="visibility: inherit;" fill="rgb(0, 0, 0)" stroke="rgb(204, 204, 204)" stroke-width="1px"></line><line x1="274.29783264795935" y1="0" x2="274.29783264795935" y2="5" style="visibility: inherit;" fill="rgb(0, 0, 0)" stroke="rgb(204, 204, 204)" stroke-width="1px"></line><line x1="299.23399925231934" y1="0" x2="299.23399925231934" y2="5" style="visibility: inherit;" fill="rgb(0, 0, 0)" stroke="rgb(204, 204, 204)" stroke-width="1px"></line></g><g transform="translate(0, 8)"><text style="text-anchor: middle; visibility: hidden; font-family: Roboto, sans-serif; font-size: 12px; font-weight: 200;" x="0" y="0" dx="0em" dy="0.95em" fill="rgb(33, 33, 33)" stroke="none" stroke-width="1px">-100k</text><text style="text-anchor: middle; visibility: inherit; font-family: Roboto, sans-serif; font-size: 12px; font-weight: 200;" x="24.936166604359943" y="0" dx="0em" dy="0.95em" fill="rgb(33, 33, 33)" stroke="none" stroke-width="1px">0</text><text style="text-anchor: middle; visibility: hidden; font-family: Roboto, sans-serif; font-size: 12px; font-weight: 200;" x="49.87233320871989" y="0" dx="0em" dy="0.95em" fill="rgb(33, 33, 33)" stroke="none" stroke-width="1px">100k</text><text style="text-anchor: middle; visibility: inherit; font-family: Roboto, sans-serif; font-size: 12px; font-weight: 200;" x="74.80849981307983" y="0" dx="0em" dy="0.95em" fill="rgb(33, 33, 33)" stroke="none" stroke-width="1px">200k</text><text style="text-anchor: middle; visibility: hidden; font-family: Roboto, sans-serif; font-size: 12px; font-weight: 200;" x="99.74466641743977" y="0" dx="0em" dy="0.95em" fill="rgb(33, 33, 33)" stroke="none" stroke-width="1px">300k</text><text style="text-anchor: middle; visibility: inherit; font-family: Roboto, sans-serif; font-size: 12px; font-weight: 200;" x="124.68083302179973" y="0" dx="0em" dy="0.95em" fill="rgb(33, 33, 33)" stroke="none" stroke-width="1px">400k</text><text style="text-anchor: middle; visibility: hidden; font-family: Roboto, sans-serif; font-size: 12px; font-weight: 200;" x="149.61699962615967" y="0" dx="0em" dy="0.95em" fill="rgb(33, 33, 33)" stroke="none" stroke-width="1px">500k</text><text style="text-anchor: middle; visibility: inherit; font-family: Roboto, sans-serif; font-size: 12px; font-weight: 200;" x="174.55316623051962" y="0" dx="0em" dy="0.95em" fill="rgb(33, 33, 33)" stroke="none" stroke-width="1px">600k</text><text style="text-anchor: middle; visibility: hidden; font-family: Roboto, sans-serif; font-size: 12px; font-weight: 200;" x="199.48933283487955" y="0" dx="0em" dy="0.95em" fill="rgb(33, 33, 33)" stroke="none" stroke-width="1px">700k</text><text style="text-anchor: middle; visibility: inherit; font-family: Roboto, sans-serif; font-size: 12px; font-weight: 200;" x="224.4254994392395" y="0" dx="0em" dy="0.95em" fill="rgb(33, 33, 33)" stroke="none" stroke-width="1px">800k</text><text style="text-anchor: middle; visibility: hidden; font-family: Roboto, sans-serif; font-size: 12px; font-weight: 200;" x="249.36166604359946" y="0" dx="0em" dy="0.95em" fill="rgb(33, 33, 33)" stroke="none" stroke-width="1px">900k</text><text style="text-anchor: middle; visibility: inherit; font-family: Roboto, sans-serif; font-size: 12px; font-weight: 200;" x="274.29783264795935" y="0" dx="0em" dy="0.95em" fill="rgb(33, 33, 33)" stroke="none" stroke-width="1px">1M</text><text style="text-anchor: middle; visibility: hidden; font-family: Roboto, sans-serif; font-size: 12px; font-weight: 200;" x="299.23399925231934" y="0" dx="0em" dy="0.95em" fill="rgb(33, 33, 33)" stroke="none" stroke-width="1px">1.1M</text></g><line x1="0" y1="0" x2="299.23399925231934" y2="0" fill="rgb(0, 0, 0)" stroke="rgb(204, 204, 204)" stroke-width="1px"></line></g></g></g></g></svg>