<svg viewBox="0 0 330 200" xmlns="http://www.w3.org/2000/svg"><g><g><g><g><g><line x1="61.91500186920166" y1="176.5999994277954" x2="56.91500186920166" y2="176.5999994277954" style="visibility: inherit;" fill="rgb(0, 0, 0)" stroke="rgb(204, 204, 204)" stroke-width="1px"></line><line x1="61.91500186920166" y1="161.88333280881244" x2="56.91500186920166" y2="161.88333280881244" style="visibility: inherit;" fill="rgb(0, 0, 0)" stroke="rgb(204, 204, 204)" stroke-width="1px"></line><line x1="61.91500186920166" y1="147.1666661898295" x2="56.91500186920166" y2="147.1666661898295" style="visibility: inherit;" fill="rgb(0, 0, 0)" stroke="rgb(204, 204, 204)" stroke-width="1px"></line><line x1="61.91500186920166" y1="132.44999957084656" x2="56.91500186920166" y2="132.44999957084656" style="visibility: inherit;" fill="rgb(0, 0, 0)" stroke="rgb(204, 204, 204)" stroke-width="1px"></line><line x1="61.91500186920166" y1="117.7333329518636" x2="56.91500186920166" y2="117.7333329518636" style="visibility: inherit;" fill="rgb(0, 0, 0)" stroke="rgb(204, 204, 204)" stroke-width="1px"></line><line x1="61.91500186920166" y1="103.01666633288065" x2="56.91500186920166" y2="103.01666633288065" style="visibility: inherit;" fill="rgb(0, 0, 0)" stroke="rgb(204, 204, 204)" stroke-width="1px"></line><line x1="61.91500186920166" y1="88.29999971389769" x2="56.91500186920166" y2="88.29999971389769" style="visibility: inherit;" fill="rgb(0, 0, 0)" stroke="rgb(204, 204, 204)" stroke-width="1px"></line><line x1="61.91500186920166" y1="73.58333309491476" x2="56.91500186920166" y2="73.58333309491476" style="visibility: inherit;" fill="rgb(0, 0, 0)" stroke="rgb(204, 204, 204)" stroke-width="1px"></line><line x1="61.91500186920166" y1="58.86666647593179" x2="56.91500186920166" y2="58.86666647593179" style="visibility: inherit;" fill="rgb(0, 0, 0)" stroke="rgb(204, 204, 204)" stroke-width="1px"></line><line x1="61.91500186920166" y1="44.14999985694885" x2="56.91500186920166" y2="44.14999985694885" style="visibility: inherit;" fill="rgb(0, 0, 0)" stroke="rgb(204, 204, 204)" stroke-width="1px"></line><line x1="61.91500186920166" y1="29.433333237965915" x2="56.91500186920166" y2="29.433333237965915" style="visibility: inherit;" fill="rgb(0, 0, 0)" stroke="rgb(204, 204, 204)" stroke-width="1px"></line><line x1="61.91500186920166" y1="14.716666618982938" x2="56.91500186920166" y2="14.716666618982938" style="visibility: inherit;" fill="rgb(0, 0, 0)" stroke="rgb(204, 204, 204)" stroke-width="1px"></line><line x1="61.91500186920166" y1="0" x2="56.91500186920166" y2="0" style="visibility: inherit;" fill="rgb(0, 0, 0)" stroke="rgb(204, 204, 204)" stroke-width="1px"></line></g><g transform="translate(51.91500186920166, 0)"><text style="text-anchor: end; visibility: hidden; font-family: Roboto, sans-serif; font-size: 12px; font-weight: 200;" x="0" y="176.5999994277954" dx="0em" dy="0.3em" fill="rgb(33, 33, 33)" stroke="none" stroke-width="1px">-0.01</text><text style="text-anchor: end; visibility: inherit; font-family: Roboto, sans-serif; font-size: 12px; font-weight: 200;" x="0" y="161.88333280881244" dx="0em" dy="0.3em" fill="rgb(33, 33, 33)" stroke="none" stroke-width="1px">0</text><text style="text-anchor: end; visibility: hidden; font-family: Roboto, sans-serif; font-size: 12px; font-weight: 200;" x="0" y="147.1666661898295" dx="0em" dy="0.3em" fill="rgb(33, 33, 33)" stroke="none" stroke-width="1px">0.01</text><text style="text-anchor: end; visibility: inherit; font-family: Roboto, sans-serif; font-size: 12px; font-weight: 200;" x="0" y="132.44999957084656" dx="0em" dy="0.3em" fill="rgb(33, 33, 33)" stroke="none" stroke-width="1px">0.02</text><text style="text-anchor: end; visibility: hidden; font-family: Roboto, sans-serif; font-size: 12px; font-weight: 200;" x="0" y="117.7333329518636" dx="0em" dy="0.3em" fill="rgb(33, 33, 33)" stroke="none" stroke-width="1px">0.03</text><text style="text-anchor: end; visibility: inherit; font-family: Roboto, sans-serif; font-size: 12px; font-weight: 200;" x="0" y="103.01666633288065" dx="0em" dy="0.3em" fill="rgb(33, 33, 33)" stroke="none" stroke-width="1px">0.04</text><text style="text-anchor: end; visibility: hidden; font-family: Roboto, sans-serif; font-size: 12px; font-weight: 200;" x="0" y="88.29999971389769" dx="0em" dy="0.3em" fill="rgb(33, 33, 33)" stroke="none" stroke-width="1px">0.05</text><text style="text-anchor: end; visibility: inherit; font-family: Roboto, sans-serif; font-size: 12px; font-weight: 200;" x="0" y="73.58333309491476" dx="0em" dy="0.3em" fill="rgb(33, 33, 33)" stroke="none" stroke-width="1px">0.06</text><text style="text-anchor: end; visibility: hidden; font-family: Roboto, sans-serif; font-size: 12px; font-weight: 200;" x="0" y="58.86666647593179" dx="0em" dy="0.3em" fill="rgb(33, 33, 33)" stroke="none" stroke-width="1px">0.07</text><text style="text-anchor: end; visibility: inherit; font-family: Roboto, sans-serif; font-size: 12px; font-weight: 200;" x="0" y="44.14999985694885" dx="0em" dy="0.3em" fill="rgb(33, 33, 33)" stroke="none" stroke-width="1px">0.08</text><text style="text-anchor: end; visibility: hidden; font-family: Roboto, sans-serif; font-size: 12px; font-weight: 200;" x="0" y="29.433333237965915" dx="0em" dy="0.3em" fill="rgb(33, 33, 33)" stroke="none" stroke-width="1px">0.09</text><text style="text-anchor: end; visibility: inherit; font-family: Roboto, sans-serif; font-size: 12px; font-weight: 200;" x="0" y="14.716666618982938" dx="0em" dy="0.3em" fill="rgb(33, 33, 33)" stroke="none" stroke-width="1px">0.1</text><text style="text-anchor: end; visibility: hidden; font-family: Roboto, sans-serif; font-size: 12px; font-weight: 200;" x="0" y="0" dx="0em" dy="0.3em" fill="rgb(33, 33, 33)" stroke="none" stroke-width="1px">0.11</text></g><line x1="61.91500186920166" y1="0" x2="61.91500186920166" y2="176.5999994277954" fill="rgb(0, 0, 0)" stroke="rgb(204, 204, 204)" stroke-width="1px"></line></g></g><g transform="translate(61, 0)" clip-path="url(#clip_0)"><clipPath id="clip_0"><rect width="268" height="176"></rect></clipPath><g><g><g><line x1="0" y1="0" x2="0" y2="176.5999994277954" fill="rgb(0, 0, 0)" stroke="rgb(66, 66, 66)" stroke-width="1px" opacity="0.25"></line><line x1="22.34041651089986" y1="0" x2="22.34041651089986" y2="176.5999994277954" fill="rgb(0, 0, 0)" stroke="rgb(66, 66, 66)" stroke-width="1px" opacity="0.25"></line><line x1="44.68083302179972" y1="0" x2="44.68083302179972" y2="176.5999994277954" fill="rgb(0, 0, 0)" stroke="rgb(66, 66, 66)" stroke-width="1px" opacity="0.25"></line><line x1="67.02124953269958" y1="0" x2="67.02124953269958" y2="176.5999994277954" fill="rgb(0, 0, 0)" stroke="rgb(66, 66, 66)" stroke-width="1px" opacity="0.25"></line><line x1="89.36166604359944" y1="0" x2="89.36166604359944" y2="176.5999994277954" fill="rgb(0, 0, 0)" stroke="rgb(66, 66, 66)" stroke-width="1px" opacity="0.25"></line><line x1="111.70208255449931" y1="0" x2="111.70208255449931" y2="176.5999994277954" fill="rgb(0, 0, 0)" stroke="rgb(66, 66, 66)" stroke-width="1px" opacity="0.25"></line><line x1="134.04249906539917" y1="0" x2="134.04249906539917" y2="176.5999994277954" fill="rgb(0, 0, 0)" stroke="rgb(66, 66, 66)" stroke-width="1px" opacity="0.25"></line><line x1="156.38291557629904" y1="0" x2="156.38291557629904" y2="176.5999994277954" fill="rgb(0, 0, 0)" stroke="rgb(66, 66, 66)" stroke-width="1px" opacity="0.25"></line><line x1="178.72333208719888" y1="0" x2="178.72333208719888" y2="176.5999994277954" fill="rgb(0, 0, 0)" stroke="rgb(66, 66, 66)" stroke-width="1px" opacity="0.25"></line><line x1="201.06374859809875" y1="0" x2="201.06374859809875" y2="176.5999994277954" fill="rgb(0, 0, 0)" stroke="rgb(66, 66, 66)" stroke-width="1px" opacity="0.25"></line><line x1="223.40416510899863" y1="0" x2="223.40416510899863" y2="176.5999994277954" fill="rgb(0, 0, 0)" stroke="rgb(66, 66, 66)" stroke-width="1px" opacity="0.25"></line><line x1="245.74458161989847" y1="0" x2="245.74458161989847" y2="176.5999994277954" fill="rgb(0, 0, 0)" stroke="rgb(66, 66, 66)" stroke-width="1px" opacity="0.25"></line><line x1="268.08499813079834" y1="0" x2="268.08499813079834" y2="176.5999994277954" fill="rgb(0, 0, 0)" stroke="rgb(66, 66, 66)" stroke-width="1px" opacity="0.25"></line></g><g><line x1="0" y1="176.5999994277954" x2="268.08499813079834" y2="176.5999994277954" fill="rgb(0, 0, 0)" stroke="rgb(66, 66, 66)" stroke-width="1px" opacity="0.25"></line><line x1="0" y1="161.88333280881244" x2="268.08499813079834" y2="161.88333280881244" fill="rgb(0, 0, 0)" stroke="rgb(66, 66, 66)" stroke-width="1px" opacity="0.25"></line><line x1="0" y1="147.1666661898295" x2="268.08499813079834" y2="147.1666661898295" fill="rgb(0, 0, 0)" stroke="rgb(66, 66, 66)" stroke-width="1px" opacity="0.25"></line><line x1="0" y1="132.44999957084656" x2="268.08499813079834" y2="132.44999957084656" fill="rgb(0, 0, 0)" stroke="rgb(66, 66, 66)" stroke-width="1px" opacity="0.25"></line><line x1="0" y1="117.7333329518636" x2="268.08499813079834" y2="117.7333329518636" fill="rgb(0, 0, 0)" stroke="rgb(66, 66, 66)" stroke-width="1px" opacity="0.25"></line><line x1="0" y1="103.01666633288065" x2="268.08499813079834" y2="103.01666633288065" fill="rgb(0, 0, 0)" stroke="rgb(66, 66, 66)" stroke-width="1px" opacity="0.25"></line><line x1="0" y1="88.29999971389769" x2="268.08499813079834" y2="88.29999971389769" fill="rgb(0, 0, 0)" stroke="rgb(66, 66, 66)" stroke-width="1px" opacity="0.25"></line><line x1="0" y1="73.58333309491476" x2="268.08499813079834" y2="73.58333309491476" fill="rgb(0, 0, 0)" stroke="rgb(66, 66, 66)" stroke-width="1px" opacity="0.25"></line><line x1="0" y1="58.86666647593179" x2="268.08499813079834" y2="58.86666647593179" fill="rgb(0, 0, 0)" stroke="rgb(66, 66, 66)" stroke-width="1px" opacity="0.25"></line><line x1="0" y1="44.14999985694885" x2="268.08499813079834" y2="44.14999985694885" fill="rgb(0, 0, 0)" stroke="rgb(66, 66, 66)" stroke-width="1px" opacity="0.25"></line><line x1="0" y1="29.433333237965915" x2="268.08499813079834" y2="29.433333237965915" fill="rgb(0, 0, 0)" stroke="rgb(66, 66, 66)" stroke-width="1px" opacity="0.25"></line><line x1="0" y1="14.716666618982938" x2="268.08499813079834" y2="14.716666618982938" fill="rgb(0, 0, 0)" stroke="rgb(66, 66, 66)" stroke-width="1px" opacity="0.25"></line><line x1="0" y1="0" x2="268.08499813079834" y2="0" fill="rgb(0, 0, 0)" stroke="rgb(66, 66, 66)" stroke-width="1px" opacity="0.25"></line></g></g></g><g><g><line x1="0" y1="161.88333280881244" x2="268.08499813079834" y2="161.88333280881244" fill="rgb(0, 0, 0)" stroke="rgb(153, 153, 153)" stroke-width="1.5px"></line></g></g><g><g><line x1="22.34041651089986" y1="0" x2="22.34041651089986" y2="176.5999994277954" fill="rgb(0, 0, 0)" stroke="rgb(153, 153, 153)" stroke-width="1.5px"></line></g></g><g><g><g><g><g><path style="fill: none;" stroke="rgb(0, 153, 136)" stroke-width="2px" d="M22.56359727184375,61.40537237894509L22.78700143695275,48.137445046554085L23.01040560206175,37.534266755599674L23.233809767170747,21.673769478873783L23.457213932279746,13.26865026024651L23.68061809738874,17.77185884621295L23.904022262497744,22.698274652849868L24.127426427606743,34.931293637175976L24.350830592715738,45.4142716073644L24.57423475782474,51.659847819702314L24.797638922933736,59.222668294114456L25.021043088042735,59.94783988683819L25.244447253151737,61.39544854413268L25.467851418260732,63.06629885537581L25.69125558336973,64.21354571445508L25.914659748478734,68.41754848920327L26.13806391358773,71.66108688596351L26.361468078696728,74.49377607109312L26.584872243805727,75.55778561968643L26.808276408914725,72.07949834929093L27.031680574023724,76.54595552319984L27.255084739132723,79.81827192257117L27.478488904241722,82.69763739643159L27.701893069350717,82.27747093330859L27.925297234459716,83.96866976031285L28.14870139956872,85.47342257259781L28.372105564677714,87.28346884564736L28.595509729786713,90.39067532394446L28.818913894895715,94.39717516476203L29.04231806000471,97.03785721912706L29.26572222511371,100.47791617585543L29.489126390222708,97.14915089198664L29.712530555331707,99.58481117820901L29.935934720440706,104.31788834932175L30.159338885549705,107.7554164728653L30.382743050658704,109.06100765542577L30.6061472157677,111.40798442972287L30.8295513808767,114.46027545724361L31.0529555459857,117.04438487155005L31.276359711094695,118.30323986127713L31.499763876203698,119.68850400247389L31.723168041312693,122.13241660831626L31.946572206421692,124.47222991486517L32.169976371530694,125.89482418572901L32.39338053663969,125.97472631686566L32.61678470174869,127.92673539428282L32.84018886685769,129.48857201072835L33.06359303196668,131.10798141871462L33.286997197075685,132.66639883846966L33.51040136218468,131.5590896025744L33.73380552729368,132.2860459874834L33.957209692402685,133.6205085234101L34.18061385751168,134.81610881253826L34.404018022620676,134.9493559418324L34.62742218772968,135.50680547874003L34.85082635283867,136.19452265167183L35.07423051794767,137.28558074216346L35.29763468305668,138.1108961095459L35.521038848165674,137.8006251623676L35.74444301327467,138.15970436010406L35.96784717838367,137.4039604847079L36.19125134349267,137.06104791167775L36.41465550860166,137.7123942797936L36.63805967371066,138.2079416236593L36.86146383881967,138.50164491258099L37.08486800392866,139.03421260437526L37.30827216903766,139.29629944141664L37.53167633414666,138.13213314958855L37.755080499255655,138.64708699475858L37.97848466436465,139.92936736714458L38.20188882947366,140.51606752624224L38.425292994582655,140.23649338680076L38.64869715969165,140.59544258604197L38.87210132480065,140.0615022559661L39.09550548990965,141.0860789206554L39.31890965501864,141.2593370706876L39.542313820127646,141.5334243041166L39.76571798523665,141.1650544349131L39.98912215034564,140.9095521182891L40.21252631545464,141.13943168859336L40.43593048056364,141.3448770070548L40.65933464567264,141.15687732294592L40.88273881078164,141.99999275144057L41.10614297589064,142.13552163362957L41.32954714099964,142.64699574604205L41.55295130610863,143.21533499255872L41.776355471217634,143.76911969614292L41.99975963632663,144.02190730893784L42.223163801435625,144.3519622333409L42.44656796654463,144.4031637925499L42.66997213165363,144.42362064381905L42.893376296762625,144.41262545740406L43.11678046187162,143.195284837855L43.34018462698062,142.92690901437604L43.56358879208962,143.30050121858923L43.78699295719862,143.58642586134792L44.01039712230762,144.1315814569633L44.23380128741662,144.84162153974896L44.45720545252561,144.9830044949155L44.680609617634616,144.8166002041336L44.90401378274361,145.20506161164852L45.127417947852614,145.24677362138223L45.35082211296161,145.611386770462L45.57422627807061,144.9851590119113L45.79763044317961,144.96090065490233L46.0210346082886,145.37191084965184L46.244438773397604,145.4936734261555L46.46784293850661,144.3723431515624L46.6912471036156,144.7075983143081L46.914651268724604,144.52012026452505L47.1380554338336,145.12890711029306L47.361459598942595,145.63275709397345L47.5848637640516,145.91476435280887L47.80826792916059,145.20232988250285L48.031672094269595,145.29679781789847L48.25507625937859,145.96598047567224L48.47848042448759,146.27073253200768L48.70188458959659,145.893945129551L48.92528875470558,146.4393549050494L49.148692919814586,146.61291692075096L49.37209708492359,147.12089253628358L49.595501250032584,147.35702741411615L49.818905415141586,148.01759823901372L50.04230958025058,148.31904315682038L50.26571374535958,148.6412262822459L50.48911791046858,148.81478801145525L50.71252207557758,148.62638119256425L50.93592624068658,148.36801512803416L51.15933040579557,148.19696244243576L51.382734570904574,148.32487072221795L51.60613873601357,148.526025568947L51.829542901122565,148.56090748397344L52.052947066231575,148.8238982561086L52.27635123134057,149.15207060704824L52.499755396449565,148.8417159203402L52.72315956155857,148.92391009709357L52.94656372666756,148.30588093287588L53.16996789177656,147.89432495538782L53.39337205688555,147.9083345248945L53.61677622199456,147.6032041490408L53.84018038710356,146.6064031271194L54.06358455221255,145.91629316421668L54.286988717321556,145.91126996896475L54.51039288243055,145.59747250736194L54.73379704753955,145.46520740545145L54.957201212648556,145.4250501801736L55.18060537775755,145.4942997391756L55.40400954286655,145.16682136752246L55.62741370797555,145.43011754161873L55.850817873084544,145.5388539291369L56.07422203819354,145.93883517071657L56.29762620330254,146.566754246648L56.521030368411544,146.1296021543655L56.74443453352054,146.58270786101937L56.967838698629535,147.02125394682153L57.19124286373854,146.5376243139235L57.41464702884753,146.34617724621444L57.638051193956535,146.6898366589447L57.86145535906554,146.98566057572683L58.08485952417453,146.95145696925522L58.30826368928353,146.97979018699843L58.53166785439253,146.740934361537L58.755072019501526,146.04374136137957L58.97847618461052,146.564739790556L59.201880349719524,146.64802226971216L59.425284514828526,146.54109292229472L59.64868867993752,146.26482766802144L59.87209284504652,146.26737618207707L60.09549701015552,146.0947442712415L60.318901175264514,146.26702454805334L60.54230534037352,146.1987113473881L60.76570950548252,146.51860009730711L60.989113670591514,146.34179134086398L61.21251783570051,146.40232062720077L61.43592200080951,146.26529880189204L61.65932616591851,146.56176684672133L61.88273033102751,146.55564315481539L62.106134496136505,146.72497222073844L62.32953866124551,146.60459118052276L62.5529428263545,146.9419474303255L62.7763469914635,147.18795143288284L62.9997511565725,147.05016382317822L63.2231553216815,147.10744912200946L63.4465594867905,147.53348107226373L63.6699636518995,147.49286691745831L63.893367817008496,147.6707001876835L64.1167719821175,147.89370479920672L64.3401761472265,147.94626444018647L64.56358031233549,148.13173930810703L64.78698447744449,148.28049063406368L65.01038864255348,148.05282263949945L65.23379280766248,147.78366304876982L65.45719697277148,147.79348159955805L65.68060113788049,147.89518747938106L65.90400530298949,147.9032118448223L66.12740946809848,147.49653029744516L66.35081363320748,147.67259855847615L66.57421779831648,147.5491191262217L66.79762196342548,147.85532625310245L67.02102612853447,147.96250233651915L67.24443029364348,148.47254681253165L67.46783445875246,148.63106162092683L67.69123862386147,148.65537232054842L67.91464278897047,149.03237877561182L68.13804695407947,148.58359886628634L68.36145111918847,148.60832575345836L68.58485528429748,147.98282609944852L68.80825944940646,148.1354009716138L69.03166361451547,148.01324142668693L69.25506777962447,147.83608882673875L69.47847194473346,147.6180195940146L69.70187610984246,147.99111801169556L69.92528027495146,147.18210497742774L70.14868444006045,147.23646555903522L70.37208860516945,147.56052113485958L70.59549277027845,147.57766948077892L70.81889693538744,147.56646550697732L71.04230110049646,147.68694145049147L71.26570526560546,147.75669864465252L71.48910943071445,147.5638296967147L71.71251359582345,147.80541458276141L71.93591776093244,147.81267337386805L72.15932192604144,148.01881198258326L72.38272609115045,148.4209174575052L72.60613025625943,148.2695701002024L72.82953442136844,148.2684443428612L73.05293858647744,148.57146855111188L73.27634275158643,148.63128856966705L73.49974691669543,148.75508960429758L73.72315108180445,148.92388501615795L73.94655524691343,149.02025161337227L74.16995941202244,148.92006921357523L74.39336357713144,148.92404940334322L74.61676774224043,149.00236224773732L74.84017190734943,148.56502992694539L75.06357607245843,148.80204001032507L75.28698023756742,149.07911707121636L75.51038440267642,149.41041395826508L75.73378856778542,149.55954958877902L75.95719273289441,149.2150192200202L76.18059689800342,149.3852373194156L76.40400106311243,149.10809941323927L76.62740522822142,149.3106643262322L76.85080939333042,149.40417602086725L77.07421355843941,149.5328607792586L77.29761772354841,149.29249886238063L77.52102188865742,149.88715081196315L77.7444260537664,149.98012085882073L77.9678302188754,150.07645467274486L78.19123438398441,149.68029782903074L78.4146385490934,149.016801433431L78.6380427142024,149.54733398795375L78.8614468793114,149.73800947821724L79.08485104442039,149.62178126474663L79.3082552095294,149.92513473578427L79.53165937463841,150.28242719346815L79.7550635397474,150.02321746597363L79.9784677048564,150.48303517090454L80.2018718699654,150.26430478362738L80.42527603507439,150.58953141147055L80.64868020018339,150.78665870119383L80.8720843652924,150.7177459896938L81.09548853040138,150.75718039216406L81.31889269551039,150.63962662703116L81.54229686061939,150.6550917989757L81.76570102572838,150.28718045663248L81.98910519083738,150.6655831250141L82.2125093559464,150.65002687495874L82.43591352105538,150.6722220538179L82.65931768616439,150.59977198467817L82.88272185127337,150.29776298889752L83.10612601638238,150.32774768944694L83.32953018149138,150.16654348172014L83.55293434660037,150.56536388890984L83.77633851170937,150.60670024399283L83.99974267681837,150.48928044917042L84.22314684192736,150.46329138083726L84.44655100703636,150.63914424948766L84.66995517214536,150.48871214645203L84.89335933725437,150.76796123580155L85.11676350236337,150.39588421201458L85.34016766747237,150.97201246421452L85.56357183258136,150.47773945555056L85.78697599769036,150.55328647475037L86.01038016279936,150.69296100829294L86.23378432790835,151.06143348571723L86.45718849301736,150.8891353828861L86.68059265812636,151.07134212118115L86.90399682323535,150.6073804406424L87.12740098834435,150.67480796988664L87.35080515345335,151.08852332064416L87.57420931856234,151.32014709995934L87.79761348367136,151.37335613038866L88.02101764878036,151.42579534931102L88.24442181388935,151.5819396069421L88.46782597899835,151.982991396653L88.69123014410734,151.5017004773685L88.91463430921634,151.60064437660992L89.13803847432534,151.63419961722994L89.36144263943433,151.37154644138448L89.58484680454333,151.50539466293546L89.80825096965233,151.56159642826302L90.03165513476132,151.33955593358334L90.25505929987033,151.56802083004476L90.47846346497934,151.37925339812912L90.70186763008833,151.72154724451119L90.92527179519733,151.57651627937406L91.14867596030633,151.55349373611588L91.37208012541532,151.65908548060676L91.59548429052433,151.67542104753872L91.81888845563333,151.79983976667592L92.04229262074232,151.76046795078477L92.26569678585132,151.94332478257155L92.48910095096032,152.06813999269684L92.71250511606931,152.16521560664128L92.93590928117831,152.44348741234882L93.15931344628733,152.17523371125273L93.38271761139632,152.28250599122845L93.60612177650532,152.03102086733278L93.8295259416143,152.1729255263997L94.05293010672331,151.95004733584017L94.27633427183231,151.88827288800573L94.4997384369413,152.2266730338574L94.7231426020503,151.91312079541748L94.9465467671593,152.07881941896306L95.16995093226829,152.1444340044704L95.3933550973773,152.10560338401328L95.6167592624863,152.30918855223055L95.84016342759529,152.61022582303113L96.0635675927043,152.08113257777418L96.2869717578133,152.49309297650117L96.5103759229223,152.73090699463935L96.7337800880313,152.8461632867773L96.9571842531403,153.08593522494428L97.18058841824929,153.2932680636104L97.40399258335829,153.2560092091625L97.62739674846729,153.0297955266407L97.85080091357628,152.7412882735908L98.07420507868528,152.74595504180314L98.29760924379428,153.0500609587872L98.52101340890327,152.91604476726803L98.74441757401227,152.80474524387256L98.96782173912129,152.9895717529109L99.19122590423028,152.95860713806218L99.41463006933928,152.98269035430997L99.63803423444827,153.22796813405833L99.86143839955727,153.2934062690694L100.08484256466627,152.3755047434841L100.30824672977526,152.75100736117673L100.53165089488427,152.94790544286175L100.75505505999327,153.11510936462068L100.97845922510226,153.48351312067467L101.20186339021126,153.3679415189447L101.42526755532026,153.61216466055907L101.64867172042926,153.76144960625973L101.87207588553827,153.9071592967323L102.09548005064727,153.76659741086678L102.31888421575626,153.64960917224695L102.54228838086526,153.82067909848914L102.76569254597426,153.84593285827575L102.98909671108325,153.9834231440556L103.21250087619225,154.09540671216655L103.43590504130125,154.3945929781778L103.65930920641024,154.2390815332402L103.88271337151924,153.83009750586376L104.10611753662825,154.07079126574223L104.32952170173724,154.2300635334008L104.55292586684625,154.31521887095087L104.77633003195525,154.1210516997036L104.99973419706424,153.73730643050737L105.22313836217324,154.05661423841718L105.44654252728223,154.16201184141497L105.66994669239124,154.06307680129248L105.89335085750024,154.17804345688373L106.11675502260923,154.39398818375537L106.34015918771823,154.31332946556904L106.56356335282723,154.19357622854008L106.78696751793622,154.1058819500682L107.01037168304522,154.09868583163177L107.23377584815424,154.27179793274814L107.45718001326323,154.29261944695546L107.68058417837223,154.30324041478417L107.90398834348123,154.35677841273392L108.12739250859022,154.38956083193906L108.35079667369922,153.8896932133934L108.57420083880822,154.00575300041385L108.79760500391721,153.99144280759992L109.02100916902621,153.86705449595104L109.24441333413522,153.91188217424516L109.4678174992442,153.98484444217488L109.69122166435321,154.1200407068399L109.91462582946222,154.0854387291726L110.13802999457121,154.1646625685554L110.36143415968021,153.98429203784318L110.5848383247892,154.08583386732224L110.8082424898982,154.02970410535283L111.03164665500721,154.03200527997635L111.2550508201162,154.26269332740455L111.4784549852252,154.45049660174655L111.7018591503342,154.5874125013944L111.92526331544319,154.6566324178929L112.14866748055219,154.75743594589926L112.3720716456612,154.5893551347468L112.59547581077018,154.22040803400077L112.8188799758792,153.95910271350556L113.0422841409882,154.25740485661186L113.26568830609719,154.32235061716548L113.48909247120619,154.13503892532884L113.7124966363152,154.05323392584685L113.93590080142418,154.06727300355467L114.15930496653318,153.99457250668257L114.38270913164219,154.2522464464727L114.60611329675118,154.33477151038358L114.82951746186018,154.51295212368646L115.05292162696918,154.63955232952787L115.27632579207817,154.5910719502309L115.49972995718717,154.66438324269893L115.72313412229619,154.70307886038802L115.94653828740518,154.57722117333583L116.16994245251418,154.60171638858102L116.39334661762317,154.74379714021788L116.61675078273217,154.55656594541355L116.84015494784117,154.46277410072713L117.06355911295016,154.2646309165263L117.28696327805916,154.40100264837181L117.51036744316816,154.5590281318219L117.73377160827715,154.5414731248914L117.95717577338615,154.3957322133673L118.18057993849516,154.45050172361542L118.40398410360416,154.26762274570646L118.62738826871316,154.37239966330074L118.85079243382216,154.43026580246337L119.07419659893115,154.4384199505588L119.29760076404015,154.5279411036971L119.52100492914916,154.58904500369974L119.74440909425815,154.71802029402858L119.96781325936715,154.7763540643511L120.19121742447615,154.5366323619274L120.41462158958514,154.64156513180353L120.63802575469414,154.4280232653815L120.86142991980314,154.18246156792773L121.08483408491213,154.36148763774656L121.30823825002115,154.19565573016493L121.53164241513015,153.89386847854198L121.75504658023914,153.77032929172265L121.97845074534814,153.6752691382192L122.20185491045713,153.83524223580145L122.42525907556613,153.70385330290665L122.64866324067513,153.73753601064965L122.87206740578412,153.97460460794687L123.09547157089312,154.15417395228903L123.31887573600213,154.2382848272541L123.54227990111112,154.1069414909131L123.76568406622012,154.01422946416918L123.98908823132913,153.95597740094547L124.21249239643812,153.8996106623056L124.43589656154712,153.7773932645974L124.65930072665613,153.91852238277392L124.88270489176512,153.99240164587576L125.10610905687412,154.04007949077644L125.32951322198312,154.07097254535958L125.55291738709211,154.3786666233205L125.77632155220111,154.12864995850992L125.99972571731011,153.97355340019652L126.2231298824191,154.08052718026156L126.4465340475281,154.349012565949L126.66993821263712,154.21166313959512L126.89334237774611,154.29409170310683L127.11674654285511,154.18530325147594L127.3401507079641,154.19194055474637L127.5635548730731,153.87014317893141L127.7869590381821,153.9552935199337L128.0103632032911,154.01528053673007L128.2337673684001,154.19752445194075L128.4571715335091,154.43450001624655L128.6805756986181,154.2831694248327L128.9039798637271,154.4230111312231L129.1273840288361,154.53297319967717L129.35078819394508,154.39396510311994L129.57419235905408,154.32598339817247L129.79759652416308,154.4160076328397L130.02100068927209,154.3581498554135L130.2444048543811,154.33073770510507L130.4678090194901,154.5462174823212L130.69121318459906,154.43393967391654L130.9146173497081,154.31762421025869L131.1380215148171,154.12918175745972L131.36142567992607,153.81443086660434L131.58482984503507,153.862696053923L131.80823401014408,153.91360396100322L132.03163817525308,153.9330791897252L132.25504234036208,154.21222039742113L132.47844650547108,153.95529064463923L132.70185067058006,153.94016955462197L132.92525483568906,154.14720884083388L133.14865900079806,154.36152426456098L133.37206316590706,154.34191409694213L133.59546733101607,154.5195618776706L133.81887149612507,154.41343946686175L134.04227566123407,154.54062008447747L134.26567982634307,154.57944625506087L134.48908399145208,154.63932973701722L134.71248815656108,154.66629422100553L134.93589232167005,154.2725464582177L135.15929648677906,154.18332946866425L135.38270065188806,154.18300170003133L135.60610481699706,154.17873117599842L135.82950898210606,154.0227450384523L136.05291314721504,153.97328479100764L136.27631731232404,153.87195957585934L136.49972147743304,153.89724013954688L136.72312564254204,153.8862491207795L136.94652980765105,154.03475101806143L137.16993397276005,154.23609875904017L137.39333813786902,154.21278746784L137.61674230297803,154.03968209063675L137.84014646808703,154.29526563073154L138.06355063319603,153.9330925560539L138.28695479830503,153.97495467793016L138.51035896341403,154.15604472243956L138.733763128523,153.90060584965815L138.957167293632,154.16605722653173L139.180571458741,154.13218534222295L139.40397562385004,154.2910835206622L139.62737978895905,154.40924960194906L139.85078395406805,154.47388688157943L140.07418811917702,154.45085726207722L140.29759228428603,153.930184826106L140.52099644939503,154.0163801235204L140.74440061450403,154.28832319365756L140.96780477961303,154.35079603945357L141.19120894472204,154.45931262473349L141.414613109831,154.6993781682767L141.63801727494,154.40051587248414L141.861421440049,154.36112028436114L142.08482560515802,154.4626345842439L142.30822977026702,154.49936633380204L142.531633935376,154.4502489066894L142.755038100485,154.1388703384252L142.978442265594,154.22800024427724L143.201846430703,154.1169608483182L143.425250595812,154.05557675768804L143.648654760921,154.1850414728129L143.87205892602998,154.21656770890013L144.09546309113898,154.2048859383548L144.31886725624798,154.00851908169818L144.542271421357,154.04580768741675L144.765675586466,153.9246580601797L144.98907975157502,153.81892665717425L145.212483916684,153.95616639192312L145.435888081793,153.94375251664576L145.659292246902,153.9890620701658L145.882696412011,154.15908074247028L146.10610057712,153.86957210319287L146.329504742229,154.05254825737165L146.55290890733798,154.152548199062L146.77631307244698,154.31643111822135L146.99971723755598,154.38642201252384L147.223121402665,154.39490094840136L147.446525567774,154.55828720646358L147.66992973288296,154.52965424079792L147.89333389799197,154.1651035563412L148.11673806310097,154.445726472495L148.34014222820997,154.628279347785L148.56354639331897,154.5595338438809L148.78695055842798,154.6561772094305L149.01035472353695,154.59081734120815L149.23375888864595,154.6782381737758L149.45716305375495,154.57444489510823L149.68056721886396,154.63446818864492L149.90397138397296,154.381651470661L150.12737554908196,154.53430155762211L150.35077971419094,154.03317430798097L150.57418387929997,154.24516305295796L150.79758804440897,154.47890412741953L151.02099220951797,154.63444412997757L151.24439637462697,154.57315182422192L151.46780053973598,154.42002776307464L151.69120470484495,154.42560841627775L151.91460886995395,154.3827536469027L152.13801303506295,154.64830944594257L152.36141720017196,154.64050308384958L152.58482136528096,154.88029375116304L152.80822553038993,154.78324417738938L153.03162969549894,154.72457137937818L153.25503386060794,154.75591324581592L153.47843802571694,154.66527139800897L153.70184219082594,154.60873852536855L153.92524635593495,154.77887307774068L154.14865052104392,154.88520835085427L154.37205468615292,154.81314249094558L154.59545885126192,154.82087835239165L154.81886301637093,154.91467049124134L155.04226718147993,155.0065798073653L155.26567134658893,154.75765993248098L155.4890755116979,154.76734850890017L155.7124796768069,154.64949928795312L155.9358838419159,154.80463254355556L156.15928800702494,154.8573394370412L156.38269217213394,155.04245623590174L156.60609633724295,154.91525881229373L156.82950050235192,154.99623933698564L157.05290466746092,154.96285177538482L157.27630883256992,155.08763251095007L157.49971299767893,154.9531452868281L157.72311716278793,154.7559693531078L157.94652132789693,154.7738061147796L158.1699254930059,154.6917376748445L158.3933296581149,154.35490850938123L158.6167338232239,154.68234565898038L158.8401379883329,154.8343105011863L159.06354215344192,154.89012938399938L159.2869463185509,154.97443652895262L159.5103504836599,155.19689107656097L159.7337546487689,155.1415490568793L159.9571588138779,155.15536145297023L160.1805629789869,155.14798479792998L160.4039671440959,154.98106183591312L160.62737130920488,154.96909687326388L160.85077547431388,154.77731055562361L161.07417963942288,154.9182283139806L161.29758380453188,154.99297548245136L161.52098796964088,154.93130726502022L161.74439213474992,154.86455885283087L161.9677962998589,154.97875829369602L162.1912004649679,155.05253652126547L162.4146046300769,155.36946586971467L162.6380087951859,155.5387447401037L162.8614129602949,155.69281137373557L163.0848171254039,155.3579290646166L163.30822129051288,155.36854498687518L163.53162545562188,155.24498994602789L163.75502962073088,155.33018192052563L163.97843378583988,155.24465134988375L164.20183795094889,155.15797945840475L164.42524211605786,155.23667498950854L164.64864628116686,155.19804390684698L164.87205044627586,155.3893454719044L165.09545461138487,155.52536789158395L165.31885877649387,155.44307809104632L165.54226294160287,155.5203034817888L165.76566710671185,155.55697378331993L165.98907127182085,155.7417616273526L166.21247543692985,155.5638594608509L166.43587960203885,155.65707855400177L166.65928376714785,155.63124983095585L166.88268793225686,155.4148119614293L167.10609209736583,155.49562604876118L167.32949626247486,155.5859111716277L167.55290042758386,155.44327827593787L167.77630459269287,155.49217383502707L167.99970875780187,155.5077602947476L168.22311292291087,155.55246301123594L168.44651708801985,155.6506677739307L168.66992125312885,155.77691415259574L168.89332541823785,155.6131326615112L169.11672958334685,155.69692542590016L169.34013374845586,155.75846710945996L169.56353791356483,155.7513642848757L169.78694207867383,155.90290018969606L170.01034624378283,155.92116361399218L170.23375040889184,155.9954603994846L170.45715457400084,155.968525173739L170.68055873910984,156.06967161647918L170.90396290421882,155.84182033745455L171.12736706932782,155.776401022008L171.35077123443682,155.96447996262708L171.57417539954582,155.79878600238604L171.79757956465482,155.7891296078613L172.02098372976383,155.8735230290741L172.2443878948728,155.92213991456458L172.4677920599818,155.84940177392755L172.6911962250908,155.89823071655374L172.91460039019984,155.8683975539547L173.13800455530884,155.95898569027813L173.36140872041784,155.91978000592496L173.58481288552682,156.04371280062708L173.80821705063582,155.8763049032859L174.03162121574482,155.82648687726555L174.25502538085382,155.98267543619198L174.47842954596283,156.1697062130339L174.70183371107183,156.0916677849946L174.9252378761808,156.0638892827148L175.1486420412898,155.85824628267096L175.3720462063988,155.94157518213567L175.5954503715078,155.90720232214792L175.8188545366168,155.96797619782663L176.04225870172579,156.0113968318725L176.2656628668348,156.0952807325044L176.4890670319438,155.96787233440799L176.7124711970528,155.9556401845276L176.9358753621618,155.9981214039195L177.1592795272708,156.09962469852798L177.38268369237977,156.04660160937576L177.60608785748877,155.9922156386628L177.82949202259778,155.88949189001423L178.05289618770678,155.90515551813854L178.27630035281578,155.93901248920247L178.4997045179248,155.88060547185256L178.7231086830338,156.18117589261828L178.9465128481428,156.35143391449543L179.1699170132518,156.18995132024423L179.3933211783608,155.94988029672416L179.6167253434698,156.08084220732434L179.8401295085788,156.07516483028985L180.06353367368777,156.2626656172672L180.28693783879677,156.31015756147443L180.51034200390578,156.3326128712182L180.73374616901478,156.42578153704318L180.95715033412378,156.42533922802394L181.18055449923276,156.4231168467575L181.40395866434176,156.53849210683867L181.62736282945076,156.53124377507046L181.85076699455976,156.42783075544057L182.07417115966877,156.4546235318179L182.29757532477777,156.32352086038338L182.52097948988674,156.27334813381907L182.74438365499574,156.3229151432863L182.96778782010475,156.404527914457L183.19119198521375,156.37769671630852L183.41459615032275,156.34078691831135L183.63800031543175,156.43573164088025L183.86140448054073,156.36069875207494L184.08480864564976,156.39577366971537L184.30821281075876,156.43003397628183L184.53161697586776,156.44623732197218L184.75502114097677,156.36679918736647L184.97842530608577,156.44531723115247L185.20182947119474,156.16709322638886L185.42523363630374,156.19176124971008L185.64863780141275,156.07484405645727L185.87204196652175,156.10094369816682L186.09544613163075,156.2039350871039L186.31885029673973,156.14780914876985L186.54225446184873,156.0846691867154L186.76565862695773,156.23313484926325L186.98906279206673,156.19707364134393L187.21246695717574,156.24578322938854L187.43587112228474,156.2432684981797L187.6592752873937,156.2881481734887L187.8826794525027,156.4195147057468L188.10608361761172,156.41863465263776L188.32948778272072,156.46720265928693L188.55289194782972,156.50026321103974L188.77629611293872,156.55748071891693L188.9997002780477,156.53386842031128L189.2231044431567,156.67990114231128L189.4465086082657,156.62659957660736L189.66991277337473,156.77156857247144L189.89331693848374,156.5588633116714L190.11672110359274,156.23409034847032L190.3401252687017,156.11938236246604L190.56352943381071,156.28161606065154L190.78693359891972,155.99899310269674L191.01033776402872,156.13296267338785L191.23374192913772,156.08335272567192L191.45714609424672,156.10755415854678L191.6805502593557,155.99004892048342L191.9039544244647,156.13599366847686L192.1273585895737,156.21656133641147L192.3507627546827,156.25420667400746L192.5741669197917,156.1508266506411L192.79757108490068,156.20466521291544L193.02097525000968,156.30520729356286L193.2443794151187,156.18885072918928L193.4677835802277,156.18721290200332L193.6911877453367,156.21078999793477L193.9145919104457,156.19806682923686L194.13799607555467,156.17147930877343L194.36140024066367,156.35031924279718L194.58480440577267,156.23804702768277L194.80820857088167,156.46210446240696L195.03161273599068,156.2296257233455L195.2550169010997,156.26308583538236L195.47842106620868,156.04063612292782L195.70182523131768,155.93907641075023L195.9252293964267,155.94140637500033L196.1486335615357,155.95842749769773L196.3720377266447,156.08375951420484L196.5954418917537,155.90455531633762L196.81884605686267,155.88159679453065L197.04225022197167,156.07175429280355L197.26565438708067,156.21293464016512L197.48905855218968,156.37715560146276L197.71246271729868,156.41269766716107L197.93586688240765,156.3682887133796L198.15927104751665,156.3214522798769L198.38267521262566,156.5269565665606L198.60607937773466,156.58255629839837L198.82948354284366,156.55940023613365L199.05288770795266,156.55171961344618L199.27629187306164,156.55857241228088L199.49969603817064,156.2813323465254L199.72310020327964,156.21342962243986L199.94650436838864,156.22954869611604L200.16990853349765,156.30880466844556L200.39331269860665,156.34993101884695L200.61671686371562,156.5602897919364L200.84012102882465,156.67605679048938L201.06352519393366,156.7877018054292L201.28692935904266,156.7904918620359L201.51033352415166,156.86626346192296L201.73373768926066,156.8672272474412L201.95714185436964,156.75904847277198L202.18054601947864,156.5681550973001L202.40395018458764,156.34040134134636L202.62735434969665,156.21389608421956L202.85075851480565,156.31350035336L203.07416267991462,156.4975835344086L203.29756684502362,156.57194881138204L203.52097101013263,156.57117926789397L203.74437517524163,156.48971311179724L203.96777934035063,156.5876210089127L204.19118350545963,156.35847540903822L204.4145876705686,156.39697864655545L204.6379918356776,156.2991323313593L204.8613960007866,156.25358306497043L205.08480016589562,156.08123408083213L205.30820433100462,156.18657496582682L205.53160849611362,156.41284468016184L205.7550126612226,156.51011440840168L205.9784168263316,156.55287574933286L206.2018209914406,156.43116557178365L206.42522515654963,156.15239392704444L206.64862932165863,156.2677548605228L206.87203348676763,156.39176297678367L207.0954376518766,156.54625727204993L207.3188418169856,156.608495014327L207.5422459820946,156.7337575777718L207.76565014720362,156.5853994206001L207.98905431231262,156.54983401466941L208.21245847742162,156.4920505161169L208.4358626425306,156.6800732362434L208.6592668076396,156.72191283529156L208.8826709727486,156.83855531845572L209.1060751378576,156.8259482457938L209.3294793029666,156.7589185567356L209.55288346807558,156.84556581980135L209.77628763318458,156.93304286734212L209.99969179829358,156.7668484761281L210.22309596340259,156.53613120130044L210.4465001285116,156.72506990960807L210.6699042936206,156.53026089896414L210.89330845872956,156.3395287230313L211.11671262383857,156.35773738367033L211.34011678894757,156.31349777782594L211.56352095405657,156.20666718309758L211.78692511916557,156.1872681942422L212.0103292842746,156.3553134566474L212.23373344938358,156.49648080247565L212.45713761449258,156.48041120064357L212.68054177960158,156.63759705196924L212.90394594471059,156.7486941262089L213.1273501098196,156.75205794715563L213.3507542749286,156.59136959749787L213.57415844003756,156.67256512016692L213.79756260514657,156.74952604379573L214.02096677025557,156.73559691998287L214.24437093536457,156.71268088328762L214.46777510047357,156.61955926925506L214.69117926558255,156.74072064254548L214.91458343069155,156.67573899731846L215.13798759580055,156.64956324459442L215.36139176090956,156.45052138611442L215.58479592601856,156.51841627919364L215.80820009112756,156.64673919015564L216.03160425623653,156.7451601831428L216.25500842134554,156.6235911689147L216.47841258645454,156.57990934930214L216.70181675156354,156.7603813497273L216.92522091667254,156.88809099037545L217.14862508178155,156.9914574950217L217.37202924689052,157.06375205249907L217.59543341199955,156.95967825668822L217.81883757710855,156.58174044912596L218.04224174221756,156.72515666643892L218.26564590732656,156.90153707830092L218.48905007243556,156.97455408560648L218.71245423754453,156.96352834446344L218.93585840265354,156.96024598888982L219.15926256776254,157.03986979905633L219.38266673287154,156.8283248588894L219.60607089798054,156.78877432548163L219.82947506308952,156.90239333566885L220.05287922819852,156.91815676739702L220.27628339330752,156.83759505585707L220.49968755841653,156.84111842695134L220.72309172352553,156.88880476148145L220.94649588863453,156.8623365143181L221.1699000537435,156.74310801211158L221.3933042188525,156.75754410859759L221.6167083839615,156.8306912193878L221.8401125490705,156.9245892775009L222.0635167141795,156.905130679894L222.28692087928852,157.0021889961571L222.5103250443975,156.88897509994422L222.7337292095065,156.8473847118488L222.9571333746155,156.76548624578228L223.18053753972453,156.71772108201725L223.40394170483353,156.85038449169647L223.62734586994253,156.90647865164019L223.8507500350515,156.9033418511853L224.0741542001605,156.64123069640883L224.2975583652695,156.75745924482734L224.5209625303785,156.85341511270968L224.7443666954875,156.69736920866137L224.96777086059652,156.7918772484181L225.1911750257055,156.76522567692757L225.4145791908145,156.7773544412681L225.6379833559235,156.91211847926488L225.8613875210325,156.7391001984461L226.0847916861415,156.744332161409L226.30819585125047,156.66036453587662L226.53160001635948,156.6780074626938L226.75500418146848,156.58534569839983L226.97840834657748,156.44682697088578L227.20181251168648,156.5810907954667L227.4252166767955,156.79535581075382L227.64862084190446,156.77701451004947L227.87202500701346,156.72044836863483L228.09542917212246,156.82171604667982L228.31883333723147,156.88438352297203L228.54223750234047,156.83510369379724L228.7656416674495,156.59382511086542L228.98904583255847,156.61764991796238L229.21244999766748,156.65483254286426L229.43585416277648,156.7671177388378L229.65925832788548,156.89634327751114L229.88266249299448,156.99396960217845L230.1060666581035,156.74209560760602L230.32947082321246,156.74624686116738L230.55287498832146,156.80157089497888L230.77627915343047,156.76347502854074L230.99968331853947,156.78020948727297L231.22308748364847,156.84982638770268L231.44649164875744,156.7799142750487L231.66989581386645,156.8215554227056L231.89329997897545,156.79943785948993L232.11670414408445,156.84802139563527L232.34010830919345,156.82228393042973L232.56351247430246,156.9794618169955L232.78691663941143,156.89687470933555L233.01032080452043,156.796418884344L233.23372496962944,156.78695627179988L233.45712913473844,156.8350173869463L233.68053329984744,156.74645064503508L233.90393746495644,156.7987471869617L234.12734163006542,156.7652635703101L234.35074579517445,156.79067988355322L234.57414996028345,156.3164774990515L234.79755412539245,156.49015431645182L235.02095829050145,156.5985930107746L235.24436245561046,156.58707946962255L235.46776662071943,156.62421247519154L235.69117078582843,156.51054908396864L235.91457495093744,156.35858831812013L236.13797911604644,156.46041855548253L236.36138328115544,156.61127083205523L236.58478744626441,156.7370293423217L236.80819161137342,156.84143201722185L237.03159577648242,156.76918512421156L237.25499994159142,156.6981204423905L237.47840410670042,156.85505493776174L237.70180827180943,156.9607894668432L237.9252124369184,157.0180822798787L238.1486166020274,156.86008760368284L238.3720207671364,156.91877479995006L238.5954249322454,156.8495087427369L238.8188290973544,156.7214303716791L239.0422332624634,156.67143019823317L239.2656374275724,156.77887182848312L239.4890415926814,156.86748539173564L239.7124457577904,156.78707364037535L239.93584992289942,156.93433793707894L240.15925408800842,157.0178644541212L240.38265825311743,157.03874978727822L240.6060624182264,156.8413146355579L240.8294665833354,156.78569058022333L241.0528707484444,156.86390076173325L241.2762749135534,156.97805781220598L241.4996790786624,156.98830020401184L241.7230832437714,157.2107499931358L241.9464874088804,157.27450673099872L242.1698915739894,157.40591466316704L242.3932957390984,157.42995083881758L242.6166999042074,157.22637679607496L242.8401040693164,157.35266001428855L243.06350823442537,157.4764067595364L243.28691239953437,157.4168921482599L243.51031656464338,157.58160852257333L243.73372072975238,157.45158366396495L243.95712489486138,157.36463016913922L244.18052905997038,157.48885119900066L244.40393322507936,157.41868127539334L244.62733739018836,157.50124311175978L244.85074155529736,157.5204505991063L245.07414572040636,157.57253143963428L245.29754988551537,157.25320638040327L245.5209540506244,157.4048218883931L245.74435821573337,157.66214434123438" fill="none"></path></g></g></g></g><g opacity="0.2"><g><g><g><path style="fill: none;" stroke="rgb(0, 153, 136)" stroke-width="2px" d="M22.56359727184375,61.40537237894509L22.78700143695275,37.52310318064128L23.01040560206175,22.26569001662536L23.233809767170747,-9.285921205295129L23.457213932279746,-6.580879286463794L23.68061809738874,29.882247632280812L23.904022262497744,37.23821649853739L24.127426427606743,73.6015694828734L24.350830592715738,80.31117605895443L24.57423475782474,73.28908447197053L24.797638922933736,86.22574353145103L25.021043088042735,62.59935919575435L25.244447253151737,66.78796753551941L25.467851418260732,69.38227623125135L25.69125558336973,68.60070734893418L25.914659748478734,84.64189879663914L26.13806391358773,84.27005051512928L26.361468078696728,85.56938685243944L26.584872243805727,79.7371538459546L26.808276408914725,58.36685887737093L27.031680574023724,94.20580523782728L27.255084739132723,92.7868103537617L27.478488904241722,94.13011542308772L27.701893069350717,80.60672598092998L27.925297234459716,90.70151922570385L28.14870139956872,91.46969464015135L28.372105564677714,94.50177182110374L28.595509729786713,102.78945018002497L28.818913894895715,110.3921757369677L29.04231806000471,107.5842404063566L29.26572222511371,114.22111765588866L29.489126390222708,83.84727635435566L29.712530555331707,109.31973340753899L29.935934720440706,123.23819725753891L30.159338885549705,121.49855683169693L30.382743050658704,114.28125394285652L30.6061472157677,120.79284497687823L30.8295513808767,126.6662698871039L31.0529555459857,127.37867573466467L31.276359711094695,123.33782316753799L31.499763876203698,125.22882403450969L31.723168041312693,131.90702750622825L31.946572206421692,133.83068694385065L32.169976371530694,131.58481400218795L32.39338053663969,126.29431744026881L32.61678470174869,135.73443161600576L32.84018886685769,135.73570078825784L33.06359303196668,137.58543848047674L33.286997197075685,138.8999295020107L33.51040136218468,127.12993167922096L33.73380552729368,135.19383002524643L33.957209692402685,138.9582977196425L34.18061385751168,139.59846628475634L34.404018022620676,135.48234056419102L34.62742218772968,137.736590590956L34.85082635283867,138.94537847812185L35.07423051794767,141.6497967755982L35.29763468305668,141.4121476978873L35.521038848165674,136.5595443454596L35.74444301327467,139.5960183996136L35.96784717838367,134.38098961581971L36.19125134349267,135.6893993011955L36.41465550860166,140.31777719690243L36.63805967371066,140.19012944382152L36.86146383881967,139.67645733082554L37.08486800392866,141.16448230179822L37.30827216903766,140.34464636842483L37.53167633414666,133.47546947887074L37.755080499255655,140.70690184583933L37.97848466436465,145.05848780168944L38.20188882947366,142.86286777646572L38.425292994582655,139.11819697624787L38.64869715969165,142.0312392317998L38.87210132480065,137.92574111560012L39.09550548990965,145.18438530318727L39.31890965501864,141.95236963344811L39.542313820127646,142.62977319054062L39.76571798523665,139.69157500894696L39.98912215034564,139.88754288000777L40.21252631545464,142.0589499495023L40.43593048056364,142.16665826638098L40.65933464567264,140.4048785971396L40.88273881078164,145.372454427284L41.10614297589064,142.67763715748134L41.32954714099964,144.69289218088585L41.55295130610863,145.48869196546366L41.776355471217634,145.98425850021994L41.99975963632663,145.0330577563708L42.223163801435625,145.67218192703965L42.44656796654463,144.60797002890007L42.66997213165363,144.50544804874048L42.893376296762625,144.3686447118109L43.11678046187162,138.3259223655711L43.34018462698062,141.85340572150278L43.56358879208962,144.7948700342808L43.78699295719862,144.73012443167173L44.01039712230762,146.31220383834034L44.23380128741662,147.68178186976155L44.45720545252561,145.5485363154016L44.680609617634616,144.15098304117566L44.90401378274361,146.7589072413916L45.127417947852614,145.4136216602899L45.35082211296161,147.06983936659077L45.57422627807061,142.4802479779698L45.79763044317961,144.86386722687465L46.0210346082886,147.01595162854002L46.244438773397604,145.9807237321442L46.46784293850661,139.88702205338166L46.6912471036156,146.0486189652449L46.914651268724604,143.77020806541336L47.1380554338336,147.56405449331191L47.361459598942595,147.64815702865974L47.5848637640516,147.04279338813475L47.80826792916059,142.3525920013106L48.031672094269595,145.67466955947756L48.25507625937859,148.6427111067481L48.47848042448759,147.48974075734245L48.70188458959659,144.3867955197313L48.92528875470558,148.62099400703514L49.148692919814586,147.30716498355494L49.37209708492359,149.15279499840938L49.595501250032584,148.3015669254446L49.818905415141586,150.65988153859996L50.04230958025058,149.5248228280456L50.26571374535958,149.92995878394666L50.48911791046858,149.50903492829215L50.71252207557758,147.87275391700072L50.93592624068658,147.3345508699143L51.15933040579557,147.51275170004237L51.382734570904574,148.83650384134666L51.60613873601357,149.330644955863L51.829542901122565,148.70043514407917L52.052947066231575,149.87586134464905L52.27635123134057,150.46476001080663L52.499755396449565,147.60029717350815L52.72315956155857,149.25268680410704L52.94656372666756,145.8337642760052L53.16996789177656,146.24810104543565L53.39337205688555,147.96437280292133L53.61677622199456,146.38268264562592L53.84018038710356,142.61919903943397L54.06358455221255,143.1558533126058L54.286988717321556,145.891177187957L54.51039288243055,144.34228266095073L54.73379704753955,144.9361469978095L54.957201212648556,145.2644212790622L55.18060537775755,145.77129797518364L55.40400954286655,143.85690788090986L55.62741370797555,146.48330223800377L55.850817873084544,145.97379947920953L56.07422203819354,147.53876013703533L56.29762620330254,149.07843055037367L56.521030368411544,144.38099378523555L56.74443453352054,148.39513068763486L56.967838698629535,148.77543829003008L57.19124286373854,144.60310578233134L57.41464702884753,145.58038897537818L57.638051193956535,148.06447430986583L57.86145535906554,148.1689562428553L58.08485952417453,146.8146425433687L58.30826368928353,147.09312305797124L58.53166785439253,145.7855110596913L58.755072019501526,143.25496936074984L58.97847618461052,148.64873350726174L59.201880349719524,146.9811521863367L59.425284514828526,146.11337553262504L59.64868867993752,145.15976665092828L59.87209284504652,146.27757023829955L60.09549701015552,145.40421662789922L60.318901175264514,146.95614565530084L60.54230534037352,145.925458544727L60.76570950548252,147.79815509698324L60.989113670591514,145.63455631509137L61.21251783570051,146.644437772548L61.43592200080951,145.71721150065713L61.65932616591851,147.74763902603843L61.88273033102751,146.53114838719148L62.106134496136505,147.40228848443078L62.32953866124551,146.12306701966008L62.5529428263545,148.2913724295364L62.7763469914635,148.17196744311212L62.9997511565725,146.4990133843597L63.2231553216815,147.3365903173345L63.4465594867905,149.23760887328078L63.6699636518995,147.33041029823661L63.893367817008496,148.38203326858425L64.1167719821175,148.78572324529964L64.3401761472265,148.15650300410542L64.56358031233549,148.87363877978922L64.78698447744449,148.87549593789026L65.01038864255348,147.14215066124245L65.23379280766248,146.7070246858514L65.45719697277148,147.8327558027108L65.68060113788049,148.30201099867318L65.90400530298949,147.93530930658727L66.12740946809848,145.86980410793657L66.35081363320748,148.3768716026001L66.57421779831648,147.05520139720394L66.79762196342548,149.08015476062542L67.02102612853447,148.39120667018594L67.24443029364348,150.5127247165816L67.46783445875246,149.26512085450756L67.69123862386147,148.7526151190348L67.91464278897047,150.54040459586548L68.13804695407947,146.7884792289843L68.36145111918847,148.70723330214648L68.58485528429748,145.4808274834092L68.80825944940646,148.7457004602748L69.03166361451547,147.52460324697947L69.25506777962447,147.127478426946L69.47847194473346,146.7457426631181L69.70187610984246,149.48351168241933L69.92528027495146,143.9460528403564L70.14868444006045,147.45390788546513L70.37208860516945,148.85674343815705L70.59549277027845,147.6462628644563L70.81889693538744,147.52164961177078L71.04230110049646,148.16884522454816L71.26570526560546,148.0357274212966L71.48910943071445,146.7923539049634L71.71251359582345,148.77175412694845L71.93591776093244,147.8417085382946L72.15932192604144,148.843366417444L72.38272609115045,150.0293393571929L72.60613025625943,147.66418067099133L72.82953442136844,148.26394131349636L73.05293858647744,149.78356538411447L73.27634275158643,148.87056864388788L73.49974691669543,149.25029374281965L73.72315108180445,149.59906666359947L73.94655524691343,149.40571800222952L74.16995941202244,148.51933961438695L74.39336357713144,148.93997016241516L74.61676774224043,149.3156136253138L74.84017190734943,146.81570064377755L75.06357607245843,149.7500803438439L75.28698023756742,150.1874253147815L75.51038440267642,150.73560150646L75.73378856778542,150.1560921108347L75.95719273289441,147.8368977449849L76.18059689800342,150.0661097169972L76.40400106311243,147.99954778853402L76.62740522822142,150.1209239782039L76.85080939333042,149.77822279940756L77.07421355843941,150.04759981282405L77.29761772354841,148.3310511948687L77.52102188865742,152.2657586102933L77.7444260537664,150.35200104625093L77.9678302188754,150.46178992844133L78.19123438398441,148.09567045417424L78.4146385490934,146.36281585103208L78.6380427142024,151.66946420604475L78.8614468793114,150.50071143927119L79.08485104442039,149.1568684108642L79.3082552095294,151.13854861993494L79.53165937463841,151.71159702420354L79.7550635397474,148.98637855599554L79.9784677048564,152.32230599062822L80.2018718699654,149.38938323451865L80.42527603507439,151.8904379228432L80.64868020018339,151.57516786008694L80.8720843652924,150.44209514369376L81.09548853040138,150.91491800204506L81.31889269551039,150.16941156649958L81.54229686061939,150.71695248675383L81.76570102572838,148.81553508725963L81.98910519083738,152.17919379854064L82.2125093559464,150.5878018747373L82.43591352105538,150.76100276925456L82.65931768616439,150.30997170811918L82.88272185127337,149.089727005775L83.10612601638238,150.44768649164448L83.32953018149138,149.52172665081292L83.55293434660037,152.1606455176687L83.77633851170937,150.77204566432476L83.99974267681837,150.01960126988078L84.22314684192736,150.3593351075046L84.44655100703636,151.3425557240892L84.66995517214536,149.88698373430955L84.89335933725437,151.88495759319963L85.11676350236337,148.9075761168667L85.34016766747237,153.2765254730143L85.56357183258136,148.50064742089467L85.78697599769036,150.8554745515496L86.01038016279936,151.25165914246324L86.23378432790835,152.53532339541445L86.45718849301736,150.19994297156148L86.68059265812636,151.80016907436135L86.90399682323535,148.7515337184874L87.12740098834435,150.94451808686367L87.35080515345335,152.74338472367418L87.57420931856234,152.24664221721997L87.79761348367136,151.58619225210595L88.02101764878036,151.6355522250004L88.24442181388935,152.20651663746634L88.46782597899835,153.5871985554968L88.69123014410734,149.57653680023049L88.91463430921634,151.99641997357557L89.13803847432534,151.76842057970998L89.36144263943433,150.32093373800268L89.58484680454333,152.0407875491393L89.80825096965233,151.78640348957327L90.03165513476132,150.45139395486464L90.25505929987033,152.48188041589046L90.47846346497934,150.62418367046655L90.70186763008833,153.09072263003938L90.92527179519733,150.99639241882556L91.14867596030633,151.4614035630832L91.37208012541532,152.08145245857028L91.59548429052433,151.74076331526646L91.81888845563333,152.29751464322476L92.04229262074232,151.6029806872201L92.26569678585132,152.6747521097186L92.48910095096032,152.5674008331981L92.71250511606931,152.55351806241916L92.93590928117831,153.55657463517898L93.15931344628733,151.10221890686827L93.38271761139632,152.71159511113126L93.60612177650532,151.02508037175025L93.8295259416143,152.74054416266722L94.05293010672331,151.05853457360217L94.27633427183231,151.64117509666795L94.4997384369413,153.58027361726394L94.7231426020503,150.6589118416579L94.9465467671593,152.74161391314536L95.16995093226829,152.4068923464998L95.3933550973773,151.95028090218474L95.6167592624863,153.12352922509962L95.84016342759529,153.81437490623347L96.0635675927043,149.96475959674638L96.2869717578133,154.14093457140913L96.5103759229223,153.68216306719208L96.7337800880313,153.3071884553291L96.9571842531403,154.04502297761215L97.18058841824929,154.12259941827503L97.40399258335829,153.10697379137082L97.62739674846729,152.12494079655337L97.85080091357628,151.5872592613913L98.07420507868528,152.76462211465255L98.29760924379428,154.2664846267235L98.52101340890327,152.37998000119126L98.74441757401227,152.3595471502906L98.96782173912129,153.72887778906437L99.19122590423028,152.83474867866727L99.41463006933928,153.079023219301L99.63803423444827,154.20907925305184L99.86143839955727,153.55515880911372L100.08484256466627,148.7038986411429L100.30824672977526,154.25301783194726L100.53165089488427,153.7354977696017L100.75505505999327,153.78392505165644L100.97845922510226,154.95712814489065L101.20186339021126,152.9056551120248L101.42526755532026,154.58905722701655L101.64867172042926,154.35858938906244L101.87207588553827,154.4899980586225L102.09548005064727,153.2043498674047L102.31888421575626,153.18165621776774L102.54228838086526,154.50495880345787L102.76569254597426,153.9469478974222L102.98909671108325,154.53338428717493L103.21250087619225,154.54334098461038L103.43590504130125,155.59133804222273L103.65930920641024,153.61703575348994L103.88271337151924,152.19416139635794L104.10611753662825,155.03356630525613L104.32952170173724,154.86715260403506L104.55292586684625,154.6558402211512L104.77633003195525,153.34438301471442L104.99973419706424,152.20232535372242L105.22313836217324,155.33384547005656L105.44654252728223,154.58360225340613L105.66994669239124,153.66733664080238L105.89335085750024,154.6379100792487L106.11675502260923,155.257767091242L106.34015918771823,153.99069459282376L106.56356335282723,153.7145632804243L106.78696751793622,153.75510483618064L107.01037168304522,154.06990135788604L107.23377584815424,154.9642463372137L107.45718001326323,154.37590550378465L107.68058417837223,154.345724286099L107.90398834348123,154.5709304045329L108.12739250859022,154.52069050875957L108.35079667369922,151.89022273921083L108.57420083880822,154.46999214849563L108.79760500391721,153.9342020363442L109.02100916902621,153.3695012493556L109.24441333413522,154.09119288742158L109.4678174992442,154.2766935138937L109.69122166435321,154.66082576549996L109.91462582946222,153.94703081850346L110.13802999457121,154.4815579260865L110.36143415968021,153.26280991499425L110.5848383247892,154.49200118523848L110.8082424898982,153.80518505747517L111.03164665500721,154.04120997847036L111.2550508201162,155.18544551711742L111.4784549852252,155.2017096991145L111.7018591503342,155.13507609998575L111.92526331544319,154.9335120838869L112.14866748055219,155.16065005792478L112.3720716456612,153.91703189013694L112.59547581077018,152.74461963101666L112.8188799758792,152.9138814315248L113.0422841409882,155.450613429037L113.26568830609719,154.58213365938008L113.48909247120619,153.3857921579822L113.7124966363152,153.7260139279189L113.93590080142418,154.12342931438585L114.15930496653318,153.70377051919428L114.38270913164219,155.2829422056331L114.60611329675118,154.66487176602712L114.82951746186018,155.2256745768981L115.05292162696918,155.14595315289344L115.27632579207817,154.39715043304312L115.49972995718717,154.95762841257098L115.72313412229619,154.8578613311443L115.94653828740518,154.07379042512716L116.16994245251418,154.69969724956175L116.39334661762317,155.31212014676527L116.61675078273217,153.80764116619625L116.84015494784117,154.08760672198147L117.06355911295016,153.472058179723L117.28696327805916,154.94648957575387L117.51036744316816,155.19113006562227L117.73377160827715,154.47125309716938L117.95717577338615,153.8127685672708L118.18057993849516,154.669579764608L118.40398410360416,153.5361068340705L118.62738826871316,154.79150733367803L118.85079243382216,154.66173035911376L119.07419659893115,154.47103654294065L119.29760076404015,154.88602571625012L119.52100492914916,154.83346060371042L119.74440909425815,155.23392145534385L119.96781325936715,155.00968914564115L120.19121742447615,153.57774555223267L120.41462158958514,155.06129621130805L120.63802575469414,153.57385579969335L120.86142991980314,153.20021477811255L121.08483408491213,155.07759191702198L121.30823825002115,153.53232809983834L121.53164241513015,152.68671947205016L121.75504658023914,153.27617254444527L121.97845074534814,153.29502852420552L122.20185491045713,154.4751346261304L122.42525907556613,153.17829757132745L122.64866324067513,153.87226684162164L122.87206740578412,154.92287899713568L123.09547157089312,154.87245132965768L123.31887573600213,154.57472832711443L123.54227990111112,153.58156814554914L123.76568406622012,153.64338135719348L123.98908823132913,153.72296914805065L124.21249239643812,153.67414370774617L124.43589656154712,153.2885236737645L124.65930072665613,154.48303885548L124.88270489176512,154.28791869828305L125.10610905687412,154.23079087037925L125.32951322198312,154.19454476369202L125.55291738709211,155.60944293516425L125.77632155220111,153.1285832992676L125.99972571731011,153.3531671669429L126.2231298824191,154.50842230052157L126.4465340475281,155.4229541086989L126.66993821263712,153.6622654341796L126.89334237774611,154.62380595715368L127.11674654285511,153.75014944495237L127.3401507079641,154.21848976782803L127.5635548730731,152.5829536756716L127.7869590381821,154.29589488394285L128.0103632032911,154.2552286039155L128.2337673684001,154.92650011278363L128.4571715335091,155.38240227346967L128.6805756986181,153.67784705917717L128.9039798637271,154.98237795678475L129.1273840288361,154.97282147349355L129.35078819394508,153.83793271689086L129.57419235905408,154.0540565783826L129.79759652416308,154.7761045715086L130.02100068927209,154.12671874570873L130.2444048543811,154.22108910387132L130.4678090194901,155.40813659118567L130.69121318459906,153.98482844029797L130.9146173497081,153.85236235562724L131.1380215148171,153.3754119462639L131.36142567992607,152.5554273031828L131.58482984503507,154.05575680319765L131.80823401014408,154.11723558932414L132.03163817525308,154.01098010461308L132.25504234036208,155.32878522820482L132.47844650547108,152.92757163351172L132.70185067058006,153.87968519455296L132.92525483568906,154.97536598568144L133.14865900079806,155.21878595946941L133.37206316590706,154.26347342646667L133.59546733101607,155.23015300058455L133.81887149612507,153.98894982362626L134.04227566123407,155.04934255494032L134.26567982634307,154.7347509373944L134.48908399145208,154.87886366484273L134.71248815656108,154.77415215695882L134.93589232167005,152.6975554070663L135.15929648677906,153.82646151045049L135.38270065188806,154.18169062549967L135.60610481699706,154.1616490798668L135.82950898210606,153.3988004882678L136.05291314721504,153.77544380122896L136.27631731232404,153.46665871526614L136.49972147743304,153.99836239429706L136.72312564254204,153.84228504570996L136.94652980765105,154.62875860718918L137.16993397276005,155.04148972295513L137.39333813786902,154.11954230303934L137.61674230297803,153.34726058182375L137.84014646808703,155.31759979111067L138.06355063319603,152.48440025734342L138.28695479830503,154.14240316543516L138.51035896341403,154.88040490047712L138.733763128523,152.87885035853245L138.957167293632,155.227862734026L139.180571458741,153.99669780498803L139.40397562385004,154.92667623441903L139.62737978895905,154.8819139270965L139.85078395406805,154.73243600010093L140.07418811917702,154.35873878406835L140.29759228428603,151.84749508222114L140.52099644939503,154.36116131317803L140.74440061450403,155.3760954742062L140.96780477961303,154.60068742263752L141.19120894472204,154.89337896585315L141.414613109831,155.65964034244965L141.63801727494,153.2050666893138L141.861421440049,154.20353793186916L142.08482560515802,154.8686917837749L142.30822977026702,154.64629333203473L142.531633935376,154.25377919823885L142.755038100485,152.89335606536818L142.978442265594,154.58451986768554L143.201846430703,153.6728032644821L143.425250595812,153.8100403951674L143.648654760921,154.7029003333124L143.87205892602998,154.34267265324883L144.09546309113898,154.1581588561736L144.31886725624798,153.22305165507166L144.542271421357,154.1949621102911L144.765675586466,153.44005955123146L144.98907975157502,153.3960010451524L145.212483916684,154.5051253309186L145.435888081793,153.89409701553635L145.659292246902,154.170300284246L145.882696412011,154.83915543168817L146.10610057712,152.71153754608312L146.329504742229,154.7844528740868L146.55290890733798,154.55254796582352L146.77631307244698,154.97196279485865L146.99971723755598,154.66638558973384L147.223121402665,154.42881669191144L147.446525567774,155.21183223871247L147.66992973288296,154.41512237813535L147.89333389799197,152.70690081851424L148.11673806310097,155.5682181371102L148.34014222820997,155.35849084894505L148.56354639331897,154.28455182826443L148.78695055842798,155.0427506716289L149.01035472353695,154.32937786831883L149.23375888864595,155.02792150404642L149.45716305375495,154.15927178043782L149.68056721886396,154.87456136279167L149.90397138397296,153.37038459872545L150.12737554908196,155.14490190546647L150.35077971419094,152.0286653094163L150.57418387929997,155.093118032866L150.79758804440897,155.4138684252658L151.02099220951797,155.2566041402097L151.24439637462697,154.32798260119938L151.46780053973598,153.8075315184855L151.69120470484495,154.44793102909014L151.91460886995395,154.21133456940257L152.13801303506295,155.710532642102L152.36141720017196,154.60927763547758L152.58482136528096,155.8394564204169L152.80822553038993,154.39504588229468L153.03162969549894,154.4898801873334L153.25503386060794,154.88128071156686L153.47843802571694,154.30270400678123L153.70184219082594,154.38260703480682L153.92524635593495,155.45941128722933L154.14865052104392,155.3105494433086L154.37205468615292,154.5248790513107L154.59545885126192,154.85182179817585L154.81886301637093,155.2898390466401L155.04226718147993,155.3742170718612L155.26567134658893,153.76198043294366L155.4890755116979,154.80610281457692L155.7124796768069,154.17810240416497L155.9358838419159,155.42516556596533L156.15928800702494,155.06816701098373L156.38269217213394,155.782923431344L156.60609633724295,154.40646911786158L156.82950050235192,155.32016143575336L157.05290466746092,154.82930152898155L157.27630883256992,155.58675545321105L157.49971299767893,154.41519639034013L157.72311716278793,153.96726561822652L157.94652132789693,154.8451531614669L158.1699254930059,154.36346391510403L158.3933296581149,153.0075918475282L158.6167338232239,155.992094257377L158.8401379883329,155.44216987001005L159.06354215344192,155.1134049152517L159.2869463185509,155.31166510876562L159.5103504836599,156.0867092669942L159.7337546487689,154.92018097815273L159.9571588138779,155.21061103733388L160.1805629789869,155.11847817776905L160.4039671440959,154.31336998784568L160.62737130920488,154.92123702266701L160.85077547431388,154.01016528506247L161.07417963942288,155.48189934740859L161.29758380453188,155.2919641563343L161.52098796964088,154.68463439529572L161.74439213474992,154.59756520407356L161.9677962998589,155.43555605715648L162.1912004649679,155.3476494315434L162.4146046300769,156.63718326351133L162.6380087951859,156.21586022165985L162.8614129602949,156.30907790826302L163.0848171254039,154.01839982814076L163.30822129051288,155.41100867590947L163.53162545562188,154.75076978263868L163.75502962073088,155.67094981851662L163.97843378583988,154.9025290673163L164.20183795094889,154.81129189248875L164.42524211605786,155.55145711392373L164.64864628116686,155.04351957620062L164.87205044627586,156.1545517321341L165.09545461138487,156.06945757030206L165.31885877649387,155.11391888889588L165.54226294160287,155.82920504475877L165.76566710671185,155.7036549894444L165.98907127182085,156.48091300348312L166.21247543692985,154.85225079484422L166.43587960203885,156.0299549266052L166.65928376714785,155.52793493877235L166.88268793225686,154.54906048332305L167.10609209736583,155.81888239808865L167.32949626247486,155.94705166309384L167.55290042758386,154.87274669317856L167.77630459269287,155.6877560713838L167.99970875780187,155.5701061336299L168.22311292291087,155.73127387718915L168.44651708801985,156.04348682470973L168.66992125312885,156.28189966725589L168.89332541823785,154.95800669717312L169.11672958334685,156.03209648345603L169.34013374845586,156.0046338436991L169.56353791356483,155.72295298653864L169.78694207867383,156.5090438089775L170.01034624378283,155.99421731117664L170.23375040889184,156.2926475414543L170.45715457400084,155.86078427075662L170.68055873910984,156.47425738743982L170.90396290421882,154.93041522135604L171.12736706932782,155.5147237602218L171.35077123443682,156.71679572510342L171.57417539954582,155.1360101614218L171.79757956465482,155.75050402976237L172.02098372976383,156.2110967139254L172.2443878948728,156.11660745652645L172.4677920599818,155.5584492113794L172.6911962250908,156.09354648705846L172.91460039019984,155.74906490355863L173.13800455530884,156.32133823557177L173.36140872041784,155.76295726851225L173.58481288552682,156.5394439794356L173.80821705063582,155.20667331392107L174.03162121574482,155.6272147731843L174.25502538085382,156.60742967189768L174.47842954596283,156.91782932040147L174.70183371107183,155.77951407283746L174.9252378761808,155.95277527359565L175.1486420412898,155.03567428249556L175.3720462063988,156.27489077999448L175.5954503715078,155.76971088219705L175.8188545366168,156.21107170054137L176.04225870172579,156.18507936805597L176.2656628668348,156.43081633503198L176.4890670319438,155.45823874202236L176.7124711970528,155.906711585006L176.9358753621618,156.16804628148716L177.1592795272708,156.50563787696194L177.38268369237977,155.8345092527669L177.60608785748877,155.77467175581089L177.82949202259778,155.47859689542005L178.05289618770678,155.9678100306358L178.27630035281578,156.07444037345806L178.4997045179248,155.64697740245293L178.7231086830338,157.38345757568126L178.9465128481428,157.03246600200396L179.1699170132518,155.54402094323942L179.3933211783608,154.9895962026439L179.6167253434698,156.60468984972496L179.8401295085788,156.05245532215193L180.06353367368777,157.01266876517664L180.28693783879677,156.50012533830335L180.51034200390578,156.42243411019325L180.73374616901478,156.7984562003431L180.95715033412378,156.42356999194695L181.18055449923276,156.41422732169178L181.40395866434176,156.99999314716337L181.62736282945076,156.50225044799757L181.85076699455976,156.014178676921L182.07417115966877,156.5617946373273L182.29757532477777,155.79911017464534L182.52097948988674,156.07265722756176L182.74438365499574,156.52118318115532L182.96778782010475,156.7309789991397L183.19119198521375,156.27037192371466L183.41459615032275,156.19314772632262L183.63800031543175,156.8155105311559L183.86140448054073,156.06056719685378L184.08480864564976,156.53607334027691L184.30821281075876,156.5670752025478L184.53161697586776,156.51105070473358L184.75502114097677,156.04904664894357L184.97842530608577,156.75938940629655L185.20182947119474,155.05419720733434L185.42523363630374,156.2904333429951L185.64863780141275,155.60717528344603L185.87204196652175,156.20534226500493L186.09544613163075,156.61590064285227L186.31885029673973,155.92330539543357L186.54225446184873,155.8321093384976L186.76565862695773,156.82699749945468L186.98906279206673,156.05282880966672L187.21246695717574,156.44062158156694L187.43587112228474,156.23320957334437L187.6592752873937,156.46766687472478L187.8826794525027,156.9449808347791L188.10608361761172,156.41511444020165L188.32948778272072,156.66147468588355L188.55289194782972,156.63250541805093L188.77629611293872,156.7863507504258L188.9997002780477,156.43941922588863L189.2231044431567,157.2640320303112L189.4465086082657,156.41339331379177L189.66991277337473,157.35144455592769L189.89331693848374,155.7080422684713L190.11672110359274,154.93499849566592L190.3401252687017,155.66055041844896L190.56352943381071,156.93055085339364L190.78693359891972,154.86850127087746L191.01033776402872,156.66884095615222L191.23374192913772,155.88491293480817L191.45714609424672,156.2043598900463L191.6805502593557,155.52002796822995L191.9039544244647,156.71977266045064L192.1273585895737,156.5388320081499L192.3507627546827,156.40478802439148L192.5741669197917,155.7373065571757L192.79757108490068,156.42001946201282L193.02097525000968,156.70737561615252L193.2443794151187,155.72342447169493L193.4677835802277,156.1806615932595L193.6911877453367,156.3050983816605L193.9145919104457,156.14717415444525L194.13799607555467,156.0651292269197L194.36140024066367,157.0656789788922L194.58480440577267,155.78895816722508L194.80820857088167,157.35833420130365L195.03161273599068,155.2997107670997L195.2550169010997,156.39692628352978L195.47842106620868,155.15083727310972L195.70182523131768,155.53283756203982L195.9252293964267,155.95072623200076L196.1486335615357,156.02651198848724L196.3720377266447,156.58508758023336L196.5954418917537,155.18773852486873L196.81884605686267,155.78976270730283L197.04225022197167,156.832384285895L197.26565438708067,156.77765602961142L197.48905855218968,157.03403944665342L197.71246271729868,156.5548659299544L197.93586688240765,156.19065289825366L198.15927104751665,156.13410654586602L198.38267521262566,157.34897371329546L198.60607937773466,156.8049552257495L198.82948354284366,156.46677598707484L199.05288770795266,156.52099712269614L199.27629187306164,156.58598360761977L199.49969603817064,155.17237208350352L199.72310020327964,155.9418187260977L199.94650436838864,156.29402499082076L200.16990853349765,156.62582855776367L200.39331269860665,156.51443642045245L200.61671686371562,157.40172488429434L200.84012102882465,157.13912478470118L201.06352519393366,157.23428186518848L201.28692935904266,156.80165208846276L201.51033352415166,157.16934986147115L201.73373768926066,156.87108238951413L201.95714185436964,156.3263333740952L202.18054601947864,155.8045815954124L202.40395018458764,155.4293863175315L202.62735434969665,155.70787505571238L202.85075851480565,156.71191742992178L203.07416267991462,157.2339162586029L203.29756684502362,156.8694099192759L203.52097101013263,156.56810109394164L203.74437517524163,156.1638484874104L203.96777934035063,156.9792525973744L204.19118350545963,155.4418930095404L204.4145876705686,156.55099159662439L204.6379918356776,155.90774707057454L204.8613960007866,156.0713859994151L205.08480016589562,155.39183814427898L205.30820433100462,156.60793850580544L205.53160849611362,157.31792353750203L205.7550126612226,156.89919332136097L205.9784168263316,156.72392111305754L206.2018209914406,155.9443248615868L206.42522515654963,155.03730734808775L206.64862932165863,156.72919859443618L206.87203348676763,156.88779544182717L207.0954376518766,157.16423445311497L207.3188418169856,156.8574459834353L207.5422459820946,157.23480783155105L207.76565014720362,155.99196679191323L207.98905431231262,156.40757239094665L208.21245847742162,156.26091652190684L208.4358626425306,157.4321641167494L208.6592668076396,156.8892712314842L208.8826709727486,157.30512525111232L209.1060751378576,156.77551995514614L209.3294793029666,156.49079980050297L209.55288346807558,157.19215487206432L209.77628763318458,157.28295105750513L209.99969179829358,156.10207091127208L210.22309596340259,155.61326210198976L210.4465001285116,157.48082474283862L210.6699042936206,155.7510248563885L210.89330845872956,155.57660001929983L211.11671262383857,156.43057202622643L211.34011678894757,156.13653935444856L211.56352095405657,155.77934480418395L211.78692511916557,156.1096722388207L212.0103292842746,157.02749450626817L212.23373344938358,157.06115018578862L212.45713761449258,156.41613279331537L212.68054177960158,157.26634045727184L212.90394594471059,157.19308242316757L213.1273501098196,156.76551323094262L213.3507542749286,155.94861619886677L213.57415844003756,156.99734721084303L213.79756260514657,157.05736973831097L214.02096677025557,156.67988042473146L214.24437093536457,156.62101673650665L214.46777510047357,156.24707281312484L214.69117926558255,157.2253661357071L214.91458343069155,156.4158124164105L215.13798759580055,156.54486023369816L215.36139176090956,155.6543539521945L215.58479592601856,156.78999585151047L215.80820009112756,157.1600308340036L216.03160425623653,157.13884415509145L216.25500842134554,156.1373151120022L216.47841258645454,156.40518207085202L216.70181675156354,157.48226935142793L216.92522091667254,157.3989295529681L217.14862508178155,157.40492351360675L217.37202924689052,157.35293028240852L217.59543341199955,156.54338307344474L217.81883757710855,155.06998921887697L218.04224174221756,157.29882153569073L218.26564590732656,157.60705872574886L218.48905007243556,157.26662211482886L218.71245423754453,156.91942537989127L218.93585840265354,156.9471165665953L219.15926256776254,157.35836503972232L219.38266673287154,155.98214509822168L219.60607089798054,156.63057219185055L219.82947506308952,157.35686937641768L220.05287922819852,156.98121049430972L220.27628339330752,156.51534820969727L220.49968755841653,156.85521191132852L220.72309172352553,157.0795500996019L220.94649588863453,156.75646352566466L221.1699000537435,156.2661940032855L221.3933042188525,156.8152884945416L221.6167083839615,157.1232796625487L221.8401125490705,157.3001815099533L222.0635167141795,156.82729628946652L222.28692087928852,157.39042226120927L222.5103250443975,156.43611951509286L222.7337292095065,156.68102315946706L222.9571333746155,156.43789238151624L223.18053753972453,156.52666042695702L223.40394170483353,157.38103813041346L223.62734586994253,157.1308552914151L223.8507500350515,156.89079464936563L224.0741542001605,155.592786077303L224.2975583652695,157.22237343850145L224.5209625303785,157.23723858423904L224.7443666954875,156.073185592468L224.96777086059652,157.16990940744515L225.1911750257055,156.65861939096547L225.4145791908145,156.8258694986302L225.6379833559235,157.45117463125197L225.8613875210325,156.04702707517097L226.0847916861415,156.7652600132606L226.30819585125047,156.32449403374716L226.53160001635948,156.7485791699626L226.75500418146848,156.21469864122395L226.97840834657748,155.8927520608295L227.20181251168648,157.11814609379041L227.4252166767955,157.65241587190226L227.64862084190446,156.70364930723207L227.87202500701346,156.49418380297638L228.09542917212246,157.22678675885967L228.31883333723147,157.13505342814094L228.54223750234047,156.6379843770981L228.7656416674495,155.62871077913803L228.98904583255847,156.71294914635024L229.21244999766748,156.8035630424719L229.43585416277648,157.21625852273186L229.65925832788548,157.41324543220455L229.88266249299448,157.3844749008477L230.1060666581035,155.73459962931625L230.32947082321246,156.76285187541296L230.55287498832146,157.0228670302249L230.77627915343047,156.61109156278806L230.99968331853947,156.84714732220192L231.22308748364847,157.1282939894215L231.44649164875744,156.50026582443274L231.66989581386645,156.98812001333326L231.89329997897545,156.7109676066273L232.11670414408445,157.0423555402166L232.34010830919345,156.71933406960758L232.56351247430246,157.60817336325857L232.78691663941143,156.5665262786958L233.01032080452043,156.3945955843779L233.23372496962944,156.74910582162337L233.45712913473844,157.0272618475319L233.68053329984744,156.3921836773902L233.90393746495644,157.0079333546681L234.12734163006542,156.6313291037039L234.35074579517445,156.89234513652562L234.57414996028345,154.41966796104467L234.79755412539245,157.18486158605313L235.02095829050145,157.0323477880658L235.24436245561046,156.54102530501424L235.46776662071943,156.77274449746744L235.69117078582843,156.0558955190771L235.91457495093744,155.75074525472604L236.13797911604644,156.86773950493225L236.36138328115544,157.21467993834597L236.58478744626441,157.24006338338756L236.80819161137342,157.2590427168224L237.03159577648242,156.48019755217038L237.25499994159142,156.41386171510618L237.47840410670042,157.48279291924683L237.70180827180943,157.38372758316902L237.9252124369184,157.2472535320208L238.1486166020274,156.22810889889934L238.3720207671364,157.15352358501892L238.5954249322454,156.57244451388422L238.8188290973544,156.20911688744795L239.0422332624634,156.47142950444942L239.2656374275724,157.20863834948295L239.4890415926814,157.22193964474576L239.7124457577904,156.46542663493426L239.93584992289942,157.52339512389318L240.15925408800842,157.35197052229023L240.38265825311743,157.12229111990632L240.6060624182264,156.05157402867664L240.8294665833354,156.563194358885L241.0528707484444,157.17674148777294L241.2762749135534,157.43468601409694L241.4996790786624,157.02926977123525L241.7230832437714,158.10054914963166L241.9464874088804,157.52953368245042L242.1698915739894,157.93154639184021L242.3932957390984,157.5260955414198L242.6166999042074,156.4120806251045L242.8401040693164,157.8577928871429L243.06350823442537,157.9713937405278L243.28691239953437,157.17883370315394L243.51031656464338,158.24047401982702L243.73372072975238,156.93148422953152L243.95712489486138,157.01681618983628L244.18052905997038,157.98573531844647L244.40393322507936,157.13800158096407L244.62733739018836,157.83149045722547L244.85074155529736,157.5972805484925L245.07414572040636,157.78085480174613L245.29754988551537,155.97590614347925L245.5209540506244,158.01128392035238L245.74435821573337,158.69143415259953" fill="none"></path></g></g></g></g></g></g><g transform="translate(61, 176)" clip-path="url(#clip_1)"><clipPath id="clip_1"><rect width="268" height="23"></rect></clipPath><g><g><line x1="0" y1="0" x2="0" y2="5" style="visibility: inherit;" fill="rgb(0, 0, 0)" stroke="rgb(204, 204, 204)" stroke-width="1px"></line><line x1="22.34041651089986" y1="0" x2="22.34041651089986" y2="5" style="visibility: inherit;" fill="rgb(0, 0, 0)" stroke="rgb(204, 204, 204)" stroke-width="1px"></line><line x1="44.68083302179972" y1="0" x2="44.68083302179972" y2="5" style="visibility: inherit;" fill="rgb(0, 0, 0)" stroke="rgb(204, 204, 204)" stroke-width="1px"></line><line x1="67.02124953269958" y1="0" x2="67.02124953269958" y2="5" style="visibility: inherit;" fill="rgb(0, 0, 0)" stroke="rgb(204, 204, 204)" stroke-width="1px"></line><line x1="89.36166604359944" y1="0" x2="89.36166604359944" y2="5" style="visibility: inherit;" fill="rgb(0, 0, 0)" stroke="rgb(204, 204, 204)" stroke-width="1px"></line><line x1="111.70208255449931" y1="0" x2="111.70208255449931" y2="5" style="visibility: inherit;" fill="rgb(0, 0, 0)" stroke="rgb(204, 204, 204)" stroke-width="1px"></line><line x1="134.04249906539917" y1="0" x2="134.04249906539917" y2="5" style="visibility: inherit;" fill="rgb(0, 0, 0)" stroke="rgb(204, 204, 204)" stroke-width="1px"></line><line x1="156.38291557629904" y1="0" x2="156.38291557629904" y2="5" style="visibility: inherit;" fill="rgb(0, 0, 0)" stroke="rgb(204, 204, 204)" stroke-width="1px"></line><line x1="178.72333208719888" y1="0" x2="178.72333208719888" y2="5" style="visibility: inherit;" fill="rgb(0, 0, 0)" stroke="rgb(204, 204, 204)" stroke-width="1px"></line><line x1="201.06374859809875" y1="0" x2="201.06374859809875" y2="5" style="visibility: inherit;" fill="rgb(0, 0, 0)" stroke="rgb(204, 204, 204)" stroke-width="1px"></line><line x1="223.40416510899863" y1="0" x2="223.40416510899863" y2="5" style="visibility: inherit;" fill="rgb(0, 0, 0)" stroke="rgb(204, 204, 204)" stroke-width="1px"></line><line x1="245.74458161989847" y1="0" x2="245.74458161989847" y2="5" style="visibility: inherit;" fill="rgb(0, 0, 0)" stroke="rgb(204, 204, 204)" stroke-width="1px"></line><line x1="268.08499813079834" y1="0" x2="268.08499813079834" y2="5" style="visibility: inherit;" fill="rgb(0, 0, 0)" stroke="rgb(204, 204, 204)" stroke-width="1px"></line></g><g transform="translate(0, 8)"><text style="text-anchor: middle; visibility: hidden; font-family: Roboto, sans-serif; font-size: 12px; font-weight: 200;" x="0" y="0" dx="0em" dy="0.95em" fill="rgb(33, 33, 33)" stroke="none" stroke-width="1px">-100k</text><text style="text-anchor: middle; visibility: inherit; font-family: Roboto, sans-serif; font-size: 12px; font-weight: 200;" x="22.34041651089986" y="0" dx="0em" dy="0.95em" fill="rgb(33, 33, 33)" stroke="none" stroke-width="1px">0</text><text style="text-anchor: middle; visibility: hidden; font-family: Roboto, sans-serif; font-size: 12px; font-weight: 200;" x="44.68083302179972" y="0" dx="0em" dy="0.95em" fill="rgb(33, 33, 33)" stroke="none" stroke-width="1px">100k</text><text style="text-anchor: middle; visibility: inherit; font-family: Roboto, sans-serif; font-size: 12px; font-weight: 200;" x="67.02124953269958" y="0" dx="0em" dy="0.95em" fill="rgb(33, 33, 33)" stroke="none" stroke-width="1px">200k</text><text style="text-anchor: middle; visibility: hidden; font-family: Roboto, sans-serif; font-size: 12px; font-weight: 200;" x="89.36166604359944" y="0" dx="0em" dy="0.95em" fill="rgb(33, 33, 33)" stroke="none" stroke-width="1px">300k</text><text style="text-anchor: middle; visibility: inherit; font-family: Roboto, sans-serif; font-size: 12px; font-weight: 200;" x="111.70208255449931" y="0" dx="0em" dy="0.95em" fill="rgb(33, 33, 33)" stroke="none" stroke-width="1px">400k</text><text style="text-anchor: middle; visibility: hidden; font-family: Roboto, sans-serif; font-size: 12px; font-weight: 200;" x="134.04249906539917" y="0" dx="0em" dy="0.95em" fill="rgb(33, 33, 33)" stroke="none" stroke-width="1px">500k</text><text style="text-anchor: middle; visibility: inherit; font-family: Roboto, sans-serif; font-size: 12px; font-weight: 200;" x="156.38291557629904" y="0" dx="0em" dy="0.95em" fill="rgb(33, 33, 33)" stroke="none" stroke-width="1px">600k</text><text style="text-anchor: middle; visibility: hidden; font-family: Roboto, sans-serif; font-size: 12px; font-weight: 200;" x="178.72333208719888" y="0" dx="0em" dy="0.95em" fill="rgb(33, 33, 33)" stroke="none" stroke-width="1px">700k</text><text style="text-anchor: middle; visibility: inherit; font-family: Roboto, sans-serif; font-size: 12px; font-weight: 200;" x="201.06374859809875" y="0" dx="0em" dy="0.95em" fill="rgb(33, 33, 33)" stroke="none" stroke-width="1px">800k</text><text style="text-anchor: middle; visibility: hidden; font-family: Roboto, sans-serif; font-size: 12px; font-weight: 200;" x="223.40416510899863" y="0" dx="0em" dy="0.95em" fill="rgb(33, 33, 33)" stroke="none" stroke-width="1px">900k</text><text style="text-anchor: middle; visibility: inherit; font-family: Roboto, sans-serif; font-size: 12px; font-weight: 200;" x="245.74458161989847" y="0" dx="0em" dy="0.95em" fill="rgb(33, 33, 33)" stroke="none" stroke-width="1px">1M</text><text style="text-anchor: middle; visibility: hidden; font-family: Roboto, sans-serif; font-size: 12px; font-weight: 200;" x="268.08499813079834" y="0" dx="0em" dy="0.95em" fill="rgb(33, 33, 33)" stroke="none" stroke-width="1px">1.1M</text></g><line x1="0" y1="0" x2="268.08499813079834" y2="0" fill="rgb(0, 0, 0)" stroke="rgb(204, 204, 204)" stroke-width="1px"></line></g></g></g></g></svg>