<svg viewBox="0 0 330 200" xmlns="http://www.w3.org/2000/svg"><g><g><g><g><g><line x1="41.149001121520996" y1="176.5999994277954" x2="36.149001121520996" y2="176.5999994277954" style="visibility: inherit;" fill="rgb(0, 0, 0)" stroke="rgb(204, 204, 204)" stroke-width="1px"></line><line x1="41.149001121520996" y1="151.37142808096752" x2="36.149001121520996" y2="151.37142808096752" style="visibility: inherit;" fill="rgb(0, 0, 0)" stroke="rgb(204, 204, 204)" stroke-width="1px"></line><line x1="41.149001121520996" y1="126.14285673413958" x2="36.149001121520996" y2="126.14285673413958" style="visibility: inherit;" fill="rgb(0, 0, 0)" stroke="rgb(204, 204, 204)" stroke-width="1px"></line><line x1="41.149001121520996" y1="100.91428538731165" x2="36.149001121520996" y2="100.91428538731165" style="visibility: inherit;" fill="rgb(0, 0, 0)" stroke="rgb(204, 204, 204)" stroke-width="1px"></line><line x1="41.149001121520996" y1="75.68571404048376" x2="36.149001121520996" y2="75.68571404048376" style="visibility: inherit;" fill="rgb(0, 0, 0)" stroke="rgb(204, 204, 204)" stroke-width="1px"></line><line x1="41.149001121520996" y1="50.457142693655825" x2="36.149001121520996" y2="50.457142693655825" style="visibility: inherit;" fill="rgb(0, 0, 0)" stroke="rgb(204, 204, 204)" stroke-width="1px"></line><line x1="41.149001121520996" y1="25.228571346827923" x2="36.149001121520996" y2="25.228571346827923" style="visibility: inherit;" fill="rgb(0, 0, 0)" stroke="rgb(204, 204, 204)" stroke-width="1px"></line><line x1="41.149001121520996" y1="0" x2="36.149001121520996" y2="0" style="visibility: inherit;" fill="rgb(0, 0, 0)" stroke="rgb(204, 204, 204)" stroke-width="1px"></line></g><g transform="translate(31.149001121520996, 0)"><text style="text-anchor: end; visibility: hidden; font-family: Roboto, sans-serif; font-size: 12px; font-weight: 200;" x="0" y="176.5999994277954" dx="0em" dy="0.3em" fill="rgb(33, 33, 33)" stroke="none" stroke-width="1px">-50</text><text style="text-anchor: end; visibility: inherit; font-family: Roboto, sans-serif; font-size: 12px; font-weight: 200;" x="0" y="151.37142808096752" dx="0em" dy="0.3em" fill="rgb(33, 33, 33)" stroke="none" stroke-width="1px">0</text><text style="text-anchor: end; visibility: inherit; font-family: Roboto, sans-serif; font-size: 12px; font-weight: 200;" x="0" y="126.14285673413958" dx="0em" dy="0.3em" fill="rgb(33, 33, 33)" stroke="none" stroke-width="1px">50</text><text style="text-anchor: end; visibility: inherit; font-family: Roboto, sans-serif; font-size: 12px; font-weight: 200;" x="0" y="100.91428538731165" dx="0em" dy="0.3em" fill="rgb(33, 33, 33)" stroke="none" stroke-width="1px">100</text><text style="text-anchor: end; visibility: inherit; font-family: Roboto, sans-serif; font-size: 12px; font-weight: 200;" x="0" y="75.68571404048376" dx="0em" dy="0.3em" fill="rgb(33, 33, 33)" stroke="none" stroke-width="1px">150</text><text style="text-anchor: end; visibility: inherit; font-family: Roboto, sans-serif; font-size: 12px; font-weight: 200;" x="0" y="50.457142693655825" dx="0em" dy="0.3em" fill="rgb(33, 33, 33)" stroke="none" stroke-width="1px">200</text><text style="text-anchor: end; visibility: inherit; font-family: Roboto, sans-serif; font-size: 12px; font-weight: 200;" x="0" y="25.228571346827923" dx="0em" dy="0.3em" fill="rgb(33, 33, 33)" stroke="none" stroke-width="1px">250</text><text style="text-anchor: end; visibility: hidden; font-family: Roboto, sans-serif; font-size: 12px; font-weight: 200;" x="0" y="0" dx="0em" dy="0.3em" fill="rgb(33, 33, 33)" stroke="none" stroke-width="1px">300</text></g><line x1="41.149001121520996" y1="0" x2="41.149001121520996" y2="176.5999994277954" fill="rgb(0, 0, 0)" stroke="rgb(204, 204, 204)" stroke-width="1px"></line></g></g><g transform="translate(41, 0)" clip-path="url(#clip_0)"><clipPath id="clip_0"><rect width="288" height="176"></rect></clipPath><g><g><g><line x1="0" y1="0" x2="0" y2="176.5999994277954" fill="rgb(0, 0, 0)" stroke="rgb(66, 66, 66)" stroke-width="1px" opacity="0.25"></line><line x1="24.07091657320658" y1="0" x2="24.07091657320658" y2="176.5999994277954" fill="rgb(0, 0, 0)" stroke="rgb(66, 66, 66)" stroke-width="1px" opacity="0.25"></line><line x1="48.14183314641316" y1="0" x2="48.14183314641316" y2="176.5999994277954" fill="rgb(0, 0, 0)" stroke="rgb(66, 66, 66)" stroke-width="1px" opacity="0.25"></line><line x1="72.21274971961975" y1="0" x2="72.21274971961975" y2="176.5999994277954" fill="rgb(0, 0, 0)" stroke="rgb(66, 66, 66)" stroke-width="1px" opacity="0.25"></line><line x1="96.28366629282633" y1="0" x2="96.28366629282633" y2="176.5999994277954" fill="rgb(0, 0, 0)" stroke="rgb(66, 66, 66)" stroke-width="1px" opacity="0.25"></line><line x1="120.35458286603293" y1="0" x2="120.35458286603293" y2="176.5999994277954" fill="rgb(0, 0, 0)" stroke="rgb(66, 66, 66)" stroke-width="1px" opacity="0.25"></line><line x1="144.4254994392395" y1="0" x2="144.4254994392395" y2="176.5999994277954" fill="rgb(0, 0, 0)" stroke="rgb(66, 66, 66)" stroke-width="1px" opacity="0.25"></line><line x1="168.4964160124461" y1="0" x2="168.4964160124461" y2="176.5999994277954" fill="rgb(0, 0, 0)" stroke="rgb(66, 66, 66)" stroke-width="1px" opacity="0.25"></line><line x1="192.56733258565265" y1="0" x2="192.56733258565265" y2="176.5999994277954" fill="rgb(0, 0, 0)" stroke="rgb(66, 66, 66)" stroke-width="1px" opacity="0.25"></line><line x1="216.63824915885925" y1="0" x2="216.63824915885925" y2="176.5999994277954" fill="rgb(0, 0, 0)" stroke="rgb(66, 66, 66)" stroke-width="1px" opacity="0.25"></line><line x1="240.70916573206586" y1="0" x2="240.70916573206586" y2="176.5999994277954" fill="rgb(0, 0, 0)" stroke="rgb(66, 66, 66)" stroke-width="1px" opacity="0.25"></line><line x1="264.7800823052724" y1="0" x2="264.7800823052724" y2="176.5999994277954" fill="rgb(0, 0, 0)" stroke="rgb(66, 66, 66)" stroke-width="1px" opacity="0.25"></line><line x1="288.850998878479" y1="0" x2="288.850998878479" y2="176.5999994277954" fill="rgb(0, 0, 0)" stroke="rgb(66, 66, 66)" stroke-width="1px" opacity="0.25"></line></g><g><line x1="0" y1="176.5999994277954" x2="288.850998878479" y2="176.5999994277954" fill="rgb(0, 0, 0)" stroke="rgb(66, 66, 66)" stroke-width="1px" opacity="0.25"></line><line x1="0" y1="151.37142808096752" x2="288.850998878479" y2="151.37142808096752" fill="rgb(0, 0, 0)" stroke="rgb(66, 66, 66)" stroke-width="1px" opacity="0.25"></line><line x1="0" y1="126.14285673413958" x2="288.850998878479" y2="126.14285673413958" fill="rgb(0, 0, 0)" stroke="rgb(66, 66, 66)" stroke-width="1px" opacity="0.25"></line><line x1="0" y1="100.91428538731165" x2="288.850998878479" y2="100.91428538731165" fill="rgb(0, 0, 0)" stroke="rgb(66, 66, 66)" stroke-width="1px" opacity="0.25"></line><line x1="0" y1="75.68571404048376" x2="288.850998878479" y2="75.68571404048376" fill="rgb(0, 0, 0)" stroke="rgb(66, 66, 66)" stroke-width="1px" opacity="0.25"></line><line x1="0" y1="50.457142693655825" x2="288.850998878479" y2="50.457142693655825" fill="rgb(0, 0, 0)" stroke="rgb(66, 66, 66)" stroke-width="1px" opacity="0.25"></line><line x1="0" y1="25.228571346827923" x2="288.850998878479" y2="25.228571346827923" fill="rgb(0, 0, 0)" stroke="rgb(66, 66, 66)" stroke-width="1px" opacity="0.25"></line><line x1="0" y1="0" x2="288.850998878479" y2="0" fill="rgb(0, 0, 0)" stroke="rgb(66, 66, 66)" stroke-width="1px" opacity="0.25"></line></g></g></g><g><g><line x1="0" y1="151.37142808096752" x2="288.850998878479" y2="151.37142808096752" fill="rgb(0, 0, 0)" stroke="rgb(153, 153, 153)" stroke-width="1.5px"></line></g></g><g><g><line x1="24.07091657320658" y1="0" x2="24.07091657320658" y2="176.5999994277954" fill="rgb(0, 0, 0)" stroke="rgb(153, 153, 153)" stroke-width="1.5px"></line></g></g><g><g><g><g><g><path style="fill: none;" stroke="rgb(0, 153, 136)" stroke-width="2px" d="M24.311385029772914,151.1412795861753L24.552094195504985,150.7454728538041L24.792803361237052,150.05624390563244L25.033512526969115,148.99398357707253L25.274221692701182,148.0723219839199L25.514930858433246,146.96788083860076L25.755640024165313,145.2244310707421L25.99634918989738,143.76433805627627L26.237058355629443,142.17534669222817L26.47776752136151,140.14087746890786L26.718476687093574,138.42339495186357L26.95918585282564,137.041015575329L27.199895018557708,134.55146354037254L27.44060418428977,133.1864358390862L27.68131335002184,131.14610081258033L27.922022515753905,128.38473562702617L28.16273168148597,125.9847713434225L28.403440847218036,123.77750326594851L28.6441500129501,121.21276962213342L28.88485917868217,119.25988422321923L29.125568344414237,116.56377313973158L29.3662775101463,113.83604761836091L29.606986675878368,112.34130860409317L29.84769584161043,108.93590533050063L30.088405007342498,107.05363505272253L30.329114173074565,105.22091275177169L30.56982333880663,101.73325613337249L30.810532504538696,98.58357568920202L31.051241670270763,95.89204285833925L31.291950836002826,91.37519712098815L31.532660001734893,86.84479737941399L31.773369167466956,81.32329148791815L32.01407833319902,75.26242191217119L32.254787498931094,65.5001757364771L32.49549666466316,63.81442752877661L32.73620583039522,60.564131606093L32.976914996127284,58.50865653953395L33.217624161859355,56.720707983093796L33.45833332759142,54.820785971197736L33.69904249332348,48.59835733348272L33.93975165905555,43.06198099050789L34.180460824787616,40.254143931698955L34.42116999051968,41.65070636870802L34.66187915625175,41.51531169201402L34.902588321983814,36.069498941233824L35.14329748771588,35.080665402443444L35.38400665344795,29.153793604561354L35.62471581918001,30.85537662312594L35.86542498491208,29.668057811582084L36.106134150644145,23.166082344111203L36.346843316376216,21.264326675246476L36.58755248210828,21.261677956109924L36.82826164784034,16.290827617742174L37.068970813572406,15.343436012534731L37.30967997930448,13.513219194550025L37.55038914503654,13.519132905959674L37.791098310768604,14.173091927818113L38.031807476500674,17.086829902500973L38.27251664223274,17.189958499890178L38.5132258079648,18.689816750896043L38.75393497369687,22.541996383620116L38.994644139428935,21.57843833087996L39.235353305161,23.32388088423417L39.47606247089306,26.298631795800304L39.71677163662513,22.858828542948572L39.957480802357196,24.25166339376519L40.19818996808926,20.75506479542826L40.43889913382133,22.14550388661181L40.679608299553394,19.989484009600805L40.92031746528546,14.593263804032063L41.16102663101753,16.153524949578348L41.40173579674959,16.696674911861873L41.642444962481655,8.133636012787221L41.883154128213725,10.9635228868447L42.12386329394579,14.080947699689112L42.36457245967785,11.842908717030134L42.605281625409916,12.978314417746827L42.845990791141986,13.062602106803098L43.08669995687405,12.337783651320304L43.32740912260611,11.851957060906289L43.568118288338184,13.64903186109753L43.80882745407025,16.209598723696036L44.04953661980231,11.864184554969189L44.29024578553439,13.365765754035415L44.53095495126645,15.856605832990464L44.77166411699851,13.714667033158584L45.012373282730586,13.475641614877558L45.25308244846265,13.673098959035787L45.49379161419471,14.287211694804569L45.734500779926776,11.43732375540696L45.97520994565885,13.710419103908315L46.21591911139091,15.204764289071646L46.456628277122974,17.149398428711102L46.697337442855044,18.843444048553682L46.93804660858711,18.7796319183448L47.17875577431917,17.51341937224032L47.41946494005124,20.023512153415965L47.660174105783305,18.662121582456887L47.90088327151537,18.3810224918764L48.14159243724744,18.608893214575332L48.3823016029795,21.30047948749352L48.623010768711566,20.659325448302628L48.86371993444363,16.105756411430914L49.1044291001757,15.96537647448019L49.345138265907764,17.14578427444879L49.58584743163983,21.17838853015378L49.8265565973719,19.027122982455978L50.06726576310396,21.59050986618397L50.307974928836025,24.04045258369653L50.548684094568095,21.491686571299752L50.78939326030016,26.436935192577796L51.03010242603222,28.584696386139957L51.27081159176429,32.44672567271455L51.511520757496356,36.00465291775857L51.75222992322842,38.48017136293038L51.99293908896048,37.135385271836505L52.233648254692554,37.72314847296215L52.47435742042462,39.93327431143367L52.71506658615668,38.746189075200796L52.95577575188875,35.84032419542332L53.196484917620815,29.77167935136995L53.43719408335288,35.06171957818085L53.677903249084956,38.17885647515181L53.91861241481702,41.287409250710574L54.15932158054908,42.013825660731904L54.40003074628115,44.02490478892952L54.64073991201322,46.721197431923564L54.88144907774528,50.19028663763123L55.122158243477344,54.230502000958644L55.362867409209414,53.94165174966559L55.60357657494148,54.22191668683215L55.84428574067354,57.39753734107941L56.08499490640561,58.08605901347405L56.325704072137675,57.11142548788916L56.56641323786974,56.25038177803636L56.80712240360181,56.04072798361553L57.04783156933387,57.057776168779746L57.288540735065936,60.09500439127737L57.529249900798,58.79860982419176L57.76995906653007,58.34783209935729L58.010668232262134,60.4618472841698L58.2513773979942,61.011381887937105L58.49208656372627,58.952320064886806L58.73279572945833,59.33842354872827L58.973504895190395,63.02368804570425L59.214214060922465,64.13636093550467L59.45492322665453,66.2393138482563L59.69563239238659,68.4022431987337L59.93634155811866,67.75961503676243L60.177050723850726,65.95673194321108L60.41775988958279,67.88147273006085L60.65846905531485,68.5830513119636L60.899178221046924,67.49971436417613L61.13988738677899,70.61810737499553L61.38059655251105,70.13115234402353L61.62130571824312,72.9461127054868L61.862014883975185,75.73921029065102L62.10272404970725,79.79904417213419L62.343433215439326,76.56884348389218L62.58414238117139,76.16809844833622L62.824851546903446,76.56338776913441L63.06556071263552,76.28151237782248L63.30626987836759,76.95940094821583L63.54697904409965,74.64265901140858L63.787688209831714,76.24506235366738L64.02839737556378,79.88278602779336L64.26910654129584,82.11529511368161L64.50981570702791,82.44752289665902L64.75052487275998,83.45979458944197L64.99123403849204,85.30357916356732L65.23194320422411,87.42590892299542L65.47265236995618,88.6371434003624L65.71336153568824,89.33256020154363L65.9540707014203,90.58253923001513L66.19477986715238,90.66582174077926L66.43548903288443,88.56782431716033L66.6761981986165,87.77414482545443L66.91690736434856,86.04348606753167L67.15761653008065,85.74846409219181L67.3983256958127,85.12549806346665L67.63903486154477,85.15427057220484L67.87974402727684,83.95178424095076L68.1204531930089,84.9303941608358L68.36116235874097,86.08724593045821L68.60187152447304,86.47661712537645L68.8425806902051,85.777594619602L69.08328985593717,87.90954330548148L69.32399902166924,90.14727590009609L69.5647081874013,89.81414755744434L69.80541735313336,91.06646831938951L70.04612651886542,91.31948337253407L70.28683568459749,94.5348680545619L70.52754485032956,95.71239566292745L70.76825401606162,94.09617917584278L71.00896318179369,93.41476401729201L71.24967234752576,92.47118014352117L71.49038151325782,90.31164950971426L71.73109067898989,90.76655511557473L71.97179984472196,92.94465393956494L72.21250901045401,93.9691989059731L72.45321817618608,94.45471876079745L72.69392734191814,95.20131445306667L72.93463650765021,95.69946677363042L73.17534567338228,96.3343494238189L73.41605483911434,93.97026972040698L73.65676400484641,94.30887197828444L73.89747317057848,94.7573177174653L74.13818233631054,96.53078908258138L74.3788915020426,97.38563353925952L74.61960066777468,97.76854629168209L74.86030983350673,97.75069766689428L75.1010189992388,97.20799075712725L75.34172816497089,98.93747009970966L75.58243733070293,100.37690858981253L75.823146496435,98.51383835458806L76.06385566216709,98.93231609141053L76.30456482789913,99.74965784089815L76.54527399363121,96.81198757362361L76.78598315936328,96.3694325443319L77.02669232509534,96.74060446877891L77.26740149082741,99.118508797597L77.50811065655947,101.69766598648583L77.74881982229154,103.30593045803059L77.98952898802361,104.64805982857844L78.23023815375566,103.13047307462374L78.47094731948773,103.32697476325534L78.7116564852198,104.8340193985356L78.95236565095186,102.76244459491738L79.19307481668393,101.78853195788626L79.433783982416,102.52482072065311L79.67449314814806,105.09640953781482L79.91520231388013,106.33471056681913L80.1559114796122,106.268816424661L80.39662064534426,108.35411705423725L80.63732981107633,109.9227390392827L80.8780389768084,110.45262008739697L81.11874814254045,111.32526135457535L81.35945730827252,110.65827445034299L81.6001664740046,110.05875634440703L81.84087563973665,110.71861051790124L82.08158480546872,111.36271174049274L82.32229397120079,109.49659281783472L82.56300313693285,110.79397166533127L82.80371230266492,111.50310876364597L83.04442146839698,111.73558091373702L83.28513063412905,111.90843235472988L83.52583979986112,112.05401153083339L83.76654896559317,110.21471241293034L84.00725813132524,110.85589418894605L84.24796729705731,112.64333786743508L84.48867646278937,113.00575922560274L84.72938562852144,109.40345160341731L84.97009479425351,110.3971599992501L85.21080395998557,110.23385829861108L85.45151312571764,110.69056961476821L85.69222229144971,110.74014190445234L85.93293145718177,111.00360706754061L86.17364062291384,111.77888157044973L86.41434978864591,112.12274637979691L86.65505895437796,112.06562995808737L86.89576812011003,113.42380426350643L87.1364772858421,113.55947340278225L87.37718645157416,112.56689644621652L87.61789561730623,113.98161986177456L87.8586047830383,115.12885194107733L88.09931394877036,111.3682031526895L88.34002311450243,112.62728005105771L88.5807322802345,111.95517470943608L88.82144144596656,114.26394973128951L89.06215061169863,114.28188292782932L89.30285977743068,114.38057520186375L89.54356894316275,115.73797001295556L89.78427810889482,115.42946258012708L90.02498727462688,113.94519397743858L90.26569644035895,114.62962083029423L90.50640560609102,114.81724557616118L90.74711477182308,115.5754588047223L90.98782393755515,112.82868045172883L91.22853310328722,113.46545847949385L91.46924226901928,113.21864739236761L91.70995143475135,113.56017975609745L91.95066060048342,113.61412772507977L92.19136976621547,111.96764934513754L92.43207893194754,112.88591069521996L92.67278809767961,114.70132399803259L92.91349726341167,115.62140785245644L93.15420642914374,117.05600255388426L93.39491559487583,116.59458312719472L93.63562476060787,117.03040592935656L93.87633392633994,117.30676377284793L94.11704309207202,116.26947881235586L94.35775225780407,115.41080829208856L94.59846142353615,115.92033194454268L94.83917058926822,116.94732507365792L95.07987975500028,116.852077200596L95.32058892073235,116.68404807271466L95.5612980864644,117.82133285649905L95.80200725219647,116.4976879965843L96.04271641792855,115.75748838918373L96.2834255836606,115.00979588516368L96.52413474939267,115.44488076235402L96.76484391512474,116.33606434053429L97.0055530808568,116.28842305508255L97.24626224658887,115.89690138092847L97.48697141232094,113.301225904295L97.727680578053,114.22308906290331L97.96838974378507,115.73144071225744L98.20909890951714,115.9541145895119L98.4498080752492,117.09036620085408L98.69051724098126,117.80153978191572L98.93122640671334,117.84882434809258L99.17193557244539,114.30634216243237L99.41264473817746,116.21922013186997L99.65335390390953,113.07208047589229L99.89406306964159,113.31974753853676L100.13477223537366,114.60485974391592L100.37548140110573,115.87879334374388L100.61619056683779,113.87768457412533L100.85689973256986,113.70160976607677L101.09760889830191,113.30054178187889L101.33831806403398,113.60910129193016L101.57902722976606,113.34693198441902L101.81973639549811,113.6730650059121L102.06044556123018,115.64433236247618L102.30115472696225,116.25190752013825L102.54186389269431,116.5761030480549L102.78257305842638,114.75380052763526L103.02328222415845,113.98260403258202L103.2639913898905,114.58517124577857L103.50470055562258,114.30871178898742L103.74540972135465,115.43734285286543L103.9861188870867,116.6850687189987L104.22682805281877,117.13264092369916L104.46753721855085,117.62913554526986L104.7082463842829,118.53022937888554L104.94895555001497,119.08755912334482L105.18966471574704,118.27792231132072L105.4303738814791,118.46612293894907L105.67108304721117,118.8173509801616L105.91179221294324,117.57924320155325L106.1525013786753,117.91179144136845L106.39321054440737,117.95018814073488L106.63391971013944,117.9439403461904L106.8746288758715,117.62487457617208L107.11533804160356,118.75583371452473L107.35604720733562,119.1647053842878L107.59675637306769,118.94697590781152L107.83746553879976,118.62766875793915L108.07817470453182,118.28756935527986L108.31888387026389,117.93914353213025L108.55959303599596,118.41978995436713L108.80030220172802,117.55579076755382L109.04101136746009,117.3690127116348L109.28172053319216,116.71651478460801L109.52242969892421,115.18671709060884L109.76313886465628,116.80521572124394L110.00384803038835,118.5825537830369L110.24455719612041,118.2026855585867L110.48526636185248,117.37209219794855L110.72597552758455,117.57740961651793L110.96668469331661,118.47116292078364L111.20739385904868,118.99276409692735L111.44810302478076,116.91664022763162L111.6888121905128,117.79841472145577L111.92952135624488,118.02752454066231L112.17023052197696,118.8299590933274L112.410939687709,118.66875653708172L112.65164885344109,119.11872622456693L112.89235801917316,117.55649818134476L113.13306718490522,118.61068030185427L113.37377635063729,118.92402736193502L113.61448551636934,118.90555931515811L113.85519468210141,116.90100757879864L114.09590384783348,117.4247596171791L114.33661301356554,117.15647746715138L114.57732217929761,118.70124086714355L114.81803134502968,120.33195441134954L115.05874051076174,121.4261375320291L115.29944967649381,121.18757923961425L115.54015884222588,117.23237037640685L115.78086800795793,118.8552365436458L116.02157717369,119.16481362065515L116.26228633942208,119.03387887061267L116.50299550515413,120.8345434048416L116.7437046708862,120.42900542848243L116.98441383661827,121.81835825848216L117.22512300235033,121.76267956522157L117.4658321680824,121.28925012780213L117.70654133381447,119.89618643126816L117.94725049954653,119.74047546422074L118.1879596652786,118.67344347124178L118.42866883101067,117.72776377210667L118.66937799674272,117.68354450564263L118.9100871624748,117.94346610166387L119.15079632820685,118.96321434953563L119.39150549393892,118.30521836947842L119.63221465967099,117.98753627504657L119.87292382540305,119.74345900555102L120.11363299113512,120.74139148143381L120.35434215686719,121.58023460076788L120.59505132259925,119.34777523985053L120.83576048833132,120.89527863918929L121.07646965406339,120.92876451555203L121.31717881979544,121.0960453622703L121.55788798552751,122.09589803279314L121.79859715125959,123.07319627843007L122.03930631699164,122.37033599189797L122.28001548272371,123.91084279413676L122.52072464845578,122.77149190423962L122.76143381418784,123.93747948829018L123.00214297991991,122.60247059786043L123.24285214565198,121.9867261244321L123.48356131138404,121.84860013421029L123.72427047711611,123.14135547239124L123.96497964284818,121.20273970513527L124.20568880858023,121.912052378371L124.4463979743123,122.58480339247288L124.68710714004438,123.08397798753737L124.92781630577643,122.4356632816075L125.1685254715085,121.47872668290425L125.40923463724056,123.31241163624244L125.64994380297263,123.92306063536151L125.8906529687047,123.7145855022855L126.13136213443676,123.18229137810555L126.37207130016883,123.53943643162361L126.6127804659009,122.05550462337784L126.85348963163295,122.88009868311524L127.09419879736502,122.6071440646294L127.3349079630971,122.72799524954868L127.57561712882915,121.4413527788531L127.81632629456122,120.34127746393776L128.0570354602933,119.16661851562463L128.29774462602535,117.93596130507777L128.53845379175743,118.5223390960035L128.7791629574895,119.86195561599745L129.01987212322155,121.57212732244271L129.26058128895363,123.16699846546359L129.5012904546857,123.44934214780028L129.74199962041774,122.41597508463587L129.98270878614983,122.26706754466635L130.22341795188188,121.46776019688399L130.46412711761394,122.04325118998312L130.70483628334603,121.24644879418253L130.94554544907808,121.47426033630383L131.18625461481014,121.34566412946228L131.42696378054222,121.67366849629829L131.66767294627428,122.40534050892883L131.90838211200634,121.1925819125267L132.14909127773842,121.83105947363923L132.38980044347048,121.91445021444838L132.63050960920253,122.91729193657856L132.87121877493462,121.84755265816914L133.11192794066667,120.61669103402015L133.35263710639873,121.3295455158218L133.59334627213082,122.6841390971524L133.83405543786287,124.13552839671182L134.07476460359493,123.89168642861037L134.315473769327,124.25800477038362L134.55618293505907,123.46392190111231L134.79689210079113,123.79383978356339L135.0376012665232,123.0647505588934L135.27831043225527,123.23440397922552L135.51901959798732,123.28592420285945L135.7597287637194,123.50783940810634L136.00043792945146,124.50833668542978L136.24114709518352,124.41732049519702L136.4818562609156,122.81726855216196L136.72256542664766,123.5678790785567L136.96327459237972,123.29308281971696L137.20398375811178,123.38821183771279L137.44469292384386,123.33783304786317L137.68540208957592,124.15546812835085L137.92611125530797,123.67587265724717L138.16682042104006,123.15378752444761L138.4075295867721,122.8773776291586L138.64823875250417,123.49298629381698L138.88894791823625,123.89198707908321L139.12965708396834,124.45699882143767L139.37036624970037,123.5164712251171L139.61107541543245,123.26122631232587L139.85178458116454,123.78228559563301L140.09249374689657,122.17949919354777L140.33320291262865,123.30004358006806L140.57391207836073,122.54098921471316L140.8146212440928,122.46492232854857L141.05533040982485,122.65839634739216L141.29603957555693,123.38100666196299L141.536748741289,122.20974355907572L141.77745790702105,123.0114315038367L142.01816707275313,123.46585807136303L142.2588762384852,123.79454566295166L142.49958540421724,124.95054158293837L142.74029456994933,124.38930016892266L142.98100373568138,124.19501028395511L143.22171290141344,125.7378000671688L143.4624220671455,125.35836148663216L143.70313123287758,125.32887645819403L143.94384039860964,125.70789079358379L144.1845495643417,124.00972157554409L144.42525873007378,123.7084437316048L144.66596789580584,124.9709247409408L144.90667706153792,124.97819163435244L145.14738622726998,125.90432869564292L145.38809539300203,126.94709348896092L145.6288045587341,125.593953233709L145.86951372446617,124.24970499563526L146.11022289019823,124.38748633070621L146.35093205593031,123.9771727067763L146.59164122166234,123.13661350589527L146.83235038739443,121.27847680097487L147.07305955312648,122.73100553394362L147.31376871885857,123.41445827432808L147.55447788459063,124.49484463221272L147.7951870503227,123.59601241825527L148.03589621605474,124.43334039030252L148.27660538178682,124.31112202099507L148.51731454751888,124.04419201821841L148.75802371325096,123.89955308953917L148.99873287898302,124.72148395885138L149.2394420447151,123.85623977155727L149.48015121044713,123.50464283849999L149.72086037617922,123.55551620258159L149.96156954191127,125.60719757383706L150.20227870764336,125.18569313398108L150.44298787337542,125.33871556971341L150.6836970391075,124.1597336642047L150.92440620483953,122.54120612407648L151.1651153705716,123.26643174996205L151.40582453630367,124.27219233395606L151.64653370203575,123.23351520967674L151.8872428677678,123.13270074526201L152.1279520334999,123.18962295694102L152.36866119923192,123.22771988376161L152.609370364964,124.00200335324541L152.85007953069606,124.58307450849078L153.09078869642815,125.02819581917329L153.3314978621602,125.52428418370687L153.57220702789226,125.70058773083703L153.81291619362432,126.4450244220897L154.0536253593564,126.79819109198698L154.29433452508846,126.03428381675857L154.53504369082054,127.03402167892622L154.7757528565526,125.67933909443293L155.01646202228466,125.14877033609854L155.2571711880167,125.48214872192533L155.4978803537488,125.44717914108918L155.73858951948085,124.60896390167039L155.97929868521294,124.45590656136383L156.22000785094502,126.0460732446047L156.46071701667705,125.18001587721295L156.7014261824091,126.15255557404261L156.9421353481412,125.95194003679084L157.18284451387328,126.7319887337899L157.42355367960533,126.08664551820367L157.66426284533742,126.06024970173323L157.90497201106945,126.95973029986393L158.1456811768015,125.71570265224965L158.3863903425336,125.03117776607914L158.62709950826567,124.36485815267591L158.86780867399773,125.05153936770407L159.10851783972976,124.95744413272242L159.34922700546184,124.53536747850588L159.58993617119393,124.39050362416474L159.83064533692598,123.92892036695491L160.07135450265807,123.38651337434919L160.31206366839012,124.50798371377128L160.55277283412218,123.64576586084776L160.79348199985424,123.728011037939L161.03419116558632,123.94165663199637L161.27490033131838,123.44741591073674L161.51560949705046,124.88550367403207L161.75631866278252,124.3822856109563L161.99702782851458,125.3775890503407L162.23773699424663,125.37252016024465L162.47844615997872,123.65716481262375L162.71915532571077,124.44704331874627L162.95986449144286,125.1031926685399L163.2005736571749,126.50717018124084L163.44128282290697,125.72122386288802L163.68199198863903,127.23972404001796L163.9227011543711,126.47648385043219L164.16341032010317,126.97835867165179L164.40411948583525,127.35823469882867L164.64482865156728,128.5499351671774L164.88553781729937,128.44289252405198L165.12624698303142,127.94355310868092L165.3669561487635,128.89998755561587L165.60766531449556,127.57387571660205L165.84837448022765,127.11656795817441L166.08908364595968,127.73712863343782L166.32979281169176,127.06122468023729L166.57050197742382,125.7736247840826L166.8112111431559,126.4579894351425L167.05192030888796,127.46216618607458L167.29262947462004,125.81069861039913L167.53333864035207,125.24149619528431L167.77404780608416,124.43998052547475L168.0147569718162,125.26503664986299L168.2554661375483,125.57458587659389L168.49617530328035,125.85140233787499L168.73688446901244,126.24422200981492L168.97759363474447,126.6431926383626L169.21830280047655,125.48520657012897L169.4590119662086,127.05029003936112L169.6997211319407,125.85905614124951L169.94043029767275,124.27396042321094L170.18113946340483,123.49603669448197L170.42184862913686,125.09052483836668L170.66255779486895,124.10911522215036L170.903266960601,124.9951655746484L171.1439761263331,124.33677404432179L171.38468529206514,124.5944678252268L171.6253944577972,125.56723904663332L171.86610362352926,124.31158608362347L172.10681278926134,125.80461066557248L172.3475219549934,125.13439076502978L172.58823112072548,125.84755805779788L172.82894028645754,126.30967016646382L173.0696494521896,126.74132452909913L173.31035861792165,127.20177416367949L173.55106778365374,128.10013019792592L173.7917769493858,126.5095049511056L174.03248611511788,126.20133548085401L174.27319528084996,127.28710914716208L174.513904446582,127.6910236165566L174.75461361231405,127.29946552066441L174.99532277804613,126.99196068429544L175.23603194377822,127.57378047628409L175.47674110951027,126.56843631551249L175.71745027524236,127.66378510096204L175.95815944097438,127.12442160809937L176.19886860670644,125.72344858602833L176.43957777243853,124.2708356928667L176.6802869381706,124.49229438203326L176.92099610390267,124.79039995035399L177.1617052696347,126.1572154743527L177.40241443536678,127.12510516769247L177.64312360109886,127.03497687869123L177.88383276683092,126.84545414158235L178.124541932563,126.90292905468108L178.36525109829506,126.25641711510677L178.60596026402712,126.5931024677328L178.84666942975917,127.23974562035012L179.08737859549126,126.33232261654273L179.32808776122332,125.2576104553844L179.5687969269554,126.8452115550584L179.80950609268746,127.51520036128504L180.0502152584195,126.77880694993983L180.29092442415157,128.47485025723915L180.53163358988365,127.57263699060707L180.7723427556157,129.15250521196333L181.0130519213478,127.40936608057334L181.25376108707985,125.5098398775441L181.4944702528119,126.65686805068036L181.73517941854396,125.99855063152707L181.97588858427605,126.38759035953208L182.2165977500081,126.10038885006931L182.4573069157402,126.87056346907572L182.69801608147222,127.2170350821817L182.9387252472043,126.32016375673696L183.17943441293636,126.60032703947955L183.42014357866844,127.1473176281808L183.6608527444005,126.68397300968863L183.90156191013259,127.65996277553222L184.1422710758646,128.16268788945337L184.3829802415967,128.94305710725968L184.62368940732875,129.2838155374074L184.86439857306084,129.7195383764037L185.1051077387929,128.1859149377395L185.34581690452498,127.94334968799588L185.586526070257,127.96097788999838L185.8272352359891,129.19503100873504L186.06794440172115,127.64258025503015L186.30865356745323,128.5453484833565L186.5493627331853,129.04512695310825L186.79007189891738,128.72672576316685L187.0307810646494,127.93633421184033L187.2714902303815,128.32859022448713L187.51219939611354,129.01946701475836L187.75290856184563,128.732920788649L187.99361772757769,128.91735099784486L188.23432689330977,127.94428326261735L188.4750360590418,127.00605402525295L188.71574522477388,126.71265303046914L188.95645439050594,125.50924802365195L189.19716355623802,123.66248001645884L189.43787272197008,120.37770809790106L189.67858188770214,119.44478121744044L189.9192910534342,118.55840759159483L190.16000021916628,120.1916092335174L190.40070938489833,119.39280361487734L190.64141855063042,119.24592798782513L190.88212771636248,118.24542825895928L191.12283688209453,118.66567696085548L191.3635460478266,116.33445802678804L191.60425521355867,115.29804142438718L191.84496437929073,113.2744013478923L192.08567354502281,113.28827552582567L192.3263827107549,113.63408459086016L192.56709187648693,113.89015817700856L192.80780104221898,115.21109645951249L193.04851020795107,115.11705913845611L193.28921937368315,116.29835464593047L193.5299285394152,116.38752555044547L193.7706377051473,116.7067402247401L194.01134687087932,116.91936012977192L194.25205603661138,117.15083058973131L194.49276520234346,118.58980836311251L194.73347436807555,118.68817777002573L194.9741835338076,119.31544920843425L195.21489269953963,119.1141947035499L195.45560186527172,119.96225580715344L195.6963110310038,120.54118703027228L195.93702019673586,120.09421907357097L196.17772936246794,120.7376795883021L196.4184385282,121.474247008419L196.65914769393206,121.98778635866339L196.8998568596641,121.90907322592571L197.1405660253962,121.04854441325514L197.38127519112825,122.24711964278862L197.62198435686034,122.00857815182833L197.8626935225924,123.28211962864923L198.10340268832445,123.49151048223197L198.3441118540565,123.39567146481444L198.5848210197886,125.3869497040189L198.82553018552065,126.2626756921332L199.06623935125273,125.15467942462443L199.3069485169848,124.69787067085707L199.54765768271685,125.01577356840875L199.7883668484489,124.34564020663645L200.029076014181,122.54800293615331L200.26978517991304,123.99291259371932L200.51049434564513,124.15648084073997L200.75120351137716,125.12061856597535L200.99191267710924,125.4041795747704L201.2326218428413,125.2155950069492L201.47333100857338,124.69697750211205L201.71404017430544,124.71166020975852L201.95474934003752,124.12018921779598L202.19545850576955,124.37135413374077L202.43616767150164,124.32999538822192L202.6768768372337,124.7397018474034L202.91758600296578,125.79157697987937L203.15829516869783,126.99472112634923L203.39900433442992,126.49691807057117L203.63971350016195,126.3789358122442L203.88042266589403,126.09786027142884L204.1211318316261,126.65409159039615L204.36184099735817,127.3517307633165L204.60255016309023,128.12464797297477L204.8432593288223,128.8563624881019L205.08396849455434,126.18502680702731L205.32467766028643,128.04931973710913L205.56538682601848,128.6522197432768L205.80609599175057,128.81021733235676L206.04680515748262,128.7321079139618L206.2875143232147,129.72454660743003L206.52822348894674,130.03883981142195L206.76893265467882,130.25210699846616L207.00964182041088,129.32208505743642L207.25035098614296,128.8735604571464L207.49106015187502,129.0715147436162L207.73176931760707,129.56288368885527L207.97247848333913,129.6727406279292L208.21318764907122,128.68236075081475L208.45389681480327,129.03840917040586L208.69460598053536,128.20583422997692L208.9353151462674,126.29324818303986L209.17602431199947,126.82021640983521L209.41673347773153,127.32554156385865L209.6574426434636,128.17364299684886L209.89815180919567,127.88259610552376L210.13886097492775,126.74051489118605L210.37957014065984,128.10805887010565L210.62027930639186,129.45396632240988L210.86098847212392,129.13625052459383L211.101697637856,128.69521530629282L211.3424068035881,129.47770402381263L211.58311596932015,129.41571867864644L211.82382513505223,128.46438644224818L212.06453430078426,128.462652684971L212.30524346651632,128.1237299838318L212.5459526322484,128.86692390319973L212.78666179798049,127.63226441187817L213.02737096371254,126.06093208787148L213.26808012944457,124.95832078095236L213.50878929517665,126.34894198021561L213.74949846090874,126.40383302264284L213.9902076266408,126.98444698704778L214.23091679237288,126.6612697939015L214.47162595810494,126.52311809200778L214.712335123837,127.55808727810314L214.95304428956905,128.5846352276544L215.19375345530113,128.22299019792214L215.4344626210332,127.46235306185909L215.67517178676528,127.58857082952728L215.91588095249733,128.08199453405464L216.1565901182294,128.47777288278752L216.39729928396144,128.750779497898L216.63800844969353,129.49015809893245L216.8787176154256,129.904800749097L217.11942678115767,127.79438254158758L217.36013594688973,127.30507494051481L217.60084511262178,127.11187116684073L217.84155427835384,125.29167156490196L218.08226344408592,125.26551716697787L218.32297260981798,125.19083010641955L218.56368177555007,124.08103818493821L218.8043909412821,125.21679391426777L219.04510010701418,125.31943233561766L219.28580927274623,126.49674316418945L219.52651843847832,124.85291656599816L219.76722760421038,124.97480558840098L220.00793676994246,126.14973494335266L220.2486459356745,127.56843306792238L220.48935510140657,128.6625960869277L220.73006426713863,129.2710027816833L220.97077343287071,129.6442915712573L221.21148259860277,130.29357995782453L221.45219176433486,130.25476192839116L221.69290093006688,129.0466789333059L221.93361009579897,127.99645734516115L222.17431926153102,126.33220243449318L222.4150284272631,125.82813866048727L222.65573759299517,126.53055203109777L222.89644675872725,125.40329252309841L223.13715592445928,125.24258189916097L223.37786509019136,126.13008202334065L223.61857425592342,126.56414731828058L223.8592834216555,126.70767506802389L224.09999258738756,127.9704938884188L224.34070175311965,127.01387122458001L224.58141091885167,128.04593711094842L224.82212008458376,128.53765578661412L225.06282925031581,129.30028306664852L225.3035384160479,128.37370366352962L225.54424758177996,128.8795536806949L225.784956747512,127.9930313631441L226.02566591324407,128.06885415423002L226.26637507897615,127.51274896136279L226.5070842447082,128.9284904218551L226.7477934104403,128.12116751987432L226.98850257617235,128.60135015577052L227.2292117419044,129.2643159400106L227.46992090763646,129.76187402457504L227.71063007336855,129.5914049383872L227.9513392391006,128.80048613474477L228.1920484048327,128.94390845887517L228.43275757056477,128.01094920592124L228.6734667362968,126.75085339379336L228.91417590202886,126.2679526335027L229.15488506776094,126.1793242397074L229.39559423349303,125.30161384557496L229.63630339922508,125.48750271340928L229.87701256495717,125.98051128057767L230.1177217306892,125.79616656191651L230.35843089642125,126.81693270476346L230.59914006215334,126.96835454628003L230.83984922788542,126.92177144857324L231.08055839361748,126.51897901900777L231.3212675593495,126.33026487167572L231.5619767250816,126.60898575256081L231.80268589081368,125.8848427926305L232.04339505654573,126.85252843624046L232.28410422227782,126.48399081853064L232.52481338800987,127.22983043839814L232.76552255374193,127.90552157983686L233.006231719474,126.95439209687243L233.24694088520607,127.32542393643358L233.48765005093813,127.88828811135693L233.7283592166702,129.7895885907505L233.96906838240227,131.11048555472166L234.20977754813433,128.73679032835005L234.45048671386638,128.1620288717045L234.69119587959847,127.11476809565549L234.93190504533052,126.85935620929224L235.1726142110626,128.04677837721076L235.41332337679466,126.19330468307663L235.65403254252672,126.677923525437L235.89474170825878,126.78325077099913L236.13545087399086,127.04747632506188L236.37616003972292,125.35171482023293L236.616869205455,125.85572622670905L236.85757837118703,126.72076880289073L237.09828753691912,126.4718871734382L237.33899670265117,127.20060092291764L237.57970586838326,126.41241354420116L237.8204150341153,127.67464090211526L238.0611241998474,128.57107553234405L238.30183336557943,128.92991754703166L238.5425425313115,129.64270251255724L238.78325169704357,128.1129652757174L239.02396086277565,128.52650999762912L239.2646700285077,128.08596611500786L239.5053791942398,128.4454928718384L239.74608835997182,126.55317723777011L239.9867975257039,125.97958907291046L240.22750669143596,126.18283226394018L240.46821585716805,126.89466870602787L240.7089250229001,127.45427948439865L240.9496341886322,125.66815011332169L241.19034335436422,125.79686529427454L241.4310525200963,125.46205074001585L241.67176168582836,126.13358034661697L241.91247085156044,126.32838707613303L242.1531800172925,126.49671701475913L242.39388918302458,126.67856173550923L242.6345983487566,126.97837426741631L242.8753075144887,126.89616581184262L243.11601668022075,126.63909328846461L243.35672584595284,127.45043741490447L243.5974350116849,127.03597999419542L243.83814417741695,126.80888304009521L244.078853343149,126.94080143832338L244.3195625088811,127.66114977316509L244.56027167461315,128.1101064596395L244.80098084034523,128.1665285676996L245.0416900060773,128.5292257375461L245.28239917180935,129.30090903774618L245.5231083375414,129.23556905902447L245.7638175032735,127.1636659420183L246.00452666900554,127.66596838604761L246.24523583473763,127.84896087690974L246.4859450004697,128.03082831352398L246.72665416620174,128.69312417284917L246.9673633319338,128.61094549974348L247.20807249766588,128.95981982632526L247.44878166339797,128.4142426536486L247.68949082913002,128.49640020965563L247.9301999948621,128.92518270382894L248.17090916059414,129.77029638064624L248.4116183263262,129.91066205876893L248.65232749205828,129.03470300316823L248.89303665779036,129.70244870940138L249.13374582352242,130.74575188502558L249.37445498925445,131.1072093492819L249.61516415498653,130.35739864951026L249.85587332071862,129.39590142971448L250.09658248645067,128.72246335902935L250.33729165218276,128.11800066601728L250.5780008179148,127.85816354616102L250.81870998364687,127.76479867342621L251.05941914937893,129.4465013112606L251.300128315111,130.71101523562413L251.54083748084307,130.39033580304186L251.78154664657515,129.58531758790704L252.0222558123072,129.2930648136271L252.26296497803926,128.5207818054554L252.50367414377132,128.08452057951698L252.7443833095034,128.84169144660507L252.98509247523546,129.5448508616047L253.22580164096755,129.0714567447392L253.4665108066996,128.7266261757813L253.70721997243166,127.57919688448455L253.94792913816372,127.17700134798689L254.1886383038958,127.7835524828324L254.42934746962786,125.90486863335356L254.67005663535994,127.16800635315766L254.91076580109197,128.30502394043882L255.15147496682405,129.3992732265147L255.3921841325561,127.44595104458055L255.6328932982882,128.47775020939784L255.87360246402025,127.40900333610276L256.1143116297523,127.77954790154129L256.3550207954844,127.70062501934171L256.5957299612164,128.69475810254266L256.8364391269485,128.98808544562527L257.0771482926806,128.60231332508363L257.3178574584127,127.93303438452735L257.5585666241447,128.1198722465878L257.7992757898768,128.52645022670472L258.0399849556088,129.04236894650165L258.2806941213409,129.40481423613568L258.521403287073,128.78148509831317L258.76211245280507,128.62552091762979L259.0028216185371,128.17934898426327L259.2435307842692,127.72308202199837L259.4842399500012,128.45018503451556L259.7249491157333,129.08222180358422L259.9656582814654,129.21550266657883L260.20636744719747,129.25788411813411L260.4470766129295,127.75699434372973L260.6877857786616,127.84989237937235L260.9284949443936,124.86296219458397L261.1692041101257,125.68799251710288L261.4099132758578,125.63927893082194L261.65062244158986,125.71409647913565L261.8913316073219,126.3993777958592L262.132040773054,127.4098435852194L262.372749938786,127.85360838882227L262.6134591045181,129.0736696630186L262.85416827025017,128.8187398642555L263.09487743598226,128.93055236795448L263.3355866017143,127.59963834658517L263.57629576744637,127.88273439170672L263.8170049331784,129.37480253251502L264.0577140989105,128.9874154389127L264.29842326464257,129.45330704543528L264.53913243037465,127.88959697920923L264.7798415961067,128.99201778317487" fill="none"></path></g></g></g></g><g opacity="0.2"><g><g><g><path style="fill: none;" stroke="rgb(0, 153, 136)" stroke-width="2px" d="M24.311385029772914,151.1412795861753L24.552094195504985,150.42882746790715L24.792803361237052,149.0637542202653L25.033512526969115,146.92045141572348L25.274221692701182,145.89572596553072L25.514930858433246,143.99772935531692L25.755640024165313,140.07877158308958L25.99634918989738,139.14878079260222L26.237058355629443,136.8857352895065L26.47776752136151,133.0952479229865L26.718476687093574,132.29111800790224L26.95918585282564,131.98648000622117L27.199895018557708,125.27757825314364L27.44060418428977,128.0264977999009L27.68131335002184,123.34370024034924L27.922022515753905,117.72790248545635L28.16273168148597,116.65512616534133L28.403440847218036,115.14724398987686L28.6441500129501,111.13864358259454L28.88485917868217,111.56091880618446L29.125568344414237,105.90366498365944L29.3662775101463,103.02578084207035L29.606986675878368,106.40646945590724L29.84769584161043,95.39470004752975L30.088405007342498,99.56010902189607L30.329114173074565,97.91771886434091L30.56982333880663,87.82479284113498L30.810532504538696,86.0153157526201L31.051241670270763,85.14673626150305L31.291950836002826,73.33577209253141L31.532660001734893,68.74563186605357L31.773369167466956,59.259140860239576L32.01407833319902,51.0381512715724L32.254787498931094,26.47594126814901L32.49549666466316,57.074853801538445L32.73620583039522,47.56822182201739L32.976914996127284,50.28942443248051L33.217624161859355,49.570770469267735L33.45833332759142,47.222676317068355L33.69904249332348,23.712778295796184L33.93975165905555,20.919419261180696L34.180460824787616,29.023990018263582L34.42116999051968,47.236480891172626L34.66187915625175,40.97376984317492L34.902588321983814,14.287433931106596L35.14329748771588,31.125503526381877L35.38400665344795,5.447132498394174L35.62471581918001,37.661518964537585L35.86542498491208,24.918888477783888L36.106134150644145,-2.8413555292981325L36.346843316376216,13.657412570843263L36.58755248210828,21.25108320053576L36.82826164784034,-3.5923921130812233L37.068970813572406,11.553897283992603L37.30967997930448,6.192394720449308L37.55038914503654,13.542787640969118L37.791098310768604,16.78891822824704L38.031807476500674,28.741746916150724L38.27251664223274,17.602471901671294L38.5132258079648,24.689238262289145L38.75393497369687,37.950691300723946L38.994644139428935,17.72421084519426L39.235353305161,30.305644249950703L39.47606247089306,38.19762610565767L39.71677163662513,9.099624168339822L39.957480802357196,29.8229999992824L40.19818996808926,6.768676020897944L40.43889913382133,27.707258463866438L40.679608299553394,11.365406718894615L40.92031746528546,-6.991612578490342L41.16102663101753,22.394568504796695L41.40173579674959,18.869274474994164L41.642444962481655,-26.118515976338383L41.883154128213725,22.283069429404602L42.12386329394579,26.550646110610643L42.36457245967785,2.890753269093438L42.605281625409916,17.51993702470658L42.845990791141986,13.399752851393501L43.08669995687405,9.43850990942928L43.32740912260611,9.908650742169366L43.568118288338184,20.83733093485628L43.80882745407025,26.451866029317983L44.04953661980231,-5.5174719233894916L44.29024578553439,19.372090495965434L44.53095495126645,25.81996607670581L44.77166411699851,5.146911883435016L45.012373282730586,12.519539946181887L45.25308244846265,14.462928332742214L45.49379161419471,16.7436626305979L45.734500779926776,0.037772024849707854L45.97520994565885,22.802800480664256L46.21591911139091,21.1821450206531L46.456628277122974,24.927934977824336L46.697337442855044,25.6196265213421L46.93804660858711,18.524383397707638L47.17875577431917,12.448569190970979L47.41946494005124,30.06388327312523L47.660174105783305,13.216559300787289L47.90088327151537,17.256626129912405L48.14159243724744,19.520376105138986L48.3823016029795,32.06682457697308L48.623010768711566,18.094709291956963L48.86371993444363,-2.108519733681548L49.1044291001757,15.403856726735912L49.345138265907764,21.867415473929398L49.58584743163983,37.30880555189692L49.8265565973719,10.422060792124164L50.06726576310396,31.84405740065803L50.307974928836025,33.84022345341177L50.548684094568095,11.296622521991385L50.78939326030016,46.217929677257445L51.03010242603222,37.175741160238225L51.27081159176429,47.89484281879671L51.511520757496356,50.236361897775204L51.75222992322842,48.382245143528856L51.99293908896048,31.756240907499492L52.233648254692554,40.07420127745122L52.47435742042462,48.77377766527921L52.71506658615668,33.997848130286656L52.95577575188875,24.216864676347598L53.196484917620815,5.497099975213318L53.43719408335288,56.22188048538478L53.677903249084956,50.64740406301705L53.91861241481702,53.721620352930664L54.15932158054908,44.91949130081443L54.40003074628115,52.06922130171375L54.64073991201322,57.50636800389309L54.88144907774528,64.06664346045511L55.122158243477344,70.39136345426193L55.362867409209414,52.78625074449374L55.60357657494148,55.342976435498144L55.84428574067354,70.10001995806586L56.08499490640561,60.8401457030522L56.325704072137675,53.21289138554998L56.56641323786974,52.80620693862551L56.80712240360181,55.20211280593224L57.04783156933387,61.125968909436374L57.288540735065936,72.24391728126727L57.529249900798,53.613031555849474L57.76995906653007,56.544721200019545L58.010668232262134,68.91790802341949L58.2513773979942,63.20952030300628L58.49208656372627,50.71607277268574L58.73279572945833,60.88283748409411L58.973504895190395,77.76474603360793L59.214214060922465,68.58705249470634L59.45492322665453,74.65112549926282L59.69563239238659,77.05396060064311L59.93634155811866,65.18910238887737L60.177050723850726,58.74519956900581L60.41775988958279,75.5804358774599L60.65846905531485,71.38936563957462L60.899178221046924,63.166366573026124L61.13988738677899,83.09167941827326L61.38059655251105,68.18333222013554L61.62130571824312,84.2059541513398L61.862014883975185,86.91160063130782L62.10272404970725,96.0383796980669L62.343433215439326,63.64804073092415L62.58414238117139,74.56511830611237L62.824851546903446,78.1445450523271L63.06556071263552,75.15401081257482L63.30626987836759,79.6709552297893L63.54697904409965,65.3756912641796L63.787688209831714,82.6546757227026L64.02839737556378,94.43368072429729L64.26910654129584,91.04533145723465L64.50981570702791,83.77643402856853L64.75052487275998,87.50888136057374L64.99123403849204,92.6787174600687L65.23194320422411,95.91522796070785L65.47265236995618,93.48208130983036L65.71336153568824,92.1142274062685L65.9540707014203,95.58245534390102L66.19477986715238,90.99895178383584L66.43548903288443,80.17583462268468L66.6761981986165,84.59942685863074L66.91690736434856,79.12085103584066L67.15761653008065,84.56837619083234L67.3983256958127,82.63363394856599L67.63903486154477,85.26936060715762L67.87974402727684,79.14183891593449L68.1204531930089,88.84483384037597L68.36116235874097,90.71465300894785L68.60187152447304,88.03410190504941L68.8425806902051,82.98150459650414L69.08328985593717,96.43733804899941L69.32399902166924,99.0982062785545L69.5647081874013,88.48163418683737L69.80541735313336,96.07575136717016L70.04612651886542,92.33154358511237L70.28683568459749,107.39640678267321L70.52754485032956,100.42250609638972L70.76825401606162,87.63131322750405L71.00896318179369,90.68910338308892L71.24967234752576,88.69684464843779L71.49038151325782,81.67352697448656L71.73109067898989,92.58617753901669L71.97179984472196,101.65704923552583L72.21250901045401,98.06737877160573L72.45321817618608,96.39679818009478L72.69392734191814,98.18769722214361L72.93463650765021,97.69207605588537L73.17534567338228,98.87388002457291L73.41605483911434,84.51395090675925L73.65676400484641,95.66328100979428L73.89747317057848,96.55110067418885L74.13818233631054,103.6246745430456L74.3788915020426,100.80501136597208L74.61960066777468,99.30019730137242L74.86030983350673,97.67930316774314L75.1010189992388,95.03716311805903L75.34172816497089,105.85538747003936L75.58243733070293,106.13466255022404L75.823146496435,91.06155741369017L76.06385566216709,100.60622703870042L76.30456482789913,103.01902483884865L76.54527399363121,85.06130650452538L76.78598315936328,94.59921242716499L77.02669232509534,98.225292166567L77.26740149082741,108.63012611286946L77.50811065655947,112.01429474204109L77.74881982229154,109.73898834420966L77.98952898802361,110.0165773107698L78.23023815375566,97.06012605880488L78.47094731948773,104.11298151778176L78.7116564852198,110.86219793965657L78.95236565095186,94.47614538044459L79.19307481668393,97.8928814097618L79.433783982416,105.46997577172061L79.67449314814806,115.38276480646168L79.91520231388013,111.28791468283633L80.1559114796122,106.00523985602842L80.39662064534426,116.69531957254227L80.63732981107633,116.19722697946446L80.8780389768084,112.57214427985414L81.11874814254045,114.81582642328887L81.35945730827252,107.99032683341349L81.6001664740046,107.6606839206632L81.84087563973665,113.3580272118781L82.08158480546872,113.93911663085885L82.32229397120079,102.0321171272026L82.56300313693285,115.98348705531745L82.80371230266492,114.3396571569048L83.04442146839698,112.66546951410115L83.28513063412905,112.59983811870134L83.52583979986112,112.63632823524743L83.76654896559317,102.85751594131811L84.00725813132524,113.42062129300898L84.24796729705731,119.79311258139107L84.48867646278937,114.4554446582735L84.72938562852144,94.99422111467557L84.97009479425351,114.37199358258128L85.21080395998557,109.58065149605501L85.45151312571764,112.51741487939671L85.69222229144971,110.93843106318884L85.93293145718177,112.05746771989368L86.17364062291384,114.87997958208629L86.41434978864591,113.4982056171856L86.65505895437796,111.83716427124924L86.89576812011003,118.85650148518265L87.1364772858421,114.10214995988557L87.37718645157416,108.59658861995358L87.61789561730623,119.64051352400675L87.8586047830383,119.71778025828836L88.09931394877036,96.32560799913821L88.34002311450243,117.66358764453052L88.5807322802345,109.26675334294957L88.82144144596656,123.4990498187033L89.06215061169863,114.35361571398849L89.30285977743068,114.7753442980015L89.54356894316275,121.16754925732279L89.78427810889482,114.19543284881323L90.02498727462688,108.00811956668451L90.26569644035895,117.36732824171672L90.50640560609102,115.56774455962908L90.74711477182308,118.60831171896672L90.98782393755515,101.84156703975498L91.22853310328722,116.01257059055385L91.46924226901928,112.23140304386276L91.70995143475135,114.92630921101683L91.95066060048342,113.82991960100898L92.19136976621547,105.38173582536868L92.43207893194754,116.55895609554969L92.67278809767961,121.96297720928304L92.91349726341167,119.30174327015183L93.15420642914374,122.7943813595956L93.39491559487583,114.7489054204365L93.63562476060787,118.77369713800397L93.87633392633994,118.41219514681337L94.11704309207202,112.12033897038751L94.35775225780407,111.97612621101938L94.59846142353615,117.95842655435925L94.83917058926822,121.05529759011884L95.07987975500028,116.47108570834834L95.32058892073235,116.0119315611893L95.5612980864644,122.37047199163668L95.80200725219647,111.20310855692529L96.04271641792855,112.79668995958139L96.2834255836606,112.01902586908352L96.52413474939267,117.18522027111537L96.76484391512474,119.90079865325546L97.0055530808568,116.09785791327556L97.24626224658887,114.33081468431209L97.48697141232094,102.91852399776106L97.727680578053,117.91054169733668L97.96838974378507,121.76484730967388L98.20909890951714,116.84481009852973L98.4498080752492,121.63537264622273L98.69051724098126,120.64623410616244L98.93122640671334,118.03796261279994L99.17193557244539,100.1364134197916L99.41264473817746,123.87073200962024L99.65335390390953,100.48352185198165L99.89406306964159,114.31041578911451L100.13477223537366,119.7453085654327L100.37548140110573,120.97452774305563L100.61619056683779,105.87324949565114L100.85689973256986,112.99731053388251L101.09760889830191,111.69626984508743L101.33831806403398,114.84333933213526L101.57902722976606,112.29825475437438L101.81973639549811,114.97759709188439L102.06044556123018,123.5294017887326L102.30115472696225,118.68220815078644L102.54186389269431,117.8728851597215L102.78257305842638,107.46459044595676L103.02328222415845,110.89781805236898L103.2639913898905,116.99544009856483L103.50470055562258,113.20287396182276L103.74540972135465,119.9518671083774L103.9861188870867,121.6759721835319L104.22682805281877,118.9229297425009L104.46753721855085,119.61511403155279L104.7082463842829,122.13460471334818L104.94895555001497,121.31687810118186L105.18966471574704,115.03937506322441L105.4303738814791,119.21892544946245L105.67108304721117,120.22226314501175L105.91179221294324,112.62681208711979L106.1525013786753,119.24198440062938L106.39321054440737,118.10377493820053L106.63391971013944,117.91894916801257L106.8746288758715,116.3486114960987L107.11533804160356,123.27967026793533L107.35604720733562,120.80019206334006L107.59675637306769,118.07605800190643L107.83746553879976,117.35044015844976L108.07817470453182,116.9271717446426L108.31888387026389,116.5454402395318L108.55959303599596,120.34237564331468L108.80030220172802,114.09979402030056L109.04101136746009,116.62190048795874L109.28172053319216,114.10652307650086L109.52242969892421,109.06752631461214L109.76313886465628,123.27921024378435L110.00384803038835,125.6919060302087L110.24455719612041,116.68321266078603L110.48526636185248,114.04971875539586L110.72597552758455,118.39867929079553L110.96668469331661,122.04617613784647L111.20739385904868,121.07916880150216L111.44810302478076,108.61214475044866L111.6888121905128,121.32551269675238L111.92952135624488,118.94396381748855L112.17023052197696,122.03969730398772L112.410939687709,118.02394631209897L112.65164885344109,120.91860497450774L112.89235801917316,111.3075860084562L113.13306718490522,122.8274087838922L113.37377635063729,120.17741560225805L113.61448551636934,118.83168712805043L113.85519468210141,108.88280063336077L114.09590384783348,119.51976777070101L114.33661301356554,116.08334886704048L114.57732217929761,124.88029446711228L114.81803134502968,126.85480858817346L115.05874051076174,125.8028700147473L115.29944967649381,120.2333460699549L115.54015884222588,101.41153492357718L115.78086800795793,125.34670121260163L116.02157717369,120.40312192869261L116.26228633942208,118.51013987044274L116.50299550515413,128.03720154175727L116.7437046708862,118.80685352304582L116.98441383661827,127.37576957848115L117.22512300235033,121.53996479217919L117.4658321680824,119.39553237812433L117.70654133381447,114.32393164513238L117.94725049954653,119.11763159603089L118.1879596652786,114.40531549932598L118.42866883101067,113.9450449755662L118.66937799674272,117.50666743978647L118.9100871624748,118.98315248574885L119.15079632820685,123.04220734102269L119.39150549393892,115.67323444924959L119.63221465967099,116.7168078973192L119.87292382540305,126.76714992756882L120.11363299113512,124.73312138496496L120.35434215686719,124.93560707810421L120.59505132259925,110.41793779618112L120.83576048833132,127.08529223654426L121.07646965406339,121.06270802100303L121.31717881979544,121.76516874914341L121.55788798552751,126.09530871488447L121.79859715125959,126.98238926097787L122.03930631699164,119.55889484576954L122.28001548272371,130.07287000309185L122.52072464845578,118.21408834465116L122.76143381418784,128.60142982449244L123.00214297991991,117.26243503614141L123.24285214565198,119.5237482307188L123.48356131138404,121.29609617332301L123.72427047711611,128.31237682511508L123.96497964284818,113.44827663611134L124.20568880858023,124.74930307131389L124.4463979743123,125.27580744888041L124.68710714004438,125.08067636779532L124.92781630577643,119.84240445788804L125.1685254715085,117.6509802880912L125.40923463724056,130.64715144959538L125.64994380297263,126.36565663183775L125.8906529687047,122.88068496998143L126.13136213443676,121.05311488138568L126.37207130016883,124.96801664569591L126.6127804659009,116.11977739039483L126.85348963163295,126.17847492206478L127.09419879736502,121.51532559068606L127.3349079630971,123.21139998922587L127.57561712882915,116.2947828960708L127.81632629456122,115.94097620427634L128.0570354602933,114.46798272237211L128.29774462602535,113.01333246289032L128.53845379175743,120.86785025970639L128.7791629574895,125.22042169597324L129.01987212322155,128.41281414822367L129.26058128895363,129.54648303754712L129.5012904546857,124.57871687714702L129.74199962041774,118.2825068319783L129.98270878614983,121.6714373847882L130.22341795188188,118.27053080575455L130.46412711761394,124.34521516237973L130.70483628334603,118.05923921098017L130.94554544907808,122.385506504789L131.18625461481014,120.83127930209608L131.42696378054222,122.98568596364234L131.66767294627428,125.3320285594509L131.90838211200634,116.34154752691818L132.14909127773842,124.38496971808937L132.38980044347048,122.24801317768497L132.63050960920253,126.92865882509935L132.87121877493462,117.56859554453139L133.11192794066667,115.69324453742415L133.35263710639873,124.18096344302843L133.59334627213082,128.10251342247477L133.83405543786287,129.9410855949495L134.07476460359493,122.91631855620457L134.315473769327,125.7232781374766L134.55618293505907,120.28759042402719L134.79689210079113,125.11351131336764L135.0376012665232,120.14839366021342L135.27831043225527,123.91301766055398L135.51901959798732,123.49200509739521L135.7597287637194,124.39550022909391L136.00043792945146,128.51032579472346L136.24114709518352,124.05325573426603L136.4818562609156,116.4170607800217L136.72256542664766,126.57032118413568L136.96327459237972,122.19389778435793L137.20398375811178,123.76872790969614L137.44469292384386,123.13631788846469L137.68540208957592,127.42600845030151L137.92611125530797,121.7574907728325L138.16682042104006,121.06544699324932L138.4075295867721,121.77173804800256L138.64823875250417,125.95542095245057L138.88894791823625,125.48799022014815L139.12965708396834,126.71704579085545L139.37036624970037,119.75436083983486L139.61107541543245,122.24024666116087L139.85178458116454,125.86652272886167L140.09249374689657,115.76835358520675L140.33320291262865,127.78222112614927L140.57391207836073,119.50477175329353L140.8146212440928,122.16065478389017L141.05533040982485,123.43229242276657L141.29603957555693,126.27144792024635L141.536748741289,117.52469114752662L141.77745790702105,126.21818328288057L142.01816707275313,125.28356434146828L142.2588762384852,125.10929602930624L142.49958540421724,129.57452526288526L142.74029456994933,122.14433451285977L142.98100373568138,123.41785074408499L143.22171290141344,131.90895920002356L143.4624220671455,123.84060716448558L143.70313123287758,125.21093634444148L143.94384039860964,127.22394813514285L144.1845495643417,117.2170447033853L144.42525873007378,122.50333235584766L144.66596789580584,130.02084877828483L144.90667706153792,125.007259207999L145.14738622726998,129.60887694080478L145.38809539300203,131.11815266223292L145.6288045587341,120.18139221270137L145.86951372446617,118.87271204334023L146.11022289019823,124.93861167099L146.35093205593031,122.33591821105668L146.59164122166234,119.77437670237116L146.83235038739443,113.84592998129332L147.07305955312648,128.54112046581858L147.31376871885857,126.14826923586591L147.55447788459063,128.8163900637513L147.7951870503227,120.00068356242544L148.03589621605474,127.78265227849161L148.27660538178682,123.8222485437652L148.51731454751888,122.97647200711178L148.75802371325096,123.32099737482221L148.99873287898302,128.00920743610018L149.2394420447151,120.3952630223809L149.48015121044713,122.0982551062708L149.72086037617922,123.75900965890803L149.96156954191127,133.81392305885893L150.20227870764336,123.49967537455716L150.44298787337542,125.95080531264271L150.6836970391075,119.44380604216994L150.92440620483953,116.06709596356357L151.1651153705716,126.16733425350432L151.40582453630367,128.29523466993209L151.64653370203575,119.07880671255946L151.8872428677678,122.72944288760318L152.1279520334999,123.41731180365706L152.36866119923192,123.38010759104392L152.609370364964,127.09913723118063L152.85007953069606,126.90735912947221L153.09078869642815,126.8086810619034L153.3314978621602,127.50863764184109L153.57220702789226,126.40580191935763L153.81291619362432,129.42277118710044L154.0536253593564,128.21085777157614L154.29433452508846,122.97865471584494L154.53504369082054,131.0329731275968L154.7757528565526,120.26060875645977L155.01646202228466,123.02649530276094L155.2571711880167,126.8156622652325L155.4978803537488,125.3073008177446L155.73858951948085,121.25610294399527L155.97929868521294,123.8436772001376L156.22000785094502,132.40673997756807L156.46071701667705,121.71578640764604L156.7014261824091,130.0427143613613L156.9421353481412,125.14947788778373L157.18284451387328,129.8521835217861L157.42355367960533,123.50527265585879L157.66426284533742,125.95466643585145L157.90497201106945,130.55765269238674L158.1456811768015,120.73959206179258L158.3863903425336,122.29307822139707L158.62709950826567,121.69957969906297L158.86780867399773,127.79826422781674L159.10851783972976,124.58106319279581L159.34922700546184,122.84706086163963L159.58993617119393,123.81104820680024L159.83064533692598,122.08258733811563L160.07135450265807,121.21688540392633L160.31206366839012,128.9938650714596L160.55277283412218,120.19689444915365L160.79348199985424,124.05699174630399L161.03419116558632,124.79623900822587L161.27490033131838,121.47045302569822L161.51560949705046,130.63785472721338L161.75631866278252,122.36941335865323L161.99702782851458,129.3588028078783L162.23773699424663,125.35224459986044L162.47844615997872,116.79574342214015L162.71915532571077,127.60655734323632L162.95986449144286,127.72779006771445L163.2005736571749,132.12308023204463L163.44128282290697,122.57743858947683L163.68199198863903,133.31372474853765L163.9227011543711,123.42352309208907L164.16341032010317,128.98585795653017L164.40411948583525,128.87773880753622L164.64482865156728,133.3167370405724L164.88553781729937,128.01472195155037L165.12624698303142,125.94619544719656L165.3669561487635,132.7257253433558L165.60766531449556,122.26942836054667L165.84837448022765,125.28733692446387L166.08908364595968,130.21937133449148L166.32979281169176,124.35760886743513L166.57050197742382,120.62322519946386L166.8112111431559,129.19544803938206L167.05192030888796,131.47887318980298L167.29262947462004,119.20482830769731L167.53333864035207,122.96468653482505L167.77404780608416,121.23391784623651L168.0147569718162,128.56526114741584L168.2554661375483,126.81278278351748L168.49617530328035,126.95866818299947L168.73688446901244,127.81550069757463L168.97759363474447,128.23907515255337L169.21830280047655,120.85326229719435L169.4590119662086,133.31062391628976L169.6997211319407,121.09412054880303L169.94043029767275,117.93357755105667L170.18113946340483,120.38434177956613L170.42184862913686,131.46847741390542L170.66255779486895,120.18347675728516L170.903266960601,128.5393669846405L171.1439761263331,121.70320792301536L171.38468529206514,125.62524294884683L171.6253944577972,129.4583239322594L171.86610362352926,119.28897423158413L172.10681278926134,131.7767089933685L172.3475219549934,122.45351116285897L172.58823112072548,128.70022722887026L172.82894028645754,128.15811860112763L173.0696494521896,128.46794197964036L173.31035861792165,129.04357270200097L173.55106778365374,131.69355433491162L173.7917769493858,120.14700396382423L174.03248611511788,124.96865759984772L174.27319528084996,131.6302038123944L174.513904446582,129.30668149413464L174.75461361231405,125.73323313709557L174.99532277804613,125.76194133881965L175.23603194377822,129.90105964423867L175.47674110951027,122.54705967242613L175.71745027524236,132.04518024276018L175.95815944097438,124.96696763664868L176.19886860670644,120.11955649774407L176.43957777243853,118.4603841202203L176.6802869381706,125.37812913869955L176.92099610390267,125.9828222236369L177.1617052696347,131.62447757034752L177.40241443536678,130.99666394105148L177.64312360109886,126.67446372268637L177.88383276683092,126.08736319314681L178.124541932563,127.13282870707593L178.36525109829506,123.67036935680962L178.60596026402712,127.93984387823691L178.84666942975917,129.82631823081942L179.08737859549126,122.70263060131309L179.32808776122332,120.9587618107511L179.5687969269554,133.19561595375433L179.80950609268746,130.19515558619173L180.0502152584195,123.833233304559L180.29092442415157,135.25902348643632L180.53163358988365,123.9637839240788L180.7723427556157,135.47197809738836L181.0130519213478,120.43680955501343L181.25376108707985,117.91173506542711L181.4944702528119,131.24498074322543L181.73517941854396,123.36528095491379L181.97588858427605,127.94374927155225L182.2165977500081,124.95158281221819L182.4573069157402,129.95126194510138L182.69801608147222,128.60292153460549L182.9387252472043,122.73267845495806L183.17943441293636,127.72098017044996L183.42014357866844,129.3352799829859L183.6608527444005,124.83059453571985L183.90156191013259,131.5639218389066L184.1422710758646,130.17358834513786L184.3829802415967,132.064533978485L184.62368940732875,130.64684925799827L184.86439857306084,131.46242973238904L185.1051077387929,122.05142118308271L185.34581690452498,126.97308868902138L185.586526070257,128.03149069800833L185.8272352359891,134.13124348368177L186.06794440172115,121.43277724021064L186.30865356745323,132.15642139666176L186.5493627331853,131.04424083211524L186.79007189891738,127.45312100340142L187.0307810646494,124.77476800653413L187.2714902303815,129.89761427507432L187.51219939611354,131.7829741758433L187.75290856184563,127.58673588421152L187.99361772757769,129.6550718346283L188.23432689330977,124.05201232170725L188.4750360590418,123.25313707579544L188.71574522477388,125.53904905133383L188.95645439050594,120.69562799638327L189.19716355623802,116.27540798768632L189.43787272197008,107.23862042366997L189.67858188770214,115.7130736955979L189.9192910534342,115.0129130882125L190.16000021916628,126.72441580120756L190.40070938489833,116.19758114031711L190.64141855063042,118.6584254796163L190.88212771636248,114.24342934349589L191.12283688209453,120.34667176844026L191.3635460478266,107.00958229051838L191.60425521355867,111.1523750147836L191.84496437929073,105.17984104191292L192.08567354502281,113.34377223755905L192.3263827107549,115.01732085099815L192.56709187648693,114.91445252160212L192.80780104221898,120.49484958952823L193.04851020795107,114.74090985423054L193.28921937368315,121.02353667582791L193.5299285394152,116.74420916850553L193.7706377051473,117.9835989219186L194.01134687087932,117.76983974989916L194.25205603661138,118.07671242956891L194.49276520234346,124.34571945663731L194.73347436807555,119.08165539767857L194.9741835338076,121.82453496206838L195.21489269953963,118.30917668401241L195.45560186527172,123.35450022156775L195.6963110310038,122.85691192274749L195.93702019673586,118.30634724676571L196.17772936246794,123.31152164722666L196.4184385282,124.42051668888658L196.65914769393206,124.04194375964097L196.8998568596641,121.59422069497492L197.1405660253962,117.60642916257287L197.38127519112825,127.0414205609226L197.62198435686034,121.05441218798723L197.8626935225924,128.37628553593274L198.10340268832445,124.3290738965629L198.3441118540565,123.01231539514436L198.5848210197886,133.3520626608367L198.82553018552065,129.76557964459042L199.06623935125273,120.72269435458936L199.3069485169848,122.87063565578758L199.54765768271685,126.28738515861548L199.7883668484489,121.66510675954714L200.029076014181,115.35745385422085L200.26978517991304,129.7725512239833L200.51049434564513,124.81075382882266L200.75120351137716,128.97716946691688L200.99191267710924,126.53842360995053L201.2326218428413,124.46125673566446L201.47333100857338,122.62250748276342L201.71404017430544,124.77039104034435L201.95474934003752,121.75430524994592L202.19545850576955,125.3760137975199L202.43616767150164,124.16456040614658L202.6768768372337,126.37852768412932L202.91758600296578,129.9990775097832L203.15829516869783,131.80729771222866L203.39900433442992,124.50570584745893L203.63971350016195,125.90700677893626L203.88042266589403,124.97355810816751L204.1211318316261,128.87901686626532L204.36184099735817,130.14228745499793L204.60255016309023,131.21631681160792L204.8432593288223,131.7832205486104L205.08396849455434,115.49968408272905L205.32467766028643,135.50649145743625L205.56538682601848,131.06381976794748L205.80609599175057,129.4422076886767L206.04680515748262,128.419670240382L206.2875143232147,133.69430138130286L206.52822348894674,131.29601262738973L206.76893265467882,131.10517574664297L207.00964182041088,125.60199729331738L207.25035098614296,127.07946205598628L207.49106015187502,129.8633318894955L207.73176931760707,131.52835946981145L207.97247848333913,130.112168384225L208.21318764907122,124.72084124235687L208.45389681480327,130.46260284877033L208.69460598053536,124.8755344682612L208.9353151462674,118.64290399529159L209.17602431199947,128.9280893170166L209.41673347773153,129.3468421799525L209.6574426434636,131.56604872880973L209.89815180919567,126.71840854022324L210.13886097492775,122.17219003383535L210.37957014065984,133.578234785784L210.62027930639186,134.8375961316268L210.86098847212392,127.8653873333296L211.101697637856,126.93107443308887L211.3424068035881,132.6076588938918L211.58311596932015,129.16777729798176L211.82382513505223,124.65905749665512L212.06453430078426,128.45571765586232L212.30524346651632,126.76803917927491L212.5459526322484,131.83969958067138L212.78666179798049,122.69362644659198L213.02737096371254,119.77560279184473L213.26808012944457,120.54787555327592L213.50878929517665,131.91142677726864L213.74949846090874,126.62339719235169L213.9902076266408,129.30690284466758L214.23091679237288,125.36856102131635L214.47162595810494,125.97051128443293L214.712335123837,131.69796402248457L214.95304428956905,132.69082702585936L215.19375345530113,126.77641007899318L215.4344626210332,124.41980451760682L215.67517178676528,128.0934419002002L215.91588095249733,130.05568935216397L216.1565901182294,130.0608862777191L216.39729928396144,129.84280595833994L216.63800844969353,132.4476725030702L216.8787176154256,131.5633713497552L217.11942678115767,119.35270971154992L217.36013594688973,125.34784453622375L217.60084511262178,126.33905607214436L217.84155427835384,118.01087315714692L218.08226344408592,125.16089957528162L218.32297260981798,124.89208186418622L218.56368177555007,119.64187049901284L218.8043909412821,129.75981683158594L219.04510010701418,125.72998602101724L219.28580927274623,131.20598647847663L219.52651843847832,118.27761017323297L219.76722760421038,125.4623616780123L220.00793676994246,130.84945236315934L220.2486459356745,133.2432255662012L220.48935510140657,133.0392481629489L220.73006426713863,131.70462956070583L220.97077343287071,131.1374467295532L221.21148259860277,132.89073350409348L221.45219176433486,130.09948981065767L221.69290093006688,124.2143469529649L221.93361009579897,123.79557099258213L222.17431926153102,119.67518279182131L222.4150284272631,123.81188356446354L222.65573759299517,129.34020551353984L222.89644675872725,120.89425449110102L223.13715592445928,124.59973940341122L223.37786509019136,129.6800825200593L223.61857425592342,128.3004084980403L223.8592834216555,127.28178606699717L224.09999258738756,133.0217691699984L224.34070175311965,123.18738056922487L224.58141091885167,132.1742006564221L224.82212008458376,130.50453048927693L225.06282925031581,132.35079218678604L225.3035384160479,124.66738605105405L225.54424758177996,130.90295374935596L225.784956747512,124.44694209294092L226.02566591324407,128.3721453185738L226.26637507897615,125.28832818989383L226.5070842447082,134.59145626382428L226.7477934104403,124.89187591195127L226.98850257617235,130.52208069935537L227.2292117419044,131.91617907697074L227.46992090763646,131.752106362833L227.71063007336855,128.90952859363577L227.9513392391006,125.63681092017515L228.1920484048327,129.5175977553967L228.43275757056477,124.27911219410552L228.6734667362968,121.71047014528185L228.91417590202886,124.33634959234011L229.15488506776094,125.82481066452625L229.39559423349303,121.7907722690451L229.63630339922508,126.23105818474666L229.87701256495717,127.95254554925114L230.1177217306892,125.05878768727192L230.35843089642125,130.89999727615125L230.59914006215334,127.57404191234626L230.83984922788542,126.73543905774619L231.08055839361748,124.90780930074592L231.3212675593495,125.57540828234745L231.5619767250816,127.72386927610117L231.80268589081368,122.9882709529092L232.04339505654573,130.72327101068032L232.28410422227782,125.0098403476914L232.52481338800987,130.21318891786808L232.76552255374193,130.60828614559182L233.006231719474,123.14987416501465L233.24694088520607,128.8095512946782L233.48765005093813,130.13974481105038L233.7283592166702,137.3947905083248L233.96906838240227,136.39407341060635L234.20977754813433,119.24200942286352L234.45048671386638,125.86298304512243L234.69119587959847,122.92572499145939L234.93190504533052,125.83770866383924L235.1726142110626,132.7964670488848L235.41332337679466,118.77940990654014L235.65403254252672,128.6163988948785L235.89474170825878,127.20455975324768L236.13545087399086,128.1043785413129L236.37616003972292,118.56866880091717L236.616869205455,127.87177185261345L236.85757837118703,130.18093910761752L237.09828753691912,125.47636065562806L237.33899670265117,130.11545592083542L237.57970586838326,123.25966402933524L237.8204150341153,132.7235503337716L238.0611241998474,132.15681405325927L238.30183336557943,130.36528560578208L238.5425425313115,132.49384237465958L238.78325169704357,121.99401632835799L239.02396086277565,130.18068888527597L239.2646700285077,126.32379058452291L239.5053791942398,129.8835998991606L239.74608835997182,118.98391470149693L239.9867975257039,123.68523641347183L240.22750669143596,126.99580502805911L240.46821585716805,129.7420144743787L240.7089250229001,129.69272259788173L240.9496341886322,118.52363262901369L241.19034335436422,126.311726018086L241.4310525200963,124.12279252298113L241.67176168582836,128.8196987730214L241.91247085156044,127.10761399419724L242.1531800172925,127.17003676926355L242.39388918302458,127.40594061850966L242.6345983487566,128.1776243950446L242.8753075144887,126.56733198954787L243.11601668022075,125.61080319495251L243.35672584595284,130.69581392066397L243.5974350116849,125.3781503113592L243.83814417741695,125.90049522369439L244.078853343149,127.46847503123603L244.3195625088811,130.54254311253194L244.56027167461315,129.90593320553702L244.80098084034523,128.39221699994013L245.0416900060773,129.98001441693205L245.28239917180935,132.3876422385465L245.5231083375414,128.9742091441377L245.7638175032735,118.87605347399345L246.00452666900554,129.675178162165L246.24523583473763,128.58093084035823L246.4859450004697,128.75829805998094L246.72665416620174,131.3423076101499L246.9673633319338,128.28223080732076L247.20807249766588,130.3553171326524L247.44878166339797,126.23193396294207L247.68949082913002,128.82503043368354L247.9301999948621,130.64031268052224L248.17090916059414,133.15075108791547L248.4116183263262,130.4721247712597L248.65232749205828,125.53086678076535L248.89303665779036,132.37343153433403L249.13374582352242,134.91896458752248L249.37445498925445,132.5530392063072L249.61516415498653,127.35815585042367L249.85587332071862,125.54991255053135L250.09658248645067,126.02871107628886L250.33729165218276,125.70014989396894L250.5780008179148,126.81881506673595L250.81870998364687,127.39133918248693L251.05941914937893,136.17331186259818L251.300128315111,135.7690709330782L251.54083748084307,129.1076180727128L251.78154664657515,126.36524472736782L252.0222558123072,128.12405371650723L252.26296497803926,125.43164977276861L252.50367414377132,126.33947567576327L252.7443833095034,131.87037491495744L252.98509247523546,132.3574885216032L253.22580164096755,127.17788027727734L253.4665108066996,127.34730389994962L253.70721997243166,122.98947971929759L253.94792913816372,125.56821920199617L254.1886383038958,130.20975702221443L254.42934746962786,118.39013323543816L254.67005663535994,132.22055723237403L254.91076580109197,132.8530942895635L255.15147496682405,133.77627037081825L255.3921841325561,119.632662316844L255.6328932982882,132.60494686866693L255.87360246402025,123.13401584292247L256.1143116297523,129.26172616329538L256.3550207954844,127.3849334905434L256.5957299612164,132.6712904353465L256.8364391269485,130.16139481795568L257.0771482926806,127.0592248429171L257.3178574584127,125.25591862230213L257.5585666241447,128.86722369482962L257.7992757898768,130.1527621471724L258.0399849556088,131.1060438256894L258.2806941213409,130.8545953946717L258.521403287073,126.28816854702323L258.76211245280507,128.00166419489628L259.0028216185371,126.3946612507972L259.2435307842692,125.89801417293862L259.4842399500012,131.35859708458443L259.7249491157333,131.61036887985892L259.9656582814654,129.74862611855718L260.20636744719747,129.42740992435523L260.4470766129295,121.75343524611222L260.6877857786616,128.2214845219428L260.9284949443936,112.91524145543052L261.1692041101257,128.98811380717856L261.4099132758578,125.44442458569807L261.65062244158986,126.01336667239048L261.8913316073219,129.14050306275345L262.132040773054,131.45170674266026L262.372749938786,129.62866760323368L262.6134591045181,133.95391475980392L262.85416827025017,127.7990206692031L263.09487743598226,129.37780238275045L263.3355866017143,122.27598226110788L263.57629576744637,129.0151185721929L263.8170049331784,135.34307509574825L264.0577140989105,127.43786706450345L264.29842326464257,131.31687347152555L264.53913243037465,121.6347567143051L264.7798415961067,133.40170099903736" fill="none"></path></g></g></g></g></g></g><g transform="translate(41, 176)" clip-path="url(#clip_1)"><clipPath id="clip_1"><rect width="288" height="23"></rect></clipPath><g><g><line x1="0" y1="0" x2="0" y2="5" style="visibility: inherit;" fill="rgb(0, 0, 0)" stroke="rgb(204, 204, 204)" stroke-width="1px"></line><line x1="24.07091657320658" y1="0" x2="24.07091657320658" y2="5" style="visibility: inherit;" fill="rgb(0, 0, 0)" stroke="rgb(204, 204, 204)" stroke-width="1px"></line><line x1="48.14183314641316" y1="0" x2="48.14183314641316" y2="5" style="visibility: inherit;" fill="rgb(0, 0, 0)" stroke="rgb(204, 204, 204)" stroke-width="1px"></line><line x1="72.21274971961975" y1="0" x2="72.21274971961975" y2="5" style="visibility: inherit;" fill="rgb(0, 0, 0)" stroke="rgb(204, 204, 204)" stroke-width="1px"></line><line x1="96.28366629282633" y1="0" x2="96.28366629282633" y2="5" style="visibility: inherit;" fill="rgb(0, 0, 0)" stroke="rgb(204, 204, 204)" stroke-width="1px"></line><line x1="120.35458286603293" y1="0" x2="120.35458286603293" y2="5" style="visibility: inherit;" fill="rgb(0, 0, 0)" stroke="rgb(204, 204, 204)" stroke-width="1px"></line><line x1="144.4254994392395" y1="0" x2="144.4254994392395" y2="5" style="visibility: inherit;" fill="rgb(0, 0, 0)" stroke="rgb(204, 204, 204)" stroke-width="1px"></line><line x1="168.4964160124461" y1="0" x2="168.4964160124461" y2="5" style="visibility: inherit;" fill="rgb(0, 0, 0)" stroke="rgb(204, 204, 204)" stroke-width="1px"></line><line x1="192.56733258565265" y1="0" x2="192.56733258565265" y2="5" style="visibility: inherit;" fill="rgb(0, 0, 0)" stroke="rgb(204, 204, 204)" stroke-width="1px"></line><line x1="216.63824915885925" y1="0" x2="216.63824915885925" y2="5" style="visibility: inherit;" fill="rgb(0, 0, 0)" stroke="rgb(204, 204, 204)" stroke-width="1px"></line><line x1="240.70916573206586" y1="0" x2="240.70916573206586" y2="5" style="visibility: inherit;" fill="rgb(0, 0, 0)" stroke="rgb(204, 204, 204)" stroke-width="1px"></line><line x1="264.7800823052724" y1="0" x2="264.7800823052724" y2="5" style="visibility: inherit;" fill="rgb(0, 0, 0)" stroke="rgb(204, 204, 204)" stroke-width="1px"></line><line x1="288.850998878479" y1="0" x2="288.850998878479" y2="5" style="visibility: inherit;" fill="rgb(0, 0, 0)" stroke="rgb(204, 204, 204)" stroke-width="1px"></line></g><g transform="translate(0, 8)"><text style="text-anchor: middle; visibility: hidden; font-family: Roboto, sans-serif; font-size: 12px; font-weight: 200;" x="0" y="0" dx="0em" dy="0.95em" fill="rgb(33, 33, 33)" stroke="none" stroke-width="1px">-100k</text><text style="text-anchor: middle; visibility: inherit; font-family: Roboto, sans-serif; font-size: 12px; font-weight: 200;" x="24.07091657320658" y="0" dx="0em" dy="0.95em" fill="rgb(33, 33, 33)" stroke="none" stroke-width="1px">0</text><text style="text-anchor: middle; visibility: hidden; font-family: Roboto, sans-serif; font-size: 12px; font-weight: 200;" x="48.14183314641316" y="0" dx="0em" dy="0.95em" fill="rgb(33, 33, 33)" stroke="none" stroke-width="1px">100k</text><text style="text-anchor: middle; visibility: inherit; font-family: Roboto, sans-serif; font-size: 12px; font-weight: 200;" x="72.21274971961975" y="0" dx="0em" dy="0.95em" fill="rgb(33, 33, 33)" stroke="none" stroke-width="1px">200k</text><text style="text-anchor: middle; visibility: hidden; font-family: Roboto, sans-serif; font-size: 12px; font-weight: 200;" x="96.28366629282633" y="0" dx="0em" dy="0.95em" fill="rgb(33, 33, 33)" stroke="none" stroke-width="1px">300k</text><text style="text-anchor: middle; visibility: inherit; font-family: Roboto, sans-serif; font-size: 12px; font-weight: 200;" x="120.35458286603293" y="0" dx="0em" dy="0.95em" fill="rgb(33, 33, 33)" stroke="none" stroke-width="1px">400k</text><text style="text-anchor: middle; visibility: hidden; font-family: Roboto, sans-serif; font-size: 12px; font-weight: 200;" x="144.4254994392395" y="0" dx="0em" dy="0.95em" fill="rgb(33, 33, 33)" stroke="none" stroke-width="1px">500k</text><text style="text-anchor: middle; visibility: inherit; font-family: Roboto, sans-serif; font-size: 12px; font-weight: 200;" x="168.4964160124461" y="0" dx="0em" dy="0.95em" fill="rgb(33, 33, 33)" stroke="none" stroke-width="1px">600k</text><text style="text-anchor: middle; visibility: hidden; font-family: Roboto, sans-serif; font-size: 12px; font-weight: 200;" x="192.56733258565265" y="0" dx="0em" dy="0.95em" fill="rgb(33, 33, 33)" stroke="none" stroke-width="1px">700k</text><text style="text-anchor: middle; visibility: inherit; font-family: Roboto, sans-serif; font-size: 12px; font-weight: 200;" x="216.63824915885925" y="0" dx="0em" dy="0.95em" fill="rgb(33, 33, 33)" stroke="none" stroke-width="1px">800k</text><text style="text-anchor: middle; visibility: hidden; font-family: Roboto, sans-serif; font-size: 12px; font-weight: 200;" x="240.70916573206586" y="0" dx="0em" dy="0.95em" fill="rgb(33, 33, 33)" stroke="none" stroke-width="1px">900k</text><text style="text-anchor: middle; visibility: inherit; font-family: Roboto, sans-serif; font-size: 12px; font-weight: 200;" x="264.7800823052724" y="0" dx="0em" dy="0.95em" fill="rgb(33, 33, 33)" stroke="none" stroke-width="1px">1M</text><text style="text-anchor: middle; visibility: hidden; font-family: Roboto, sans-serif; font-size: 12px; font-weight: 200;" x="288.850998878479" y="0" dx="0em" dy="0.95em" fill="rgb(33, 33, 33)" stroke="none" stroke-width="1px">1.1M</text></g><line x1="0" y1="0" x2="288.850998878479" y2="0" fill="rgb(0, 0, 0)" stroke="rgb(204, 204, 204)" stroke-width="1px"></line></g></g></g></g></svg>