<svg viewBox="0 0 330 200" xmlns="http://www.w3.org/2000/svg"><g><g><g><g><g><line x1="30.766000747680664" y1="176.5999994277954" x2="25.766000747680664" y2="176.5999994277954" style="visibility: inherit;" fill="rgb(0, 0, 0)" stroke="rgb(204, 204, 204)" stroke-width="1px"></line><line x1="30.766000747680664" y1="158.93999948501587" x2="25.766000747680664" y2="158.93999948501587" style="visibility: inherit;" fill="rgb(0, 0, 0)" stroke="rgb(204, 204, 204)" stroke-width="1px"></line><line x1="30.766000747680664" y1="141.27999954223634" x2="25.766000747680664" y2="141.27999954223634" style="visibility: inherit;" fill="rgb(0, 0, 0)" stroke="rgb(204, 204, 204)" stroke-width="1px"></line><line x1="30.766000747680664" y1="123.61999959945678" x2="25.766000747680664" y2="123.61999959945678" style="visibility: inherit;" fill="rgb(0, 0, 0)" stroke="rgb(204, 204, 204)" stroke-width="1px"></line><line x1="30.766000747680664" y1="105.95999965667724" x2="25.766000747680664" y2="105.95999965667724" style="visibility: inherit;" fill="rgb(0, 0, 0)" stroke="rgb(204, 204, 204)" stroke-width="1px"></line><line x1="30.766000747680664" y1="88.2999997138977" x2="25.766000747680664" y2="88.2999997138977" style="visibility: inherit;" fill="rgb(0, 0, 0)" stroke="rgb(204, 204, 204)" stroke-width="1px"></line><line x1="30.766000747680664" y1="70.63999977111817" x2="25.766000747680664" y2="70.63999977111817" style="visibility: inherit;" fill="rgb(0, 0, 0)" stroke="rgb(204, 204, 204)" stroke-width="1px"></line><line x1="30.766000747680664" y1="52.979999828338634" x2="25.766000747680664" y2="52.979999828338634" style="visibility: inherit;" fill="rgb(0, 0, 0)" stroke="rgb(204, 204, 204)" stroke-width="1px"></line><line x1="30.766000747680664" y1="35.31999988555907" x2="25.766000747680664" y2="35.31999988555907" style="visibility: inherit;" fill="rgb(0, 0, 0)" stroke="rgb(204, 204, 204)" stroke-width="1px"></line><line x1="30.766000747680664" y1="17.659999942779535" x2="25.766000747680664" y2="17.659999942779535" style="visibility: inherit;" fill="rgb(0, 0, 0)" stroke="rgb(204, 204, 204)" stroke-width="1px"></line><line x1="30.766000747680664" y1="0" x2="25.766000747680664" y2="0" style="visibility: inherit;" fill="rgb(0, 0, 0)" stroke="rgb(204, 204, 204)" stroke-width="1px"></line></g><g transform="translate(20.766000747680664, 0)"><text style="text-anchor: end; visibility: hidden; font-family: Roboto, sans-serif; font-size: 12px; font-weight: 200;" x="0" y="176.5999994277954" dx="0em" dy="0.3em" fill="rgb(33, 33, 33)" stroke="none" stroke-width="1px">-2</text><text style="text-anchor: end; visibility: inherit; font-family: Roboto, sans-serif; font-size: 12px; font-weight: 200;" x="0" y="158.93999948501587" dx="0em" dy="0.3em" fill="rgb(33, 33, 33)" stroke="none" stroke-width="1px">0</text><text style="text-anchor: end; visibility: hidden; font-family: Roboto, sans-serif; font-size: 12px; font-weight: 200;" x="0" y="141.27999954223634" dx="0em" dy="0.3em" fill="rgb(33, 33, 33)" stroke="none" stroke-width="1px">2</text><text style="text-anchor: end; visibility: inherit; font-family: Roboto, sans-serif; font-size: 12px; font-weight: 200;" x="0" y="123.61999959945678" dx="0em" dy="0.3em" fill="rgb(33, 33, 33)" stroke="none" stroke-width="1px">4</text><text style="text-anchor: end; visibility: hidden; font-family: Roboto, sans-serif; font-size: 12px; font-weight: 200;" x="0" y="105.95999965667724" dx="0em" dy="0.3em" fill="rgb(33, 33, 33)" stroke="none" stroke-width="1px">6</text><text style="text-anchor: end; visibility: inherit; font-family: Roboto, sans-serif; font-size: 12px; font-weight: 200;" x="0" y="88.2999997138977" dx="0em" dy="0.3em" fill="rgb(33, 33, 33)" stroke="none" stroke-width="1px">8</text><text style="text-anchor: end; visibility: hidden; font-family: Roboto, sans-serif; font-size: 12px; font-weight: 200;" x="0" y="70.63999977111817" dx="0em" dy="0.3em" fill="rgb(33, 33, 33)" stroke="none" stroke-width="1px">10</text><text style="text-anchor: end; visibility: inherit; font-family: Roboto, sans-serif; font-size: 12px; font-weight: 200;" x="0" y="52.979999828338634" dx="0em" dy="0.3em" fill="rgb(33, 33, 33)" stroke="none" stroke-width="1px">12</text><text style="text-anchor: end; visibility: hidden; font-family: Roboto, sans-serif; font-size: 12px; font-weight: 200;" x="0" y="35.31999988555907" dx="0em" dy="0.3em" fill="rgb(33, 33, 33)" stroke="none" stroke-width="1px">14</text><text style="text-anchor: end; visibility: inherit; font-family: Roboto, sans-serif; font-size: 12px; font-weight: 200;" x="0" y="17.659999942779535" dx="0em" dy="0.3em" fill="rgb(33, 33, 33)" stroke="none" stroke-width="1px">16</text><text style="text-anchor: end; visibility: hidden; font-family: Roboto, sans-serif; font-size: 12px; font-weight: 200;" x="0" y="0" dx="0em" dy="0.3em" fill="rgb(33, 33, 33)" stroke="none" stroke-width="1px">18</text></g><line x1="30.766000747680664" y1="0" x2="30.766000747680664" y2="176.5999994277954" fill="rgb(0, 0, 0)" stroke="rgb(204, 204, 204)" stroke-width="1px"></line></g></g><g transform="translate(30, 0)" clip-path="url(#clip_0)"><clipPath id="clip_0"><rect width="299" height="176"></rect></clipPath><g><g><g><line x1="0" y1="0" x2="0" y2="176.5999994277954" fill="rgb(0, 0, 0)" stroke="rgb(66, 66, 66)" stroke-width="1px" opacity="0.25"></line><line x1="24.936166604359943" y1="0" x2="24.936166604359943" y2="176.5999994277954" fill="rgb(0, 0, 0)" stroke="rgb(66, 66, 66)" stroke-width="1px" opacity="0.25"></line><line x1="49.87233320871989" y1="0" x2="49.87233320871989" y2="176.5999994277954" fill="rgb(0, 0, 0)" stroke="rgb(66, 66, 66)" stroke-width="1px" opacity="0.25"></line><line x1="74.80849981307983" y1="0" x2="74.80849981307983" y2="176.5999994277954" fill="rgb(0, 0, 0)" stroke="rgb(66, 66, 66)" stroke-width="1px" opacity="0.25"></line><line x1="99.74466641743977" y1="0" x2="99.74466641743977" y2="176.5999994277954" fill="rgb(0, 0, 0)" stroke="rgb(66, 66, 66)" stroke-width="1px" opacity="0.25"></line><line x1="124.68083302179973" y1="0" x2="124.68083302179973" y2="176.5999994277954" fill="rgb(0, 0, 0)" stroke="rgb(66, 66, 66)" stroke-width="1px" opacity="0.25"></line><line x1="149.61699962615967" y1="0" x2="149.61699962615967" y2="176.5999994277954" fill="rgb(0, 0, 0)" stroke="rgb(66, 66, 66)" stroke-width="1px" opacity="0.25"></line><line x1="174.55316623051962" y1="0" x2="174.55316623051962" y2="176.5999994277954" fill="rgb(0, 0, 0)" stroke="rgb(66, 66, 66)" stroke-width="1px" opacity="0.25"></line><line x1="199.48933283487955" y1="0" x2="199.48933283487955" y2="176.5999994277954" fill="rgb(0, 0, 0)" stroke="rgb(66, 66, 66)" stroke-width="1px" opacity="0.25"></line><line x1="224.4254994392395" y1="0" x2="224.4254994392395" y2="176.5999994277954" fill="rgb(0, 0, 0)" stroke="rgb(66, 66, 66)" stroke-width="1px" opacity="0.25"></line><line x1="249.36166604359946" y1="0" x2="249.36166604359946" y2="176.5999994277954" fill="rgb(0, 0, 0)" stroke="rgb(66, 66, 66)" stroke-width="1px" opacity="0.25"></line><line x1="274.29783264795935" y1="0" x2="274.29783264795935" y2="176.5999994277954" fill="rgb(0, 0, 0)" stroke="rgb(66, 66, 66)" stroke-width="1px" opacity="0.25"></line><line x1="299.23399925231934" y1="0" x2="299.23399925231934" y2="176.5999994277954" fill="rgb(0, 0, 0)" stroke="rgb(66, 66, 66)" stroke-width="1px" opacity="0.25"></line></g><g><line x1="0" y1="176.5999994277954" x2="299.23399925231934" y2="176.5999994277954" fill="rgb(0, 0, 0)" stroke="rgb(66, 66, 66)" stroke-width="1px" opacity="0.25"></line><line x1="0" y1="158.93999948501587" x2="299.23399925231934" y2="158.93999948501587" fill="rgb(0, 0, 0)" stroke="rgb(66, 66, 66)" stroke-width="1px" opacity="0.25"></line><line x1="0" y1="141.27999954223634" x2="299.23399925231934" y2="141.27999954223634" fill="rgb(0, 0, 0)" stroke="rgb(66, 66, 66)" stroke-width="1px" opacity="0.25"></line><line x1="0" y1="123.61999959945678" x2="299.23399925231934" y2="123.61999959945678" fill="rgb(0, 0, 0)" stroke="rgb(66, 66, 66)" stroke-width="1px" opacity="0.25"></line><line x1="0" y1="105.95999965667724" x2="299.23399925231934" y2="105.95999965667724" fill="rgb(0, 0, 0)" stroke="rgb(66, 66, 66)" stroke-width="1px" opacity="0.25"></line><line x1="0" y1="88.2999997138977" x2="299.23399925231934" y2="88.2999997138977" fill="rgb(0, 0, 0)" stroke="rgb(66, 66, 66)" stroke-width="1px" opacity="0.25"></line><line x1="0" y1="70.63999977111817" x2="299.23399925231934" y2="70.63999977111817" fill="rgb(0, 0, 0)" stroke="rgb(66, 66, 66)" stroke-width="1px" opacity="0.25"></line><line x1="0" y1="52.979999828338634" x2="299.23399925231934" y2="52.979999828338634" fill="rgb(0, 0, 0)" stroke="rgb(66, 66, 66)" stroke-width="1px" opacity="0.25"></line><line x1="0" y1="35.31999988555907" x2="299.23399925231934" y2="35.31999988555907" fill="rgb(0, 0, 0)" stroke="rgb(66, 66, 66)" stroke-width="1px" opacity="0.25"></line><line x1="0" y1="17.659999942779535" x2="299.23399925231934" y2="17.659999942779535" fill="rgb(0, 0, 0)" stroke="rgb(66, 66, 66)" stroke-width="1px" opacity="0.25"></line><line x1="0" y1="0" x2="299.23399925231934" y2="0" fill="rgb(0, 0, 0)" stroke="rgb(66, 66, 66)" stroke-width="1px" opacity="0.25"></line></g></g></g><g><g><line x1="0" y1="158.93999948501587" x2="299.23399925231934" y2="158.93999948501587" fill="rgb(0, 0, 0)" stroke="rgb(153, 153, 153)" stroke-width="1.5px"></line></g></g><g><g><line x1="24.936166604359943" y1="0" x2="24.936166604359943" y2="176.5999994277954" fill="rgb(0, 0, 0)" stroke="rgb(153, 153, 153)" stroke-width="1.5px"></line></g></g><g><g><g><g><g><path style="fill: none;" stroke="rgb(0, 119, 187)" stroke-width="2px" d="M25.185278908737498,155.80717798741463L25.4346405747811,152.50966007276367L25.6840022408247,146.60822749127303L25.933363906868298,139.48717180729594L26.1827255729119,132.21275218597927L26.432087238955496,123.66131835537314L26.681448904999097,116.41273500348764L26.9308105710427,109.32141340842247L27.180172237086296,101.5486838203518L27.429533903129897,95.65322263682492L27.67889556917349,89.8886441916031L27.928257235217092,83.09063634924085L28.177618901260693,75.078766532422L28.42698056730429,70.45243424925073L28.676342233347892,66.15920600819474L28.925703899391493,61.77544992881172L29.17506556543509,59.21951725794584L29.424427231478692,54.25888885469699L29.67378889752229,50.847399363228774L29.92315056356589,47.479316684135746L30.17251222960949,41.95384098966917L30.42187389565309,38.63157277016597L30.67123556169669,33.69131202005342L30.920597227740284,30.435113084944202L31.169958893783885,29.504827811578423L31.419320559827487,25.5199994871987L31.668682225871084,23.830866012658554L31.918043891914685,25.304746755766352L32.16740555795829,21.437342702307653L32.41676722400189,24.321190201623228L32.666128890045485,26.278661448170116L32.91549055608908,28.86924271526924L33.16485222213268,31.427284667693662L33.414213888176285,27.8250596635033L33.66357555421988,33.63459643401214L33.91293722026348,38.97771714694342L34.16229888630708,43.52586164171594L34.41166055235068,45.26119317410494L34.66102221839428,44.694113570169705L34.91038388443788,50.33298614250746L35.15974555048148,47.19118163819882L35.40910721652508,48.70053862563423L35.65846888256868,50.673172210667964L35.907830548612274,54.020964941549956L36.15719221465587,54.76868101885456L36.40655388069948,53.93762507561553L36.655915546743074,56.29611188031577L36.90527721278667,56.85884328419869L37.154638878830276,53.68201304717042L37.404000544873874,54.58276185152823L37.65336221091748,53.41180534405967L37.902723876961076,55.06822598056683L38.152085543004674,59.0112675125995L38.401447209048264,59.61225484708289L38.650808875091876,61.92351770102383L38.900170541135466,62.57134769895184L39.149532207179064,62.82958476344716L39.39889387322267,63.44933359491851L39.648255539266266,60.602671082921006L39.897617205309864,61.53088645745024L40.14697887135347,61.1232232264604L40.396340537397066,62.57998866275863L40.64570220344066,66.18046325986431L40.89506386948426,60.65378701465529L41.144425535527866,59.14217294130992L41.39378720157146,61.57687522930411L41.64314886761506,60.46857066038152L41.892510533658665,61.819119950727995L42.14187219970226,63.98280447813882L42.39123386574586,60.46952724365362L42.640595531789465,61.75039877567022L42.88995719783306,62.82588266032003L43.13931886387666,60.72917240175932L43.388680529920265,61.90687842010875L43.63804219596386,55.03119819979162L43.88740386200746,50.73500922557466L44.13676552805106,33.610395594620535L44.38612719409466,42.98173137800596L44.63548886013826,41.78737985833317L44.88485052618185,46.291523597349986L45.13421219222546,51.16303614071684L45.38357385826905,52.66933122959891L45.63293552431265,48.177231347645495L45.882297190356255,43.71677524437L46.13165885639985,42.11617957012926L46.38102052244345,48.82647342902727L46.630382188487054,52.95392784756506L46.87974385453065,57.396643005450635L47.12910552057425,58.80020029123987L47.37846718661785,62.863599413674095L47.62782885266145,64.12562347415825L47.87719051870505,58.71494476313774L48.12655218474865,51.70273782801304L48.37591385079225,44.98644168931134L48.62527551683585,49.34233549701778L48.87463718287945,53.070279410025464L49.12399884892305,57.64268227427376L49.37336051496665,57.04632166614714L49.622722181010246,52.573988629492895L49.87208384705385,56.361603770393174L50.12144551309745,61.34778858731141L50.370807179141046,56.38150860699755L50.620168845184644,61.856362954100995L50.86953051122825,64.08822188315251L51.118892177271846,65.14694449082171L51.368253843315436,61.281718839430354L51.61761550935905,61.27536805286399L51.86697717540264,63.8126934194122L52.116338841446236,60.6254891084091L52.36570050748984,63.21125362963713L52.61506217353344,56.22196926252944L52.864423839577036,47.29801710617652L53.11378550562064,54.14524536970015L53.36314717166424,54.862425708581256L53.612508837707836,59.05685935243878L53.86187050375143,59.22864263645404L54.11123216979504,52.96891038314951L54.360593835838635,55.815470590099686L54.60995550188223,54.25224947640137L54.85931716792584,48.410066874068846L55.108678833969435,50.11764156088069L55.35804050001303,52.782411322373626L55.60740216605664,57.83833431699606L55.856763832100235,61.33647933067329L56.10612549814383,61.978214695600556L56.35548716418744,60.33007966576332L56.604848830231035,60.93610433142939L56.85421049627463,52.86736347994842L57.10357216231822,58.67661201765232L57.352933828361834,59.635042775431224L57.602295494405425,64.67564392183867L57.85165716044902,64.20995287172664L58.10101882649263,68.60688976799973L58.350380492536225,68.13308184365015L58.59974215857982,69.36102449356217L58.84910382462343,68.67018921347172L59.098465490667024,68.4275161551735L59.34782715671062,66.39446244273411L59.59718882275422,67.26914094752792L59.846550488797824,72.12973711522366L60.09591215484142,64.92773371479286L60.34527382088502,59.06391420553387L60.594635486928624,63.825550339959946L60.84399715297222,55.457057336503446L61.09335881901582,58.828597299391895L61.342720485059424,62.22811075203108L61.59208215110302,67.01018253269785L61.84144381714662,72.29917605974393L62.09080548319022,75.7623150881998L62.34016714923382,70.65241916334118L62.58952881527742,74.19648582291249L62.838890481321016,75.17215972982935L63.08825214736462,76.60972955201021L63.33761381340822,68.94465682579862L63.58697547945181,71.19831802187925L63.83633714549542,75.80486561055936L64.08569881153902,73.66051307081436L64.33506047758262,68.34917503069559L64.58442214362621,70.25128769939755L64.83378380966981,74.46238151598331L65.08314547571341,79.1744342191662L65.33250714175702,78.37175126415738L65.58186880780062,74.53792389738445L65.83123047384422,74.45572630169835L66.08059213988781,77.84621255770848L66.32995380593141,80.34020100665988L66.57931547197501,73.04060030633609L66.8286771380186,72.66335550604232L67.07803880406222,72.33004512428343L67.3274004701058,71.22058325158456L67.5767621361494,71.69739534080156L67.82612380219301,74.88063461491346L68.07548546823661,75.19300301707383L68.3248471342802,71.0617684748145L68.5742088003238,73.49870605433614L68.8235704663674,79.04037996381271L69.072932132411,69.18061810544819L69.3222937984546,74.90637140843306L69.5716554644982,72.4610097944111L69.8210171305418,70.66481949406884L70.0703787965854,76.67663869686899L70.319740462629,72.70518650813831L70.5691021286726,72.61367596747755L70.8184637947162,69.6016809596168L71.0678254607598,73.38053999518944L71.3171871268034,72.1476811896544L71.566548792847,73.58451241397124L71.8159104588906,69.12243029055882L72.0652721249342,68.76428702328721L72.3146337909778,70.56802591221872L72.56399545702139,66.16746617140232L72.813357123065,73.99444529911266L73.06271878910859,75.81945836705212L73.31208045515218,77.17187104915402L73.5614421211958,80.47569089710905L73.8108037872394,84.19600700776905L74.06016545328299,86.97194416017545L74.30952711932659,86.66278035708706L74.55888878537019,79.9904491084596L74.80825045141378,76.42829850504923L75.0576121174574,77.4961663084251L75.30697378350098,78.05799273858159L75.55633544954459,80.99700161176195L75.80569711558819,82.7095221984749L76.05505878163179,78.82074660114412L76.30442044767538,80.49512807577656L76.553782113719,78.21469839935264L76.80314377976258,81.93034984042043L77.05250544580619,79.92874978689537L77.30186711184979,66.475763844137L77.55122877789339,73.36782142001879L77.80059044393698,76.14348084580442L78.0499521099806,79.8603326957021L78.29931377602418,78.84738130241308L78.54867544206779,78.61035848853649L78.79803710811139,82.13735090120473L79.04739877415497,86.46589131960545L79.29676044019858,79.70145325594503L79.5461221062422,79.65836251204848L79.79548377228578,80.92732239447376L80.04484543832938,80.94860331022608L80.29420710437297,86.19607436930261L80.54356877041657,86.56864953275345L80.79293043646018,88.9949449929221L81.04229210250377,87.80308528546882L81.29165376854738,84.84044276184069L81.54101543459097,89.67036233662888L81.79037710063457,83.84837978443474L82.03973876667817,86.29513172663381L82.28910043272178,88.50145049588751L82.53846209876536,81.2984584755668L82.78782376480898,84.29543752971273L83.03718543085257,89.02713471428869L83.28654709689617,90.35564578545403L83.53590876293977,90.10321936947194L83.78527042898338,87.84474893121586L84.03463209502696,89.7287301036333L84.28399376107058,91.37044804589209L84.53335542711417,95.65159470701586L84.78271709315777,96.94641904621935L85.03207875920137,93.74162239194857L85.28144042524498,92.75191384951862L85.53080209128856,92.02346662119683L85.78016375733218,94.893116588927L86.02952542337576,97.3711980041325L86.27888708941936,82.83996843138797L86.52824875546297,79.60384010985729L86.77761042150655,77.9466071387925L87.02697208755016,83.67084197170277L87.27633375359376,78.40822605713029L87.52569541963736,83.9910918432415L87.77505708568096,89.59885945641568L88.02441875172457,83.53847673454669L88.27378041776815,79.79840217997133L88.52314208381176,82.97126524964288L88.77250374985536,77.18399892197687L89.02186541589896,74.36400002672477L89.27122708194256,81.3466549876826L89.52058874798617,69.89334954827206L89.76995041402975,59.779931756602224L90.01931208007336,68.10558063924952L90.26867374611696,73.5452009417976L90.51803541216056,77.33601093325012L90.76739707820416,74.64352928626322L91.01675874424777,74.12089980216352L91.26612041029135,80.708828096404L91.51548207633496,74.52565759866481L91.76484374237856,69.34485726995804L92.01420540842214,74.2977529014734L92.26356707446575,77.90180623092847L92.51292874050934,81.3719112316108L92.76229040655295,83.29689461369087L93.01165207259655,83.27549426901696L93.26101373864014,86.89656882478192L93.51037540468374,89.07801873507857L93.75973707072735,86.62873162681178L94.00909873677094,84.89120055627016L94.25846040281455,81.90631960682934L94.50782206885815,87.77017047582872L94.75718373490174,89.57848913736946L95.00654540094534,86.01049201375828L95.25590706698895,81.1862434721003L95.50526873303254,84.89969027349298L95.75463039907615,80.4094120084198L96.00399206511975,83.46039395037516L96.25335373116334,86.64003651524786L96.50271539720694,91.93175728355341L96.75207706325055,83.89103596414382L97.00143872929414,85.47698806697662L97.25080039533775,78.9796114458538L97.50016206138135,84.76261126312592L97.74952372742493,90.67800925405584L97.99888539346854,92.09944144231748L98.24824705951215,85.6133817856887L98.49760872555574,82.57011653481801L98.74697039159933,77.02549470064358L98.99633205764293,80.99094967476464L99.24569372368653,79.18029487805465L99.49505538973014,69.6254417498592L99.74441705577372,74.33161746629756L99.99377872181734,69.68616613802608L100.24314038786093,77.57827789717874L100.49250205390453,74.0305305107008L100.74186371994813,64.84286321214884L100.99122538599174,73.30494005930227L101.24058705203532,79.97932107983708L101.48994871807894,84.76005919733076L101.73931038412253,82.52744685393425L101.98867205016613,75.54572536229294L102.23803371620973,79.8903263958922L102.48739538225334,87.09673728365878L102.73675704829692,83.90025845416787L102.98611871434053,79.73992635173266L103.23548038038413,82.26744546946034L103.48484204642773,87.58805238961239L103.73420371247133,92.69379519951735L103.98356537851494,93.83368631672374L104.23292704455852,97.145540514549L104.48228871060213,88.60038487957827L104.73165037664572,84.87297149548601L104.98101204268931,88.34606923924386L105.23037370873293,71.84608328143601L105.47973537477651,79.97696507920051L105.72909704082012,85.94046990805116L105.97845870686372,81.81573948579867L106.22782037290732,85.46491155400908L106.47718203895091,83.0305076277949L106.72654370499453,78.75938156809801L106.97590537103811,86.4955741433325L107.22526703708172,86.0093223774084L107.47462870312532,89.09441685680925L107.72399036916892,94.76835347101157L107.97335203521251,94.21495192323728L108.22271370125613,98.03296739415875L108.47207536729971,96.80166569920321L108.72143703334332,93.31429867347491L108.97079869938692,93.27294818344437L109.22016036543052,95.07139452079137L109.46952203147411,97.64451929806069L109.71888369751773,101.06419569589484L109.96824536356131,102.94365142036068L110.21760702960492,105.4412697248162L110.46696869564852,106.16657991720515L110.7163303616921,104.34345186392247L110.96569202773571,106.09445419452753L111.2150536937793,103.16847388461531L111.46441535982291,104.34580180408895L111.7137770258665,104.92270378699908L111.9631386919101,87.36922284437944L112.2125003579537,90.4514461858511L112.46186202399731,86.62711217894676L112.7112236900409,75.9620317606854L112.96058535608451,79.86056692364913L113.2099470221281,76.7793174249926L113.4593086881717,76.28724568184221L113.7086703542153,73.6057457501791L113.95803202025891,80.35603209079976L114.2073936863025,79.5126110427641L114.45675535234611,82.04830191304964L114.7061170183897,73.41190058423295L114.9554786844333,78.4962553848767L115.2048403504769,83.0599500983414L115.45420201652051,90.73843042366761L115.7035636825641,95.1977761527391L115.9529253486077,98.27041110857132L116.2022870146513,102.51282451598784L116.45164868069489,103.6349537613593L116.7010103467385,106.9270499015921L116.95037201278211,109.36696004595065L117.1997336788257,95.6656480597968L117.44909534486929,88.9719203583685L117.69845701091289,92.07982037004624L117.94781867695649,95.22629945680112L118.1971803430001,98.85629197438469L118.44654200904368,103.82380341445516L118.6959036750873,100.05686678079827L118.94526534113089,98.03500070296704L119.19462700717449,99.99361673490726L119.44398867321809,98.50863728355131L119.6933503392617,91.62957080175836L119.94271200530528,92.8333049278903L120.1920736713489,96.30702115876355L120.44143533739249,96.13304101372493L120.69079700343609,97.15225545351099L120.94015866947969,94.98254376305873L121.1895203355233,98.33103819865907L121.43888200156688,92.43201158083303L121.6882436676105,80.23481669324804L121.93760533365409,86.954805635262L122.18696699969769,94.44540955687052L122.43632866574129,98.45380624524084L122.6856903317849,100.49201990709625L122.93505199782848,103.74119146591099L123.18441366387209,95.3999512900299L123.43377532991568,100.36253393786494L123.68313699595927,91.50581029228096L123.93249866200289,94.34889467486695L124.18186032804647,87.42617535923424L124.43122199409008,88.80320348425181L124.68058366013368,93.7355741255403L124.92994532617728,98.56700533991024L125.17930699222087,84.85620823349714L125.42866865826448,82.88029179265143L125.67803032430807,89.60458768773447L125.92739199035168,88.3296166256412L126.17675365639528,91.65222806260104L126.42611532243887,82.77718742013087L126.67547698848247,89.67816112738376L126.92483865452608,90.16593290829886L127.17420032056967,96.83344212558849L127.42356198661328,97.72408356323281L127.67292365265688,92.54760392027262L127.92228531870047,82.8794581190151L128.1716469847441,85.30742955276273L128.42100865078768,87.21776500713088L128.67037031683128,92.64563199366373L128.91973198287488,97.16293048707004L129.16909364891848,92.80492920638268L129.41845531496207,98.15396471478942L129.66781698100567,91.7415800713638L129.91717864704927,97.47252870094185L130.16654031309287,98.98057522653454L130.41590197913646,103.9422019823802L130.66526364518006,106.09523625064581L130.91462531122366,107.27240921336593L131.16398697726726,94.38987761261774L131.41334864331085,99.10896325955522L131.66271030935445,93.20321876506921L131.91207197539808,81.31213356486253L132.16143364144165,87.90175782612553L132.41079530748527,93.49642654961833L132.66015697352887,90.46162498601326L132.90951863957247,95.64795852182164L133.15888030561607,97.89967799505132L133.40824197165966,103.19728602280564L133.65760363770326,105.50412194724974L133.90696530374686,108.1749484788924L134.15632696979046,109.78930232522261L134.40568863583405,108.89765814819856L134.65505030187765,108.34674576778407L134.90441196792128,107.54184539534837L135.15377363396485,110.50123785179981L135.40313530000847,98.26204560646825L135.65249696605207,97.49224720947704L135.90185863209564,100.55573289898425L136.15122029813926,104.42369898963834L136.40058196418283,99.86296118158938L136.64994363022646,104.70156479488448L136.89930529627006,103.55033257089141L137.14866696231365,106.75673869173777L137.39802862835725,100.98730734195938L137.64739029440085,96.75348703049212L137.89675196044445,100.61361576779295L138.14611362648805,100.21139486395154L138.39547529253164,102.4470344696053L138.64483695857524,102.0175982958286L138.89419862461884,94.34431469656593L139.14356029066246,88.77180431617602L139.39292195670603,95.80594654215976L139.64228362274966,97.46449838006794L139.89164528879326,103.74042937913195L140.14100695483685,100.55231441847037L140.39036862088045,98.25698295345548L140.63973028692405,93.17862816468237L140.88909195296765,97.78690803733471L141.13845361901124,99.23407361732662L141.38781528505484,101.0584198124519L141.63717695109844,105.19350778569304L141.88653861714204,106.89301108995386L142.13590028318563,96.2401823243014L142.38526194922923,97.17598698438125L142.63462361527283,91.65118392300316L142.88398528131643,88.44602562066078L143.13334694736002,96.49571008350362L143.38270861340365,95.2184033498636L143.63207027944722,92.67502218888221L143.88143194549085,96.90907358362716L144.13079361153444,100.51242728474429L144.38015527757804,105.64491832522047L144.62951694362164,98.15078054419004L144.87887860966524,104.12792540113702L145.12824027570883,100.26613870306346L145.37760194175243,95.07743364225429L145.62696360779603,98.55538861147564L145.87632527383963,90.67614841340502L146.12568693988322,89.34866859615629L146.37504860592685,96.83651863751788L146.62441027197042,103.19452067192192L146.87377193801404,91.112063821215L147.12313360405764,97.37392185357089L147.37249527010124,102.61391225839168L147.62185693614484,99.32303252569076L147.87121860218843,86.13485035728814L148.12058026823203,92.47944031001131L148.36994193427563,99.5482040788195L148.61930360031923,78.3484308247614L148.86866526636283,87.89332184098937L149.11802693240642,93.54006532314423L149.36738859845002,88.40342948619477L149.61675026449362,95.41189006295332L149.86611193053722,97.3233250602669L150.11547359658084,104.29228553047852L150.36483526262444,102.32548155855282L150.614196928668,104.66151982414802L150.8635585947116,106.37874144167776L151.11292026075523,104.24399044487691L151.36228192679883,108.38570884359008L151.61164359284243,105.57291108704499L151.861005258886,107.76172476828951L152.11036692492962,111.88753628899136L152.35972859097322,107.19618779499382L152.60909025701682,109.56675140263057L152.85845192306041,112.04701877034596L153.10781358910404,112.48314986390069L153.3571752551476,103.83037529403401L153.6065369211912,107.93804770035251L153.8558985872348,101.91099061344983L154.10526025327843,106.93950609346189L154.35462191932203,95.41929421962811L154.60398358536563,93.88574073112993L154.8533452514092,99.74908705386348L155.1027069174528,95.7520831499803L155.35206858349642,101.38687870421506L155.60143024954002,94.78442580495847L155.8507919155836,99.70544367042801L156.1001535816272,97.7285909611669L156.3495152476708,100.26482839730606L156.5988769137144,103.50302130040642L156.848238579758,104.71519337370601L157.0976002458016,105.08841745109513L157.34696191184523,109.48491657153579L157.59632357788882,111.90375569679122L157.8456852439324,110.0138362552615L158.095046909976,108.65006721500062L158.34440857601962,110.11487170050104L158.59377024206321,107.38052390865937L158.8431319081068,100.16691840169922L159.09249357415038,104.42014406344431L159.34185524019398,100.58499548459284L159.5912169062376,104.69451639832701L159.8405785722812,93.02371271135831L160.0899402383248,100.6697744267777L160.33930190436843,105.65100600255703L160.588663570412,105.81046747567939L160.8380252364556,109.82364977311055L161.0873869024992,104.8804387204748L161.3367485685428,105.98937688100281L161.5861102345864,110.72624078014948L161.83547190063,112.68858700840289L162.08483356667358,113.05227573483536L162.33419523271718,114.4303739788468L162.5835568987608,116.84624997590161L162.8329185648044,114.12291262878432L163.082280230848,115.82655738618588L163.3316418968916,119.09613369074731L163.5810035629352,116.7296243685164L163.8303652289788,110.41571257744478L164.0797268950224,106.34535788258248L164.329088561066,110.08220301648295L164.5784502271096,102.57441262328723L164.82781189315318,98.50603661615723L165.07717355919678,103.89011087601803L165.32653522524038,108.63289014896208L165.575896891284,111.84246383328404L165.8252585573276,114.25363300654469L166.0746202233712,117.5268061919406L166.32398188941477,120.31386635950805L166.57334355545837,112.11398269990514L166.822705221502,106.82010409987728L167.0720668875456,111.46958996193433L167.3214285535892,103.53951730760471L167.5707902196328,107.18817091896011L167.82015188567638,106.68213496732743L168.06951355171998,99.93988971406596L168.31887521776358,98.26269238590442L168.56823688380717,103.73452593577709L168.8175985498508,101.96109935535829L169.0669602158944,100.7926748674415L169.31632188193797,100.5425816181209L169.56568354798156,106.70542928741932L169.8150452140252,111.64402310524231L170.0644068800688,114.40007607274633L170.31376854611239,113.21475999997797L170.56313021215595,115.10587689212306L170.81249187819958,117.85692288195278L171.06185354424318,111.41078976641657L171.31121521028678,113.03259934604083L171.56057687633037,116.82305532580884L171.809938542374,108.42155598660942L172.05930020841757,112.16052159862153L172.30866187446117,106.06873569023188L172.55802354050476,111.49675535400469L172.8073852065484,113.3126996209457L173.056746872592,117.5878182670262L173.30610853863558,117.90848320364154L173.55547020467915,114.99167328241745L173.80483187072275,116.60578798237451L174.05419353676638,114.12130099843246L174.30355520280997,107.24392090836162L174.55291686885357,98.33669816371429L174.80227853489717,105.74992894503157L175.05164020094077,104.36153961337294L175.30100186698436,101.00695641306791L175.55036353302796,97.7961286416108L175.79972519907156,96.21136280645007L176.04908686511519,98.82981672252362L176.29844853115878,97.23649935051712L176.54781019720235,104.13828794608403L176.79717186324595,99.38319979522298L177.04653352928958,103.98909928665252L177.29589519533317,107.76167880096685L177.54525686137677,112.04467854361182L177.79461852742034,114.69224710436572L178.04398019346394,117.56354025275905L178.29334185950756,119.7663271430903L178.54270352555116,123.30462304631386L178.79206519159476,114.7562488342159L179.04142685763838,116.29382727896538L179.29078852368195,119.26371268194451L179.54015018972555,122.02160134833935L179.78951185576915,116.06322458427313L180.03887352181275,114.39264919581763L180.28823518785637,117.27153038932028L180.53759685389997,112.54888034817559L180.78695851994354,113.6192528236972L181.03632018598714,114.29899981458183L181.28568185203076,116.98509529244191L181.53504351807436,116.65871302481783L181.78440518411796,117.60795204493928L182.03376685016156,119.44673315011724L182.28312851620515,122.28293961133343L182.53249018224875,121.43919033955578L182.78185184829235,121.52682025888078L183.03121351433595,123.82751988976156L183.28057518037957,124.52977256938398L183.52993684642314,124.06274543603901L183.77929851246674,126.32250918502199L184.02866017851034,120.71452642171069L184.27802184455396,120.69021832732604L184.52738351059756,118.29248079526187L184.77674517664116,117.84797115996197L185.02610684268473,119.86498131818003L185.27546850872832,113.18143482190371L185.52483017477195,114.83453274281177L185.77419184081555,109.13689264258271L186.02355350685914,109.79324646309125L186.27291517290277,111.42391528175449L186.52227683894634,115.61637104075255L186.77163850498994,115.96809473188972L187.02100017103353,118.88368144565827L187.27036183707713,120.9764077988227L187.51972350312076,107.36049147157972L187.76908516916436,99.42602768158753L188.01844683520793,98.93888728417738L188.26780850125152,105.45609907144873L188.51717016729515,110.5662289938311L188.76653183333875,113.008394128152L189.01589349938234,114.3281647155605L189.2652551654259,117.24075095819964L189.51461683146954,119.12595368130287L189.76397849751314,111.1359341774564L190.01334016355673,113.34650926382153L190.26270182960033,105.7787325124256L190.51206349564396,109.60805667302355L190.76142516168753,112.87374287090667L191.01078682773112,110.9228617550023L191.26014849377472,109.26243267284363L191.50951015981835,111.98897276723892L191.75887182586195,106.1967243674152L192.00823349190554,110.78080146598253L192.2575951579491,114.76111006078378L192.5069568239927,116.53199282215135L192.75631849003634,118.93300214485454L193.00568015607993,119.6141885142373L193.25504182212353,117.98024272220346L193.50440348816713,119.2720875659799L193.75376515421073,120.17488975539692L194.00312682025432,121.91205022627163L194.25248848629792,123.61893325549298L194.50185015234152,125.25607197026059L194.75121181838514,127.71481109224803L195.00057348442874,129.18739949360514L195.2499351504723,125.78786979665L195.4992968165159,98.84009068107213L195.74865848255953,97.48661771796526L195.99802014860313,96.0469555223803L196.24738181464673,101.44292165515085L196.4967434806903,97.94653370564035L196.7461051467339,104.27693864391134L196.99546681277752,88.31362770439293L197.24482847882112,85.1538059213023L197.49419014486472,93.00275633588727L197.74355181090834,100.04584704017924L197.9929134769519,106.05142261401852L198.2422751429955,111.64126537998199L198.4916368090391,115.35417547196286L198.7409984750827,119.65293991161603L198.99036014112633,121.70651667340157L199.23972180716993,114.30144997055243L199.4890834732135,116.89313241623334L199.7384451392571,120.07318075223361L199.98780680530072,119.42247614191449L200.23716847134432,114.15796175682617L200.48653013738792,108.78001747932596L200.7358918034315,112.71460903447853L200.9852534694751,113.83111559387852L201.2346151355187,108.60355671728674L201.4839768015623,113.03323955618129L201.7333384676059,114.39141902567783L201.98270013364953,118.06828713778876L202.2320617996931,120.352503355071L202.4814234657367,123.52783623301468L202.7307851317803,124.85980820105831L202.98014679782392,123.50810827363615L203.22950846386752,116.67346494885047L203.47887012991112,101.9170294882011L203.72823179595468,107.00674481062967L203.97759346199828,111.85004902751372L204.2269551280419,113.47797354481334L204.4763167940855,108.38441236722747L204.7256784601291,113.0711819613758L204.97504012617273,117.24873907045357L205.2244017922163,121.19131386620167L205.4737634582599,123.3200311176977L205.7231251243035,126.52078899883843L205.9724867903471,117.2082147329953L206.22184845639072,119.82391200920314L206.47121012243431,121.60110504933469L206.72057178847788,120.86414917606793L206.96993345452148,122.41863223480884L207.2192951205651,122.35068820328208L207.4686567866087,120.69141890931668L207.7180184526523,121.57097842112177L207.96738011869587,124.29158363511463L208.2167417847395,126.10872590760144L208.4661034507831,119.15820900798285L208.7154651168267,121.22916373777333L208.9648267828703,123.6820427429108L209.21418844891392,122.97368181354221L209.46355011495748,117.11068569699499L209.71291178100108,121.00619170810495L209.96227344704468,113.08811882962426L210.2116351130883,116.0380331731298L210.4609967791319,119.28746182456035L210.7103584451755,114.13619845539625L210.95972011121907,117.19211723023817L211.20908177726267,114.37539621771715L211.4584434433063,117.46866171148635L211.7078051093499,120.91840765398608L211.9571667753935,114.12672109628623L212.2065284414371,116.55581291332757L212.45589010748068,119.34810701221235L212.70525177352428,121.57464343794646L212.95461343956788,114.06051060008018L213.20397510561148,115.3733676933546L213.4533367716551,116.74164169397018L213.7026984376987,112.25175260128542L213.95206010374227,109.05449224481947L214.20142176978587,112.81575879306929L214.4507834358295,114.97508360554343L214.7001451018731,119.82724342613415L214.9495067679167,121.29345460017905L215.19886843396026,121.27307301265718L215.44823010000385,122.61780200470164L215.69759176604748,123.78261984122194L215.94695343209108,126.77929257231864L216.19631509813468,126.66249471321044L216.4456767641783,128.70059487068906L216.69503843022187,130.0578772517571L216.94440009626547,122.92855379348579L217.19376176230907,119.36235002959496L217.44312342835266,119.75645930791867L217.6924850943963,116.97173444203808L217.9418467604399,118.78731637361972L218.19120842648346,117.39115081410888L218.44057009252705,112.28527605192546L218.68993175857068,116.04945074324816L218.93929342461428,119.19167512656232L219.18865509065787,119.15101763453994L219.43801675670147,118.64038832425673L219.68737842274507,121.82563227992861L219.93674008878867,124.31438989411394L220.18610175483226,123.97479610421207L220.43546342087586,122.26628147066101L220.6848250869195,124.44773017455313L220.93418675296306,124.55746472499325L221.18354841900666,124.04830931594131L221.43291008505025,125.1575418795188L221.68227175109388,126.33828373148947L221.93163341713748,120.20351153909694L222.18099508318107,123.02365868543254L222.43035674922464,125.53848675503727L222.67971841526824,128.25394941290907L222.92908008131187,119.65041283774781L223.17844174735546,122.34937386744595L223.42780341339906,124.68503473412778L223.6771650794427,114.47372278124574L223.92652674548626,118.01396747917263L224.17588841152985,121.03089770060731L224.42525007757345,123.68113525066823L224.67461174361705,114.36656560028891L224.92397340966068,115.39128830005365L225.17333507570427,119.55433708940609L225.42269674174784,122.03647167693939L225.67205840779144,122.47096016568618L225.92142007383507,124.49001027372044L226.17078173987866,126.45128127237962L226.42014340592226,127.7059189619893L226.66950507196583,126.48143338734944L226.91886673800946,127.43728568722418L227.16822840405305,128.34312318300437L227.41759007009665,127.42777429980671L227.66695173614025,120.25278447832585L227.91631340218387,120.43178165950384L228.16567506822744,123.43097757224399L228.41503673427104,126.95666927116825L228.66439840031464,128.3668500562565L228.91376006635826,127.30005410868678L229.16312173240186,119.568095405984L229.41248339844546,118.76941486092268L229.66184506448903,110.98495318175243L229.91120673053263,115.93834300781607L230.16056839657625,117.82365383198294L230.40993006261985,121.60776244592891L230.65929172866345,116.8549811078232L230.90865339470704,121.38502220802255L231.15801506075064,115.91039878707724L231.40737672679424,119.61436226463421L231.65673839283784,124.10515042664072L231.90610005888144,114.35563656597765L232.15546172492506,118.69635797623897L232.40482339096866,113.39343590488106L232.65418505701223,115.96343409741841L232.90354672305583,120.15753648534856L233.15290838909945,121.88765027199112L233.40227005514305,116.61400388181409L233.65163172118665,120.4997461872677L233.90099338723022,122.7548070234365L234.1503550532738,125.49136115724183L234.39971671931744,127.46018667124949L234.64907838536104,126.52401163269514L234.89844005140463,128.7731239402745L235.14780171744826,129.48948289022678L235.39716338349183,123.643759238009L235.64652504953543,126.40827227925779L235.89588671557902,128.1257202339805L236.14524838162262,126.58026608871663L236.39461004766625,129.38350296102348L236.64397171370985,130.42712516233874L236.89333337975341,131.31276963829535L237.142695045797,130.6024428593466L237.39205671184064,130.20751099352168L237.64141837788424,131.77776563141174L237.89078004392783,130.2008062482768L238.14014170997143,131.38239969977218L238.38950337601503,131.88151810131106L238.63886504205863,132.64867503257764L238.88822670810222,134.22116675690705L239.13758837414582,132.00374131389873L239.38695004018945,133.73605727957516L239.63631170623302,133.09451510829544L239.8856733722766,131.7795426434388L240.1350350383202,131.869631648215L240.38439670436384,131.9728830820756L240.63375837040743,131.92017691902132L240.88312003645103,130.9223855583017L241.1324817024946,130.1732836264882L241.3818433685382,131.3662333164566L241.63120503458182,124.12782278552858L241.88056670062542,123.95806871066894L242.12992836666902,124.55143290266136L242.37929003271265,118.73450296402264L242.62865169875622,122.2617029245743L242.8780133647998,125.15212390353534L243.1273750308434,125.97344746693348L243.376736696887,122.79956828408613L243.62609836293063,124.52983943044853L243.87546002897423,125.91616326777392L244.1248216950178,124.01544846595087L244.3741833610614,125.9596778994866L244.62354502710502,118.46941835724265L244.87290669314862,120.80611314797606L245.12226835919222,122.06323054918546L245.3716300252358,113.8661381416146L245.62099169127941,118.9751792346526L245.870353357323,117.9165116411944L246.1197150233666,122.70072610107687L246.3690766894102,123.22916162639571L246.61843835545383,117.08494282664128L246.8678000214974,119.62082004006909L247.117161687541,122.60125608068445L247.3665233535846,126.23968223684165L247.61588501962822,128.88387543647676L247.86524668567182,126.381461674374L248.11460835171542,128.58068666742938L248.363970017759,131.2095840957991L248.61333168380258,130.8664175417691L248.8626933498462,132.8301392637508L249.1120550158898,133.58473347051557L249.3614166819334,134.80520510334574L249.610778347977,134.55390179863943L249.8601400140206,134.13314366858296L250.1095016800642,125.94295114519595L250.3588633461078,127.26387342114802L250.6082250121514,127.62680754514108L250.85758667819502,127.15234574618573L251.10694834423862,120.98662555796606L251.3563100102822,114.31428233844241L251.60567167632578,119.22378148126111L251.8550333423694,115.75125462072472L252.104395008413,114.22707382742891L252.3537566744566,118.52155123837285L252.60311834050017,123.0323441626562L252.85248000654377,119.4816648050536L253.1018416725874,120.33407965575698L253.351203338631,118.44567116350241L253.6005650046746,120.36053983379624L253.84992667071822,124.55792528592524L254.0992883367618,119.24250892173131L254.34865000280539,120.40415031968926L254.59801166884898,123.82851972775045L254.84737333489258,124.86043008660212L255.0967350009362,126.22397628718909L255.3460966669798,128.86576253767734L255.59545833302337,130.89694501829203L255.84481999906697,131.41788458860958L256.09418166511057,133.17693980077135L256.3435433311542,134.0469273103496L256.5929049971978,132.60533095113223L256.8422666632414,132.74212061868786L257.09162832928496,125.11720690307257L257.3409899953286,127.12331511988053L257.5903516613722,125.18707213813111L257.8397133274158,123.90971635983026L258.0890749934594,118.73684771991569L258.338436659503,121.422211459161L258.5877983255466,121.15382704620954L258.83715999159017,124.70410513559212L259.0865216576338,127.90904964704649L259.33588332367736,129.49861106762523L259.585244989721,129.73725834920083L259.83460665576456,130.1026568748657L260.0839683218082,130.95103506077575L260.33332998785176,131.58876129509187L260.5826916538954,131.15736830287997L260.832053319939,132.14603967997348L261.0814149859826,126.61887835670416L261.33077665202615,128.25372393304386L261.58013831806977,130.37384888134054L261.8294999841134,133.11133648160984L262.07886165015697,133.21437638495726L262.3282233162006,132.62946448064253L262.57758498224416,131.8953143855817L262.8269466482878,130.08012296417675L263.07630831433136,131.86267006529027L263.325669980375,124.52603574984629L263.57503164641855,126.77788266055902L263.8243933124622,128.60202642354903L264.07375497850575,127.77679443330567L264.3231166445494,130.00933706221457L264.57247831059294,115.29991538344649L264.82183997663657,119.90674864482115L265.0712016426802,123.1995579947752L265.32056330872376,119.13488374351402L265.56992497476733,122.19997583639636L265.81928664081096,123.62875995179245L266.0686483068546,126.86892402663626L266.31800997289815,126.5292652526566L266.5673716389418,126.55068477411851L266.8167333049854,128.61696494975402L267.066094971029,128.2511258260442L267.31545663707254,130.07195488834662L267.56481830311617,131.18095693116226L267.81417996915974,125.11137236549769L268.06354163520336,127.8042235030717L268.312903301247,125.20784264482839L268.56226496729056,120.40090279728653L268.81162663333413,123.95090831077599L269.06098829937775,126.9307635521462L269.3103499654214,127.44993028540674L269.55971163146495,118.39053852971787L269.8090732975086,120.58251872117624L270.05843496355214,114.81517236053416L270.30779662959577,119.47748276056122L270.55715829563934,111.64569007676506L270.80651996168297,116.39170317684093L271.0558816277266,120.96418198362726L271.30524329377016,123.23900599928572L271.55460495981373,124.1480739936218L271.80396662585736,117.57432262203628L272.053328291901,118.36229796753916L272.30268995794455,115.31839208774814L272.5520516239882,119.19494820729484L272.80141329003175,123.3430752001223L273.0507749560753,126.34082092508132L273.30013662211894,129.52624505133548L273.54949828816257,128.37452863326928L273.79885995420614,131.61596589010588L274.04822162024976,132.70440412589613L274.29758328629333,135.5331842358483" fill="none"></path></g></g></g></g><g opacity="0.2"><g><g><g><path style="fill: none;" stroke="rgb(0, 119, 187)" stroke-width="2px" d="M25.185278908737498,155.80717798741463L25.4346405747811,149.8716457410429L25.6840022408247,138.11016457392648L25.933363906868298,125.58687111217264L26.1827255729119,115.03348280827785L26.432087238955496,100.66411838340073L26.681448904999097,95.01909213273223L26.9308105710427,86.90475873445544L27.180172237086296,75.67395599641523L27.429533903129897,75.23647952497808L27.67889556917349,69.3061980004612L27.928257235217092,58.23438268866366L28.177618901260693,45.233573271101534L28.42698056730429,52.964446344425994L28.676342233347892,49.74156574344883L28.925703899391493,44.857384431454335L29.17506556543509,49.283559010084815L29.424427231478692,34.863188926269544L29.67378889752229,37.44726512219677L29.92315056356589,34.20114271526464L30.17251222960949,20.106755801856167L30.42187389565309,25.46506995533201L30.67123556169669,14.076079780746849L30.920597227740284,17.487202168070866L31.169958893783885,25.80125931009292L31.419320559827487,9.6409032127809L31.668682225871084,17.094752485199393L31.918043891914685,31.18601522831463L32.16740555795829,5.997649078009545L32.41676722400189,35.83873004745254L32.666128890045485,34.09885350623023L32.91549055608908,39.22130543398407L33.16485222213268,41.65134571885034L33.414213888176285,13.425292372119376L33.66357555421988,56.86096037560884L33.91293722026348,60.34153028963959L34.16229888630708,61.712535791712895L34.41166055235068,52.200717232368106L34.66102221839428,42.42626626573218L34.91038388443788,72.8847287582145L35.15974555048148,34.625634090766056L35.40910721652508,54.73732456591557L35.65846888256868,58.5630352983776L35.907830548612274,67.4112245092104L36.15719221465587,57.75938248993111L36.40655388069948,50.61354609302526L36.655915546743074,65.72973037403364L36.90527721278667,59.10970615308216L37.154638878830276,40.97497548178404L37.404000544873874,58.185692789376844L37.65336221091748,48.728046163984345L37.902723876961076,61.693832874674484L38.152085543004674,74.78328957168878L38.401447209048264,62.01618661813686L38.650808875091876,71.16851507015645L38.900170541135466,65.16265557156498L39.149532207179064,63.86252915671017L39.39889387322267,65.92832150078578L39.648255539266266,49.21604830054099L39.897617205309864,65.24374084313757L40.14697887135347,59.492572801469294L40.396340537397066,68.4070432639947L40.64570220344066,80.58234752294615L40.89506386948426,38.54709937957372L41.144425535527866,53.09572044335064L41.39378720157146,71.31567949076117L41.64314886761506,56.03535416566791L41.892510533658665,67.22131537591457L42.14187219970226,72.63754036256154L42.39123386574586,46.41642119626982L42.640595531789465,66.87388406066458L42.88995719783306,67.12781763261097L43.13931886387666,52.342332250753856L43.388680529920265,66.61770209662035L43.63804219596386,27.528479172202825L43.88740386200746,33.550254255306925L44.13676552805106,-34.88805597445253L44.38612719409466,80.46707321797604L44.63548886013826,37.009973911531745L44.88485052618185,64.3080981555106L45.13421219222546,70.64908596989548L45.38357385826905,58.694511499962715L45.63293552431265,30.208832023015248L45.882297190356255,25.87495099266971L46.13165885639985,35.713796919500425L46.38102052244345,75.66764870921946L46.630382188487054,69.46374544524798L46.87974385453065,75.1675035711458L47.12910552057425,64.41442941775458L47.37846718661785,79.11719586486689L47.62782885266145,69.17371970651789L47.87719051870505,37.072229951903125L48.12655218474865,23.65391012157025L48.37591385079225,18.121257160599583L48.62527551683585,66.7659107143042L48.87463718287945,67.98205505278625L49.12399884892305,75.93229372217121L49.37336051496665,54.66087923458977L49.622722181010246,34.68465648856983L49.87208384705385,71.51206433013644L50.12144551309745,81.29252785092157L50.370807179141046,36.51638868897939L50.620168845184644,83.75578033965971L50.86953051122825,73.01565759842748L51.118892177271846,69.38183492114507L51.368253843315436,45.82081623489702L51.61761550935905,61.24996490659973L51.86697717540264,73.9619948851714L52.116338841446236,47.8766718648325L52.36570050748984,73.55431171426639L52.61506217353344,28.264831794710148L52.864423839577036,11.602208481389425L53.11378550562064,81.53415842341138L53.36314717166424,57.7311470640735L53.612508837707836,75.83459392771846L53.86187050375143,59.91577577251019L54.11123216979504,27.9299813700749L54.360593835838635,67.20171141784823L54.60995550188223,47.99936502163101L54.85931716792584,25.041336464807358L55.108678833969435,56.94794030811204L55.35804050001303,63.44149036832522L55.60740216605664,78.06202629545555L55.856763832100235,75.32905938536538L56.10612549814383,64.5451561553071L56.35548716418744,53.737539546419384L56.604848830231035,63.36020299409216L56.85421049627463,20.592400074040544L57.10357216231822,81.91360616845878L57.352933828361834,63.468765806545576L57.602295494405425,84.83804850746347L57.85165716044902,62.34718867127884L58.10101882649263,86.19463735308932L58.350380492536225,66.23785014625201L58.59974215857982,74.2727950932098L58.84910382462343,65.90684809311L59.098465490667024,67.45682392198074L59.34782715671062,58.262247592977076L59.59718882275422,70.76785496670306L59.846550488797824,91.57212178600591L60.09591215484142,36.11972011307043L60.34527382088502,35.60863616849838L60.594635486928624,82.87209487766395L60.84399715297222,21.98308532267788L61.09335881901582,72.31475715094567L61.342720485059424,75.8261645625877L61.59208215110302,86.13846965536482L61.84144381714662,93.45515016792805L62.09080548319022,89.61487120202324L62.34016714923382,50.21283546390674L62.58952881527742,88.37275246119768L62.838890481321016,79.07485535749674L63.08825214736462,82.36000884073368L63.33761381340822,38.284365920952354L63.58697547945181,80.21296280620172L63.83633714549542,94.23105596527975L64.08569881153902,65.08310291183435L64.33506047758262,47.10382287022054L64.58442214362621,77.85973837420548L64.83378380966981,91.30675678232623L65.08314547571341,98.02264503189775L65.33250714175702,75.16101944412213L65.58186880780062,59.202614430292726L65.83123047384422,74.12693591895399L66.08059213988781,91.40815758174898L66.32995380593141,90.31615480246552L66.57931547197501,43.8421975050409L66.8286771380186,71.15437630486718L67.07803880406222,70.99680359724783L67.3274004701058,66.782735760789L67.5767621361494,73.60464369766959L67.82612380219301,87.61359171136101L68.07548546823661,76.4424766257153L68.3248471342802,54.536830305777215L68.5742088003238,83.24645637242264L68.8235704663674,101.207075601719L69.072932132411,29.74157067199016L69.3222937984546,97.80938462037255L69.5716554644982,62.67956333832325L69.8210171305418,63.480058292699766L70.0703787965854,100.72391550806964L70.319740462629,56.81937775321549L70.5691021286726,72.24763380483441L70.8184637947162,57.55370092817384L71.0678254607598,88.49597613747994L71.3171871268034,67.21624596751425L71.566548792847,79.33183731123867L71.8159104588906,51.27410179690915L72.0652721249342,67.33171395420067L72.3146337909778,77.78298146794478L72.56399545702139,48.565227208136776L72.813357123065,105.302361809954L73.06271878910859,83.11951063880991L73.31208045515218,82.58152177756173L73.5614421211958,93.69097028892912L73.8108037872394,99.07727145040906L74.06016545328299,98.07569276980115L74.30952711932659,85.42612514473345L74.55888878537019,53.301124113949754L74.80825045141378,62.17969609140772L75.0576121174574,81.76763752192855L75.30697378350098,80.30529845920759L75.55633544954459,92.75303710448338L75.80569711558819,89.55960454532669L76.05505878163179,63.26564421182101L76.30442044767538,87.19265397430632L76.553782113719,69.09297969365693L76.80314377976258,96.7929556046916L77.05250544580619,71.9223495727951L77.30186711184979,12.663820073103492L77.55122877789339,100.93605172354594L77.80059044393698,87.24611854894692L78.0499521099806,94.72774009529275L78.29931377602418,74.795575729257L78.54867544206779,77.66226723303012L78.79803710811139,96.24532055187768L79.04739877415497,103.7800529932083L79.29676044019858,52.64370100130327L79.5461221062422,79.48599953646243L79.79548377228578,86.0031619241748L80.04484543832938,81.03372697323533L80.29420710437297,107.18595860560873L80.54356877041657,88.05895018655679L80.79293043646018,98.7001268335967L81.04229210250377,83.03564645565575L81.29165376854738,72.98987266732814L81.54101543459097,108.99004063578167L81.79037710063457,60.5604495756582L82.03973876667817,96.08213949543011L82.28910043272178,97.32672557290232L82.53846209876536,52.486490394283976L82.78782376480898,96.2833537462964L83.03718543085257,107.9539234525925L83.28654709689617,95.66969007011548L83.53590876293977,89.09351370554356L83.78527042898338,78.81086717819159L84.03463209502696,97.26465479330301L84.28399376107058,97.9373198149272L84.53335542711417,112.77618135151096L84.78271709315777,102.12571640303327L85.03207875920137,80.92243577486548L85.28144042524498,88.79307967979884L85.53080209128856,89.1096777079097L85.78016375733218,106.37171645984762L86.02952542337576,107.28352366495449L86.27888708941936,24.715050140409858L86.52824875546297,66.65932682373463L86.77761042150655,71.31767525453338L87.02697208755016,106.56778130334382L87.27633375359376,57.357762398840435L87.52569541963736,106.32255498768637L87.77505708568096,112.02992990911233L88.02441875172457,59.296945847070816L88.27378041776815,64.8381039616699L88.52314208381176,95.66271752832898L88.77250374985536,54.03493361131274L89.02186541589896,63.08400444571643L89.27122708194256,109.27727483151392L89.52058874798617,24.080127790629916L89.76995041402975,19.326260589922782L90.01931208007336,101.40817616983878L90.26867374611696,95.30368215198988L90.51803541216056,92.49925089906026L90.76739707820416,63.87360269831552L91.01675874424777,72.03038186576478L91.26612041029135,107.06054127336589L91.51548207633496,49.792975607707916L91.76484374237856,48.621655955131075L92.01420540842214,94.1093354275348L92.26356707446575,92.31801954874874L92.51292874050934,95.25233123434009L92.76229040655295,90.99682814201117L93.01165207259655,83.18989289032137L93.26101373864014,101.38086704784169L93.51037540468374,97.80381837626524L93.75973707072735,76.8315831937447L94.00909873677094,77.94107627410366L94.25846040281455,69.96679580906601L94.50782206885815,111.22557395182625L94.75718373490174,96.81176378353234L95.00654540094534,71.73850351931364L95.25590706698895,61.889249305468326L95.50526873303254,99.75347747906372L95.75463039907615,62.44829894812716L96.00399206511975,95.66432171819653L96.25335373116334,99.35860677473858L96.50271539720694,113.09864035677566L96.75207706325055,51.72815068650547L97.00143872929414,91.82079647830778L97.25080039533775,52.99010496136253L97.50016206138135,107.8946105322143L97.74952372742493,114.33960121777557L97.99888539346854,97.78517019536406L98.24824705951215,59.66914315917356L98.49760872555574,70.39705553133527L98.74697039159933,54.847007363945806L98.99633205764293,96.8527695712489L99.24569372368653,71.93767569121468L99.49505538973014,31.406029237077465L99.74441705577372,93.15632033205091L99.99377872181734,51.104360824940215L100.24314038786093,109.14672493378933L100.49250205390453,59.83954096478905L100.74186371994813,28.092194017941036L100.99122538599174,107.15324744791596L101.24058705203532,106.67684516197636L101.48994871807894,103.88301166730554L101.73931038412253,73.5969974803482L101.98867205016613,47.61883939572772L102.23803371620973,97.26873053028933L102.48739538225334,115.92238083472512L102.73675704829692,71.11434313620416L102.98611871434053,63.098597941991784L103.23548038038413,92.37752194037111L103.48484204642773,108.8704800702206L103.73420371247133,113.11676643913728L103.98356537851494,98.39325078554924L104.23292704455852,110.39295730585002L104.48228871060213,54.41976233969535L104.73165037664572,69.96331795911698L104.98101204268931,102.23846021427534L105.23037370873293,5.846139450204559L105.47973537477651,112.50049227025855L105.72909704082012,109.79448922345381L105.97845870686372,65.31681779678874L106.22782037290732,100.06159982685077L106.47718203895091,73.29289192293814L106.72654370499453,61.674877329310505L106.97590537103811,117.44034444427055L107.22526703708172,84.06431531371192L107.47462870312532,101.43479477441255L107.72399036916892,117.46409992782088L107.97335203521251,92.00134573214021L108.22271370125613,113.30502927784462L108.47207536729971,91.8764589193811L108.72143703334332,79.36483057056171L108.97079869938692,93.10754622332223L109.22016036543052,102.26517987017934L109.46952203147411,107.93701840713794L109.71888369751773,114.74290128723146L109.96824536356131,110.46147431822413L110.21760702960492,115.4317429426381L110.46696869564852,109.06782068676105L110.7163303616921,97.05093965079175L110.96569202773571,113.09846351694776L111.2150536937793,91.46455264496652L111.46441535982291,109.05511348198348L111.7137770258665,107.23031171863948L111.9631386919101,17.15529907390092L112.2125003579537,102.78033955173771L112.46186202399731,71.3297761513295L112.7112236900409,33.30171008763995L112.96058535608451,95.45470757550413L113.2099470221281,64.45431943036641L113.4593086881717,74.31895870924063L113.7086703542153,62.87974602352671L113.95803202025891,107.35717745328242L114.2073936863025,76.13892685062154L114.45675535234611,92.19106539419181L114.7061170183897,38.86629526896613L114.9554786844333,98.8336745874517L115.2048403504769,101.31472895220026L115.45420201652051,121.45235172497235L115.7035636825641,113.03515906902513L115.9529253486077,110.56095093190024L116.2022870146513,119.48247814565397L116.45164868069489,108.12347074284514L116.7010103467385,120.0954344625232L116.95037201278211,119.12660062338483L117.1997336788257,40.86040011518139L117.44909534486929,62.197009552655345L117.69845701091289,104.51142041675718L117.94781867695649,107.81221580382069L118.1971803430001,113.37626204471891L118.44654200904368,123.69384917473707L118.6959036750873,84.98912024617076L118.94526534113089,89.94753639164207L119.19462700717449,107.8280808626682L119.44398867321809,92.56871947812746L119.6933503392617,64.11330487458659L119.94271200530528,97.64824143241813L120.1920736713489,110.20188608225646L120.44143533739249,95.43712043357044L120.69079700343609,101.22911321265528L120.94015866947969,86.30369700124976L121.1895203355233,111.72501594106035L121.43888200156688,68.83590510952894L121.6882436676105,31.446037142907926L121.93760533365409,113.83476140331786L122.18696699969769,124.40782524330459L122.43632866574129,114.48739299872219L122.6856903317849,108.64487455451786L122.93505199782848,116.73787770117002L123.18441366387209,62.0349905865055L123.43377532991568,120.21286452920509L123.68313699595927,56.07891570994511L123.93249866200289,105.7212322052109L124.18186032804647,59.73529809670336L124.43122199409008,94.31131598432208L124.68058366013368,113.46505669069433L124.92994532617728,117.89273019739002L125.17930699222087,30.013019807844643L125.42866865826448,74.97662602926852L125.67803032430807,116.50177126806665L125.92739199035168,83.2297323772681L126.17675365639528,104.94267381044043L126.42611532243887,47.27702485025014L126.67547698848247,117.28205595639537L126.92483865452608,92.11702003195919L127.17420032056967,123.50347899474704L127.42356198661328,101.2866493138101L127.67292365265688,71.84168534843184L127.92228531870047,44.20687491398502L128.1716469847441,95.01931528775316L128.42100865078768,94.85910682460343L128.67037031683128,114.35709993979529L128.91973198287488,115.23212446069516L129.16909364891848,75.37292408363328L129.41845531496207,119.55010674841643L129.66781698100567,66.09204149766134L129.91717864704927,120.39632321925399L130.16654031309287,105.01276132890536L130.41590197913646,123.78870900576288L130.66526364518006,114.70737332370828L130.91462531122366,111.98110106424642L131.16398697726726,42.8597512096249L131.41334864331085,117.98530584730523L131.66271030935445,69.58024078712515L131.91207197539808,33.74779276403578L132.16143364144165,114.2602548711775L132.41079530748527,115.87510144358956L132.66015697352887,78.32241873159305L132.90951863957247,116.39329266505507L133.15888030561607,106.90655588797003L133.40824197165966,124.38771813382309L133.65760363770326,114.73146564502608L133.90696530374686,118.85825460546309L134.15632696979046,116.24671771054344L134.40568863583405,105.33108144010234L134.65505030187765,106.1430962461261L134.90441196792128,104.3222439056056L135.15377363396485,122.3388076776055L135.40313530000847,49.305276625142L135.65249696605207,94.41305362151226L135.90185863209564,112.80967565701309L136.15122029813926,119.89556335225467L136.40058196418283,81.62000994939359L136.64994363022646,124.05597924806477L136.89930529627006,98.94540367491928L137.14866696231365,119.58236317512313L137.39802862835725,77.90958194284585L137.64739029440085,79.8182057846231L137.89675196044445,116.0541307169963L138.14611362648805,98.60251124858581L138.39547529253164,111.3895928922204L138.64483695857524,100.29985360072175L138.89419862461884,63.65118029951532L139.14356029066246,66.48176279461637L139.39292195670603,123.94251544609475L139.64228362274966,104.09870573170068L139.89164528879326,128.84415337538803L140.14100695483685,87.79985457582401L140.39036862088045,89.0756570933959L140.63973028692405,72.86520900958999L140.88909195296765,116.22002752794407L141.13845361901124,105.02273593729436L141.38781528505484,108.35580459295295L141.63717695109844,121.7338596786577L141.88653861714204,113.6910243069971L142.13590028318563,53.62886726169154L142.38526194922923,100.91920562470068L142.63462361527283,69.5519716774908L142.88398528131643,75.62539241129122L143.13334694736002,128.69444793487503L143.38270861340365,90.10917641530352L143.63207027944722,82.50149754495664L143.88143194549085,113.84527916260691L144.13079361153444,114.92584208921286L144.38015527757804,126.17488248712516L144.62951694362164,68.17422942006823L144.87887860966524,128.03650482892502L145.12824027570883,84.81899191076923L145.37760194175243,74.3226133990176L145.62696360779603,112.46720848836108L145.87632527383963,59.1591876211225L146.12568693988322,84.03874932716144L146.37504860592685,126.78791880296419L146.62441027197042,128.62652880953814L146.87377193801404,42.78223641838741L147.12313360405764,122.42135398299448L147.37249527010124,123.57387387767477L147.62185693614484,86.15951359488707L147.87121860218843,33.38212168367764L148.12058026823203,117.85780012090407L148.36994193427563,127.82325915405215L148.61930360031923,-6.450662191470936L148.86866526636283,126.07288590590124L149.11802693240642,116.12703925176373L149.36738859845002,67.85688613839687L149.61675026449362,123.44573236998755L149.86611193053722,104.96906504952116L150.11547359658084,132.16812741132514L150.36483526262444,94.45826567085004L150.614196928668,114.00567288652874L150.8635585947116,113.24762791179677L151.11292026075523,95.70498645767356L151.36228192679883,124.95258243844273L151.61164359284243,94.3217200608646L151.861005258886,116.5169794932676L152.11036692492962,128.39078237179874L152.35972859097322,88.4307938190037L152.60909025701682,119.04900583317755L152.85845192306041,121.96808824120748L153.10781358910404,114.22767423811962L153.3571752551476,69.2192770145673L153.6065369211912,124.36873732562651L153.8558985872348,77.80276226583905L154.10526025327843,127.05356801351016L154.35462191932203,49.338446724292965L154.60398358536563,87.75152677713723L154.8533452514092,123.20247234479766L155.1027069174528,79.76406753444758L155.35206858349642,123.92606092115417L155.60143024954002,68.37461420793215L155.8507919155836,119.3895151323062L156.1001535816272,89.8211801241224L156.3495152476708,110.40977814186272L156.5988769137144,116.45579291280791L156.848238579758,109.56388166690425L157.0976002458016,106.58131376065165L157.34696191184523,127.07091305329845L157.59632357788882,121.57911219781298L157.8456852439324,102.45415848914254L158.095046909976,103.19499105395712L158.34440857601962,115.97408964250283L158.59377024206321,96.4431327412926L158.8431319081068,71.31249637385864L159.09249357415038,121.4330467104246L159.34185524019398,85.244401169187L159.5912169062376,121.13260005326362L159.8405785722812,46.340497963483585L160.0899402383248,131.25402128845533L160.33930190436843,125.57593230567426L160.588663570412,106.44831336816878L160.8380252364556,125.87637896283525L161.0873869024992,85.10759450993177L161.3367485685428,110.42512952311486L161.5861102345864,129.6736963767362L161.83547190063,120.5379719214165L162.08483356667358,114.50703064056529L162.33419523271718,119.94276695489256L162.5835568987608,126.5097539641209L162.8329185648044,103.22956324031514L163.082280230848,122.64113641579218L163.3316418968916,132.17443890899298L163.5810035629352,107.26358707959275L163.8303652289788,85.16006541315838L164.0797268950224,90.06393910313321L164.329088561066,125.02958355208486L164.5784502271096,72.54325105050438L164.82781189315318,82.2325325876372L165.07717355919678,125.42640791546125L165.32653522524038,127.60400724073821L165.575896891284,124.68075857057195L165.8252585573276,123.89830969958729L166.0746202233712,130.61949893352426L166.32398188941477,131.46210702977788L166.57334355545837,79.31444806149338L166.822705221502,85.64458969976596L167.0720668875456,130.0675334101624L167.3214285535892,71.81922669028623L167.5707902196328,121.78278536438174L167.82015188567638,104.65799116079671L168.06951355171998,72.97090870101997L168.31887521776358,91.55390307325825L168.56823688380717,125.6218601352679L168.8175985498508,94.86739303368304L169.0669602158944,96.11897691577431L169.31632188193797,99.54220862083864L169.56568354798156,131.35681996461304L169.8150452140252,131.3983983765343L170.0644068800688,125.4242879427623L170.31376854611239,108.47349570890464L170.56313021215595,122.67034446070335L170.81249187819958,128.8611068412717L171.06185354424318,85.62625730427175L171.31121521028678,119.51983766453776L171.56057687633037,131.98487924488091L171.809938542374,74.81555862981176L172.05930020841757,127.11638404666996L172.30866187446117,81.70159205667318L172.55802354050476,133.208834009096L172.8073852065484,120.57647668870965L173.056746872592,134.68829285134828L173.30610853863558,119.19114295010289L173.55547020467915,103.32443359752116L173.80483187072275,123.06224678220269L174.05419353676638,104.1833530626642L174.30355520280997,79.73440054807824L174.55291686885357,62.70780718512506L174.80227853489717,135.40285207030072L175.05164020094077,98.80798228673842L175.30100186698436,87.5886236118478L175.55036353302796,84.95281755578239L175.79972519907156,89.87229946580706L176.04908686511519,109.30363238681792L176.29844853115878,90.86322986249104L176.54781019720235,131.74544232835171L176.79717186324595,80.36284719177871L177.04653352928958,122.41269725237066L177.29589519533317,122.8519968582242L177.54525686137677,129.17667751419177L177.79461852742034,125.28252134738119L178.04398019346394,129.04871284633245L178.29334185950756,128.57747470441527L178.54270352555116,137.45780665920825L178.79206519159476,80.56275198582398L179.04142685763838,122.44414105796335L179.29078852368195,131.14325429386108L179.54015018972555,133.05315601391865L179.78951185576915,92.22971752800822L180.03887352181275,107.71034764199561L180.28823518785637,128.78705516333093L180.53759685389997,93.65828018359679L180.78695851994354,117.90074272578357L181.03632018598714,117.01798777812041L181.28568185203076,127.72947720388223L181.53504351807436,115.35318395432145L181.78440518411796,121.40490812542515L182.03376685016156,126.80185757082901L182.28312851620515,133.62776545619823L182.53249018224875,118.06419325244514L182.78185184829235,121.87733993618079L183.03121351433595,133.03031841328465L183.28057518037957,127.33878328787364L183.52993684642314,122.19463690265911L183.77929851246674,135.3615641809539L184.02866017851034,98.28259536846548L184.27802184455396,120.59298594978742L184.52738351059756,108.70153066700519L184.77674517664116,116.06993261876241L185.02610684268473,127.93302195105215L185.27546850872832,86.44724883679842L185.52483017477195,121.4469244264441L185.77419184081555,86.3463322416664L186.02355350685914,112.41866174512543L186.27291517290277,117.94659055640741L186.52227683894634,132.38619407674483L186.77163850498994,117.37498949643847L187.02100017103353,130.5460283007324L187.27036183707713,129.34731321148053L187.51972350312076,52.89682616260774L187.76908516916436,67.6881725216187L188.01844683520793,96.99032569453672L188.26780850125152,131.52494622053422L188.51717016729515,131.00674868336054L188.76653183333875,122.77705466543571L189.01589349938234,119.60724706519449L189.2652551654259,128.89109592875616L189.51461683146954,126.66676457371577L189.76397849751314,79.1758561620706L190.01334016355673,122.188809609282L190.26270182960033,75.50762550684186L190.51206349564396,124.92535331541544L190.76142516168753,125.93648766243908L191.01078682773112,103.11933729138485L191.26014849377472,102.62071634420894L191.50951015981835,122.89513314481997L191.75887182586195,83.02773076812036L192.00823349190554,129.11710986025193L192.2575951579491,130.68234443998873L192.5069568239927,123.61552386762162L192.75631849003634,128.53703943566734L193.00568015607993,122.3389339917683L193.25504182212353,111.44445955406809L193.50440348816713,124.43946694108567L193.75376515421073,123.78609851306504L194.00312682025432,128.8606921097705L194.25248848629792,130.44646537237838L194.50185015234152,131.80462682933108L194.75121181838514,137.5497675801978L195.00057348442874,135.07775309903354L195.2499351504723,112.18975100882946L195.4992968165159,-8.951025781239316L195.74865848255953,92.07272586553776L195.99802014860313,90.2883067400405L196.24738181464673,123.02678618623298L196.4967434806903,83.96098190759835L196.7461051467339,129.59855839699534L196.99546681277752,24.46038394631924L197.24482847882112,72.51451878893977L197.49419014486472,124.39855799422725L197.74355181090834,128.21820985734706L197.9929134769519,130.07372490937558L198.2422751429955,134.00063644383593L198.4916368090391,130.20581583988633L198.7409984750827,136.84799767022872L198.99036014112633,129.92082372054375L199.23972180716993,84.68118315915581L199.4890834732135,127.259862198957L199.7384451392571,132.7933740962347L199.98780680530072,116.81965770063803L200.23716847134432,93.09990421647291L200.48653013738792,87.26824036932507L200.7358918034315,128.45297525508875L200.9852534694751,118.29714183147854L201.2346151355187,87.69332121091958L201.4839768015623,130.75197091175943L201.7333384676059,119.82413690366408L201.98270013364953,132.7757595862324L202.2320617996931,129.48936822420004L202.4814234657367,136.22916774478935L202.7307851317803,130.18769607323284L202.98014679782392,118.1013085639475L203.22950846386752,89.33489164970774L203.47887012991112,42.891287645603654L203.72823179595468,127.36560610034397L203.97759346199828,131.2232658950499L204.2269551280419,119.98967161401183L204.4763167940855,88.01016765688391L204.7256784601291,131.81826033796915L204.97504012617273,133.95896750676468L205.2244017922163,136.9616130491941L205.4737634582599,131.83490012368185L205.7231251243035,139.3238205234014L205.9724867903471,79.9579176696227L206.22184845639072,130.28670111403449L206.47121012243431,128.7098772098609L206.72057178847788,117.91632568300082L206.96993345452148,128.6365644697725L207.2192951205651,122.078912077175L207.4686567866087,114.05434173345509L207.7180184526523,125.08921646834213L207.96738011869587,135.17400449108618L208.2167417847395,133.37729499754857L208.4661034507831,91.35614140950844L208.7154651168267,129.51298265693526L208.9648267828703,133.49355876346064L209.21418844891392,120.14023809606792L209.46355011495748,93.65870123080612L209.71291178100108,136.58821575254476L209.96227344704468,81.4158273157015L210.2116351130883,127.83769054715191L210.4609967791319,132.28517643028258L210.7103584451755,93.53114497873986L210.95972011121907,129.4157923296058L211.20908177726267,103.10851216763302L211.4584434433063,129.84172368656314L211.7078051093499,134.71739142398502L211.9571667753935,86.95997486548686L212.2065284414371,126.27218018149298L212.45589010748068,130.51728340775148L212.70525177352428,130.48078914088288L212.95461343956788,84.00397924861505L213.20397510561148,120.62479606645223L213.4533367716551,122.21473769643248L213.7026984376987,94.29219623054644L213.95206010374227,96.26545081895571L214.20142176978587,127.86082498606851L214.4507834358295,123.61238285544002L214.7001451018731,139.23588270849694L214.9495067679167,127.15829929635868L215.19886843396026,121.19154666256969L215.44823010000385,127.99671797287948L215.69759176604748,128.44189118730316L215.94695343209108,138.76598349670542L216.19631509813468,126.19530327677762L216.4456767641783,136.85299550060347L216.69503843022187,135.48700677602935L216.94440009626547,94.41125996040051L217.19376176230907,105.09753497403167L217.44312342835266,121.33289642121358L217.6924850943963,105.83283497851568L217.9418467604399,126.04964409994628L218.19120842648346,111.80648857606553L218.44057009252705,91.86177700319178L218.68993175857068,131.10614950853895L218.93929342461428,131.76057265981896L219.18865509065787,118.98838766645045L219.43801675670147,116.59787108312392L219.68737842274507,134.56660810261613L219.93674008878867,134.26942035085534L220.18610175483226,122.61642094460456L220.43546342087586,115.43222293645672L220.6848250869195,133.17352499012168L220.93418675296306,124.99640292675366L221.18354841900666,122.01168767973351L221.43291008505025,129.59447213382882L221.68227175109388,131.06125113937213L221.93163341713748,95.66442276952677L222.18099508318107,134.30424727077502L222.43035674922464,135.59779903345617L222.67971841526824,139.11580004439628L222.92908008131187,85.23626653710275L223.17844174735546,133.14521798623846L223.42780341339906,134.0276782008551L223.6771650794427,73.62847496971762L223.92652674548626,132.1749462708802L224.17588841152985,133.09861858634596L224.42525007757345,134.28208545091198L224.67461174361705,77.1082869987716L224.92397340966068,119.4901790991126L225.17333507570427,136.2065322468158L225.42269674174784,131.96501002707268L225.67205840779144,124.20891412067334L225.92142007383507,132.56621070585743L226.17078173987866,134.29636526701637L226.42014340592226,132.72446972042798L226.66950507196583,121.58349108879L226.91886673800946,131.2606948867232L227.16822840405305,131.9664731661251L227.41759007009665,123.7663787670161L227.66695173614025,91.55282519240237L227.91631340218387,121.14777038421576L228.16567506822744,135.42776122320464L228.41503673427104,141.05943606686532L228.66439840031464,134.00757319660963L228.91376006635826,123.03287031840779L229.16312173240186,88.64026059517283L229.41248339844546,115.5746926806774L229.66184506448903,79.84710646507148L229.91120673053263,135.75190231207063L230.16056839657625,125.36489712865037L230.40993006261985,136.74419690171283L230.65929172866345,97.84385575540034L230.90865339470704,139.5051866088199L231.15801506075064,94.01190510329604L231.40737672679424,134.4302161748621L231.65673839283784,142.06830307466672L231.90610005888144,75.35758112332533L232.15546172492506,136.05924361728435L232.40482339096866,92.18174761944937L232.65418505701223,126.2434268675679L232.90354672305583,136.9339460370691L233.15290838909945,128.80810541856133L233.40227005514305,95.51941832110592L233.65163172118665,136.04271540908215L233.90099338723022,131.77505036811175L234.1503550532738,136.4375776924631L234.39971671931744,135.33548872728016L234.64907838536104,122.77931147847772L234.89844005140463,137.76957317059203L235.14780171744826,132.35491869003584L235.39716338349183,100.26086462913787L235.64652504953543,137.46632444425296L235.89588671557902,134.99551205287133L236.14524838162262,120.3984495076611L236.39461004766625,140.59645045025098L236.64397171370985,134.60161396759975L236.89333337975341,134.8553475421217L237.142695045797,127.76113574355168L237.39205671184064,128.62778353022196L237.64141837788424,138.05878418297206L237.89078004392783,123.89296871573694L238.14014170997143,136.1087735057538L238.38950337601503,133.8779917074665L238.63886504205863,135.717302757644L238.88822670810222,140.5111336542246L239.13758837414582,123.1340395418654L239.38695004018945,140.66532114228093L239.63631170623302,130.5283464231766L239.8856733722766,126.51965278401224L240.1350350383202,132.22998766731976L240.38439670436384,132.38588881751807L240.63375837040743,131.70935226680407L240.88312003645103,126.93122011542329L241.1324817024946,127.17687589923429L241.3818433685382,136.13803207633006L241.63120503458182,95.17418066181651L241.88056670062542,123.27905241123045L242.12992836666902,126.92488967063105L242.37929003271265,95.46678320946768L242.62865169875622,136.3705027667809L242.8780133647998,136.7138078193795L243.1273750308434,129.25874172052605L243.376736696887,110.10405155269675L243.62609836293063,131.4509240158981L243.87546002897423,131.46145861707552L244.1248216950178,116.41258925865864L244.3741833610614,133.73659563362958L244.62354502710502,88.50838018826678L244.87290669314862,130.1528923109097L245.12226835919222,127.09170015402304L245.3716300252358,81.07776851133116L245.62099169127941,139.41134360680462L245.870353357323,113.68184126736162L246.1197150233666,141.8375839406067L246.3690766894102,125.34290372767106L246.61843835545383,92.5080676276236L246.8678000214974,129.76432889378032L247.117161687541,134.5230002431459L247.3665233535846,140.79338686147048L247.61588501962822,139.46064823501706L247.86524668567182,116.37180662596302L248.11460835171542,137.37758663965081L248.363970017759,141.72517380927803L248.61333168380258,129.49375132564916L248.8626933498462,140.68502615167753L249.1120550158898,136.60311029757477L249.3614166819334,139.68709163466636L249.610778347977,133.54868857981415L249.8601400140206,132.45011114835702L250.1095016800642,93.18218105164789L250.3588633461078,132.54756252495625L250.6082250121514,129.07854404111342L250.85758667819502,125.25449855036427L251.10694834423862,96.32374480508733L251.3563100102822,87.62490946034777L251.60567167632578,138.86177805253595L251.8550333423694,101.86114717857922L252.104395008413,108.13035065424558L252.3537566744566,135.69946088214868L252.60311834050017,141.0755158597896L252.85248000654377,105.27894737464322L253.1018416725874,123.74373905857047L253.351203338631,110.89203719448409L253.6005650046746,128.02001451497165L253.84992667071822,141.3474670944412L254.0992883367618,97.98084346495557L254.34865000280539,125.05071591152108L254.59801166884898,137.52599735999513L254.84737333489258,128.98807152200882L255.0967350009362,131.67816108953699L255.3460966669798,139.43290753963043L255.59545833302337,139.02167494075076L255.84481999906697,133.50164286987976L256.09418166511057,140.21316064941846L256.3435433311542,137.52687734866262L256.5929049971978,126.83894551426278L256.8422666632414,133.28927928891042L257.09162832928496,94.61755204061132L257.3409899953286,135.1477479871124L257.5903516613722,117.44210021113344L257.8397133274158,118.80029324662684L258.0890749934594,98.04537316025736L258.338436659503,132.1636664161423L258.5877983255466,120.08028939440365L258.83715999159017,138.90521749312242L259.0865216576338,140.72882769286406L259.33588332367736,135.85685674994008L259.585244989721,130.6918474755033L259.83460665576456,131.5642509775251L260.0839683218082,134.34454780441595L260.33332998785176,134.1396662323564L260.5826916538954,129.4317963340324L260.832053319939,136.10072518834747L261.0814149859826,104.51023306362686L261.33077665202615,134.79310623840263L261.58013831806977,138.85434867452733L261.8294999841134,144.06128688268714L262.07886165015697,133.626535998347L262.3282233162006,130.28981686338352L262.57758498224416,128.95871400533835L262.8269466482878,122.81935727855699L263.07630831433136,138.99285846974428L263.325669980375,95.17949848807035L263.57503164641855,135.78527030340996L263.8243933124622,135.89860147550903L264.07375497850575,124.47586647233217L264.3231166445494,138.93950757785018L264.57247831059294,56.462228668374166L264.82183997663657,138.3340816903198L265.0712016426802,136.3707953945914L265.32056330872376,102.87618673846939L265.56992497476733,134.46034420792563L265.81928664081096,129.34389641337683L266.0686483068546,139.82958032601147L266.31800997289815,125.17063015673801L266.5673716389418,126.63636285996617L266.8167333049854,136.882085652296L267.066094971029,126.78776933120486L267.31545663707254,137.35527113755637L267.56481830311617,135.6169651024248L267.81417996915974,100.83303410283938L268.06354163520336,138.57562805336772L268.312903301247,114.82231921185513L268.56226496729056,101.17314340711917L268.81162663333413,138.15093036473374L269.06098829937775,138.85018451762707L269.3103499654214,129.5265972184489L269.55971163146495,82.15297150696239L269.8090732975086,129.3504394870098L270.05843496355214,91.7457869179658L270.30779662959577,138.1267243606694L270.55715829563934,80.31851934158053L270.80651996168297,135.37575557714436L271.0558816277266,139.25409721077253L271.30524329377016,132.33830206191968L271.55460495981373,127.78434597096594L271.80396662585736,91.27931713569427L272.053328291901,121.5141993495507L272.30268995794455,103.14276856858402L272.5520516239882,134.70117268548165L272.80141329003175,139.93558317143217L273.0507749560753,138.33180382491733L273.30013662211894,142.2679415563521L273.54949828816257,123.76766296100456L273.79885995420614,144.58171491745225L274.04822162024976,137.05815706905722L274.29758328629333,146.84830467565692" fill="none"></path></g></g></g></g></g></g><g transform="translate(30, 176)" clip-path="url(#clip_1)"><clipPath id="clip_1"><rect width="299" height="23"></rect></clipPath><g><g><line x1="0" y1="0" x2="0" y2="5" style="visibility: inherit;" fill="rgb(0, 0, 0)" stroke="rgb(204, 204, 204)" stroke-width="1px"></line><line x1="24.936166604359943" y1="0" x2="24.936166604359943" y2="5" style="visibility: inherit;" fill="rgb(0, 0, 0)" stroke="rgb(204, 204, 204)" stroke-width="1px"></line><line x1="49.87233320871989" y1="0" x2="49.87233320871989" y2="5" style="visibility: inherit;" fill="rgb(0, 0, 0)" stroke="rgb(204, 204, 204)" stroke-width="1px"></line><line x1="74.80849981307983" y1="0" x2="74.80849981307983" y2="5" style="visibility: inherit;" fill="rgb(0, 0, 0)" stroke="rgb(204, 204, 204)" stroke-width="1px"></line><line x1="99.74466641743977" y1="0" x2="99.74466641743977" y2="5" style="visibility: inherit;" fill="rgb(0, 0, 0)" stroke="rgb(204, 204, 204)" stroke-width="1px"></line><line x1="124.68083302179973" y1="0" x2="124.68083302179973" y2="5" style="visibility: inherit;" fill="rgb(0, 0, 0)" stroke="rgb(204, 204, 204)" stroke-width="1px"></line><line x1="149.61699962615967" y1="0" x2="149.61699962615967" y2="5" style="visibility: inherit;" fill="rgb(0, 0, 0)" stroke="rgb(204, 204, 204)" stroke-width="1px"></line><line x1="174.55316623051962" y1="0" x2="174.55316623051962" y2="5" style="visibility: inherit;" fill="rgb(0, 0, 0)" stroke="rgb(204, 204, 204)" stroke-width="1px"></line><line x1="199.48933283487955" y1="0" x2="199.48933283487955" y2="5" style="visibility: inherit;" fill="rgb(0, 0, 0)" stroke="rgb(204, 204, 204)" stroke-width="1px"></line><line x1="224.4254994392395" y1="0" x2="224.4254994392395" y2="5" style="visibility: inherit;" fill="rgb(0, 0, 0)" stroke="rgb(204, 204, 204)" stroke-width="1px"></line><line x1="249.36166604359946" y1="0" x2="249.36166604359946" y2="5" style="visibility: inherit;" fill="rgb(0, 0, 0)" stroke="rgb(204, 204, 204)" stroke-width="1px"></line><line x1="274.29783264795935" y1="0" x2="274.29783264795935" y2="5" style="visibility: inherit;" fill="rgb(0, 0, 0)" stroke="rgb(204, 204, 204)" stroke-width="1px"></line><line x1="299.23399925231934" y1="0" x2="299.23399925231934" y2="5" style="visibility: inherit;" fill="rgb(0, 0, 0)" stroke="rgb(204, 204, 204)" stroke-width="1px"></line></g><g transform="translate(0, 8)"><text style="text-anchor: middle; visibility: hidden; font-family: Roboto, sans-serif; font-size: 12px; font-weight: 200;" x="0" y="0" dx="0em" dy="0.95em" fill="rgb(33, 33, 33)" stroke="none" stroke-width="1px">-100k</text><text style="text-anchor: middle; visibility: inherit; font-family: Roboto, sans-serif; font-size: 12px; font-weight: 200;" x="24.936166604359943" y="0" dx="0em" dy="0.95em" fill="rgb(33, 33, 33)" stroke="none" stroke-width="1px">0</text><text style="text-anchor: middle; visibility: hidden; font-family: Roboto, sans-serif; font-size: 12px; font-weight: 200;" x="49.87233320871989" y="0" dx="0em" dy="0.95em" fill="rgb(33, 33, 33)" stroke="none" stroke-width="1px">100k</text><text style="text-anchor: middle; visibility: inherit; font-family: Roboto, sans-serif; font-size: 12px; font-weight: 200;" x="74.80849981307983" y="0" dx="0em" dy="0.95em" fill="rgb(33, 33, 33)" stroke="none" stroke-width="1px">200k</text><text style="text-anchor: middle; visibility: hidden; font-family: Roboto, sans-serif; font-size: 12px; font-weight: 200;" x="99.74466641743977" y="0" dx="0em" dy="0.95em" fill="rgb(33, 33, 33)" stroke="none" stroke-width="1px">300k</text><text style="text-anchor: middle; visibility: inherit; font-family: Roboto, sans-serif; font-size: 12px; font-weight: 200;" x="124.68083302179973" y="0" dx="0em" dy="0.95em" fill="rgb(33, 33, 33)" stroke="none" stroke-width="1px">400k</text><text style="text-anchor: middle; visibility: hidden; font-family: Roboto, sans-serif; font-size: 12px; font-weight: 200;" x="149.61699962615967" y="0" dx="0em" dy="0.95em" fill="rgb(33, 33, 33)" stroke="none" stroke-width="1px">500k</text><text style="text-anchor: middle; visibility: inherit; font-family: Roboto, sans-serif; font-size: 12px; font-weight: 200;" x="174.55316623051962" y="0" dx="0em" dy="0.95em" fill="rgb(33, 33, 33)" stroke="none" stroke-width="1px">600k</text><text style="text-anchor: middle; visibility: hidden; font-family: Roboto, sans-serif; font-size: 12px; font-weight: 200;" x="199.48933283487955" y="0" dx="0em" dy="0.95em" fill="rgb(33, 33, 33)" stroke="none" stroke-width="1px">700k</text><text style="text-anchor: middle; visibility: inherit; font-family: Roboto, sans-serif; font-size: 12px; font-weight: 200;" x="224.4254994392395" y="0" dx="0em" dy="0.95em" fill="rgb(33, 33, 33)" stroke="none" stroke-width="1px">800k</text><text style="text-anchor: middle; visibility: hidden; font-family: Roboto, sans-serif; font-size: 12px; font-weight: 200;" x="249.36166604359946" y="0" dx="0em" dy="0.95em" fill="rgb(33, 33, 33)" stroke="none" stroke-width="1px">900k</text><text style="text-anchor: middle; visibility: inherit; font-family: Roboto, sans-serif; font-size: 12px; font-weight: 200;" x="274.29783264795935" y="0" dx="0em" dy="0.95em" fill="rgb(33, 33, 33)" stroke="none" stroke-width="1px">1M</text><text style="text-anchor: middle; visibility: hidden; font-family: Roboto, sans-serif; font-size: 12px; font-weight: 200;" x="299.23399925231934" y="0" dx="0em" dy="0.95em" fill="rgb(33, 33, 33)" stroke="none" stroke-width="1px">1.1M</text></g><line x1="0" y1="0" x2="299.23399925231934" y2="0" fill="rgb(0, 0, 0)" stroke="rgb(204, 204, 204)" stroke-width="1px"></line></g></g></g></g></svg>