<svg viewBox="0 0 330 200" xmlns="http://www.w3.org/2000/svg"><g><g><g><g><g><line x1="61.91500186920166" y1="176.5999994277954" x2="56.91500186920166" y2="176.5999994277954" style="visibility: inherit;" fill="rgb(0, 0, 0)" stroke="rgb(204, 204, 204)" stroke-width="1px"></line><line x1="61.91500186920166" y1="156.97777726915146" x2="56.91500186920166" y2="156.97777726915146" style="visibility: inherit;" fill="rgb(0, 0, 0)" stroke="rgb(204, 204, 204)" stroke-width="1px"></line><line x1="61.91500186920166" y1="137.35555511050754" x2="56.91500186920166" y2="137.35555511050754" style="visibility: inherit;" fill="rgb(0, 0, 0)" stroke="rgb(204, 204, 204)" stroke-width="1px"></line><line x1="61.91500186920166" y1="117.73333295186362" x2="56.91500186920166" y2="117.73333295186362" style="visibility: inherit;" fill="rgb(0, 0, 0)" stroke="rgb(204, 204, 204)" stroke-width="1px"></line><line x1="61.91500186920166" y1="98.11111079321968" x2="56.91500186920166" y2="98.11111079321968" style="visibility: inherit;" fill="rgb(0, 0, 0)" stroke="rgb(204, 204, 204)" stroke-width="1px"></line><line x1="61.91500186920166" y1="78.48888863457573" x2="56.91500186920166" y2="78.48888863457573" style="visibility: inherit;" fill="rgb(0, 0, 0)" stroke="rgb(204, 204, 204)" stroke-width="1px"></line><line x1="61.91500186920166" y1="58.86666647593181" x2="56.91500186920166" y2="58.86666647593181" style="visibility: inherit;" fill="rgb(0, 0, 0)" stroke="rgb(204, 204, 204)" stroke-width="1px"></line><line x1="61.91500186920166" y1="39.244444317287865" x2="56.91500186920166" y2="39.244444317287865" style="visibility: inherit;" fill="rgb(0, 0, 0)" stroke="rgb(204, 204, 204)" stroke-width="1px"></line><line x1="61.91500186920166" y1="19.622222158643943" x2="56.91500186920166" y2="19.622222158643943" style="visibility: inherit;" fill="rgb(0, 0, 0)" stroke="rgb(204, 204, 204)" stroke-width="1px"></line><line x1="61.91500186920166" y1="0" x2="56.91500186920166" y2="0" style="visibility: inherit;" fill="rgb(0, 0, 0)" stroke="rgb(204, 204, 204)" stroke-width="1px"></line></g><g transform="translate(51.91500186920166, 0)"><text style="text-anchor: end; visibility: hidden; font-family: Roboto, sans-serif; font-size: 12px; font-weight: 200;" x="0" y="176.5999994277954" dx="0em" dy="0.3em" fill="rgb(33, 33, 33)" stroke="none" stroke-width="1px">-1e+3</text><text style="text-anchor: end; visibility: inherit; font-family: Roboto, sans-serif; font-size: 12px; font-weight: 200;" x="0" y="156.97777726915146" dx="0em" dy="0.3em" fill="rgb(33, 33, 33)" stroke="none" stroke-width="1px">0</text><text style="text-anchor: end; visibility: hidden; font-family: Roboto, sans-serif; font-size: 12px; font-weight: 200;" x="0" y="137.35555511050754" dx="0em" dy="0.3em" fill="rgb(33, 33, 33)" stroke="none" stroke-width="1px">1e+3</text><text style="text-anchor: end; visibility: inherit; font-family: Roboto, sans-serif; font-size: 12px; font-weight: 200;" x="0" y="117.73333295186362" dx="0em" dy="0.3em" fill="rgb(33, 33, 33)" stroke="none" stroke-width="1px">2e+3</text><text style="text-anchor: end; visibility: hidden; font-family: Roboto, sans-serif; font-size: 12px; font-weight: 200;" x="0" y="98.11111079321968" dx="0em" dy="0.3em" fill="rgb(33, 33, 33)" stroke="none" stroke-width="1px">3e+3</text><text style="text-anchor: end; visibility: inherit; font-family: Roboto, sans-serif; font-size: 12px; font-weight: 200;" x="0" y="78.48888863457573" dx="0em" dy="0.3em" fill="rgb(33, 33, 33)" stroke="none" stroke-width="1px">4e+3</text><text style="text-anchor: end; visibility: hidden; font-family: Roboto, sans-serif; font-size: 12px; font-weight: 200;" x="0" y="58.86666647593181" dx="0em" dy="0.3em" fill="rgb(33, 33, 33)" stroke="none" stroke-width="1px">5e+3</text><text style="text-anchor: end; visibility: inherit; font-family: Roboto, sans-serif; font-size: 12px; font-weight: 200;" x="0" y="39.244444317287865" dx="0em" dy="0.3em" fill="rgb(33, 33, 33)" stroke="none" stroke-width="1px">6e+3</text><text style="text-anchor: end; visibility: hidden; font-family: Roboto, sans-serif; font-size: 12px; font-weight: 200;" x="0" y="19.622222158643943" dx="0em" dy="0.3em" fill="rgb(33, 33, 33)" stroke="none" stroke-width="1px">7e+3</text><text style="text-anchor: end; visibility: hidden; font-family: Roboto, sans-serif; font-size: 12px; font-weight: 200;" x="0" y="0" dx="0em" dy="0.3em" fill="rgb(33, 33, 33)" stroke="none" stroke-width="1px">8e+3</text></g><line x1="61.91500186920166" y1="0" x2="61.91500186920166" y2="176.5999994277954" fill="rgb(0, 0, 0)" stroke="rgb(204, 204, 204)" stroke-width="1px"></line></g></g><g transform="translate(61, 0)" clip-path="url(#clip_0)"><clipPath id="clip_0"><rect width="268" height="176"></rect></clipPath><g><g><g><line x1="0" y1="0" x2="0" y2="176.5999994277954" fill="rgb(0, 0, 0)" stroke="rgb(66, 66, 66)" stroke-width="1px" opacity="0.25"></line><line x1="22.34041651089986" y1="0" x2="22.34041651089986" y2="176.5999994277954" fill="rgb(0, 0, 0)" stroke="rgb(66, 66, 66)" stroke-width="1px" opacity="0.25"></line><line x1="44.68083302179972" y1="0" x2="44.68083302179972" y2="176.5999994277954" fill="rgb(0, 0, 0)" stroke="rgb(66, 66, 66)" stroke-width="1px" opacity="0.25"></line><line x1="67.02124953269958" y1="0" x2="67.02124953269958" y2="176.5999994277954" fill="rgb(0, 0, 0)" stroke="rgb(66, 66, 66)" stroke-width="1px" opacity="0.25"></line><line x1="89.36166604359944" y1="0" x2="89.36166604359944" y2="176.5999994277954" fill="rgb(0, 0, 0)" stroke="rgb(66, 66, 66)" stroke-width="1px" opacity="0.25"></line><line x1="111.70208255449931" y1="0" x2="111.70208255449931" y2="176.5999994277954" fill="rgb(0, 0, 0)" stroke="rgb(66, 66, 66)" stroke-width="1px" opacity="0.25"></line><line x1="134.04249906539917" y1="0" x2="134.04249906539917" y2="176.5999994277954" fill="rgb(0, 0, 0)" stroke="rgb(66, 66, 66)" stroke-width="1px" opacity="0.25"></line><line x1="156.38291557629904" y1="0" x2="156.38291557629904" y2="176.5999994277954" fill="rgb(0, 0, 0)" stroke="rgb(66, 66, 66)" stroke-width="1px" opacity="0.25"></line><line x1="178.72333208719888" y1="0" x2="178.72333208719888" y2="176.5999994277954" fill="rgb(0, 0, 0)" stroke="rgb(66, 66, 66)" stroke-width="1px" opacity="0.25"></line><line x1="201.06374859809875" y1="0" x2="201.06374859809875" y2="176.5999994277954" fill="rgb(0, 0, 0)" stroke="rgb(66, 66, 66)" stroke-width="1px" opacity="0.25"></line><line x1="223.40416510899863" y1="0" x2="223.40416510899863" y2="176.5999994277954" fill="rgb(0, 0, 0)" stroke="rgb(66, 66, 66)" stroke-width="1px" opacity="0.25"></line><line x1="245.74458161989847" y1="0" x2="245.74458161989847" y2="176.5999994277954" fill="rgb(0, 0, 0)" stroke="rgb(66, 66, 66)" stroke-width="1px" opacity="0.25"></line><line x1="268.08499813079834" y1="0" x2="268.08499813079834" y2="176.5999994277954" fill="rgb(0, 0, 0)" stroke="rgb(66, 66, 66)" stroke-width="1px" opacity="0.25"></line></g><g><line x1="0" y1="176.5999994277954" x2="268.08499813079834" y2="176.5999994277954" fill="rgb(0, 0, 0)" stroke="rgb(66, 66, 66)" stroke-width="1px" opacity="0.25"></line><line x1="0" y1="156.97777726915146" x2="268.08499813079834" y2="156.97777726915146" fill="rgb(0, 0, 0)" stroke="rgb(66, 66, 66)" stroke-width="1px" opacity="0.25"></line><line x1="0" y1="137.35555511050754" x2="268.08499813079834" y2="137.35555511050754" fill="rgb(0, 0, 0)" stroke="rgb(66, 66, 66)" stroke-width="1px" opacity="0.25"></line><line x1="0" y1="117.73333295186362" x2="268.08499813079834" y2="117.73333295186362" fill="rgb(0, 0, 0)" stroke="rgb(66, 66, 66)" stroke-width="1px" opacity="0.25"></line><line x1="0" y1="98.11111079321968" x2="268.08499813079834" y2="98.11111079321968" fill="rgb(0, 0, 0)" stroke="rgb(66, 66, 66)" stroke-width="1px" opacity="0.25"></line><line x1="0" y1="78.48888863457573" x2="268.08499813079834" y2="78.48888863457573" fill="rgb(0, 0, 0)" stroke="rgb(66, 66, 66)" stroke-width="1px" opacity="0.25"></line><line x1="0" y1="58.86666647593181" x2="268.08499813079834" y2="58.86666647593181" fill="rgb(0, 0, 0)" stroke="rgb(66, 66, 66)" stroke-width="1px" opacity="0.25"></line><line x1="0" y1="39.244444317287865" x2="268.08499813079834" y2="39.244444317287865" fill="rgb(0, 0, 0)" stroke="rgb(66, 66, 66)" stroke-width="1px" opacity="0.25"></line><line x1="0" y1="19.622222158643943" x2="268.08499813079834" y2="19.622222158643943" fill="rgb(0, 0, 0)" stroke="rgb(66, 66, 66)" stroke-width="1px" opacity="0.25"></line><line x1="0" y1="0" x2="268.08499813079834" y2="0" fill="rgb(0, 0, 0)" stroke="rgb(66, 66, 66)" stroke-width="1px" opacity="0.25"></line></g></g></g><g><g><line x1="0" y1="156.97777726915146" x2="268.08499813079834" y2="156.97777726915146" fill="rgb(0, 0, 0)" stroke="rgb(153, 153, 153)" stroke-width="1.5px"></line></g></g><g><g><line x1="22.34041651089986" y1="0" x2="22.34041651089986" y2="176.5999994277954" fill="rgb(0, 0, 0)" stroke="rgb(153, 153, 153)" stroke-width="1.5px"></line></g></g><g><g><g><g><g><path style="fill: none;" stroke="rgb(0, 153, 136)" stroke-width="2px" d="M22.56359727184375,156.96674867784444L22.78700143695275,156.95510670366332L23.01040560206175,156.93635462951238L23.233809767170747,156.89238789868452L23.457213932279746,156.83539914691445L23.68061809738874,156.76953731616013L23.904022262497744,156.6593240014051L24.127426427606743,156.56214363199103L24.350830592715738,156.48445785321414L24.57423475782474,156.41712780259542L24.797638922933736,156.32726269864247L25.021043088042735,156.26733045251578L25.244447253151737,156.23793493722908L25.467851418260732,156.17008588225008L25.69125558336973,156.09896092001534L25.914659748478734,156.01391177732958L26.13806391358773,155.88863806547457L26.361468078696728,155.8277250803917L26.584872243805727,155.7632264607052L26.808276408914725,155.65691854852548L27.031680574023724,155.51599625479219L27.255084739132723,155.37994564757525L27.478488904241722,155.21008024875604L27.701893069350717,155.07228445008107L27.925297234459716,154.97248234518608L28.14870139956872,154.90077286139157L28.372105564677714,154.77068005538646L28.595509729786713,154.58571918974116L28.818913894895715,154.49437727445508L29.04231806000471,154.2153139637502L29.26572222511371,153.95958549120894L29.489126390222708,153.6853349502407L29.712530555331707,153.4193993296941L29.935934720440706,153.14307730134462L30.159338885549705,152.85649407070957L30.382743050658704,152.49784487943455L30.6061472157677,152.19139893904696L30.8295513808767,151.6025352159885L31.0529555459857,151.06016059124244L31.276359711094695,150.5813599738859L31.499763876203698,150.12366102268456L31.723168041312693,149.5571208124331L31.946572206421692,148.97081170732432L32.169976371530694,148.49961979564964L32.39338053663969,147.72537526676194L32.61678470174869,147.0059978441648L32.84018886685769,146.3606560642382L33.06359303196668,146.10207593502687L33.286997197075685,145.62046100819074L33.51040136218468,144.98326110176436L33.73380552729368,144.40007285914007L33.957209692402685,143.68747047972192L34.18061385751168,143.3435882653477L34.404018022620676,143.1014722547175L34.62742218772968,142.99170367263963L34.85082635283867,142.13372395075496L35.07423051794767,141.78328258640897L35.29763468305668,140.9970786965495L35.521038848165674,140.03210638234776L35.74444301327467,139.4959387503184L35.96784717838367,138.46296551700925L36.19125134349267,138.02537651796527L36.41465550860166,137.37629677767845L36.63805967371066,137.15797338113657L36.86146383881967,136.80158965837845L37.08486800392866,135.86962749985187L37.30827216903766,135.79122325679086L37.53167633414666,135.38867987954436L37.755080499255655,134.97730324542192L37.97848466436465,133.948308902669L38.20188882947366,133.30556178678904L38.425292994582655,133.04129981032145L38.64869715969165,132.21515413576418L38.87210132480065,131.84644587126013L39.09550548990965,131.3392790088255L39.31890965501864,131.07392298875004L39.542313820127646,130.76720814564587L39.76571798523665,130.0534050509936L39.98912215034564,130.09738751962908L40.21252631545464,129.8264471817197L40.43593048056364,129.39165542180774L40.65933464567264,129.25308084970163L40.88273881078164,128.69321866013445L41.10614297589064,127.92205088166816L41.32954714099964,126.91607257028565L41.55295130610863,125.47868020885437L41.776355471217634,126.08879917448742L41.99975963632663,125.39953658120524L42.223163801435625,125.28089519292001L42.44656796654463,124.88904315212785L42.66997213165363,124.89681265147836L42.893376296762625,124.40151951065111L43.11678046187162,123.2807243840728L43.34018462698062,123.32453118670163L43.56358879208962,122.79308077524111L43.78699295719862,122.60742413531335L44.01039712230762,122.58594504700162L44.23380128741662,122.05545479217804L44.45720545252561,122.3422316102368L44.680609617634616,121.5032264213088L44.90401378274361,120.77462727040457L45.127417947852614,119.97109280392573L45.35082211296161,119.16088135218197L45.57422627807061,118.69517682023275L45.79763044317961,118.2025248118219L46.0210346082886,118.10717501133612L46.244438773397604,117.59748311124571L46.46784293850661,117.25398853628772L46.6912471036156,117.03806624961729L46.914651268724604,116.50567550802909L47.1380554338336,116.44274432309817L47.361459598942595,115.21529503541831L47.5848637640516,115.15436515525808L47.80826792916059,114.60754544219262L48.031672094269595,113.64618592126563L48.25507625937859,112.81396131362833L48.47848042448759,111.76247274204941L48.70188458959659,111.50340653134147L48.92528875470558,111.6657795077595L49.148692919814586,111.27960194872438L49.37209708492359,110.71217161674339L49.595501250032584,110.29432150902822L49.818905415141586,109.08504457130664L50.04230958025058,107.30569130175468L50.26571374535958,105.97135278630238L50.48911791046858,102.99661826809694L50.71252207557758,101.07073634216692L50.93592624068658,97.18683854338953L51.15933040579557,96.43962690154027L51.382734570904574,93.4479072019368L51.60613873601357,92.20993061494319L51.829542901122565,90.26296697323068L52.052947066231575,88.44540736495658L52.27635123134057,85.45655506742477L52.499755396449565,85.00222583922672L52.72315956155857,85.48877450903578L52.94656372666756,83.87241921961039L53.16996789177656,83.70929042386211L53.39337205688555,81.43400568848358L53.61677622199456,80.29796492921396L53.84018038710356,78.91105335850355L54.06358455221255,76.5845132595243L54.286988717321556,75.29769299054573L54.51039288243055,72.63503553499493L54.73379704753955,72.39815507657272L54.957201212648556,72.69581069957594L55.18060537775755,71.81054190083722L55.40400954286655,73.96513146737077L55.62741370797555,74.12560664888304L55.850817873084544,74.2487880549604L56.07422203819354,73.3454846023392L56.29762620330254,73.08141355533628L56.521030368411544,72.43549958589577L56.74443453352054,71.45626841835231L56.967838698629535,73.17992321360762L57.19124286373854,71.8871971886767L57.41464702884753,70.0412082463623L57.638051193956535,68.79001707658885L57.86145535906554,67.04204959240923L58.08485952417453,67.95931627030566L58.30826368928353,67.37313084736851L58.53166785439253,63.81896940486592L58.755072019501526,64.88634721084897L58.97847618461052,65.03651876998154L59.201880349719524,63.881857347372964L59.425284514828526,62.80816001098729L59.64868867993752,61.11686925178045L59.87209284504652,59.43744090762535L60.09549701015552,58.20882620067888L60.318901175264514,57.214410212068756L60.54230534037352,60.564644805751364L60.76570950548252,59.28893309030321L60.989113670591514,60.8276610273606L61.21251783570051,60.970311388345344L61.43592200080951,62.30292185113645L61.65932616591851,62.87234571777027L61.88273033102751,62.653175468645415L62.106134496136505,61.20816843795594L62.32953866124551,61.14714029683568L62.5529428263545,61.862440457244865L62.7763469914635,62.13483616814098L62.9997511565725,61.806327504253346L63.2231553216815,60.871614679052925L63.4465594867905,60.36100695067625L63.6699636518995,59.811748570080304L63.893367817008496,60.83258969724371L64.1167719821175,57.58597753184483L64.3401761472265,57.36958959953702L64.56358031233549,60.22162229727437L64.78698447744449,60.35295183916757L65.01038864255348,61.45525167821832L65.23379280766248,59.93819632502677L65.45719697277148,58.80778935557188L65.68060113788049,59.800112515182064L65.90400530298949,59.11610345217256L66.12740946809848,58.514091948470295L66.35081363320748,59.27705284564261L66.57421779831648,58.77046297541967L66.79762196342548,60.964629629846605L67.02102612853447,60.24483616236274L67.24443029364348,60.085971693014166L67.46783445875246,60.26082855839725L67.69123862386147,60.452965882131636L67.91464278897047,60.81422864626263L68.13804695407947,63.325202574326305L68.36145111918847,64.09837192043358L68.58485528429748,67.33554180832253L68.80825944940646,67.53569059421478L69.03166361451547,69.19548394098614L69.25506777962447,71.80285517350218L69.47847194473346,73.69670540883517L69.70187610984246,71.47254409120498L69.92528027495146,72.00955895971715L70.14868444006045,72.59828523118146L70.37208860516945,73.62190390715259L70.59549277027845,73.71740953169696L70.81889693538744,74.38557828614253L71.04230110049646,76.00444897520467L71.26570526560546,75.01253146051391L71.48910943071445,73.80901181206886L71.71251359582345,73.55081016221033L71.93591776093244,69.42901382462739L72.15932192604144,70.52655210924442L72.38272609115045,70.76035299076152L72.60613025625943,72.26282320451689L72.82953442136844,73.70209604358912L73.05293858647744,74.36722812718642L73.27634275158643,75.10821369030586L73.49974691669543,76.12715503221578L73.72315108180445,76.26358329783001L73.94655524691343,74.93386227674563L74.16995941202244,76.20524103824945L74.39336357713144,76.27798244894984L74.61676774224043,76.78902638007932L74.84017190734943,78.53717112459304L75.06357607245843,78.76876544069506L75.28698023756742,78.27657696673526L75.51038440267642,77.62839839976336L75.73378856778542,79.25730943137188L75.95719273289441,76.5393649200781L76.18059689800342,78.74683930986627L76.40400106311243,78.31269824071781L76.62740522822142,76.18499831651494L76.85080939333042,77.27934899851697L77.07421355843941,78.78003876518311L77.29761772354841,78.53939584794259L77.52102188865742,79.79185601359157L77.7444260537664,81.04525398796102L77.9678302188754,81.79606250933182L78.19123438398441,83.03815766093864L78.4146385490934,84.1618242972109L78.6380427142024,84.75894425976736L78.8614468793114,85.84932782873882L79.08485104442039,86.91162819132991L79.3082552095294,86.42762397726104L79.53165937463841,86.44909458146132L79.7550635397474,87.07974910970879L79.9784677048564,85.2882657866211L80.2018718699654,86.3065414042791L80.42527603507439,84.85812660951406L80.64868020018339,85.67743453183287L80.8720843652924,85.86316051313695L81.09548853040138,86.92782984230399L81.31889269551039,85.79707413910106L81.54229686061939,84.35263714230693L81.76570102572838,84.49788470103016L81.98910519083738,82.68313249059335L82.2125093559464,82.55248210142679L82.43591352105538,83.4781370764692L82.65931768616439,79.19980826243493L82.88272185127337,78.06673277757369L83.10612601638238,77.4178255529127L83.32953018149138,75.08088484851828L83.55293434660037,78.47951856242106L83.77633851170937,78.5043241327673L83.99974267681837,78.88926072761826L84.22314684192736,79.16443667678233L84.44655100703636,79.74948561635483L84.66995517214536,80.61910101779675L84.89335933725437,82.00734663965773L85.11676350236337,80.28826061267785L85.34016766747237,81.42069932745655L85.56357183258136,81.32622260829355L85.78697599769036,80.89910452403275L86.01038016279936,83.61213877393995L86.23378432790835,84.95318524013808L86.45718849301736,85.67985115553768L86.68059265812636,84.2783248046553L86.90399682323535,85.35318009595713L87.12740098834435,86.87934320596304L87.35080515345335,86.66527318537946L87.57420931856234,86.85865899281794L87.79761348367136,87.88311880348536L88.02101764878036,86.70494227372659L88.24442181388935,83.97497278422668L88.46782597899835,84.84979311370546L88.69123014410734,83.72517554422431L88.91463430921634,84.30779090657957L89.13803847432534,85.80017140494408L89.36144263943433,86.72325464565898L89.58484680454333,86.28714057688912L89.80825096965233,85.68690091990986L90.03165513476132,85.51711492791271L90.25505929987033,86.75887822946082L90.47846346497934,86.69345728341821L90.70186763008833,88.54141776869085L90.92527179519733,89.89507198847625L91.14867596030633,90.28655635287302L91.37208012541532,89.24430052412946L91.59548429052433,89.52156203374992L91.81888845563333,89.89688734446449L92.04229262074232,89.83746976976578L92.26569678585132,89.03508185394567L92.48910095096032,89.54078791514063L92.71250511606931,89.05672287548279L92.93590928117831,90.93430547509007L93.15931344628733,91.64604535833492L93.38271761139632,90.50611368322963L93.60612177650532,91.91523482108491L93.8295259416143,90.09906427128828L94.05293010672331,90.20396651672458L94.27633427183231,91.21650997673143L94.4997384369413,92.34927185415133L94.7231426020503,93.52720889209915L94.9465467671593,93.32711212424935L95.16995093226829,94.38445275181488L95.3933550973773,94.79576872424234L95.6167592624863,95.09699301377618L95.84016342759529,95.85926341268124L96.0635675927043,96.82281723391434L96.2869717578133,96.11827517957883L96.5103759229223,96.97979069273406L96.7337800880313,98.20816102360335L96.9571842531403,98.00421969123217L97.18058841824929,98.65978276634566L97.40399258335829,98.54602907377343L97.62739674846729,98.19492340896983L97.85080091357628,98.87542237010574L98.07420507868528,98.47406204880625L98.29760924379428,99.1057419028289L98.52101340890327,100.27519261332232L98.74441757401227,99.66136604046987L98.96782173912129,100.06008249414869L99.19122590423028,99.66343858041738L99.41463006933928,99.61803398566066L99.63803423444827,99.10233693141723L99.86143839955727,100.25853475060444L100.08484256466627,101.08063730316248L100.30824672977526,101.92133680772355L100.53165089488427,102.29929576454047L100.75505505999327,100.77435594698241L100.97845922510226,101.65434882246004L101.20186339021126,101.40002656019198L101.42526755532026,101.39584161431519L101.64867172042926,102.95566809265308L101.87207588553827,102.44045441015922L102.09548005064727,102.76229829034486L102.31888421575626,103.56709063338839L102.54228838086526,103.31113160600776L102.76569254597426,102.65933318003954L102.98909671108325,102.53759852976673L103.21250087619225,103.42622651490404L103.43590504130125,102.80080287761285L103.65930920641024,102.3957965412557L103.88271337151924,102.28899931543324L104.10611753662825,101.68415997287312L104.32952170173724,101.49228306927648L104.55292586684625,102.14591310302879L104.77633003195525,101.9027763078599L104.99973419706424,100.98202620133483L105.22313836217324,101.39210930467371L105.44654252728223,100.88203958671843L105.66994669239124,102.2071472442386L105.89335085750024,101.6248696635536L106.11675502260923,101.91827333981819L106.34015918771823,100.63721219502935L106.56356335282723,98.43394919447483L106.78696751793622,96.38408881557825L107.01037168304522,94.01666638504398L107.23377584815424,91.92660586312701L107.45718001326323,89.15687807415007L107.68058417837223,87.8547996355809L107.90398834348123,86.89769927268944L108.12739250859022,85.88320288183695L108.35079667369922,85.04763848950174L108.57420083880822,81.24606422319843L108.79760500391721,80.5598298046954L109.02100916902621,81.52119479429611L109.24441333413522,81.4415078293084L109.4678174992442,83.01403600917799L109.69122166435321,81.344253420416L109.91462582946222,81.79012128894598L110.13802999457121,78.10719215718869L110.36143415968021,76.87852912399515L110.5848383247892,77.63137587063565L110.8082424898982,75.26166651759499L111.03164665500721,75.94568278765436L111.2550508201162,74.14969013204065L111.4784549852252,76.8285680005078L111.7018591503342,79.06666369558138L111.92526331544319,79.58776164572716L112.14866748055219,80.74237040709927L112.3720716456612,82.4122163666873L112.59547581077018,85.02970496939786L112.8188799758792,84.11365846982612L113.0422841409882,83.23725137263044L113.26568830609719,83.23738539854791L113.48909247120619,82.21116704426531L113.7124966363152,82.05948068115327L113.93590080142418,80.89994932623235L114.15930496653318,80.75516467595703L114.38270913164219,80.5011210121742L114.60611329675118,78.52320746927656L114.82951746186018,80.5295204601364L115.05292162696918,80.0666070878233L115.27632579207817,77.97581183174526L115.49972995718717,78.16986023237968L115.72313412229619,73.57686611236927L115.94653828740518,70.47749198854295L116.16994245251418,68.98505178350591L116.39334661762317,68.71111548238078L116.61675078273217,66.73521610212063L116.84015494784117,65.68672637917415L117.06355911295016,63.09241639903976L117.28696327805916,59.57294532499302L117.51036744316816,60.78357826390813L117.73377160827715,59.65428319171583L117.95717577338615,60.69189689546789L118.18057993849516,60.22539012612553L118.40398410360416,61.34210923707412L118.62738826871316,62.52856464207088L118.85079243382216,63.38698960221297L119.07419659893115,64.7731314864633L119.29760076404015,66.84863297467267L119.52100492914916,67.96137296258756L119.74440909425815,69.40255465165502L119.96781325936715,69.80857743371455L120.19121742447615,72.82084581667014L120.41462158958514,76.22178394647256L120.63802575469414,76.68236392920888L120.86142991980314,78.73254529167642L121.08483408491213,77.97962337877058L121.30823825002115,78.65803250445238L121.53164241513015,77.65059275706918L121.75504658023914,79.63677682142651L121.97845074534814,80.70241722890485L122.20185491045713,78.6627960508035L122.42525907556613,77.75407835077155L122.64866324067513,78.55126604561654L122.87206740578412,78.32724614569102L123.09547157089312,80.27765260817331L123.31887573600213,80.91456443479694L123.54227990111112,81.3214834710811L123.76568406622012,81.87725500904125L123.98908823132913,83.57500789941156L124.21249239643812,83.83501345745358L124.43589656154712,83.86234303576602L124.65930072665613,84.03674743902415L124.88270489176512,84.06570050625974L125.10610905687412,82.40677383463901L125.32951322198312,81.92989174371945L125.55291738709211,80.1038398495358L125.77632155220111,79.09493988437386L125.99972571731011,76.83195450463509L126.2231298824191,72.29294674353929L126.4465340475281,69.13572642505395L126.66993821263712,62.48547021401143L126.89334237774611,53.95645705244934L127.11674654285511,42.82691417387142L127.3401507079641,36.55895438069836L127.5635548730731,32.688289992975L127.7869590381821,28.548904443206556L128.0103632032911,25.999918622448885L128.2337673684001,24.920522985736397L128.4571715335091,21.0839792116938L128.6805756986181,18.917908705592392L128.9039798637271,20.00612998254289L129.1273840288361,21.136873908642237L129.35078819394508,23.162365495542666L129.57419235905408,19.637549591195885L129.79759652416308,18.73328947869921L130.02100068927209,19.327153354919883L130.2444048543811,22.492981910285753L130.4678090194901,18.10907013506188L130.69121318459906,19.58876176426309L130.9146173497081,21.48367115472954L131.1380215148171,19.408653446532917L131.36142567992607,22.4557631818247L131.58482984503507,24.74616549744506L131.80823401014408,24.312806701900488L132.03163817525308,25.48920076513056L132.25504234036208,27.5220033277156L132.47844650547108,30.33750342297547L132.70185067058006,29.376933249177057L132.92525483568906,29.23598389412947L133.14865900079806,29.80659704025566L133.37206316590706,30.6082432114202L133.59546733101607,29.083305146690194L133.81887149612507,32.270463634619716L134.04227566123407,31.588245639428255L134.26567982634307,32.21954971385357L134.48908399145208,36.066196087566624L134.71248815656108,35.685728887844874L134.93589232167005,37.67173601474359L135.15929648677906,35.81747216795672L135.38270065188806,36.70004885195838L135.60610481699706,36.940848915944976L135.82950898210606,37.582471854134354L136.05291314721504,41.55221314053517L136.27631731232404,41.359849819891984L136.49972147743304,42.78301287137523L136.72312564254204,43.87258740126213L136.94652980765105,44.909518257275025L137.16993397276005,44.83547494154086L137.39333813786902,45.445446211264375L137.61674230297803,42.98980630081696L137.84014646808703,41.95452731432668L138.06355063319603,42.4484107462847L138.28695479830503,45.33169957580301L138.51035896341403,48.49029341660513L138.733763128523,50.71316201453737L138.957167293632,53.59931337583875L139.180571458741,56.45508510112881L139.40397562385004,59.525994049993734L139.62737978895905,56.32080565451428L139.85078395406805,57.417646126355486L140.07418811917702,58.29966380763316L140.29759228428603,58.28145365161515L140.52099644939503,58.307122579621776L140.74440061450403,60.129048616797974L140.96780477961303,59.67148739111216L141.19120894472204,61.59238157589659L141.414613109831,63.89884948850437L141.63801727494,66.32580354326804L141.861421440049,66.50327536050317L142.08482560515802,67.13705391946864L142.30822977026702,70.327108091498L142.531633935376,69.57261058154513L142.755038100485,70.52288178295788L142.978442265594,72.17920960489982L143.201846430703,71.55163080975238L143.425250595812,71.59996535648652L143.648654760921,74.05331989143188L143.87205892602998,75.1081068697691L144.09546309113898,75.27686781638833L144.31886725624798,75.19486322803272L144.542271421357,76.12664810337871L144.765675586466,76.24078561833115L144.98907975157502,78.0582724779987L145.212483916684,75.86908407606141L145.435888081793,78.3995858319573L145.659292246902,79.05218791277677L145.882696412011,76.91251226726335L146.10610057712,76.59960624284801L146.329504742229,77.86340796788897L146.55290890733798,78.46323157364647L146.77631307244698,78.97001831732321L146.99971723755598,77.83160710637276L147.223121402665,75.82633563898867L147.446525567774,70.0062916992273L147.66992973288296,67.57325886226403L147.89333389799197,64.58840313425249L148.11673806310097,61.68335802400503L148.34014222820997,57.86050608996894L148.56354639331897,51.824625147005904L148.78695055842798,49.853366253602736L149.01035472353695,44.61838026835397L149.23375888864595,40.21008796307365L149.45716305375495,36.554434175691036L149.68056721886396,33.44173518502312L149.90397138397296,26.130185222520367L150.12737554908196,21.992723528221834L150.35077971419094,21.46975165724239L150.57418387929997,23.532640560839383L150.79758804440897,24.864887726414207L151.02099220951797,25.099324098720526L151.24439637462697,25.47548414213503L151.46780053973598,28.047201501106237L151.69120470484495,31.391946460500847L151.91460886995395,34.97410896587843L152.13801303506295,36.762640293115176L152.36141720017196,39.45127662253052L152.58482136528096,39.235151661614196L152.80822553038993,39.522111116304345L153.03162969549894,39.46341597265711L153.25503386060794,39.74131302725969L153.47843802571694,42.183093704115024L153.70184219082594,43.98353389713664L153.92524635593495,44.85171048483147L154.14865052104392,46.053260082337616L154.37205468615292,48.30784372967627L154.59545885126192,49.3877840743713L154.81886301637093,50.08580976646355L155.04226718147993,49.976873562317024L155.26567134658893,52.324558766457905L155.4890755116979,53.37365079747418L155.7124796768069,54.83149389727951L155.9358838419159,53.62603383402722L156.15928800702494,49.749739512478406L156.38269217213394,46.850333885315216L156.60609633724295,46.04244290950278L156.82950050235192,48.722123611999855L157.05290466746092,49.43176158793235L157.27630883256992,47.43094225043821L157.49971299767893,48.143396102375235L157.72311716278793,50.787383992742946L157.94652132789693,51.35606342897159L158.1699254930059,52.55663225765669L158.3933296581149,55.053557137675014L158.6167338232239,57.137176127782304L158.8401379883329,58.47748204358256L159.06354215344192,60.62006534046307L159.2869463185509,58.87839996442489L159.5103504836599,57.67406952062085L159.7337546487689,59.26453127492411L159.9571588138779,59.15469716939039L160.1805629789869,55.30405991668645L160.4039671440959,53.637277566539886L160.62737130920488,55.03607557730948L160.85077547431388,56.15212083055293L161.07417963942288,54.74012200372326L161.29758380453188,55.25427687573564L161.52098796964088,57.05142596199768L161.74439213474992,58.07653627184074L161.9677962998589,59.176250766639L162.1912004649679,61.159065269059894L162.4146046300769,60.57475034591143L162.6380087951859,61.0175146566136L162.8614129602949,62.60971011375094L163.0848171254039,66.16776332752816L163.30822129051288,66.37620316621195L163.53162545562188,64.16338118636216L163.75502962073088,66.93606277613071L163.97843378583988,68.87467186395546L164.20183795094889,70.40158131528254L164.42524211605786,70.85486630287853L164.64864628116686,70.54325634375104L164.87205044627586,67.38421128084227L165.09545461138487,67.6163885462272L165.31885877649387,68.45849368974183L165.54226294160287,69.31342466811554L165.76566710671185,70.21935542014734L165.98907127182085,71.01241946382574L166.21247543692985,74.17253908359713L166.43587960203885,73.46089955011102L166.65928376714785,75.31567681629245L166.88268793225686,76.34256816739345L167.10609209736583,74.26400304369514L167.32949626247486,76.07981643042703L167.55290042758386,77.95402777972267L167.77630459269287,77.94078797083105L167.99970875780187,78.03917227353827L168.22311292291087,79.84300838415957L168.44651708801985,79.51940563884091L168.66992125312885,79.68796691667842L168.89332541823785,80.41837625060383L169.11672958334685,81.72873743500978L169.34013374845586,82.60676528065564L169.56353791356483,81.85515694230891L169.78694207867383,83.0051363531968L170.01034624378283,82.56492622094972L170.23375040889184,82.74196503943561L170.45715457400084,82.6024109920538L170.68055873910984,84.05109658372814L170.90396290421882,83.08126198453803L171.12736706932782,84.44721542454826L171.35077123443682,86.97464238631773L171.57417539954582,87.93274621069932L171.79757956465482,88.54119564875484L172.02098372976383,87.91213964400387L172.2443878948728,87.72492854903155L172.4677920599818,87.42766149861839L172.6911962250908,87.9354300227558L172.91460039019984,86.25801204282733L173.13800455530884,84.25316177019047L173.36140872041784,84.29234659992566L173.58481288552682,82.1932433106775L173.80821705063582,80.0054711041036L174.03162121574482,79.51675143805569L174.25502538085382,80.89267153825111L174.47842954596283,80.87372223141035L174.70183371107183,80.31805967028453L174.9252378761808,78.36196507984052L175.1486420412898,77.7310669413515L175.3720462063988,75.90751281851402L175.5954503715078,77.47184076044859L175.8188545366168,76.55784334887719L176.04225870172579,78.45427845906629L176.2656628668348,78.78950384054367L176.4890670319438,76.91294364594737L176.7124711970528,77.69512236872244L176.9358753621618,78.98646396132234L177.1592795272708,80.5287722250717L177.38268369237977,81.3155291869122L177.60608785748877,80.58731747020184L177.82949202259778,81.90132784763287L178.05289618770678,81.71643963014526L178.27630035281578,82.51782974426857L178.4997045179248,84.66826725927926L178.7231086830338,85.48572198884006L178.9465128481428,85.31913004815083L179.1699170132518,86.34500381931765L179.3933211783608,86.01005646955284L179.6167253434698,85.19339304030355L179.8401295085788,86.38092470955932L180.06353367368777,88.91110709171035L180.28693783879677,89.55482775233794L180.51034200390578,91.35222572416748L180.73374616901478,91.5755850788737L180.95715033412378,91.58880300045783L181.18055449923276,93.29377538345034L181.40395866434176,95.66787711795165L181.62736282945076,96.53908820072404L181.85076699455976,96.50708768128304L182.07417115966877,96.92518230878049L182.29757532477777,97.25853893092098L182.52097948988674,98.00098263420988L182.74438365499574,99.05356967326297L182.96778782010475,99.03189073851068L183.19119198521375,99.16595583783115L183.41459615032275,100.01975969546756L183.63800031543175,101.2281264604301L183.86140448054073,102.88764815249039L184.08480864564976,103.61840694687457L184.30821281075876,104.8905026802412L184.53161697586776,105.96026534423969L184.75502114097677,105.98545665543013L184.97842530608577,105.51403088219053L185.20182947119474,106.86388438452228L185.42523363630374,107.30954592325166L185.64863780141275,108.00133059260203L185.87204196652175,108.75819899799606L186.09544613163075,109.99528687239159L186.31885029673973,110.11239489391926L186.54225446184873,109.74683795650958L186.76565862695773,110.69151315235642L186.98906279206673,111.83994877868167L187.21246695717574,113.38652934422235L187.43587112228474,114.09411308385292L187.6592752873937,114.15364026708575L187.8826794525027,114.60427639604677L188.10608361761172,114.47721236134224L188.32948778272072,114.27192744033802L188.55289194782972,112.6731933829656L188.77629611293872,111.53439963270715L188.9997002780477,108.17520977389628L189.2231044431567,106.83265078613611L189.4465086082657,106.5213025083873L189.66991277337473,105.22872982489915L189.89331693848374,102.13594607062984L190.11672110359274,100.96872577521914L190.3401252687017,100.87055535432543L190.56352943381071,100.46400118989727L190.78693359891972,100.30008165123482L191.01033776402872,98.97669769408974L191.23374192913772,98.06113214791857L191.45714609424672,99.00145211333076L191.6805502593557,99.07358059545967L191.9039544244647,98.30904233022454L192.1273585895737,98.45542735794149L192.3507627546827,98.95346326516552L192.5741669197917,100.13310266875207L192.79757108490068,100.96102391855898L193.02097525000968,101.81093997270123L193.2443794151187,102.37477498761518L193.4677835802277,101.52168093888483L193.6911877453367,104.13606190775131L193.9145919104457,102.45856608416241L194.13799607555467,103.95073401788778L194.36140024066367,105.41333783990838L194.58480440577267,106.82020593147986L194.80820857088167,108.68169278299472L195.03161273599068,108.94967774667904L195.2550169010997,109.99045828656351L195.47842106620868,110.76887920410675L195.70182523131768,111.49256498946357L195.9252293964267,113.0897622722189L196.1486335615357,115.38218300257908L196.3720377266447,116.88928120033944L196.5954418917537,116.53368287287293L196.81884605686267,116.86382241420344L197.04225022197167,118.32695817207208L197.26565438708067,120.13006595057946L197.48905855218968,121.23354427246555L197.71246271729868,121.19200529234435L197.93586688240765,121.92553399671353L198.15927104751665,122.97202380225247L198.38267521262566,123.37852080487167L198.60607937773466,124.14570321239258L198.82948354284366,125.0910268472959L199.05288770795266,126.43376120796238L199.27629187306164,127.09769574535089L199.49969603817064,128.34441110894576L199.72310020327964,128.43245819877495L199.94650436838864,128.7572110797752L200.16990853349765,129.19479282518864L200.39331269860665,129.80043287455413L200.61671686371562,130.8145561634156L200.84012102882465,130.85439103398357L201.06352519393366,131.45881199498905L201.28692935904266,131.7489587340381L201.51033352415166,131.78933980428403L201.73373768926066,131.78388625457006L201.95714185436964,131.9746275146442L202.18054601947864,131.77610155248703L202.40395018458764,131.3835530979717L202.62735434969665,131.81591329298703L202.85075851480565,132.54679031005656L203.07416267991462,132.51646795814852L203.29756684502362,131.81617086874311L203.52097101013263,131.20111984181912L203.74437517524163,130.6255686440314L203.96777934035063,130.40437028810763L204.19118350545963,131.09901384880845L204.4145876705686,131.4818025949563L204.6379918356776,131.73891144739397L204.8613960007866,132.04759890769964L205.08480016589562,132.24285802161944L205.30820433100462,132.601633617763L205.53160849611362,132.85028536867372L205.7550126612226,133.54758582214944L205.9784168263316,134.17320764467135L206.2018209914406,135.01118456855505L206.42522515654963,135.0745843309286L206.64862932165863,135.32000391558722L206.87203348676763,135.2327160751185L207.0954376518766,135.21824624255981L207.3188418169856,135.12195660617104L207.5422459820946,135.41120653704075L207.76565014720362,136.0121684724553L207.98905431231262,136.4790582687703L208.21245847742162,136.03630937740155L208.4358626425306,136.06536253954047L208.6592668076396,136.58209317773293L208.8826709727486,136.96944878184996L209.1060751378576,137.11420479237134L209.3294793029666,137.30943361094776L209.55288346807558,137.70214396647484L209.77628763318458,138.3295576017153L209.99969179829358,137.88597789041262L210.22309596340259,137.90851206638249L210.4465001285116,138.03219640253002L210.6699042936206,138.39487999879444L210.89330845872956,138.39000872978926L211.11671262383857,138.50374205003294L211.34011678894757,138.05313094268325L211.56352095405657,138.3895190969175L211.78692511916557,138.173262984779L212.0103292842746,138.72430923014625L212.23373344938358,138.9048863846184L212.45713761449258,139.00953118937983L212.68054177960158,139.45525906733502L212.90394594471059,139.23071436176218L213.1273501098196,139.57172283606837L213.3507542749286,139.34168334544123L213.57415844003756,138.92091246903857L213.79756260514657,139.3439883509042L214.02096677025557,139.34314749282595L214.24437093536457,139.35607502794468L214.46777510047357,139.37333872783802L214.69117926558255,139.32260809833505L214.91458343069155,139.24781477024501L215.13798759580055,139.29660462890538L215.36139176090956,139.37194864516485L215.58479592601856,139.11726156291468L215.80820009112756,138.67281463471085L216.03160425623653,138.19595812932465L216.25500842134554,138.45178794573718L216.47841258645454,139.05465380251408L216.70181675156354,138.78458804582036L216.92522091667254,139.06642465624583L217.14862508178155,139.56987750108567L217.37202924689052,139.81176701733338L217.59543341199955,140.4283063858511L217.81883757710855,140.7611118427736L218.04224174221756,141.14765346052602L218.26564590732656,141.11646970423587L218.48905007243556,141.3393344543144L218.71245423754453,141.82489271985307L218.93585840265354,142.29984358249197L219.15926256776254,142.488510840877L219.38266673287154,142.69801333988656L219.60607089798054,142.37535584306985L219.82947506308952,142.8278536991083L220.05287922819852,143.23504225858642L220.27628339330752,143.42566684819747L220.49968755841653,143.49103614066556L220.72309172352553,144.0311289512605L220.94649588863453,144.21147370700822L221.1699000537435,144.51977662967306L221.3933042188525,144.8632176987738L221.6167083839615,145.0515110957842L221.8401125490705,145.25102962643945L222.0635167141795,145.49841940293615L222.28692087928852,145.65911846546507L222.5103250443975,145.4831861943936L222.7337292095065,145.64250180831334L222.9571333746155,145.84740458999676L223.18053753972453,146.10020982883592L223.40394170483353,146.3514785562881L223.62734586994253,146.49728412151794L223.8507500350515,146.46010012476444L224.0741542001605,146.63705538450984L224.2975583652695,146.79748813621748L224.5209625303785,147.0704184012427L224.7443666954875,147.24169347251913L224.96777086059652,147.23466924466086L225.1911750257055,147.55478126526307L225.4145791908145,147.58364353710346L225.6379833559235,147.9386864055293L225.8613875210325,147.88784611313883L226.0847916861415,147.9149022832768L226.30819585125047,147.9558917075786L226.53160001635948,148.1133611267973L226.75500418146848,148.34416189281674L226.97840834657748,148.44837079663725L227.20181251168648,148.5065517963215L227.4252166767955,148.47008863206378L227.64862084190446,148.77974360018368L227.87202500701346,148.8745131673518L228.09542917212246,148.88864912510564L228.31883333723147,148.9836042003096L228.54223750234047,149.18734732323688L228.7656416674495,149.28197495276814L228.98904583255847,149.30643124709738L229.21244999766748,149.43394293639938L229.43585416277648,149.45583879322749L229.65925832788548,149.71793910040185L229.88266249299448,149.68343190552628L230.1060666581035,149.7631487104489L230.32947082321246,149.68958252796023L230.55287498832146,149.84658624169742L230.77627915343047,149.86722960622927L230.99968331853947,149.97379980618928L231.22308748364847,150.25186909012564L231.44649164875744,150.3495660359624L231.66989581386645,150.2337697114243L231.89329997897545,150.4593609260448L232.11670414408445,150.60543728245557L232.34010830919345,150.7377381724929L232.56351247430246,150.9182168641529L232.78691663941143,150.70312116263977L233.01032080452043,150.54746982896938L233.23372496962944,150.48243820411463L233.45712913473844,150.61430033636069L233.68053329984744,150.42310165987232L233.90393746495644,150.2501080274488L234.12734163006542,150.22457503181596L234.35074579517445,150.3767894585893L234.57414996028345,150.64387407041926L234.79755412539245,150.6221331797812L235.02095829050145,150.6138235297142L235.24436245561046,150.7424178799418L235.46776662071943,150.49758360729L235.69117078582843,150.46789942824057L235.91457495093744,150.69061014152126L236.13797911604644,150.69322904772977L236.36138328115544,150.6105101594352L236.58478744626441,150.69917874173856L236.80819161137342,150.815527482624L237.03159577648242,150.78285969703967L237.25499994159142,150.8041307883785L237.47840410670042,150.78515985449147L237.70180827180943,151.04130703689557L237.9252124369184,150.89352887291017L238.1486166020274,150.86596785862645L238.3720207671364,151.1109245069463L238.5954249322454,150.93863087307363L238.8188290973544,150.98209887934203L239.0422332624634,151.00832604846323L239.2656374275724,151.02477864816828L239.4890415926814,151.20104302422462L239.7124457577904,151.259577836562L239.93584992289942,151.27607675396717L240.15925408800842,151.24794298953353L240.38265825311743,151.28557418457885L240.6060624182264,151.3255564814848L240.8294665833354,151.34949258501328L241.0528707484444,151.53115757658958L241.2762749135534,151.48427904116292L241.4996790786624,151.37158875348408L241.7230832437714,151.38724645802964L241.9464874088804,151.5316939206771L242.1698915739894,151.66221635024638L242.3932957390984,151.66317767253292L242.6166999042074,151.6692748151973L242.8401040693164,151.7666563841452L243.06350823442537,151.8298409006902L243.28691239953437,151.86787072425318L243.51031656464338,151.86317267376643L243.73372072975238,151.89872239242936L243.95712489486138,151.83245272878312L244.18052905997038,151.9370062323138L244.40393322507936,151.83623206409686L244.62733739018836,151.72839468097328L244.85074155529736,151.8025178172354L245.07414572040636,151.7000905436881L245.29754988551537,151.69953795133893L245.5209540506244,151.57197671730827L245.74435821573337,151.73544631307223" fill="none"></path></g></g></g></g><g opacity="0.2"><g><g><g><path style="fill: none;" stroke="rgb(0, 153, 136)" stroke-width="2px" d="M22.56359727184375,156.96674867784444L22.78700143695275,156.94579312431844L23.01040560206175,156.90935164273498L23.233809767170747,156.8065648401086L23.457213932279746,156.70081451073423L23.68061809738874,156.5924164119491L23.904022262497744,156.33403777911758L24.127426427606743,156.25494295676575L24.350830592715738,156.22584878173322L24.57423475782474,156.18395514580124L24.797638922933736,156.00639905108372L25.021043088042735,156.04819403097625L25.244447253151737,156.12843305379772L25.467851418260732,155.91360982731072L25.69125558336973,155.82697350675676L25.914659748478734,155.68568480931484L26.13806391358773,155.40164778410534L26.361468078696728,155.58955969399858L26.584872243805727,155.5098795973126L26.808276408914725,155.23781513370977L27.031680574023724,154.95880597357592L27.255084739132723,154.84076260017233L27.478488904241722,154.53563219514157L27.701893069350717,154.52435486668688L27.925297234459716,154.5751591340665L28.14870139956872,154.61501856929434L28.372105564677714,154.25188155688724L28.595509729786713,153.84766455888868L28.818913894895715,154.1297163371496L29.04231806000471,153.10078803915965L29.26572222511371,152.93793790710538L29.489126390222708,152.58941920468916L29.712530555331707,152.35649963113016L29.935934720440706,152.038489747517L30.159338885549705,151.71074240801633L30.382743050658704,151.0638300559186L30.6061472157677,150.96601296706996L30.8295513808767,149.24769183480657L31.0529555459857,148.8911126794678L31.276359711094695,148.6664757220522L31.499763876203698,148.29310857238303L31.723168041312693,147.291200950982L31.946572206421692,146.6257747975391L32.169976371530694,146.61498041959013L32.39338053663969,144.62856576673815L32.61678470174869,144.12861348699954L32.84018886685769,143.77937889204821L33.06359303196668,145.06778425082936L33.286997197075685,143.69404426233336L33.51040136218468,142.43450694816357L33.73380552729368,142.06735318280587L33.957209692402685,140.8370935079726L34.18061385751168,141.96807197246133L34.404018022620676,142.13301528925544L34.62742218772968,142.55263191115972L34.85082635283867,138.70182111363246L35.07423051794767,140.38152237365227L35.29763468305668,137.8522725500331L35.521038848165674,136.1722263681394L35.74444301327467,137.35127233057352L35.96784717838367,134.3310789158801L36.19125134349267,136.27502266771953L36.41465550860166,134.7799803629933L36.63805967371066,136.28468048018823L36.86146383881967,135.37605566216877L37.08486800392866,132.14178073775233L37.30827216903766,135.47760641053762L37.53167633414666,133.7785068880481L37.755080499255655,133.33179713200855L37.97848466436465,129.83233237826474L38.20188882947366,130.7345737463266L38.425292994582655,131.9842520436013L38.64869715969165,128.91057178554823L38.87210132480065,130.37161293749833L39.09550548990965,129.3106116958189L39.31890965501864,130.01249896568012L39.542313820127646,129.5403488261509L39.76571798523665,127.19819277091425L39.98912215034564,130.27331738931417L40.21252631545464,128.74268585401754L40.43593048056364,127.65248841288846L40.65933464567264,128.69878256911204L40.88273881078164,126.45376992718911L41.10614297589064,124.83737979570765L41.32954714099964,122.8921593538767L41.55295130610863,119.72911079641702L41.776355471217634,128.52927502571598L41.99975963632663,122.64248621829245L42.223163801435625,124.80632964118587L42.44656796654463,123.32163499267611L42.66997213165363,124.9278906488215L42.893376296762625,122.42034695034901L43.11678046187162,118.79754388320275L43.34018462698062,123.4997583970469L43.56358879208962,120.66727913105085L43.78699295719862,121.86479757606399L44.01039712230762,122.50002869379743L44.23380128741662,119.9334937737279L44.45720545252561,123.48933888210671L44.680609617634616,118.14720566645144L44.90401378274361,117.86023066738127L45.127417947852614,116.75695493853415L45.35082211296161,115.92003554562953L45.57422627807061,116.83235869263008L45.79763044317961,116.23191677834295L46.0210346082886,117.72577580941847L46.244438773397604,115.55871551099297L46.46784293850661,115.88001023651442L46.6912471036156,116.17437710296517L46.914651268724604,114.37611254173443L47.1380554338336,116.19101958337997L47.361459598942595,110.30549788478483L47.5848637640516,114.91064563462055L47.80826792916059,112.4202665899553L48.031672094269595,109.80074783759216L48.25507625937859,109.48506288310284L48.47848042448759,107.55651845575782L48.70188458959659,110.46714168851456L48.92528875470558,112.31527141342917L49.148692919814586,109.73489171258852L49.37209708492359,108.44245028882479L49.595501250032584,108.62292107817059L49.818905415141586,104.24793682042765L50.04230958025058,100.18827822355539L50.26571374535958,100.63399872449834L50.48911791046858,91.0976801952843L50.71252207557758,93.36720863845157L50.93592624068658,81.65124734828767L51.15933040579557,93.45078033414434L51.382734570904574,81.4810284035267L51.60613873601357,87.25802426697L51.829542901122565,82.47511240638214L52.052947066231575,81.17516893186146L52.27635123134057,73.50114587729911L52.499755396449565,83.18490892643474L52.72315956155857,87.4349691882717L52.94656372666756,77.40699806190932L53.16996789177656,83.056775240869L53.39337205688555,72.33286674696988L53.61677622199456,75.75380189213566L53.84018038710356,73.36340707566207L54.06358455221255,67.27835286360751L54.286988717321556,70.15041191463158L54.51039288243055,61.98440571279176L54.73379704753955,71.45063324288397L54.957201212648556,73.88643319158892L55.18060537775755,68.2694667058823L55.40400954286655,82.58348973350495L55.62741370797555,74.76750737493207L55.850817873084544,74.74151367926974L56.07422203819354,69.73227079185445L56.29762620330254,72.02512936732462L56.521030368411544,69.8518437081337L56.74443453352054,67.53934374817854L56.967838698629535,80.074542394629L57.19124286373854,66.71629308895297L57.41464702884753,62.65725247710472L57.638051193956535,63.785252397495015L57.86145535906554,60.05017965569083L58.08485952417453,71.62838298189138L58.30826368928353,65.02838915561988L58.53166785439253,49.6023236348556L58.755072019501526,69.15585843478112L58.97847618461052,65.63720500651182L59.201880349719524,59.263211656938616L59.425284514828526,58.513370665444576L59.64868867993752,54.35170621495316L59.87209284504652,52.71972753100485L60.09549701015552,53.29436737289295L60.318901175264514,53.236746257628255L60.54230534037352,73.96558318048177L60.76570950548252,54.18608622851062L60.989113670591514,66.98257277559019L61.21251783570051,61.5409128322843L61.43592200080951,67.63336370230098L61.65932616591851,65.15004118430558L61.88273033102751,61.776494472145984L62.106134496136505,55.428140315198036L62.32953866124551,60.90302773235458L62.5529428263545,64.7236410988816L62.7763469914635,63.224419011725374L62.9997511565725,60.49229284870278L63.2231553216815,57.13276337825125L63.4465594867905,58.318576037169485L63.6699636518995,57.6147150476966L63.893367817008496,64.91595420589738L64.1167719821175,44.59952887024927L64.3401761472265,56.504037870305744L64.56358031233549,71.62975308822375L64.78698447744449,60.878270006740365L65.01038864255348,65.86445103442136L65.23379280766248,53.869974912260545L65.45719697277148,54.28616147775235L65.68060113788049,63.76940515362275L65.90400530298949,56.380067200134505L66.12740946809848,56.10604593366126L66.35081363320748,62.32889643433183L66.57421779831648,56.74410349452791L66.79762196342548,69.74129624755437L67.02102612853447,57.36566229242718L67.24443029364348,59.450513815619935L67.46783445875246,60.96025601992959L67.69123862386147,61.221515177069186L67.91464278897047,62.25927970278656L68.13804695407947,73.36909828658112L68.36145111918847,67.19104930486262L68.58485528429748,80.28422135987843L68.80825944940646,68.33628573778384L69.03166361451547,75.8346573280716L69.25506777962447,82.23234010356632L69.47847194473346,81.27210635016715L69.70187610984246,62.575898820684294L69.92528027495146,74.1576184337658L70.14868444006045,74.95319031703875L70.37208860516945,77.71637861103709L70.59549277027845,74.09943202987448L70.81889693538744,77.05825330392472L71.04230110049646,82.47993173145332L71.26570526560546,71.04486140175082L71.48910943071445,68.99493321828865L71.71251359582345,72.51800356277626L71.93591776093244,52.94182847429563L72.15932192604144,74.91670524771253L72.38272609115045,71.69555651682997L72.60613025625943,78.27270405953836L72.82953442136844,79.45918739987803L73.05293858647744,77.02775646157559L73.27634275158643,78.07215594278364L73.49974691669543,80.2029203998554L73.72315108180445,76.80929636028691L73.94655524691343,69.61497819240812L74.16995941202244,81.29075608426471L74.39336357713144,76.56894809175144L74.61676774224043,78.83320210459728L74.84017190734943,85.52975010264794L75.06357607245843,79.69514270510311L75.28698023756742,76.3078230708961L75.51038440267642,75.03568413187563L75.73378856778542,85.77295355780612L75.95719273289441,65.66758687490298L76.18059689800342,87.57673686901894L76.40400106311243,76.57613396412398L76.62740522822142,67.67419861970339L76.85080939333042,81.65675172652504L77.07421355843941,84.78279783184767L77.29761772354841,77.57682417898059L77.52102188865742,84.80169667618748L77.7444260537664,86.05884588543883L77.9678302188754,84.79929659481505L78.19123438398441,88.00653826736591L78.4146385490934,88.65649084229993L78.6380427142024,87.1474241099933L78.8614468793114,90.21086210462471L79.08485104442039,91.16082964169425L79.3082552095294,84.49160712098559L79.53165937463841,86.53497699826242L79.7550635397474,89.60236722269873L79.9784677048564,78.12233249427037L80.2018718699654,90.37964387491115L80.42527603507439,79.06446743045386L80.64868020018339,88.95466622110811L80.8720843652924,86.60606443835327L81.09548853040138,91.18650715897216L81.31889269551039,81.27405132628934L81.54229686061939,78.57488915513042L81.76570102572838,85.07887493592307L81.98910519083738,75.4241236488462L82.2125093559464,82.02988054476049L82.43591352105538,87.18075697663878L82.65931768616439,62.0864930062978L82.88272185127337,73.53443083812876L83.10612601638238,74.82219665426875L83.32953018149138,65.73312203094063L83.55293434660037,92.07405341803218L83.77633851170937,78.60354641415215L83.99974267681837,80.42900710702216L84.22314684192736,80.26514047343854L84.44655100703636,82.08968137464487L84.66995517214536,84.09756262356444L84.89335933725437,87.56032912710162L85.11676350236337,73.41191650475835L85.34016766747237,85.95045418657128L85.56357183258136,80.94831573164163L85.78697599769036,79.19063218698952L86.01038016279936,94.46427577356883L86.23378432790835,90.31737110493061L86.45718849301736,88.58651481713603L86.68059265812636,78.67221940112583L86.90399682323535,89.65260126116443L87.12740098834435,92.98399564598664L87.35080515345335,85.80899310304525L87.57420931856234,87.63220222257186L87.79761348367136,91.98095804615498L88.02101764878036,81.9922361546915L88.24442181388935,73.055094826227L88.46782597899835,88.34907443162062L88.69123014410734,79.22670526629972L88.91463430921634,86.63825235600072L89.13803847432534,91.76969339840203L89.36144263943433,90.41558760851865L89.58484680454333,84.5426843018097L89.80825096965233,83.2859422919928L90.03165513476132,84.83797095992412L90.25505929987033,91.72593143565318L90.47846346497934,86.43177349924784L90.70186763008833,95.93325970978138L90.92527179519733,95.30968886761778L91.14867596030633,91.85249381046013L91.37208012541532,85.0752772091552L91.59548429052433,90.63060807223168L91.81888845563333,91.39818858732276L92.04229262074232,89.59979947097094L92.26569678585132,85.82553019066528L92.48910095096032,91.56361215992044L92.71250511606931,87.12046271685149L92.93590928117831,98.44463587351922L93.15931344628733,94.4930048913143L93.38271761139632,85.9463869828084L93.60612177650532,97.55171937250611L93.8295259416143,82.83438207210173L94.05293010672331,90.62357549846975L94.27633427183231,95.26668381675887L94.4997384369413,96.88031936383085L94.7231426020503,98.23895704389051L94.9465467671593,92.5267250528502L95.16995093226829,98.61381526207697L95.3933550973773,96.44103261395209L95.6167592624863,96.30189017191162L95.84016342759529,98.90834500830147L96.0635675927043,100.67703251884676L96.2869717578133,93.3001069622367L96.5103759229223,100.42585274535506L96.7337800880313,103.12164234708045L96.9571842531403,97.18845436174739L97.18058841824929,101.28203506679968L97.40399258335829,98.09101430348446L97.62739674846729,96.79050074975554L97.85080091357628,101.59741821464932L98.07420507868528,96.86862076360835L98.29760924379428,101.63246131891945L98.52101340890327,104.95299545529598L98.74441757401227,97.20605974906012L98.96782173912129,101.65494830886398L99.19122590423028,98.07686292549211L99.41463006933928,99.43641560663387L99.63803423444827,97.0395487144434L99.86143839955727,104.88332602735328L100.08484256466627,104.3690475133946L100.30824672977526,105.28413482596781L100.53165089488427,103.81113159180823L100.75505505999327,94.67459667675021L100.97845922510226,105.17432032437051L101.20186339021126,100.38273751111976L101.42526755532026,101.37910183080808L101.64867172042926,109.19497400600459L101.87207588553827,100.37959968018373L102.09548005064727,104.04967381108742L102.31888421575626,106.78626000556257L102.54228838086526,102.28729549648521L102.76569254597426,100.05213947616663L102.98909671108325,102.05065992867557L103.21250087619225,106.98073845545326L103.43590504130125,100.29910832844801L103.65930920641024,100.77577119582718L103.88271337151924,101.86181041214334L104.10611753662825,99.26480260263261L104.32952170173724,100.72477545488998L104.55292586684625,104.76043323803795L104.77633003195525,100.93022912718436L104.99973419706424,97.29902577523461L105.22313836217324,103.0324417180292L105.44654252728223,98.84176071489742L105.66994669239124,107.50757787431915L105.89335085750024,99.29575934081356L106.11675502260923,103.09188804487651L106.34015918771823,95.51296761587406L106.56356335282723,89.62089719225673L106.78696751793622,88.18464729999194L107.01037168304522,84.5469766629069L107.23377584815424,83.5663637754592L107.45718001326323,78.07796691824225L107.68058417837223,82.64648588130429L107.90398834348123,83.06929782112357L108.12739250859022,81.8252173184271L108.35079667369922,81.70538092016088L108.57420083880822,66.03976715798525L108.79760500391721,77.81489213068318L109.02100916902621,85.36665475269896L109.24441333413522,81.12275996935767L109.4678174992442,89.3041487286563L109.69122166435321,74.66512306536796L109.91462582946222,83.57359276306599L110.13802999457121,63.37547563015954L110.36143415968021,71.963876991221L110.5848383247892,80.64276285719764L110.8082424898982,65.78282910543236L111.03164665500721,78.68174786789183L111.2550508201162,66.96571950958575L111.4784549852252,87.54407947437649L111.7018591503342,88.01904647587573L111.92526331544319,81.67215344631019L112.14866748055219,85.3608054525877L112.3720716456612,89.09160020503943L112.59547581077018,95.49965938024012L112.8188799758792,80.4494724715392L113.0422841409882,79.73162298384774L113.26568830609719,83.23792150221784L113.48909247120619,78.10629362713483L113.7124966363152,81.45273522870517L113.93590080142418,76.26182390654864L114.15930496653318,80.17602607485574L114.38270913164219,79.48494635704284L114.60611329675118,70.61155329768603L114.82951746186018,88.55477242357568L115.05292162696918,78.21495359857096L115.27632579207817,69.61263080743308L115.49972995718717,78.9460538349174L115.72313412229619,55.20488963232763L115.94653828740518,58.07999549323765L116.16994245251418,63.01529096335784L116.39334661762317,67.61537027788012L116.61675078273217,58.83161858108008L116.84015494784117,61.49276748738821L117.06355911295016,52.715176478502244L117.28696327805916,45.495061028805964L117.51036744316816,65.62611001956861L117.73377160827715,55.13710290294658L117.95717577338615,64.84235171047614L118.18057993849516,58.35936304875607L118.40398410360416,65.80898568086843L118.62738826871316,67.27438626205786L118.85079243382216,66.82068944278137L119.07419659893115,70.31769902346454L119.29760076404015,75.15063892751012L119.52100492914916,72.41233291424713L119.74440909425815,75.16728140792495L119.96781325936715,71.4326685619526L120.19121742447615,84.86991934849247L120.41462158958514,89.82553646568222L120.63802575469414,78.5246838601542L120.86142991980314,86.93327074154655L121.08483408491213,74.96793572714722L121.30823825002115,81.37166900717965L121.53164241513015,73.6208337675363L121.75504658023914,87.5815130788559L121.97845074534814,84.96497885881814L122.20185491045713,70.50431133839808L122.42525907556613,74.11920755064374L122.64866324067513,81.74001682499656L122.87206740578412,77.43116654598899L123.09547157089312,88.07927845810244L123.31887573600213,83.46221174129144L123.54227990111112,82.9491596162177L123.76568406622012,84.10034116088183L123.98908823132913,90.36601946089279L124.21249239643812,84.87503568962173L124.43589656154712,83.97166134901578L124.65930072665613,84.73436505205667L124.88270489176512,84.18151277520215L125.10610905687412,75.7710671481561L125.32951322198312,80.02236338004113L125.55291738709211,72.79963227280126L125.77632155220111,75.05934002372608L125.99972571731011,67.78001298568L126.2231298824191,54.136915699156056L126.4465340475281,56.506845151112614L126.66993821263712,35.88444536984132L126.89334237774611,19.840404406200893L127.11674654285511,-1.6912573404402702L127.3401507079641,11.487115208006106L127.5635548730731,17.205632442081605L127.7869590381821,11.991362244132693L128.0103632032911,15.803975339418283L128.2337673684001,20.60294043888642L128.4571715335091,5.737804115523431L128.6805756986181,10.25362668118677L128.9039798637271,24.359015090344776L129.1273840288361,25.65984961303965L129.35078819394508,31.264331843144372L129.57419235905408,5.538285973808773L129.79759652416308,15.116249028712563L130.02100068927209,21.70260885980254L130.2444048543811,35.15629613174923L130.4678090194901,0.5734230341663474L130.69121318459906,25.50752828106791L130.9146173497081,29.06330871659539L131.1380215148171,11.108582613746472L131.36142567992607,34.64420212299181L131.58482984503507,33.90777475992651L131.80823401014408,22.57937151972215L132.03163817525308,30.19477701805081L132.25504234036208,35.65321357805581L132.47844650547108,41.59950380401485L132.70185067058006,25.534652553983506L132.92525483568906,28.672186473939053L133.14865900079806,32.08904962476038L133.37206316590706,33.81482789607838L133.59546733101607,22.983552887770184L133.81887149612507,45.019097586337736L134.04227566123407,28.859373658662413L134.26567982634307,34.744766011554844L134.48908399145208,51.45278158241893L134.71248815656108,34.16386008895788L134.93589232167005,45.615764522338495L135.15929648677906,28.400416780809202L135.38270065188806,40.23035558796492L135.60610481699706,37.90404917189132L135.82950898210606,40.14896360689185L136.05291314721504,57.43117828613851L136.27631731232404,40.59039653731918L136.49972147743304,48.47566507730819L136.72312564254204,48.23088552080965L136.94652980765105,49.0572416813266L137.16993397276005,44.53930167860414L137.39333813786902,47.88533129015844L137.61674230297803,33.1672466590273L137.84014646808703,37.81341136836556L138.06355063319603,44.4239444741168L138.28695479830503,56.86485489387624L138.51035896341403,61.124668779813526L138.733763128523,59.60463640626639L138.957167293632,65.14391882104417L139.180571458741,67.87817200228903L139.40397562385004,71.80962984545341L139.62737978895905,43.50005207259642L139.85078395406805,61.80500801372027L140.07418811917702,61.82773453274385L140.29759228428603,58.20861302754313L140.52099644939503,58.40979829164823L140.74440061450403,67.41675276550284L140.96780477961303,57.84124248836889L141.19120894472204,69.27595831503434L141.414613109831,73.12472113893543L141.63801727494,76.03361976232276L141.861421440049,67.21316262944374L142.08482560515802,69.67216815533045L142.30822977026702,83.08732477961551L142.531633935376,66.55462054173374L142.755038100485,74.32396658860877L142.978442265594,78.80452089266764L143.201846430703,69.04131562916267L143.425250595812,71.793303543423L143.648654760921,83.86673803121337L143.87205892602998,79.32725478311801L144.09546309113898,75.95191160286528L144.31886725624798,74.8668448746102L144.542271421357,79.85378760476269L144.765675586466,76.697335678141L144.98907975157502,85.32821991666898L145.212483916684,67.11233046831211L145.435888081793,88.52159285554083L145.659292246902,81.66259623605471L145.882696412011,68.35380968520973L146.10610057712,75.34798214518666L146.329504742229,82.91861486805277L146.55290890733798,80.86252599667654L146.77631307244698,80.99716529203023L146.99971723755598,73.27796226257085L147.223121402665,67.80524976945239L147.446525567774,46.7261159401818L147.66992973288296,57.84112751441092L147.89333389799197,52.6489802222063L148.11673806310097,50.063177583015154L148.34014222820997,42.56909835382463L148.56354639331897,27.681101375153748L148.78695055842798,41.96833067998995L149.01035472353695,23.67843632735897L149.23375888864595,22.576918741952323L149.45716305375495,21.931819026160568L149.68056721886396,20.99093922235149L149.90397138397296,-3.1160146274905633L150.12737554908196,5.442876751027638L150.35077971419094,19.37786417332457L150.57418387929997,31.784196175227297L150.79758804440897,30.19387638871346L151.02099220951797,26.03706958794589L151.24439637462697,26.98012431579305L151.46780053973598,38.33407093699106L151.69120470484495,44.770926298079345L151.91460886995395,49.30275898738873L152.13801303506295,43.9167656020622L152.36141720017196,50.20582194019186L152.58482136528096,38.37065181794892L152.80822553038993,40.6699489350649L153.03162969549894,39.22863539806825L153.25503386060794,40.85290124567003L153.47843802571694,51.950216411536346L153.70184219082594,51.185294669223126L153.92524635593495,48.32441683561076L154.14865052104392,50.8594584723622L154.37205468615292,57.32617831903081L154.59545885126192,53.707545453151425L154.81886301637093,52.87791253483259L155.04226718147993,49.541128745730965L155.26567134658893,61.71529958302135L155.4890755116979,57.570018921539344L155.7124796768069,60.662866296500795L155.9358838419159,48.80419358101803L156.15928800702494,34.24456222628321L156.38269217213394,35.25271137666253L156.60609633724295,42.81087900625303L156.82950050235192,59.44084642198807L157.05290466746092,52.27031349166239L157.27630883256992,39.42766490046157L157.49971299767893,50.99321151012327L157.72311716278793,61.36333555421383L157.94652132789693,53.630781173886255L158.1699254930059,57.35890757239698L158.3933296581149,65.04125665774833L158.6167338232239,65.47165208821143L158.8401379883329,63.83870570678363L159.06354215344192,69.19039852798518L159.2869463185509,51.91173846027214L159.5103504836599,52.85674774540463L159.7337546487689,65.62637829213718L159.9571588138779,58.71536074725539L160.1805629789869,39.9015109058707L160.4039671440959,46.9701481659536L160.62737130920488,60.6312676203879L160.85077547431388,60.61630184352667L161.07417963942288,49.09212669640454L161.29758380453188,57.310896363785176L161.52098796964088,64.24002230704582L161.74439213474992,62.17697751121296L161.9677962998589,63.575108745832146L162.1912004649679,69.09032327874345L162.4146046300769,58.237490653317636L162.6380087951859,62.78857189942229L162.8614129602949,68.97849194230025L163.0848171254039,80.39997618263706L163.30822129051288,67.20996252094716L163.53162545562188,55.31209326696293L163.75502962073088,78.02678913520494L163.97843378583988,76.62910821525442L164.20183795094889,76.50921912059079L164.42524211605786,72.66800625326246L164.64864628116686,69.29681650724106L164.87205044627586,54.748031029207226L165.09545461138487,68.545097607767L165.31885877649387,71.8269142638002L165.54226294160287,72.73314858161042L165.76566710671185,73.84307842827454L165.98907127182085,74.18467563853925L166.21247543692985,86.81301756268272L166.43587960203885,70.61434141616658L166.65928376714785,82.7347858810182L166.88268793225686,80.45013357179747L167.10609209736583,65.94974254890194L167.32949626247486,83.34306997735456L167.55290042758386,85.45087317690526L167.77630459269287,77.88782873526455L167.99970875780187,78.43270948436714L168.22311292291087,87.05835282664475L168.44651708801985,78.2249946575662L168.66992125312885,80.36221202802852L168.89332541823785,83.34001358630543L169.11672958334685,86.97018217263356L169.34013374845586,86.1188766632391L169.56353791356483,78.84872358892198L169.78694207867383,87.60505399674837L170.01034624378283,80.80408569196138L170.23375040889184,83.45012031337924L170.45715457400084,82.04419480252663L170.68055873910984,89.84583895042547L170.90396290421882,79.20192358777757L171.12736706932782,89.91102918458924L171.35077123443682,97.08435023339544L171.57417539954582,91.76516150822575L171.79757956465482,90.97499340097696L172.02098372976383,85.39591562499999L172.2443878948728,86.9760841691422L172.4677920599818,86.23859329696579L172.6911962250908,89.96650411930533L172.91460039019984,79.54834012311348L173.13800455530884,76.23376067964304L173.36140872041784,84.44908591886644L173.58481288552682,73.7968301536848L173.80821705063582,71.25438227780805L174.03162121574482,77.5618727738641L174.25502538085382,86.39635193903277L174.47842954596283,80.79792500404733L174.70183371107183,78.09540942578121L174.9252378761808,70.53758671806457L175.1486420412898,75.20747438739541L175.3720462063988,68.6132963271641L175.5954503715078,83.72915252818696L175.8188545366168,72.90185370259157L176.04225870172579,86.04001889982273L176.2656628668348,80.13040536645322L176.4890670319438,69.40670286756212L176.7124711970528,80.82383725982272L176.9358753621618,84.15183033172194L177.1592795272708,86.69800528006927L177.38268369237977,84.46255703427417L177.60608785748877,77.67447060336039L177.82949202259778,87.1573693573569L178.05289618770678,80.97688676019489L178.27630035281578,85.72339020076184L178.4997045179248,93.27001731932204L178.7231086830338,88.75554090708314L178.9465128481428,84.65276228539399L179.1699170132518,90.44849890398493L179.3933211783608,84.67026707049352L179.6167253434698,81.92673932330649L179.8401295085788,91.1310513865824L180.06353367368777,99.03183662031452L180.28693783879677,92.12971039484836L180.51034200390578,98.54181761148558L180.73374616901478,92.46902249769863L180.95715033412378,91.64167468679426L181.18055449923276,100.11366491542039L181.40395866434176,105.16428405595683L181.62736282945076,100.02393253181357L181.85076699455976,96.37908560351914L182.07417115966877,98.59756081877026L182.29757532477777,98.59196541948282L182.52097948988674,100.97075744736554L182.74438365499574,103.26391782947537L182.96778782010475,98.94517499950157L183.19119198521375,99.70221623511293L183.41459615032275,103.43497512601314L183.63800031543175,106.06159352028037L183.86140448054073,109.5257349207315L184.08480864564976,106.54144212441136L184.30821281075876,109.97888561370767L184.53161697586776,110.23931600023364L184.75502114097677,106.08622190019187L184.97842530608577,103.62832778923213L185.20182947119474,112.26329839384931L185.42523363630374,109.09219207816922L185.64863780141275,110.76846927000351L185.87204196652175,111.78567261957222L186.09544613163075,114.94363836997373L186.31885029673973,110.58082698002988L186.54225446184873,108.28461020687094L186.76565862695773,114.47021393574379L186.98906279206673,116.43369128398258L187.21246695717574,119.57285160638513L187.43587112228474,116.9244480423751L187.6592752873937,114.39174900001711L187.8826794525027,116.40682091189083L188.10608361761172,113.96895622252417L188.32948778272072,113.45078775632116L188.55289194782972,106.27825715347592L188.77629611293872,106.97922463167346L188.9997002780477,94.73845033865268L189.2231044431567,101.46241483509543L189.4465086082657,105.27590939739204L189.66991277337473,100.05843909094656L189.89331693848374,89.76481105355259L190.11672110359274,96.29984459357624L190.3401252687017,100.47787367075074L190.56352943381071,98.83778453218461L190.78693359891972,99.64440349658497L191.01033776402872,93.68316186550946L191.23374192913772,94.39886996323389L191.45714609424672,102.76273197497947L191.6805502593557,99.36209452397537L191.9039544244647,95.250889269284L192.1273585895737,99.04096746880926L192.3507627546827,100.94560689406161L192.5741669197917,104.85166028309825L192.79757108490068,104.27270891778663L193.02097525000968,105.21060418927031L193.2443794151187,104.63011504727095L193.4677835802277,98.10930474396338L193.6911877453367,114.5935857832173L193.9145919104457,95.74858278980683L194.13799607555467,109.91940575278929L194.36140024066367,111.26375312799073L194.58480440577267,112.4476782977658L194.80820857088167,116.12764018905409L195.03161273599068,110.02161760141644L195.2550169010997,114.15358044610132L195.47842106620868,113.88256287427978L195.70182523131768,114.38730813089087L195.9252293964267,119.47855140324015L196.1486335615357,124.55186592401989L196.3720377266447,122.91767399138084L196.5954418917537,115.1112895630069L196.81884605686267,118.18438057952542L197.04225022197167,124.17950120354672L197.26565438708067,127.342497064609L197.48905855218968,125.64745756001L197.71246271729868,121.02584937185954L197.93586688240765,124.8596488141902L198.15927104751665,127.15798302440825L198.38267521262566,125.00450881534842L198.60607937773466,127.2144328424762L198.82948354284366,128.87232138690914L199.05288770795266,131.80469865062838L199.27629187306164,129.7534338949049L199.49969603817064,133.3312725633253L199.72310020327964,128.78464655809165L199.94650436838864,130.0562226037763L200.16990853349765,130.94511980684234L200.39331269860665,132.22299307201612L200.61671686371562,134.87104931886145L200.84012102882465,131.01373051625544L201.06352519393366,133.876495839011L201.28692935904266,132.90954569023432L201.51033352415166,131.95086408526763L201.73373768926066,131.7620720557144L201.95714185436964,132.73759255494076L202.18054601947864,130.98199770385827L202.40395018458764,129.8133592799104L202.62735434969665,133.54535407304834L202.85075851480565,135.47029837833475L203.07416267991462,132.3951785505164L203.29756684502362,129.0149825111214L203.52097101013263,128.74091573412312L203.74437517524163,128.32336385288053L203.96777934035063,129.51957686441264L204.19118350545963,133.8775880916116L204.4145876705686,133.01295757954767L204.6379918356776,132.7673468571447L204.8613960007866,133.28234874892223L205.08480016589562,133.0238944772987L205.30820433100462,134.03673600233728L205.53160849611362,133.84489237231654L205.7550126612226,136.33678763605238L205.9784168263316,136.67569493475898L206.2018209914406,138.36309226408977L206.42522515654963,135.32818338042281L206.64862932165863,136.3016822542217L206.87203348676763,134.88356471324366L207.0954376518766,135.16036691232506L207.3188418169856,134.73679806061588L207.5422459820946,136.5682062605196L207.76565014720362,138.41601621411363L207.98905431231262,138.3466174540303L208.21245847742162,134.26531381192655L208.4358626425306,136.1815751880961L208.6592668076396,138.64901573050278L208.8826709727486,138.51887119831812L209.1060751378576,137.69322883445685L209.3294793029666,138.09034888525346L209.55288346807558,139.27298538858304L209.77628763318458,140.83921214267713L209.99969179829358,136.11165904520198L210.22309596340259,137.99864877026195L210.4465001285116,138.52693374712013L210.6699042936206,139.84561438385222L210.89330845872956,138.3705236537684L211.11671262383857,138.9586753310077L211.34011678894757,136.2506865132845L211.56352095405657,139.7350717138545L211.78692511916557,137.30823853622508L212.0103292842746,140.92849421161526L212.23373344938358,139.627195002507L212.45713761449258,139.42811040842545L212.68054177960158,141.2381705791557L212.90394594471059,138.3325355394709L213.1273501098196,140.93575673329312L213.3507542749286,138.4215253829326L213.57415844003756,137.23782896342806L213.79756260514657,141.03629187836668L214.02096677025557,139.33978406051287L214.24437093536457,139.4077851684197L214.46777510047357,139.4423935274113L214.69117926558255,139.11968558032325L214.91458343069155,138.94864145788483L215.13798759580055,139.49176406354692L215.36139176090956,139.67332471020256L215.58479592601856,138.09851323391408L215.80820009112756,136.89502692189555L216.03160425623653,136.28853210777993L216.25500842134554,139.47510721138732L216.47841258645454,141.46611722962157L216.70181675156354,137.70432501904546L216.92522091667254,140.1937710979477L217.14862508178155,141.58368888044504L217.37202924689052,140.77932508232428L217.59543341199955,142.89446385992193L217.81883757710855,142.09233367046366L218.04224174221756,142.6938199315356L218.26564590732656,140.99173467907528L218.48905007243556,142.23079345462875L218.71245423754453,143.7671257820076L218.93585840265354,144.1996470330476L219.15926256776254,143.24317987441708L219.38266673287154,143.5360233359248L219.60607089798054,141.08472585580307L219.82947506308952,144.6378451232619L220.05287922819852,144.86379649649896L220.27628339330752,144.18816520664166L220.49968755841653,143.75251331053803L220.72309172352553,146.19150019364022L220.94649588863453,144.93285272999918L221.1699000537435,145.7529883203323L221.3933042188525,146.23698197517686L221.6167083839615,145.80468468382583L221.8401125490705,146.04910374906035L222.0635167141795,146.48797850892308L222.28692087928852,146.3019147155806L222.5103250443975,144.77945711010773L222.7337292095065,146.27976426399223L222.9571333746155,146.66701571673056L223.18053753972453,147.1114307841925L223.40394170483353,147.35655346609684L223.62734586994253,147.08050638243722L223.8507500350515,146.31136413775053L224.0741542001605,147.34487642349143L224.2975583652695,147.43921914304798L224.5209625303785,148.16213946134366L224.7443666954875,147.92679375762486L224.96777086059652,147.20657233322777L225.1911750257055,148.83522934767186L225.4145791908145,147.69909262446507L225.6379833559235,149.35885787923263L225.8613875210325,147.68448494357708L226.0847916861415,148.02312696382856L226.30819585125047,148.11984940478578L226.53160001635948,148.74323880367197L226.75500418146848,149.26736495689454L226.97840834657748,148.86520641191936L227.20181251168648,148.7392757950585L227.4252166767955,148.32423597503285L227.64862084190446,150.01836347266322L227.87202500701346,149.25359143602444L228.09542917212246,148.94519295612093L228.31883333723147,149.3634245011254L228.54223750234047,150.00231981494613L228.7656416674495,149.66048547089312L228.98904583255847,149.4042564244143L229.21244999766748,149.94398969360734L229.43585416277648,149.54342222053998L229.65925832788548,150.7663403290993L229.88266249299448,149.54540312602404L230.1060666581035,150.0820159301393L230.32947082321246,149.39531779800555L230.55287498832146,150.47460109664613L230.77627915343047,149.94980306435676L230.99968331853947,150.4000806060293L231.22308748364847,151.3641462258711L231.44649164875744,150.74035381930938L231.66989581386645,149.77058441327185L231.89329997897545,151.36172578452695L232.11670414408445,151.18974270809852L232.34010830919345,151.2669417326422L232.56351247430246,151.64013163079287L232.78691663941143,149.84273835658732L233.01032080452043,149.92486449428782L233.23372496962944,150.22231170469558L233.45712913473844,151.14174886534497L233.68053329984744,149.65830695391884L233.90393746495644,149.55813349775468L234.12734163006542,150.12244304928456L234.35074579517445,150.98564716568256L234.57414996028345,151.71221251773923L234.79755412539245,150.53516961722897L235.02095829050145,150.5805849294462L235.24436245561046,151.2567952808522L235.46776662071943,149.51824651668278L235.69117078582843,150.34916271204278L235.91457495093744,151.581452994644L236.13797911604644,150.703704672564L236.36138328115544,150.27963460625682L236.58478744626441,151.05385307095202L236.80819161137342,151.28092244616573L237.03159577648242,150.65218855470246L237.25499994159142,150.88921515373372L237.47840410670042,150.70927611894348L237.70180827180943,152.06589576651186L237.9252124369184,150.3024162169686L238.1486166020274,150.75572380149157L238.3720207671364,152.09075110022582L238.5954249322454,150.24945633758287L238.8188290973544,151.15597090441563L239.0422332624634,151.11323472494797L239.2656374275724,151.09058904698858L239.4890415926814,151.90610052844997L239.7124457577904,151.49371708591136L239.93584992289942,151.34207242358804L240.15925408800842,151.13540793179888L240.38265825311743,151.43609896476016L240.6060624182264,151.4854856691086L240.8294665833354,151.44523699912725L241.0528707484444,152.25781754289466L241.2762749135534,151.2967648994564L241.4996790786624,150.92082760276867L241.7230832437714,151.44987727621182L241.9464874088804,152.109483771267L242.1698915739894,152.18430606852348L242.3932957390984,151.66702296167904L242.6166999042074,151.69366338585488L242.8401040693164,152.15618265993675L243.06350823442537,152.0825789668701L243.28691239953437,152.0199900185052L243.51031656464338,151.84438047181942L243.73372072975238,152.04092126708105L243.95712489486138,151.56737407419809L244.18052905997038,152.35522024643652L244.40393322507936,151.43313539122917L244.62733739018836,151.29704514847893L244.85074155529736,152.099010362284L245.07414572040636,151.2903814494988L245.29754988551537,151.69732758194218L245.5209540506244,151.0617317811858L245.74435821573337,152.38932469612797" fill="none"></path></g></g></g></g></g></g><g transform="translate(61, 176)" clip-path="url(#clip_1)"><clipPath id="clip_1"><rect width="268" height="23"></rect></clipPath><g><g><line x1="0" y1="0" x2="0" y2="5" style="visibility: inherit;" fill="rgb(0, 0, 0)" stroke="rgb(204, 204, 204)" stroke-width="1px"></line><line x1="22.34041651089986" y1="0" x2="22.34041651089986" y2="5" style="visibility: inherit;" fill="rgb(0, 0, 0)" stroke="rgb(204, 204, 204)" stroke-width="1px"></line><line x1="44.68083302179972" y1="0" x2="44.68083302179972" y2="5" style="visibility: inherit;" fill="rgb(0, 0, 0)" stroke="rgb(204, 204, 204)" stroke-width="1px"></line><line x1="67.02124953269958" y1="0" x2="67.02124953269958" y2="5" style="visibility: inherit;" fill="rgb(0, 0, 0)" stroke="rgb(204, 204, 204)" stroke-width="1px"></line><line x1="89.36166604359944" y1="0" x2="89.36166604359944" y2="5" style="visibility: inherit;" fill="rgb(0, 0, 0)" stroke="rgb(204, 204, 204)" stroke-width="1px"></line><line x1="111.70208255449931" y1="0" x2="111.70208255449931" y2="5" style="visibility: inherit;" fill="rgb(0, 0, 0)" stroke="rgb(204, 204, 204)" stroke-width="1px"></line><line x1="134.04249906539917" y1="0" x2="134.04249906539917" y2="5" style="visibility: inherit;" fill="rgb(0, 0, 0)" stroke="rgb(204, 204, 204)" stroke-width="1px"></line><line x1="156.38291557629904" y1="0" x2="156.38291557629904" y2="5" style="visibility: inherit;" fill="rgb(0, 0, 0)" stroke="rgb(204, 204, 204)" stroke-width="1px"></line><line x1="178.72333208719888" y1="0" x2="178.72333208719888" y2="5" style="visibility: inherit;" fill="rgb(0, 0, 0)" stroke="rgb(204, 204, 204)" stroke-width="1px"></line><line x1="201.06374859809875" y1="0" x2="201.06374859809875" y2="5" style="visibility: inherit;" fill="rgb(0, 0, 0)" stroke="rgb(204, 204, 204)" stroke-width="1px"></line><line x1="223.40416510899863" y1="0" x2="223.40416510899863" y2="5" style="visibility: inherit;" fill="rgb(0, 0, 0)" stroke="rgb(204, 204, 204)" stroke-width="1px"></line><line x1="245.74458161989847" y1="0" x2="245.74458161989847" y2="5" style="visibility: inherit;" fill="rgb(0, 0, 0)" stroke="rgb(204, 204, 204)" stroke-width="1px"></line><line x1="268.08499813079834" y1="0" x2="268.08499813079834" y2="5" style="visibility: inherit;" fill="rgb(0, 0, 0)" stroke="rgb(204, 204, 204)" stroke-width="1px"></line></g><g transform="translate(0, 8)"><text style="text-anchor: middle; visibility: hidden; font-family: Roboto, sans-serif; font-size: 12px; font-weight: 200;" x="0" y="0" dx="0em" dy="0.95em" fill="rgb(33, 33, 33)" stroke="none" stroke-width="1px">-100k</text><text style="text-anchor: middle; visibility: inherit; font-family: Roboto, sans-serif; font-size: 12px; font-weight: 200;" x="22.34041651089986" y="0" dx="0em" dy="0.95em" fill="rgb(33, 33, 33)" stroke="none" stroke-width="1px">0</text><text style="text-anchor: middle; visibility: hidden; font-family: Roboto, sans-serif; font-size: 12px; font-weight: 200;" x="44.68083302179972" y="0" dx="0em" dy="0.95em" fill="rgb(33, 33, 33)" stroke="none" stroke-width="1px">100k</text><text style="text-anchor: middle; visibility: inherit; font-family: Roboto, sans-serif; font-size: 12px; font-weight: 200;" x="67.02124953269958" y="0" dx="0em" dy="0.95em" fill="rgb(33, 33, 33)" stroke="none" stroke-width="1px">200k</text><text style="text-anchor: middle; visibility: hidden; font-family: Roboto, sans-serif; font-size: 12px; font-weight: 200;" x="89.36166604359944" y="0" dx="0em" dy="0.95em" fill="rgb(33, 33, 33)" stroke="none" stroke-width="1px">300k</text><text style="text-anchor: middle; visibility: inherit; font-family: Roboto, sans-serif; font-size: 12px; font-weight: 200;" x="111.70208255449931" y="0" dx="0em" dy="0.95em" fill="rgb(33, 33, 33)" stroke="none" stroke-width="1px">400k</text><text style="text-anchor: middle; visibility: hidden; font-family: Roboto, sans-serif; font-size: 12px; font-weight: 200;" x="134.04249906539917" y="0" dx="0em" dy="0.95em" fill="rgb(33, 33, 33)" stroke="none" stroke-width="1px">500k</text><text style="text-anchor: middle; visibility: inherit; font-family: Roboto, sans-serif; font-size: 12px; font-weight: 200;" x="156.38291557629904" y="0" dx="0em" dy="0.95em" fill="rgb(33, 33, 33)" stroke="none" stroke-width="1px">600k</text><text style="text-anchor: middle; visibility: hidden; font-family: Roboto, sans-serif; font-size: 12px; font-weight: 200;" x="178.72333208719888" y="0" dx="0em" dy="0.95em" fill="rgb(33, 33, 33)" stroke="none" stroke-width="1px">700k</text><text style="text-anchor: middle; visibility: inherit; font-family: Roboto, sans-serif; font-size: 12px; font-weight: 200;" x="201.06374859809875" y="0" dx="0em" dy="0.95em" fill="rgb(33, 33, 33)" stroke="none" stroke-width="1px">800k</text><text style="text-anchor: middle; visibility: hidden; font-family: Roboto, sans-serif; font-size: 12px; font-weight: 200;" x="223.40416510899863" y="0" dx="0em" dy="0.95em" fill="rgb(33, 33, 33)" stroke="none" stroke-width="1px">900k</text><text style="text-anchor: middle; visibility: inherit; font-family: Roboto, sans-serif; font-size: 12px; font-weight: 200;" x="245.74458161989847" y="0" dx="0em" dy="0.95em" fill="rgb(33, 33, 33)" stroke="none" stroke-width="1px">1M</text><text style="text-anchor: middle; visibility: hidden; font-family: Roboto, sans-serif; font-size: 12px; font-weight: 200;" x="268.08499813079834" y="0" dx="0em" dy="0.95em" fill="rgb(33, 33, 33)" stroke="none" stroke-width="1px">1.1M</text></g><line x1="0" y1="0" x2="268.08499813079834" y2="0" fill="rgb(0, 0, 0)" stroke="rgb(204, 204, 204)" stroke-width="1px"></line></g></g></g></g></svg>