<svg viewBox="0 0 330 200" xmlns="http://www.w3.org/2000/svg"><g><g><g><g><g><line x1="30.766000747680664" y1="176.5999994277954" x2="25.766000747680664" y2="176.5999994277954" style="visibility: inherit;" fill="rgb(0, 0, 0)" stroke="rgb(204, 204, 204)" stroke-width="1px"></line><line x1="30.766000747680664" y1="160.54545402526855" x2="25.766000747680664" y2="160.54545402526855" style="visibility: inherit;" fill="rgb(0, 0, 0)" stroke="rgb(204, 204, 204)" stroke-width="1px"></line><line x1="30.766000747680664" y1="144.4909086227417" x2="25.766000747680664" y2="144.4909086227417" style="visibility: inherit;" fill="rgb(0, 0, 0)" stroke="rgb(204, 204, 204)" stroke-width="1px"></line><line x1="30.766000747680664" y1="128.43636322021484" x2="25.766000747680664" y2="128.43636322021484" style="visibility: inherit;" fill="rgb(0, 0, 0)" stroke="rgb(204, 204, 204)" stroke-width="1px"></line><line x1="30.766000747680664" y1="112.38181781768799" x2="25.766000747680664" y2="112.38181781768799" style="visibility: inherit;" fill="rgb(0, 0, 0)" stroke="rgb(204, 204, 204)" stroke-width="1px"></line><line x1="30.766000747680664" y1="96.32727241516112" x2="25.766000747680664" y2="96.32727241516112" style="visibility: inherit;" fill="rgb(0, 0, 0)" stroke="rgb(204, 204, 204)" stroke-width="1px"></line><line x1="30.766000747680664" y1="80.27272701263429" x2="25.766000747680664" y2="80.27272701263429" style="visibility: inherit;" fill="rgb(0, 0, 0)" stroke="rgb(204, 204, 204)" stroke-width="1px"></line><line x1="30.766000747680664" y1="64.21818161010742" x2="25.766000747680664" y2="64.21818161010742" style="visibility: inherit;" fill="rgb(0, 0, 0)" stroke="rgb(204, 204, 204)" stroke-width="1px"></line><line x1="30.766000747680664" y1="48.16363620758056" x2="25.766000747680664" y2="48.16363620758056" style="visibility: inherit;" fill="rgb(0, 0, 0)" stroke="rgb(204, 204, 204)" stroke-width="1px"></line><line x1="30.766000747680664" y1="32.109090805053704" x2="25.766000747680664" y2="32.109090805053704" style="visibility: inherit;" fill="rgb(0, 0, 0)" stroke="rgb(204, 204, 204)" stroke-width="1px"></line><line x1="30.766000747680664" y1="16.054545402526863" x2="25.766000747680664" y2="16.054545402526863" style="visibility: inherit;" fill="rgb(0, 0, 0)" stroke="rgb(204, 204, 204)" stroke-width="1px"></line><line x1="30.766000747680664" y1="0" x2="25.766000747680664" y2="0" style="visibility: inherit;" fill="rgb(0, 0, 0)" stroke="rgb(204, 204, 204)" stroke-width="1px"></line></g><g transform="translate(20.766000747680664, 0)"><text style="text-anchor: end; visibility: hidden; font-family: Roboto, sans-serif; font-size: 12px; font-weight: 200;" x="0" y="176.5999994277954" dx="0em" dy="0.3em" fill="rgb(33, 33, 33)" stroke="none" stroke-width="1px">-5</text><text style="text-anchor: end; visibility: inherit; font-family: Roboto, sans-serif; font-size: 12px; font-weight: 200;" x="0" y="160.54545402526855" dx="0em" dy="0.3em" fill="rgb(33, 33, 33)" stroke="none" stroke-width="1px">0</text><text style="text-anchor: end; visibility: hidden; font-family: Roboto, sans-serif; font-size: 12px; font-weight: 200;" x="0" y="144.4909086227417" dx="0em" dy="0.3em" fill="rgb(33, 33, 33)" stroke="none" stroke-width="1px">5</text><text style="text-anchor: end; visibility: inherit; font-family: Roboto, sans-serif; font-size: 12px; font-weight: 200;" x="0" y="128.43636322021484" dx="0em" dy="0.3em" fill="rgb(33, 33, 33)" stroke="none" stroke-width="1px">10</text><text style="text-anchor: end; visibility: hidden; font-family: Roboto, sans-serif; font-size: 12px; font-weight: 200;" x="0" y="112.38181781768799" dx="0em" dy="0.3em" fill="rgb(33, 33, 33)" stroke="none" stroke-width="1px">15</text><text style="text-anchor: end; visibility: inherit; font-family: Roboto, sans-serif; font-size: 12px; font-weight: 200;" x="0" y="96.32727241516112" dx="0em" dy="0.3em" fill="rgb(33, 33, 33)" stroke="none" stroke-width="1px">20</text><text style="text-anchor: end; visibility: hidden; font-family: Roboto, sans-serif; font-size: 12px; font-weight: 200;" x="0" y="80.27272701263429" dx="0em" dy="0.3em" fill="rgb(33, 33, 33)" stroke="none" stroke-width="1px">25</text><text style="text-anchor: end; visibility: inherit; font-family: Roboto, sans-serif; font-size: 12px; font-weight: 200;" x="0" y="64.21818161010742" dx="0em" dy="0.3em" fill="rgb(33, 33, 33)" stroke="none" stroke-width="1px">30</text><text style="text-anchor: end; visibility: hidden; font-family: Roboto, sans-serif; font-size: 12px; font-weight: 200;" x="0" y="48.16363620758056" dx="0em" dy="0.3em" fill="rgb(33, 33, 33)" stroke="none" stroke-width="1px">35</text><text style="text-anchor: end; visibility: inherit; font-family: Roboto, sans-serif; font-size: 12px; font-weight: 200;" x="0" y="32.109090805053704" dx="0em" dy="0.3em" fill="rgb(33, 33, 33)" stroke="none" stroke-width="1px">40</text><text style="text-anchor: end; visibility: hidden; font-family: Roboto, sans-serif; font-size: 12px; font-weight: 200;" x="0" y="16.054545402526863" dx="0em" dy="0.3em" fill="rgb(33, 33, 33)" stroke="none" stroke-width="1px">45</text><text style="text-anchor: end; visibility: hidden; font-family: Roboto, sans-serif; font-size: 12px; font-weight: 200;" x="0" y="0" dx="0em" dy="0.3em" fill="rgb(33, 33, 33)" stroke="none" stroke-width="1px">50</text></g><line x1="30.766000747680664" y1="0" x2="30.766000747680664" y2="176.5999994277954" fill="rgb(0, 0, 0)" stroke="rgb(204, 204, 204)" stroke-width="1px"></line></g></g><g transform="translate(30, 0)" clip-path="url(#clip_0)"><clipPath id="clip_0"><rect width="299" height="176"></rect></clipPath><g><g><g><line x1="0" y1="0" x2="0" y2="176.5999994277954" fill="rgb(0, 0, 0)" stroke="rgb(66, 66, 66)" stroke-width="1px" opacity="0.25"></line><line x1="24.936166604359943" y1="0" x2="24.936166604359943" y2="176.5999994277954" fill="rgb(0, 0, 0)" stroke="rgb(66, 66, 66)" stroke-width="1px" opacity="0.25"></line><line x1="49.87233320871989" y1="0" x2="49.87233320871989" y2="176.5999994277954" fill="rgb(0, 0, 0)" stroke="rgb(66, 66, 66)" stroke-width="1px" opacity="0.25"></line><line x1="74.80849981307983" y1="0" x2="74.80849981307983" y2="176.5999994277954" fill="rgb(0, 0, 0)" stroke="rgb(66, 66, 66)" stroke-width="1px" opacity="0.25"></line><line x1="99.74466641743977" y1="0" x2="99.74466641743977" y2="176.5999994277954" fill="rgb(0, 0, 0)" stroke="rgb(66, 66, 66)" stroke-width="1px" opacity="0.25"></line><line x1="124.68083302179973" y1="0" x2="124.68083302179973" y2="176.5999994277954" fill="rgb(0, 0, 0)" stroke="rgb(66, 66, 66)" stroke-width="1px" opacity="0.25"></line><line x1="149.61699962615967" y1="0" x2="149.61699962615967" y2="176.5999994277954" fill="rgb(0, 0, 0)" stroke="rgb(66, 66, 66)" stroke-width="1px" opacity="0.25"></line><line x1="174.55316623051962" y1="0" x2="174.55316623051962" y2="176.5999994277954" fill="rgb(0, 0, 0)" stroke="rgb(66, 66, 66)" stroke-width="1px" opacity="0.25"></line><line x1="199.48933283487955" y1="0" x2="199.48933283487955" y2="176.5999994277954" fill="rgb(0, 0, 0)" stroke="rgb(66, 66, 66)" stroke-width="1px" opacity="0.25"></line><line x1="224.4254994392395" y1="0" x2="224.4254994392395" y2="176.5999994277954" fill="rgb(0, 0, 0)" stroke="rgb(66, 66, 66)" stroke-width="1px" opacity="0.25"></line><line x1="249.36166604359946" y1="0" x2="249.36166604359946" y2="176.5999994277954" fill="rgb(0, 0, 0)" stroke="rgb(66, 66, 66)" stroke-width="1px" opacity="0.25"></line><line x1="274.29783264795935" y1="0" x2="274.29783264795935" y2="176.5999994277954" fill="rgb(0, 0, 0)" stroke="rgb(66, 66, 66)" stroke-width="1px" opacity="0.25"></line><line x1="299.23399925231934" y1="0" x2="299.23399925231934" y2="176.5999994277954" fill="rgb(0, 0, 0)" stroke="rgb(66, 66, 66)" stroke-width="1px" opacity="0.25"></line></g><g><line x1="0" y1="176.5999994277954" x2="299.23399925231934" y2="176.5999994277954" fill="rgb(0, 0, 0)" stroke="rgb(66, 66, 66)" stroke-width="1px" opacity="0.25"></line><line x1="0" y1="160.54545402526855" x2="299.23399925231934" y2="160.54545402526855" fill="rgb(0, 0, 0)" stroke="rgb(66, 66, 66)" stroke-width="1px" opacity="0.25"></line><line x1="0" y1="144.4909086227417" x2="299.23399925231934" y2="144.4909086227417" fill="rgb(0, 0, 0)" stroke="rgb(66, 66, 66)" stroke-width="1px" opacity="0.25"></line><line x1="0" y1="128.43636322021484" x2="299.23399925231934" y2="128.43636322021484" fill="rgb(0, 0, 0)" stroke="rgb(66, 66, 66)" stroke-width="1px" opacity="0.25"></line><line x1="0" y1="112.38181781768799" x2="299.23399925231934" y2="112.38181781768799" fill="rgb(0, 0, 0)" stroke="rgb(66, 66, 66)" stroke-width="1px" opacity="0.25"></line><line x1="0" y1="96.32727241516112" x2="299.23399925231934" y2="96.32727241516112" fill="rgb(0, 0, 0)" stroke="rgb(66, 66, 66)" stroke-width="1px" opacity="0.25"></line><line x1="0" y1="80.27272701263429" x2="299.23399925231934" y2="80.27272701263429" fill="rgb(0, 0, 0)" stroke="rgb(66, 66, 66)" stroke-width="1px" opacity="0.25"></line><line x1="0" y1="64.21818161010742" x2="299.23399925231934" y2="64.21818161010742" fill="rgb(0, 0, 0)" stroke="rgb(66, 66, 66)" stroke-width="1px" opacity="0.25"></line><line x1="0" y1="48.16363620758056" x2="299.23399925231934" y2="48.16363620758056" fill="rgb(0, 0, 0)" stroke="rgb(66, 66, 66)" stroke-width="1px" opacity="0.25"></line><line x1="0" y1="32.109090805053704" x2="299.23399925231934" y2="32.109090805053704" fill="rgb(0, 0, 0)" stroke="rgb(66, 66, 66)" stroke-width="1px" opacity="0.25"></line><line x1="0" y1="16.054545402526863" x2="299.23399925231934" y2="16.054545402526863" fill="rgb(0, 0, 0)" stroke="rgb(66, 66, 66)" stroke-width="1px" opacity="0.25"></line><line x1="0" y1="0" x2="299.23399925231934" y2="0" fill="rgb(0, 0, 0)" stroke="rgb(66, 66, 66)" stroke-width="1px" opacity="0.25"></line></g></g></g><g><g><line x1="0" y1="160.54545402526855" x2="299.23399925231934" y2="160.54545402526855" fill="rgb(0, 0, 0)" stroke="rgb(153, 153, 153)" stroke-width="1.5px"></line></g></g><g><g><line x1="24.936166604359943" y1="0" x2="24.936166604359943" y2="176.5999994277954" fill="rgb(0, 0, 0)" stroke="rgb(153, 153, 153)" stroke-width="1.5px"></line></g></g><g><g><g><g><g><path style="fill: none;" stroke="rgb(0, 119, 187)" stroke-width="2px" d="M25.185278908737498,158.12515543313052L25.4346405747811,157.54448826981925L25.6840022408247,156.90906716420642L25.933363906868298,156.46824181152977L26.1827255729119,155.9636431981886L26.432087238955496,155.59108582960664L26.681448904999097,155.05692206515292L26.9308105710427,154.73299970534848L27.180172237086296,154.5137665266341L27.429533903129897,154.33917506829732L27.67889556917349,154.22823641058986L27.928257235217092,154.20520112486972L28.177618901260693,154.19509398575596L28.42698056730429,154.18002477970842L28.676342233347892,154.22758812979518L28.925703899391493,154.16458445724825L29.17506556543509,154.08538441426066L29.424427231478692,154.0032338042924L29.67378889752229,154.00547425030118L29.92315056356589,153.89898836199123L30.17251222960949,153.93896855875747L30.42187389565309,153.9180110910761L30.67123556169669,154.0192553696873L30.920597227740284,154.08678000642206L31.169958893783885,154.1420352550369L31.419320559827487,154.17856624468504L31.668682225871084,154.18746615872925L31.918043891914685,154.20667076872735L32.16740555795829,154.17655439186427L32.41676722400189,154.16534774926458L32.666128890045485,154.1182833557015L32.91549055608908,154.14964763752752L33.16485222213268,154.18829987748387L33.414213888176285,154.20113516522045L33.66357555421988,154.1696104744935L33.91293722026348,154.14831739145856L34.16229888630708,154.08192494698523L34.41166055235068,154.019119767933L34.66102221839428,154.04733368621552L34.91038388443788,154.04503936349676L35.15974555048148,154.01029529348702L35.40910721652508,154.00823367512749L35.65846888256868,154.00827242189104L35.907830548612274,154.09684497443453L36.15719221465587,154.01723557334773L36.40655388069948,154.01261172744586L36.655915546743074,154.04173991878335L36.90527721278667,154.0835861246106L37.154638878830276,153.9720387225814L37.404000544873874,153.95186879075248L37.65336221091748,153.93918113527914L37.902723876961076,153.87414575655495L38.152085543004674,153.82139621691144L38.401447209048264,153.6788105207834L38.650808875091876,153.6006479599257L38.900170541135466,153.5132792267165L39.149532207179064,153.46156737426466L39.39889387322267,153.40766923726358L39.648255539266266,153.34998343142476L39.897617205309864,153.2256173024684L40.14697887135347,153.1933232255861L40.396340537397066,153.1600568705707L40.64570220344066,153.07692191725056L40.89506386948426,152.9856435255419L41.144425535527866,152.9162346445371L41.39378720157146,152.88887133487336L41.64314886761506,152.84949069061935L41.892510533658665,152.7972992829649L42.14187219970226,152.75045332668864L42.39123386574586,152.7366951535434L42.640595531789465,152.5961320662606L42.88995719783306,152.53431031528226L43.13931886387666,152.6276824005223L43.388680529920265,152.61279652450685L43.63804219596386,152.69026849601184L43.88740386200746,152.66564507796156L44.13676552805106,152.6569202125302L44.38612719409466,152.62982329650873L44.63548886013826,152.6343094850183L44.88485052618185,152.5695203677871L45.13421219222546,152.6447958795197L45.38357385826905,152.66564163724985L45.63293552431265,152.72641964710166L45.882297190356255,152.69632306795933L46.13165885639985,152.6895505389113L46.38102052244345,152.72124177959228L46.630382188487054,152.73348183085633L46.87974385453065,152.66373636958437L47.12910552057425,152.66872589740987L47.37846718661785,152.5881917563546L47.62782885266145,152.5121133782792L47.87719051870505,152.3269592237044L48.12655218474865,152.31796000335603L48.37591385079225,152.178862306427L48.62527551683585,152.15371555652158L48.87463718287945,151.85992175742896L49.12399884892305,151.7738988471341L49.37336051496665,151.69487494698544L49.622722181010246,151.4707917549029L49.87208384705385,151.22741088815314L50.12144551309745,151.09559457150718L50.370807179141046,151.0509600268508L50.620168845184644,150.80067969025978L50.86953051122825,150.46655521233893L51.118892177271846,150.389332110448L51.368253843315436,150.36398538943558L51.61761550935905,150.22749178676676L51.86697717540264,150.0389559933697L52.116338841446236,149.81634355581218L52.36570050748984,149.62758733164523L52.61506217353344,149.4470989425266L52.864423839577036,149.24340595186507L53.11378550562064,148.88259274851058L53.36314717166424,148.52638845291463L53.612508837707836,148.19851862161923L53.86187050375143,147.92729686196205L54.11123216979504,147.48566734252313L54.360593835838635,147.03595432738518L54.60995550188223,146.9151372399469L54.85931716792584,146.6576946741297L55.108678833969435,146.30490262728944L55.35804050001303,145.84505994692458L55.60740216605664,145.2152534054655L55.856763832100235,144.87208805521476L56.10612549814383,144.24182140879606L56.35548716418744,143.6690352713933L56.604848830231035,143.04178453813577L56.85421049627463,142.69199669247305L57.10357216231822,142.15376959046947L57.352933828361834,141.42213517338627L57.602295494405425,141.0028736544878L57.85165716044902,140.3146581119987L58.10101882649263,139.75417744196943L58.350380492536225,139.22223999151063L58.59974215857982,138.841919381694L58.84910382462343,138.77643279503627L59.098465490667024,138.16058559532357L59.34782715671062,137.78851749765212L59.59718882275422,137.51551586949947L59.846550488797824,137.15352307643693L60.09591215484142,136.85871826794042L60.34527382088502,135.83511254680909L60.594635486928624,135.62202334549914L60.84399715297222,134.9576002211646L61.09335881901582,134.3948638076745L61.342720485059424,134.00447624168555L61.59208215110302,133.08462170663773L61.84144381714662,132.66781898382672L62.09080548319022,132.35508375422464L62.34016714923382,132.34170844430957L62.58952881527742,131.69598081445739L62.838890481321016,130.82315908770644L63.08825214736462,130.46794035085185L63.33761381340822,130.057643502313L63.58697547945181,129.35198359206547L63.83633714549542,128.74171064531672L64.08569881153902,128.10029050965545L64.33506047758262,127.58070671382487L64.58442214362621,127.4421211998111L64.83378380966981,126.45258330028608L65.08314547571341,125.84803757617364L65.33250714175702,124.69862828841404L65.58186880780062,124.03529047765441L65.83123047384422,123.71509116453309L66.08059213988781,122.98422318618846L66.32995380593141,122.24034539893266L66.57931547197501,121.7183969830334L66.8286771380186,120.98190432883985L67.07803880406222,120.67517745782125L67.3274004701058,119.88708233763721L67.5767621361494,119.55456313167115L67.82612380219301,118.5618147717055L68.07548546823661,118.47690333230042L68.3248471342802,118.64746511905723L68.5742088003238,118.21723644901923L68.8235704663674,117.75512599816766L69.072932132411,117.63238687832444L69.3222937984546,117.70731304682145L69.5716554644982,116.9395364113085L69.8210171305418,116.06414763367927L70.0703787965854,115.61672950792892L70.319740462629,115.55263880215293L70.5691021286726,114.61692273745149L70.8184637947162,114.21475752034341L71.0678254607598,113.38713360316228L71.3171871268034,112.83880295645885L71.566548792847,112.19254654787308L71.8159104588906,111.39031393627192L72.0652721249342,111.06114207951524L72.3146337909778,110.52647442323054L72.56399545702139,108.96536572634683L72.813357123065,108.4274943013705L73.06271878910859,107.7927599089668L73.31208045515218,107.95366518074115L73.5614421211958,106.90789122192358L73.8108037872394,107.18663621751536L74.06016545328299,107.6051757244858L74.30952711932659,107.88209328162141L74.55888878537019,107.87786395720072L74.80825045141378,107.65985849601802L75.0576121174574,107.83012367884483L75.30697378350098,108.43663912738769L75.55633544954459,107.65073537719802L75.80569711558819,107.19167572322064L76.05505878163179,106.08606736511311L76.30442044767538,105.96910044043352L76.553782113719,103.58295148669808L76.80314377976258,102.89295756417833L77.05250544580619,101.57418860690291L77.30186711184979,101.4728909964197L77.55122877789339,102.02778056544086L77.80059044393698,102.46063536783275L78.0499521099806,101.24317988348082L78.29931377602418,101.20442289736584L78.54867544206779,101.75239611075276L78.79803710811139,101.3739161483424L79.04739877415497,100.34228506690624L79.29676044019858,100.61423106656592L79.5461221062422,98.91673899721012L79.79548377228578,99.43316667659451L80.04484543832938,97.8902269866184L80.29420710437297,98.3895828983649L80.54356877041657,97.77632752151314L80.79293043646018,98.44689364445877L81.04229210250377,97.896807119012L81.29165376854738,97.77434161716344L81.54101543459097,96.36167303630623L81.79037710063457,96.95568576707495L82.03973876667817,97.1236594872313L82.28910043272178,96.73047825249691L82.53846209876536,94.91427742601363L82.78782376480898,93.15226260128868L83.03718543085257,93.71769225427438L83.28654709689617,93.62210381762733L83.53590876293977,93.19327259165708L83.78527042898338,93.50041841449365L84.03463209502696,93.7512880781728L84.28399376107058,93.34475595436088L84.53335542711417,93.16802304158443L84.78271709315777,89.94773251462989L85.03207875920137,90.17051292773601L85.28144042524498,89.8576069705611L85.53080209128856,90.75990429914226L85.78016375733218,91.08730513630768L86.02952542337576,88.00212035507086L86.27888708941936,88.50507884230967L86.52824875546297,88.5947487212154L86.77761042150655,88.62080942307193L87.02697208755016,88.61055867213575L87.27633375359376,89.14489347695536L87.52569541963736,88.06814061562407L87.77505708568096,87.40623080055535L88.02441875172457,85.8646634648077L88.27378041776815,85.9422939969249L88.52314208381176,86.05630328528784L88.77250374985536,85.97312429187168L89.02186541589896,86.52019417110053L89.27122708194256,84.39362541238182L89.52058874798617,85.52538058216287L89.76995041402975,85.14884386798207L90.01931208007336,86.32766249876661L90.26867374611696,86.30639619513737L90.51803541216056,85.83219753748219L90.76739707820416,85.70864301088652L91.01675874424777,84.19889989411487L91.26612041029135,82.58855609669294L91.51548207633496,83.15139566984517L91.76484374237856,84.2038193441827L92.01420540842214,84.04857150820831L92.26356707446575,83.36965288073033L92.51292874050934,81.70729181799003L92.76229040655295,81.36273182896291L93.01165207259655,82.00438494338944L93.26101373864014,81.4412988663081L93.51037540468374,80.93245785683852L93.75973707072735,80.00214493587922L94.00909873677094,78.3742809448037L94.25846040281455,78.73513664014249L94.50782206885815,78.63697955615413L94.75718373490174,78.18016670313304L95.00654540094534,78.13628012650578L95.25590706698895,77.53152920583916L95.50526873303254,77.0247034643867L95.75463039907615,77.76963081249912L96.00399206511975,77.8741557850107L96.25335373116334,77.69176701643427L96.50271539720694,78.22695666575918L96.75207706325055,77.64269164322693L97.00143872929414,74.49769864299878L97.25080039533775,76.20179274815237L97.50016206138135,75.284684920601L97.74952372742493,74.53060588768535L97.99888539346854,74.9658967892356L98.24824705951215,75.05578719147755L98.49760872555574,74.93614171221164L98.74697039159933,75.5172475409059L98.99633205764293,74.27057131712846L99.24569372368653,73.21882797649968L99.49505538973014,73.15325274839343L99.74441705577372,74.20759002547922L99.99377872181734,73.84669824687978L100.24314038786093,73.09636152477016L100.49250205390453,73.01052670879231L100.74186371994813,72.75045661275593L100.99122538599174,72.54037583472822L101.24058705203532,70.80941459289157L101.48994871807894,70.73334239194595L101.73931038412253,69.60300389679514L101.98867205016613,70.29855203886139L102.23803371620973,69.70783257921381L102.48739538225334,69.35927332828807L102.73675704829692,70.33125521648559L102.98611871434053,70.12884615125053L103.23548038038413,70.06357296535529L103.48484204642773,69.49056035787953L103.73420371247133,70.0959096637048L103.98356537851494,70.18085262422967L104.23292704455852,69.52405337866487L104.48228871060213,70.60681099432514L104.73165037664572,70.9618737363478L104.98101204268931,71.24605499047905L105.23037370873293,71.5739822008778L105.47973537477651,71.54123938652367L105.72909704082012,70.43849448212316L105.97845870686372,68.3105242859058L106.22782037290732,67.47786446938673L106.47718203895091,67.43673358180888L106.72654370499453,67.91258863572317L106.97590537103811,68.84298456616705L107.22526703708172,68.06761423991787L107.47462870312532,68.11735321622731L107.72399036916892,66.53869404352113L107.97335203521251,66.54879789019625L108.22271370125613,67.91842454361354L108.47207536729971,64.10137642464582L108.72143703334332,62.87102116691673L108.97079869938692,63.47037421257135L109.22016036543052,64.09478875394997L109.46952203147411,58.60397793265189L109.71888369751773,58.46030253815798L109.96824536356131,59.869417160362644L110.21760702960492,57.89576934707781L110.46696869564852,59.751960619843494L110.7163303616921,60.20348924315561L110.96569202773571,61.20303440952356L111.2150536937793,62.96257121450108L111.46441535982291,59.49861279196557L111.7137770258665,57.88445071382914L111.9631386919101,59.45772048634099L112.2125003579537,58.07732753354882L112.46186202399731,58.84099661779944L112.7112236900409,60.56271260447908L112.96058535608451,61.30195175525431L113.2099470221281,60.74534239572297L113.4593086881717,61.24936172597819L113.7086703542153,60.93994728609708L113.95803202025891,59.77290252306022L114.2073936863025,60.00082419427418L114.45675535234611,57.30321454267412L114.7061170183897,58.647052709206235L114.9554786844333,58.308655205851835L115.2048403504769,58.77951065796326L115.45420201652051,58.661185585775975L115.7035636825641,59.47817143377482L115.9529253486077,59.6826549292474L116.2022870146513,59.74203881874761L116.45164868069489,61.87879504411726L116.7010103467385,59.78895907547476L116.95037201278211,59.80908642489469L117.1997336788257,56.947613878606965L117.44909534486929,56.76385071845526L117.69845701091289,56.86421384675894L117.94781867695649,55.921644411753725L118.1971803430001,55.634154491676746L118.44654200904368,53.51620034249409L118.6959036750873,53.78234061786993L118.94526534113089,52.76185092288874L119.19462700717449,53.805817831197366L119.44398867321809,54.44926085087496L119.6933503392617,54.32106178581233L119.94271200530528,50.81155142286398L120.1920736713489,49.43529051778233L120.44143533739249,50.00058270828427L120.69079700343609,50.572064379555485L120.94015866947969,49.55357203136805L121.1895203355233,49.66487623608784L121.43888200156688,50.76126540237478L121.6882436676105,49.93044757223707L121.93760533365409,49.856863973825384L122.18696699969769,47.05312695073601L122.43632866574129,47.04507184262339L122.6856903317849,48.403119581324205L122.93505199782848,47.07712078225431L123.18441366387209,44.25009147417397L123.43377532991568,43.744037074977776L123.68313699595927,44.31349251098225L123.93249866200289,41.85582417546617L124.18186032804647,43.66473448050622L124.43122199409008,42.66861059067556L124.68058366013368,43.163350806790376L124.92994532617728,43.735802752502934L125.17930699222087,43.047288585359595L125.42866865826448,43.69733206453758L125.67803032430807,46.06949197227218L125.92739199035168,47.08666473108036L126.17675365639528,46.15567884210651L126.42611532243887,45.10357160054001L126.67547698848247,46.642285238605496L126.92483865452608,46.972262890813305L127.17420032056967,45.80277126234136L127.42356198661328,44.946436498680214L127.67292365265688,43.45637296836919L127.92228531870047,44.89218832157433L128.1716469847441,43.671531096989284L128.42100865078768,43.162893799026136L128.67037031683128,44.067914395746946L128.91973198287488,42.14947655817696L129.16909364891848,41.337678126265885L129.41845531496207,41.6963984933485L129.66781698100567,42.24270557175227L129.91717864704927,41.810016521051324L130.16654031309287,42.8869521788448L130.41590197913646,43.58391319784474L130.66526364518006,41.9167702227122L130.91462531122366,42.856073843386724L131.16398697726726,43.04953456677422L131.41334864331085,42.4178224795311L131.66271030935445,37.99620544416311L131.91207197539808,38.381070378045024L132.16143364144165,38.37854733703171L132.41079530748527,38.47657094602224L132.66015697352887,38.476458863675994L132.90951863957247,38.5883463203499L133.15888030561607,38.141441528571406L133.40824197165966,36.58669583068614L133.65760363770326,37.228646930285954L133.90696530374686,39.69390707787861L134.15632696979046,35.618600961064075L134.40568863583405,34.564239239176075L134.65505030187765,37.003521748778574L134.90441196792128,35.30800157354165L135.15377363396485,35.246767069780596L135.40313530000847,36.62649339313953L135.65249696605207,36.47599349442053L135.90185863209564,35.88173510363638L136.15122029813926,36.21836953162193L136.40058196418283,37.585021028529226L136.64994363022646,38.81582102976445L136.89930529627006,38.65766969978299L137.14866696231365,39.23772893357945L137.39802862835725,40.74282549770782L137.64739029440085,41.21385802648775L137.89675196044445,42.22081319786063L138.14611362648805,42.298371705437425L138.39547529253164,38.19951913866142L138.64483695857524,36.19613112574056L138.89419862461884,37.49150917369838L139.14356029066246,36.77356051911582L139.39292195670603,35.43990312489861L139.64228362274966,34.71143914745962L139.89164528879326,35.31881501198958L140.14100695483685,37.305542308969095L140.39036862088045,33.25205618387918L140.63973028692405,34.25658575426512L140.88909195296765,32.63771628210377L141.13845361901124,30.919461828459728L141.38781528505484,28.64774047892269L141.63717695109844,30.612568931249903L141.88653861714204,31.944480716216933L142.13590028318563,33.96186223072821L142.38526194922923,32.24373640011054L142.63462361527283,32.45566322903354L142.88398528131643,31.672110592920752L143.13334694736002,31.29152751366141L143.38270861340365,30.1443492998328L143.63207027944722,29.832983302621916L143.88143194549085,27.116077385851735L144.13079361153444,29.67188474326878L144.38015527757804,27.030024704556766L144.62951694362164,28.062491183879537L144.87887860966524,29.516623933395472L145.12824027570883,30.440932100779225L145.37760194175243,30.225476635272283L145.62696360779603,30.514802929650237L145.87632527383963,30.050193005715837L146.12568693988322,29.997160943776237L146.37504860592685,32.715273906662375L146.62441027197042,33.22491605183026L146.87377193801404,34.9838293624191L147.12313360405764,34.5547017826424L147.37249527010124,34.74471556847799L147.62185693614484,34.81766893582591L147.87121860218843,36.324159660124L148.12058026823203,38.8179490038532L148.36994193427563,37.8811421011068L148.61930360031923,38.595422035259915L148.86866526636283,37.769456743724106L149.11802693240642,36.751318012186026L149.36738859845002,37.284211990851546L149.61675026449362,38.62574600959695L149.86611193053722,37.20190543927143L150.11547359658084,38.16502156650948L150.36483526262444,38.169361655397054L150.614196928668,39.659758118551004L150.8635585947116,39.7058469880118L151.11292026075523,38.75677801497544L151.36228192679883,35.11358156448532L151.61164359284243,33.18323496387033L151.861005258886,33.26929657302662L152.11036692492962,33.710984848401424L152.35972859097322,34.70798467260385L152.60909025701682,30.236956802454753L152.85845192306041,32.00872629697771L153.10781358910404,30.52413141782367L153.3571752551476,32.61324761259242L153.6065369211912,31.182017307419486L153.8558985872348,33.068301050507564L154.10526025327843,33.65748412040164L154.35462191932203,31.97743673174736L154.60398358536563,31.958910554699386L154.8533452514092,33.706655086975424L155.1027069174528,33.508232345832624L155.35206858349642,31.65548190143808L155.60143024954002,29.645732358844466L155.8507919155836,28.91299804897172L156.1001535816272,30.220894687510157L156.3495152476708,30.907447215127164L156.5988769137144,28.692554422291053L156.848238579758,26.8513055019675L157.0976002458016,27.968505506708006L157.34696191184523,27.557968431652082L157.59632357788882,28.929957064992507L157.8456852439324,28.84358894118814L158.095046909976,31.68185512552896L158.34440857601962,31.300219740641747L158.59377024206321,30.270886613189575L158.8431319081068,29.544784598993843L159.09249357415038,27.30698208624542L159.34185524019398,28.470025833079248L159.5912169062376,29.08272360179511L159.8405785722812,30.326810480873274L160.0899402383248,30.29739989767872L160.33930190436843,31.691316603088467L160.588663570412,29.987389773691653L160.8380252364556,32.703165045004916L161.0873869024992,31.865317925618395L161.3367485685428,32.85330113338324L161.5861102345864,33.77866288004379L161.83547190063,30.38876271001055L162.08483356667358,28.159429430996312L162.33419523271718,30.529721219952187L162.5835568987608,31.190186297410477L162.8329185648044,29.179965214082365L163.082280230848,29.311478249897473L163.3316418968916,30.80944792918598L163.5810035629352,28.433379675631308L163.8303652289788,29.088006651310582L164.0797268950224,28.292117493498232L164.329088561066,28.36495798657132L164.5784502271096,32.76966734537366L164.82781189315318,32.123079504796934L165.07717355919678,30.08208990743859L165.32653522524038,28.291832085153565L165.575896891284,28.553270619423166L165.8252585573276,29.280590620741428L166.0746202233712,30.653667513785816L166.32398188941477,29.383681825756916L166.57334355545837,30.428488784237178L166.822705221502,31.39777355125038L167.0720668875456,32.100775120533356L167.3214285535892,31.70277473445148L167.5707902196328,27.906322373867003L167.82015188567638,29.693934026562577L168.06951355171998,30.20260424825551L168.31887521776358,29.67547337319422L168.56823688380717,29.575151098972665L168.8175985498508,33.35394436738906L169.0669602158944,32.59567005105905L169.31632188193797,32.30404413002221L169.56568354798156,30.97740964540356L169.8150452140252,33.447810528487636L170.0644068800688,32.42360244995483L170.31376854611239,32.088505808113645L170.56313021215595,30.712680540133363L170.81249187819958,28.27472784406469L171.06185354424318,29.33951445618235L171.31121521028678,30.24852777501027L171.56057687633037,26.760239492426262L171.809938542374,27.279986752028638L172.05930020841757,28.81799816524968L172.30866187446117,29.22106759624779L172.55802354050476,27.873224268395393L172.8073852065484,30.383494244477255L173.056746872592,27.16174657207806L173.30610853863558,27.031943937924755L173.55547020467915,24.960775740008252L173.80483187072275,23.932071789880098L174.05419353676638,26.573978688575007L174.30355520280997,26.334938599586206L174.55291686885357,28.613797895569327L174.80227853489717,28.80196789879929L175.05164020094077,29.609641314359678L175.30100186698436,29.86266954948L175.55036353302796,29.238377118948083L175.79972519907156,29.202978232167627L176.04908686511519,31.174843431337003L176.29844853115878,30.329357415817277L176.54781019720235,27.440743082892684L176.79717186324595,27.6512501124672L177.04653352928958,29.76670296825477L177.29589519533317,27.860413031767873L177.54525686137677,28.43598224154364L177.79461852742034,27.47384310658286L178.04398019346394,28.13945754414115L178.29334185950756,30.44040126741288L178.54270352555116,30.923932767428877L178.79206519159476,31.05585629313L179.04142685763838,32.52715589861668L179.29078852368195,28.610213948898565L179.54015018972555,28.237742841448227L179.78951185576915,29.559228047408713L180.03887352181275,29.933056897652083L180.28823518785637,30.110089166585592L180.53759685389997,30.56763451140392L180.78695851994354,31.55108094150808L181.03632018598714,32.68774760816151L181.28568185203076,30.88066685171953L181.53504351807436,31.19100244617636L181.78440518411796,32.369859358667995L182.03376685016156,31.378251640979318L182.28312851620515,32.57042690282245L182.53249018224875,31.358844107394376L182.78185184829235,30.066578623940583L183.03121351433595,31.490582011240775L183.28057518037957,29.170828308615594L183.52993684642314,29.57789166941698L183.77929851246674,30.927791292172795L184.02866017851034,32.45061223405959L184.27802184455396,29.971495128699342L184.52738351059756,29.18838748122731L184.77674517664116,29.476725792658588L185.02610684268473,29.954495728556253L185.27546850872832,28.771138728689344L185.52483017477195,29.150974151109075L185.77419184081555,28.210068930733424L186.02355350685914,29.284489989990018L186.27291517290277,25.68634276980747L186.52227683894634,28.242255296099405L186.77163850498994,25.402778895413938L187.02100017103353,24.190828148074647L187.27036183707713,25.074705729456223L187.51972350312076,26.00739845878082L187.76908516916436,21.735613052786306L188.01844683520793,21.194928695609526L188.26780850125152,22.768437519397185L188.51717016729515,22.92181896721853L188.76653183333875,25.439710122353603L189.01589349938234,25.616238636911156L189.2652551654259,25.508622854059837L189.51461683146954,25.60479253132087L189.76397849751314,24.968100104388125L190.01334016355673,23.702713181338282L190.26270182960033,21.12347844378508L190.51206349564396,22.92592749146975L190.76142516168753,23.70264806211742L191.01078682773112,21.82137869988449L191.26014849377472,20.896094079246936L191.50951015981835,22.38197206899438L191.75887182586195,22.550411236115167L192.00823349190554,17.99223835461525L192.2575951579491,18.82347679604849L192.5069568239927,16.425737689622935L192.75631849003634,16.594426630098248L193.00568015607993,18.428897025240698L193.25504182212353,19.601405906786006L193.50440348816713,18.644907572160147L193.75376515421073,22.579984757038964L194.00312682025432,24.17939383606511L194.25248848629792,24.129994442880797L194.50185015234152,24.573816301944845L194.75121181838514,25.11488417844156L195.00057348442874,23.11708285341476L195.2499351504723,26.713497499440216L195.4992968165159,24.016142994975983L195.74865848255953,23.015673156075934L195.99802014860313,21.107620372595875L196.24738181464673,23.89954856250605L196.4967434806903,23.976621430925142L196.7461051467339,23.83182389636222L196.99546681277752,25.57280467428558L197.24482847882112,26.054838766904748L197.49419014486472,26.601388753324912L197.74355181090834,25.872420449897373L197.9929134769519,25.32568062981338L198.2422751429955,22.548775323074544L198.4916368090391,24.44223272606031L198.7409984750827,26.716431854107043L198.99036014112633,26.955331203502126L199.23972180716993,26.554880272559277L199.4890834732135,25.800003707235785L199.7384451392571,28.075940430598024L199.98780680530072,26.22163543332254L200.23716847134432,24.356854336795447L200.48653013738792,24.213108099004664L200.7358918034315,23.22362882012376L200.9852534694751,19.833112971357846L201.2346151355187,22.744364827679362L201.4839768015623,25.250420491961382L201.7333384676059,23.50907786012113L201.98270013364953,24.680137776769623L202.2320617996931,23.643366265133754L202.4814234657367,24.116474980448835L202.7307851317803,26.993428533406156L202.98014679782392,27.361934547207603L203.22950846386752,29.144898413818453L203.47887012991112,29.061224570704557L203.72823179595468,28.582243491489397L203.97759346199828,27.593522311387L204.2269551280419,28.210368002902452L204.4763167940855,28.06980319020487L204.7256784601291,26.826546534140462L204.97504012617273,27.43828010178926L205.2244017922163,25.321894886270723L205.4737634582599,25.909950064286015L205.7231251243035,27.152720337230296L205.9724867903471,25.632681470070956L206.22184845639072,23.10305902484239L206.47121012243431,25.349895622915554L206.72057178847788,27.33030088045109L206.96993345452148,27.039374518270236L207.2192951205651,23.932309793373985L207.4686567866087,24.229244188856057L207.7180184526523,21.311991222743465L207.96738011869587,19.766793431038458L208.2167417847395,23.560754840800115L208.4661034507831,21.363508136397567L208.7154651168267,23.657391418261458L208.9648267828703,19.395124470091726L209.21418844891392,18.308969714729223L209.46355011495748,21.618463296913987L209.71291178100108,20.126030482761L209.96227344704468,22.38842923255766L210.2116351130883,22.25876777492322L210.4609967791319,19.840073894636728L210.7103584451755,20.85263543513192L210.95972011121907,19.453832424152363L211.20908177726267,19.105893731021L211.4584434433063,18.820049054838258L211.7078051093499,19.542865290234758L211.9571667753935,17.726944019840953L212.2065284414371,17.512643112350617L212.45589010748068,22.118299297482437L212.70525177352428,23.073847944393695L212.95461343956788,23.502284452122712L213.20397510561148,24.759191761367575L213.4533367716551,22.259385372473755L213.7026984376987,21.34530924532293L213.95206010374227,19.520045819736637L214.20142176978587,20.571625737189102L214.4507834358295,22.740329341921072L214.7001451018731,23.81202314049774L214.9495067679167,23.611139252345815L215.19886843396026,21.155283287289016L215.44823010000385,21.373148016006564L215.69759176604748,20.310098719116336L215.94695343209108,20.15697715321283L216.19631509813468,21.19693030843344L216.4456767641783,20.081583479455652L216.69503843022187,20.475639230766777L216.94440009626547,20.405654113381686L217.19376176230907,19.68876092295999L217.44312342835266,23.10510319973606L217.6924850943963,23.378391664802532L217.9418467604399,22.161343930321376L218.19120842648346,21.285057981856394L218.44057009252705,21.51190336003715L218.68993175857068,22.600186128260432L218.93929342461428,21.187096374563858L219.18865509065787,18.941439239193656L219.43801675670147,18.435531321792947L219.68737842274507,19.05783436464945L219.93674008878867,20.344227486076928L220.18610175483226,21.781650600614864L220.43546342087586,22.541844522862636L220.6848250869195,22.151357746060967L220.93418675296306,20.045776336022826L221.18354841900666,19.36133966932952L221.43291008505025,19.586618660996596L221.68227175109388,20.772323412906523L221.93163341713748,20.798818935728168L222.18099508318107,21.969046145273147L222.43035674922464,24.700313542191385L222.67971841526824,22.28091196117269L222.92908008131187,23.814334654844526L223.17844174735546,24.48217198817315L223.42780341339906,25.765529854006928L223.6771650794427,21.668845111139134L223.92652674548626,21.189276712853466L224.17588841152985,23.02292335367327L224.42525007757345,21.793021960578457L224.67461174361705,20.957211474617758L224.92397340966068,20.33305751763418L225.17333507570427,19.178399939775268L225.42269674174784,20.59444454972769L225.67205840779144,20.573176057191628L225.92142007383507,22.955122292765598L226.17078173987866,22.091799340799955L226.42014340592226,21.2951460954267L226.66950507196583,18.82368183692463L226.91886673800946,21.703363175394717L227.16822840405305,23.30296542896098L227.41759007009665,24.32348302866314L227.66695173614025,23.53190219897318L227.91631340218387,24.09759870742844L228.16567506822744,25.67074779898954L228.41503673427104,25.071056820468925L228.66439840031464,23.535705918736028L228.91376006635826,25.344954692457176L229.16312173240186,22.69861121537655L229.41248339844546,24.104136811258815L229.66184506448903,27.8109540414049L229.91120673053263,26.939950590304967L230.16056839657625,25.89291494259819L230.40993006261985,25.797889990363814L230.65929172866345,23.1334493909892L230.90865339470704,17.439753004907157L231.15801506075064,17.782399886853273L231.40737672679424,18.738274584026676L231.65673839283784,20.50149376990435L231.90610005888144,20.148580096776893L232.15546172492506,22.14356398410372L232.40482339096866,19.373729422319947L232.65418505701223,20.186408110958286L232.90354672305583,21.454042057182676L233.15290838909945,21.60977389512167L233.40227005514305,22.622596883679762L233.65163172118665,21.651720853139995L233.90099338723022,20.01629194866029L234.1503550532738,21.382617079238802L234.39971671931744,24.057572678065572L234.64907838536104,24.825387478400895L234.89844005140463,22.85287469803334L235.14780171744826,21.933319841034965L235.39716338349183,22.304044712393956L235.64652504953543,19.980788644403496L235.89588671557902,21.93011147875606L236.14524838162262,23.07570024351751L236.39461004766625,21.71369525784859L236.64397171370985,21.184628510039857L236.89333337975341,20.539471290046475L237.142695045797,20.9785267825966L237.39205671184064,21.148136003774425L237.64141837788424,19.974105051109095L237.89078004392783,21.464112622525434L238.14014170997143,19.75695968969575L238.38950337601503,19.537879648732204L238.63886504205863,21.574201757144287L238.88822670810222,20.795807652801837L239.13758837414582,21.883620695195393L239.38695004018945,19.93796373688911L239.63631170623302,19.660179673891122L239.8856733722766,19.585578005622708L240.1350350383202,16.377404241245852L240.38439670436384,15.205861083156764L240.63375837040743,17.229342342436027L240.88312003645103,17.70554669560255L241.1324817024946,19.951214662061933L241.3818433685382,18.985596051237035L241.63120503458182,19.358712131876537L241.88056670062542,21.1123612999341L242.12992836666902,22.862027556529934L242.37929003271265,24.726510940383303L242.62865169875622,21.412973384359738L242.8780133647998,18.99475247796954L243.1273750308434,22.20298538973636L243.376736696887,19.297736501283474L243.62609836293063,17.674319179244005L243.87546002897423,17.100543487986844L244.1248216950178,16.889450230209395L244.3741833610614,19.487870589608267L244.62354502710502,17.738677149318097L244.87290669314862,18.18395135007135L245.12226835919222,18.31556483760022L245.3716300252358,15.881723541900651L245.62099169127941,16.537955697656155L245.870353357323,15.54858496243447L246.1197150233666,16.917445778035027L246.3690766894102,19.402258466650903L246.61843835545383,19.049049387735423L246.8678000214974,17.462324680320165L247.117161687541,19.092934362555567L247.3665233535846,19.754221204888154L247.61588501962822,21.857331536913076L247.86524668567182,24.020486071838526L248.11460835171542,23.77305668383772L248.363970017759,20.82709267730279L248.61333168380258,22.74312202585743L248.8626933498462,24.192260304887963L249.1120550158898,24.20510745304513L249.3614166819334,26.998809154362405L249.610778347977,25.755174623810895L249.8601400140206,25.996076998472752L250.1095016800642,23.807742939453174L250.3588633461078,20.025909658224794L250.6082250121514,23.91756704536461L250.85758667819502,21.3272178137559L251.10694834423862,14.824777068644376L251.3563100102822,15.216793390309837L251.60567167632578,15.75506866448794L251.8550333423694,14.823855014840964L252.104395008413,19.63883362322888L252.3537566744566,21.73152142453066L252.60311834050017,20.88171565235441L252.85248000654377,22.233941018707554L253.1018416725874,22.09742932632428L253.351203338631,23.423952372994783L253.6005650046746,24.772418709236234L253.84992667071822,22.754040773416325L254.0992883367618,24.608147648140193L254.34865000280539,26.191707913996176L254.59801166884898,22.726923740112174L254.84737333489258,22.16240776470264L255.0967350009362,24.277094567124337L255.3460966669798,22.53654554994572L255.59545833302337,22.895133585500858L255.84481999906697,26.077760330024052L256.09418166511057,24.853995479756378L256.3435433311542,21.764549227496236L256.5929049971978,20.633359117541012L256.8422666632414,21.20511115132358L257.09162832928496,21.684033649529017L257.3409899953286,21.298267789278782L257.5903516613722,20.02959397193164L257.8397133274158,18.650740293545027L258.0890749934594,19.258031343762518L258.338436659503,17.65305704238442L258.5877983255466,16.60666948893988L258.83715999159017,17.964372291412086L259.0865216576338,22.479996206071483L259.33588332367736,20.444615229145686L259.585244989721,22.764815847520026L259.83460665576456,23.377263516659465L260.0839683218082,22.505838533157625L260.33332998785176,19.613853854648458L260.5826916538954,18.498742237663162L260.832053319939,20.186759200696464L261.0814149859826,17.661436577626247L261.33077665202615,18.033468896112485L261.58013831806977,16.88270949891382L261.8294999841134,16.848303774381673L262.07886165015697,20.087025208564814L262.3282233162006,20.878781583709234L262.57758498224416,21.050451921915307L262.8269466482878,21.879564776597924L263.07630831433136,19.782426685721024L263.325669980375,20.183818548368357L263.57503164641855,15.684852178504606L263.8243933124622,16.400272016853815L264.07375497850575,18.460078569192657L264.3231166445494,20.934504094584877L264.57247831059294,18.148836139669097L264.82183997663657,18.558035462480223L265.0712016426802,20.44978465010193L265.32056330872376,20.19844806619776L265.56992497476733,21.20253533647373L265.81928664081096,22.91743268547406L266.0686483068546,25.041508074555246L266.31800997289815,19.079668959404557L266.5673716389418,18.57296413019003L266.8167333049854,18.255959549979387L267.066094971029,13.326731658351218L267.31545663707254,16.11483042730841L267.56481830311617,16.173595094042007L267.81417996915974,19.738204857912702L268.06354163520336,23.86702960001854L268.312903301247,25.001402910584414L268.56226496729056,26.628200850918127L268.81162663333413,24.557417903409263L269.06098829937775,18.947837437227445L269.3103499654214,22.423233463285406L269.55971163146495,26.92410535168822L269.8090732975086,20.60459254798439L270.05843496355214,21.311487693510117L270.30779662959577,20.40959641056594L270.55715829563934,21.088948788829114L270.80651996168297,15.149709812342339L271.0558816277266,15.947065547544875L271.30524329377016,19.27183029002047L271.55460495981373,20.707490346245912L271.80396662585736,15.641954415999221L272.053328291901,14.570520316018294L272.30268995794455,17.8240701080083L272.5520516239882,16.990584127650028L272.80141329003175,19.89094649646719L273.0507749560753,20.453396445267835L273.30013662211894,12.36394576247687L273.54949828816257,17.150613132203098L273.79885995420614,17.292460276237858L274.04822162024976,18.064956796481496L274.29758328629333,20.16616706495514" fill="none"></path></g></g></g></g><g opacity="0.2"><g><g><g><path style="fill: none;" stroke="rgb(0, 119, 187)" stroke-width="2px" d="M25.185278908737498,158.12515543313052L25.4346405747811,157.07995453917025L25.6840022408247,155.99406077212396L25.933363906868298,155.60775072310489L26.1827255729119,154.77198311292213L26.432087238955496,154.58917474942655L26.681448904999097,153.48037831081393L26.9308105710427,153.70903603601408L27.180172237086296,153.78395870752288L27.429533903129897,153.73454231041487L27.67889556917349,153.83212957043165L27.928257235217092,154.12097484589486L28.177618901260693,154.15744365854582L28.42698056730429,154.12306170897236L28.676342233347892,154.40947409710603L28.925703899391493,153.9214367456919L29.17506556543509,153.77750137441254L29.424427231478692,153.6820308335481L29.67378889752229,154.01427459318742L29.92315056356589,153.4791833022798L30.17251222960949,154.0970455846781L30.42187389565309,153.83495441443606L30.67123556169669,154.42124428045773L30.920597227740284,154.35528417295478L31.169958893783885,154.36201250735985L31.419320559827487,154.32413816257016L31.668682225871084,154.22295822154723L31.918043891914685,154.28330347312865L32.16740555795829,154.0563218985918L32.41676722400189,154.12059054462378L32.666128890045485,153.9302588330379L32.91549055608908,154.27498051811077L33.16485222213268,154.34278634347135L33.414213888176285,154.25244377484634L33.66357555421988,154.04357565125483L33.91293722026348,154.0631796093212L34.16229888630708,153.81644135141207L34.41166055235068,153.76796427235104L34.66102221839428,154.1601659201392L34.91038388443788,154.0358635974607L35.15974555048148,153.87133748656439L35.40910721652508,153.9999880786047L35.65846888256868,154.0084273957604L35.907830548612274,154.45111107286638L36.15719221465587,153.69881530639273L36.40655388069948,153.9941171494259L36.655915546743074,154.158248624256L36.90527721278667,154.2509662819118L37.154638878830276,153.52585906482528L37.404000544873874,153.87119050281132L37.65336221091748,153.88843123772276L37.902723876961076,153.61400721194926L38.152085543004674,153.6103999856759L38.401447209048264,153.1084719040558L38.650808875091876,153.2879995442503L38.900170541135466,153.16380592830583L39.149532207179064,153.25472073836534L39.39889387322267,153.19207733456133L39.648255539266266,153.11924076058966L39.897617205309864,152.72815373959565L40.14697887135347,153.06414711601914L40.396340537397066,153.0269916136468L40.64570220344066,152.74438243012395L40.89506386948426,152.62053024518923L41.144425535527866,152.63859929479247L41.39378720157146,152.77941815118243L41.64314886761506,152.69196817688552L41.892510533658665,152.58853371944176L42.14187219970226,152.56306954976188L42.39123386574586,152.68166247228191L42.640595531789465,152.0338798096483L42.88995719783306,152.28702334392193L43.13931886387666,153.0011707021496L43.388680529920265,152.55325302546146L43.63804219596386,153.0001563611453L43.88740386200746,152.56715141107122L44.13676552805106,152.62202075231025L44.38612719409466,152.52143563616306L44.63548886013826,152.65225423856123L44.88485052618185,152.31036390458598L45.13421219222546,152.94589792113L45.38357385826905,152.74902466699191L45.63293552431265,152.96953168375984L45.882297190356255,152.57593675247898L46.13165885639985,152.66246042291536L46.38102052244345,152.84800674158214L46.630382188487054,152.7824420356858L46.87974385453065,152.38475452553027L47.12910552057425,152.68868400865276L47.37846718661785,152.26605519289734L47.62782885266145,152.20779986655492L47.87719051870505,151.58634260652934L48.12655218474865,152.28196312200618L48.37591385079225,151.6224715192513L48.62527551683585,152.05312855697807L48.87463718287945,150.6847465617891L49.12399884892305,151.42980720612573L49.37336051496665,151.37877934651655L49.622722181010246,150.5744589868582L49.87208384705385,150.25388742140186L50.12144551309745,150.56832930503074L50.370807179141046,150.8724218482543L50.620168845184644,149.79955834402622L50.86953051122825,149.13005730079502L51.118892177271846,150.08043970291007L51.368253843315436,150.26259850539267L51.61761550935905,149.6815173761206L51.86697717540264,149.28481281981377L52.116338841446236,148.9258938056125L52.36570050748984,148.8725624349981L52.61506217353344,148.7251453860678L52.864423839577036,148.42863398923328L53.11378550562064,147.4393399351128L53.36314717166424,147.1015712705467L53.612508837707836,146.88703929644936L53.86187050375143,146.84240982334123L54.11123216979504,145.71914926477757L54.360593835838635,145.23710226684162L54.60995550188223,146.43186889019543L54.85931716792584,145.62792441086395L55.108678833969435,144.8937344399318L55.35804050001303,144.00568922546853L55.60740216605664,142.696027239633L55.856763832100235,143.4994266542135L56.10612549814383,141.72075482312357L56.35548716418744,141.3778907217842L56.604848830231035,140.53278160510717L56.85421049627463,141.29284530982278L57.10357216231822,140.000861182456L57.352933828361834,138.4955975050545L57.602295494405425,139.3258275788942L57.85165716044902,137.56179594204286L58.10101882649263,137.51225476185283L58.350380492536225,137.0944901896757L58.59974215857982,137.3206369424275L58.84910382462343,138.51448644840536L59.098465490667024,135.69719679647307L59.34782715671062,136.30024510696637L59.59718882275422,136.42350935688881L59.846550488797824,135.7055519041869L60.09591215484142,135.6794990339544L60.34527382088502,131.74068966228387L60.594635486928624,134.76966654025927L60.84399715297222,132.29990772382644L61.09335881901582,132.14391815371417L61.342720485059424,132.44292597772983L61.59208215110302,129.40520356644646L61.84144381714662,131.00060809258264L62.09080548319022,131.10414283581633L62.34016714923382,132.28820720464938L62.58952881527742,129.1130702950486L62.838890481321016,127.3318721807027L63.08825214736462,129.0470654034334L63.33761381340822,128.41645610815777L63.58697547945181,126.52934395107532L63.83633714549542,126.30061885832164L64.08569881153902,125.53460996701033L64.33506047758262,125.50237153050256L64.58442214362621,126.88777914375605L64.83378380966981,122.49443170218602L65.08314547571341,123.42985467972375L65.33250714175702,120.10099113737577L65.58186880780062,121.38193923461584L65.83123047384422,122.43429391204772L66.08059213988781,120.06075127281001L66.32995380593141,119.26483424990948L66.57931547197501,119.63060331943633L66.8286771380186,118.03593371206553L67.07803880406222,119.44826997374693L67.3274004701058,116.73470185690114L67.5767621361494,118.2244863078069L67.82612380219301,114.59082133184293L68.07548546823661,118.13725757468L68.3248471342802,119.32971226608443L68.5742088003238,116.49632176886733L68.8235704663674,115.90668419476134L69.072932132411,117.14143039895151L69.3222937984546,118.00701772080957L69.5716554644982,113.86842986925657L69.8210171305418,112.5625925231625L70.0703787965854,113.82705700492751L70.319740462629,115.29627597904893L70.5691021286726,110.87405847864574L70.8184637947162,112.60609665191113L71.0678254607598,110.07663793443773L71.3171871268034,110.64548036964516L71.566548792847,109.60752091353007L71.8159104588906,108.18138348986722L72.0652721249342,109.74445465248844L72.3146337909778,108.38780379809178L72.56399545702139,102.72093093881195L72.813357123065,106.27600860146521L73.06271878910859,105.25382233935197L73.31208045515218,108.59728626783873L73.5614421211958,102.7247953866532L73.8108037872394,108.30161619988247L74.06016545328299,109.27933375236753L74.30952711932659,108.98976351016391L74.55888878537019,107.86094665951786L74.80825045141378,106.78783665128721L75.0576121174574,108.51118441015207L75.30697378350098,110.8627009215592L75.55633544954459,104.50712037643935L75.80569711558819,105.35543710731108L76.05505878163179,101.66363393268293L76.30442044767538,105.50123274171528L76.553782113719,94.03835567175628L76.80314377976258,100.13298187409927L77.05250544580619,96.2991127778012L77.30186711184979,101.06770055448686L77.55122877789339,104.24733884152555L77.80059044393698,104.19205457740027L78.0499521099806,96.37335794607317L78.29931377602418,101.049394952906L78.54867544206779,103.94428896430034L78.79803710811139,99.85999629870093L79.04739877415497,96.21576074116163L79.29676044019858,101.70201506520462L79.5461221062422,92.12677071978688L79.79548377228578,101.49887739413207L80.04484543832938,91.71846822671397L80.29420710437297,100.38700654535097L80.54356877041657,95.32330601410614L80.79293043646018,101.12915813624132L81.04229210250377,95.69646101722502L81.29165376854738,97.28447960976919L81.54101543459097,90.71099871287734L81.79037710063457,99.33173669014975L82.03973876667817,97.79555436785667L82.28910043272178,95.15775331355943L82.53846209876536,87.64947412008043L82.78782376480898,86.10420330238885L83.03718543085257,95.97941086621721L83.28654709689617,93.2397500710391L83.53590876293977,91.47794768777602L83.78527042898338,94.72900170583999L84.03463209502696,94.75476673288941L84.28399376107058,91.71862745911312L84.53335542711417,92.46109139047877L84.78271709315777,77.06657040681166L85.03207875920137,91.06163458016054L85.28144042524498,88.60598314186137L85.53080209128856,94.36909361346697L85.78016375733218,92.39690848496939L86.02952542337576,75.66138123012351L86.27888708941936,90.51691279126497L86.52824875546297,88.9534282368382L86.77761042150655,88.7250522304981L87.02697208755016,88.56955566839096L87.27633375359376,91.28223269623376L87.52569541963736,83.76112917029896L87.77505708568096,84.75859154028039L88.02441875172457,79.69839412181717L88.27378041776815,86.25281612539366L88.52314208381176,86.51234043873956L88.77250374985536,85.64040831820712L89.02186541589896,88.70847368801587L89.27122708194256,75.88735037750702L89.52058874798617,90.05240126128702L89.76995041402975,83.64269701125886L90.01931208007336,91.0429370219048L90.26867374611696,86.22133098062041L90.51803541216056,83.93540290686141L90.76739707820416,85.21442490450391L91.01675874424777,78.15992742702836L91.26612041029135,76.14718090700516L91.51548207633496,85.40275396245416L91.76484374237856,88.41351404153284L92.01420540842214,83.42758016431071L92.26356707446575,80.65397837081838L92.51292874050934,75.05784756702887L92.76229040655295,79.98449187285442L93.01165207259655,84.57099740109552L93.26101373864014,79.18895455798265L93.51037540468374,78.89709381896027L93.75973707072735,76.280893252042L94.00909873677094,71.86282498050168L94.25846040281455,80.17855942149762L94.50782206885815,78.24435122020078L94.75718373490174,76.3529152910487L95.00654540094534,77.96073381999669L95.25590706698895,75.11252552317274L95.50526873303254,74.99740049857684L95.75463039907615,80.74934020494875L96.00399206511975,78.29225567505709L96.25335373116334,76.96221194212849L96.50271539720694,80.36771526305894L96.75207706325055,75.30563155309791L97.00143872929414,61.917726642086194L97.25080039533775,83.01816916876669L97.50016206138135,71.6162536103955L97.74952372742493,71.51428975602283L97.99888539346854,76.70706039543657L98.24824705951215,75.41534880044529L98.49760872555574,74.45755979514799L98.74697039159933,77.84167085568296L98.99633205764293,69.28386642201876L99.24569372368653,69.01185461398455L99.49505538973014,72.89095183596837L99.74441705577372,78.42493913382242L99.99377872181734,72.40313113248195L100.24314038786093,70.09501463633168L100.49250205390453,72.66718744488098L100.74186371994813,71.71017622861037L100.99122538599174,71.70005272261731L101.24058705203532,63.88556962554504L101.48994871807894,70.42905358816351L101.73931038412253,65.08164991619196L101.98867205016613,73.08074460712632L102.23803371620973,67.34495474062352L102.48739538225334,67.96503632458516L102.73675704829692,74.21918276927573L102.98611871434053,69.31920989031023L103.23548038038413,69.80248022177437L103.48484204642773,67.19850992797656L103.73420371247133,72.51730688700592L103.98356537851494,70.52062446632917L104.23292704455852,66.89685639640555L104.48228871060213,74.93784145696628L104.73165037664572,72.38212470443833L104.98101204268931,72.38278000700411L105.23037370873293,72.8856910424729L105.47973537477651,71.41026812910712L105.72909704082012,66.02751486452108L105.97845870686372,59.79864350103635L106.22782037290732,64.14722520331053L106.47718203895091,67.27221003149752L106.72654370499453,69.81600885138032L106.97590537103811,72.56456828794254L107.22526703708172,64.96613293492119L107.47462870312532,68.31630912146501L107.72399036916892,60.2240573526964L107.97335203521251,66.58921327689676L108.22271370125613,73.3969311572826L108.47207536729971,48.83318394877497L108.72143703334332,57.94960013600029L108.97079869938692,65.86778639518998L109.22016036543052,66.59244691946442L109.46952203147411,36.640734647459624L109.71888369751773,57.885600960182266L109.96824536356131,65.50587564918133L110.21760702960492,50.00117809393851L110.46696869564852,67.17672571090624L110.7163303616921,62.0096037364041L110.96569202773571,65.20121507499533L111.2150536937793,70.0007184344111L111.46441535982291,45.64277910182356L111.7137770258665,51.427802401283394L111.9631386919101,65.75079957638846L112.2125003579537,52.555755722380134L112.46186202399731,61.89567295480192L112.7112236900409,67.44957655119761L112.96058535608451,64.25890835835524L113.2099470221281,58.518904957597634L113.4593086881717,63.26543904699902L113.7086703542153,59.702289526572706L113.95803202025891,55.10472347091271L114.2073936863025,60.91251087913006L114.45675535234611,46.51277593627384L114.7061170183897,64.0224053753347L114.9554786844333,56.95506519243427L115.2048403504769,60.662932466408904L115.45420201652051,58.18788529702688L115.7035636825641,62.74611482577019L115.9529253486077,60.50058891113767L116.2022870146513,59.979574376748495L116.45164868069489,70.42581994559588L116.7010103467385,51.42961520090466L116.95037201278211,59.889595822574485L117.1997336788257,45.501723693456L117.44909534486929,56.02879807784847L117.69845701091289,57.265666359973686L117.94781867695649,52.15136667173284L118.1971803430001,54.4841948113688L118.44654200904368,45.04438374576349L118.6959036750873,54.84690171937327L118.94526534113089,48.679892142963936L119.19462700717449,57.98168546443194L119.44398867321809,57.02303292958531L119.6933503392617,53.80826552556173L119.94271200530528,36.77350997107059L120.1920736713489,43.93024689745579L120.44143533739249,52.26175147029208L120.69079700343609,52.85799106464037L120.94015866947969,45.47960263861823L121.1895203355233,50.11009305496699L121.43888200156688,55.1468220675226L121.6882436676105,46.60717625168618L121.93760533365409,49.56252958017867L122.18696699969769,35.83817885837852L122.43632866574129,47.012851410172885L122.6856903317849,53.8353105361275L122.93505199782848,41.77312558597478L123.18441366387209,32.9419742418526L123.43377532991568,41.719819478192946L123.68313699595927,46.59131425500019L123.93249866200289,32.02515083340187L124.18186032804647,50.90037570066633L124.43122199409008,38.68411503135284L124.68058366013368,45.14231167124962L124.92994532617728,46.02561053535318L125.17930699222087,40.293231916786326L125.42866865826448,46.29750598124956L125.67803032430807,55.55813160321049L125.92739199035168,51.155355766312994L126.17675365639528,42.431735286211186L126.42611532243887,40.895142634274094L126.67547698848247,52.79713979086737L126.92483865452608,48.29217349964457L127.17420032056967,41.124804748453606L127.42356198661328,41.521097444035696L127.67292365265688,37.49611884712504L127.92228531870047,50.635449734394925L128.1716469847441,38.78890219864916L128.42100865078768,41.128344607173496L128.67037031683128,47.68799678263022L128.91973198287488,34.4757252078969L129.16909364891848,38.09048439862164L129.41845531496207,43.13127996167895L129.66781698100567,44.42793388536738L129.91717864704927,40.07926031824754L130.16654031309287,47.19469481001871L130.41590197913646,46.37175727384455L130.66526364518006,35.24819832218199L130.91462531122366,46.61328832608487L131.16398697726726,43.82337746032426L131.41334864331085,39.89097413055861L131.66271030935445,20.30973730269106L131.91207197539808,39.92053011357274L132.16143364144165,38.36845517297843L132.41079530748527,38.868665381984464L132.66015697352887,38.47601053429098L132.90951863957247,39.03589614704542L133.15888030561607,36.35382236145742L133.40824197165966,30.367713039145016L133.65760363770326,39.79645132868537L133.90696530374686,49.55494766824922L134.15632696979046,19.317376493805938L134.40568863583405,30.346792351624032L134.65505030187765,46.76065178718854L134.90441196792128,28.525920872593986L135.15377363396485,35.001829054736305L135.40313530000847,42.1453986865752L135.65249696605207,35.87399389954443L135.90185863209564,33.504701540499816L136.15122029813926,37.56490724356407L136.40058196418283,43.051627016158456L136.64994363022646,43.739021034705374L136.89930529627006,38.02506437985722L137.14866696231365,41.55796586876531L137.39802862835725,46.763211754221274L137.64739029440085,43.09798814160749L137.89675196044445,46.24863388335217L138.14611362648805,42.60860573574463L138.39547529253164,21.804108871557393L138.64483695857524,28.18257907405713L138.89419862461884,42.67302136552971L139.14356029066246,33.90176590078554L139.39292195670603,30.105273548029803L139.64228362274966,31.797583237703652L139.89164528879326,37.74831847010936L140.14100695483685,45.25245149688707L140.39036862088045,17.03811168351968L140.63973028692405,38.274704035808824L140.88909195296765,26.162238393458388L141.13845361901124,24.046444013883587L141.38781528505484,19.560855080774495L141.63717695109844,38.4718827405588L141.88653861714204,37.272127856085L142.13590028318563,42.03138828877344L142.38526194922923,25.37123307763977L142.63462361527283,33.303370544725475L142.88398528131643,28.5379000484696L143.13334694736002,29.76919519662405L143.38270861340365,25.555636444518306L143.63207027944722,28.58751931377846L143.88143194549085,16.248453718770914L144.13079361153444,39.89511417293688L144.38015527757804,16.462584549708836L144.62951694362164,32.19235710117063L144.87887860966524,35.33315493145928L145.12824027570883,34.13816477031432L145.37760194175243,29.36365477324434L145.62696360779603,31.67210810716205L145.87632527383963,28.191753309978232L146.12568693988322,29.785032696017872L146.37504860592685,43.58772575820695L146.62441027197042,35.263484632501786L146.87377193801404,42.019482604774375L147.12313360405764,32.838191463535615L147.37249527010124,35.504770711820306L147.62185693614484,35.10948240521756L147.87121860218843,42.35012255731636L148.12058026823203,48.79310637876989L148.36994193427563,34.13391449012125L148.61930360031923,41.45254177187235L148.86866526636283,34.465595577580835L149.11802693240642,32.67876308603372L149.36738859845002,39.41578790551357L149.61675026449362,43.99188208457855L149.86611193053722,31.506543157969272L150.11547359658084,42.01748607546179L150.36483526262444,38.186722010947406L150.614196928668,45.62134397116678L150.8635585947116,39.89020246585497L151.11292026075523,34.96050212283007L151.36228192679883,20.540795762524787L151.61164359284243,25.461848561410445L151.861005258886,33.613543009651764L152.11036692492962,35.47773794990063L152.35972859097322,38.695983969413646L152.60909025701682,12.352845321858329L152.85845192306041,39.09580427506953L153.10781358910404,24.58575190120756L153.3571752551476,40.96971239166743L153.6065369211912,25.457096086727695L153.8558985872348,40.61343602285997L154.10526025327843,36.0142163999779L154.35462191932203,25.257247177130182L154.60398358536563,31.884805846507525L154.8533452514092,40.6976332160797L155.1027069174528,32.71454138126138L155.35206858349642,24.244480123859837L155.60143024954002,21.606734188469996L155.8507919155836,25.982060809480764L156.1001535816272,35.452481241663925L156.3495152476708,33.653657325595134L156.5988769137144,19.832983250946555L156.848238579758,19.48630982067335L157.0976002458016,32.43730552566994L157.34696191184523,25.915820131428347L157.59632357788882,34.41791159835411L157.8456852439324,28.49811644597067L158.095046909976,43.03491986289228L158.34440857601962,29.773678201092853L158.59377024206321,26.153554103380888L158.8431319081068,26.640376542211012L159.09249357415038,18.35577203525173L159.34185524019398,33.12220082041458L159.5912169062376,31.533514676658523L159.8405785722812,35.303157997185906L160.0899402383248,30.1797575649005L160.33930190436843,37.266983424727364L160.588663570412,23.17168245610446L160.8380252364556,43.566266130258015L161.0873869024992,28.5139294480723L161.3367485685428,36.805233964442586L161.5861102345864,37.480109866685964L161.83547190063,16.829162029877633L162.08483356667358,19.242096314939413L162.33419523271718,40.010888375775544L162.5835568987608,33.83204660724368L162.8329185648044,21.139080880770045L163.082280230848,29.83753039315779L163.3316418968916,36.80132664634002L163.5810035629352,18.92910666141252L163.8303652289788,31.706514554027663L164.0797268950224,25.10856086224885L164.329088561066,28.656319958863612L164.5784502271096,50.38850478058302L164.82781189315318,29.536728142490023L165.07717355919678,21.918131518005243L165.32653522524038,21.130800796013506L165.575896891284,29.599024756501613L165.8252585573276,32.18987062601446L166.0746202233712,36.14597508596345L166.32398188941477,24.30373907364119L166.57334355545837,34.60771661815815L166.822705221502,35.27491261930337L167.0720668875456,34.91278139766509L167.3214285535892,30.11077319012402L167.5707902196328,12.720512931529084L167.82015188567638,36.84438063734488L168.06951355171998,32.2372851350272L168.31887521776358,27.566949872949035L168.56823688380717,29.17386200208639L168.8175985498508,48.46911744105456L169.0669602158944,29.562572785739032L169.31632188193797,31.137540445874755L169.56568354798156,25.670871706929034L169.8150452140252,43.329414060823915L170.0644068800688,28.32677013582361L170.31376854611239,30.748119240748927L170.56313021215595,25.209379468212134L170.81249187819958,18.522917059790046L171.06185354424318,33.59866090465293L171.31121521028678,33.88458105032186L171.56057687633037,12.807086362090198L171.809938542374,29.358975790438137L172.05930020841757,34.97004381813385L172.30866187446117,30.833345320240188L172.55802354050476,22.48185095698573L172.8073852065484,40.42457414880482L173.056746872592,14.274755882481266L173.30610853863558,26.512733401311564L173.55547020467915,16.6761029483423L173.80483187072275,19.81725598936756L174.05419353676638,37.14160628335449L174.30355520280997,25.378778243630958L174.55291686885357,37.729235079501805L174.80227853489717,29.554647911719073L175.05164020094077,32.8403349766013L175.30100186698436,30.87478248996122L175.55036353302796,26.74120739682039L175.79972519907156,29.061382685045817L176.04908686511519,39.062304228014554L176.29844853115878,26.947413353738373L176.54781019720235,15.886285751194375L176.79717186324595,28.493278230765284L177.04653352928958,38.22851439140505L177.29589519533317,20.235253285820367L177.54525686137677,30.738259080646827L177.79461852742034,23.625286566739664L178.04398019346394,30.801915294374343L178.29334185950756,39.644176160499775L178.54270352555116,32.858058767492906L178.79206519159476,31.58355039593444L179.04142685763838,38.41235432056346L179.29078852368195,12.942446150026086L179.54015018972555,26.747858411647037L179.78951185576915,34.845168871250635L180.03887352181275,31.42837229862562L180.28823518785637,30.818218242319553L180.53759685389997,32.397815890677144L180.78695851994354,35.48486666192476L181.03632018598714,37.23441427477518L181.28568185203076,23.652343825951533L181.53504351807436,32.43234482400366L181.78440518411796,37.08528700863463L182.03376685016156,27.411820770224594L182.28312851620515,37.33912795019496L182.53249018224875,26.512512925681953L182.78185184829235,24.897516690125478L183.03121351433595,37.18659556044149L183.28057518037957,19.8918134981148L183.52993684642314,31.206145112622462L183.77929851246674,36.32738978319612L184.02866017851034,38.54189600160681L184.27802184455396,20.05502670725836L184.52738351059756,26.05595689133915L184.77674517664116,30.63007903838371L185.02610684268473,31.86557547214688L185.27546850872832,24.037710729221732L185.52483017477195,30.670315840787953L185.77419184081555,24.44644804923082L186.02355350685914,33.582174227016374L186.27291517290277,11.29375388907719L186.52227683894634,38.46590540126708L186.77163850498994,14.044873292672118L187.02100017103353,19.343025158717502L187.27036183707713,28.61021605498245L187.51972350312076,29.738169376079167L187.76908516916436,4.648471428808261L188.01844683520793,19.03219126690238L188.26780850125152,29.0624728145478L188.51717016729515,23.535344758503918L188.76653183333875,35.51127474289387L189.01589349938234,26.322352695141305L189.2652551654259,25.078159722654537L189.51461683146954,25.989471240364956L189.76397849751314,22.421330396657144L190.01334016355673,18.641165489138803L190.26270182960033,10.806539493572199L190.51206349564396,30.135723682208493L190.76142516168753,26.809530344708033L191.01078682773112,14.296301250952823L191.26014849377472,17.194955596696676L191.50951015981835,28.325484027984206L191.75887182586195,23.224167904598286L192.00823349190554,-0.2404531713844164L192.2575951579491,22.148430561781424L192.5069568239927,6.834781263920743L192.75631849003634,17.2691823919995L193.00568015607993,25.766778605810387L193.25504182212353,24.291441432967254L193.50440348816713,14.818914233656693L193.75376515421073,38.32029349655422L194.00312682025432,30.577030152169762L194.25248848629792,23.932396870143574L194.50185015234152,26.34910373820095L194.75121181838514,27.27915568442841L195.00057348442874,15.125877553307513L195.2499351504723,41.09915608354204L195.4992968165159,13.226724977119012L195.74865848255953,19.013793800475824L195.99802014860313,13.475409238675635L196.24738181464673,35.0672613221468L196.4967434806903,24.284912904601505L196.7461051467339,23.252633758110456L196.99546681277752,32.53672778597902L197.24482847882112,27.98297513738144L197.49419014486472,28.787588699005564L197.74355181090834,22.956547236187173L197.9929134769519,23.138721349477414L198.2422751429955,11.441154096119138L198.4916368090391,32.0160623380034L198.7409984750827,35.81322836629407L198.99036014112633,27.910928601082556L199.23972180716993,24.953076548787802L199.4890834732135,22.780497445941723L199.7384451392571,37.17968732404697L199.98780680530072,18.80441544422065L200.23716847134432,16.897729950687054L200.48653013738792,23.638123147841554L200.7358918034315,19.265711704600104L200.9852534694751,6.271049576294162L201.2346151355187,34.389372252965394L201.4839768015623,35.27464314908938L201.7333384676059,16.543707332760086L201.98270013364953,29.364377443363622L202.2320617996931,19.496280218590254L202.4814234657367,26.008909841709094L202.7307851317803,38.50124274523551L202.98014679782392,28.835958602413307L203.22950846386752,36.27675388026182L203.47887012991112,28.726529198249043L203.72823179595468,26.666319174628732L203.97759346199828,23.638637590977297L204.2269551280419,30.677750768964334L204.4763167940855,27.507543939414617L204.7256784601291,21.85351990988274L204.97504012617273,29.885214372384514L205.2244017922163,16.856354024196474L205.4737634582599,28.2621707763472L205.7231251243035,32.12380142900728L205.9724867903471,19.552526001433577L206.22184845639072,12.984569243928119L206.47121012243431,34.337242015208176L206.72057178847788,35.251921910593225L206.96993345452148,25.875669069546717L207.2192951205651,11.50405089378909L207.4686567866087,25.41698177078433L207.7180184526523,9.642979358293083L207.96738011869587,13.5860022642184L208.2167417847395,38.736600479846665L208.4661034507831,12.574521318787438L208.7154651168267,32.832924545717106L208.9648267828703,2.346056677412701L209.21418844891392,13.96435069327927L209.46355011495748,34.85643762565306L209.71291178100108,14.156299226148992L209.96227344704468,31.438024231744205L210.2116351130883,21.74012194438546L210.4609967791319,10.1652983734908L210.7103584451755,24.902881597112724L210.95972011121907,13.858620380234058L211.20908177726267,17.714138958495464L211.4584434433063,17.676670350107447L211.7078051093499,22.43413023182075L211.9571667753935,10.463258938265794L212.2065284414371,16.655439482389188L212.45589010748068,40.54092403800968L212.70525177352428,26.8960425320387L212.95461343956788,25.216030483038782L213.20397510561148,29.786820998346947L213.4533367716551,12.26015981689852L213.7026984376987,17.689004736719664L213.95206010374227,12.218992117391455L214.20142176978587,24.777945406999056L214.4507834358295,31.41514376084889L214.7001451018731,28.098798334804457L214.9495067679167,22.80760369973795L215.19886843396026,11.33185942706187L215.44823010000385,22.244606930876767L215.69759176604748,16.0579015315554L215.94695343209108,19.544490889598812L216.19631509813468,25.3567429293158L216.4456767641783,15.620196163544467L216.69503843022187,22.051862236011218L216.94440009626547,20.125713643841298L217.19376176230907,16.82118816127332L217.44312342835266,36.7704723068404L217.6924850943963,24.47154552506836L217.9418467604399,17.293152992396795L218.19120842648346,17.779914187996468L218.44057009252705,22.419284872760173L218.68993175857068,26.953317201153553L218.93929342461428,15.534737359777502L219.18865509065787,9.958810697712753L219.43801675670147,16.41189965219018L219.68737842274507,21.5470465360755L219.93674008878867,25.489799971786848L220.18610175483226,27.53134305876666L220.43546342087586,25.58262021185365L220.6848250869195,20.589410638854307L220.93418675296306,11.623450695870277L221.18354841900666,16.62359300255629L221.43291008505025,20.487734627664768L221.68227175109388,25.515142420546187L221.93163341713748,20.904801027014756L222.18099508318107,26.64995498345307L222.43035674922464,35.62538312986435L222.67971841526824,12.603305637097952L222.92908008131187,29.948025429531846L223.17844174735546,27.15352132148765L223.42780341339906,30.89896131734203L223.6771650794427,5.282106139668025L223.92652674548626,19.27100311971081L224.17588841152985,30.357509916952406L224.42525007757345,16.87341638819925L224.67461174361705,17.613969530774916L224.92397340966068,17.836441689699853L225.17333507570427,14.559769628339568L225.42269674174784,26.258622989537248L225.67205840779144,20.488102087047448L225.92142007383507,32.48290723506143L226.17078173987866,18.638507532937357L226.42014340592226,18.10853311393367L226.66950507196583,8.937824802916294L226.91886673800946,33.22208852927506L227.16822840405305,29.701374443226076L227.41759007009665,28.40555342747176L227.66695173614025,20.365578880213423L227.91631340218387,26.360384741249444L228.16567506822744,31.963344165233874L228.41503673427104,22.67229290638644L228.66439840031464,17.394302311804495L228.91376006635826,32.581949787341735L229.16312173240186,12.113237307054074L229.41248339844546,29.726239194787933L229.66184506448903,42.638222961989236L229.91120673053263,23.45593678590522L230.16056839657625,21.70477235177096L230.40993006261985,25.41779018142625L230.65929172866345,12.475686993490672L230.90865339470704,-5.335032539421071L231.15801506075064,19.152987414637753L231.40737672679424,22.561773372720193L231.65673839283784,27.55437051341504L231.90610005888144,18.73692540426709L232.15546172492506,30.12349953341108L232.40482339096866,8.29439117518486L232.65418505701223,23.437122865511633L232.90354672305583,26.524577842080184L233.15290838909945,22.2327012468777L233.40227005514305,26.673888837912084L233.65163172118665,17.76821673098094L233.90099338723022,13.474576330741547L234.1503550532738,26.847917601552755L234.39971671931744,34.757395073372756L234.64907838536104,27.896646679742126L234.89844005140463,14.96282357656309L235.14780171744826,18.255100413041514L235.39716338349183,23.78694419782988L235.64652504953543,10.687764372441602L235.89588671557902,29.727402816166435L236.14524838162262,27.65805530256331L236.39461004766625,16.26567531517285L236.64397171370985,19.068361518804878L236.89333337975341,17.958842410072975L237.142695045797,22.734748752797167L237.39205671184064,21.826572888485675L237.64141837788424,15.277981240447835L237.89078004392783,27.424142908190692L238.14014170997143,12.928347958376984L238.38950337601503,18.66155948487795L238.63886504205863,29.719490190792573L238.88822670810222,17.682231235432113L239.13758837414582,26.23487286476956L239.38695004018945,12.15533590366394L239.63631170623302,18.549043421899118L239.8856733722766,19.287171332549047L240.1350350383202,3.5447091837384495L240.38439670436384,10.519688450800466L240.63375837040743,25.323267379552988L240.88312003645103,19.610364108268552L241.1324817024946,28.93388652789946L241.3818433685382,15.123121607937357L241.63120503458182,20.851176454434615L241.88056670062542,28.12695797216438L242.12992836666902,29.860692582913188L242.37929003271265,32.18444447579677L242.62865169875622,8.158823160265454L242.8780133647998,9.321868852408805L243.1273750308434,35.03591703680359L243.376736696887,7.676740947471984L243.62609836293063,11.180649891086066L243.87546002897423,14.805440722958162L244.1248216950178,16.045077199099605L244.3741833610614,29.881552027203725L244.62354502710502,10.741903388157509L244.87290669314862,19.965048153084354L245.12226835919222,18.842018787715638L245.3716300252358,6.146358359102313L245.62099169127941,19.16288432067814L245.870353357323,11.591102021547707L246.1197150233666,22.392889040437158L246.3690766894102,29.3415092211144L246.61843835545383,17.63621307207359L246.8678000214974,11.115425850659086L247.117161687541,25.615373091497162L247.3665233535846,22.39936857421853L247.61588501962822,30.26977286501279L247.86524668567182,32.67310421154034L248.11460835171542,22.78333913183452L248.363970017759,9.043236651163165L248.61333168380258,30.407239420076074L248.8626933498462,29.988813421010118L249.1120550158898,24.25649604567371L249.3614166819334,38.173615959631576L249.610778347977,20.780636501604747L249.8601400140206,26.95968649712012L250.1095016800642,15.054406703374845L250.3588633461078,4.89857653331128L250.6082250121514,39.48419659392385L250.85758667819502,10.965820887321028L251.10694834423862,-11.18498591180176L251.3563100102822,16.784858676971638L251.60567167632578,17.908169761200416L251.8550333423694,11.099000416252975L252.104395008413,38.898748056780455L252.3537566744566,30.102272629737847L252.60311834050017,17.482492563649426L252.85248000654377,27.642842484120056L253.1018416725874,21.55138255679121L253.351203338631,28.73004455967674L253.6005650046746,30.166284054201967L253.84992667071822,14.680529030136682L254.0992883367618,32.02457514703565L254.34865000280539,32.52594897742019L254.59801166884898,8.867787044576117L254.84737333489258,19.904343863064415L255.0967350009362,32.735841776811135L255.3460966669798,15.574349481231177L255.59545833302337,24.329485727721465L255.84481999906697,38.808267308116775L256.09418166511057,19.95893607868566L256.3435433311542,9.406764218455649L256.5929049971978,16.10859867772015L256.8422666632414,23.49211928645381L257.09162832928496,23.59972364235074L257.3409899953286,19.75520434827777L257.5903516613722,14.954898702543133L257.8397133274158,13.135325579998607L258.0890749934594,21.687195544632416L258.338436659503,11.233159836872078L258.5877983255466,12.421119275161619L258.83715999159017,23.395183501300927L259.0865216576338,40.54249186470916L259.33588332367736,12.303091321442473L259.585244989721,32.045618321017535L259.83460665576456,25.827054193217197L260.0839683218082,19.020138599150222L260.33332998785176,8.045915140611754L260.5826916538954,14.038295769722033L260.832053319939,26.938827052829584L261.0814149859826,7.560146085345329L261.33077665202615,19.521598170057402L261.58013831806977,12.279671910119223L261.8294999841134,16.710680876253168L262.07886165015697,33.04191094529742L262.3282233162006,24.045807084286945L262.57758498224416,21.7371332747396L262.8269466482878,25.196016195328408L263.07630831433136,11.393874322213378L263.325669980375,21.78938599895774L263.57503164641855,-2.3110133009504246L263.8243933124622,19.261951370250607L264.07375497850575,26.69930477854797L264.3231166445494,30.83220619615385L264.57247831059294,7.006164320006063L264.82183997663657,20.19483275372477L265.0712016426802,28.01678140058867L265.32056330872376,19.193101730581102L265.56992497476733,25.21888441757765L265.81928664081096,29.777022081475298L266.0686483068546,33.53780963087993L266.31800997289815,-4.767687501198079L266.5673716389418,16.54614481333192L266.8167333049854,16.98794122913677L267.066094971029,-6.390179908161382L267.31545663707254,27.267225503137155L267.56481830311617,16.408653760976446L267.81417996915974,33.99664391339538L268.06354163520336,40.38232856844189L268.312903301247,29.53889615284789L268.56226496729056,33.13539261225305L268.81162663333413,16.27428611337383L269.06098829937775,-3.4904844274998865L269.3103499654214,36.324817567517314L269.55971163146495,44.92759290529939L269.8090732975086,-4.6734586668309746L270.05843496355214,24.139068275612946L270.30779662959577,16.80203127878922L270.55715829563934,23.80635830188185L270.80651996168297,-8.607246093604783L271.0558816277266,19.136488488355102L271.30524329377016,32.57088925992285L271.55460495981373,26.45013057114775L271.80396662585736,-4.620189304987438L272.053328291901,10.284783916094604L272.30268995794455,30.83826927596819L272.5520516239882,13.65664020621698L272.80141329003175,31.492395971735814L273.0507749560753,22.703196240470422L273.30013662211894,-19.993856968687016L273.54949828816257,36.29728261110794L273.79885995420614,17.859848852377027L274.04822162024976,21.154942877456058L274.29758328629333,28.571008138849713" fill="none"></path></g></g></g></g></g></g><g transform="translate(30, 176)" clip-path="url(#clip_1)"><clipPath id="clip_1"><rect width="299" height="23"></rect></clipPath><g><g><line x1="0" y1="0" x2="0" y2="5" style="visibility: inherit;" fill="rgb(0, 0, 0)" stroke="rgb(204, 204, 204)" stroke-width="1px"></line><line x1="24.936166604359943" y1="0" x2="24.936166604359943" y2="5" style="visibility: inherit;" fill="rgb(0, 0, 0)" stroke="rgb(204, 204, 204)" stroke-width="1px"></line><line x1="49.87233320871989" y1="0" x2="49.87233320871989" y2="5" style="visibility: inherit;" fill="rgb(0, 0, 0)" stroke="rgb(204, 204, 204)" stroke-width="1px"></line><line x1="74.80849981307983" y1="0" x2="74.80849981307983" y2="5" style="visibility: inherit;" fill="rgb(0, 0, 0)" stroke="rgb(204, 204, 204)" stroke-width="1px"></line><line x1="99.74466641743977" y1="0" x2="99.74466641743977" y2="5" style="visibility: inherit;" fill="rgb(0, 0, 0)" stroke="rgb(204, 204, 204)" stroke-width="1px"></line><line x1="124.68083302179973" y1="0" x2="124.68083302179973" y2="5" style="visibility: inherit;" fill="rgb(0, 0, 0)" stroke="rgb(204, 204, 204)" stroke-width="1px"></line><line x1="149.61699962615967" y1="0" x2="149.61699962615967" y2="5" style="visibility: inherit;" fill="rgb(0, 0, 0)" stroke="rgb(204, 204, 204)" stroke-width="1px"></line><line x1="174.55316623051962" y1="0" x2="174.55316623051962" y2="5" style="visibility: inherit;" fill="rgb(0, 0, 0)" stroke="rgb(204, 204, 204)" stroke-width="1px"></line><line x1="199.48933283487955" y1="0" x2="199.48933283487955" y2="5" style="visibility: inherit;" fill="rgb(0, 0, 0)" stroke="rgb(204, 204, 204)" stroke-width="1px"></line><line x1="224.4254994392395" y1="0" x2="224.4254994392395" y2="5" style="visibility: inherit;" fill="rgb(0, 0, 0)" stroke="rgb(204, 204, 204)" stroke-width="1px"></line><line x1="249.36166604359946" y1="0" x2="249.36166604359946" y2="5" style="visibility: inherit;" fill="rgb(0, 0, 0)" stroke="rgb(204, 204, 204)" stroke-width="1px"></line><line x1="274.29783264795935" y1="0" x2="274.29783264795935" y2="5" style="visibility: inherit;" fill="rgb(0, 0, 0)" stroke="rgb(204, 204, 204)" stroke-width="1px"></line><line x1="299.23399925231934" y1="0" x2="299.23399925231934" y2="5" style="visibility: inherit;" fill="rgb(0, 0, 0)" stroke="rgb(204, 204, 204)" stroke-width="1px"></line></g><g transform="translate(0, 8)"><text style="text-anchor: middle; visibility: hidden; font-family: Roboto, sans-serif; font-size: 12px; font-weight: 200;" x="0" y="0" dx="0em" dy="0.95em" fill="rgb(33, 33, 33)" stroke="none" stroke-width="1px">-100k</text><text style="text-anchor: middle; visibility: inherit; font-family: Roboto, sans-serif; font-size: 12px; font-weight: 200;" x="24.936166604359943" y="0" dx="0em" dy="0.95em" fill="rgb(33, 33, 33)" stroke="none" stroke-width="1px">0</text><text style="text-anchor: middle; visibility: hidden; font-family: Roboto, sans-serif; font-size: 12px; font-weight: 200;" x="49.87233320871989" y="0" dx="0em" dy="0.95em" fill="rgb(33, 33, 33)" stroke="none" stroke-width="1px">100k</text><text style="text-anchor: middle; visibility: inherit; font-family: Roboto, sans-serif; font-size: 12px; font-weight: 200;" x="74.80849981307983" y="0" dx="0em" dy="0.95em" fill="rgb(33, 33, 33)" stroke="none" stroke-width="1px">200k</text><text style="text-anchor: middle; visibility: hidden; font-family: Roboto, sans-serif; font-size: 12px; font-weight: 200;" x="99.74466641743977" y="0" dx="0em" dy="0.95em" fill="rgb(33, 33, 33)" stroke="none" stroke-width="1px">300k</text><text style="text-anchor: middle; visibility: inherit; font-family: Roboto, sans-serif; font-size: 12px; font-weight: 200;" x="124.68083302179973" y="0" dx="0em" dy="0.95em" fill="rgb(33, 33, 33)" stroke="none" stroke-width="1px">400k</text><text style="text-anchor: middle; visibility: hidden; font-family: Roboto, sans-serif; font-size: 12px; font-weight: 200;" x="149.61699962615967" y="0" dx="0em" dy="0.95em" fill="rgb(33, 33, 33)" stroke="none" stroke-width="1px">500k</text><text style="text-anchor: middle; visibility: inherit; font-family: Roboto, sans-serif; font-size: 12px; font-weight: 200;" x="174.55316623051962" y="0" dx="0em" dy="0.95em" fill="rgb(33, 33, 33)" stroke="none" stroke-width="1px">600k</text><text style="text-anchor: middle; visibility: hidden; font-family: Roboto, sans-serif; font-size: 12px; font-weight: 200;" x="199.48933283487955" y="0" dx="0em" dy="0.95em" fill="rgb(33, 33, 33)" stroke="none" stroke-width="1px">700k</text><text style="text-anchor: middle; visibility: inherit; font-family: Roboto, sans-serif; font-size: 12px; font-weight: 200;" x="224.4254994392395" y="0" dx="0em" dy="0.95em" fill="rgb(33, 33, 33)" stroke="none" stroke-width="1px">800k</text><text style="text-anchor: middle; visibility: hidden; font-family: Roboto, sans-serif; font-size: 12px; font-weight: 200;" x="249.36166604359946" y="0" dx="0em" dy="0.95em" fill="rgb(33, 33, 33)" stroke="none" stroke-width="1px">900k</text><text style="text-anchor: middle; visibility: inherit; font-family: Roboto, sans-serif; font-size: 12px; font-weight: 200;" x="274.29783264795935" y="0" dx="0em" dy="0.95em" fill="rgb(33, 33, 33)" stroke="none" stroke-width="1px">1M</text><text style="text-anchor: middle; visibility: hidden; font-family: Roboto, sans-serif; font-size: 12px; font-weight: 200;" x="299.23399925231934" y="0" dx="0em" dy="0.95em" fill="rgb(33, 33, 33)" stroke="none" stroke-width="1px">1.1M</text></g><line x1="0" y1="0" x2="299.23399925231934" y2="0" fill="rgb(0, 0, 0)" stroke="rgb(204, 204, 204)" stroke-width="1px"></line></g></g></g></g></svg>