<svg viewBox="0 0 330 200" xmlns="http://www.w3.org/2000/svg"><g><g><g><g><g><line x1="72.29800224304199" y1="176.5999994277954" x2="67.29800224304199" y2="176.5999994277954" style="visibility: inherit;" fill="rgb(0, 0, 0)" stroke="rgb(204, 204, 204)" stroke-width="1px"></line><line x1="72.29800224304199" y1="160.54545402526855" x2="67.29800224304199" y2="160.54545402526855" style="visibility: inherit;" fill="rgb(0, 0, 0)" stroke="rgb(204, 204, 204)" stroke-width="1px"></line><line x1="72.29800224304199" y1="144.4909086227417" x2="67.29800224304199" y2="144.4909086227417" style="visibility: inherit;" fill="rgb(0, 0, 0)" stroke="rgb(204, 204, 204)" stroke-width="1px"></line><line x1="72.29800224304199" y1="128.43636322021484" x2="67.29800224304199" y2="128.43636322021484" style="visibility: inherit;" fill="rgb(0, 0, 0)" stroke="rgb(204, 204, 204)" stroke-width="1px"></line><line x1="72.29800224304199" y1="112.38181781768799" x2="67.29800224304199" y2="112.38181781768799" style="visibility: inherit;" fill="rgb(0, 0, 0)" stroke="rgb(204, 204, 204)" stroke-width="1px"></line><line x1="72.29800224304199" y1="96.32727241516112" x2="67.29800224304199" y2="96.32727241516112" style="visibility: inherit;" fill="rgb(0, 0, 0)" stroke="rgb(204, 204, 204)" stroke-width="1px"></line><line x1="72.29800224304199" y1="80.27272701263429" x2="67.29800224304199" y2="80.27272701263429" style="visibility: inherit;" fill="rgb(0, 0, 0)" stroke="rgb(204, 204, 204)" stroke-width="1px"></line><line x1="72.29800224304199" y1="64.21818161010742" x2="67.29800224304199" y2="64.21818161010742" style="visibility: inherit;" fill="rgb(0, 0, 0)" stroke="rgb(204, 204, 204)" stroke-width="1px"></line><line x1="72.29800224304199" y1="48.16363620758056" x2="67.29800224304199" y2="48.16363620758056" style="visibility: inherit;" fill="rgb(0, 0, 0)" stroke="rgb(204, 204, 204)" stroke-width="1px"></line><line x1="72.29800224304199" y1="32.109090805053704" x2="67.29800224304199" y2="32.109090805053704" style="visibility: inherit;" fill="rgb(0, 0, 0)" stroke="rgb(204, 204, 204)" stroke-width="1px"></line><line x1="72.29800224304199" y1="16.054545402526863" x2="67.29800224304199" y2="16.054545402526863" style="visibility: inherit;" fill="rgb(0, 0, 0)" stroke="rgb(204, 204, 204)" stroke-width="1px"></line><line x1="72.29800224304199" y1="0" x2="67.29800224304199" y2="0" style="visibility: inherit;" fill="rgb(0, 0, 0)" stroke="rgb(204, 204, 204)" stroke-width="1px"></line></g><g transform="translate(62.29800224304199, 0)"><text style="text-anchor: end; visibility: hidden; font-family: Roboto, sans-serif; font-size: 12px; font-weight: 200;" x="0" y="176.5999994277954" dx="0em" dy="0.3em" fill="rgb(33, 33, 33)" stroke="none" stroke-width="1px">-5e+3</text><text style="text-anchor: end; visibility: inherit; font-family: Roboto, sans-serif; font-size: 12px; font-weight: 200;" x="0" y="160.54545402526855" dx="0em" dy="0.3em" fill="rgb(33, 33, 33)" stroke="none" stroke-width="1px">0</text><text style="text-anchor: end; visibility: hidden; font-family: Roboto, sans-serif; font-size: 12px; font-weight: 200;" x="0" y="144.4909086227417" dx="0em" dy="0.3em" fill="rgb(33, 33, 33)" stroke="none" stroke-width="1px">5e+3</text><text style="text-anchor: end; visibility: inherit; font-family: Roboto, sans-serif; font-size: 12px; font-weight: 200;" x="0" y="128.43636322021484" dx="0em" dy="0.3em" fill="rgb(33, 33, 33)" stroke="none" stroke-width="1px">1e+4</text><text style="text-anchor: end; visibility: hidden; font-family: Roboto, sans-serif; font-size: 12px; font-weight: 200;" x="0" y="112.38181781768799" dx="0em" dy="0.3em" fill="rgb(33, 33, 33)" stroke="none" stroke-width="1px">1.5e+4</text><text style="text-anchor: end; visibility: inherit; font-family: Roboto, sans-serif; font-size: 12px; font-weight: 200;" x="0" y="96.32727241516112" dx="0em" dy="0.3em" fill="rgb(33, 33, 33)" stroke="none" stroke-width="1px">2e+4</text><text style="text-anchor: end; visibility: hidden; font-family: Roboto, sans-serif; font-size: 12px; font-weight: 200;" x="0" y="80.27272701263429" dx="0em" dy="0.3em" fill="rgb(33, 33, 33)" stroke="none" stroke-width="1px">2.5e+4</text><text style="text-anchor: end; visibility: inherit; font-family: Roboto, sans-serif; font-size: 12px; font-weight: 200;" x="0" y="64.21818161010742" dx="0em" dy="0.3em" fill="rgb(33, 33, 33)" stroke="none" stroke-width="1px">3e+4</text><text style="text-anchor: end; visibility: hidden; font-family: Roboto, sans-serif; font-size: 12px; font-weight: 200;" x="0" y="48.16363620758056" dx="0em" dy="0.3em" fill="rgb(33, 33, 33)" stroke="none" stroke-width="1px">3.5e+4</text><text style="text-anchor: end; visibility: inherit; font-family: Roboto, sans-serif; font-size: 12px; font-weight: 200;" x="0" y="32.109090805053704" dx="0em" dy="0.3em" fill="rgb(33, 33, 33)" stroke="none" stroke-width="1px">4e+4</text><text style="text-anchor: end; visibility: hidden; font-family: Roboto, sans-serif; font-size: 12px; font-weight: 200;" x="0" y="16.054545402526863" dx="0em" dy="0.3em" fill="rgb(33, 33, 33)" stroke="none" stroke-width="1px">4.5e+4</text><text style="text-anchor: end; visibility: hidden; font-family: Roboto, sans-serif; font-size: 12px; font-weight: 200;" x="0" y="0" dx="0em" dy="0.3em" fill="rgb(33, 33, 33)" stroke="none" stroke-width="1px">5e+4</text></g><line x1="72.29800224304199" y1="0" x2="72.29800224304199" y2="176.5999994277954" fill="rgb(0, 0, 0)" stroke="rgb(204, 204, 204)" stroke-width="1px"></line></g></g><g transform="translate(72, 0)" clip-path="url(#clip_0)"><clipPath id="clip_0"><rect width="257" height="176"></rect></clipPath><g><g><g><line x1="0" y1="0" x2="0" y2="176.5999994277954" fill="rgb(0, 0, 0)" stroke="rgb(66, 66, 66)" stroke-width="1px" opacity="0.25"></line><line x1="21.4751664797465" y1="0" x2="21.4751664797465" y2="176.5999994277954" fill="rgb(0, 0, 0)" stroke="rgb(66, 66, 66)" stroke-width="1px" opacity="0.25"></line><line x1="42.950332959493" y1="0" x2="42.950332959493" y2="176.5999994277954" fill="rgb(0, 0, 0)" stroke="rgb(66, 66, 66)" stroke-width="1px" opacity="0.25"></line><line x1="64.4254994392395" y1="0" x2="64.4254994392395" y2="176.5999994277954" fill="rgb(0, 0, 0)" stroke="rgb(66, 66, 66)" stroke-width="1px" opacity="0.25"></line><line x1="85.900665918986" y1="0" x2="85.900665918986" y2="176.5999994277954" fill="rgb(0, 0, 0)" stroke="rgb(66, 66, 66)" stroke-width="1px" opacity="0.25"></line><line x1="107.37583239873251" y1="0" x2="107.37583239873251" y2="176.5999994277954" fill="rgb(0, 0, 0)" stroke="rgb(66, 66, 66)" stroke-width="1px" opacity="0.25"></line><line x1="128.850998878479" y1="0" x2="128.850998878479" y2="176.5999994277954" fill="rgb(0, 0, 0)" stroke="rgb(66, 66, 66)" stroke-width="1px" opacity="0.25"></line><line x1="150.32616535822552" y1="0" x2="150.32616535822552" y2="176.5999994277954" fill="rgb(0, 0, 0)" stroke="rgb(66, 66, 66)" stroke-width="1px" opacity="0.25"></line><line x1="171.801331837972" y1="0" x2="171.801331837972" y2="176.5999994277954" fill="rgb(0, 0, 0)" stroke="rgb(66, 66, 66)" stroke-width="1px" opacity="0.25"></line><line x1="193.2764983177185" y1="0" x2="193.2764983177185" y2="176.5999994277954" fill="rgb(0, 0, 0)" stroke="rgb(66, 66, 66)" stroke-width="1px" opacity="0.25"></line><line x1="214.75166479746503" y1="0" x2="214.75166479746503" y2="176.5999994277954" fill="rgb(0, 0, 0)" stroke="rgb(66, 66, 66)" stroke-width="1px" opacity="0.25"></line><line x1="236.2268312772115" y1="0" x2="236.2268312772115" y2="176.5999994277954" fill="rgb(0, 0, 0)" stroke="rgb(66, 66, 66)" stroke-width="1px" opacity="0.25"></line><line x1="257.701997756958" y1="0" x2="257.701997756958" y2="176.5999994277954" fill="rgb(0, 0, 0)" stroke="rgb(66, 66, 66)" stroke-width="1px" opacity="0.25"></line></g><g><line x1="0" y1="176.5999994277954" x2="257.701997756958" y2="176.5999994277954" fill="rgb(0, 0, 0)" stroke="rgb(66, 66, 66)" stroke-width="1px" opacity="0.25"></line><line x1="0" y1="160.54545402526855" x2="257.701997756958" y2="160.54545402526855" fill="rgb(0, 0, 0)" stroke="rgb(66, 66, 66)" stroke-width="1px" opacity="0.25"></line><line x1="0" y1="144.4909086227417" x2="257.701997756958" y2="144.4909086227417" fill="rgb(0, 0, 0)" stroke="rgb(66, 66, 66)" stroke-width="1px" opacity="0.25"></line><line x1="0" y1="128.43636322021484" x2="257.701997756958" y2="128.43636322021484" fill="rgb(0, 0, 0)" stroke="rgb(66, 66, 66)" stroke-width="1px" opacity="0.25"></line><line x1="0" y1="112.38181781768799" x2="257.701997756958" y2="112.38181781768799" fill="rgb(0, 0, 0)" stroke="rgb(66, 66, 66)" stroke-width="1px" opacity="0.25"></line><line x1="0" y1="96.32727241516112" x2="257.701997756958" y2="96.32727241516112" fill="rgb(0, 0, 0)" stroke="rgb(66, 66, 66)" stroke-width="1px" opacity="0.25"></line><line x1="0" y1="80.27272701263429" x2="257.701997756958" y2="80.27272701263429" fill="rgb(0, 0, 0)" stroke="rgb(66, 66, 66)" stroke-width="1px" opacity="0.25"></line><line x1="0" y1="64.21818161010742" x2="257.701997756958" y2="64.21818161010742" fill="rgb(0, 0, 0)" stroke="rgb(66, 66, 66)" stroke-width="1px" opacity="0.25"></line><line x1="0" y1="48.16363620758056" x2="257.701997756958" y2="48.16363620758056" fill="rgb(0, 0, 0)" stroke="rgb(66, 66, 66)" stroke-width="1px" opacity="0.25"></line><line x1="0" y1="32.109090805053704" x2="257.701997756958" y2="32.109090805053704" fill="rgb(0, 0, 0)" stroke="rgb(66, 66, 66)" stroke-width="1px" opacity="0.25"></line><line x1="0" y1="16.054545402526863" x2="257.701997756958" y2="16.054545402526863" fill="rgb(0, 0, 0)" stroke="rgb(66, 66, 66)" stroke-width="1px" opacity="0.25"></line><line x1="0" y1="0" x2="257.701997756958" y2="0" fill="rgb(0, 0, 0)" stroke="rgb(66, 66, 66)" stroke-width="1px" opacity="0.25"></line></g></g></g><g><g><line x1="0" y1="160.54545402526855" x2="257.701997756958" y2="160.54545402526855" fill="rgb(0, 0, 0)" stroke="rgb(153, 153, 153)" stroke-width="1.5px"></line></g></g><g><g><line x1="21.4751664797465" y1="0" x2="21.4751664797465" y2="176.5999994277954" fill="rgb(0, 0, 0)" stroke="rgb(153, 153, 153)" stroke-width="1.5px"></line></g></g><g><g><g><g><g><path style="fill: none;" stroke="rgb(0, 153, 136)" stroke-width="2px" d="M21.689703392879167,160.54237938065333L21.904455057676632,160.54080574637314L22.1192067224741,160.5389435027263L22.33395838727156,160.53609002035162L22.54871005206903,160.53330576550567L22.76346171686649,160.5303030876362L22.97821338166396,160.527929595414L23.192965046461424,160.52588176618505L23.40771671125889,160.52295375436614L23.622468376056354,160.5199819074807L23.837220040853815,160.51782982792412L24.051971705651283,160.51602568622826L24.266723370448748,160.51366390870243L24.481475035246213,160.506695785844L24.696226700043677,160.50241049386474L24.910978364841146,160.49825774672857L25.125730029638607,160.49720761631272L25.340481694436075,160.49280901612346L25.555233359233537,160.48387533583744L25.769985024031005,160.4770674645993L25.98473668882847,160.47613870147347L26.19948835362593,160.47395348115072L26.4142400184234,160.4718495854937L26.62899168322086,160.463951483596L26.84374334801833,160.45507448141663L27.058495012815794,160.45373975569467L27.27324667761326,160.4469209924315L27.487998342410723,160.44031706282806L27.70275000720819,160.43039787206183L27.917501672005653,160.42890982387556L28.13225333680312,160.41471956963545L28.347005001600582,160.41113791302809L28.561756666398047,160.39727279892242L28.776508331195515,160.3913459459734L28.991259995992976,160.38160816813738L29.206011660790445,160.3710727568437L29.420763325587906,160.35923686746733L29.635514990385374,160.3491976904492L29.85026665518284,160.33427425848686L30.065018319980304,160.32563473817382L30.27976998477777,160.31685118462423L30.494521649575233,160.28842000413024L30.709273314372698,160.26365608929672L30.924024979170163,160.24759576485954L31.138776643967628,160.23170269855584L31.353528308765092,160.19935838526735L31.56827997356256,160.1646028636096L31.783031638360022,160.13228619523156L31.99778330315749,160.11615657248518L32.21253496795495,160.09079972905187L32.42728663275242,160.0745147302931L32.64203829754989,160.06570675012213L32.85678996234735,160.05828697509662L33.07154162714481,160.04923002494516L33.28629329194228,160.03326037920297L33.50104495673974,159.97314978616413L33.71579662153721,159.93679683604407L33.93054828633468,159.91089151775634L34.14529995113214,159.8672960209269L34.3600516159296,159.828129543962L34.574803280727075,159.77410606266326L34.789554945524536,159.7491552441307L35.004306610322,159.73236602004837L35.21905827511946,159.7065162156065L35.43380993991693,159.6785511931073L35.648561604714395,159.64128354667528L35.863313269511856,159.60974243405929L36.078064934309324,159.58545937647023L36.292816599106786,159.5352880603224L36.507568263904254,159.45095328326434L36.72231992870172,159.35309126065144L36.937071593499184,159.26341695081308L37.151823258296645,159.16523271640247L37.36657492309412,159.06177373978838L37.58132658789158,158.994331479886L37.79607825268904,158.91368213012723L38.010829917486504,158.8167045614242L38.22558158228397,158.60103702960365L38.44033324708144,158.44495342829808L38.6550849118789,158.25686852161482L38.86983657667637,158.03535880190185L39.08458824147383,157.77101701927583L39.2993399062713,157.53217443526762L39.51409157106877,157.2895621420704L39.72884323586623,157.03568535318047L39.94359490066369,156.7627709510872L40.15834656546116,156.42069745289243L40.37309823025863,156.0019515012463L40.58784989505609,155.5326041425704L40.80260155985355,155.04366373505346L41.01735322465102,154.48143047323384L41.232104889448486,154.07305957422872L41.44685655424595,153.53625526335026L41.661608219043416,153.20282661946376L41.87635988384088,152.85125079664442L42.091111548638345,152.53144950895685L42.30586321343581,151.67025083534315L42.520614878233275,151.31861247637832L42.735366543030736,150.56687977786706L42.950118207828204,149.9897911701896L43.16486987262567,149.31817214038225L43.379621537423134,148.72706722285108L43.594373202220595,147.76149029927672L43.80912486701806,146.83376186534704L44.02387653181553,145.8806534345965L44.23862819661299,144.47182072616963L44.45337986141046,143.70568268969322L44.66813152620792,142.6709055285667L44.882883191005384,141.62637942040283L45.09763485580286,139.3716332983923L45.31238652060032,137.86562564131927L45.52713818539778,136.24653886998976L45.74188985019525,133.84145510282465L45.95664151499272,132.52590051327243L46.17139317979018,130.72588947757444L46.38614484458764,129.46824209800474L46.60089650938511,127.86221474884945L46.81564817418257,126.35374364510963L47.03039983898004,124.34730804240728L47.24515150377751,121.96215260751731L47.45990316857497,119.75397131455628L47.67465483337243,116.98323641483317L47.889406498169905,114.68361137600698L48.104158162967366,112.04710167991436L48.31890982776483,109.86088729260878L48.533661492562295,107.9065016371236L48.748413157359764,104.86308888031425L48.963164822157225,102.95636006236134L49.177916486954686,100.11556789862456L49.392668151752154,97.35815462659242L49.607419816549616,95.3830494897532L49.822171481347084,94.81225444519376L50.03692314614455,93.47972129448641L50.25167481094201,91.62279769693764L50.466426475739475,90.92920069559413L50.68117814053695,89.9177431116237L50.89592980533441,87.5147633038728L51.11068147013187,84.99290398660308L51.325433134929334,84.31218696737658L51.5401847997268,82.65528546213349L51.75493646452427,83.13270852056327L51.96968812932173,82.06429814956316L52.1844397941192,79.71353205647405L52.39919145891666,77.10420211192071L52.61394312371413,75.62760482901466L52.8286947885116,73.08896034231513L53.04344645330906,71.14033809501842L53.25819811810652,70.93471053995538L53.472949782903996,66.06261316598766L53.68770144770146,64.47504512722618L53.90245311249892,64.21880513611394L54.11720477729638,62.69825101396399L54.33195644209385,61.72682391005246L54.546708106891316,58.71283753530719L54.76145977168878,58.30951642758483L54.976211436486246,54.96841561226657L55.19096310128371,55.20730019773661L55.405714766081175,53.975202518451276L55.62046643087864,51.55966893363317L55.835218095676105,48.71143059147329L56.049969760473566,46.04979100705471L56.264721425271034,43.48902597444053L56.4794730900685,43.15905303368967L56.694224754865964,39.19642600273214L56.908976419663425,34.74550277984338L57.12372808446089,33.84191940030925L57.33847974925836,30.204796495897178L57.55323141405582,27.53686959203876L57.76798307885329,28.035792097351717L57.98273474365075,27.225172443590036L58.19748640844822,23.770053704106303L58.41223807324569,26.597804538151074L58.62698973804315,25.506062667958602L58.84174140284061,20.162205748789436L59.05649306763808,21.00270794971991L59.27124473243555,21.539421208063022L59.48599639723301,19.084311778629026L59.70074806203047,17.80490042604521L59.91549972682794,18.29174033056167L60.13025139162541,15.831497834430973L60.34500305642287,16.766956512777316L60.55975472122034,16.8198631253214L60.7745063860178,18.42141339041825L60.98925805081526,19.865649883217586L61.204009715612735,16.18986263004245L61.418761380410196,12.62903068746641L61.63351304520766,14.690968935676482L61.848264710005125,12.205774215255241L62.063016374802594,11.240917603216275L62.277768039600055,11.53891474477765L62.492519704397516,10.61951132257361L62.707271369194984,11.552178769746163L62.922023033992446,13.798715353304527L63.136774698789914,12.021289711278998L63.35152636358738,15.525746658969208L63.56627802838484,16.77786617101186L63.781029693182305,15.499417478374808L63.99578135797978,16.618839094028793L64.21053302277724,19.141323949462326L64.4252846875747,21.544312375175352L64.64003635237218,21.527991332254658L64.85478801716962,21.95023593684861L65.0695396819671,21.160488286108947L65.28429134676456,21.943828104113823L65.49904301156202,22.34286155584624L65.7137946763595,26.514210924068994L65.92854634115696,26.181527379401313L66.14329800595442,25.158963111458938L66.3580496707519,25.045613424935336L66.57280133554936,25.836247945588216L66.78755300034682,26.23597719638746L67.00230466514428,28.290737690837144L67.21705632994176,30.7161566122735L67.43180799473922,31.529535409324023L67.64655965953668,32.416247789949736L67.86131132433415,31.096533871479348L68.0760629891316,31.806193296323723L68.29081465392908,35.052832452519255L68.50556631872655,35.49603769070521L68.720317983524,38.134463814194916L68.93506964832147,37.93812640228007L69.14982131311893,39.922461908991615L69.3645729779164,41.340374246728395L69.57932464271387,41.71901415629817L69.79407630751132,41.80630601362989L70.0088279723088,40.889550056669215L70.22357963710627,40.75651254199631L70.43833130190372,40.71798573174253L70.65308296670119,43.85135087413944L70.86783463149865,47.11647350974731L71.08258629629611,48.79029381445553L71.29733796109359,51.93336044300189L71.51208962589105,51.777311951934934L71.72684129068851,52.05794073731305L71.94159295548599,52.70457546027051L72.15634462028345,54.790013469351024L72.37109628508091,55.73066401249597L72.58584794987837,56.6711894449823L72.80059961467585,59.272704600321006L73.01535127947331,62.17223320915646L73.23010294427077,63.503770319596775L73.44485460906824,65.39998453224516L73.65960627386569,68.83640975694009L73.87435793866317,69.46006233136694L74.08910960346063,70.7745402462205L74.30386126825809,68.9913978358677L74.51861293305556,69.26219302424508L74.73336459785301,72.79706289146826L74.94811626265049,72.5194227100818L75.16286792744796,73.77801877892499L75.37761959224541,76.36878440443573L75.59237125704288,77.35027481178878L75.80712292184036,78.2746324525612L76.02187458663781,80.27702554830311L76.23662625143528,77.72150135512857L76.45137791623274,79.58336737571622L76.6661295810302,80.21908448472539L76.88088124582768,83.03870998262646L77.09563291062514,83.40298801349621L77.3103845754226,84.6163590133298L77.52513624022006,85.28754823462164L77.73988790501754,87.70380957715685L77.954639569815,88.21427053647605L78.16939123461246,89.0738686078671L78.38414289940994,89.02011178471182L78.5988945642074,89.54816901467818L78.81364622900486,91.32250159114602L79.02839789380234,93.7078341889635L79.24314955859978,95.03722478471809L79.45790122339726,97.59983670958952L79.67265288819472,97.91287711591036L79.88740455299218,98.16308743670639L80.10215621778966,100.04571310124412L80.3169078825871,102.26940164191288L80.53165954738458,103.15041924156183L80.74641121218205,104.4044047591323L80.9611628769795,105.81853183947082L81.17591454177698,105.97630154879941L81.39066620657444,107.7610478073373L81.6054178713719,108.47785108422701L81.82016953616937,109.60738176785745L82.03492120096683,112.0127466103221L82.2496728657643,113.01895867831965L82.46442453056177,114.4768466260567L82.67917619535923,115.5117649541323L82.8939278601567,116.91060740380549L83.10867952495416,117.69909695126287L83.32343118975163,119.06912138654948L83.53818285454909,120.21676194242404L83.75293451934655,121.4779807176881L83.96768618414403,122.59783871339236L84.18243784894148,123.97098033710259L84.39718951373895,125.01491194448626L84.61194117853643,126.08250635250934L84.82669284333387,126.75117194771036L85.04144450813135,128.01502280290146L85.25619617292881,128.33749581385936L85.47094783772627,128.92512985437008L85.68569950252375,129.69718984787414L85.9004511673212,130.54091782560963L86.11520283211867,131.59947590825976L86.32995449691614,131.87319893447545L86.54470616171359,132.34265334895466L86.75945782651107,133.4597556373683L86.97420949130853,134.25264188959056L87.18896115610599,134.6556196296889L87.40371282090346,135.23491876092098L87.61846448570093,136.05039818656994L87.83321615049839,136.661603072393L88.04796781529586,137.93924025264377L88.26271948009332,138.43833743390834L88.47747114489079,139.32922981724187L88.69222280968825,139.63365970179407L88.90697447448572,140.10535845422217L89.12172613928318,140.85716965949683L89.33647780408064,141.18663549711204L89.55122946887812,141.82755990923434L89.76598113367557,142.3174380171313L89.98073279847304,142.67536601243677L90.1954844632705,143.30533807979785L90.41023612806796,144.00581145393073L90.62498779286544,144.50335793042927L90.83973945766289,145.136621795525L91.05449112246036,145.70809764094258L91.26924278725784,146.37497670615684L91.48399445205528,146.70577188157029L91.69874611685276,147.16967565974971L91.91349778165024,147.6096783262462L92.12824944644768,148.04540412980424L92.34300111124516,148.4482354960189L92.55775277604262,148.90053111839887L92.77250444084008,149.2907466906072L92.98725610563756,149.7304789396864L93.20200777043502,150.35948644490523L93.41675943523248,150.42290075448255L93.63151110002994,150.66806215392918L93.84626276482742,150.85880484807782L94.06101442962488,151.4459577628197L94.27576609442234,151.8563950797129L94.49051775921981,152.08242213473093L94.70526942401727,152.26919023185107L94.92002108881474,152.6718029989434L95.13477275361221,152.83882331494857L95.34952441840966,153.1333736076254L95.56427608320713,153.37751404939206L95.7790277480046,153.68441474353045L95.99377941280206,153.91665745291473L96.20853107759953,154.0579396093803L96.42328274239698,154.36346066658174L96.63803440719445,154.501828068173L96.85278607199193,154.59935781095533L97.06753773678938,154.81427592309697L97.28228940158685,154.9699672578558L97.49704106638431,155.17447752755228L97.71179273118177,155.36387727642898L97.92654439597925,155.53148470207626L98.14129606077671,155.68579427436444L98.35604772557417,155.83496565680983L98.57079939037165,155.97364104279936L98.78555105516911,156.13574165336058L99.00030271996657,156.196894788516L99.21505438476403,156.34302459018187L99.4298060495615,156.43821591311902L99.64455771435897,156.58637470507776L99.85930937915643,156.70054067189753L100.0740610439539,156.72813008005915L100.28881270875135,156.8686591056276L100.50356437354883,156.91626049199726L100.7183160383463,157.01360227548372L100.93306770314375,157.1601658351736L101.14781936794122,157.21647228024648L101.36257103273869,157.2732771164425L101.57732269753615,157.37198233172887L101.79207436233362,157.41766232704165L102.00682602713107,157.51531813066669L102.22157769192854,157.5360406009455L102.43632935672602,157.61529256706672L102.65108102152347,157.69884784666328L102.86583268632094,157.77473823441812L103.0805843511184,157.8315704479105L103.29533601591586,157.8557040942618L103.51008768071334,157.9726210795635L103.7248393455108,158.05333392175265L103.93959101030826,158.15697271224525L104.15434267510574,158.2641783952176L104.3690943399032,158.3926878159687L104.58384600470066,158.46060952309278L104.79859766949812,158.52206932950938L105.0133493342956,158.64639810069085L105.22810099909306,158.74815763098974L105.44285266389052,158.82689532475098L105.657604328688,158.88271659217668L105.87235599348544,158.94107002257675L106.08710765828292,158.98555185177614L106.30185932308038,159.0133513505612L106.51661098787784,159.08346569412967L106.73136265267532,159.1040123035545L106.94611431747276,159.1729408993405L107.16086598227024,159.2217812106266L107.37561764706771,159.2653263908377L107.59036931186516,159.28742388427995L107.80512097666264,159.3344952392235L108.01987264146011,159.34804347966178L108.23462430625756,159.35807787490478L108.44937597105503,159.37321405453937L108.6641276358525,159.3961942889833L108.87887930064996,159.4230875031888L109.09363096544743,159.4715475477214L109.30838263024489,159.5234038006346L109.52313429504235,159.5509632878292L109.73788595983982,159.60301786554695L109.95263762463729,159.64618961001378L110.16738928943475,159.66129994736718L110.38214095423221,159.69697735561226L110.59689261902969,159.7254625562786L110.81164428382715,159.75769167924997L111.02639594862461,159.7547371943728L111.24114761342209,159.7885144028295L111.45589927821953,159.82898997467152L111.67065094301701,159.86746880765804L111.88540260781447,159.89215878015057L112.10015427261193,159.89605582647764L112.3149059374094,159.9166288718967L112.52965760220685,159.94303971533753L112.74440926700433,159.96117834859595L112.9591609318018,159.985826518875L113.17391259659925,160.0024553390216L113.38866426139673,160.02478723473143L113.60341592619419,160.03711051331345L113.81816759099165,160.05163298945763L114.03291925578912,160.06184853959138L114.24767092058659,160.054212779066L114.46242258538405,160.0560073988583L114.67717425018152,160.06965739557808L114.89192591497898,160.08444495195124L115.10667757977644,160.09065091361077L115.3214292445739,160.09452279014184L115.53618090937138,160.09883880627754L115.75093257416884,160.11672022541265L115.9656842389663,160.12480725714204L116.18043590376378,160.1249646456519L116.39518756856123,160.12024799053532L116.6099392333587,160.11904892029557L116.82469089815618,160.11467826918408L117.03944256295362,160.10959340266348L117.2541942277511,160.08955728270323L117.46894589254856,160.06476021792906L117.68369755734602,160.0210628110601L117.8984492221435,159.96948336503328L118.11320088694094,159.91042184931842L118.32795255173842,159.83760504807316L118.5427042165359,159.750387576631L118.75745588133334,159.66812501710922L118.97220754613082,159.56566543296722L119.18695921092828,159.46613720511928L119.40171087572574,159.38327022106256L119.61646254052322,159.28496159301625L119.83121420532068,159.16287338758607L120.04596587011814,159.04691972977312L120.26071753491561,158.96206468622086L120.47546919971307,158.8586781564657L120.69022086451054,158.78021319631966L120.904972529308,158.6777837181662L121.11972419410547,158.54753927540398L121.33447585890293,158.43883621943326L121.5492275237004,158.3370451913418L121.76397918849787,158.22996468384875L121.97873085329532,158.1509883913802L122.1934825180928,158.12641900944647L122.40823418289025,158.09779596633086L122.62298584768772,158.0354139329784L122.83773751248519,157.93517005526104L123.05248917728264,157.8880647194927L123.26724084208011,157.83021173223776L123.48199250687759,157.75033783228875L123.69674417167504,157.72377572126396L123.91149583647251,157.67654569379428L124.12624750126999,157.64341835228998L124.34099916606743,157.60656819573936L124.55575083086491,157.5829426881557L124.77050249566237,157.50655191921572L124.98525416045983,157.47440760683745L125.2000058252573,157.42890739905323L125.41475749005477,157.43780519539217L125.62950915485223,157.38724159875463L125.84426081964969,157.35410361391024L126.05901248444717,157.33395742656455L126.27376414924463,157.30171106756055L126.48851581404209,157.2765990422337L126.70326747883956,157.27707973942154L126.91801914363703,157.20374434104525L127.13277080843449,157.1562862184194L127.34752247323196,157.1382184200057L127.56227413802941,157.14767432235493L127.77702580282688,157.11002621465778L127.99177746762435,157.0628948490275L128.20652913242182,157.01639848187133L128.42128079721928,156.9698555731909L128.63603246201674,156.91459045528936L128.8507841268142,156.88678621611737L129.06553579161167,156.86862262341714L129.28028745640916,156.86679530026336L129.49503912120662,156.92144305883485L129.70979078600405,156.9304701210956L129.92454245080154,156.88994039472726L130.139294115599,156.82936158176358L130.35404578039646,156.85247060413658L130.56879744519392,156.88411659152362L130.78354910999138,156.8738935722444L130.99830077478885,156.88143928274667L131.2130524395863,156.91587083889382L131.4278041043838,156.87041070389895L131.64255576918126,156.7668898346682L131.85730743397872,156.74421975334653L132.07205909877618,156.80052551102386L132.28681076357364,156.81097633460737L132.5015624283711,156.8960253550865L132.7163140931686,156.8223026220001L132.93106575796605,156.84266532474481L133.1458174227635,156.8248316604354L133.36056908756095,156.84575146360396L133.57532075235844,156.79442112906887L133.7900724171559,156.7899855262724L134.00482408195336,156.86897159623584L134.21957574675085,156.92348339372975L134.4343274115483,156.89159405862077L134.64907907634574,156.92240504010252L134.86383074114323,156.96888314677258L135.0785824059407,156.9351907718979L135.29333407073815,157.00762701145777L135.50808573553564,157.06281219900418L135.7228374003331,157.12314745419127L135.93758906513054,157.17109507697657L136.152340729928,157.2686552912683L136.3670923947255,157.22751429813758L136.58184405952295,157.2894142554565L136.7965957243204,157.30612678129896L137.01134738911787,157.33920787199963L137.22609905391533,157.46487615585983L137.4408507187128,157.53776537314764L137.65560238351028,157.58597531794456L137.87035404830775,157.7064584560451L138.0851057131052,157.77350896919518L138.29985737790267,157.8534722884989L138.51460904270013,157.93488583908243L138.7293607074976,158.009979316724L138.94411237229505,158.07266049313813L139.15886403709254,158.10095792599506L139.37361570189,158.18222087133606L139.58836736668744,158.23696823403412L139.80311903148493,158.28054956812971L140.0178706962824,158.36052669292158L140.23262236107985,158.41291627409592L140.44737402587734,158.47434048300624L140.6621256906748,158.5377341385294L140.87687735547223,158.62278636865608L141.0916290202697,158.69334600404542L141.30638068506718,158.74346451355817L141.52113234986464,158.77862533134947L141.7358840146621,158.83643108320916L141.95063567945957,158.90961792422257L142.16538734425703,158.96407493819535L142.3801390090545,158.98830126985087L142.59489067385198,159.04275889077005L142.80964233864944,159.08589426631536L143.0243940034469,159.13663069016764L143.23914566824436,159.1709465626682L143.45389733304182,159.22373428184898L143.66864899783928,159.27340283458875L143.88340066263675,159.287921379277L144.09815232743424,159.34327626739835L144.3129039922317,159.37639119606456L144.52765565702913,159.43604049833172L144.74240732182662,159.47763173672956L144.95715898662408,159.5189943800539L145.17191065142154,159.54795695575305L145.38666231621903,159.59538806640464L145.6014139810165,159.62693334111054L145.81616564581392,159.65333363300394L146.03091731061141,159.69036625903414L146.24566897540888,159.72952494216935L146.46042064020634,159.74389067889365L146.6751723050038,159.78456182640605L146.88992396980126,159.79047688047748L147.10467563459872,159.82527516574703L147.31942729939618,159.85644208426837L147.53417896419367,159.8871940689401L147.74893062899113,159.8960561562513L147.9636822937886,159.92069757740833L148.17843395858606,159.93663944439322L148.39318562338352,159.95906788875547L148.60793728818098,159.98761903004186L148.82268895297847,160.013336963858L149.03744061777593,160.03905087220681L149.2521922825734,160.054806713146L149.46694394737082,160.0772697821944L149.6816956121683,160.09245066218028L149.89644727696577,160.11043360493622L150.11119894176323,160.1259297452702L150.32595060656072,160.14271068314687L150.54070227135819,160.1455502661851L150.75545393615562,160.15106965132745L150.9702056009531,160.13684004008923L151.18495726575057,160.1163419571629L151.39970893054803,160.1069880203511L151.61446059534552,160.09334283182585L151.82921226014298,160.0841606679385L152.0439639249404,160.065723023479L152.25871558973788,160.05642620112883L152.47346725453536,160.0370520456777L152.68821891933283,160.02767378132228L152.9029705841303,160.02655006874306L153.11772224892775,160.02394969314543L153.3324739137252,160.03164716347635L153.54722557852267,160.0234181152183L153.76197724332016,160.03243235153693L153.97672890811762,160.03453252756236L154.19148057291508,160.0157663464275L154.40623223771254,160.0178728148164L154.62098390251,160.0111353305305L154.83573556730747,160.01292678309758L155.05048723210493,160.01741230775676L155.26523889690242,160.02645114961888L155.47999056169988,160.02442586246522L155.6947422264973,160.02450676390686L155.9094938912948,160.03069175135334L156.12424555609226,160.03510090867073L156.33899722088972,160.03979245363703L156.5537488856872,160.0500131021313L156.76850055048467,160.0670430795051L156.9832522152821,160.07600284556565L157.19800388007957,160.0902900614672L157.41275554487706,160.10480464100772L157.62750720967452,160.1193755481386L157.84225887447198,160.13620916901255L158.05701053926944,160.14344761447677L158.2717622040669,160.14554055358832L158.48651386886436,160.15022448541197L158.70126553366185,160.1740536633931L158.91601719845931,160.18884757360186L159.13076886325678,160.2047269744331L159.34552052805424,160.21147564922006L159.5602721928517,160.22332479467283L159.77502385764916,160.23996840292634L159.98977552244662,160.25254072270914L160.2045271872441,160.26393527328315L160.41927885204157,160.27073810968935L160.634030516839,160.27395389341999L160.8487821816365,160.27355889393266L161.06353384643396,160.26163537668575L161.27828551123142,160.2609013159503L161.4930371760289,160.26006209311404L161.70778884082637,160.26136542686922L161.9225405056238,160.26331483664606L162.1372921704213,160.26130134621297L162.35204383521875,160.2721308520717L162.5667955000162,160.2803475134618L162.78154716481367,160.28127093898888L162.99629882961113,160.28390968449253L163.2110504944086,160.2867711113462L163.42580215920606,160.291972539918L163.64055382400355,160.29711197233968L163.855305488801,160.30178074838332L164.07005715359847,160.305550511278L164.28480881839593,160.31124330729176L164.4995604831934,160.3191891746071L164.71431214799085,160.3263727402607L164.92906381278834,160.33515492487157L165.1438154775858,160.34294128898512L165.35856714238327,160.35110259684743L165.5733188071807,160.35605325810488L165.7880704719782,160.36245351898378L166.00282213677565,160.36948485453954L166.2175738015731,160.3689753747696L166.4323254663706,160.37612588171618L166.64707713116806,160.38317831773676L166.8618287959655,160.38896507984623L167.07658046076298,160.39419887202806L167.29133212556044,160.39867795024225L167.5060837903579,160.40207879372736L167.7208354551554,160.4078051123351L167.93558711995286,160.41300830290317L168.1503387847503,160.41667459411212L168.36509044954775,160.4213288484732L168.57984211434524,160.4245702995849L168.7945937791427,160.4270631195655L169.00934544394016,160.43137807140567L169.22409710873762,160.4340618700621L169.43884877353509,160.4379790686217L169.65360043833255,160.4391481495361L169.86835210313004,160.44206808811563L170.0831037679275,160.4457327574087L170.29785543272496,160.44669505876058L170.51260709752242,160.4486848368207L170.72735876231988,160.4509246114221L170.94211042711734,160.45088966557566L171.1568620919148,160.45191843389287L171.3716137567123,160.45474290181497L171.58636542150975,160.45555372099156L171.8011170863072,160.45784460375836L172.01586875110468,160.45813241028807L172.23062041590214,160.45912893448585L172.4453720806996,160.46100232356406L172.6601237454971,160.46200322290252L172.87487541029455,160.46312083934495L173.08962707509198,160.4643171580422L173.30437873988944,160.46574474228981L173.51913040468693,160.46512841855258L173.7338820694844,160.46524398621293L173.94863373428186,160.46648911265498L174.16338539907932,160.46625589559196L174.37813706387678,160.46684666021804L174.59288872867424,160.4674020715416L174.80764039347173,160.4656611306754L175.0223920582692,160.46575708577734L175.23714372306665,160.4655139936144L175.4518953878641,160.46610743119186L175.66664705266157,160.46555997294413L175.88139871745904,160.46500231502608L176.0961503822565,160.4649342847986L176.310902047054,160.46476488625038L176.52565371185145,160.4634837637917L176.74040537664888,160.46123763538907L176.95515704144637,160.45907269024872L177.16990870624383,160.45536019175674L177.3846603710413,160.4516929730807L177.59941203583878,160.44634930151906L177.81416370063624,160.44074807352195L178.02891536543368,160.43073188141153L178.24366703023117,160.425930449236L178.45841869502863,160.42548944190955L178.6731703598261,160.42478055320817L178.88792202462355,160.42329179287205L179.102673689421,160.4248718962469L179.31742535421847,160.42655469156418L179.53217701901593,160.42552173365345L179.74692868381342,160.4239655219487L179.96168034861088,160.42604644705543L180.17643201340834,160.42861250621306L180.3911836782058,160.43102098072973L180.60593534300327,160.43331743918043L180.82068700780073,160.43520546109468L181.03543867259822,160.43747218230266L181.25019033739568,160.43957762088584L181.46494200219314,160.44035025725424L181.67969366699057,160.4437206775458L181.89444533178806,160.44579243939174L182.10919699658552,160.44650329064675L182.32394866138299,160.44599363024582L182.53870032618048,160.4455131339435L182.75345199097794,160.4463293271438L182.96820365577537,160.44464765791287L183.18295532057286,160.44172792320518L183.39770698537032,160.44019662161472L183.61245865016778,160.43813100720556L183.82721031496527,160.43571880810288L184.04196197976273,160.4356609261118L184.25671364456016,160.43475623785073L184.47146530935763,160.43178604145393L184.68621697415512,160.43199342511346L184.90096863895258,160.43024911648774L185.11572030375004,160.42849662645312L185.3304719685475,160.42959409314648L185.54522363334496,160.43000792855486L185.75997529814242,160.42988416545663L185.9747269629399,160.43384947010185L186.18947862773737,160.4360178368321L186.40423029253483,160.4369078231614L186.6189819573323,160.43765706525707L186.83373362212976,160.43875219716196L187.04848528692722,160.43781542099865L187.26323695172468,160.4390076419726L187.47798861652217,160.43691534582604L187.69274028131963,160.43447760984677L187.90749194611706,160.4329113720231L188.12224361091455,160.4313608646004L188.336995275712,160.43053760590266L188.55174694050947,160.431527179212L188.76649860530696,160.43089032726064L188.98125027010443,160.4322095416137L189.19600193490186,160.43251581529805L189.41075359969932,160.43280628162196L189.6255052644968,160.4330508322851L189.84025692929427,160.43555409569126L190.05500859409173,160.43668421820715L190.2697602588892,160.43483614098295L190.48451192368665,160.4339988198848L190.69926358848411,160.43210234929066L190.9140152532816,160.43141140033785L191.12876691807907,160.43135135276347L191.34351858287653,160.4314074918887L191.558270247674,160.43269712775262L191.77302191247145,160.435042665419L191.9877735772689,160.4324396137939L192.20252524206637,160.43511185928205L192.41727690686386,160.4371377397933L192.63202857166132,160.43773061621374L192.84678023645876,160.44038224035359L193.06153190125625,160.44123213142626L193.2762835660537,160.44359957332748L193.49103523085117,160.44430133917754L193.70578689564866,160.44589268293862L193.92053856044612,160.44558854511052L194.13529022524355,160.44589743933486L194.35004189004104,160.4452103553765L194.5647935548385,160.44374370801873L194.77954521963596,160.4442613757435L194.99429688443342,160.4438478823806L195.20904854923089,160.44309439181313L195.42380021402835,160.4430722182552L195.6385518788258,160.44435695266426L195.8533035436233,160.44636284725095L196.06805520842076,160.44619036643866L196.28280687321822,160.44598973363867L196.49755853801568,160.4477418302131L196.71231020281314,160.448515127431L196.9270618676106,160.45027114630926L197.1418135324081,160.4506044559763L197.35656519720555,160.4521301077453L197.57131686200302,160.4526287576529L197.78606852680045,160.45335514023276L198.00082019159794,160.453535095788L198.2155718563954,160.45479040928868L198.43032352119286,160.45609986327838L198.64507518599035,160.45627182098067L198.8598268507878,160.45614318976678L199.07457851558524,160.4556451128512L199.28933018038273,160.4560433167339L199.5040818451802,160.45906093392372L199.71883350997766,160.46027792952245L199.93358517477515,160.4609990997785L200.1483368395726,160.46237333832812L200.36308850437004,160.46308669103874L200.5778401691675,160.46432684010733L200.792591833965,160.46335653395496L201.00734349876245,160.4654918375285L201.2220951635599,160.46699955412763L201.43684682835737,160.46779296150723L201.65159849315484,160.46773722755626L201.8663501579523,160.46796611591668L202.0811018227498,160.46716196123293L202.29585348754725,160.46703595415406L202.5106051523447,160.46664453343928L202.72535681714217,160.46802801685564L202.94010848193963,160.46916233977004L203.1548601467371,160.469544822355L203.36961181153455,160.4703906772983L203.58436347633204,160.47184292102602L203.7991151411295,160.47264960081105L204.01386680592694,160.47396315360325L204.22861847072443,160.47433649260017L204.4433701355219,160.47380856146665L204.65812180031935,160.47352707231525L204.87287346511684,160.4721162071532L205.0876251299143,160.47242117495324L205.30237679471173,160.47339142776366L205.5171284595092,160.47467190554667L205.73188012430668,160.473470967225L205.94663178910415,160.473441923306L206.1613834539016,160.47284590105912L206.37613511869907,160.4735788710121L206.59088678349653,160.47330842600863L206.805638448294,160.47315371009245L207.02039011309148,160.47312518650608L207.23514177788894,160.47370658722426L207.4498934426864,160.47278034121922L207.66464510748386,160.47213143218622L207.87939677228132,160.4735487228169L208.0941484370788,160.47237315271744L208.30890010187625,160.4723866934623L208.52365176667374,160.4728384381218L208.7384034314712,160.4727685051265L208.95315509626863,160.47155454968143L209.16790676106612,160.4708801418482L209.38265842586358,160.47111059364673L209.59741009066104,160.46834888010645L209.81216175545853,160.46723895632127L210.026913420256,160.46779765098876L210.24166508505343,160.46886767942604L210.45641674985092,160.46922121371873L210.67116841464838,160.46898884105076L210.88592007944584,160.4708158878645L211.1006717442433,160.4715571763146L211.31542340904076,160.47285822658841L211.53017507383822,160.47458954258536L211.74492673863568,160.47529365027654L211.95967840343317,160.47585922815117L212.17443006823063,160.47588965232606L212.3891817330281,160.47702526845544L212.60393339782556,160.47622057752656L212.81868506262302,160.476526560304L213.03343672742048,160.4770898933902L213.24818839221797,160.47609938416025L213.46294005701543,160.4762392885977L213.6776917218129,160.4769961903297L213.89244338661032,160.4773247110337L214.1071950514078,160.47727811699775L214.32194671620528,160.47741160259386L214.53669838100274,160.47827967749657L214.75145004580023,160.4788595709324L214.9662017105977,160.47881777338023L215.18095337539512,160.47895750302231L215.3957050401926,160.479204519138L215.61045670499007,160.47917055667784L215.82520836978753,160.47944583027896L216.03996003458502,160.4802037402259L216.25471169938248,160.48040695911632L216.46946336417992,160.48028394112185L216.68421502897738,160.48013693634724L216.89896669377487,160.47836511490232L217.11371835857233,160.47823686326842L217.3284700233698,160.4779445255339L217.54322168816725,160.4780492385458L217.7579733529647,160.47813671172105L217.97272501776217,160.4785702913204L218.18747668255966,160.47769570286377L218.40222834735712,160.47683780776282L218.61698001215458,160.4771168393269L218.83173167695205,160.47708988965636L219.0464833417495,160.4777314238495L219.26123500654697,160.47785113405163L219.47598667134443,160.4778841426005L219.69073833614192,160.4784700982146L219.90549000093938,160.47864192367817L220.1202416657368,160.47872326320237L220.3349933305343,160.47966279261308L220.54974499533176,160.48064995515625L220.76449666012923,160.48089775486832L220.97924832492671,160.48066567152895L221.19399998972418,160.48051738037614L221.4087516545216,160.48111398142015L221.62350331931907,160.48215328648172L221.83825498411656,160.4812022769304L222.05300664891402,160.4813336569959L222.26775831371148,160.48266389757723L222.48250997850894,160.48159560933212L222.6972616433064,160.48226577839154L222.91201330810387,160.4829273054788L223.12676497290136,160.48234234375545L223.34151663769882,160.48182765191626L223.55626830249628,160.48209436075075L223.77101996729374,160.4808827362555L223.9857716320912,160.48081870959447L224.20052329688866,160.48091037362178L224.41527496168612,160.4803704016604L224.6300266264836,160.47967330337153L224.84477829128107,160.4786121037224L225.0595299560785,160.47835231245406L225.274281620876,160.47870512691793L225.48903328567346,160.4789528458811L225.70378495047092,160.47912500737706L225.9185366152684,160.47939415719722L226.13328828006587,160.4795801537946L226.3480399448633,160.47845486282947L226.5627916096608,160.4799629331294L226.77754327445825,160.48042110488132L226.99229493925571,160.47979235159784L227.20704660405318,160.47969957817614L227.42179826885064,160.48008915564782L227.6365499336481,160.48007232363543L227.85130159844556,160.48038056259077L228.06605326324305,160.47940792229838L228.2808049280405,160.4803982034442L228.49555659283797,160.48010709073313L228.71030825763543,160.47972044698452L228.9250599224329,160.47936493866663L229.13981158723035,160.47939229312664L229.35456325202784,160.479202811608L229.5693149168253,160.47806298602876L229.78406658162277,160.47801329673982L229.9988182464202,160.47710280253168L230.2135699112177,160.47793138278905L230.42832157601515,160.47895088837342L230.6430732408126,160.47979066554396L230.8578249056101,160.47933938564802L231.07257657040756,160.47962338768298L231.287328235205,160.48180020508417L231.50207990000249,160.4815596627111L231.71683156479995,160.48100359835672L231.9315832295974,160.48177292331363L232.1463348943949,160.4839633460398L232.36108655919236,160.48468147346276L232.5758382239898,160.48535398171796L232.79058988878725,160.48543862673466L233.00534155358474,160.4857157627497L233.2200932183822,160.4852970070058L233.43484488317966,160.48571460209666L233.64959654797713,160.48752291418893L233.8643482127746,160.48826938348256L234.07909987757205,160.4885553208203L234.29385154236954,160.48798288185034L234.508603207167,160.48790223184417L234.72335487196446,160.48576828225973L234.93810653676192,160.48554515752858L235.15285820155938,160.48597022202839L235.36760986635684,160.48544760515873L235.5823615311543,160.48526849132227L235.7971131959518,160.48444020451947L236.01186486074926,160.48464754129003L236.2266165255467,160.48508785754538" fill="none"></path></g></g></g></g><g opacity="0.2"><g><g><g><path style="fill: none;" stroke="rgb(0, 153, 136)" stroke-width="2px" d="M21.689703392879167,160.54237938065333L21.904455057676632,160.539546838949L22.1192067224741,160.53626187187487L22.33395838727156,160.53052002275624L22.54871005206903,160.5267304692615L22.76346171686649,160.52222804609542L22.97821338166396,160.5209244135056L23.192965046461424,160.51940829293454L23.40771671125889,160.51320666255995L23.622468376056354,160.50969001808656L23.837220040853815,160.5101458208292L24.051971705651283,160.50942901781139L24.266723370448748,160.504865999062L24.481475035246213,160.48035560083156L24.696226700043677,160.48602320248526L24.910978364841146,160.48223120538563L25.125730029638607,160.49312532882306L25.340481694436075,160.4756108060499L25.555233359233537,160.4487843542006L25.769985024031005,160.4502284267043L25.98473668882847,160.4724664806095L26.19948835362593,160.46529322025958L26.4142400184234,160.4634960989053L26.62899168322086,160.4325455646636L26.84374334801833,160.41973415452944L27.058495012815794,160.44842102261165L27.27324667761326,160.41972837316848L27.487998342410723,160.41396521370228L27.70275000720819,160.39079785501826L27.917501672005653,160.4229668417027L28.13225333680312,160.35802881941055L28.347005001600582,160.39682547500217L28.561756666398047,160.34185628280022L28.776508331195515,160.36765356053482L28.991259995992976,160.34267680735314L29.206011660790445,160.32894820635113L29.420763325587906,160.3119086738247L29.635514990385374,160.30905140765407L29.85026665518284,160.27459292853987L30.065018319980304,160.29108239886773L30.27976998477777,160.281721640564L30.494521649575233,160.1747073754411L30.709273314372698,160.1646088566861L30.924024979170163,160.18335883914708L31.138776643967628,160.1681338945442L31.353528308765092,160.06998676728765L31.56827997356256,160.02558562119128L31.783031638360022,160.00302312514845L31.99778330315749,160.05163952031006L32.21253496795495,159.98937416484333L32.42728663275242,160.00937566496717L32.64203829754989,160.03047523171566L32.85678996234735,160.0286081460949L33.07154162714481,160.0130024890743L33.28629329194228,159.96938216966882L33.50104495673974,159.73270853851096L33.71579662153721,159.79138557961392L33.93054828633468,159.80727055475998L34.14529995113214,159.69291445117096L34.3600516159296,159.67146393621474L34.574803280727075,159.55801246863132L34.789554945524536,159.6493520923588L35.004306610322,159.6652091895864L35.21905827511946,159.60311707896992L35.43380993991693,159.5666911733262L35.648561604714395,159.49221303580566L35.863313269511856,159.48357803428001L36.078064934309324,159.48832717733103L36.292816599106786,159.33460284732928L36.507568263904254,159.11361424441873L36.72231992870172,158.96164323461284L36.937071593499184,158.90471975867865L37.151823258296645,158.77249582012004L37.36657492309412,158.64793786819763L37.58132658789158,158.72456245845893L37.79607825268904,158.5910847484866L38.010829917486504,158.4287943033448L38.22558158228397,157.7383669320911L38.44033324708144,157.8206190403118L38.6550849118789,157.50452891149757L38.86983657667637,157.14931993870493L39.08458824147383,156.71364990371742L39.2993399062713,156.57680411003795L39.51409157106877,156.31911297806042L39.72884323586623,156.02017820497002L39.94359490066369,155.6711133490343L40.15834656546116,155.05240346645093L40.37309823025863,154.32696770086818L40.58784989505609,153.6552147134318L40.80260155985355,153.08790210962366L41.01735322465102,152.23249743022197L41.232104889448486,152.43957598068738L41.44685655424595,151.38903802244351L41.661608219043416,151.8691120452133L41.87635988384088,151.44494750645978L42.091111548638345,151.2522443590018L42.30586321343581,148.22545614260156L42.520614878233275,149.91205904107852L42.735366543030736,147.55994898477917L42.950118207828204,147.68143674006737L43.16486987262567,146.63169602170018L43.379621537423134,146.3626475531117L43.594373202220595,143.89918260548282L43.80912486701806,143.12284813001529L44.02387653181553,142.06821971191252L44.23862819661299,138.83648989283824L44.45337986141046,140.64113054395122L44.66813152620792,138.53179688423742L44.882883191005384,137.4482749878902L45.09763485580286,130.35264881059678L45.31238652060032,131.84159501315875L45.52713818539778,129.7701917847851L45.74188985019525,124.22112003429885L45.95664151499272,127.26368215512242L46.17139317979018,123.52584533484709L46.38614484458764,124.43765257976203L46.60089650938511,121.43810535226501L46.81564817418257,120.31985923017804L47.03039983898004,116.32156563162731L47.24515150377751,112.42153086798545L47.45990316857497,110.92124614273293L47.67465483337243,105.9002968159616L47.889406498169905,105.48511122071595L48.104158162967366,101.50106289555654L48.31890982776483,101.11602974339499L48.533661492562295,100.08895901518873L48.748413157359764,92.68943785308451L48.963164822157225,95.32944479055331L49.177916486954686,88.75239924368188L49.392668151752154,86.3285015384674L49.607419816549616,87.48262894239835L49.822171481347084,92.52907426695637L50.03692314614455,88.14958869165777L50.25167481094201,84.19510330674349L50.466426475739475,88.1548126902204L50.68117814053695,85.87191277574226L50.89592980533441,77.90284407286978L51.11068147013187,74.90546671752482L51.325433134929334,81.58931889047064L51.5401847997268,76.02767944116145L51.75493646452427,85.04240075428224L51.96968812932173,77.79065666556284L52.1844397941192,70.31046768411771L52.39919145891666,66.66688233370743L52.61394312371413,69.72121569739059L52.8286947885116,62.93438239551709L53.04344645330906,63.34584910583162L53.25819811810652,70.11220031970329L53.472949782903996,46.57422367011681L53.68770144770146,58.12477297218033L53.90245311249892,63.19384517166502L54.11720477729638,56.616034525364256L54.33195644209385,57.841115494406225L54.546708106891316,46.65689203632622L54.76145977168878,56.696231996695325L54.976211436486246,41.60401235099361L55.19096310128371,56.16283853961676L55.405714766081175,49.04681180130988L55.62046643087864,41.89753459436074L55.835218095676105,37.318477222833785L56.049969760473566,35.40323266938031L56.264721425271034,33.24596584398375L56.4794730900685,41.83916127068625L56.694224754865964,23.34591787890195L56.908976419663425,16.941809888288372L57.12372808446089,30.22758588217274L57.33847974925836,15.656304878249017L57.55323141405582,16.86516197660491L57.76798307885329,30.031482118603588L57.98273474365075,23.982693828543276L58.19748640844822,9.949578746171287L58.41223807324569,37.90880787433014L58.62698973804315,21.13909518718869L58.84174140284061,-1.2132219278871865L59.05649306763808,24.36471675344184L59.27124473243555,23.686274241435527L59.48599639723301,9.26387406089305L59.70074806203047,12.687255015710003L59.91549972682794,20.239099948627498L60.13025139162541,5.990527849908171L60.34500305642287,20.50879122616276L60.55975472122034,17.031489575497798L60.7745063860178,24.827614450805626L60.98925805081526,25.642595854415006L61.204009715612735,1.4867136173419606L61.418761380410196,-1.6142970828376773L61.63351304520766,22.938721928516774L61.848264710005125,2.2649953335702517L62.063016374802594,7.381491155060371L62.277768039600055,12.730903311023107L62.492519704397516,6.941897633757434L62.707271369194984,15.282848558436338L62.922023033992446,22.784861687538022L63.136774698789914,4.911587143176803L63.35152636358738,29.54357444972991L63.56627802838484,21.786344219182425L63.781029693182305,10.385622707826643L63.99578135797978,21.096525556644803L64.21053302277724,29.23126337119639L64.4252846875747,31.156266078027347L64.64003635237218,21.462707160571966L64.85478801716962,23.63921435522436L65.0695396819671,18.001497683150316L65.28429134676456,25.07718737613336L65.49904301156202,23.93899536277578L65.7137946763595,43.199608396960045L65.92854634115696,24.85079320073053L66.14329800595442,21.06870603968949L66.3580496707519,24.592214678841092L66.57280133554936,28.998786028199653L66.78755300034682,27.83489419958442L67.00230466514428,36.50977966863587L67.21705632994176,40.41783229801877L67.43180799473922,34.783050597526135L67.64655965953668,35.963097312452646L67.86131132433415,25.81767819759771L68.0760629891316,34.64483099570125L68.29081465392908,48.039389077301315L68.50556631872655,37.268858643449086L68.720317983524,48.688168308153756L68.93506964832147,37.15277675462067L69.14982131311893,47.85980393583774L69.3645729779164,47.01202359767556L69.57932464271387,43.23357379457727L69.79407630751132,42.1554734429568L70.0088279723088,37.22252622882649L70.22357963710627,40.22436248330473L70.43833130190372,40.56387849072739L70.65308296670119,56.38481144372709L70.86783463149865,60.17696405217872L71.08258629629611,55.48557503328844L71.29733796109359,64.50562695718743L71.51208962589105,51.15311798766702L71.72684129068851,53.180455878825484L71.94159295548599,55.29111435210035L72.15634462028345,63.131765505673L72.37109628508091,59.49326618507578L72.58584794987837,60.43329117492772L72.80059961467585,69.67876522167586L73.01535127947331,73.77034764449819L73.23010294427077,68.82991876135804L73.44485460906824,72.9848413828388L73.65960627386569,82.58211065571977L73.87435793866317,71.95467262907437L74.08910960346063,76.03245190563463L74.30386126825809,61.85882819445654L74.51861293305556,70.34537377775462L74.73336459785301,86.93654236036093L74.94811626265049,71.40886198453605L75.16286792744796,78.8124030542977L75.37761959224541,86.73184690647871L75.59237125704288,81.27623644120096L75.80712292184036,81.97206301565096L76.02187458663781,88.28659793127066L76.23662625143528,67.49940458243042L76.45137791623274,87.03083145806677L76.6661295810302,82.76195292076208L76.88088124582768,94.31721197423079L77.09563291062514,84.86010013697519L77.3103845754226,89.4698430126641L77.52513624022006,87.97230511978903L77.73988790501754,97.36885494729765L77.954639569815,90.25611437375285L78.16939123461246,92.5122608934313L78.38414289940994,88.8050844920907L78.5988945642074,91.66039793454372L78.81364622900486,98.41983189701736L79.02839789380234,103.24916458023338L79.24314955859978,100.35478716773652L79.45790122339726,107.85028440907523L79.67265288819472,99.16503874119371L79.88740455299218,99.16392871989049L80.10215621778966,107.57621575939507L80.3169078825871,111.1641558045879L80.53165954738458,106.67448964015766L80.74641121218205,109.42034682941419L80.9611628769795,111.47504016082492L81.17591454177698,106.60738038611376L81.39066620657444,114.90003284148891L81.6054178713719,111.34506419178584L81.82016953616937,114.12550450237916L82.03492120096683,121.63420598018075L82.2496728657643,117.04380695030987L82.46442453056177,120.30839841700494L82.67917619535923,119.65143826643472L82.8939278601567,122.50597720249817L83.10867952495416,120.85305514109247L83.32343118975163,124.549219127696L83.53818285454909,124.80732416592222L83.75293451934655,126.52285581874439L83.96768618414403,127.07727069620938L84.18243784894148,129.46354683194346L84.39718951373895,129.1906383740209L84.61194117853643,130.35288398460168L84.82669284333387,129.42583432851453L85.04144450813135,133.07042622366583L85.25619617292881,129.627387857691L85.47094783772627,131.27566601641288L85.68569950252375,132.7854298218904L85.9004511673212,133.91582973655164L86.11520283211867,135.83370823886023L86.32995449691614,132.96809103933833L86.54470616171359,134.22047100687138L86.75945782651107,137.9281647910228L86.97420949130853,137.4241868984796L87.18896115610599,136.26753059008243L87.40371282090346,137.5521152858492L87.61846448570093,139.31231588916583L87.83321615049839,139.10642261568523L88.04796781529586,143.04978897364688L88.26271948009332,140.43472615896658L88.47747114489079,142.892799350576L88.69222280968825,140.85137924000296L88.90697447448572,141.99215346393456L89.12172613928318,143.86441448059549L89.33647780408064,142.5044988475728L89.55122946887812,144.3912575577237L89.76598113367557,144.27695044871902L89.98073279847304,144.10707799365863L90.1954844632705,145.82522634924223L90.41023612806796,146.80770495046227L90.62498779286544,146.49354383642338L90.83973945766289,147.66967725590803L91.05449112246036,147.99400102261285L91.26924278725784,149.0424929670139L91.48399445205528,148.02895258322405L91.69874611685276,149.0252907724674L91.91349778165024,149.36968899223217L92.12824944644768,149.78830734403633L92.34300111124516,150.0595609608776L92.55775277604262,150.70971360791876L92.77250444084008,150.85160897944053L92.98725610563756,151.48940793600326L93.20200777043502,152.87551646578055L93.41675943523248,150.6765579927918L93.63151110002994,151.6487077517158L93.84626276482742,151.62177562467235L94.06101442962488,153.7945694217871L94.27576609442234,153.4981443472859L94.49051775921981,152.98653035480297L94.70526942401727,153.01626262033162L94.92002108881474,154.28225406731278L95.13477275361221,153.50690457896917L95.34952441840966,154.3115747783328L95.56427608320713,154.35407581645862L95.7790277480046,154.91201752008405L95.99377941280206,154.84562829045186L96.20853107759953,154.62306823524258L96.42328274239698,155.58554489538753L96.63803440719445,155.05529767453814L96.85278607199193,154.9894767820845L97.06753773678938,155.6739483716636L97.28228940158685,155.59273259689124L97.49704106638431,155.99251860633808L97.71179273118177,156.12147627193585L97.92654439597925,156.20191440466527L98.14129606077671,156.30303256351735L98.35604772557417,156.43165118659135L98.57079939037165,156.52834258675747L98.78555105516911,156.78414409560548L99.00030271996657,156.44150732913755L99.21505438476403,156.9275437968454L99.4298060495615,156.8189812048676L99.64455771435897,157.17900987291273L99.85930937915643,157.15720453917655L100.0740610439539,156.8384877127057L100.28881270875135,157.43077520790132L100.50356437354883,157.10666603747597L100.7183160383463,157.40296940942963L100.93306770314375,157.7464200739329L101.14781936794122,157.44169806053816L101.36257103273869,157.50049646122653L101.57732269753615,157.76680319287433L101.79207436233362,157.60038230829284L102.00682602713107,157.90594134516675L102.22157769192854,157.61893048206085L102.43632935672602,157.93230043155154L102.65108102152347,158.03306896504958L102.86583268632094,158.07829978543748L103.0805843511184,158.05889930188L103.29533601591586,157.95223867966695L103.51008768071334,158.44028902077028L103.7248393455108,158.37618529050923L103.93959101030826,158.5715278742158L104.15434267510574,158.693001127107L104.3690943399032,158.90672549897312L104.58384600470066,158.73229635158907L104.79859766949812,158.76790855517575L105.0133493342956,159.14371318541671L105.22810099909306,159.15519575218525L105.44285266389052,159.141846099796L105.657604328688,159.10600166187945L105.87235599348544,159.1744837441771L106.08710765828292,159.16347916857356L106.30185932308038,159.12454934570164L106.51661098787784,159.3639230684035L106.73136265267532,159.18619874125383L106.94611431747276,159.44865528248442L107.16086598227024,159.41714245577103L107.37561764706771,159.43950711168222L107.59036931186516,159.37581385804893L107.80512097666264,159.52278065899762L108.01987264146011,159.402236441415L108.23462430625756,159.3982154558767L108.44937597105503,159.43375877307778L108.6641276358525,159.48811522675908L108.87887930064996,159.53066036001078L109.09363096544743,159.6653877258518L109.30838263024489,159.73082881228748L109.52313429504235,159.66120123660752L109.73788595983982,159.8112361764179L109.95263762463729,159.8188765878811L110.16738928943475,159.7217412967807L110.38214095423221,159.8396869885927L110.59689261902969,159.83940335894383L110.81164428382715,159.88660817113555L111.02639594862461,159.74291925486415L111.24114761342209,159.92362323665614L111.45589927821953,159.99089226203967L111.67065094301701,160.0213841396042L111.88540260781447,159.99091867012064L112.10015427261193,159.91164401178594L112.3149059374094,159.99892105357304L112.52965760220685,160.04868308910073L112.74440926700433,160.03373288162962L112.9591609318018,160.08441919999123L113.17391259659925,160.06897061960805L113.38866426139673,160.1141148175708L113.60341592619419,160.0864036276415L113.81816759099165,160.10972289403435L114.03291925578912,160.10271074012638L114.24767092058659,160.0236697369645L114.46242258538405,160.06318587802744L114.67717425018152,160.12425738245716L114.89192591497898,160.14359517744398L115.10667757977644,160.11547476024884L115.3214292445739,160.11001029626618L115.53618090937138,160.1161028708203L115.75093257416884,160.18824590195308L115.9656842389663,160.15715538405954L116.18043590376378,160.12559419969136L116.39518756856123,160.101381370069L116.6099392333587,160.1142526393366L116.82469089815618,160.0971956647381L117.03944256295362,160.08925393658112L117.2541942277511,160.0094128028621L117.46894589254856,159.96557195883247L117.68369755734602,159.84627318358423L117.8984492221435,159.76316558092603L118.11320088694094,159.67417578645896L118.32795255173842,159.5463378430921L118.5427042165359,159.40151769086248L118.75745588133334,159.339074779022L118.97220754613082,159.15582709639932L119.18695921092828,159.0680242937275L119.40171087572574,159.05180228483562L119.61646254052322,158.891727080831L119.83121420532068,158.67452056586538L120.04596587011814,158.58310509852134L120.26071753491561,158.62264451201182L120.47546919971307,158.44513203744495L120.69022086451054,158.46635335573555L120.904972529308,158.2680658055524L121.11972419410547,158.02656150435513L121.33447585890293,158.0040239955503L121.5492275237004,157.9298810789759L121.76397918849787,157.8016426538765L121.97873085329532,157.8350832215061L122.1934825180928,158.02814148171151L122.40823418289025,157.98330379386852L122.62298584768772,157.78588579956855L122.83773751248519,157.5341945443915L123.05248917728264,157.69964337641935L123.26724084208011,157.59879978321803L123.48199250687759,157.43084223249272L123.69674417167504,157.6175272771648L123.91149583647251,157.48762558391562L124.12624750126999,157.5109089862727L124.34099916606743,157.45916756953696L124.55575083086491,157.488440657821L124.77050249566237,157.20098884345586L124.98525416045983,157.34583035732427L125.2000058252573,157.24690656791645L125.41475749005477,157.47339638074794L125.62950915485223,157.18498721220445L125.84426081964969,157.22155167453272L126.05901248444717,157.25337267718174L126.27376414924463,157.1727256315446L126.48851581404209,157.17615094092625L126.70326747883956,157.2790025281729L126.91801914363703,156.91040274754016L127.13277080843449,156.96645372791608L127.34752247323196,157.0659472263508L127.56227413802941,157.1854979317518L127.77702580282688,156.95943378386923L127.99177746762435,156.87436938650634L128.20652913242182,156.83041301324678L128.42128079721928,156.7836839384692L128.63603246201674,156.6935299836832L128.8507841268142,156.77556925942946L129.06553579161167,156.79596825261618L129.28028745640916,156.85948600764831L129.49503912120662,157.1400340931207L129.70979078600405,156.96657837013868L129.92454245080154,156.7278214892539L130.139294115599,156.5870463299089L130.35404578039646,156.94490669362864L130.56879744519392,157.0107005410717L130.78354910999138,156.8330014951276L130.99830077478885,156.91162212475567L131.2130524395863,157.05359706348244L131.4278041043838,156.68857016391945L131.64255576918126,156.35280635774527L131.85730743397872,156.65353942805993L132.07205909877618,157.02574854173318L132.28681076357364,156.85277962894136L132.5015624283711,157.23622143700294L132.7163140931686,156.52741168965466L132.93106575796605,156.92411613572372L133.1458174227635,156.7534970031977L133.36056908756095,156.9294306762782L133.57532075235844,156.58909979092851L133.7900724171559,156.77224311508652L134.00482408195336,157.1849158760896L134.21957574675085,157.14153058370533L134.4343274115483,156.76403671818485L134.64907907634574,157.0456489660295L134.86383074114323,157.15479557345284L135.0785824059407,156.80042127239935L135.29333407073815,157.2973719696972L135.50808573553564,157.28355294918978L135.7228374003331,157.3644884749396L135.93758906513054,157.36288556811775L136.152340729928,157.65889614843525L136.3670923947255,157.06295032561476L136.58184405952295,157.53701408473216L136.7965957243204,157.37297688466884L137.01134738911787,157.47153223480228L137.22609905391533,157.9675492913006L137.4408507187128,157.8293222422989L137.65560238351028,157.77881509713228L137.87035404830775,158.18839100844727L138.0851057131052,158.04171102179538L138.29985737790267,158.17332556571375L138.51460904270013,158.26054004141662L138.7293607074976,158.31035322729036L138.94411237229505,158.32338519879468L139.15886403709254,158.21414765742276L139.37361570189,158.50727265269992L139.58836736668744,158.45595768482642L139.80311903148493,158.45487490451208L140.0178706962824,158.68043519208913L140.23262236107985,158.62247459879325L140.44737402587734,158.72003731864763L140.6621256906748,158.79130876062194L140.87687735547223,158.96299528916276L141.0916290202697,158.9755845456028L141.30638068506718,158.9439385516091L141.52113234986464,158.91926860251468L141.7358840146621,159.06765409064806L141.95063567945957,159.2023652882762L142.16538734425703,159.18190299408647L142.3801390090545,159.08520659647277L142.59489067385198,159.26058937444677L142.80964233864944,159.2584357684967L143.0243940034469,159.33957638557666L143.23914566824436,159.3082100526705L143.45389733304182,159.43488515857217L143.66864899783928,159.47207704554773L143.88340066263675,159.34599555803013L144.09815232743424,159.56469581988364L144.3129039922317,159.50885091072954L144.52765565702913,159.67463770740028L144.74240732182662,159.64399669032096L144.95715898662408,159.6844449533513L145.17191065142154,159.66380725854955L145.38666231621903,159.785112509011L145.6014139810165,159.7531144399341L145.81616564581392,159.75893480057752L146.03091731061141,159.83849676315486L146.24566897540888,159.8861596747103L146.46042064020634,159.80135362579077L146.6751723050038,159.94724641645576L146.88992396980126,159.8141370967632L147.10467563459872,159.9644683068252L147.31942729939618,159.98110975835377L147.53417896419367,160.01020200762696L147.74893062899113,159.93150450549604L147.9636822937886,160.0192632620365L148.17843395858606,160.00040691233286L148.39318562338352,160.04878166620446L148.60793728818098,160.10182359518743L148.82268895297847,160.1162086991225L149.03744061777593,160.1419065056022L149.2521922825734,160.1178300769027L149.46694394737082,160.16712205838803L149.6816956121683,160.15317418212376L149.89644727696577,160.18236537596005L150.11119894176323,160.18791430660613L150.32595060656072,160.20983443465346L150.54070227135819,160.1569085983381L150.75545393615562,160.1731471918968L150.9702056009531,160.0799215951363L151.18495726575057,160.03434962545754L151.39970893054803,160.06957227310397L151.61446059534552,160.03876207772484L151.82921226014298,160.04743201238912L152.0439639249404,159.991972445641L152.25871558973788,160.01923891172808L152.47346725453536,159.95955542387327L152.68821891933283,159.9901607239006L152.9029705841303,160.02205521842617L153.11772224892775,160.01354819075488L153.3324739137252,160.0624370448001L153.54722557852267,159.99050192218607L153.76197724332016,160.06848929681132L153.97672890811762,160.04293323166416L154.19148057291508,159.94070162188802L154.40623223771254,160.02629868837204L154.62098390251,159.98418539338684L154.83573556730747,160.02009259336594L155.05048723210493,160.03535440639354L155.26523889690242,160.0626065170674L155.47999056169988,160.01632471385045L155.6947422264973,160.0248303696734L155.9094938912948,160.0554317011394L156.12424555609226,160.05273753794012L156.33899722088972,160.05855863350232L156.5537488856872,160.0908956961084L156.76850055048467,160.1351629890003L156.9832522152821,160.11184190980782L157.19800388007957,160.14743892507335L157.41275554487706,160.16286295916976L157.62750720967452,160.17765917666222L157.84225887447198,160.20354365250833L158.05701053926944,160.1724013963337L158.2717622040669,160.1539123100344L158.48651386886436,160.1689602127067L158.70126553366185,160.2693703753175L158.91601719845931,160.24802321443693L159.13076886325678,160.2682445777581L159.34552052805424,160.23847034836794L159.5602721928517,160.27072137648386L159.77502385764916,160.30654283594035L159.98977552244662,160.30283000184036L160.2045271872441,160.30951347557917L160.41927885204157,160.2979494553141L160.634030516839,160.28681702834265L160.8487821816365,160.2719788959833L161.06353384643396,160.21394130769812L161.27828551123142,160.25796507300848L161.4930371760289,160.256705201769L161.70778884082637,160.26657876188992L161.9225405056238,160.2711124757535L162.1372921704213,160.2532473844806L162.35204383521875,160.31544887550666L162.5667955000162,160.3132141590222L162.78154716481367,160.28496464109728L162.99629882961113,160.29446466650703L163.2110504944086,160.29821681876095L163.42580215920606,160.31277825420514L163.64055382400355,160.31766970202645L163.855305488801,160.32045585255787L164.07005715359847,160.32062956285668L164.28480881839593,160.3340144913467L164.4995604831934,160.35097264386854L164.71431214799085,160.35510700287506L164.92906381278834,160.37028366331504L165.1438154775858,160.3740867454394L165.35856714238327,160.3837478282966L165.5733188071807,160.37585590313464L165.7880704719782,160.38805456249952L166.00282213677565,160.39761019676254L166.2175738015731,160.36693745568982L166.4323254663706,160.4047279095025L166.64707713116806,160.4113880618191L166.8618287959655,160.41211212828404L167.07658046076298,160.4151340407554L167.29133212556044,160.41659426309897L167.5060837903579,160.4156821676679L167.7208354551554,160.43071038676595L167.93558711995286,160.4338210651755L168.1503387847503,160.43133975894796L168.36509044954775,160.43994586591748L168.57984211434524,160.43753610403175L168.7945937791427,160.43703439948794L169.00934544394016,160.44863787876633L169.22409710873762,160.44479706468772L169.43884877353509,160.45364786286018L169.65360043833255,160.44382447319362L169.86835210313004,160.45374784243387L170.0831037679275,160.46039143458097L170.29785543272496,160.45054426416803L170.51260709752242,160.45664394906123L170.72735876231988,160.4598837098276L170.94211042711734,160.45074988218997L171.1568620919148,160.45603350716172L171.3716137567123,160.46604077350338L171.58636542150975,160.45879699769787L171.8011170863072,160.4670081348256L172.01586875110468,160.459283636407L172.23062041590214,160.46311503127683L172.4453720806996,160.4684958798769L172.6601237454971,160.46600682025644L172.87487541029455,160.46759130511455L173.08962707509198,160.46910243283128L173.30437873988944,160.4714550792803L173.51913040468693,160.46266312360365L173.7338820694844,160.46570625685436L173.94863373428186,160.47146961842319L174.16338539907932,160.46532302733982L174.37813706387678,160.4692097187224L174.59288872867424,160.46962371683588L174.80764039347173,160.4586973672106L175.0223920582692,160.46614090618516L175.23714372306665,160.46454162496252L175.4518953878641,160.4684811815016L175.66664705266157,160.46337013995324L175.88139871745904,160.46277168335394L176.0961503822565,160.4646621638887L176.310902047054,160.46408729205746L176.52565371185145,160.45835927395692L176.74040537664888,160.4522531217786L176.95515704144637,160.45041290968737L177.16990870624383,160.44051019778877L177.3846603710413,160.43702409837655L177.59941203583878,160.42497461527242L177.81416370063624,160.41834316153358L178.02891536543368,160.3906671129699L178.24366703023117,160.40672472053393L178.45841869502863,160.4237254126037L178.6731703598261,160.42194499840267L178.88792202462355,160.4173367515276L179.102673689421,160.43119230974634L179.31742535421847,160.43328587283327L179.53217701901593,160.42138990201053L179.74692868381342,160.4177406751297L179.96168034861088,160.4343701474824L180.17643201340834,160.43887674284355L180.3911836782058,160.44065487879635L180.60593534300327,160.44250327298317L180.82068700780073,160.44275754875164L181.03543867259822,160.44653906713455L181.25019033739568,160.44799937521867L181.46494200219314,160.44344080272785L181.67969366699057,160.45720235871212L181.89444533178806,160.45407948677538L182.10919699658552,160.44934669566692L182.32394866138299,160.44395498864202L182.53870032618048,160.44359114873427L182.75345199097794,160.44959409994496L182.96820365577537,160.4379209809892L183.18295532057286,160.4300489843744L183.39770698537032,160.4340714152529L183.61245865016778,160.42986854956885L183.82721031496527,160.4260700116922L184.04196197976273,160.43542939814756L184.25671364456016,160.43113748480644L184.47146530935763,160.41990525586667L184.68621697415512,160.4328229597516L184.90096863895258,160.4232718819849L185.11572030375004,160.42148666631465L185.3304719685475,160.43398395991983L185.54522363334496,160.43166327018847L185.75997529814242,160.42938911306362L185.9747269629399,160.44971068868273L186.18947862773737,160.44469130375305L186.40423029253483,160.4404677684787L186.6189819573323,160.4406540336398L186.83373362212976,160.44313272478138L187.04848528692722,160.43406831634545L187.26323695172468,160.44377652586851L187.47798861652217,160.42854616123972L187.69274028131963,160.42472666592963L187.90749194611706,160.42664642072853L188.12224361091455,160.42515883490958L188.336995275712,160.42724457111166L188.55174694050947,160.43548547244936L188.76649860530696,160.42834291945516L188.98125027010443,160.43748639902591L189.19600193490186,160.43374091003548L189.41075359969932,160.43396814691775L189.6255052644968,160.43402903493745L189.84025692929427,160.44556714931602L190.05500859409173,160.44120470827067L190.2697602588892,160.42744383208625L190.48451192368665,160.43064953549217L190.69926358848411,160.42451646691407L190.9140152532816,160.42864760452665L191.12876691807907,160.43111116246598L191.34351858287653,160.4316320483896L191.558270247674,160.43785567120824L191.77302191247145,160.44442481608442L191.9877735772689,160.42202740729357L192.20252524206637,160.44580084123476L192.41727690686386,160.44524126183816L192.63202857166132,160.44010212189565L192.84678023645876,160.45098873691302L193.06153190125625,160.44463169571685L193.2762835660537,160.4530693409324L193.49103523085117,160.44710840257778L193.70578689564866,160.45225805798296L193.92053856044612,160.44437199379814L194.13529022524355,160.4471330162321L194.35004189004104,160.44246201954314L194.5647935548385,160.43787711858752L194.77954521963596,160.44633204664268L194.99429688443342,160.44219390892889L195.20904854923089,160.44008042954343L195.42380021402835,160.44298352402336L195.6385518788258,160.4494958903006L195.8533035436233,160.45438642559773L196.06805520842076,160.44550044318942L196.28280687321822,160.44518720243863L196.49755853801568,160.45475021651092L196.71231020281314,160.4516083163025L196.9270618676106,160.45729522182248L197.1418135324081,160.4519376946445L197.35656519720555,160.45823271482118L197.57131686200302,160.45462335728337L197.78606852680045,160.4562606705521L198.00082019159794,160.454254918009L198.2155718563954,160.4598116632913L198.43032352119286,160.46133767923732L198.64507518599035,160.45695965178987L198.8598268507878,160.4556286649112L199.07457851558524,160.45365280518885L199.28933018038273,160.45763613226475L199.5040818451802,160.47113140268306L199.71883350997766,160.46514591191738L199.93358517477515,160.4638837808027L200.1483368395726,160.46787029252656L200.36308850437004,160.46594010188116L200.5778401691675,160.46928743638182L200.792591833965,160.45947530934535L201.00734349876245,160.47403305182277L201.2220951635599,160.47303042052414L201.43684682835737,160.4709665910256L201.65159849315484,160.46751429175228L201.8663501579523,160.46888166935847L202.0811018227498,160.46394534249794L202.29585348754725,160.46653192583858L202.5106051523447,160.46507885058003L202.72535681714217,160.4735619505212L202.94010848193963,160.47369963142756L203.1548601467371,160.4710747526949L203.36961181153455,160.47377409707147L203.58436347633204,160.47765189593696L203.7991151411295,160.47587631995117L204.01386680592694,160.47921736477204L204.22861847072443,160.47582984858792L204.4433701355219,160.47169683693247L204.65812180031935,160.47240111570966L204.87287346511684,160.46647274650502L205.0876251299143,160.47364104615332L205.30237679471173,160.47727243900542L205.5171284595092,160.47979381667864L205.73188012430668,160.46866721393843L205.94663178910415,160.47332574763L206.1613834539016,160.4704618120716L206.37613511869907,160.47651075082402L206.59088678349653,160.47222664599477L206.805638448294,160.47253484642766L207.02039011309148,160.47301109216062L207.23514177788894,160.476032190097L207.4498934426864,160.4690753571991L207.66464510748386,160.46953579605426L207.87939677228132,160.4792178853395L208.0941484370788,160.46767087231956L208.30890010187625,160.4724408564419L208.52365176667374,160.4746454167597L208.7384034314712,160.47248877314541L208.95315509626863,160.46669872790105L209.16790676106612,160.46818251051536L209.38265842586358,160.47203240084076L209.59741009066104,160.45730202594535L209.81216175545853,160.46279926118063L210.026913420256,160.4700324296586L210.24166508505343,160.4731477931753L210.45641674985092,160.4706353508894L210.67116841464838,160.46805935037892L210.88592007944584,160.4781240751194L211.1006717442433,160.47452233011515L211.31542340904076,160.47806242768362L211.53017507383822,160.48151480657313L211.74492673863568,160.47811008104122L211.95967840343317,160.47812153964966L212.17443006823063,160.47601134902567L212.3891817330281,160.4815677329729L212.60393339782556,160.47300181381118L212.81868506262302,160.47775049141364L213.03343672742048,160.47934322573494L213.24818839221797,160.47213734724045L213.46294005701543,160.4767989063476L213.6776917218129,160.48002379725762L213.89244338661032,160.47863879384968L214.1071950514078,160.477091740854L214.32194671620528,160.47794554497833L214.53669838100274,160.48175197710736L214.75145004580023,160.4811791446757L214.9662017105977,160.47865058317157L215.18095337539512,160.47951642159066L215.3957050401926,160.48019258360074L215.61045670499007,160.47903470683724L215.82520836978753,160.48054692468347L216.03996003458502,160.48323538001367L216.25471169938248,160.481219834678L216.46946336417992,160.47979186914392L216.68421502897738,160.47954891724874L216.89896669377487,160.47127782912273L217.11371835857233,160.47772385673275L217.3284700233698,160.4767751745958L217.54322168816725,160.47846809059345L217.7579733529647,160.47848660442205L217.97272501776217,160.48030460971788L218.18747668255966,160.4741973490371L218.40222834735712,160.47340622735913L218.61698001215458,160.47823296558312L218.83173167695205,160.47698209097422L219.0464833417495,160.48029756062206L219.26123500654697,160.47832997486015L219.47598667134443,160.478016176796L219.69073833614192,160.48081392067093L219.90549000093938,160.47932922553247L220.1202416657368,160.4790486212992L220.3349933305343,160.483420910256L220.54974499533176,160.48459860532887L220.76449666012923,160.48188895371658L220.97924832492671,160.47973733817153L221.19399998972418,160.4799242157649L221.4087516545216,160.48350038559613L221.62350331931907,160.48631050672796L221.83825498411656,160.47739823872507L222.05300664891402,160.48185917725795L222.26775831371148,160.48798485990244L222.48250997850894,160.47732245635174L222.6972616433064,160.48494645462915L222.91201330810387,160.4855734138279L223.12676497290136,160.48000249686208L223.34151663769882,160.47976888455952L223.55626830249628,160.48316119608862L223.77101996729374,160.4760362382745L223.9857716320912,160.48056260295044L224.20052329688866,160.4812770297309L224.41527496168612,160.47821051381484L224.6300266264836,160.4768849102161L224.84477829128107,160.4743673051259L225.0595299560785,160.4773131473807L225.274281620876,160.4801163847734L225.48903328567346,160.4799437217338L225.70378495047092,160.479813653361L225.9185366152684,160.48047075647776L226.13328828006587,160.48032414018405L226.3480399448633,160.47395369896907L226.5627916096608,160.48599521432897L226.77754327445825,160.482253791889L226.99229493925571,160.47727733846386L227.20704660405318,160.4793284844894L227.42179826885064,160.4816474655346L227.6365499336481,160.4800049955859L227.85130159844556,160.481613518412L228.06605326324305,160.47551736112888L228.2808049280405,160.4843593280275L228.49555659283797,160.4789426398889L228.71030825763543,160.47817387199007L228.9250599224329,160.47794290539508L229.13981158723035,160.4795017109667L229.35456325202784,160.47844488553346L229.5693149168253,160.47350368371173L229.78406658162277,160.47781453958405L229.9988182464202,160.47346082569908L230.2135699112177,160.48124570381853L230.42832157601515,160.48302891071086L230.6430732408126,160.48314977422615L230.8578249056101,160.47753426606423L231.07257657040756,160.48075939582284L231.287328235205,160.4905074746889L231.50207990000249,160.48059749321885L231.71683156479995,160.47877934093924L231.9315832295974,160.48485022314114L232.1463348943949,160.49272503694453L232.36108655919236,160.4875539831546L232.5758382239898,160.48804401473873L232.79058988878725,160.48577720680154L233.00534155358474,160.48682430680978L233.2200932183822,160.48362198403018L233.43484488317966,160.4873849824602L233.64959654797713,160.49475616255802L233.8643482127746,160.49125526065703L234.07909987757205,160.48969907017133L234.29385154236954,160.48569312597044L234.508603207167,160.48757963181953L234.72335487196446,160.47723248392188L234.93810653676192,160.48465265860403L235.15285820155938,160.4876704800276L235.36760986635684,160.48335713768012L235.5823615311543,160.48455203597644L235.7971131959518,160.48112705730819L236.01186486074926,160.48547688837238L236.2266165255467,160.48684912256675" fill="none"></path></g></g></g></g></g></g><g transform="translate(72, 176)" clip-path="url(#clip_1)"><clipPath id="clip_1"><rect width="257" height="23"></rect></clipPath><g><g><line x1="0" y1="0" x2="0" y2="5" style="visibility: inherit;" fill="rgb(0, 0, 0)" stroke="rgb(204, 204, 204)" stroke-width="1px"></line><line x1="21.4751664797465" y1="0" x2="21.4751664797465" y2="5" style="visibility: inherit;" fill="rgb(0, 0, 0)" stroke="rgb(204, 204, 204)" stroke-width="1px"></line><line x1="42.950332959493" y1="0" x2="42.950332959493" y2="5" style="visibility: inherit;" fill="rgb(0, 0, 0)" stroke="rgb(204, 204, 204)" stroke-width="1px"></line><line x1="64.4254994392395" y1="0" x2="64.4254994392395" y2="5" style="visibility: inherit;" fill="rgb(0, 0, 0)" stroke="rgb(204, 204, 204)" stroke-width="1px"></line><line x1="85.900665918986" y1="0" x2="85.900665918986" y2="5" style="visibility: inherit;" fill="rgb(0, 0, 0)" stroke="rgb(204, 204, 204)" stroke-width="1px"></line><line x1="107.37583239873251" y1="0" x2="107.37583239873251" y2="5" style="visibility: inherit;" fill="rgb(0, 0, 0)" stroke="rgb(204, 204, 204)" stroke-width="1px"></line><line x1="128.850998878479" y1="0" x2="128.850998878479" y2="5" style="visibility: inherit;" fill="rgb(0, 0, 0)" stroke="rgb(204, 204, 204)" stroke-width="1px"></line><line x1="150.32616535822552" y1="0" x2="150.32616535822552" y2="5" style="visibility: inherit;" fill="rgb(0, 0, 0)" stroke="rgb(204, 204, 204)" stroke-width="1px"></line><line x1="171.801331837972" y1="0" x2="171.801331837972" y2="5" style="visibility: inherit;" fill="rgb(0, 0, 0)" stroke="rgb(204, 204, 204)" stroke-width="1px"></line><line x1="193.2764983177185" y1="0" x2="193.2764983177185" y2="5" style="visibility: inherit;" fill="rgb(0, 0, 0)" stroke="rgb(204, 204, 204)" stroke-width="1px"></line><line x1="214.75166479746503" y1="0" x2="214.75166479746503" y2="5" style="visibility: inherit;" fill="rgb(0, 0, 0)" stroke="rgb(204, 204, 204)" stroke-width="1px"></line><line x1="236.2268312772115" y1="0" x2="236.2268312772115" y2="5" style="visibility: inherit;" fill="rgb(0, 0, 0)" stroke="rgb(204, 204, 204)" stroke-width="1px"></line><line x1="257.701997756958" y1="0" x2="257.701997756958" y2="5" style="visibility: inherit;" fill="rgb(0, 0, 0)" stroke="rgb(204, 204, 204)" stroke-width="1px"></line></g><g transform="translate(0, 8)"><text style="text-anchor: middle; visibility: hidden; font-family: Roboto, sans-serif; font-size: 12px; font-weight: 200;" x="0" y="0" dx="0em" dy="0.95em" fill="rgb(33, 33, 33)" stroke="none" stroke-width="1px">-100k</text><text style="text-anchor: middle; visibility: inherit; font-family: Roboto, sans-serif; font-size: 12px; font-weight: 200;" x="21.4751664797465" y="0" dx="0em" dy="0.95em" fill="rgb(33, 33, 33)" stroke="none" stroke-width="1px">0</text><text style="text-anchor: middle; visibility: hidden; font-family: Roboto, sans-serif; font-size: 12px; font-weight: 200;" x="42.950332959493" y="0" dx="0em" dy="0.95em" fill="rgb(33, 33, 33)" stroke="none" stroke-width="1px">100k</text><text style="text-anchor: middle; visibility: inherit; font-family: Roboto, sans-serif; font-size: 12px; font-weight: 200;" x="64.4254994392395" y="0" dx="0em" dy="0.95em" fill="rgb(33, 33, 33)" stroke="none" stroke-width="1px">200k</text><text style="text-anchor: middle; visibility: hidden; font-family: Roboto, sans-serif; font-size: 12px; font-weight: 200;" x="85.900665918986" y="0" dx="0em" dy="0.95em" fill="rgb(33, 33, 33)" stroke="none" stroke-width="1px">300k</text><text style="text-anchor: middle; visibility: inherit; font-family: Roboto, sans-serif; font-size: 12px; font-weight: 200;" x="107.37583239873251" y="0" dx="0em" dy="0.95em" fill="rgb(33, 33, 33)" stroke="none" stroke-width="1px">400k</text><text style="text-anchor: middle; visibility: hidden; font-family: Roboto, sans-serif; font-size: 12px; font-weight: 200;" x="128.850998878479" y="0" dx="0em" dy="0.95em" fill="rgb(33, 33, 33)" stroke="none" stroke-width="1px">500k</text><text style="text-anchor: middle; visibility: inherit; font-family: Roboto, sans-serif; font-size: 12px; font-weight: 200;" x="150.32616535822552" y="0" dx="0em" dy="0.95em" fill="rgb(33, 33, 33)" stroke="none" stroke-width="1px">600k</text><text style="text-anchor: middle; visibility: hidden; font-family: Roboto, sans-serif; font-size: 12px; font-weight: 200;" x="171.801331837972" y="0" dx="0em" dy="0.95em" fill="rgb(33, 33, 33)" stroke="none" stroke-width="1px">700k</text><text style="text-anchor: middle; visibility: inherit; font-family: Roboto, sans-serif; font-size: 12px; font-weight: 200;" x="193.2764983177185" y="0" dx="0em" dy="0.95em" fill="rgb(33, 33, 33)" stroke="none" stroke-width="1px">800k</text><text style="text-anchor: middle; visibility: hidden; font-family: Roboto, sans-serif; font-size: 12px; font-weight: 200;" x="214.75166479746503" y="0" dx="0em" dy="0.95em" fill="rgb(33, 33, 33)" stroke="none" stroke-width="1px">900k</text><text style="text-anchor: middle; visibility: inherit; font-family: Roboto, sans-serif; font-size: 12px; font-weight: 200;" x="236.2268312772115" y="0" dx="0em" dy="0.95em" fill="rgb(33, 33, 33)" stroke="none" stroke-width="1px">1M</text><text style="text-anchor: middle; visibility: hidden; font-family: Roboto, sans-serif; font-size: 12px; font-weight: 200;" x="257.701997756958" y="0" dx="0em" dy="0.95em" fill="rgb(33, 33, 33)" stroke="none" stroke-width="1px">1.1M</text></g><line x1="0" y1="0" x2="257.701997756958" y2="0" fill="rgb(0, 0, 0)" stroke="rgb(204, 204, 204)" stroke-width="1px"></line></g></g></g></g></svg>