<svg viewBox="0 0 330 200" xmlns="http://www.w3.org/2000/svg"><g><g><g><g><g><line x1="82.68100261688232" y1="176.5999994277954" x2="77.68100261688232" y2="176.5999994277954" style="visibility: inherit;" fill="rgb(0, 0, 0)" stroke="rgb(204, 204, 204)" stroke-width="1px"></line><line x1="82.68100261688232" y1="163.98571375438146" x2="77.68100261688232" y2="163.98571375438146" style="visibility: inherit;" fill="rgb(0, 0, 0)" stroke="rgb(204, 204, 204)" stroke-width="1px"></line><line x1="82.68100261688232" y1="151.37142808096752" x2="77.68100261688232" y2="151.37142808096752" style="visibility: inherit;" fill="rgb(0, 0, 0)" stroke="rgb(204, 204, 204)" stroke-width="1px"></line><line x1="82.68100261688232" y1="138.75714240755354" x2="77.68100261688232" y2="138.75714240755354" style="visibility: inherit;" fill="rgb(0, 0, 0)" stroke="rgb(204, 204, 204)" stroke-width="1px"></line><line x1="82.68100261688232" y1="126.14285673413958" x2="77.68100261688232" y2="126.14285673413958" style="visibility: inherit;" fill="rgb(0, 0, 0)" stroke="rgb(204, 204, 204)" stroke-width="1px"></line><line x1="82.68100261688232" y1="113.52857106072561" x2="77.68100261688232" y2="113.52857106072561" style="visibility: inherit;" fill="rgb(0, 0, 0)" stroke="rgb(204, 204, 204)" stroke-width="1px"></line><line x1="82.68100261688232" y1="100.91428538731165" x2="77.68100261688232" y2="100.91428538731165" style="visibility: inherit;" fill="rgb(0, 0, 0)" stroke="rgb(204, 204, 204)" stroke-width="1px"></line><line x1="82.68100261688232" y1="88.2999997138977" x2="77.68100261688232" y2="88.2999997138977" style="visibility: inherit;" fill="rgb(0, 0, 0)" stroke="rgb(204, 204, 204)" stroke-width="1px"></line><line x1="82.68100261688232" y1="75.68571404048376" x2="77.68100261688232" y2="75.68571404048376" style="visibility: inherit;" fill="rgb(0, 0, 0)" stroke="rgb(204, 204, 204)" stroke-width="1px"></line><line x1="82.68100261688232" y1="63.07142836706978" x2="77.68100261688232" y2="63.07142836706978" style="visibility: inherit;" fill="rgb(0, 0, 0)" stroke="rgb(204, 204, 204)" stroke-width="1px"></line><line x1="82.68100261688232" y1="50.457142693655825" x2="77.68100261688232" y2="50.457142693655825" style="visibility: inherit;" fill="rgb(0, 0, 0)" stroke="rgb(204, 204, 204)" stroke-width="1px"></line><line x1="82.68100261688232" y1="37.84285702024188" x2="77.68100261688232" y2="37.84285702024188" style="visibility: inherit;" fill="rgb(0, 0, 0)" stroke="rgb(204, 204, 204)" stroke-width="1px"></line><line x1="82.68100261688232" y1="25.228571346827923" x2="77.68100261688232" y2="25.228571346827923" style="visibility: inherit;" fill="rgb(0, 0, 0)" stroke="rgb(204, 204, 204)" stroke-width="1px"></line><line x1="82.68100261688232" y1="12.614285673413953" x2="77.68100261688232" y2="12.614285673413953" style="visibility: inherit;" fill="rgb(0, 0, 0)" stroke="rgb(204, 204, 204)" stroke-width="1px"></line><line x1="82.68100261688232" y1="0" x2="77.68100261688232" y2="0" style="visibility: inherit;" fill="rgb(0, 0, 0)" stroke="rgb(204, 204, 204)" stroke-width="1px"></line></g><g transform="translate(72.68100261688232, 0)"><text style="text-anchor: end; visibility: hidden; font-family: Roboto, sans-serif; font-size: 12px; font-weight: 200;" x="0" y="176.5999994277954" dx="0em" dy="0.3em" fill="rgb(33, 33, 33)" stroke="none" stroke-width="1px">-5e+10</text><text style="text-anchor: end; visibility: inherit; font-family: Roboto, sans-serif; font-size: 12px; font-weight: 200;" x="0" y="163.98571375438146" dx="0em" dy="0.3em" fill="rgb(33, 33, 33)" stroke="none" stroke-width="1px">0</text><text style="text-anchor: end; visibility: hidden; font-family: Roboto, sans-serif; font-size: 12px; font-weight: 200;" x="0" y="151.37142808096752" dx="0em" dy="0.3em" fill="rgb(33, 33, 33)" stroke="none" stroke-width="1px">5e+10</text><text style="text-anchor: end; visibility: inherit; font-family: Roboto, sans-serif; font-size: 12px; font-weight: 200;" x="0" y="138.75714240755354" dx="0em" dy="0.3em" fill="rgb(33, 33, 33)" stroke="none" stroke-width="1px">1e+11</text><text style="text-anchor: end; visibility: hidden; font-family: Roboto, sans-serif; font-size: 12px; font-weight: 200;" x="0" y="126.14285673413958" dx="0em" dy="0.3em" fill="rgb(33, 33, 33)" stroke="none" stroke-width="1px">1.5e+11</text><text style="text-anchor: end; visibility: inherit; font-family: Roboto, sans-serif; font-size: 12px; font-weight: 200;" x="0" y="113.52857106072561" dx="0em" dy="0.3em" fill="rgb(33, 33, 33)" stroke="none" stroke-width="1px">2e+11</text><text style="text-anchor: end; visibility: hidden; font-family: Roboto, sans-serif; font-size: 12px; font-weight: 200;" x="0" y="100.91428538731165" dx="0em" dy="0.3em" fill="rgb(33, 33, 33)" stroke="none" stroke-width="1px">2.5e+11</text><text style="text-anchor: end; visibility: inherit; font-family: Roboto, sans-serif; font-size: 12px; font-weight: 200;" x="0" y="88.2999997138977" dx="0em" dy="0.3em" fill="rgb(33, 33, 33)" stroke="none" stroke-width="1px">3e+11</text><text style="text-anchor: end; visibility: hidden; font-family: Roboto, sans-serif; font-size: 12px; font-weight: 200;" x="0" y="75.68571404048376" dx="0em" dy="0.3em" fill="rgb(33, 33, 33)" stroke="none" stroke-width="1px">3.5e+11</text><text style="text-anchor: end; visibility: inherit; font-family: Roboto, sans-serif; font-size: 12px; font-weight: 200;" x="0" y="63.07142836706978" dx="0em" dy="0.3em" fill="rgb(33, 33, 33)" stroke="none" stroke-width="1px">4e+11</text><text style="text-anchor: end; visibility: hidden; font-family: Roboto, sans-serif; font-size: 12px; font-weight: 200;" x="0" y="50.457142693655825" dx="0em" dy="0.3em" fill="rgb(33, 33, 33)" stroke="none" stroke-width="1px">4.5e+11</text><text style="text-anchor: end; visibility: inherit; font-family: Roboto, sans-serif; font-size: 12px; font-weight: 200;" x="0" y="37.84285702024188" dx="0em" dy="0.3em" fill="rgb(33, 33, 33)" stroke="none" stroke-width="1px">5e+11</text><text style="text-anchor: end; visibility: hidden; font-family: Roboto, sans-serif; font-size: 12px; font-weight: 200;" x="0" y="25.228571346827923" dx="0em" dy="0.3em" fill="rgb(33, 33, 33)" stroke="none" stroke-width="1px">5.5e+11</text><text style="text-anchor: end; visibility: inherit; font-family: Roboto, sans-serif; font-size: 12px; font-weight: 200;" x="0" y="12.614285673413953" dx="0em" dy="0.3em" fill="rgb(33, 33, 33)" stroke="none" stroke-width="1px">6e+11</text><text style="text-anchor: end; visibility: hidden; font-family: Roboto, sans-serif; font-size: 12px; font-weight: 200;" x="0" y="0" dx="0em" dy="0.3em" fill="rgb(33, 33, 33)" stroke="none" stroke-width="1px">6.5e+11</text></g><line x1="82.68100261688232" y1="0" x2="82.68100261688232" y2="176.5999994277954" fill="rgb(0, 0, 0)" stroke="rgb(204, 204, 204)" stroke-width="1px"></line></g></g><g transform="translate(82, 0)" clip-path="url(#clip_0)"><clipPath id="clip_0"><rect width="247" height="176"></rect></clipPath><g><g><g><line x1="0" y1="0" x2="0" y2="176.5999994277954" fill="rgb(0, 0, 0)" stroke="rgb(66, 66, 66)" stroke-width="1px" opacity="0.25"></line><line x1="20.60991644859314" y1="0" x2="20.60991644859314" y2="176.5999994277954" fill="rgb(0, 0, 0)" stroke="rgb(66, 66, 66)" stroke-width="1px" opacity="0.25"></line><line x1="41.21983289718628" y1="0" x2="41.21983289718628" y2="176.5999994277954" fill="rgb(0, 0, 0)" stroke="rgb(66, 66, 66)" stroke-width="1px" opacity="0.25"></line><line x1="61.82974934577942" y1="0" x2="61.82974934577942" y2="176.5999994277954" fill="rgb(0, 0, 0)" stroke="rgb(66, 66, 66)" stroke-width="1px" opacity="0.25"></line><line x1="82.43966579437256" y1="0" x2="82.43966579437256" y2="176.5999994277954" fill="rgb(0, 0, 0)" stroke="rgb(66, 66, 66)" stroke-width="1px" opacity="0.25"></line><line x1="103.0495822429657" y1="0" x2="103.0495822429657" y2="176.5999994277954" fill="rgb(0, 0, 0)" stroke="rgb(66, 66, 66)" stroke-width="1px" opacity="0.25"></line><line x1="123.65949869155884" y1="0" x2="123.65949869155884" y2="176.5999994277954" fill="rgb(0, 0, 0)" stroke="rgb(66, 66, 66)" stroke-width="1px" opacity="0.25"></line><line x1="144.26941514015198" y1="0" x2="144.26941514015198" y2="176.5999994277954" fill="rgb(0, 0, 0)" stroke="rgb(66, 66, 66)" stroke-width="1px" opacity="0.25"></line><line x1="164.87933158874512" y1="0" x2="164.87933158874512" y2="176.5999994277954" fill="rgb(0, 0, 0)" stroke="rgb(66, 66, 66)" stroke-width="1px" opacity="0.25"></line><line x1="185.48924803733826" y1="0" x2="185.48924803733826" y2="176.5999994277954" fill="rgb(0, 0, 0)" stroke="rgb(66, 66, 66)" stroke-width="1px" opacity="0.25"></line><line x1="206.0991644859314" y1="0" x2="206.0991644859314" y2="176.5999994277954" fill="rgb(0, 0, 0)" stroke="rgb(66, 66, 66)" stroke-width="1px" opacity="0.25"></line><line x1="226.70908093452454" y1="0" x2="226.70908093452454" y2="176.5999994277954" fill="rgb(0, 0, 0)" stroke="rgb(66, 66, 66)" stroke-width="1px" opacity="0.25"></line><line x1="247.31899738311768" y1="0" x2="247.31899738311768" y2="176.5999994277954" fill="rgb(0, 0, 0)" stroke="rgb(66, 66, 66)" stroke-width="1px" opacity="0.25"></line></g><g><line x1="0" y1="176.5999994277954" x2="247.31899738311768" y2="176.5999994277954" fill="rgb(0, 0, 0)" stroke="rgb(66, 66, 66)" stroke-width="1px" opacity="0.25"></line><line x1="0" y1="163.98571375438146" x2="247.31899738311768" y2="163.98571375438146" fill="rgb(0, 0, 0)" stroke="rgb(66, 66, 66)" stroke-width="1px" opacity="0.25"></line><line x1="0" y1="151.37142808096752" x2="247.31899738311768" y2="151.37142808096752" fill="rgb(0, 0, 0)" stroke="rgb(66, 66, 66)" stroke-width="1px" opacity="0.25"></line><line x1="0" y1="138.75714240755354" x2="247.31899738311768" y2="138.75714240755354" fill="rgb(0, 0, 0)" stroke="rgb(66, 66, 66)" stroke-width="1px" opacity="0.25"></line><line x1="0" y1="126.14285673413958" x2="247.31899738311768" y2="126.14285673413958" fill="rgb(0, 0, 0)" stroke="rgb(66, 66, 66)" stroke-width="1px" opacity="0.25"></line><line x1="0" y1="113.52857106072561" x2="247.31899738311768" y2="113.52857106072561" fill="rgb(0, 0, 0)" stroke="rgb(66, 66, 66)" stroke-width="1px" opacity="0.25"></line><line x1="0" y1="100.91428538731165" x2="247.31899738311768" y2="100.91428538731165" fill="rgb(0, 0, 0)" stroke="rgb(66, 66, 66)" stroke-width="1px" opacity="0.25"></line><line x1="0" y1="88.2999997138977" x2="247.31899738311768" y2="88.2999997138977" fill="rgb(0, 0, 0)" stroke="rgb(66, 66, 66)" stroke-width="1px" opacity="0.25"></line><line x1="0" y1="75.68571404048376" x2="247.31899738311768" y2="75.68571404048376" fill="rgb(0, 0, 0)" stroke="rgb(66, 66, 66)" stroke-width="1px" opacity="0.25"></line><line x1="0" y1="63.07142836706978" x2="247.31899738311768" y2="63.07142836706978" fill="rgb(0, 0, 0)" stroke="rgb(66, 66, 66)" stroke-width="1px" opacity="0.25"></line><line x1="0" y1="50.457142693655825" x2="247.31899738311768" y2="50.457142693655825" fill="rgb(0, 0, 0)" stroke="rgb(66, 66, 66)" stroke-width="1px" opacity="0.25"></line><line x1="0" y1="37.84285702024188" x2="247.31899738311768" y2="37.84285702024188" fill="rgb(0, 0, 0)" stroke="rgb(66, 66, 66)" stroke-width="1px" opacity="0.25"></line><line x1="0" y1="25.228571346827923" x2="247.31899738311768" y2="25.228571346827923" fill="rgb(0, 0, 0)" stroke="rgb(66, 66, 66)" stroke-width="1px" opacity="0.25"></line><line x1="0" y1="12.614285673413953" x2="247.31899738311768" y2="12.614285673413953" fill="rgb(0, 0, 0)" stroke="rgb(66, 66, 66)" stroke-width="1px" opacity="0.25"></line><line x1="0" y1="0" x2="247.31899738311768" y2="0" fill="rgb(0, 0, 0)" stroke="rgb(66, 66, 66)" stroke-width="1px" opacity="0.25"></line></g></g></g><g><g><line x1="0" y1="163.98571375438146" x2="247.31899738311768" y2="163.98571375438146" fill="rgb(0, 0, 0)" stroke="rgb(153, 153, 153)" stroke-width="1.5px"></line></g></g><g><g><line x1="20.60991644859314" y1="0" x2="20.60991644859314" y2="176.5999994277954" fill="rgb(0, 0, 0)" stroke="rgb(153, 153, 153)" stroke-width="1.5px"></line></g></g><g><g><g><g><g><path style="fill: none;" stroke="rgb(0, 153, 136)" stroke-width="2px" d="M20.815809513914584,163.98571375383216L21.021908678400518,163.98571375368047L21.22800784288645,163.9857137535969L21.43410700737238,163.9857137532982L21.64020617185831,163.9857137528382L21.84630533634424,163.9857137523809L22.052404500830175,163.98571375172034L22.258503665316105,163.98571375098334L22.464602829802036,163.9857137502386L22.670701994287967,163.98571374925362L22.876801158773898,163.9857137482094L23.08290032325983,163.9857137474029L23.288999487745762,163.98571374665244L23.495098652231693,163.98571374538463L23.701197816717624,163.98571374462986L23.907296981203558,163.985713743892L24.113396145689485,163.98571374252L24.31949531017542,163.98571374077852L24.52559447466135,163.98571373866466L24.73169363914728,163.98571373574998L24.937792803633215,163.9857137332468L25.143891968119142,163.98571372976028L25.349991132605076,163.98571372706942L25.556090297091007,163.9857137261951L25.762189461576938,163.98571372281899L25.968288626062872,163.98571372184915L26.1743877905488,163.98571371725262L26.380486955034733,163.98571371501316L26.586586119520668,163.9857137125218L26.792685284006595,163.98571370991948L26.99878444849253,163.9857137076997L27.204883612978456,163.9857137071457L27.41098277746439,163.98571370496398L27.61708194195032,163.9857137027724L27.82318110643625,163.98571370039957L28.029280270922186,163.98571369926864L28.235379435408113,163.98571369678317L28.441478599894047,163.98571369160035L28.647577764379978,163.98571368864523L28.85367692886591,163.9857136832354L29.059776093351843,163.98571367715522L29.26587525783777,163.98571366999983L29.471974422323704,163.98571366122965L29.678073586809635,163.9857136573941L29.884172751295566,163.98571364931726L30.090271915781496,163.9857136427462L30.29637108026743,163.98571364363275L30.50247024475336,163.9857136389917L30.708569409239292,163.98571363135244L30.914668573725223,163.98571362206823L31.120767738211157,163.9857136082494L31.326866902697088,163.98571359933035L31.53296606718302,163.98571358994238L31.739065231668945,163.9857135809966L31.945164396154883,163.98571357702232L32.151263560640814,163.98571357565837L32.35736272512674,163.98571356013088L32.563461889612675,163.98571355764335L32.76956105409861,163.98571354895657L32.97566021858454,163.98571354041374L33.18175938307047,163.98571352835222L33.3878585475564,163.98571350446292L33.59395771204233,163.98571349996612L33.80005687652826,163.9857134717847L34.006156041014194,163.98571346540515L34.21225520550013,163.98571344219746L34.418354369986055,163.98571342493273L34.62445353447199,163.9857134150631L34.830552698957916,163.98571340466194L35.03665186344385,163.98571338707362L35.242751027929785,163.98571335999097L35.44885019241571,163.9857133527845L35.654949356901646,163.98571332132173L35.86104852138758,163.9857133018984L36.06714768587351,163.98571328781625L36.27324685035944,163.98571328099996L36.47934601484537,163.9857132663384L36.6854451793313,163.9857132412115L36.89154434381723,163.98571320839207L37.097643508303165,163.98571319702341L37.3037426727891,163.9857131959891L37.509841837275026,163.98571318514095L37.71594100176096,163.98571317167406L37.922040166246894,163.9857131592377L38.12813933073282,163.98571314544344L38.33423849521875,163.98571313095448L38.54033765970469,163.9857131006638L38.74643682419062,163.985713098167L38.952535988676544,163.98571309551866L39.15863515316248,163.98571309557212L39.36473431764841,163.98571307267505L39.57083348213434,163.98571305015668L39.776932646620274,163.98571303789535L39.98303181110621,163.9857130153533L40.189130975592136,163.98571297626222L40.39523014007806,163.98571297314348L40.601329304564004,163.98571293788922L40.80742846904993,163.9857129255504L41.01352763353586,163.985712902527L41.2196267980218,163.9857128986944L41.42572596250773,163.98571284763798L41.631825126993654,163.98571280289318L41.83792429147958,163.98571274845972L42.04402345596552,163.98571275499359L42.25012262045145,163.985712749065L42.45622178493738,163.98571271840044L42.66232094942332,163.98571269068836L42.868420113909245,163.98571266638746L43.07451927839517,163.98571262038791L43.280618442881114,163.98571257447972L43.48671760736704,163.98571248448087L43.69281677185297,163.9857124722794L43.8989159363389,163.9857124289465L44.105015100824836,163.98571240859766L44.31111426531076,163.98571238360165L44.51721342979669,163.9857123533867L44.72331259428263,163.98571233270786L44.92941175876856,163.98571228812503L45.135510923254486,163.9857122205761L45.34161008774042,163.98571218067755L45.547709252226355,163.98571215780882L45.75380841671228,163.98571210159517L45.959907581198216,163.98571201398195L46.16600674568415,163.9857119704731L46.37210591017008,163.98571195148517L46.57820507465601,163.9857119480085L46.784304239141946,163.98571190104673L46.99040340362787,163.98571182440554L47.1965025681138,163.9857117826268L47.402601732599734,163.98571178235696L47.60870089708567,163.98571172452557L47.814800061571596,163.9857116906577L48.02089922605753,163.9857116615565L48.226998390543464,163.98571155355305L48.43309755502939,163.98571147140083L48.639196719515326,163.98571143476062L48.84529588400125,163.98571133562498L49.05139504848719,163.9857113002641L49.257494212973114,163.98571126254498L49.46359337745905,163.98571117527175L49.66969254194498,163.9857111293897L49.87579170643091,163.98571107079448L50.081890870916844,163.98571108521807L50.28799003540277,163.98571101512186L50.494089199888705,163.9857109345171L50.70018836437464,163.9857108062269L50.90628752886057,163.98571070872865L51.1123866933465,163.98571069621877L51.318485857832435,163.98571059154082L51.52458502231836,163.985710572234L51.7306841868043,163.985710497272L51.936783351290224,163.98571036223672L52.14288251577616,163.98571031875966L52.348981680262085,163.98571017948615L52.55508084474802,163.98571008193917L52.761180009233954,163.9857099745058L52.96727917371988,163.98570983212392L53.173378338205815,163.9857097217593L53.37947750269175,163.9857096348441L53.585576667177676,163.98570955786218L53.7916758316636,163.98570949517028L53.997774996149545,163.98570938626477L54.20387416063547,163.98570926847205L54.4099733251214,163.9857091384822L54.61607248960733,163.98570908432634L54.82217165409327,163.98570888558584L55.028270818579195,163.98570875104545L55.23436998306513,163.98570864333388L55.44046914755106,163.9857083959258L55.64656831203699,163.98570817131932L55.85266747652292,163.98570801016285L56.05876664100886,163.98570788201485L56.264865805494786,163.9857077955613L56.47096496998071,163.9857076150437L56.677064134466654,163.9857075311241L56.88316329895258,163.98570732398264L57.08926246343851,163.98570724912753L57.295361627924436,163.9857071028876L57.50146079241038,163.98570684907136L57.707559956896304,163.98570674768263L57.91365912138223,163.9857065421661L58.11975828586817,163.9857063542914L58.3258574503541,163.98570619822974L58.53195661484003,163.9857057139487L58.73805577932597,163.98570552450664L58.944154943811895,163.98570534560068L59.15025410829782,163.9857051144629L59.35635327278376,163.98570483757638L59.56245243726969,163.98570465354953L59.76855160175562,163.9857042481292L59.974650766241545,163.9857039998019L60.18074993072749,163.9857035369967L60.386849095213414,163.98570291957702L60.59294825969934,163.98570284666297L60.799047424185275,163.9857023168454L61.00514658867121,163.98570217314258L61.21124575315714,163.98570175876233L61.41734491764307,163.98570137794457L61.623444082129005,163.9857008021705L61.82954324661493,163.98570016344684L62.035642411100866,163.98569980826633L62.24174157558679,163.98569936225226L62.44784074007273,163.98569916547646L62.65393990455866,163.98569898760869L62.86003906904458,163.98569840939885L63.06613823353052,163.98569796498566L63.27223739801646,163.9856971532867L63.47833656250238,163.9856961588866L63.68443572698832,163.98569572899592L63.89053489147425,163.98569490772965L64.09663405596018,163.98569434785176L64.30273322044611,163.98569349625603L64.50883238493205,163.9856926783352L64.71493154941797,163.98569181646477L64.9210307139039,163.98569117125717L65.12712987838984,163.9856903661581L65.33322904287576,163.9856893675579L65.5393282073617,163.98568848338866L65.74542737184764,163.98568789622794L65.95152653633356,163.98568677983317L66.1576257008195,163.9856857480067L66.36372486530541,163.98568500128508L66.56982402979135,163.98568426670852L66.77592319427728,163.98568379412936L66.98202235876322,163.98568221799704L67.18812152324915,163.98568118551069L67.39422068773509,163.9856795128941L67.600319852221,163.98567814110808L67.80641901670694,163.98567651826195L68.01251818119287,163.98567514300714L68.21861734567881,163.98567325367804L68.42471651016474,163.98567226702264L68.63081567465068,163.9856709608453L68.8369148391366,163.98566853577128L69.04301400362253,163.9856673229785L69.24911316810847,163.9856654994012L69.45521233259439,163.98566406560238L69.66131149708033,163.98566172537176L69.86741066156627,163.9856608425446L70.07350982605219,163.98565771552654L70.27960899053812,163.9856557408053L70.48570815502406,163.98565375681534L70.69180731950998,163.98565227654365L70.89790648399591,163.98565056550166L71.10400564848185,163.98565028996006L71.31010481296778,163.98564853688083L71.51620397745371,163.985644697082L71.72230314193963,163.985643321087L71.92840230642557,163.98564130176285L72.1345014709115,163.9856380003475L72.34060063539742,163.98563647345085L72.54669979988337,163.98563374695308L72.7527989643693,163.98563210802408L72.95889812885522,163.98563000988975L73.16499729334116,163.9856277048733L73.3710964578271,163.98562470009676L73.57719562231301,163.98562135143712L73.78329478679895,163.98561989187093L73.9893939512849,163.9856157883029L74.19549311577082,163.98561225347495L74.40159228025675,163.98560818500866L74.60769144474268,163.9856043400589L74.8137906092286,163.9856017020671L75.01988977371454,163.9855986124314L75.22598893820047,163.9855956711939L75.43208810268641,163.98559251944997L75.63818726717234,163.985586419896L75.84428643165828,163.9855838357848L76.0503855961442,163.98557921414397L76.25648476063013,163.9855766761567L76.46258392511605,163.98557255953432L76.668683089602,163.9855667371699L76.87478225408793,163.98556222430167L77.08088141857385,163.98555660435898L77.28698058305979,163.9855498401986L77.49307974754572,163.9855481917054L77.69917891203164,163.98554426158657L77.90527807651758,163.98553989222808L78.11137724100352,163.9855335850801L78.31747640548944,163.98552607727706L78.52357556997538,163.98552255796312L78.72967473446131,163.98551415622194L78.93577389894723,163.98550716341373L79.14187306343317,163.98550160801284L79.3479722279191,163.98549203818936L79.55407139240504,163.98548521888478L79.76017055689097,163.9854763282463L79.9662697213769,163.98547095744354L80.17236888586282,163.98546613090988L80.37846805034876,163.98545718483288L80.58456721483469,163.9854441878093L80.79066637932061,163.98543263197823L80.99676554380656,163.98542831124306L81.2028647082925,163.98542373763468L81.40896387277841,163.98541329372554L81.61506303726435,163.98540149472794L81.82116220175027,163.9853923773834L82.0272613662362,163.98538567560968L82.23336053072214,163.9853758197081L82.43945969520807,163.98536752186268L82.645558859694,163.9853602726828L82.85165802417994,163.98535432596623L83.05775718866586,163.98533664509327L83.2638563531518,163.9853205166282L83.46995551763773,163.98531010942858L83.67605468212366,163.9852990415881L83.8821538466096,163.9852864618567L84.08825301109553,163.98527187031883L84.29435217558145,163.98525726632323L84.50045134006739,163.9852410235544L84.70655050455332,163.9852294453308L84.91264966903924,163.98521672026925L85.11874883352519,163.985199772189L85.32484799801112,163.98518129642397L85.53094716249704,163.98515297326622L85.73704632698298,163.98513797235566L85.94314549146891,163.98512290567464L86.14924465595483,163.98510462357214L86.35534382044077,163.98508198307576L86.5614429849267,163.9850659348804L86.76754214941263,163.98505721731027L86.97364131389857,163.98504218949955L87.17974047838449,163.9850187358573L87.38583964287042,163.9849995190058L87.59193880735636,163.9849642223957L87.79803797184228,163.9849318255469L88.00413713632823,163.98491593269114L88.21023630081416,163.98489387938227L88.41633546530008,163.98486911782524L88.62243462978601,163.98484576159385L88.82853379427195,163.98482077611362L89.03463295875787,163.98477958920793L89.2407321232438,163.9847485361403L89.44683128772975,163.98472393946298L89.65293045221567,163.9846855190838L89.8590296167016,163.98465191101218L90.06512878118754,163.98461901914578L90.27122794567346,163.9845913723731L90.4773271101594,163.9845537864601L90.68342627464533,163.9845395453785L90.88952543913126,163.9844976290955L91.0956246036172,163.98446003300765L91.30172376810313,163.9844275243806L91.50782293258905,163.9843902373054L91.71392209707498,163.98434619470066L91.9200212615609,163.98431234503474L92.12612042604685,163.98424336937407L92.33221959053279,163.98421012889784L92.53831875501871,163.98417027622838L92.74441791950464,163.98411980875932L92.95051708399058,163.98406837001204L93.1566162484765,163.98403262794423L93.36271541296243,163.98402045052134L93.56881457744838,163.98392052156186L93.7749137419343,163.98386477786698L93.98101290642023,163.9838365726777L94.18711207090617,163.98379508351528L94.39321123539209,163.98370950011216L94.59931039987802,163.98366014499112L94.80540956436396,163.98358919531555L95.01150872884989,163.98350772323076L95.21760789333582,163.98347833829578L95.42370705782176,163.98342493555037L95.62980622230768,163.98341216173696L95.83590538679361,163.98335259893088L96.04200455127955,163.98330691969335L96.24810371576547,163.98323719371848L96.45420288025142,163.98316767456868L96.66030204473735,163.98308837259728L96.86640120922327,163.9830130138504L97.0725003737092,163.98291310285876L97.27859953819512,163.98282502538825L97.48469870268106,163.98277337232093L97.69079786716699,163.98263312238214L97.89689703165293,163.9825655946624L98.10299619613886,163.98249211818018L98.3090953606248,163.98242839274948L98.51519452511072,163.9823154348874L98.72129368959665,163.98220226090965L98.92739285408258,163.9821051318732L99.13349201856852,163.9819789319632L99.33959118305445,163.98184594900593L99.54569034754039,163.9817403189927L99.7517895120263,163.98158321431868L99.95788867651224,163.9814585021822L100.16398784099817,163.98129652931115L100.3700870054841,163.981192603022L100.57618616997004,163.98101665909465L100.78228533445598,163.98083506535426L100.9883844989419,163.9806771040235L101.19448366342783,163.98049305992194L101.40058282791377,163.98039303345342L101.60668199239969,163.98028117493163L101.81278115688562,163.98017560802833L102.01888032137155,163.98004117307292L102.22497948585749,163.97992688897912L102.43107865034342,163.9797437393982L102.63717781482934,163.9796333099112L102.84327697931528,163.97949162161754L103.04937614380121,163.9793284798742L103.25547530828713,163.9790502271584L103.46157447277308,163.97885190839392L103.66767363725901,163.97866625951738L103.87377280174493,163.97854630581926L104.07987196623087,163.97829758174208L104.2859711307168,163.97800504615822L104.49207029520272,163.9778661208274L104.69816945968866,163.97771371519772L104.9042686241746,163.97743395812788L105.11036778866053,163.97722199456155L105.31646695314646,163.97692187251212L105.5225661176324,163.97684186166202L105.72866528211831,163.97667135611826L105.93476444660425,163.97627499123655L106.14086361109018,163.97591232038505L106.34696277557612,163.9755730669047L106.55306194006205,163.97520801748L106.75916110454799,163.97491947320748L106.9652602690339,163.97456746354848L107.17135943351984,163.97436344437506L107.37745859800576,163.97419561099682L107.58355776249171,163.97392032202976L107.78965692697764,163.97368829236152L107.99575609146356,163.9734002866442L108.2018552559495,163.9730753812914L108.40795442043543,163.97258549918686L108.61405358492135,163.9722310526841L108.82015274940728,163.97204942234126L109.02625191389323,163.97167975876735L109.23235107837915,163.9711954564471L109.43845024286509,163.9708670242193L109.64454940735102,163.97040565187655L109.85064857183694,163.97010816600854L110.05674773632288,163.96955436363606L110.26284690080881,163.96901621406067L110.46894606529474,163.96865913699168L110.67504522978068,163.9683266692726L110.88114439426661,163.9681600641832L111.08724355875253,163.96750106270173L111.29334272323847,163.96715433016604L111.4994418877244,163.96625469010382L111.70554105221032,163.96566708010118L111.91164021669627,163.9646682448386L112.1177393811822,163.96437069479288L112.32383854566812,163.96404193765758L112.52993771015406,163.96360133451316L112.73603687463998,163.96280131449916L112.94213603912591,163.96241914296394L113.14823520361185,163.96163837151647L113.35433436809778,163.96127521277688L113.56043353258372,163.96072235466013L113.76653269706965,163.96017188119058L113.97263186155557,163.9590901953606L114.1787310260415,163.95778811873274L114.38483019052744,163.95687341204172L114.59092935501337,163.9564220806258L114.7970285194993,163.95566743605573L115.00312768398524,163.95522328687505L115.20922684847116,163.9543612098965L115.4153260129571,163.95376039002122L115.62142517744303,163.95272112672717L115.82752434192895,163.9521600549674L116.0336235064149,163.9513128121803L116.23972267090083,163.95024552271622L116.44582183538675,163.95008765499094L116.65192099987269,163.94911835031925L116.85802016435862,163.9479645321018L117.06411932884454,163.94770605299445L117.27021849333047,163.94721226786632L117.47631765781641,163.94573844183358L117.68241682230234,163.94487730379402L117.88851598678828,163.9443732239309L118.0946151512742,163.9432235414737L118.30071431576013,163.94200569309427L118.50681348024607,163.94108075178852L118.71291264473199,163.9398541287039L118.91901180921793,163.93826538920868L119.12511097370387,163.937119209208L119.33121013818979,163.93504934775285L119.53730930267572,163.93365328542495L119.74340846716166,163.9322341173538L119.94950763164758,163.93062086495098L120.15560679613351,163.92913192205566L120.36170596061946,163.92793868002465L120.56780512510538,163.92690208748812L120.77390428959131,163.92518748678202L120.98000345407725,163.92367162715198L121.18610261856317,163.92258068809303L121.3922017830491,163.92095572418455L121.59830094753504,163.9192261795131L121.80440011202097,163.9177634043714L122.0104992765069,163.91545790500595L122.21659844099284,163.91283684979769L122.42269760547876,163.9121555004416L122.6287967699647,163.9108135953008L122.83489593445061,163.90797153945627L123.04099509893656,163.90627762232344L123.2470942634225,163.90597463064444L123.45319342790842,163.90500021153352L123.65929259239435,163.90250812529993L123.86539175688029,163.89981740985866L124.07149092136622,163.8974697322482L124.27759008585215,163.89691236601476L124.48368925033807,163.8956946111443L124.68978841482401,163.89346761371422L124.89588757930994,163.89036453432254L125.10198674379588,163.88768415771267L125.30808590828181,163.88327325860448L125.51418507276772,163.88026970048833L125.72028423725365,163.87698117210022L125.9263834017396,163.87504104389538L126.13248256622553,163.87265552173375L126.33858173071147,163.86871993622498L126.5446808951974,163.86632293371358L126.75078005968331,163.8638629569789L126.95687922416924,163.86076627595045L127.16297838865518,163.85625813527784L127.36907755314112,163.85241093651786L127.57517671762706,163.85159885983583L127.781275882113,163.84824006165783L127.9873750465989,163.84590807347863L128.19347421108483,163.84252349527756L128.39957337557078,163.83879620123565L128.6056725400567,163.8357713103168L128.81177170454265,163.83186666588367L129.01787086902857,163.8281688336286L129.2239700335145,163.82589834146714L129.43006919800044,163.82225178886299L129.63616836248636,163.82009177851387L129.8422675269723,163.81484353765904L130.04836669145823,163.80988095763502L130.25446585594418,163.80823254542634L130.46056502043007,163.80191553594804L130.66666418491602,163.79817430815177L130.87276334940196,163.79485948846119L131.07886251388788,163.79248067931627L131.28496167837383,163.7867266589093L131.49106084285972,163.78328133470887L131.69716000734567,163.7754562169933L131.9032591718316,163.7707421135267L132.10935833631754,163.7653402302814L132.3154575008035,163.76129668199286L132.5215566652894,163.75719340569992L132.72765582977533,163.7476618717935L132.93375499426125,163.74301760099056L133.1398541587472,163.7397314075185L133.34595332323312,163.7352573973027L133.55205248771907,163.73184808034782L133.75815165220502,163.72964461573395L133.9642508166909,163.72089678325636L134.17034998117686,163.71308922022732L134.37644914566278,163.70331183504248L134.58254831014872,163.69515914762803L134.78864747463464,163.6853547613716L134.9947466391206,163.68344363022513L135.2008458036065,163.6760909538251L135.40694496809243,163.67559760325224L135.61304413257838,163.66813947824903L135.8191432970643,163.66571538936003L136.02524246155025,163.65353386402646L136.23134162603614,163.64205791048246L136.4374407905221,163.6322780106545L136.64353995500804,163.62647335173548L136.84963911949396,163.61073519525476L137.0557382839799,163.6051206663319L137.26183744846583,163.6003668856411L137.46793661295175,163.59446722068566L137.67403577743767,163.5803471147504L137.88013494192361,163.58006895824624L138.08623410640956,163.57256295983407L138.29233327089548,163.5665884321607L138.49843243538143,163.56060617653927L138.70453159986732,163.54973432675348L138.91063076435327,163.5389961889237L139.1167299288392,163.53131977801786L139.32282909332514,163.5189937435267L139.5289282578111,163.50384493633578L139.735027422297,163.493872842812L139.94112658678293,163.48479708493917L140.14722575126885,163.4794531460852L140.3533249157548,163.46292415900973L140.55942408024072,163.45578038174384L140.76552324472667,163.44802428858506L140.97162240921259,163.4310220440761L141.1777215736985,163.40845156804997L141.38382073818445,163.40279105240856L141.58991990267037,163.38551324856212L141.79601906715632,163.37215524349034L142.00211823164224,163.36753635524408L142.20821739612816,163.36342871350695L142.4143165606141,163.3473743111712L142.62041572510003,163.33736531496012L142.82651488958598,163.31748992634425L143.0326140540719,163.30054872254155L143.23871321855785,163.28662048106952L143.44481238304377,163.2760098369608L143.6509115475297,163.26288178336657L143.85701071201564,163.24712324657816L144.06310987650156,163.22725483830195L144.2692090409875,163.2219696939021L144.47530820547343,163.20798967393844L144.68140736995935,163.19459874489212L144.8875065344453,163.1724679684523L145.0936056989312,163.15347248405433L145.29970486341716,163.1482470091985L145.50580402790308,163.12910632062633L145.71190319238903,163.1189208613177L145.91800235687492,163.10240957042174L146.12410152136087,163.08808304681583L146.33020068584682,163.07044371652162L146.53629985033274,163.04789931854262L146.7423990148187,163.03740671188626L146.94849817930458,163.02587216108293L147.15459734379053,162.99658906401515L147.36069650827645,162.97191963237367L147.5667956727624,162.9457354930736L147.77289483724834,162.92127769495602L147.97899400173426,162.90356034825754L148.18509316622018,162.8769880352306L148.3911923307061,162.8593328215681L148.59729149519205,162.838596966249L148.80339065967797,162.81136888727073L149.00948982416392,162.7909195131005L149.21558898864987,162.76757931570418L149.42168815313576,162.74016814213542L149.6277873176217,162.71553497168966L149.83388648210763,162.6846538364499L150.03998564659358,162.6799373323881L150.2460848110795,162.65885275333738L150.45218397556545,162.63747603961176L150.65828314005137,162.60883583537768L150.8643823045373,162.5920065848996L151.07048146902324,162.5503376643562L151.27658063350916,162.52353242168593L151.4826797979951,162.4811972073001L151.688778962481,162.44541080538673L151.89487812696694,162.42847735567L152.1009772914529,162.39771981791353L152.3070764559388,162.3588831748795L152.51317562042476,162.328725156815L152.71927478491068,162.30545550303177L152.9253739493966,162.2905753846559L153.13147311388252,162.25021990707324L153.33757227836847,162.2254398277357L153.54367144285442,162.16858194595181L153.74977060734034,162.13655288502147L153.9558697718263,162.08250767838618L154.16196893631218,162.07019893532473L154.36806810079813,162.05313687624982L154.57416726528405,162.02270860311324L154.78026642977,162.00192906942172L154.98636559425594,161.9518396949454L155.19246475874186,161.92858758738296L155.39856392322778,161.90252768656222L155.6046630877137,161.8476137899008L155.81076225219965,161.84747240681517L156.01686141668557,161.76763527109182L156.22296058117152,161.7081723876344L156.42905974565744,161.6874643850667L156.63515891014336,161.64739565627542L156.8412580746293,161.61788987465675L157.04735723911523,161.59522349064613L157.25345640360118,161.56221508171484L157.4595555680871,161.48547580953334L157.66565473257302,161.41528701700156L157.87175389705897,161.40870223821213L158.0778530615449,161.33111264412895L158.28395222603083,161.30008415351887L158.49005139051675,161.25872477443477L158.6961505550027,161.2070458953411L158.90224971948862,161.21508567716512L159.10834888397454,161.15023338230858L159.3144480484605,161.10045805543595L159.5205472129464,161.04380427068998L159.72664637743236,160.9860943808826L159.93274554191828,160.95415674602285L160.1388447064042,160.91427266324385L160.34494387089015,160.83976105848532L160.55104303537607,160.82544414685083L160.75714219986202,160.78397562835778L160.96324136434794,160.71671773541271L161.16934052883389,160.63408262843512L161.37543969331978,160.60198714569597L161.58153885780573,160.54113836250409L161.78763802229167,160.46207042462325L161.9937371867776,160.44614427352337L162.19983635126354,160.40208906539226L162.40593551574943,160.3716859945078L162.61203468023538,160.27815776737484L162.8181338447213,160.17431279262334L163.02423300920725,160.09766246616633L163.2303321736932,160.02205457640795L163.43643133817912,159.93232819379128L163.64253050266504,159.83825177977477L163.84862966715096,159.8061473709049L164.0547288316369,159.71238759002642L164.26082799612283,159.6679166541298L164.46692716060878,159.5884484624864L164.67302632509472,159.51619356266357L164.87912548958062,159.50233151381082L165.08522465406656,159.38897403975574L165.29132381855248,159.28676617439953L165.49742298303843,159.18813034619114L165.70352214752435,159.15901476188142L165.9096213120103,159.11855628687144L166.11572047649622,159.11284984040353L166.32181964098214,159.09721024298537L166.5279188054681,158.98611487328705L166.734017969954,158.92092003761712L166.94011713443996,158.85713129985993L167.14621629892585,158.83072006269532L167.3523154634118,158.6860330815596L167.55841462789775,158.57272791512997L167.76451379238367,158.4554196250057L167.97061295686962,158.36336163968085L168.17671212135554,158.25964802577207L168.38281128584146,158.13315274200164L168.58891045032738,158.06587807861115L168.79500961481332,158.0231626523126L169.00110877929927,157.86549504496028L169.2072079437852,157.78359620163593L169.41330710827114,157.6255026435571L169.61940627275703,157.55219314982324L169.82550543724298,157.4594740503431L170.0316046017289,157.2451801154178L170.23770376621485,157.19599120880034L170.4438029307008,157.07395694385383L170.64990209518672,157.0670524367784L170.85600125967264,156.94210945565496L171.06210042415856,156.75962817548074L171.2681995886445,156.6583343133378L171.47429875313043,156.64445154818944L171.68039791761638,156.57507197024356L171.8864970821023,156.56480601519442L172.09259624658822,156.50817340803522L172.29869541107416,156.4973274743553L172.50479457556008,156.32422398109335L172.71089374004603,156.15242434646558L172.91699290453195,156.06973299917297L173.12309206901787,155.97130894728662L173.32919123350382,155.98795762134688L173.53529039798974,155.81954027269387L173.7413895624757,155.6859596260786L173.9474887269616,155.5896002697489L174.15358789144756,155.36286993919606L174.35968705593348,155.32054895719602L174.5657862204194,155.1946559665895L174.77188538490535,154.94758812743243L174.97798454939127,154.87793230857434L175.18408371387721,154.81671739968164L175.39018287836313,154.60875483187212L175.59628204284905,154.46323658177545L175.802381207335,154.3631240983923L176.00848037182092,154.19766330007297L176.21457953630687,154.08883382752L176.4206787007928,153.92771062140764L176.62677786527874,153.9527270283546L176.83287702976463,153.67910592125625L177.03897619425058,153.52793601290878L177.24507535873653,153.388407625374L177.45117452322245,153.30613633094205L177.6572736877084,153.24393461667756L177.8633728521943,153.03391942251665L178.06947201668024,153.02917892114667L178.27557118116616,152.80994205783495L178.4816703456521,152.58688377177245L178.68776951013805,152.4229317023123L178.89386867462397,152.28702774055793L179.0999678391099,152.20581060838646L179.3060670035958,152.19393498349393L179.51216616808176,152.0481528057294L179.71826533256768,151.8808894182674L179.92436449705363,151.84785984495502L180.13046366153958,151.7084072265324L180.33656282602547,151.61103195589644L180.54266199051142,151.37756772802064L180.74876115499734,151.31129217467264L180.9548603194833,151.1494977447554L181.1609594839692,151.04328536473813L181.36705864845516,150.81397087032934L181.57315781294108,150.62966509753974L181.779256977427,150.4534857743223L181.98535614191294,150.1789628802662L182.19145530639886,150.08331269791518L182.3975544708848,149.75555324704726L182.6036536353707,149.6568494334803L182.80975279985665,149.4069591675353L183.0158519643426,149.26727585538964L183.22195112882852,149.37866746342598L183.42805029331447,149.23744595049536L183.6341494578004,148.77922632838897L183.8402486222863,148.58665933212134L184.04634778677223,148.3345938026943L184.25244695125818,148.1369514448256L184.45854611574413,147.87012577970117L184.66464528023005,147.52926573191294L184.870744444716,147.26151179190816L185.0768436092019,146.92135583141098L185.28294277368784,147.0093383912069L185.48904193817376,146.97371345587536L185.6951411026597,146.53870077272978L185.90124026714565,146.44562068792814L186.10733943163157,146.37621926858057L186.3134385961175,146.3338263808826L186.5195377606034,146.2750745882502L186.72563692508936,146.07516736391239L186.93173608957528,145.9219447988954L187.13783525406123,145.68959556504046L187.34393441854715,145.2281382978053L187.55003358303307,144.99388371680882L187.75613274751902,144.81556867995752L187.96223191200494,144.26149007127103L188.1683310764909,143.88007391692145L188.3744302409768,143.73682794194218L188.58052940546273,143.38678245933602L188.78662856994868,143.15356441150578L188.9927277344346,142.65946135800948L189.19882689892054,142.3971490802929L189.40492606340646,142.20655410419943L189.6110252278924,141.9767350899387L189.81712439237833,141.64638300117343L190.02322355686425,141.40274666852818L190.2293227213502,141.5374239555786L190.43542188583612,141.31009351836764L190.64152105032207,141.22853888538293L190.847620214808,141.18273768366544L191.0537193792939,140.93519533401386L191.25981854377986,140.48571961029813L191.46591770826578,140.24389107674608L191.67201687275173,139.88743643045177L191.87811603723765,139.72768362672883L192.0842152017236,139.39581300022883L192.2903143662095,138.93892623067705L192.49641353069543,138.47944036900782L192.70251269518138,138.3926806935977L192.9086118596673,137.8688973575395L193.11471102415325,137.54553730206987L193.32081018863914,137.1747414370599L193.5269093531251,137.0389942922774L193.733008517611,136.46850967696327L193.93910768209696,136.1382008634038L194.1452068465829,135.69973802533738L194.35130601106883,135.79266541147814L194.55740517555475,135.6542090923077L194.76350434004067,135.13587313911384L194.96960350452662,134.57481083543033L195.17570266901254,134.67136795173673L195.38180183349849,134.45763825327845L195.58790099798443,133.47117706272755L195.79400016247033,133.43575206597765L196.00009932695627,133.16736986393744L196.2061984914422,132.8241324349L196.41229765592814,132.69675362903627L196.61839682041406,132.2244112867076L196.8244959849,131.9498484270416L197.03059514938593,131.36558163145978L197.23669431387185,131.0491771454207L197.4427934783578,130.97886113116877L197.64889264284372,130.33764921248408L197.85499180732967,130.13646119857776L198.06109097181556,129.60118770101298L198.2671901363015,129.3205165030865L198.47328930078746,129.07857937728994L198.67938846527338,128.73958104199528L198.88548762975933,127.89595009740812L199.09158679424525,127.37422104619844L199.29768595873117,126.60359985614527L199.50378512321709,126.87375750320656L199.70988428770303,126.73633483639566L199.91598345218898,126.1523421692564L200.1220826166749,126.14245796681205L200.32818178116085,125.37996549226791L200.53428094564674,125.15942426292092L200.7403801101327,124.691906351538L200.9464792746186,124.43521088238344L201.15257843910456,123.91535689659537L201.3586776035905,122.88192318098571L201.56477676807643,122.57446390270208L201.77087593256235,122.17288617407789L201.97697509704827,121.49918793122423L202.18307426153422,120.96334678427475L202.38917342602014,120.29114013759522L202.59527259050608,119.75476035239979L202.801371754992,120.18616871098304L203.00747091947792,119.60309384816594L203.21357008396387,118.99194422451501L203.4196692484498,117.92069842540657L203.62576841293574,118.07979617140262L203.83186757742166,117.40649884721674L204.03796674190758,117.29237778712158L204.24406590639353,116.70826881320541L204.45016507087945,116.04499083683966L204.6562642353654,115.57292620287431L204.86236339985132,114.86929747031529L205.06846256433727,114.9241706975697L205.2745617288232,114.12948338688578L205.4806608933091,113.48370579075056L205.68676005779506,113.0346482466228L205.89285922228098,112.58802357679318L206.09895838676692,111.92159310081477L206.30505755125284,110.9320175600499L206.51115671573876,110.4424634841021L206.7172558802247,109.25509985170861L206.92335504471063,108.65930995905747L207.12945420919658,107.55980776892774L207.3355533736825,106.59377890228619L207.54165253816845,106.49315218682327L207.74775170265434,105.95100572173891L207.9538508671403,104.51517679610375L208.15995003162624,103.66365243309592L208.36604919611216,103.37059109671061L208.5721483605981,102.2892636094714L208.778247525084,102.48371458130856L208.98434668956995,101.58415873364385L209.19044585405587,100.64405406612264L209.39654501854181,100.02127536784305L209.60264418302776,98.34785660680448L209.80874334751368,98.27983066280271L210.0148425119996,97.97954656655196L210.22094167648552,97.46945466278689L210.42704084097147,96.85463262783765L210.6331400054574,96.1297195643015L210.83923916994334,95.75670461675459L211.0453383344293,95.91457666791021L211.25143749891518,94.98947448115746L211.45753666340113,93.64489067698798L211.66363582788705,92.50976148785558L211.869734992373,92.32524982087575L212.07583415685892,90.9349421538336L212.28193332134487,90.37190079251319L212.4880324858308,90.80627878424892L212.6941316503167,90.18719393926813L212.90023081480265,88.69929974877812L213.10632997928857,85.78219964820005L213.31242914377452,85.07427289892163L213.51852830826041,83.59864709310108L213.72462747274636,83.40772393087212L213.9307266372323,83.86513540074674L214.13682580171823,83.01786749631493L214.34292496620418,82.46003728071992L214.5490241306901,81.80576637439171L214.75512329517602,82.51185566654586L214.96122245966194,80.66236623671186L215.1673216241479,79.21600101032695L215.37342078863384,78.41166564482577L215.57951995311976,78.09041293910379L215.7856191176057,76.79602085932838L215.9917182820916,74.93650245816968L216.19781744657755,73.58775509419623L216.40391661106347,71.94237877626102L216.6100157755494,70.1161026885975L216.81611494003536,69.75180491584845L217.02221410452128,69.22649614590416L217.2283132690072,68.24640651295579L217.43441243349312,67.76659138349837L217.64051159797907,66.38100449692537L217.846610762465,65.41756118382334L218.05270992695094,64.34744396020976L218.25880909143686,64.89546301004209L218.46490825592278,63.80743847426773L218.67100742040873,62.3989264379746L218.87710658489465,60.62739464076348L219.0832057493806,58.3752323193986L219.28930491386652,57.57027214621946L219.49540407835244,56.6812764500408L219.70150324283838,55.83874533383791L219.9076024073243,55.39131612215285L220.11370157181025,53.97618857641581L220.31980073629617,52.69076533795676L220.52589990078212,51.539453328828664L220.73199906526804,51.19711801386457L220.93809822975396,50.518204814798835L221.1441973942399,49.56155739111603L221.35029655872583,48.63132144542276L221.55639572321178,46.79729426435638L221.7624948876977,45.752998767531814L221.96859405218362,44.555416011422935L222.17469321666957,43.01043309774491L222.3807923811555,41.456212518325046L222.58689154564144,39.38932402458703L222.79299071012736,37.438881124552765L222.9990898746133,36.69370084114353L223.2051890390992,36.16195740523285L223.41128820358514,33.56389944396365L223.6173873680711,33.52854588431746L223.823486532557,31.93048156676838L224.02958569704296,28.86154726007838L224.23568486152885,29.09764720842926L224.4417840260148,26.09538374244895L224.64788319050072,25.430907933408832L224.85398235498667,23.024606393647126L225.06008151947262,21.277703592280464L225.26618068395854,19.90740590053347L225.47227984844446,17.988363363424707L225.67837901293038,16.585131858376926L225.88447817741633,15.91142269600203L226.09057734190225,15.990756527443212L226.2966765063882,15.852954380824952L226.50277567087414,14.361714082339128L226.70887483536004,13.17591404503574" fill="none"></path></g></g></g></g><g opacity="0.2"><g><g><g><path style="fill: none;" stroke="rgb(0, 153, 136)" stroke-width="2px" d="M20.815809513914584,163.98571375383216L21.021908678400518,163.9857137535591L21.22800784288645,163.98571375347666L21.43410700737238,163.98571375271507L21.64020617185831,163.98571375175192L21.84630533634424,163.98571375115097L22.052404500830175,163.98571374977087L22.258503665316105,163.9857137486535L22.464602829802036,163.98571374775958L22.670701994287967,163.98571374584242L22.876801158773898,163.9857137444811L23.08290032325983,163.98571374445407L23.288999487745762,163.98571374385668L23.495098652231693,163.98571374059225L23.701197816717624,163.98571374174358L23.907296981203558,163.98571374104446L24.113396145689485,163.9857137371864L24.31949531017542,163.98571373396948L24.52559447466135,163.98571373036157L24.73169363914728,163.98571372425917L24.937792803633215,163.98571372334953L25.143891968119142,163.98571371594284L25.349991132605076,163.98571371638542L25.556090297091007,163.98571372271846L25.762189461576938,163.98571370937833L25.968288626062872,163.9857137179844L26.1743877905488,163.98571369892204L26.380486955034733,163.98571370607706L26.586586119520668,163.9857137025757L26.792685284006595,163.98571369952617L26.99878444849253,163.9857136988316L27.204883612978456,163.98571370493184L27.41098277746439,163.98571369624406L27.61708194195032,163.98571369401154L27.82318110643625,163.9857136909131L28.029280270922186,163.9857136947468L28.235379435408113,163.98571368684452L28.441478599894047,163.98571367087447L28.647577764379978,163.98571367682717L28.85367692886591,163.98571366159962L29.059776093351843,163.98571365283775L29.26587525783777,163.98571364138138L29.471974422323704,163.98571362615186L29.678073586809635,163.9857136420529L29.884172751295566,163.98571361701173L30.090271915781496,163.98571361646307L30.29637108026743,163.98571364717884L30.50247024475336,163.98571362042813L30.708569409239292,163.98571360079598L30.914668573725223,163.9857135849321L31.120767738211157,163.9857135529749L31.326866902697088,163.98571356365446L31.53296606718302,163.9857135523909L31.739065231668945,163.98571354521366L31.945164396154883,163.98571356112544L32.151263560640814,163.9857135702025L32.35736272512674,163.9857134980211L32.563461889612675,163.98571354769334L32.76956105409861,163.9857135142094L32.97566021858454,163.9857135062425L33.18175938307047,163.9857134801063L33.3878585475564,163.9857134089058L33.59395771204233,163.98571348197885L33.80005687652826,163.98571335905908L34.006156041014194,163.98571343988706L34.21225520550013,163.9857133493667L34.418354369986055,163.98571335587383L34.62445353447199,163.98571337558454L34.830552698957916,163.98571336305736L35.03665186344385,163.9857133167204L35.242751027929785,163.98571325166026L35.44885019241571,163.9857133239587L35.654949356901646,163.98571319547068L35.86104852138758,163.985713224205L36.06714768587351,163.98571323148778L36.27324685035944,163.98571325373476L36.47934601484537,163.98571320769204L36.6854451793313,163.98571314070404L36.89154434381723,163.98571307711435L37.097643508303165,163.98571315154874L37.3037426727891,163.98571319185186L37.509841837275026,163.98571314174828L37.71594100176096,163.98571311780657L37.922040166246894,163.98571310949217L38.12813933073282,163.98571309026647L38.33423849521875,163.98571307299864L38.54033765970469,163.98571297950093L38.74643682419062,163.98571308817995L38.952535988676544,163.98571308492524L39.15863515316248,163.98571309578608L39.36473431764841,163.98571298108675L39.57083348213434,163.98571296008316L39.776932646620274,163.98571298885003L39.98303181110621,163.98571292518514L40.189130975592136,163.98571281989794L40.39523014007806,163.98571296066842L40.601329304564004,163.98571279687218L40.80742846904993,163.98571287619515L41.01352763353586,163.9857128104335L41.2196267980218,163.98571288336393L41.42572596250773,163.98571264341237L41.631825126993654,163.98571262391394L41.83792429147958,163.9857125307259L42.04402345596552,163.98571278112902L42.25012262045145,163.98571272535065L42.45622178493738,163.9857125957422L42.66232094942332,163.98571257984005L42.868420113909245,163.98571256918382L43.07451927839517,163.98571243638978L43.280618442881114,163.985712390847L43.48671760736704,163.98571212448542L43.69281677185297,163.98571242347353L43.8989159363389,163.98571225561486L44.105015100824836,163.9857123272023L44.31111426531076,163.98571228361757L44.51721342979669,163.9857122325269L44.72331259428263,163.9857122499925L44.92941175876856,163.9857121097937L45.135510923254486,163.98571195038045L45.34161008774042,163.98571202108337L45.547709252226355,163.9857120663338L45.75380841671228,163.9857118767406L45.959907581198216,163.98571166352912L46.16600674568415,163.9857117964376L46.37210591017008,163.9857118755336L46.57820507465601,163.9857119341016L46.784304239141946,163.98571171319983L46.99040340362787,163.98571151784077L47.1965025681138,163.9857116155118L47.402601732599734,163.98571178127756L47.60870089708567,163.98571149320003L47.814800061571596,163.9857115551862L48.02089922605753,163.98571154515167L48.226998390543464,163.98571112153934L48.43309755502939,163.98571114279193L48.639196719515326,163.98571128819967L48.84529588400125,163.98571093908254L49.05139504848719,163.98571115882046L49.257494212973114,163.98571111166865L49.46359337745905,163.98571082617877L49.66969254194498,163.9857109458615L49.87579170643091,163.9857108364136L50.081890870916844,163.9857111429124L50.28799003540277,163.98571073473704L50.494089199888705,163.9857106120981L50.70018836437464,163.98571029306606L50.90628752886057,163.98571031873564L51.1123866933465,163.98571064617934L51.318485857832435,163.98571017282902L51.52458502231836,163.9857104950067L51.7306841868043,163.98571019742414L51.936783351290224,163.98570982209543L52.14288251577616,163.9857101448514L52.348981680262085,163.98570962239208L52.55508084474802,163.98570969175142L52.761180009233954,163.98570954477208L52.96727917371988,163.98570926259643L53.173378338205815,163.9857092803008L53.37947750269175,163.98570928718345L53.585576667177676,163.98570924993436L53.7916758316636,163.9857092444028L53.997774996149545,163.9857089506427L54.20387416063547,163.98570879730124L54.4099733251214,163.98570861852284L54.61607248960733,163.98570886770275L54.82217165409327,163.98570809062383L55.028270818579195,163.98570821288388L55.23436998306513,163.9857082124877L55.44046914755106,163.98570740629344L55.64656831203699,163.98570727289342L55.85266747652292,163.98570736553697L56.05876664100886,163.98570736942278L56.264865805494786,163.9857074497472L56.47096496998071,163.9857068929733L56.677064134466654,163.98570719544566L56.88316329895258,163.98570649541685L57.08926246343851,163.98570694970707L57.295361627924436,163.98570651792795L57.50146079241038,163.98570583380643L57.707559956896304,163.98570634212766L57.91365912138223,163.9857057201L58.11975828586817,163.98570560279256L58.3258574503541,163.9857055739832L58.53195661484003,163.98570377682444L58.73805577932597,163.9857047667384L58.944154943811895,163.98570462997685L59.15025410829782,163.98570418991176L59.35635327278376,163.98570373003037L59.56245243726969,163.98570391744218L59.76855160175562,163.9857026264479L59.974650766241545,163.98570300649268L60.18074993072749,163.98570168577598L60.386849095213414,163.98570044989825L60.59294825969934,163.9857025550067L60.799047424185275,163.98570019757508L61.00514658867121,163.9857015983314L61.21124575315714,163.98570010124138L61.41734491764307,163.98569985467347L61.623444082129005,163.98569849907432L61.82954324661493,163.98569760855207L62.035642411100866,163.98569838754435L62.24174157558679,163.98569757819598L62.44784074007273,163.98569837837334L62.65393990455866,163.9856982761375L62.86003906904458,163.98569609655945L63.06613823353052,163.98569618733302L63.27223739801646,163.9856939064908L63.47833656250238,163.9856921812862L63.68443572698832,163.98569400943325L63.89053489147425,163.98569162266455L64.09663405596018,163.98569210834017L64.30273322044611,163.98569008987315L64.50883238493205,163.98568940665186L64.71493154941797,163.98568836898298L64.9210307139039,163.98568859042678L65.12712987838984,163.98568714576191L65.33322904287576,163.98568537315717L65.5393282073617,163.98568494671153L65.74542737184764,163.98568554758512L65.95152653633356,163.98568231425398L66.1576257008195,163.98568162070086L66.36372486530541,163.9856820143986L66.56982402979135,163.98568132840222L66.77592319427728,163.98568190381272L66.98202235876322,163.98567591346782L67.18812152324915,163.98567705556525L67.39422068773509,163.98567282242777L67.600319852221,163.985672653964L67.80641901670694,163.9856700268774L68.01251818119287,163.98566964198793L68.21861734567881,163.98566569636156L68.42471651016474,163.98566832040106L68.63081567465068,163.985665736136L68.8369148391366,163.98565883547525L69.04301400362253,163.98566247180722L69.24911316810847,163.98565820509208L69.45521233259439,163.98565833040715L69.66131149708033,163.98565236444918L69.86741066156627,163.98565731123594L70.07350982605219,163.98564520745433L70.27960899053812,163.9856478419203L70.48570815502406,163.98564582085552L70.69180731950998,163.98564635545682L70.89790648399591,163.98564372133382L71.10400564848185,163.98564918779363L71.31010481296778,163.98564152456385L71.51620397745371,163.98562933788668L71.72230314193963,163.98563781710703L71.92840230642557,163.98563322446634L72.1345014709115,163.98562479468615L72.34060063539742,163.98563036586424L72.54669979988337,163.98562284096192L72.7527989643693,163.98562555230802L72.95889812885522,163.98562161735256L73.16499729334116,163.98561848480756L73.3710964578271,163.9856126809905L73.57719562231301,163.9856079567986L73.78329478679895,163.98561405360613L73.9893939512849,163.98559937403076L74.19549311577082,163.9855981141632L74.40159228025675,163.98559191114342L74.60769144474268,163.98558896025992L74.8137906092286,163.9855911500999L75.01988977371454,163.98558625388858L75.22598893820047,163.98558390624387L75.43208810268641,163.9855799124743L75.63818726717234,163.98556202168024L75.84428643165828,163.98557349933992L76.0503855961442,163.98556072758066L76.25648476063013,163.9855665242076L76.46258392511605,163.9855560930448L76.668683089602,163.98554344771222L76.87478225408793,163.98554417282867L77.08088141857385,163.9855341245883L77.28698058305979,163.9855227835571L77.49307974754572,163.98554159773263L77.69917891203164,163.98552854111125L77.90527807651758,163.9855224147942L78.11137724100352,163.98550835648817L78.31747640548944,163.98549604606487L78.52357556997538,163.98550848070735L78.72967473446131,163.98548054925723L78.93577389894723,163.98547919218086L79.14187306343317,163.9854793864093L79.3479722279191,163.9854537588954L79.55407139240504,163.98545794166643L79.76017055689097,163.98544076569237L79.9662697213769,163.98544947423255L80.17236888586282,163.9854468247753L80.37846805034876,163.98542140052484L80.58456721483469,163.98539219971494L80.79066637932061,163.98538640865405L80.99676554380656,163.9854110283023L81.2028647082925,163.98540544320116L81.40896387277841,163.98537151808898L81.61506303726435,163.98535429873758L81.82116220175027,163.98535590800506L82.0272613662362,163.98535886851485L82.23336053072214,163.98533639610184L82.43945969520807,163.98533433048104L82.645558859694,163.9853312759633L82.85165802417994,163.9853305390998L83.05775718866586,163.98526592160152L83.2638563531518,163.98525600276795L83.46995551763773,163.9852684806301L83.67605468212366,163.98525477022608L83.8821538466096,163.98523614293117L84.08825301109553,163.9852135041673L84.29435217558145,163.98519885034082L84.50045134006739,163.98517605247926L84.70655050455332,163.98518313243633L84.91264966903924,163.985165820023L85.11874883352519,163.98513197986804L85.32484799801112,163.98510739336385L85.53094716249704,163.9850396806352L85.73704632698298,163.98507796871345L85.94314549146891,163.9850626389505L86.14924465595483,163.98503149516216L86.35534382044077,163.98499142109029L86.5614429849267,163.98500174209883L86.76754214941263,163.9850223470299L86.97364131389857,163.98498207825654L87.17974047838449,163.9849249212883L87.38583964287042,163.98492265159987L87.59193880735636,163.9848230359552L87.79803797184228,163.9848022381517L88.00413713632823,163.9848523612681L88.21023630081416,163.98480566614688L88.41633546530008,163.98477007159707L88.62243462978601,163.9847523366683L88.82853379427195,163.98472083419276L89.03463295875787,163.98461484158517L89.2407321232438,163.98462432386984L89.44683128772975,163.98462555275356L89.65293045221567,163.98453183756715L89.8590296167016,163.98451747872576L90.06512878118754,163.98448745168014L90.27122794567346,163.98448078528244L90.4773271101594,163.98440344280812L90.68342627464533,163.98448258105216L90.88952543913126,163.98432996396335L91.0956246036172,163.98430964865628L91.30172376810313,163.9842974898725L91.50782293258905,163.9842410890045L91.71392209707498,163.98417002428175L91.9200212615609,163.984176946371L92.12612042604685,163.98396746673137L92.33221959053279,163.9840771669929L92.53831875501871,163.98401086555054L92.74441791950464,163.9839179388831L92.95051708399058,163.98386261502287L93.1566162484765,163.98388965967294L93.36271541296243,163.98397174082982L93.56881457744838,163.98352080572397L93.7749137419343,163.98364180308747L93.98101290642023,163.98372375192045L94.18711207090617,163.98362912686562L94.39321123539209,163.98336716649962L94.59931039987802,163.98346272450704L94.80540956436396,163.98330539661325L95.01150872884989,163.98318183489164L95.21760789333582,163.98336079855594L95.42370705782176,163.9832113245687L95.62980622230768,163.98336106648338L95.83590538679361,163.98311434770645L96.04200455127955,163.98312420274328L96.24810371576547,163.98295828981895L96.45420288025142,163.98288959796946L96.66030204473735,163.98277116471183L96.86640120922327,163.9827115788629L97.0725003737092,163.9825134588921L97.27859953819512,163.98247271550622L97.48469870268106,163.98256676005164L97.69079786716699,163.98207212262696L97.89689703165293,163.9822954837834L98.10299619613886,163.9821982122514L98.3090953606248,163.98217349102663L98.51519452511072,163.98186360343905L98.72129368959665,163.98174956499858L98.92739285408258,163.98171661572755L99.13349201856852,163.9814741323232L99.33959118305445,163.98131401717683L99.54569034754039,163.9813177989397L99.7517895120263,163.98095479562258L99.95788867651224,163.9809596536363L100.16398784099817,163.980648637827L100.3700870054841,163.98077689786547L100.57618616997004,163.98031288338524L100.78228533445598,163.98010869039277L100.9883844989419,163.9800452587004L101.19448366342783,163.97975688351562L101.40058282791377,163.97999292757942L101.60668199239969,163.9798337408445L101.81278115688562,163.97975334041504L102.01888032137155,163.9795034332513L102.22497948585749,163.97946975260396L102.43107865034342,163.9790111410746L102.63717781482934,163.97919159196314L102.84327697931528,163.97892486844287L103.04937614380121,163.97867591290083L103.25547530828713,163.97793721629523L103.46157447277308,163.97805863333596L103.66767363725901,163.97792366401126L103.87377280174493,163.9780664910268L104.07987196623087,163.97730268543327L104.2859711307168,163.9768349038228L104.49207029520272,163.9773104195041L104.69816945968866,163.97710409267904L104.9042686241746,163.97631492984848L105.11036778866053,163.9763741402963L105.31646695314646,163.9757213843144L105.5225661176324,163.97652181826152L105.72866528211831,163.97598933394326L105.93476444660425,163.97468953170974L106.14086361109018,163.97446163697904L106.34696277557612,163.97421605298328L106.55306194006205,163.97374781978135L106.75916110454799,163.9737652961173L106.9652602690339,163.9731594249124L107.17135943351984,163.97354736768145L107.37745859800576,163.9735242774838L107.58355776249171,163.9728191661615L107.78965692697764,163.97276017368856L107.99575609146356,163.9722482637748L108.2018552559495,163.97177575988033L108.40795442043543,163.97062597076862L108.61405358492135,163.97081326667316L108.82015274940728,163.9713229009698L109.02625191389323,163.97020110447173L109.23235107837915,163.9692582471662L109.43845024286509,163.9695532953081L109.64454940735102,163.96856016250558L109.85064857183694,163.96891822253644L110.05674773632288,163.96733915414615L110.26284690080881,163.9668636157591L110.46894606529474,163.96723082871563L110.67504522978068,163.9669967983964L110.88114439426661,163.96749364382563L111.08724355875253,163.96486505677586L111.29334272323847,163.96576740002322L111.4994418877244,163.96265612985502L111.70554105221032,163.9633166400906L111.91164021669627,163.96067290378832L112.1177393811822,163.9631804946099L112.32383854566812,163.9627269091165L112.52993771015406,163.96183892193537L112.73603687463998,163.9596012344432L112.94213603912591,163.96089045682302L113.14823520361185,163.95851528572672L113.35433436809778,163.95982257781847L113.56043353258372,163.95851092219303L113.76653269706965,163.95796998731248L113.97263186155557,163.9547634520406L114.1787310260415,163.9525798122214L114.38483019052744,163.9532145852776L114.59092935501337,163.95461675496222L114.7970285194993,163.95264885777544L115.00312768398524,163.95344669015228L115.20922684847116,163.9509129019822L115.4153260129571,163.9513571105202L115.62142517744303,163.94856407355095L115.82752434192895,163.9499157679283L116.0336235064149,163.9479238410319L116.23972267090083,163.94597636485992L116.44582183538675,163.94945618408977L116.65192099987269,163.9452411316326L116.85802016435862,163.94334925923187L117.06411932884454,163.9466721365651L117.27021849333047,163.94523712735375L117.47631765781641,163.93984313770264L117.68241682230234,163.9414327516358L117.88851598678828,163.9423569044785L118.0946151512742,163.93862481164487L118.30071431576013,163.93713429957657L118.50681348024607,163.93738098656547L118.71291264473199,163.93494763636537L118.91901180921793,163.93191043122778L119.12511097370387,163.9325344892052L119.33121013818979,163.92676990193243L119.53730930267572,163.92806903611336L119.74340846716166,163.92655744506914L119.94950763164758,163.92416785533973L120.15560679613351,163.92317615047435L120.36170596061946,163.92316571190068L120.56780512510538,163.92275571734203L120.77390428959131,163.9183290839575L120.98000345407725,163.91760818863182L121.18610261856317,163.9182169318573L121.3922017830491,163.91445586855062L121.59830094753504,163.9123080008273L121.80440011202097,163.91191230380457L122.0104992765069,163.9062359075441L122.21659844099284,163.9023526289647L122.42269760547876,163.9094301030172L122.6287967699647,163.90544597473752L122.83489593445061,163.89660331607817L123.04099509893656,163.89950195379222L123.2470942634225,163.9047626639283L123.45319342790842,163.9011025350899L123.65929259239435,163.89253978036564L123.86539175688029,163.8890545480935L124.07149092136622,163.88807902180636L124.27759008585215,163.89468290108096L124.48368925033807,163.8908235916626L124.68978841482401,163.88455962399377L124.89588757930994,163.87795221675574L125.10198674379588,163.87696265127326L125.30808590828181,163.86562966217167L125.51418507276772,163.86825546802373L125.72028423725365,163.86382705854783L125.9263834017396,163.86728053107606L126.13248256622553,163.86311343308728L126.33858173071147,163.8529775941898L126.5446808951974,163.85673492366791L126.75078005968331,163.85402305004015L126.95687922416924,163.84837955183673L127.16297838865518,163.83822557258733L127.36907755314112,163.8370221414781L127.57517671762706,163.84835055310768L127.781275882113,163.83480486894584L127.9873750465989,163.8365801207618L128.19347421108483,163.82898518247328L128.39957337557078,163.82388702506807L128.6056725400567,163.82367174664134L128.81177170454265,163.8162480881511L129.01787086902857,163.8133775046084L129.2239700335145,163.81681637282128L129.43006919800044,163.80766557844635L129.63616836248636,163.81145173711752L129.8422675269723,163.79385057423968L130.04836669145823,163.7900306375389L130.25446585594418,163.8016388965916L130.46056502043007,163.77664749803486L130.66666418491602,163.78320939696673L130.87276334940196,163.7816002096988L131.07886251388788,163.78296544273667L131.28496167837383,163.76371057728133L131.49106084285972,163.76950003790716L131.69716000734567,163.74415574613099L131.9032591718316,163.75188569966022L132.10935833631754,163.74373269730037L132.3154575008035,163.74512248883872L132.5215566652894,163.7407803005282L132.72765582977533,163.70953573616774L132.93375499426125,163.72444051777885L133.1398541587472,163.7265866336302L133.34595332323312,163.7173613564395L133.55205248771907,163.71821081252818L133.75815165220502,163.72083075727858L133.9642508166909,163.685905453346L134.17034998117686,163.68185896811113L134.37644914566278,163.66420229430318L134.58254831014872,163.66254839797026L134.78864747463464,163.64613721634572L134.9947466391206,163.67579910563933L135.2008458036065,163.6466802482251L135.40694496809243,163.67362420096066L135.61304413257838,163.63830697823624L135.8191432970643,163.656019033804L136.02524246155025,163.60480776269222L136.23134162603614,163.59615409630652L136.4374407905221,163.5931584113425L136.64353995500804,163.60325471605952L136.84963911949396,163.54778256933184L137.0557382839799,163.58266255064055L137.26183744846583,163.58135176287792L137.46793661295175,163.5708685608639L137.67403577743767,163.52386669100932L137.88013494192361,163.5789563322297L138.08623410640956,163.5425389661854L138.29233327089548,163.5426903214672L138.49843243538143,163.53667715405354L138.70453159986732,163.50624692761042L138.91063076435327,163.4960436376046L139.1167299288392,163.50061413439437L139.32282909332514,163.469689605562L139.5289282578111,163.44324970757225L139.735027422297,163.4539844687169L139.94112658678293,163.44849405344783L140.14722575126885,163.45807739066936L140.3533249157548,163.39680821070786L140.55942408024072,163.42720527268023L140.76552324472667,163.41699991594987L140.97162240921259,163.36301306604022L141.1777215736985,163.31816966394553L141.38382073818445,163.38014898984298L141.58991990267037,163.3164020331764L141.79601906715632,163.31872322320314L142.00211823164224,163.34906080225915L142.20821739612816,163.3469981465584L142.4143165606141,163.28315670182812L142.62041572510003,163.2973293301159L142.82651488958598,163.23798837188073L143.0326140540719,163.23278390733074L143.23871321855785,163.2309075151814L143.44481238304377,163.23356726052592L143.6509115475297,163.21036956898965L143.85701071201564,163.1840890994245L144.06310987650156,163.14778120519702L144.2692090409875,163.20082911630286L144.47530820547343,163.1520695940837L144.68140736995935,163.14103502870688L144.8875065344453,163.08394486269302L145.0936056989312,163.07749054646249L145.29970486341716,163.12734510977523L145.50580402790308,163.05254356633762L145.71190319238903,163.0781790240831L145.91800235687492,163.036364406838L146.12410152136087,163.03077695239213L146.33020068584682,162.9998863953448L146.53629985033274,162.95772172662654L146.7423990148187,162.99543628526092L146.94849817930458,162.9797339578695L147.15459734379053,162.87945667574414L147.36069650827645,162.8732419058077L147.5667956727624,162.84099893587333L147.77289483724834,162.8234465024856L147.97899400173426,162.83269096146367L148.18509316622018,162.7706987831228L148.3911923307061,162.78871196691816L148.59729149519205,162.7556535449727L148.80339065967797,162.70245657135763L149.00948982416392,162.70912201641946L149.21558898864987,162.67421852611886L149.42168815313576,162.63052344786044L149.6277873176217,162.61700228990654L149.83388648210763,162.56112929549099L150.03998564659358,162.66107131614086L150.2460848110795,162.57451443713447L150.45218397556545,162.55196918470924L150.65828314005137,162.49427501844133L150.8643823045373,162.52468958298735L151.07048146902324,162.38366198218256L151.27658063350916,162.4163114510048L151.4826797979951,162.31185634975694L151.688778962481,162.30226519773316L151.89487812696694,162.3607435568031L152.1009772914529,162.27468966688767L152.3070764559388,162.20353660274333L152.51317562042476,162.20809308455716L152.71927478491068,162.2123768878987L152.9253739493966,162.23105491115246L153.13147311388252,162.08879799674253L153.33757227836847,162.1263195103855L153.54367144285442,161.94115041881636L153.74977060734034,162.00843664130008L153.9558697718263,161.8663268518451L154.16196893631218,162.0209639630789L154.36806810079813,161.98488863995007L154.57416726528405,161.90099551056704L154.78026642977,161.9188109346556L154.98636559425594,161.75148219704005L155.19246475874186,161.83557915713328L155.39856392322778,161.79828808327926L155.6046630877137,161.62795820325513L155.81076225219965,161.84690687447258L156.01686141668557,161.44828672819844L156.22296058117152,161.47032085380476L156.42905974565744,161.60463237479587L156.63515891014336,161.48712074111032L156.8412580746293,161.49986674818217L157.04735723911523,161.50455795460354L157.25345640360118,161.4301814459897L157.4595555680871,161.17851872080738L157.66565473257302,161.13453184687447L157.87175389705897,161.38236312305432L158.0778530615449,161.02075426779626L158.28395222603083,161.1759701910785L158.49005139051675,161.0932872580984L158.6961505550027,161.00033037896645L158.90224971948862,161.24724480446127L159.10834888397454,160.89082420288238L159.3144480484605,160.9013567479454L159.5205472129464,160.81718913170613L159.72664637743236,160.7552548216531L159.93274554191828,160.8264062065837L160.1388447064042,160.7547363321279L160.34494387089015,160.54171463945127L160.55104303537607,160.76817650031293L160.75714219986202,160.61810155438548L160.96324136434794,160.4476861636325L161.16934052883389,160.3035422005247L161.37543969331978,160.4736052147394L161.58153885780573,160.29774322973662L161.78763802229167,160.1457986730998L161.9937371867776,160.3824396691239L162.19983635126354,160.22586823286778L162.40593551574943,160.25007371096993L162.61203468023538,159.9040448588431L162.8181338447213,159.7589328936173L163.02423300920725,159.79106116033833L163.2303321736932,159.71962301737437L163.43643133817912,159.57342266332466L163.64253050266504,159.46194612370869L163.84862966715096,159.67772973542554L164.0547288316369,159.3373484665124L164.26082799612283,159.4900329105434L164.46692716060878,159.27057569591275L164.67302632509472,159.22717396337225L164.87912548958062,159.44688331839978L165.08522465406656,158.93554414353545L165.29132381855248,158.87793471297468L165.49742298303843,158.79358703335768L165.70352214752435,159.04255242464245L165.9096213120103,158.9567223868314L166.11572047649622,159.09002405453208L166.32181964098214,159.0346518533126L166.5279188054681,158.54173339449375L166.734017969954,158.6601406949375L166.94011713443996,158.6019763488311L167.14621629892585,158.72507511403683L167.3523154634118,158.10728515701683L167.55841462789775,158.1195072494115L167.76451379238367,157.98618646450862L167.97061295686962,157.99512969838136L168.17671212135554,157.84479357013703L168.38281128584146,157.62717160691986L168.58891045032738,157.79677942504918L168.79500961481332,157.8523009471184L169.00110877929927,157.23482461555113L169.2072079437852,157.4560008283385L169.41330710827114,156.99312841124168L169.61940627275703,157.25895517488777L169.82550543724298,157.08859765242264L170.0316046017289,156.38800437571663L170.23770376621485,156.99923558233047L170.4438029307008,156.5858198840677L170.64990209518672,157.03943440847678L170.85600125967264,156.44233753116114L171.06210042415856,156.02970305478385L171.2681995886445,156.25315886476614L171.47429875313043,156.5889204875959L171.68039791761638,156.29755365845998L171.8864970821023,156.52374219499796L172.09259624658822,156.28164297939838L172.29869541107416,156.45394373963555L172.50479457556008,155.63181000804565L172.71089374004603,155.46522580795454L172.91699290453195,155.73896761000245L173.12309206901787,155.57761273974126L173.32919123350382,156.0545523175879L173.53529039798974,155.14587087808187L173.7413895624757,155.15163703961747L173.9474887269616,155.20416284443013L174.15358789144756,154.45594861698473L174.35968705593348,155.15126502919583L174.5657862204194,154.69108400416343L174.77188538490535,153.95931677080415L174.97798454939127,154.5993090331419L175.18408371387721,154.5718577641109L175.39018287836313,153.77690456063405L175.59628204284905,153.88116358138882L175.802381207335,153.96267416485955L176.00848037182092,153.53582010679577L176.21457953630687,153.6535159373081L176.4206787007928,153.2832177969582L176.62677786527874,154.05279265614243L176.83287702976463,152.58462149286288L177.03897619425058,152.92325637951882L177.24507535873653,152.8302940752349L177.45117452322245,152.97705115321423L177.6572736877084,152.99512775961966L177.8633728521943,152.193858645873L178.06947201668024,153.01021691566677L178.27557118116616,151.93299460458795L178.4816703456521,151.6946506275225L178.68776951013805,151.7671234244717L178.89386867462397,151.7434118935405L179.0999678391099,151.88094207970062L179.3060670035958,152.1464324839238L179.51216616808176,151.4650240946711L179.71826533256768,151.21183586841946L179.92436449705363,151.7157415517056L180.13046366153958,151.15059675284186L180.33656282602547,151.2215308733526L180.54266199051142,150.4437108165174L180.74876115499734,151.04618996128073L180.9548603194833,150.50232002508636L181.1609594839692,150.618435844669L181.36705864845516,149.89671289269432L181.57315781294108,149.8924420063813L181.779256977427,149.74876848145252L181.98535614191294,149.08087130404175L182.19145530639886,149.7007119685111L182.3975544708848,148.4445154435756L182.6036536353707,149.26203417921246L182.80975279985665,148.4073981037553L183.0158519643426,148.708542606807L183.22195112882852,149.82423389557144L183.42805029331447,148.6725598987727L183.6341494578004,146.94634783996355L183.8402486222863,147.8163913470508L184.04634778677223,147.3263316849861L184.25244695125818,147.34638201335082L184.45854611574413,146.80282311920345L184.66464528023005,146.16582554075995L184.870744444716,146.19049603188918L185.0768436092019,145.56073198942227L185.28294277368784,147.36126863039058L185.48904193817376,146.83121371454916L185.6951411026597,144.7986500401475L185.90124026714565,146.0733003487215L186.10733943163157,146.09861359119031L186.3134385961175,146.16425483009075L186.5195377606034,146.04006741772056L186.72563692508936,145.2755384665612L186.93173608957528,145.30905453882744L187.13783525406123,144.76019862962065L187.34393441854715,143.38230922886459L187.55003358303307,144.05686539282297L187.75613274751902,144.10230853255229L187.96223191200494,142.04517563652507L188.1683310764909,142.35440929952313L188.3744302409768,143.16384404202503L188.58052940546273,141.98660052891142L188.78662856994868,142.22069222018496L188.9927277344346,140.6830491440242L189.19882689892054,141.3478999694266L189.40492606340646,141.44417419982554L189.6110252278924,141.05745903289568L189.81712439237833,140.32497464611242L190.02322355686425,140.42820133794712L190.2293227213502,142.0761331037802L190.43542188583612,140.400771769524L190.64152105032207,140.90232035344405L190.847620214808,140.99953287679537L191.0537193792939,139.94502593540753L191.25981854377986,138.6878167154353L191.46591770826578,139.27657694253793L191.67201687275173,138.4616178452745L191.87811603723765,139.08867241183705L192.0842152017236,138.0683304942288L192.2903143662095,137.11137915247002L192.49641353069543,136.64149692233076L192.70251269518138,138.04564199195715L192.9086118596673,135.7737640133069L193.11471102415325,136.25209708019133L193.32081018863914,135.6915579770201L193.5269093531251,136.49600571314733L193.733008517611,134.18657121570672L193.93910768209696,134.8169656091659L194.1452068465829,133.9458866730717L194.35130601106883,136.16437495604126L194.55740517555475,135.10038381562586L194.76350434004067,133.06252932633845L194.96960350452662,132.33056162069641L195.17570266901254,135.0575964169622L195.38180183349849,133.60271945944532L195.58790099798443,129.52533230052396L195.79400016247033,133.294052078978L196.00009932695627,132.09384105577655L196.2061984914422,131.45118271875026L196.41229765592814,132.18723840558138L196.61839682041406,130.33504191739297L196.8244959849,130.85159698837757L197.03059514938593,129.02851444913256L197.23669431387185,129.78355920126444L197.4427934783578,130.6975970741611L197.64889264284372,127.77280153774524L197.85499180732967,129.33170914295246L198.06109097181556,127.46009371075387L198.2671901363015,128.19783171138064L198.47328930078746,128.11083087410367L198.67938846527338,127.38358770081659L198.88548762975933,124.52142631905949L199.09158679424525,125.28730484135967L199.29768595873117,123.52111509593261L199.50378512321709,127.95438809145172L199.70988428770303,126.18664416915199L199.91598345218898,123.81637150069939L200.1220826166749,126.10292115703469L200.32818178116085,122.32999559409141L200.53428094564674,124.27725934553291L200.7403801101327,122.82183470600636L200.9464792746186,123.40842900576516L201.15257843910456,121.83594095344307L201.3586776035905,118.74818831854716L201.56477676807643,121.34462678956756L201.77087593256235,120.56657525958109L201.97697509704827,118.80439495980963L202.18307426153422,118.81998219647684L202.38917342602014,117.60231355087708L202.59527259050608,117.60924121161806L202.801371754992,121.91180214531612L203.00747091947792,117.27079439689754L203.21357008396387,116.5473457299113L203.4196692484498,113.63571522897276L203.62576841293574,118.71618715538686L203.83186757742166,114.7133095504732L204.03796674190758,116.83589354674095L204.24406590639353,114.37183291754077L204.45016507087945,113.39187893137652L204.6562642353654,113.68466766701299L204.86236339985132,112.05478254007915L205.06846256433727,115.14366360658738L205.2745617288232,110.9507341441501L205.4806608933091,110.90059540620972L205.68676005779506,111.2384180701117L205.89285922228098,110.80152489747472L206.09895838676692,109.2558711969011L206.30505755125284,106.9737153969904L206.51115671573876,108.48424718031097L206.7172558802247,104.50564532213467L206.92335504471063,106.27615038845288L207.12945420919658,103.16179900840888L207.3355533736825,102.7296634357199L207.54165253816845,106.09064532497166L207.74775170265434,103.78241986140142L207.9538508671403,98.77186109356307L208.15995003162624,100.25755498106469L208.36604919611216,102.19834575116944L208.5721483605981,97.9639536605145L208.778247525084,103.26151846865721L208.98434668956995,97.98593534298502L209.19044585405587,96.88363539603772L209.39654501854181,97.53016057472463L209.60264418302776,91.65418156265034L209.80874334751368,98.00772688679554L210.0148425119996,96.77841018154894L210.22094167648552,95.42908704772663L210.42704084097147,94.39534448804065L210.6331400054574,93.23006731015685L210.83923916994334,94.264644826567L211.0453383344293,96.54606487253265L211.25143749891518,91.2890657341465L211.45753666340113,88.26655546031007L211.66363582788705,87.96924473132596L211.869734992373,91.5872031529565L212.07583415685892,85.37371148566493L212.28193332134487,88.11973534723148L212.4880324858308,92.54379075119189L212.6941316503167,87.71085455934488L212.90023081480265,82.74772298681802L213.10632997928857,74.11379924588779L213.31242914377452,82.24256590180792L213.51852830826041,77.69614386981887L213.72462747274636,82.64403128195627L213.9307266372323,85.69478128024521L214.13682580171823,79.62879587858771L214.34292496620418,80.22871641833989L214.5490241306901,79.18868274907885L214.75512329517602,85.33621283516244L214.96122245966194,73.26440851737591L215.1673216241479,73.43054010478734L215.37342078863384,75.19432418282105L215.57951995311976,76.80540211621583L215.7856191176057,71.61845254022673L215.9917182820916,67.49842885353493L216.19781744657755,68.19276563830233L216.40391661106347,65.3608735045203L216.6100157755494,62.810998337943325L216.81611494003536,68.29461382485235L217.02221410452128,67.12526106612691L217.2283132690072,64.32604798116238L217.43441243349312,65.84733086566868L217.64051159797907,60.83865695063337L217.846610762465,61.5637879314153L218.05270992695094,60.06697506575543L218.25880909143686,67.08753920937141L218.46490825592278,59.455340331170326L218.67100742040873,56.764878292802045L218.87710658489465,53.541267451918905L219.0832057493806,49.366583033939094L219.28930491386652,54.35043145350284L219.49540407835244,53.12529366532613L219.70150324283838,52.4686208690264L219.9076024073243,53.60159927541256L220.11370157181025,48.315678393467564L220.31980073629617,47.549072384120606L220.52589990078212,46.934205292316264L220.73199906526804,49.82777675400819L220.93809822975396,47.80255201853586L221.1441973942399,45.7349676963848L221.35029655872583,44.91037766264971L221.55639572321178,39.46118554009087L221.7624948876977,41.57581678023351L221.96859405218362,39.76508498698734L222.17469321666957,36.83050144303289L222.3807923811555,35.2393302006456L222.58689154564144,31.121770049634986L222.79299071012736,29.637109524415727L222.9990898746133,33.712979707506584L223.2051890390992,34.03498366159011L223.41128820358514,23.1716675988868L223.6173873680711,33.38713164573265L223.823486532557,25.538224296572032L224.02958569704296,16.585810033318335L224.23568486152885,30.042047001832838L224.4417840260148,14.086329878527783L224.64788319050072,22.773004697248233L224.85398235498667,13.399400234600378L225.06008151947262,14.290092386813862L225.26618068395854,14.426215133545371L225.47227984844446,10.312193214989582L225.67837901293038,10.972205838185927L225.88447817741633,13.216586046502439L226.09057734190225,16.30809185320788L226.2966765063882,15.301745794351978L226.50277567087414,8.39675288839583L226.70887483536004,8.432713895822161" fill="none"></path></g></g></g></g></g></g><g transform="translate(82, 176)" clip-path="url(#clip_1)"><clipPath id="clip_1"><rect width="247" height="23"></rect></clipPath><g><g><line x1="0" y1="0" x2="0" y2="5" style="visibility: inherit;" fill="rgb(0, 0, 0)" stroke="rgb(204, 204, 204)" stroke-width="1px"></line><line x1="20.60991644859314" y1="0" x2="20.60991644859314" y2="5" style="visibility: inherit;" fill="rgb(0, 0, 0)" stroke="rgb(204, 204, 204)" stroke-width="1px"></line><line x1="41.21983289718628" y1="0" x2="41.21983289718628" y2="5" style="visibility: inherit;" fill="rgb(0, 0, 0)" stroke="rgb(204, 204, 204)" stroke-width="1px"></line><line x1="61.82974934577942" y1="0" x2="61.82974934577942" y2="5" style="visibility: inherit;" fill="rgb(0, 0, 0)" stroke="rgb(204, 204, 204)" stroke-width="1px"></line><line x1="82.43966579437256" y1="0" x2="82.43966579437256" y2="5" style="visibility: inherit;" fill="rgb(0, 0, 0)" stroke="rgb(204, 204, 204)" stroke-width="1px"></line><line x1="103.0495822429657" y1="0" x2="103.0495822429657" y2="5" style="visibility: inherit;" fill="rgb(0, 0, 0)" stroke="rgb(204, 204, 204)" stroke-width="1px"></line><line x1="123.65949869155884" y1="0" x2="123.65949869155884" y2="5" style="visibility: inherit;" fill="rgb(0, 0, 0)" stroke="rgb(204, 204, 204)" stroke-width="1px"></line><line x1="144.26941514015198" y1="0" x2="144.26941514015198" y2="5" style="visibility: inherit;" fill="rgb(0, 0, 0)" stroke="rgb(204, 204, 204)" stroke-width="1px"></line><line x1="164.87933158874512" y1="0" x2="164.87933158874512" y2="5" style="visibility: inherit;" fill="rgb(0, 0, 0)" stroke="rgb(204, 204, 204)" stroke-width="1px"></line><line x1="185.48924803733826" y1="0" x2="185.48924803733826" y2="5" style="visibility: inherit;" fill="rgb(0, 0, 0)" stroke="rgb(204, 204, 204)" stroke-width="1px"></line><line x1="206.0991644859314" y1="0" x2="206.0991644859314" y2="5" style="visibility: inherit;" fill="rgb(0, 0, 0)" stroke="rgb(204, 204, 204)" stroke-width="1px"></line><line x1="226.70908093452454" y1="0" x2="226.70908093452454" y2="5" style="visibility: inherit;" fill="rgb(0, 0, 0)" stroke="rgb(204, 204, 204)" stroke-width="1px"></line><line x1="247.31899738311768" y1="0" x2="247.31899738311768" y2="5" style="visibility: inherit;" fill="rgb(0, 0, 0)" stroke="rgb(204, 204, 204)" stroke-width="1px"></line></g><g transform="translate(0, 8)"><text style="text-anchor: middle; visibility: hidden; font-family: Roboto, sans-serif; font-size: 12px; font-weight: 200;" x="0" y="0" dx="0em" dy="0.95em" fill="rgb(33, 33, 33)" stroke="none" stroke-width="1px">-100k</text><text style="text-anchor: middle; visibility: inherit; font-family: Roboto, sans-serif; font-size: 12px; font-weight: 200;" x="20.60991644859314" y="0" dx="0em" dy="0.95em" fill="rgb(33, 33, 33)" stroke="none" stroke-width="1px">0</text><text style="text-anchor: middle; visibility: hidden; font-family: Roboto, sans-serif; font-size: 12px; font-weight: 200;" x="41.21983289718628" y="0" dx="0em" dy="0.95em" fill="rgb(33, 33, 33)" stroke="none" stroke-width="1px">100k</text><text style="text-anchor: middle; visibility: inherit; font-family: Roboto, sans-serif; font-size: 12px; font-weight: 200;" x="61.82974934577942" y="0" dx="0em" dy="0.95em" fill="rgb(33, 33, 33)" stroke="none" stroke-width="1px">200k</text><text style="text-anchor: middle; visibility: hidden; font-family: Roboto, sans-serif; font-size: 12px; font-weight: 200;" x="82.43966579437256" y="0" dx="0em" dy="0.95em" fill="rgb(33, 33, 33)" stroke="none" stroke-width="1px">300k</text><text style="text-anchor: middle; visibility: inherit; font-family: Roboto, sans-serif; font-size: 12px; font-weight: 200;" x="103.0495822429657" y="0" dx="0em" dy="0.95em" fill="rgb(33, 33, 33)" stroke="none" stroke-width="1px">400k</text><text style="text-anchor: middle; visibility: hidden; font-family: Roboto, sans-serif; font-size: 12px; font-weight: 200;" x="123.65949869155884" y="0" dx="0em" dy="0.95em" fill="rgb(33, 33, 33)" stroke="none" stroke-width="1px">500k</text><text style="text-anchor: middle; visibility: inherit; font-family: Roboto, sans-serif; font-size: 12px; font-weight: 200;" x="144.26941514015198" y="0" dx="0em" dy="0.95em" fill="rgb(33, 33, 33)" stroke="none" stroke-width="1px">600k</text><text style="text-anchor: middle; visibility: hidden; font-family: Roboto, sans-serif; font-size: 12px; font-weight: 200;" x="164.87933158874512" y="0" dx="0em" dy="0.95em" fill="rgb(33, 33, 33)" stroke="none" stroke-width="1px">700k</text><text style="text-anchor: middle; visibility: inherit; font-family: Roboto, sans-serif; font-size: 12px; font-weight: 200;" x="185.48924803733826" y="0" dx="0em" dy="0.95em" fill="rgb(33, 33, 33)" stroke="none" stroke-width="1px">800k</text><text style="text-anchor: middle; visibility: hidden; font-family: Roboto, sans-serif; font-size: 12px; font-weight: 200;" x="206.0991644859314" y="0" dx="0em" dy="0.95em" fill="rgb(33, 33, 33)" stroke="none" stroke-width="1px">900k</text><text style="text-anchor: middle; visibility: inherit; font-family: Roboto, sans-serif; font-size: 12px; font-weight: 200;" x="226.70908093452454" y="0" dx="0em" dy="0.95em" fill="rgb(33, 33, 33)" stroke="none" stroke-width="1px">1M</text><text style="text-anchor: middle; visibility: hidden; font-family: Roboto, sans-serif; font-size: 12px; font-weight: 200;" x="247.31899738311768" y="0" dx="0em" dy="0.95em" fill="rgb(33, 33, 33)" stroke="none" stroke-width="1px">1.1M</text></g><line x1="0" y1="0" x2="247.31899738311768" y2="0" fill="rgb(0, 0, 0)" stroke="rgb(204, 204, 204)" stroke-width="1px"></line></g></g></g></g></svg>