<svg viewBox="0 0 330 200" xmlns="http://www.w3.org/2000/svg"><g><g><g><g><g><line x1="30.766000747680664" y1="176.5999994277954" x2="25.766000747680664" y2="176.5999994277954" style="visibility: inherit;" fill="rgb(0, 0, 0)" stroke="rgb(204, 204, 204)" stroke-width="1px"></line><line x1="30.766000747680664" y1="158.93999948501587" x2="25.766000747680664" y2="158.93999948501587" style="visibility: inherit;" fill="rgb(0, 0, 0)" stroke="rgb(204, 204, 204)" stroke-width="1px"></line><line x1="30.766000747680664" y1="141.27999954223634" x2="25.766000747680664" y2="141.27999954223634" style="visibility: inherit;" fill="rgb(0, 0, 0)" stroke="rgb(204, 204, 204)" stroke-width="1px"></line><line x1="30.766000747680664" y1="123.61999959945678" x2="25.766000747680664" y2="123.61999959945678" style="visibility: inherit;" fill="rgb(0, 0, 0)" stroke="rgb(204, 204, 204)" stroke-width="1px"></line><line x1="30.766000747680664" y1="105.95999965667724" x2="25.766000747680664" y2="105.95999965667724" style="visibility: inherit;" fill="rgb(0, 0, 0)" stroke="rgb(204, 204, 204)" stroke-width="1px"></line><line x1="30.766000747680664" y1="88.2999997138977" x2="25.766000747680664" y2="88.2999997138977" style="visibility: inherit;" fill="rgb(0, 0, 0)" stroke="rgb(204, 204, 204)" stroke-width="1px"></line><line x1="30.766000747680664" y1="70.63999977111817" x2="25.766000747680664" y2="70.63999977111817" style="visibility: inherit;" fill="rgb(0, 0, 0)" stroke="rgb(204, 204, 204)" stroke-width="1px"></line><line x1="30.766000747680664" y1="52.979999828338634" x2="25.766000747680664" y2="52.979999828338634" style="visibility: inherit;" fill="rgb(0, 0, 0)" stroke="rgb(204, 204, 204)" stroke-width="1px"></line><line x1="30.766000747680664" y1="35.31999988555907" x2="25.766000747680664" y2="35.31999988555907" style="visibility: inherit;" fill="rgb(0, 0, 0)" stroke="rgb(204, 204, 204)" stroke-width="1px"></line><line x1="30.766000747680664" y1="17.659999942779535" x2="25.766000747680664" y2="17.659999942779535" style="visibility: inherit;" fill="rgb(0, 0, 0)" stroke="rgb(204, 204, 204)" stroke-width="1px"></line><line x1="30.766000747680664" y1="0" x2="25.766000747680664" y2="0" style="visibility: inherit;" fill="rgb(0, 0, 0)" stroke="rgb(204, 204, 204)" stroke-width="1px"></line></g><g transform="translate(20.766000747680664, 0)"><text style="text-anchor: end; visibility: hidden; font-family: Roboto, sans-serif; font-size: 12px; font-weight: 200;" x="0" y="176.5999994277954" dx="0em" dy="0.3em" fill="rgb(33, 33, 33)" stroke="none" stroke-width="1px">-5</text><text style="text-anchor: end; visibility: inherit; font-family: Roboto, sans-serif; font-size: 12px; font-weight: 200;" x="0" y="158.93999948501587" dx="0em" dy="0.3em" fill="rgb(33, 33, 33)" stroke="none" stroke-width="1px">0</text><text style="text-anchor: end; visibility: hidden; font-family: Roboto, sans-serif; font-size: 12px; font-weight: 200;" x="0" y="141.27999954223634" dx="0em" dy="0.3em" fill="rgb(33, 33, 33)" stroke="none" stroke-width="1px">5</text><text style="text-anchor: end; visibility: inherit; font-family: Roboto, sans-serif; font-size: 12px; font-weight: 200;" x="0" y="123.61999959945678" dx="0em" dy="0.3em" fill="rgb(33, 33, 33)" stroke="none" stroke-width="1px">10</text><text style="text-anchor: end; visibility: hidden; font-family: Roboto, sans-serif; font-size: 12px; font-weight: 200;" x="0" y="105.95999965667724" dx="0em" dy="0.3em" fill="rgb(33, 33, 33)" stroke="none" stroke-width="1px">15</text><text style="text-anchor: end; visibility: inherit; font-family: Roboto, sans-serif; font-size: 12px; font-weight: 200;" x="0" y="88.2999997138977" dx="0em" dy="0.3em" fill="rgb(33, 33, 33)" stroke="none" stroke-width="1px">20</text><text style="text-anchor: end; visibility: hidden; font-family: Roboto, sans-serif; font-size: 12px; font-weight: 200;" x="0" y="70.63999977111817" dx="0em" dy="0.3em" fill="rgb(33, 33, 33)" stroke="none" stroke-width="1px">25</text><text style="text-anchor: end; visibility: inherit; font-family: Roboto, sans-serif; font-size: 12px; font-weight: 200;" x="0" y="52.979999828338634" dx="0em" dy="0.3em" fill="rgb(33, 33, 33)" stroke="none" stroke-width="1px">30</text><text style="text-anchor: end; visibility: hidden; font-family: Roboto, sans-serif; font-size: 12px; font-weight: 200;" x="0" y="35.31999988555907" dx="0em" dy="0.3em" fill="rgb(33, 33, 33)" stroke="none" stroke-width="1px">35</text><text style="text-anchor: end; visibility: inherit; font-family: Roboto, sans-serif; font-size: 12px; font-weight: 200;" x="0" y="17.659999942779535" dx="0em" dy="0.3em" fill="rgb(33, 33, 33)" stroke="none" stroke-width="1px">40</text><text style="text-anchor: end; visibility: hidden; font-family: Roboto, sans-serif; font-size: 12px; font-weight: 200;" x="0" y="0" dx="0em" dy="0.3em" fill="rgb(33, 33, 33)" stroke="none" stroke-width="1px">45</text></g><line x1="30.766000747680664" y1="0" x2="30.766000747680664" y2="176.5999994277954" fill="rgb(0, 0, 0)" stroke="rgb(204, 204, 204)" stroke-width="1px"></line></g></g><g transform="translate(30, 0)" clip-path="url(#clip_0)"><clipPath id="clip_0"><rect width="299" height="176"></rect></clipPath><g><g><g><line x1="0" y1="0" x2="0" y2="176.5999994277954" fill="rgb(0, 0, 0)" stroke="rgb(66, 66, 66)" stroke-width="1px" opacity="0.25"></line><line x1="24.936166604359943" y1="0" x2="24.936166604359943" y2="176.5999994277954" fill="rgb(0, 0, 0)" stroke="rgb(66, 66, 66)" stroke-width="1px" opacity="0.25"></line><line x1="49.87233320871989" y1="0" x2="49.87233320871989" y2="176.5999994277954" fill="rgb(0, 0, 0)" stroke="rgb(66, 66, 66)" stroke-width="1px" opacity="0.25"></line><line x1="74.80849981307983" y1="0" x2="74.80849981307983" y2="176.5999994277954" fill="rgb(0, 0, 0)" stroke="rgb(66, 66, 66)" stroke-width="1px" opacity="0.25"></line><line x1="99.74466641743977" y1="0" x2="99.74466641743977" y2="176.5999994277954" fill="rgb(0, 0, 0)" stroke="rgb(66, 66, 66)" stroke-width="1px" opacity="0.25"></line><line x1="124.68083302179973" y1="0" x2="124.68083302179973" y2="176.5999994277954" fill="rgb(0, 0, 0)" stroke="rgb(66, 66, 66)" stroke-width="1px" opacity="0.25"></line><line x1="149.61699962615967" y1="0" x2="149.61699962615967" y2="176.5999994277954" fill="rgb(0, 0, 0)" stroke="rgb(66, 66, 66)" stroke-width="1px" opacity="0.25"></line><line x1="174.55316623051962" y1="0" x2="174.55316623051962" y2="176.5999994277954" fill="rgb(0, 0, 0)" stroke="rgb(66, 66, 66)" stroke-width="1px" opacity="0.25"></line><line x1="199.48933283487955" y1="0" x2="199.48933283487955" y2="176.5999994277954" fill="rgb(0, 0, 0)" stroke="rgb(66, 66, 66)" stroke-width="1px" opacity="0.25"></line><line x1="224.4254994392395" y1="0" x2="224.4254994392395" y2="176.5999994277954" fill="rgb(0, 0, 0)" stroke="rgb(66, 66, 66)" stroke-width="1px" opacity="0.25"></line><line x1="249.36166604359946" y1="0" x2="249.36166604359946" y2="176.5999994277954" fill="rgb(0, 0, 0)" stroke="rgb(66, 66, 66)" stroke-width="1px" opacity="0.25"></line><line x1="274.29783264795935" y1="0" x2="274.29783264795935" y2="176.5999994277954" fill="rgb(0, 0, 0)" stroke="rgb(66, 66, 66)" stroke-width="1px" opacity="0.25"></line><line x1="299.23399925231934" y1="0" x2="299.23399925231934" y2="176.5999994277954" fill="rgb(0, 0, 0)" stroke="rgb(66, 66, 66)" stroke-width="1px" opacity="0.25"></line></g><g><line x1="0" y1="176.5999994277954" x2="299.23399925231934" y2="176.5999994277954" fill="rgb(0, 0, 0)" stroke="rgb(66, 66, 66)" stroke-width="1px" opacity="0.25"></line><line x1="0" y1="158.93999948501587" x2="299.23399925231934" y2="158.93999948501587" fill="rgb(0, 0, 0)" stroke="rgb(66, 66, 66)" stroke-width="1px" opacity="0.25"></line><line x1="0" y1="141.27999954223634" x2="299.23399925231934" y2="141.27999954223634" fill="rgb(0, 0, 0)" stroke="rgb(66, 66, 66)" stroke-width="1px" opacity="0.25"></line><line x1="0" y1="123.61999959945678" x2="299.23399925231934" y2="123.61999959945678" fill="rgb(0, 0, 0)" stroke="rgb(66, 66, 66)" stroke-width="1px" opacity="0.25"></line><line x1="0" y1="105.95999965667724" x2="299.23399925231934" y2="105.95999965667724" fill="rgb(0, 0, 0)" stroke="rgb(66, 66, 66)" stroke-width="1px" opacity="0.25"></line><line x1="0" y1="88.2999997138977" x2="299.23399925231934" y2="88.2999997138977" fill="rgb(0, 0, 0)" stroke="rgb(66, 66, 66)" stroke-width="1px" opacity="0.25"></line><line x1="0" y1="70.63999977111817" x2="299.23399925231934" y2="70.63999977111817" fill="rgb(0, 0, 0)" stroke="rgb(66, 66, 66)" stroke-width="1px" opacity="0.25"></line><line x1="0" y1="52.979999828338634" x2="299.23399925231934" y2="52.979999828338634" fill="rgb(0, 0, 0)" stroke="rgb(66, 66, 66)" stroke-width="1px" opacity="0.25"></line><line x1="0" y1="35.31999988555907" x2="299.23399925231934" y2="35.31999988555907" fill="rgb(0, 0, 0)" stroke="rgb(66, 66, 66)" stroke-width="1px" opacity="0.25"></line><line x1="0" y1="17.659999942779535" x2="299.23399925231934" y2="17.659999942779535" fill="rgb(0, 0, 0)" stroke="rgb(66, 66, 66)" stroke-width="1px" opacity="0.25"></line><line x1="0" y1="0" x2="299.23399925231934" y2="0" fill="rgb(0, 0, 0)" stroke="rgb(66, 66, 66)" stroke-width="1px" opacity="0.25"></line></g></g></g><g><g><line x1="0" y1="158.93999948501587" x2="299.23399925231934" y2="158.93999948501587" fill="rgb(0, 0, 0)" stroke="rgb(153, 153, 153)" stroke-width="1.5px"></line></g></g><g><g><line x1="24.936166604359943" y1="0" x2="24.936166604359943" y2="176.5999994277954" fill="rgb(0, 0, 0)" stroke="rgb(153, 153, 153)" stroke-width="1.5px"></line></g></g><g><g><g><g><g><path style="fill: none;" stroke="rgb(0, 119, 187)" stroke-width="2px" d="M25.185278908737498,157.53384022512668L25.4346405747811,156.15911061896566L25.6840022408247,154.32466351151888L25.933363906868298,152.388382085303L26.1827255729119,150.1577857586267L26.432087238955496,147.44236293568233L26.681448904999097,144.9892292312819L26.9308105710427,143.42864086933918L27.180172237086296,141.95827219467446L27.429533903129897,140.42371089218486L27.67889556917349,139.6247021123793L27.928257235217092,137.6199273367914L28.177618901260693,135.93308163142407L28.42698056730429,134.04633872005058L28.676342233347892,132.43377128409233L28.925703899391493,131.02195440367527L29.17506556543509,128.910983308097L29.424427231478692,127.6307319819294L29.67378889752229,126.53831393227975L29.92315056356589,124.65174060224855L30.17251222960949,123.87552945877452L30.42187389565309,122.69757584934281L30.67123556169669,121.50282122072504L30.920597227740284,120.2105551376152L31.169958893783885,119.04702649384973L31.419320559827487,117.63947116358652L31.668682225871084,117.23011495057685L31.918043891914685,116.73851838116046L32.16740555795829,115.81222554301516L32.41676722400189,115.1709776643171L32.666128890045485,114.62974811530292L32.91549055608908,114.0629611110816L33.16485222213268,113.50443414035631L33.414213888176285,112.54298362148909L33.66357555421988,111.9394646996753L33.91293722026348,111.60807280329225L34.16229888630708,111.77205141320871L34.41166055235068,111.43255212071485L34.66102221839428,111.11289323097097L34.91038388443788,111.48931030554745L35.15974555048148,111.97520246251855L35.40910721652508,112.27761329336465L35.65846888256868,113.0366468720791L35.907830548612274,113.55882591877055L36.15719221465587,113.86927748220764L36.40655388069948,112.28256197422044L36.655915546743074,111.7072251025076L36.90527721278667,111.26815164179878L37.154638878830276,110.69870988389548L37.404000544873874,111.2444543313865L37.65336221091748,111.2295695127867L37.902723876961076,111.39583772577228L38.152085543004674,111.4360819082749L38.401447209048264,111.8172437892347L38.650808875091876,112.20924815664713L38.900170541135466,112.1861224460499L39.149532207179064,112.6925507830536L39.39889387322267,112.04250834788674L39.648255539266266,111.66656298056415L39.897617205309864,111.93109905876457L40.14697887135347,111.84295728935804L40.396340537397066,111.155398959105L40.64570220344066,110.98062715723383L40.89506386948426,110.89808636871271L41.144425535527866,110.77120128859549L41.39378720157146,109.88278399144781L41.64314886761506,110.12931927268235L41.892510533658665,109.41038623192148L42.14187219970226,109.1007078280782L42.39123386574586,107.85636979810604L42.640595531789465,107.72475976307567L42.88995719783306,107.45338847314581L43.13931886387666,107.10357331787502L43.388680529920265,106.887734531587L43.63804219596386,105.89246454108626L43.88740386200746,105.09498744734923L44.13676552805106,105.17933486540473L44.38612719409466,105.08575179481572L44.63548886013826,105.37627078927564L44.88485052618185,105.39649367982007L45.13421219222546,105.10367318810135L45.38357385826905,104.30955469453163L45.63293552431265,103.97478184602917L45.882297190356255,103.20193259477178L46.13165885639985,103.35534583080346L46.38102052244345,102.96179978132254L46.630382188487054,102.86931561660025L46.87974385453065,101.98555883707955L47.12910552057425,101.5784306480323L47.37846718661785,101.78630741618868L47.62782885266145,102.41113395795584L47.87719051870505,102.82320314256101L48.12655218474865,101.97452048462078L48.37591385079225,101.66972566684791L48.62527551683585,101.85263901203689L48.87463718287945,102.04239548682567L49.12399884892305,101.80341967789573L49.37336051496665,101.56832885940555L49.622722181010246,101.37498671460477L49.87208384705385,99.91369774090852L50.12144551309745,99.5108390954066L50.370807179141046,99.20788127747933L50.620168845184644,98.21921996018435L50.86953051122825,97.20820515115983L51.118892177271846,96.57868261614576L51.368253843315436,96.64538482253823L51.61761550935905,96.45374696380051L51.86697717540264,95.44743006181115L52.116338841446236,94.93334912993444L52.36570050748984,94.33644231197646L52.61506217353344,94.35687086601983L52.864423839577036,94.50689653505603L53.11378550562064,95.163436308359L53.36314717166424,94.74018417315423L53.612508837707836,94.5868324582894L53.86187050375143,95.02058821533548L54.11123216979504,94.44989044967312L54.360593835838635,94.34676936978936L54.60995550188223,94.23062106556173L54.85931716792584,94.14029068358495L55.108678833969435,93.44134644839231L55.35804050001303,93.43238186961406L55.60740216605664,93.31003324773599L55.856763832100235,93.34450868787859L56.10612549814383,93.09334366125695L56.35548716418744,93.62737817505435L56.604848830231035,94.29997593147645L56.85421049627463,94.33579264684717L57.10357216231822,94.54811961168834L57.352933828361834,94.26165493381896L57.602295494405425,94.28992156044039L57.85165716044902,93.40526502977714L58.10101882649263,93.6766167124748L58.350380492536225,92.96269867963028L58.59974215857982,92.88669690861083L58.84910382462343,92.82104906999702L59.098465490667024,91.97091648131673L59.34782715671062,91.63311303377515L59.59718882275422,92.65800744958509L59.846550488797824,92.23698031047256L60.09591215484142,92.21735198804737L60.34527382088502,92.32155414386666L60.594635486928624,92.04959109702935L60.84399715297222,91.53800170909612L61.09335881901582,91.47780999803354L61.342720485059424,91.45590302802421L61.59208215110302,91.22725158142396L61.84144381714662,91.03442874113144L62.09080548319022,90.84978770227218L62.34016714923382,90.41500421018867L62.58952881527742,90.13486698692022L62.838890481321016,89.46968836207833L63.08825214736462,89.3378030445261L63.33761381340822,90.25688656420307L63.58697547945181,90.34371911996071L63.83633714549542,90.10676250015442L64.08569881153902,89.89602627694875L64.33506047758262,88.8921806864055L64.58442214362621,88.90407915029509L64.83378380966981,88.91598408015152L65.08314547571341,87.58528713604512L65.33250714175702,87.88384196342832L65.58186880780062,87.00577086160764L65.83123047384422,86.64816174972465L66.08059213988781,86.55984942905988L66.32995380593141,83.22454233060348L66.57931547197501,83.27750657649301L66.8286771380186,83.88756683092336L67.07803880406222,84.59303707660986L67.3274004701058,83.70110596434006L67.5767621361494,84.80487897635074L67.82612380219301,84.82926153821644L68.07548546823661,86.04608842123191L68.3248471342802,86.03699954935813L68.5742088003238,85.83245873966868L68.8235704663674,86.16794960104211L69.072932132411,86.26139683782685L69.3222937984546,87.2556732277909L69.5716554644982,87.06825428099597L69.8210171305418,86.8443401183676L70.0703787965854,86.43880126183784L70.319740462629,86.5862179106809L70.5691021286726,86.45608907693362L70.8184637947162,84.68976303711112L71.0678254607598,84.65961121719081L71.3171871268034,83.61413163010344L71.566548792847,83.96675833255756L71.8159104588906,83.90698687610953L72.0652721249342,83.82170526710276L72.3146337909778,84.00861976788903L72.56399545702139,84.05061119552663L72.813357123065,82.77663246076989L73.06271878910859,82.22686928040348L73.31208045515218,81.45349637909788L73.5614421211958,81.89024147656967L73.8108037872394,79.50343565453821L74.06016545328299,76.09630653673885L74.30952711932659,73.56610523008612L74.55888878537019,75.64250476718077L74.80825045141378,77.48144374900251L75.0576121174574,75.11330054534936L75.30697378350098,77.01880643520222L75.55633544954459,78.43153056425547L75.80569711558819,79.3178945652485L76.05505878163179,76.60611798843064L76.30442044767538,78.0675963261127L76.553782113719,80.1316599351313L76.80314377976258,80.80771428619927L77.05250544580619,78.45250748346844L77.30186711184979,80.1937902579915L77.55122877789339,80.46126768822707L77.80059044393698,78.77733992634572L78.0499521099806,75.65948603587141L78.29931377602418,77.23815762983858L78.54867544206779,78.27534892796055L78.79803710811139,79.61888734992526L79.04739877415497,80.1653624495605L79.29676044019858,78.5792335117766L79.5461221062422,76.58923480571943L79.79548377228578,78.27625315050075L80.04484543832938,80.42007469325931L80.29420710437297,81.73982451297552L80.54356877041657,82.52787606944511L80.79293043646018,79.3558487249515L81.04229210250377,75.75787637824394L81.29165376854738,73.24946493644671L81.54101543459097,71.80781212700323L81.79037710063457,72.0998486134738L82.03973876667817,72.4584149726556L82.28910043272178,71.00118138352319L82.53846209876536,73.46695700807994L82.78782376480898,70.56296830874344L83.03718543085257,68.58893798962241L83.28654709689617,61.59904286562629L83.53590876293977,61.89816736471236L83.78527042898338,62.444304612523155L84.03463209502696,62.6573924510478L84.28399376107058,59.4104724573665L84.53335542711417,60.63923565046327L84.78271709315777,65.6938872439942L85.03207875920137,66.13852257314396L85.28144042524498,59.30051194039969L85.53080209128856,58.72581133460138L85.78016375733218,59.33652127496109L86.02952542337576,57.79022532698173L86.27888708941936,58.72860274306816L86.52824875546297,53.8846395451389L86.77761042150655,52.983095702929646L87.02697208755016,50.722367865290515L87.27633375359376,57.73803776690499L87.52569541963736,63.423202647617L87.77505708568096,64.21100840928017L88.02441875172457,59.73685660570618L88.27378041776815,59.189588410774256L88.52314208381176,53.044113126557065L88.77250374985536,51.25299185206979L89.02186541589896,57.81372123785412L89.27122708194256,62.864304770011294L89.52058874798617,62.957597501165516L89.76995041402975,62.89609668134199L90.01931208007336,67.34605425370323L90.26867374611696,62.66425630173643L90.51803541216056,66.23825412250186L90.76739707820416,69.90349841989851L91.01675874424777,56.49367677361988L91.26612041029135,61.97230245462318L91.51548207633496,65.84373640714995L91.76484374237856,69.54810101257743L92.01420540842214,67.57060571646885L92.26356707446575,63.06730175284128L92.51292874050934,61.8187988758252L92.76229040655295,58.47854024329798L93.01165207259655,52.79575012864703L93.26101373864014,54.15865221272628L93.51037540468374,59.828676755165574L93.75973707072735,65.2430736247353L94.00909873677094,69.9347353666607L94.25846040281455,61.831462923312614L94.50782206885815,66.60797475240473L94.75718373490174,65.4129261203594L95.00654540094534,65.7860894656654L95.25590706698895,64.88565958213532L95.50526873303254,64.68886126992835L95.75463039907615,68.34439111671946L96.00399206511975,66.69446379742593L96.25335373116334,66.80677229745785L96.50271539720694,69.41305321713747L96.75207706325055,71.58671074830933L97.00143872929414,73.35479883980273L97.25080039533775,70.5505487364566L97.50016206138135,72.68110293648262L97.74952372742493,65.81176264661012L97.99888539346854,69.78073375257652L98.24824705951215,67.94276627035306L98.49760872555574,71.4390449555545L98.74697039159933,69.87152082618249L98.99633205764293,72.36281682732209L99.24569372368653,75.51831040547313L99.49505538973014,62.64461404896468L99.74441705577372,62.085876118599856L99.99377872181734,66.10436561518598L100.24314038786093,62.70494613769428L100.49250205390453,61.94349834995467L100.74186371994813,58.569445031370456L100.99122538599174,64.05678427594196L101.24058705203532,68.91967021169253L101.48994871807894,67.92895044980193L101.73931038412253,68.31490396844109L101.98867205016613,70.81785360027867L102.23803371620973,73.85892127662633L102.48739538225334,76.311961431433L102.73675704829692,73.44845957738467L102.98611871434053,76.05467696713406L103.23548038038413,68.75419869224149L103.48484204642773,69.0385951342085L103.73420371247133,68.48890899135016L103.98356537851494,64.07440301138988L104.23292704455852,59.32367994829072L104.48228871060213,58.97362716717327L104.73165037664572,54.634293723132075L104.98101204268931,49.679918906908014L105.23037370873293,51.62243545935314L105.47973537477651,51.999780064985075L105.72909704082012,50.339750909656004L105.97845870686372,45.993526453814646L106.22782037290732,45.53168683908895L106.47718203895091,50.28999888008341L106.72654370499453,49.75347177066481L106.97590537103811,54.978827873951474L107.22526703708172,55.74886345275001L107.47462870312532,60.661721128551214L107.72399036916892,66.18279638299535L107.97335203521251,66.43624072937412L108.22271370125613,60.0634419812617L108.47207536729971,59.581349009685L108.72143703334332,59.41396436865487L108.97079869938692,57.746290134005896L109.22016036543052,58.16495882623975L109.46952203147411,60.360896845591185L109.71888369751773,60.2122934403416L109.96824536356131,57.1457636233367L110.21760702960492,58.1846729874828L110.46696869564852,54.07320880322491L110.7163303616921,56.69758959577664L110.96569202773571,57.69630166899264L111.2150536937793,51.26468755887913L111.46441535982291,47.8768136387513L111.7137770258665,53.03458395652568L111.9631386919101,50.47029133960096L112.2125003579537,53.32394809930874L112.46186202399731,59.761996418416594L112.7112236900409,51.94497326879509L112.96058535608451,43.44942993641571L113.2099470221281,52.45548178699831L113.4593086881717,54.037811084754246L113.7086703542153,51.6503011079775L113.95803202025891,53.48721851572177L114.2073936863025,59.39473958421485L114.45675535234611,58.82688608720453L114.7061170183897,50.03953468714088L114.9554786844333,57.0785263669641L115.2048403504769,42.49581042573219L115.45420201652051,40.278047532879775L115.7035636825641,44.669369608288775L115.9529253486077,52.99778723531343L116.2022870146513,53.74407104482386L116.45164868069489,50.65231763868606L116.7010103467385,40.008696593080266L116.95037201278211,40.913508344238764L117.1997336788257,48.825968833323806L117.44909534486929,42.49637747557124L117.69845701091289,40.309296228803575L117.94781867695649,40.58884434126964L118.1971803430001,48.0942632458811L118.44654200904368,52.03248535594L118.6959036750873,40.791517178447L118.94526534113089,44.74973442188246L119.19462700717449,40.29509773107051L119.44398867321809,39.814243498437044L119.6933503392617,37.262553408536185L119.94271200530528,47.83456715420622L120.1920736713489,45.20435866609919L120.44143533739249,44.18362381790391L120.69079700343609,44.190668953646814L120.94015866947969,46.85913965444331L121.1895203355233,54.787656508502934L121.43888200156688,44.45042677644778L121.6882436676105,46.943218663939454L121.93760533365409,45.865521376391115L122.18696699969769,47.57164508252553L122.43632866574129,55.43517126331521L122.6856903317849,52.34440691882535L122.93505199782848,49.473833747135195L123.18441366387209,46.68954250262351L123.43377532991568,40.07169059423766L123.68313699595927,44.69148770972261L123.93249866200289,40.84970996632824L124.18186032804647,46.83775322534583L124.43122199409008,47.3958199370325L124.68058366013368,55.679514020429195L124.92994532617728,62.18688783764388L125.17930699222087,62.91838758645519L125.42866865826448,65.92590094882267L125.67803032430807,69.57438624864353L125.92739199035168,73.29310759748057L126.17675365639528,65.84180109369443L126.42611532243887,52.98868868887551L126.67547698848247,56.36051050361574L126.92483865452608,54.71929271311807L127.17420032056967,60.92921006401089L127.42356198661328,64.866642689214L127.67292365265688,65.03215631766213L127.92228531870047,57.47393042893291L128.1716469847441,62.87417358985713L128.42100865078768,68.12571915622819L128.67037031683128,63.542263012361246L128.91973198287488,68.63341748112245L129.16909364891848,57.992922451460835L129.41845531496207,64.92694712963647L129.66781698100567,63.83480479499544L129.91717864704927,56.681732971859454L130.16654031309287,50.38989303533712L130.41590197913646,50.295372219103264L130.66526364518006,53.5626413585075L130.91462531122366,41.72112181543965L131.16398697726726,40.920007385796886L131.41334864331085,25.215569198995823L131.66271030935445,30.615566009563853L131.91207197539808,42.42156591636773L132.16143364144165,30.24316641083496L132.41079530748527,42.682659501564565L132.66015697352887,49.38077839875242L132.90951863957247,56.609041100776444L133.15888030561607,54.14952346775102L133.40824197165966,54.34350106117503L133.65760363770326,46.53326352518747L133.90696530374686,54.54176568805809L134.15632696979046,49.90196070823624L134.40568863583405,46.91115703881496L134.65505030187765,48.3696719185585L134.90441196792128,51.57112406234292L135.15377363396485,48.59470521669959L135.40313530000847,50.283955448041304L135.65249696605207,55.548250421767L135.90185863209564,61.498137107700224L136.15122029813926,61.666767140878754L136.40058196418283,60.451966275249355L136.64994363022646,62.38551974600052L136.89930529627006,57.28462935322287L137.14866696231365,57.213271385446035L137.39802862835725,57.390273786100835L137.64739029440085,50.53582399131664L137.89675196044445,49.532748097881175L138.14611362648805,38.7835193092824L138.39547529253164,27.548596324174277L138.64483695857524,22.598488547394375L138.89419862461884,30.199845353390394L139.14356029066246,30.557427916036232L139.39292195670603,30.652814148045152L139.64228362274966,37.19327163565689L139.89164528879326,31.155129462190803L140.14100695483685,29.57534539733344L140.39036862088045,30.462803956958567L140.63973028692405,36.753244286638335L140.88909195296765,31.52936214605253L141.13845361901124,27.651208852652676L141.38781528505484,23.906180302656203L141.63717695109844,31.01309969371827L141.88653861714204,25.911101202214127L142.13590028318563,33.29811833712217L142.38526194922923,45.15750098176433L142.63462361527283,27.687713495857952L142.88398528131643,26.303396637721608L143.13334694736002,35.324158993640076L143.38270861340365,35.11123525071401L143.63207027944722,44.34413617188945L143.88143194549085,46.17651276941555L144.13079361153444,50.39139961439613L144.38015527757804,53.84088417557842L144.62951694362164,57.329388753314824L144.87887860966524,58.318661426162926L145.12824027570883,52.99815288441564L145.37760194175243,50.964686687125784L145.62696360779603,46.43023580597585L145.87632527383963,49.377579903055654L146.12568693988322,50.74528957418655L146.37504860592685,39.12837889921266L146.62441027197042,37.50029976982142L146.87377193801404,35.06410790858047L147.12313360405764,41.0864996803197L147.37249527010124,50.65446561070169L147.62185693614484,52.988559922233385L147.87121860218843,48.56354015106284L148.12058026823203,56.46273163043604L148.36994193427563,57.21623143841394L148.61930360031923,52.41804787028925L148.86866526636283,34.42258960230894L149.11802693240642,30.33272032391522L149.36738859845002,27.67506069632918L149.61675026449362,33.24539573177409L149.86611193053722,31.118282772549797L150.11547359658084,40.73830260408241L150.36483526262444,35.422189281733004L150.614196928668,41.184882653596624L150.8635585947116,39.64384212413089L151.11292026075523,41.056521400055395L151.36228192679883,50.28889445915465L151.61164359284243,27.340970156208435L151.861005258886,31.985474525122797L152.11036692492962,34.711625162437265L152.35972859097322,40.20611714745339L152.60909025701682,50.30020947646291L152.85845192306041,50.0404435625999L153.10781358910404,55.86104465017251L153.3571752551476,56.57352174272641L153.6065369211912,56.51137884148618L153.8558985872348,57.25187244945216L154.10526025327843,62.05732095376596L154.35462191932203,62.99750359932951L154.60398358536563,52.226293608403026L154.8533452514092,50.03333113989124L155.1027069174528,55.640716297173704L155.35206858349642,50.80173027749318L155.60143024954002,41.79826835520901L155.8507919155836,41.52713772009324L156.1001535816272,43.24500509599052L156.3495152476708,52.296625306976956L156.5988769137144,43.212541482580725L156.848238579758,53.81602836754077L157.0976002458016,45.54817615884777L157.34696191184523,49.03012142522046L157.59632357788882,46.02370372214876L157.8456852439324,43.86224069537647L158.095046909976,34.55310759405085L158.34440857601962,39.13447989176504L158.59377024206321,32.183367498220875L158.8431319081068,40.45378140057002L159.09249357415038,39.37715963447256L159.34185524019398,40.98508515976101L159.5912169062376,43.83421404386129L159.8405785722812,49.837583382056025L160.0899402383248,54.854010500173715L160.33930190436843,61.91201470921619L160.588663570412,63.22508777585447L160.8380252364556,63.783896476424594L161.0873869024992,63.43251936109855L161.3367485685428,57.5910574436288L161.5861102345864,54.3504993552065L161.83547190063,46.356182912957685L162.08483356667358,48.011012277020065L162.33419523271718,47.624524067879136L162.5835568987608,50.78956715935336L162.8329185648044,54.141289602899356L163.082280230848,58.820313579400725L163.3316418968916,53.97994308962216L163.5810035629352,55.179737674101986L163.8303652289788,55.19307538332677L164.0797268950224,59.671876978490126L164.329088561066,59.242178014936975L164.5784502271096,60.80602408846296L164.82781189315318,52.80968622504913L165.07717355919678,55.875659374420856L165.32653522524038,64.26796426780096L165.575896891284,63.93362071754901L165.8252585573276,67.99524684293492L166.0746202233712,66.96778193526248L166.32398188941477,61.40888608495857L166.57334355545837,64.55778307791839L166.822705221502,68.84051046576629L167.0720668875456,60.21996582968922L167.3214285535892,67.7001352103541L167.5707902196328,40.143167668045514L167.82015188567638,36.7176027718657L168.06951355171998,43.65792353321077L168.31887521776358,43.12300564876534L168.56823688380717,38.14240171789864L168.8175985498508,25.608003247514482L169.0669602158944,19.517309562211132L169.31632188193797,30.13635199724555L169.56568354798156,43.200054607228516L169.8150452140252,53.60120108410924L170.0644068800688,36.55053426426355L170.31376854611239,48.843938157219355L170.56313021215595,57.857635381605036L170.81249187819958,50.461988507207806L171.06185354424318,55.625955513108735L171.31121521028678,52.92333619716172L171.56057687633037,60.962872399276876L171.809938542374,55.53301941850558L172.05930020841757,60.038530776577794L172.30866187446117,51.393241614762125L172.55802354050476,55.285751595502866L172.8073852065484,52.311018117279765L173.056746872592,48.10054232085753L173.30610853863558,50.07003517411482L173.55547020467915,44.201493238164765L173.80483187072275,36.365696012448005L174.05419353676638,34.27554421076744L174.30355520280997,35.20375644019684L174.55291686885357,40.352705857290324L174.80227853489717,34.65470979533246L175.05164020094077,46.240414936609234L175.30100186698436,40.176634520756956L175.55036353302796,44.77709739805183L175.79972519907156,42.887777068520116L176.04908686511519,37.12378171650062L176.29844853115878,36.78024180228291L176.54781019720235,32.946311957635935L176.79717186324595,33.54355878659803L177.04653352928958,36.962510457767316L177.29589519533317,47.567961683142535L177.54525686137677,43.82199123944735L177.79461852742034,41.19373695971318L178.04398019346394,38.54326555979571L178.29334185950756,46.57848919278403L178.54270352555116,41.510846458260886L178.79206519159476,52.704036042040094L179.04142685763838,42.825756385806685L179.29078852368195,44.427462979756285L179.54015018972555,45.49191685882923L179.78951185576915,47.175558172892515L180.03887352181275,38.52485277356543L180.28823518785637,50.01845872677609L180.53759685389997,49.93298872815433L180.78695851994354,49.62810545921022L181.03632018598714,56.71265419445538L181.28568185203076,53.82752955679902L181.53504351807436,51.61114942340311L181.78440518411796,54.706873563239924L182.03376685016156,63.716111484313885L182.28312851620515,65.276206462884L182.53249018224875,55.2820228447152L182.78185184829235,56.671240232517185L183.03121351433595,50.854960704511846L183.28057518037957,49.37999063931518L183.52993684642314,46.1974332185244L183.77929851246674,49.227679933501655L184.02866017851034,44.52574558113642L184.27802184455396,50.021579177342495L184.52738351059756,52.5861194168721L184.77674517664116,54.61678682584885L185.02610684268473,63.60335343944253L185.27546850872832,64.30479604882409L185.52483017477195,56.43174666786855L185.77419184081555,51.47201632319529L186.02355350685914,45.589837501047235L186.27291517290277,39.40719017870494L186.52227683894634,34.236377277613826L186.77163850498994,46.4487691294151L187.02100017103353,44.463452773761325L187.27036183707713,41.28323703265332L187.51972350312076,36.53931710497537L187.76908516916436,18.389672630852104L188.01844683520793,27.911993880087575L188.26780850125152,33.56037257927771L188.51717016729515,41.153819605205385L188.76653183333875,46.97572658742352L189.01589349938234,44.53549970443534L189.2652551654259,55.442085150094236L189.51461683146954,47.05385667333821L189.76397849751314,51.49141967337796L190.01334016355673,48.72742860674644L190.26270182960033,48.823065161860384L190.51206349564396,55.909441859129835L190.76142516168753,46.02079763289388L191.01078682773112,48.649364882245706L191.26014849377472,58.92905653822886L191.50951015981835,49.919971408719974L191.75887182586195,33.68406606019678L192.00823349190554,42.26591098486352L192.2575951579491,41.14288449534143L192.5069568239927,52.37020525357068L192.75631849003634,47.45478769253641L193.00568015607993,57.5061792453727L193.25504182212353,65.81459750844314L193.50440348816713,65.90129398860448L193.75376515421073,68.79202991267644L194.00312682025432,56.975515217184146L194.25248848629792,59.33501937863148L194.50185015234152,62.29515188522241L194.75121181838514,67.95777512682982L195.00057348442874,64.14818288715198L195.2499351504723,65.88171101778426L195.4992968165159,70.30433240619152L195.74865848255953,73.89956124433232L195.99802014860313,73.20555770226728L196.24738181464673,71.99790011303882L196.4967434806903,66.29128637391034L196.7461051467339,59.07838316279258L196.99546681277752,61.6348006883787L197.24482847882112,69.3175331814869L197.49419014486472,59.94040919056523L197.74355181090834,67.5651967987919L197.9929134769519,62.792227115914876L198.2422751429955,57.892057806223846L198.4916368090391,55.24813868124025L198.7409984750827,58.320431651188635L198.99036014112633,53.61760438958215L199.23972180716993,59.295451410488724L199.4890834732135,67.23870451363094L199.7384451392571,64.02670884751512L199.98780680530072,69.60174713320362L200.23716847134432,64.26139129753714L200.48653013738792,65.33843260349278L200.7358918034315,72.02074083691717L200.9852534694751,74.11061385937732L201.2346151355187,72.29344832533255L201.4839768015623,78.22295050094421L201.7333384676059,73.87322193489844L201.98270013364953,76.78678563269673L202.2320617996931,72.87438899153533L202.4814234657367,77.86207459267287L202.7307851317803,69.79820466323746L202.98014679782392,67.64157602602603L203.22950846386752,58.983379829699274L203.47887012991112,55.69731965344478L203.72823179595468,58.5896211268152L203.97759346199828,64.44322573093193L204.2269551280419,67.99496103379613L204.4763167940855,75.0168751445001L204.7256784601291,70.00551358572726L204.97504012617273,58.45048631536815L205.2244017922163,47.701885643482235L205.4737634582599,46.28758761443291L205.7231251243035,53.62499170830909L205.9724867903471,51.46241211026633L206.22184845639072,53.590035510397236L206.47121012243431,60.67947302072458L206.72057178847788,53.93488246100086L206.96993345452148,62.547831967954366L207.2192951205651,67.1210266350412L207.4686567866087,70.84042604832307L207.7180184526523,62.298585183832095L207.96738011869587,57.118975151675514L208.2167417847395,53.38764122617668L208.4661034507831,59.78510386799921L208.7154651168267,47.13647162203089L208.9648267828703,46.64962233091249L209.21418844891392,33.548618512935064L209.46355011495748,36.58338776278356L209.71291178100108,40.05065487133054L209.96227344704468,33.941590446690874L210.2116351130883,38.71954294365593L210.4609967791319,49.24834489142214L210.7103584451755,57.404835945432865L210.95972011121907,65.77914956512078L211.20908177726267,64.87786566951938L211.4584434433063,69.00457940799751L211.7078051093499,63.48220887310969L211.9571667753935,66.91218241183687L212.2065284414371,66.65090276561752L212.45589010748068,69.24768914697279L212.70525177352428,66.58661119038392L212.95461343956788,58.67044213304896L213.20397510561148,55.34243661072104L213.4533367716551,59.175134738342145L213.7026984376987,57.53393019874561L213.95206010374227,60.978624876848336L214.20142176978587,68.91148548536859L214.4507834358295,56.56166240403923L214.7001451018731,65.59901716503526L214.9495067679167,59.47575992517891L215.19886843396026,55.032736645245414L215.44823010000385,59.46274740826993L215.69759176604748,46.708092649868256L215.94695343209108,53.112393449063994L216.19631509813468,54.599859017804064L216.4456767641783,63.95920904642406L216.69503843022187,62.03996490393713L216.94440009626547,70.47006449631789L217.19376176230907,69.60476477440659L217.44312342835266,72.69593261096162L217.6924850943963,69.52952358793091L217.9418467604399,65.6061698939083L218.19120842648346,70.89151116981824L218.44057009252705,76.5341915757949L218.68993175857068,80.75009569921102L218.93929342461428,74.13385997269211L219.18865509065787,70.1017750693373L219.43801675670147,69.56901192003264L219.68737842274507,56.93423104372275L219.93674008878867,66.16897156473168L220.18610175483226,72.22719794580772L220.43546342087586,77.01856056177273L220.6848250869195,75.30725115010938L220.93418675296306,67.58154543977587L221.18354841900666,67.9186852311893L221.43291008505025,67.75174214019769L221.68227175109388,63.25251016232366L221.93163341713748,64.90934724823538L222.18099508318107,46.683377247952855L222.43035674922464,55.099302485470695L222.67971841526824,60.48202654521562L222.92908008131187,62.60678916952539L223.17844174735546,64.51263349987305L223.42780341339906,66.57896160979604L223.6771650794427,69.59073064240434L223.92652674548626,75.12467994650187L224.17588841152985,77.52638808408675L224.42525007757345,57.740034483215766L224.67461174361705,43.386732176350606L224.92397340966068,46.517551654358755L225.17333507570427,54.80172219759217L225.42269674174784,64.68602115214352L225.67205840779144,72.26908958777068L225.92142007383507,71.96924720571587L226.17078173987866,72.00641966910845L226.42014340592226,68.2706334164886L226.66950507196583,74.54681074423691L226.91886673800946,75.49521557892064L227.16822840405305,81.83035874927806L227.41759007009665,75.85243246289501L227.66695173614025,67.8698267941944L227.91631340218387,73.55490436459215L228.16567506822744,64.928644458897L228.41503673427104,67.84443373458896L228.66439840031464,70.83440810040035L228.91376006635826,72.8308363080152L229.16312173240186,76.57077502652696L229.41248339844546,71.6089582826617L229.66184506448903,74.14745846755717L229.91120673053263,69.90553905877154L230.16056839657625,75.90712700441452L230.40993006261985,65.54591742348485L230.65929172866345,68.56895633524807L230.90865339470704,56.50711987851978L231.15801506075064,64.383564972147L231.40737672679424,65.41941049587172L231.65673839283784,54.08320711112748L231.90610005888144,50.710661486925815L232.15546172492506,54.92981893945613L232.40482339096866,52.05467954239914L232.65418505701223,48.77499798703391L232.90354672305583,58.10159653031516L233.15290838909945,67.54402105172785L233.40227005514305,73.13693901764964L233.65163172118665,76.05006941137574L233.90099338723022,69.39025110381397L234.1503550532738,70.30177042283876L234.39971671931744,72.43811756753009L234.64907838536104,56.53188428078851L234.89844005140463,57.13133069080308L235.14780171744826,59.416906834569474L235.39716338349183,59.74552213829236L235.64652504953543,63.49361682511738L235.89588671557902,65.14856932911367L236.14524838162262,68.2439719302087L236.39461004766625,66.66260209765743L236.64397171370985,62.64020616120468L236.89333337975341,60.124496453224296L237.142695045797,59.57562621627711L237.39205671184064,68.01595487740455L237.64141837788424,70.24660193045413L237.89078004392783,71.14115511807476L238.14014170997143,75.28827583545863L238.38950337601503,75.99550935324874L238.63886504205863,75.92434133861202L238.88822670810222,60.59330164802337L239.13758837414582,65.3845870888238L239.38695004018945,51.20435891108412L239.63631170623302,62.27590790942194L239.8856733722766,71.60467013055123L240.1350350383202,76.59143188081002L240.38439670436384,63.55208744062335L240.63375837040743,60.12191018884807L240.88312003645103,69.42021776781199L241.1324817024946,73.79975779459981L241.3818433685382,74.98830518760595L241.63120503458182,78.55236822782102L241.88056670062542,64.53771375400825L242.12992836666902,66.03035877850877L242.37929003271265,68.52500407093389L242.62865169875622,60.485614505479695L242.8780133647998,56.46458667404148L243.1273750308434,46.38499670346593L243.376736696887,54.410943882636936L243.62609836293063,61.14106690512268L243.87546002897423,68.79276391042956L244.1248216950178,75.74251135192628L244.3741833610614,72.70368791193314L244.62354502710502,78.98362232705703L244.87290669314862,77.10305650185839L245.12226835919222,71.94170036691496L245.3716300252358,59.96140001961637L245.62099169127941,69.02446014903995L245.870353357323,76.30383655372408L246.1197150233666,80.06389511366159L246.3690766894102,70.78371082009143L246.61843835545383,65.44195644184262L246.8678000214974,66.2188020073528L247.117161687541,61.42086867202265L247.3665233535846,69.84080018364476L247.61588501962822,67.77455744233659L247.86524668567182,73.71660144031843L248.11460835171542,60.48971669726807L248.363970017759,69.78559435325428L248.61333168380258,61.78581249027851L248.8626933498462,65.98477598228018L249.1120550158898,64.20818807212406L249.3614166819334,69.5341770422056L249.610778347977,70.18038638794148L249.8601400140206,71.683234894661L250.1095016800642,67.22089544904253L250.3588633461078,69.4640919370672L250.6082250121514,73.03804448610138L250.85758667819502,74.5227777410247L251.10694834423862,75.48896012510035L251.3563100102822,62.38886397373446L251.60567167632578,69.70196321721878L251.8550333423694,66.29729813668393L252.104395008413,56.09718774259856L252.3537566744566,59.02403370232039L252.60311834050017,48.17196854507302L252.85248000654377,47.81515674874699L253.1018416725874,40.40324413897594L253.351203338631,47.05981487250028L253.6005650046746,54.21202157394464L253.84992667071822,64.45187948790482L254.0992883367618,72.22733193980704L254.34865000280539,68.22503413830883L254.59801166884898,60.35744983526249L254.84737333489258,54.956724656776615L255.0967350009362,64.8813572745334L255.3460966669798,60.58535197192157L255.59545833302337,53.733398110160294L255.84481999906697,52.118808042889775L256.09418166511057,62.61374697993611L256.3435433311542,62.54932910333584L256.5929049971978,57.993604217589684L256.8422666632414,59.78590654540495L257.09162832928496,63.054711219094486L257.3409899953286,71.09840555309702L257.5903516613722,71.17432139628029L257.8397133274158,69.57991008052326L258.0890749934594,67.96213634061101L258.338436659503,67.07860342828317L258.5877983255466,67.78357196994516L258.83715999159017,69.24408228926144L259.0865216576338,68.00592886275372L259.33588332367736,72.24653437608247L259.585244989721,73.75576287091137L259.83460665576456,75.73735649648034L260.0839683218082,79.51930003453239L260.33332998785176,70.82102773926434L260.5826916538954,78.34322249269651L260.832053319939,82.3887493780349L261.0814149859826,74.66129018452517L261.33077665202615,73.43604282861067L261.58013831806977,61.970959673591054L261.8294999841134,59.17781495965642L262.07886165015697,55.14543029937553L262.3282233162006,59.11414553978274L262.57758498224416,56.7097692882722L262.8269466482878,63.74135363707657L263.07630831433136,62.686498974373315L263.325669980375,71.7414897032566L263.57503164641855,75.3083314933765L263.8243933124622,66.72583666113468L264.07375497850575,73.88390608803638L264.3231166445494,53.584421760271574L264.57247831059294,51.91210034277899L264.82183997663657,54.957887640382204L265.0712016426802,55.29897292806465L265.32056330872376,65.84215268651805L265.56992497476733,73.51356897347557L265.81928664081096,64.36837384058302L266.0686483068546,67.01424051693228L266.31800997289815,74.58849928069718L266.5673716389418,72.65170240373834L266.8167333049854,76.39776150671734L267.066094971029,77.58993308236245L267.31545663707254,81.1770087254595L267.56481830311617,84.30416823965213L267.81417996915974,83.39931538413867L268.06354163520336,81.45644416629966L268.312903301247,75.40502076922174L268.56226496729056,74.50202889396289L268.81162663333413,76.90855644685018L269.06098829937775,77.10671020404544L269.3103499654214,76.42476504388478L269.55971163146495,79.46369900729147L269.8090732975086,78.67542220620935L270.05843496355214,67.15971854353252L270.30779662959577,61.44975640160277L270.55715829563934,69.39740488023396L270.80651996168297,78.28711211395115L271.0558816277266,79.47514584995858L271.30524329377016,79.20984718962744L271.55460495981373,80.09334421362277L271.80396662585736,80.89557470909673L272.053328291901,82.66354519191484L272.30268995794455,77.68936486058773L272.5520516239882,67.48581376144514L272.80141329003175,73.52610786876507L273.0507749560753,81.27355074939294L273.30013662211894,80.82578280598844L273.54949828816257,85.77280034096614L273.79885995420614,86.80624823691294L274.04822162024976,78.00245638651023L274.29758328629333,76.63118077050133" fill="none"></path></g></g></g></g><g opacity="0.2"><g><g><g><path style="fill: none;" stroke="rgb(0, 119, 187)" stroke-width="2px" d="M25.185278908737498,157.53384022512668L25.4346405747811,155.05932693403685L25.6840022408247,151.6830596767955L25.933363906868298,148.60876074132963L26.1827255729119,144.8900094735479L26.432087238955496,140.13983064639447L26.681448904999097,137.7489915409056L26.9308105710427,138.49540382333822L27.180172237086296,137.063545210195L27.429533903129897,135.1093270082139L27.67889556917349,136.77183865100528L27.928257235217092,130.28966360219934L28.177618901260693,129.6493754267837L28.42698056730429,126.91426622849244L28.676342233347892,126.26718740368477L28.925703899391493,125.57338244377458L29.17506556543509,120.7047731417699L29.424427231478692,122.62504146516837L29.67378889752229,122.24735875002247L29.92315056356589,117.2142008302343L30.17251222960949,120.80648130565542L30.42187389565309,118.02922022914383L30.67123556169669,116.7590656388379L30.920597227740284,115.07200357536497L31.169958893783885,114.41489035346453L31.419320559827487,112.03052021729981L31.668682225871084,115.59763891149144L31.918043891914685,114.77688653377967L32.16740555795829,112.11422103413676L32.41676722400189,112.6099552816455L32.666128890045485,112.46750995816295L32.91549055608908,111.79805836884036L33.16485222213268,111.27209630007945L33.414213888176285,108.69961911267484L33.66357555421988,109.52661309421768L33.91293722026348,110.28304293185465L34.16229888630708,112.42775299646927L34.41166055235068,110.0749075069614L34.66102221839428,109.83452323421123L34.91038388443788,112.99472843179652L35.15974555048148,113.91851274581994L35.40910721652508,113.48712798540737L35.65846888256868,116.0725229011942L35.907830548612274,115.6473999548788L36.15719221465587,115.11101612559256L36.40655388069948,105.93597638710176L36.655915546743074,109.40595780591232L36.90527721278667,109.51190675729025L37.154638878830276,108.42099364818453L37.404000544873874,113.42739317572544L37.65336221091748,111.1700310881604L37.902723876961076,112.06090298392498L38.152085543004674,111.59705716786199L38.401447209048264,113.34188017169953L38.650808875091876,113.77725645965651L38.900170541135466,112.0936200362787L39.149532207179064,114.718256551975L39.39889387322267,109.4423463899314L39.648255539266266,110.1627851121149L39.897617205309864,112.98924134456453L40.14697887135347,111.49039075203937L40.396340537397066,108.40516900986911L40.64570220344066,110.28154063541177L40.89506386948426,110.56792347368673L41.144425535527866,110.26366128671481L41.39378720157146,106.32911658739656L41.64314886761506,111.11546000145367L41.892510533658665,106.53465499310263L42.14187219970226,107.86199453119085L42.39123386574586,102.87901870199934L42.640595531789465,107.19831970958022L42.88995719783306,106.36790345631995L43.13931886387666,105.7043128441512L43.388680529920265,106.02437945917251L43.63804219596386,101.91138484740753L43.88740386200746,101.90507924440061L44.13676552805106,105.51672452307322L44.38612719409466,104.71141952537734L44.63548886013826,106.53834673503405L44.88485052618185,105.47738524021119L45.13421219222546,103.93239124192125L45.38357385826905,101.1330807651515L45.63293552431265,102.63569046716154L45.882297190356255,100.11053561770782L46.13165885639985,103.96899877048916L46.38102052244345,101.3876155925128L46.630382188487054,102.49937895942449L46.87974385453065,98.45053173209523L47.12910552057425,99.94991789667064L47.37846718661785,102.61781448684225L47.62782885266145,104.91044012028303L47.87719051870505,104.47147987848021L48.12655218474865,98.57978985698159L48.37591385079225,100.45054639694064L48.62527551683585,102.58429239222431L48.87463718287945,102.80142138550883L49.12399884892305,100.84751644265148L49.37336051496665,100.62796558581888L49.622722181010246,100.60161813564793L49.87208384705385,94.06854184761173L50.12144551309745,97.89940451372712L50.370807179141046,97.9960500059677L50.620168845184644,94.26457469152002L50.86953051122825,93.16414591548349L51.118892177271846,94.0605924762996L51.368253843315436,96.91219364809037L51.61761550935905,95.68719552889056L51.86697717540264,91.42216245402568L52.116338841446236,92.87702540249778L52.36570050748984,91.94881504020988L52.61506217353344,94.43858508219158L52.864423839577036,95.10699921119038L53.11378550562064,97.78959540153409L53.36314717166424,93.04717563235418L53.612508837707836,93.97342559883546L53.86187050375143,96.75561124350739L54.11123216979504,92.16709938703679L54.360593835838635,93.93428505025622L54.60995550188223,93.76602784865295L54.85931716792584,93.77896915567891L55.108678833969435,90.64556950762835L55.35804050001303,93.39652355450107L55.60740216605664,92.82063876022443L55.856763832100235,93.48241044844886L56.10612549814383,92.08868355477134L56.35548716418744,95.76351623024237L56.604848830231035,96.99036695716323L56.85421049627463,94.47905950832995L57.10357216231822,95.39742747105258L57.352933828361834,93.1157962223418L57.602295494405425,94.40298806692604L57.85165716044902,89.86663890712484L58.10101882649263,94.76202344326518L58.350380492536225,90.10702654825269L58.59974215857982,92.58268982453302L58.84910382462343,92.55845771554169L59.098465490667024,88.57038612659584L59.34782715671062,90.28189924360892L59.59718882275422,96.75758511282471L59.846550488797824,90.55287175402245L60.09591215484142,92.13883869834663L60.34527382088502,92.73836276714384L60.594635486928624,90.96173890968011L60.84399715297222,89.4916441573633L61.09335881901582,91.23704315378319L61.342720485059424,91.36827514798689L61.59208215110302,90.31264579502297L61.84144381714662,90.26313737996124L62.09080548319022,90.11122354683529L62.34016714923382,88.67587024185465L62.58952881527742,89.01431809384643L62.838890481321016,86.80897386271074L63.08825214736462,88.81026177431714L63.33761381340822,93.93322064291102L63.58697547945181,90.69104934299125L63.83633714549542,89.1589360209291L64.08569881153902,89.05308138412609L64.33506047758262,84.87679832423244L64.58442214362621,88.95167300585359L64.83378380966981,88.96360379957713L65.08314547571341,82.26249935961958L65.33250714175702,89.07806127296118L65.58186880780062,83.49348645432488L65.83123047384422,85.21772530219275L66.08059213988781,86.20660014640079L66.32995380593141,69.88331393677792L66.57931547197501,83.48936356005113L66.8286771380186,86.32780784864477L67.07803880406222,87.41491805935581L67.3274004701058,80.13338151526084L67.5767621361494,89.21997102439346L67.82612380219301,84.92679178567933L68.07548546823661,90.91339595329376L68.3248471342802,86.00064406186303L68.5742088003238,85.01429550091096L68.8235704663674,87.50991304653581L69.072932132411,86.63518578496573L69.3222937984546,91.2327787876471L69.5716554644982,86.31857849381628L69.8210171305418,85.94868346785414L70.0703787965854,84.81664583571883L70.319740462629,87.17588450605315L70.5691021286726,85.93557374194447L70.8184637947162,77.6244588778212L71.0678254607598,84.53900393750956L71.3171871268034,79.4322132817539L71.566548792847,85.37726514237406L71.8159104588906,83.66790105031738L72.0652721249342,83.48057883107568L72.3146337909778,84.75627777103408L72.56399545702139,84.21857690607706L72.813357123065,77.6807175217429L73.06271878910859,80.02781655893786L73.31208045515218,78.36000477387545L73.5614421211958,83.63722186645683L73.8108037872394,69.95621236641233L74.06016545328299,62.467790065541415L74.30952711932659,63.44530000347523L74.55888878537019,83.9481029155594L74.80825045141378,84.83719967628946L75.0576121174574,65.6407277307368L75.30697378350098,84.64082999461371L75.55633544954459,84.0824270804684L75.80569711558819,82.8633505692206L76.05505878163179,65.75901168115921L76.30442044767538,83.91350967684092L76.553782113719,88.38791437120562L76.80314377976258,83.51193169047117L77.05250544580619,69.03168027254513L77.30186711184979,87.15892135608371L77.55122877789339,81.53117740916932L77.80059044393698,72.04162887882039L78.0499521099806,63.18807047397422L78.29931377602418,83.55284400570727L78.54867544206779,82.42411412044846L78.79803710811139,84.99304103778404L79.04739877415497,82.35126284810151L79.29676044019858,72.23471776064103L79.5461221062422,68.62923998149068L79.79548377228578,85.02432652962601L80.04484543832938,88.99536086429359L80.29420710437297,87.01882379184038L80.54356877041657,85.68008229532356L80.79293043646018,66.66773934697704L81.04229210250377,61.36598699141363L81.29165376854738,63.21581916925785L81.54101543459097,66.04120088922927L81.79037710063457,73.26799455935607L82.03973876667817,73.8926804093828L82.28910043272178,65.17224702699349L82.53846209876536,83.33005950630704L82.78782376480898,58.94701351139739L83.03718543085257,60.692816713138235L83.28654709689617,33.63946236964192L83.53590876293977,63.094665361056656L83.78527042898338,64.62885360376637L84.03463209502696,63.509743805146314L84.28399376107058,46.422792482641384L84.53335542711417,65.55428842285036L84.78271709315777,85.91249361811788L85.03207875920137,67.91706388974305L85.28144042524498,31.948469409422685L85.53080209128856,56.4270089114082L85.78016375733218,61.77936103639994L86.02952542337576,51.60504153506416L86.27888708941936,62.48211240741394L86.52824875546297,34.508786753421894L86.77761042150655,49.37692033409261L87.02697208755016,41.67945651473397L87.27633375359376,85.80071737336284L87.52569541963736,86.16386217046504L87.77505708568096,67.36223145593286L88.02441875172457,41.84024939141026L88.27378041776815,57.000515631046554L88.52314208381176,28.462211989688303L88.77250374985536,44.08850675412076L89.02186541589896,84.0566387809914L89.27122708194256,83.06663889864005L89.52058874798617,63.330768425782374L89.76995041402975,62.650093402047894L90.01931208007336,85.14588454314816L90.26867374611696,43.937064493869265L90.51803541216056,80.53424540556355L90.76739707820416,84.56447560948513L91.01675874424777,2.854390188505355L91.26612041029135,83.88680517863641L91.51548207633496,81.32947221725695L91.76484374237856,84.36555943428735L92.01420540842214,59.66062453203442L92.26356707446575,45.054085898331024L92.51292874050934,56.82478736776095L92.76229040655295,45.117505713189026L93.01165207259655,30.064589670043286L93.26101373864014,59.6102605490433L93.51037540468374,82.50877492492269L93.75973707072735,86.90066110301423L94.00909873677094,88.70138233436231L94.25846040281455,29.418373149920292L94.50782206885815,85.71402206877316L94.75718373490174,60.63273159217813L95.00654540094534,67.27874284688941L95.25590706698895,61.28394004801491L95.50526873303254,63.90166802110056L95.75463039907615,82.96651050388391L96.00399206511975,60.0947545202518L96.25335373116334,67.25600629758564L96.50271539720694,79.83817689585602L96.75207706325055,80.28134087299676L97.00143872929414,80.42715120577628L97.25080039533775,59.33354832307221L97.50016206138135,81.20331973658661L97.74952372742493,38.33440148712018L97.99888539346854,85.65661817644205L98.24824705951215,60.590896341459185L98.49760872555574,85.42415969636029L98.74697039159933,63.60142430869447L98.99633205764293,82.3280008318805L99.24569372368653,88.14028471807733L99.49505538973014,11.149828622930865L99.74441705577372,59.85092439714047L99.99377872181734,82.1783236015305L100.24314038786093,49.10726822772755L100.49250205390453,58.89770719899611L100.74186371994813,45.073231757033646L100.99122538599174,86.00614125422803L101.24058705203532,88.37121395469481L101.48994871807894,63.96607140223953L101.73931038412253,69.85871804299775L101.98867205016613,80.82965212762886L102.23803371620973,86.02319198201702L102.48739538225334,86.12412205065972L102.73675704829692,61.994452161191305L102.98611871434053,86.47954652613164L103.23548038038413,39.552285592671176L103.48484204642773,70.17618090207655L103.73420371247133,66.29016441991674L103.98356537851494,46.41637909154889L104.23292704455852,40.32078769589403L104.48228871060213,57.57341604270348L104.73165037664572,37.27695994696734L104.98101204268931,29.862419642011815L105.23037370873293,59.39250166913364L105.47973537477651,53.50915848751276L105.72909704082012,43.69963428833974L105.97845870686372,28.608628630449246L106.22782037290732,43.6843283801862L106.47718203895091,69.32324704406135L106.72654370499453,47.60736333299024L106.97590537103811,75.88025228709813L107.22526703708172,58.82900576794429L107.47462870312532,80.313151831756L107.72399036916892,88.26709740077189L107.97335203521251,67.45001811488913L108.22271370125613,34.57224698881196L108.47207536729971,57.65297712337829L108.72143703334332,58.74442580453426L108.97079869938692,51.07559319541L109.22016036543052,59.839633595175115L109.46952203147411,69.14464892299696L109.71888369751773,59.61787981934332L109.96824536356131,44.87964435531713L110.21760702960492,62.34031044406725L110.46696869564852,37.627352066193346L110.7163303616921,67.19511276598361L110.96569202773571,61.69114996185665L111.2150536937793,25.53823111842502L111.46441535982291,34.325317958239964L111.7137770258665,73.66566522762325L111.9631386919101,40.21312087190206L112.2125003579537,64.73857513813985L112.46186202399731,85.51418969484789L112.7112236900409,20.676880670309192L112.96058535608451,9.467256606898236L113.2099470221281,88.47968918932867L113.4593086881717,60.367128275777965L113.7086703542153,42.10026120087052L113.95803202025891,60.834888146698916L114.2073936863025,83.02482385818715L114.45675535234611,56.55547209916333L114.7061170183897,14.890129086886086L114.9554786844333,85.23449308625705L115.2048403504769,-15.835053339195525L115.45420201652051,31.406995961470084L115.7035636825641,62.23465790992472L115.9529253486077,86.3114577434121L116.2022870146513,56.72920628286556L116.45164868069489,38.28530401413475L116.7010103467385,-2.5657875893428086L116.95037201278211,44.53275534887275L117.1997336788257,80.47581078966404L117.44909534486929,17.178012044560965L117.69845701091289,31.560971241732922L117.94781867695649,41.707036791133866L118.1971803430001,78.11593886432689L118.44654200904368,67.78537379617559L118.6959036750873,-4.172355531525016L118.94526534113089,60.58260339562424L119.19462700717449,22.476550967822767L119.44398867321809,37.89082656790314L119.6933503392617,27.05579304893275L119.94271200530528,90.12262213688624L120.1920736713489,34.68352471367113L120.44143533739249,40.10068442512282L120.69079700343609,44.21884949661836L120.94015866947969,57.533022457629265L121.1895203355233,86.50172392474141L121.43888200156688,3.1015078482271106L121.6882436676105,56.914386213906184L121.93760533365409,41.55473222619767L122.18696699969769,54.39613990706315L122.43632866574129,86.88927598647398L122.6856903317849,39.981349540865914L122.93505199782848,37.991541060374665L123.18441366387209,35.552377524576656L123.43377532991568,13.600282960694235L123.68313699595927,63.170676171662414L123.93249866200289,25.48259899275079L124.18186032804647,70.78992626141607L124.43122199409008,49.6280867837793L124.68058366013368,88.81429035401601L124.92994532617728,88.21638310650262L125.17930699222087,65.84438658170045L125.42866865826448,77.95595439829252L125.67803032430807,84.1683274479269L125.92739199035168,88.16799299282883L126.17675365639528,36.0365750785498L126.42611532243887,1.5762390695998392L126.67547698848247,69.84779776257659L126.92483865452608,48.15442155112739L127.17420032056967,85.76887946758224L127.42356198661328,80.61637319002647L127.67292365265688,65.69421083145463L127.92228531870047,27.24102687401618L128.1716469847441,84.47514623355386L128.42100865078768,89.1319014217125L128.67037031683128,45.208438436893424L128.91973198287488,88.99803535616724L129.16909364891848,15.430942332814451L129.41845531496207,92.66304584233905L129.66781698100567,59.46623545643134L129.91717864704927,28.069445679315393L130.16654031309287,25.222533289247725L130.41590197913646,49.91728895416792L130.66526364518006,66.63171791612451L130.91462531122366,-5.644956356831771L131.16398697726726,37.71554966722593L131.41334864331085,-37.6021835482085L131.66271030935445,52.21555325183602L131.91207197539808,89.64556554358333L132.16143364144165,-18.47043161129624L132.41079530748527,92.44063186448305L132.66015697352887,76.17325398750374L132.90951863957247,85.52209190887257L133.15888030561607,44.31145293564936L133.40824197165966,55.11941143487103L133.65760363770326,15.292313381237259L133.90696530374686,86.57577433954056L134.15632696979046,31.342740788948802L134.40568863583405,34.94794236112982L134.65505030187765,54.20373143753278L134.90441196792128,64.37693263748056L135.15377363396485,36.6890298341262L135.40313530000847,57.04095637340819L135.65249696605207,76.60543031666984L135.90185863209564,85.29768385143318L136.15122029813926,62.341287273592904L136.40058196418283,55.592762812731856L136.64994363022646,70.11973362900507L136.89930529627006,36.881067782112375L137.14866696231365,56.92783951433867L137.39802862835725,58.09828338872012L137.64739029440085,23.118024812179872L137.89675196044445,45.52044452413931L138.14611362648805,-4.213395845112772L138.39547529253164,-17.391095616258237L138.64483695857524,2.7980574402747966L138.89419862461884,60.605272577374514L139.14356029066246,31.987758166619606L139.39292195670603,31.0343590760808L139.64228362274966,63.35510158610392L139.89164528879326,7.00256076832651L140.14100695483685,23.25620913790401L140.39036862088045,34.012638195459154L140.63973028692405,61.91500560535739L140.88909195296765,10.633833583709194L141.13845361901124,12.138595679053319L141.38781528505484,8.926066102670294L141.63717695109844,59.44077725796648L141.88653861714204,5.503107236197611L142.13590028318563,62.84618687675433L142.38526194922923,92.59503156033287L142.63462361527283,-42.191436447767465L142.88398528131643,20.766129205176256L143.13334694736002,71.40720841731397L143.38270861340365,34.25954027900975L143.63207027944722,81.27573985659122L143.88143194549085,53.506019159519994L144.13079361153444,67.25094699431833L144.38015527757804,67.63882242030768L144.62951694362164,71.28340706426052L144.87887860966524,62.27575211755524L145.12824027570883,31.716118717426507L145.37760194175243,42.83082189796631L145.62696360779603,28.292432281376094L145.87632527383963,61.166956291374916L146.12568693988322,56.216128258710135L146.37504860592685,-7.339263800682811L146.62441027197042,30.987983252256456L146.87377193801404,25.319340463616683L147.12313360405764,65.17606676727654L147.37249527010124,88.92632933222966L147.62185693614484,62.32493716836022L147.87121860218843,30.86346106638063L148.12058026823203,88.05949754792891L148.36994193427563,60.23023067032554L148.61930360031923,33.22531359779044L148.86866526636283,-37.55924346961225L149.11802693240642,13.97324321034029L149.36738859845002,17.04442218598503L149.61675026449362,55.5267358735537L149.86611193053722,22.60983093565264L150.11547359658084,79.21838193021284L150.36483526262444,14.157735992335295L150.614196928668,64.23565614105111L150.8635585947116,33.47968000626803L151.11292026075523,46.707238503753445L151.36228192679883,87.21838669555167L151.61164359284243,-64.45072705557645L151.861005258886,50.5634920007802L152.11036692492962,45.61622771169517L152.35972859097322,62.18408508751778L152.60909025701682,90.67657879250102L152.85845192306041,49.00137990714777L153.10781358910404,79.14344900046298L153.3571752551476,59.42343011294212L153.6065369211912,56.262807236525184L153.8558985872348,60.21384688131612L154.10526025327843,81.27911497102119L154.35462191932203,66.75823418158372L154.60398358536563,9.141453644697023L154.8533452514092,41.26148126584411L155.1027069174528,78.07025692630351L155.35206858349642,31.445786198771167L155.60143024954002,5.784420666072246L155.8507919155836,40.44261517963015L156.1001535816272,50.116474599579675L156.3495152476708,88.50310615092272L156.5988769137144,6.876206184995681L156.848238579758,96.22997590738092L157.0976002458016,12.476767324075773L157.34696191184523,62.9579024907112L157.59632357788882,33.99803290986195L157.8456852439324,35.21638858828737L158.095046909976,-2.683424811251686L158.34440857601962,57.459969082621825L158.59377024206321,4.378917924044223L158.8431319081068,73.5354370099666L159.09249357415038,35.07067257008276L159.34185524019398,47.41678726091487L159.5912169062376,55.23072958026231L159.8405785722812,73.85106073483503L160.0899402383248,74.91971897264445L160.33930190436843,90.14403154538621L160.588663570412,68.47738004240755L160.8380252364556,66.01913127870506L161.0873869024992,62.02701089979429L161.3367485685428,34.225209773749896L161.5861102345864,41.388267001517306L161.83547190063,14.378917143962397L162.08483356667358,54.63032973326968L162.33419523271718,46.078571231315294L162.5835568987608,63.449739525250415L162.8329185648044,67.54817937708329L163.082280230848,77.5364094854063L163.3316418968916,34.61846113050793L163.5810035629352,59.97891601202119L163.8303652289788,55.2464262202261L164.0797268950224,77.58708335914346L164.329088561066,57.523382160724466L164.5784502271096,67.06140838256673L164.82781189315318,20.824334771393907L165.07717355919678,68.1395519719079L165.32653522524038,97.83718384132132L165.575896891284,62.596246516541214L165.8252585573276,84.24175134447854L166.0746202233712,62.857922304572746L166.32398188941477,39.173302683742875L166.57334355545837,77.15337104975774L166.822705221502,85.97142001715791L167.0720668875456,25.737787285380975L167.3214285535892,97.6208127330136L167.5707902196328,-70.08470250118889L167.82015188567638,23.015343187146353L168.06951355171998,71.419206578591L168.31887521776358,40.98333411098364L168.56823688380717,18.219985994431926L168.8175985498508,-24.529590634022252L169.0669602158944,-4.845465179002288L169.31632188193797,72.61252173738322L169.56568354798156,95.45486504716042L169.8150452140252,95.20578699163201L170.0644068800688,-31.652133015119173L170.31376854611239,98.01755372904255L170.56313021215595,93.91242427914784L170.81249187819958,20.87940100961882L171.06185354424318,76.28182353671251L171.31121521028678,42.11285893337364L171.56057687633037,93.12101720773748L171.809938542374,33.81360749542044L172.05930020841757,78.06057620886662L172.30866187446117,16.812084967499548L172.55802354050476,70.85579151846586L172.8073852065484,40.41208420438728L173.056746872592,31.25863913516857L173.30610853863558,57.94800658714404L173.55547020467915,20.72732549436448L173.80483187072275,5.022507109580987L174.05419353676638,25.914937004045285L174.30355520280997,38.91660535791444L174.55291686885357,60.94850352566428L174.80227853489717,11.862725547500881L175.05164020094077,92.5832355017163L175.30100186698436,15.921512857347981L175.55036353302796,63.17894890723131L175.79972519907156,35.33049575039324L176.04908686511519,14.067800308422596L176.29844853115878,35.40608214541199L176.54781019720235,17.610592579048024L176.79717186324595,35.93254610244643L177.04653352928958,50.63831714244451L177.29589519533317,89.98976658464336L177.54525686137677,28.83810946466663L177.79461852742034,30.680719840776437L178.04398019346394,27.941379960125843L178.29334185950756,78.71938372473738L178.54270352555116,21.24027552016829L178.79206519159476,97.47679437715698L179.04142685763838,3.312637760873119L179.29078852368195,50.834289355554645L179.54015018972555,49.74973237512098L179.78951185576915,53.91012342914571L180.03887352181275,3.9220311762570033L180.28823518785637,95.99288253961885L180.53759685389997,49.59110873366717L180.78695851994354,48.40857238343378L181.03632018598714,85.05084913543608L181.28568185203076,42.287031006173564L181.53504351807436,42.74562888981948L181.78440518411796,67.08977012258714L182.03376685016156,99.75306316860973L182.28312851620515,71.51658637716463L182.53249018224875,15.305288372039932L182.78185184829235,62.22810978372524L183.03121351433595,27.589842592490466L183.28057518037957,43.48011037852855L183.52993684642314,33.46720353536118L183.77929851246674,61.34866679341067L184.02866017851034,25.71800817167554L184.27802184455396,72.00491356216689L184.52738351059756,62.84428037499048L184.77674517664116,62.7394564617559L185.02610684268473,99.54961989381725L185.27546850872832,67.11056648635032L185.52483017477195,24.939549144046467L185.77419184081555,31.63309494450216L186.02355350685914,22.061122212454933L186.27291517290277,14.676600889335742L186.52227683894634,13.553125673249374L186.77163850498994,95.29833653662021L187.02100017103353,36.52218735114628L187.27036183707713,28.562374068221185L187.51972350312076,17.563637394263633L187.76908516916436,-54.20890526564101L188.01844683520793,66.0012788770295L188.26780850125152,56.153887376038256L188.51717016729515,71.52760770891604L188.76653183333875,70.26335451629606L189.01589349938234,34.77459217248253L189.2652551654259,99.06842693272989L189.51461683146954,13.500942766313965L189.76397849751314,69.24167167353708L190.01334016355673,37.671464340220325L190.26270182960033,49.20561138231612L190.51206349564396,84.25494864820774L190.76142516168753,6.466220727950066L191.01078682773112,59.16363387965302L191.26014849377472,100.0478231621615L191.50951015981835,13.883630890684362L191.75887182586195,-31.25955533389606L192.00823349190554,76.59329068353047L192.2575951579491,36.650778537253075L192.5069568239927,97.27948828648769L192.75631849003634,27.793117448399208L193.00568015607993,97.71174545671798L193.25504182212353,99.04827056072487L193.50440348816713,66.24807990924987L193.75376515421073,80.35497360896426L194.00312682025432,9.709456435215037L194.25248848629792,68.77303602442076L194.50185015234152,74.13568191158619L194.75121181838514,90.60826809325947L195.00057348442874,48.90981392844056L195.2499351504723,72.81582354031336L195.4992968165159,87.99481795982061L195.74865848255953,88.28047659689553L195.99802014860313,70.42954353400711L196.24738181464673,67.16726975612511L196.4967434806903,43.46483141739642L196.7461051467339,30.226770318321506L196.99546681277752,71.86047079072327L197.24482847882112,100.0484631539197L197.49419014486472,22.431913226878525L197.74355181090834,98.06434723169856L197.9929134769519,43.70034838440676L198.2422751429955,38.29138056745978L198.4916368090391,44.672462181305825L198.7409984750827,70.60960353098228L198.99036014112633,34.806295343156165L199.23972180716993,82.00683949411494L199.4890834732135,99.01171692619977L199.7384451392571,51.17872618305191L199.98780680530072,91.9019002759576L200.23716847134432,42.899967954871165L200.48653013738792,69.64659782731542L200.7358918034315,98.74997377061474L200.9852534694751,82.47010594921791L201.2346151355187,65.02478618915342L201.4839768015623,101.9409592033908L201.7333384676059,56.47430767071539L201.98270013364953,88.44104042388993L202.2320617996931,57.22480242688966L202.4814234657367,97.81281699722302L202.7307851317803,37.54272494549588L202.98014679782392,59.0150614771803L203.22950846386752,24.35059504439225L203.47887012991112,42.55307894842678L203.72823179595468,70.15882702029685L203.97759346199828,87.85764414739886L204.2269551280419,82.20190224525292L204.4763167940855,103.10453158731602L204.7256784601291,49.96006735063576L204.97504012617273,12.23037723393173L205.2244017922163,4.707482955938619L205.4737634582599,40.630395498235586L205.7231251243035,82.97460808381372L205.9724867903471,42.81209371809534L206.22184845639072,62.10052911092084L206.47121012243431,89.03722306203393L206.72057178847788,26.95652022210598L206.96993345452148,96.99962999576847L207.2192951205651,85.41380530338847L207.4686567866087,85.7180237014506L207.7180184526523,28.13122172586817L207.96738011869587,36.40053502304923L208.2167417847395,38.46230552418136L208.4661034507831,85.37495443528924L208.7154651168267,-3.458057361842363L208.9648267828703,44.70222516643888L209.21418844891392,-18.855396758974692L209.46355011495748,48.722464762177474L209.71291178100108,53.91972330551842L209.96227344704468,9.50533274813228L210.2116351130883,57.83135293151615L210.4609967791319,91.36355268248707L210.7103584451755,90.03080016147575L210.95972011121907,99.27640404387242L211.20908177726267,61.27273008711374L211.4584434433063,85.51143436191005L211.7078051093499,41.39272673355852L211.9571667753935,80.6320765667456L212.2065284414371,65.60578418074016L212.45589010748068,79.63483467239378L212.70525177352428,55.94229936402852L212.95461343956788,27.005765903709115L213.20397510561148,42.03041452140934L213.4533367716551,74.50592724882648L213.7026984376987,50.969112040359505L213.95206010374227,74.75740358925924L214.20142176978587,100.64292791944962L214.4507834358295,7.162370078721796L214.7001451018731,101.74843620901949L214.9495067679167,34.98273096575344L215.19886843396026,37.26064352551141L215.44823010000385,77.18279046036797L215.69759176604748,-4.310526383738482L215.94695343209108,78.72959664584687L216.19631509813468,60.549721292764474L216.4456767641783,101.39660916090408L216.69503843022187,54.36298833398942L216.94440009626547,104.19046286584094L217.19376176230907,66.14356588676135L217.44312342835266,85.06060395718181L217.6924850943963,56.86388749580809L217.9418467604399,49.91275511781788L218.19120842648346,92.03287627345802L218.44057009252705,99.10491319970151L218.68993175857068,97.61371219287547L218.93929342461428,47.66891706661648L219.18865509065787,53.97343545591812L219.43801675670147,67.43795932281395L219.68737842274507,6.395107538483198L219.93674008878867,103.10793364876739L220.18610175483226,96.46010347011182L220.43546342087586,96.18401102563286L220.6848250869195,68.46201350345585L220.93418675296306,36.678722598441816L221.18354841900666,69.26724439684291L221.43291008505025,67.08396977623141L221.68227175109388,45.25558225082757L221.93163341713748,71.5366955918822L222.18099508318107,-26.22050275317728L222.43035674922464,88.76300343554205L222.67971841526824,82.01292278419533L222.92908008131187,71.10583966676455L223.17844174735546,72.13601082126358L223.42780341339906,74.844274049488L223.6771650794427,81.6378067728375L223.92652674548626,97.26047716289206L224.17588841152985,87.13322063442625L224.42525007757345,-21.40537992026811L224.67461174361705,-14.0264770511102L224.92397340966068,59.040829566391245L225.17333507570427,87.93840437052586L225.42269674174784,104.22321697034907L225.67205840779144,102.60136333027934L225.92142007383507,70.76987767749667L226.17078173987866,72.15510952267876L226.42014340592226,53.32748840600911L226.66950507196583,99.65152005523025L226.91886673800946,79.28883491765548L227.16822840405305,107.17093143070778L227.41759007009665,51.94072731736273L227.66695173614025,35.93940411939198L227.91631340218387,96.29521464618318L228.16567506822744,30.423604836116354L228.41503673427104,79.50759083735684L228.66439840031464,82.79430556364598L228.91376006635826,80.81654913847454L229.16312173240186,91.53052990057397L229.41248339844546,51.761691307200635L229.66184506448903,84.30145920713909L229.91120673053263,52.93786142362896L230.16056839657625,99.91347878698645L230.40993006261985,24.10107909976614L230.65929172866345,80.66111198230094L230.90865339470704,8.259774051606517L231.15801506075064,95.88934534665599L231.40737672679424,69.56279259077056L231.65673839283784,8.738393572150454L231.90610005888144,37.22047899011907L232.15546172492506,71.80644874957751L232.40482339096866,40.554121954171194L232.65418505701223,35.65627176557303L232.90354672305583,95.40799070344022L233.15290838909945,105.31371913737846L233.40227005514305,95.50861088133685L233.65163172118665,87.70259098628016L233.90099338723022,42.7509778735668L234.1503550532738,73.94784769893795L234.39971671931744,80.98350614629541L234.64907838536104,-7.093048866177854L234.89844005140463,59.529116330861406L235.14780171744826,68.55921140963507L235.39716338349183,61.05998335318392L235.64652504953543,78.48599557241741L235.89588671557902,71.7683793450988L236.14524838162262,80.62558233458891L236.39461004766625,60.33712276745235L236.64397171370985,46.550622415393704L236.89333337975341,50.0616576213027L237.142695045797,57.38014526848838L237.39205671184064,101.77726952191436L237.64141837788424,79.16919014265251L237.89078004392783,74.71936786855727L238.14014170997143,91.87675870499415L238.38950337601503,78.82444342440918L238.63886504205863,75.63966928006512L238.88822670810222,-0.7308571143311596L239.13758837414582,84.54972885202558L239.38695004018945,-5.51655379987474L239.63631170623302,106.56210390277323L239.8856733722766,108.91971901506835L240.1350350383202,96.53847888184518L240.38439670436384,11.39470967987668L240.63375837040743,46.40120118174699L240.88312003645103,106.61344808366766L241.1324817024946,91.31791790175113L241.3818433685382,79.74249475963039L241.63120503458182,92.80862038868135L241.88056670062542,8.479095858757214L242.12992836666902,72.0009388765108L242.37929003271265,78.50358524063435L242.62865169875622,28.328056243663013L242.8780133647998,40.380475348288535L243.1273750308434,6.066636821163701L243.376736696887,86.51473259932085L243.62609836293063,88.06155899506578L243.87546002897423,99.399551931657L244.1248216950178,103.54150111791313L244.3741833610614,60.54839415196067L244.62354502710502,104.10335998755258L244.87290669314862,69.5807932010638L245.12226835919222,51.296275827141265L245.3716300252358,12.040198630421942L245.62099169127941,105.27670066673423L245.870353357323,105.42134217246065L246.1197150233666,95.1041293534116L246.3690766894102,33.66297364581085L246.61843835545383,44.074938928847324L246.8678000214974,69.32618426939364L247.117161687541,42.22913533070197L247.3665233535846,103.52052623013319L247.61588501962822,59.50958647710387L247.86524668567182,97.48477743224588L248.11460835171542,7.582177725066651L248.363970017759,106.96910497719912L248.61333168380258,29.786685038375357L248.8626933498462,82.78062995028695L249.1120550158898,57.10183643149951L249.3614166819334,90.83813292253177L249.610778347977,72.76522377088502L249.8601400140206,77.69462892153916L250.1095016800642,49.37153766656855L250.3588633461078,78.43687788916591L250.6082250121514,87.33385468223808L250.85758667819502,80.46171076071802L251.10694834423862,79.35368966140285L251.3563100102822,9.988479368270925L251.60567167632578,98.95436019115613L251.8550333423694,52.67863781454455L252.104395008413,15.296746166257067L252.3537566744566,70.73141754120769L252.60311834050017,4.763707916083586L252.85248000654377,46.38790956344288L253.1018416725874,10.755593699891838L253.351203338631,73.68609780659757L253.6005650046746,82.82084837972208L253.84992667071822,105.41131114374558L254.0992883367618,103.32914174741587L254.34865000280539,52.21584293231606L254.59801166884898,28.887112623077183L254.84737333489258,33.353823942833046L255.0967350009362,104.5798877455606L255.3460966669798,43.401330761474235L255.59545833302337,26.325582663115135L255.84481999906697,45.66044777380776L256.09418166511057,104.59350272812145L256.3435433311542,62.291657596934854L256.5929049971978,39.77070467460507L256.8422666632414,66.95511585666601L257.09162832928496,76.12992991385262L257.3409899953286,103.2731828891072L257.5903516613722,71.47798476901335L257.8397133274158,63.20226481749513L258.0890749934594,61.49104138096205L258.338436659503,63.54447177897179L258.5877983255466,70.60344613659305L258.83715999159017,75.08612356652665L259.0865216576338,63.05331515672286L259.33588332367736,89.2089564293974L259.585244989721,79.79267685022707L259.83460665576456,83.6637309987562L260.0839683218082,94.64707418674064L260.33332998785176,36.02793855819204L260.5826916538954,108.43200150642525L260.832053319939,98.57085691938846L261.0814149859826,43.75145341048628L261.33077665202615,68.53505340495259L261.58013831806977,16.110627053512573L261.8294999841134,48.00523610391789L262.07886165015697,39.015891658251924L262.3282233162006,74.98900650141164L262.57758498224416,47.09226428223003L262.8269466482878,91.86769103229402L263.07630831433136,58.46708032356033L263.325669980375,107.96145261878972L263.57503164641855,89.5756986538561L263.8243933124622,32.39585733216744L264.07375497850575,102.51618379564322L264.3231166445494,-27.613515550787795L264.57247831059294,45.22281467280875L264.82183997663657,67.14103683079506L265.0712016426802,56.66331407879439L265.32056330872376,108.01487172033173L265.56992497476733,104.19923412130566L265.81928664081096,27.787593309012802L266.0686483068546,77.59770722232925L266.31800997289815,104.88553433575679L266.5673716389418,64.90451489590298L266.8167333049854,91.38199791863335L267.066094971029,82.3586193849429L267.31545663707254,95.52531129784771L267.56481830311617,96.81280629642264L267.81417996915974,79.77990396208487L268.06354163520336,73.68495929494354L268.312903301247,51.199327180909975L268.56226496729056,70.89006139292756L268.81162663333413,86.53466665839932L269.06098829937775,77.89932523282658L269.3103499654214,73.69698440324198L269.55971163146495,91.61943486091823L269.8090732975086,75.52231500188093L270.05843496355214,21.09690389282521L270.30779662959577,38.609907833883774L270.55715829563934,101.18799879475871L270.80651996168297,113.84594104881997L271.0558816277266,84.22728079398833L271.30524329377016,78.14865254830292L271.55460495981373,83.62733230960411L271.80396662585736,84.1044966909926L272.053328291901,89.73542712318718L272.30268995794455,57.792643535279275L272.5520516239882,26.671609364874815L272.80141329003175,97.68728429804479L273.0507749560753,112.26332227190439L273.30013662211894,79.03471103237047L273.54949828816257,105.56087048087696L273.79885995420614,90.94003982070011L274.04822162024976,42.78728898489936L274.29758328629333,71.14607830646572" fill="none"></path></g></g></g></g></g></g><g transform="translate(30, 176)" clip-path="url(#clip_1)"><clipPath id="clip_1"><rect width="299" height="23"></rect></clipPath><g><g><line x1="0" y1="0" x2="0" y2="5" style="visibility: inherit;" fill="rgb(0, 0, 0)" stroke="rgb(204, 204, 204)" stroke-width="1px"></line><line x1="24.936166604359943" y1="0" x2="24.936166604359943" y2="5" style="visibility: inherit;" fill="rgb(0, 0, 0)" stroke="rgb(204, 204, 204)" stroke-width="1px"></line><line x1="49.87233320871989" y1="0" x2="49.87233320871989" y2="5" style="visibility: inherit;" fill="rgb(0, 0, 0)" stroke="rgb(204, 204, 204)" stroke-width="1px"></line><line x1="74.80849981307983" y1="0" x2="74.80849981307983" y2="5" style="visibility: inherit;" fill="rgb(0, 0, 0)" stroke="rgb(204, 204, 204)" stroke-width="1px"></line><line x1="99.74466641743977" y1="0" x2="99.74466641743977" y2="5" style="visibility: inherit;" fill="rgb(0, 0, 0)" stroke="rgb(204, 204, 204)" stroke-width="1px"></line><line x1="124.68083302179973" y1="0" x2="124.68083302179973" y2="5" style="visibility: inherit;" fill="rgb(0, 0, 0)" stroke="rgb(204, 204, 204)" stroke-width="1px"></line><line x1="149.61699962615967" y1="0" x2="149.61699962615967" y2="5" style="visibility: inherit;" fill="rgb(0, 0, 0)" stroke="rgb(204, 204, 204)" stroke-width="1px"></line><line x1="174.55316623051962" y1="0" x2="174.55316623051962" y2="5" style="visibility: inherit;" fill="rgb(0, 0, 0)" stroke="rgb(204, 204, 204)" stroke-width="1px"></line><line x1="199.48933283487955" y1="0" x2="199.48933283487955" y2="5" style="visibility: inherit;" fill="rgb(0, 0, 0)" stroke="rgb(204, 204, 204)" stroke-width="1px"></line><line x1="224.4254994392395" y1="0" x2="224.4254994392395" y2="5" style="visibility: inherit;" fill="rgb(0, 0, 0)" stroke="rgb(204, 204, 204)" stroke-width="1px"></line><line x1="249.36166604359946" y1="0" x2="249.36166604359946" y2="5" style="visibility: inherit;" fill="rgb(0, 0, 0)" stroke="rgb(204, 204, 204)" stroke-width="1px"></line><line x1="274.29783264795935" y1="0" x2="274.29783264795935" y2="5" style="visibility: inherit;" fill="rgb(0, 0, 0)" stroke="rgb(204, 204, 204)" stroke-width="1px"></line><line x1="299.23399925231934" y1="0" x2="299.23399925231934" y2="5" style="visibility: inherit;" fill="rgb(0, 0, 0)" stroke="rgb(204, 204, 204)" stroke-width="1px"></line></g><g transform="translate(0, 8)"><text style="text-anchor: middle; visibility: hidden; font-family: Roboto, sans-serif; font-size: 12px; font-weight: 200;" x="0" y="0" dx="0em" dy="0.95em" fill="rgb(33, 33, 33)" stroke="none" stroke-width="1px">-100k</text><text style="text-anchor: middle; visibility: inherit; font-family: Roboto, sans-serif; font-size: 12px; font-weight: 200;" x="24.936166604359943" y="0" dx="0em" dy="0.95em" fill="rgb(33, 33, 33)" stroke="none" stroke-width="1px">0</text><text style="text-anchor: middle; visibility: hidden; font-family: Roboto, sans-serif; font-size: 12px; font-weight: 200;" x="49.87233320871989" y="0" dx="0em" dy="0.95em" fill="rgb(33, 33, 33)" stroke="none" stroke-width="1px">100k</text><text style="text-anchor: middle; visibility: inherit; font-family: Roboto, sans-serif; font-size: 12px; font-weight: 200;" x="74.80849981307983" y="0" dx="0em" dy="0.95em" fill="rgb(33, 33, 33)" stroke="none" stroke-width="1px">200k</text><text style="text-anchor: middle; visibility: hidden; font-family: Roboto, sans-serif; font-size: 12px; font-weight: 200;" x="99.74466641743977" y="0" dx="0em" dy="0.95em" fill="rgb(33, 33, 33)" stroke="none" stroke-width="1px">300k</text><text style="text-anchor: middle; visibility: inherit; font-family: Roboto, sans-serif; font-size: 12px; font-weight: 200;" x="124.68083302179973" y="0" dx="0em" dy="0.95em" fill="rgb(33, 33, 33)" stroke="none" stroke-width="1px">400k</text><text style="text-anchor: middle; visibility: hidden; font-family: Roboto, sans-serif; font-size: 12px; font-weight: 200;" x="149.61699962615967" y="0" dx="0em" dy="0.95em" fill="rgb(33, 33, 33)" stroke="none" stroke-width="1px">500k</text><text style="text-anchor: middle; visibility: inherit; font-family: Roboto, sans-serif; font-size: 12px; font-weight: 200;" x="174.55316623051962" y="0" dx="0em" dy="0.95em" fill="rgb(33, 33, 33)" stroke="none" stroke-width="1px">600k</text><text style="text-anchor: middle; visibility: hidden; font-family: Roboto, sans-serif; font-size: 12px; font-weight: 200;" x="199.48933283487955" y="0" dx="0em" dy="0.95em" fill="rgb(33, 33, 33)" stroke="none" stroke-width="1px">700k</text><text style="text-anchor: middle; visibility: inherit; font-family: Roboto, sans-serif; font-size: 12px; font-weight: 200;" x="224.4254994392395" y="0" dx="0em" dy="0.95em" fill="rgb(33, 33, 33)" stroke="none" stroke-width="1px">800k</text><text style="text-anchor: middle; visibility: hidden; font-family: Roboto, sans-serif; font-size: 12px; font-weight: 200;" x="249.36166604359946" y="0" dx="0em" dy="0.95em" fill="rgb(33, 33, 33)" stroke="none" stroke-width="1px">900k</text><text style="text-anchor: middle; visibility: inherit; font-family: Roboto, sans-serif; font-size: 12px; font-weight: 200;" x="274.29783264795935" y="0" dx="0em" dy="0.95em" fill="rgb(33, 33, 33)" stroke="none" stroke-width="1px">1M</text><text style="text-anchor: middle; visibility: hidden; font-family: Roboto, sans-serif; font-size: 12px; font-weight: 200;" x="299.23399925231934" y="0" dx="0em" dy="0.95em" fill="rgb(33, 33, 33)" stroke="none" stroke-width="1px">1.1M</text></g><line x1="0" y1="0" x2="299.23399925231934" y2="0" fill="rgb(0, 0, 0)" stroke="rgb(204, 204, 204)" stroke-width="1px"></line></g></g></g></g></svg>