<svg viewBox="0 0 330 200" xmlns="http://www.w3.org/2000/svg"><g><g><g><g><g><line x1="61.91500186920166" y1="176.5999994277954" x2="56.91500186920166" y2="176.5999994277954" style="visibility: inherit;" fill="rgb(0, 0, 0)" stroke="rgb(204, 204, 204)" stroke-width="1px"></line><line x1="61.91500186920166" y1="163.98571375438146" x2="56.91500186920166" y2="163.98571375438146" style="visibility: inherit;" fill="rgb(0, 0, 0)" stroke="rgb(204, 204, 204)" stroke-width="1px"></line><line x1="61.91500186920166" y1="151.3714280809675" x2="56.91500186920166" y2="151.3714280809675" style="visibility: inherit;" fill="rgb(0, 0, 0)" stroke="rgb(204, 204, 204)" stroke-width="1px"></line><line x1="61.91500186920166" y1="138.75714240755354" x2="56.91500186920166" y2="138.75714240755354" style="visibility: inherit;" fill="rgb(0, 0, 0)" stroke="rgb(204, 204, 204)" stroke-width="1px"></line><line x1="61.91500186920166" y1="126.14285673413956" x2="56.91500186920166" y2="126.14285673413956" style="visibility: inherit;" fill="rgb(0, 0, 0)" stroke="rgb(204, 204, 204)" stroke-width="1px"></line><line x1="61.91500186920166" y1="113.52857106072561" x2="56.91500186920166" y2="113.52857106072561" style="visibility: inherit;" fill="rgb(0, 0, 0)" stroke="rgb(204, 204, 204)" stroke-width="1px"></line><line x1="61.91500186920166" y1="100.91428538731165" x2="56.91500186920166" y2="100.91428538731165" style="visibility: inherit;" fill="rgb(0, 0, 0)" stroke="rgb(204, 204, 204)" stroke-width="1px"></line><line x1="61.91500186920166" y1="88.29999971389769" x2="56.91500186920166" y2="88.29999971389769" style="visibility: inherit;" fill="rgb(0, 0, 0)" stroke="rgb(204, 204, 204)" stroke-width="1px"></line><line x1="61.91500186920166" y1="75.68571404048373" x2="56.91500186920166" y2="75.68571404048373" style="visibility: inherit;" fill="rgb(0, 0, 0)" stroke="rgb(204, 204, 204)" stroke-width="1px"></line><line x1="61.91500186920166" y1="63.071428367069764" x2="56.91500186920166" y2="63.071428367069764" style="visibility: inherit;" fill="rgb(0, 0, 0)" stroke="rgb(204, 204, 204)" stroke-width="1px"></line><line x1="61.91500186920166" y1="50.457142693655825" x2="56.91500186920166" y2="50.457142693655825" style="visibility: inherit;" fill="rgb(0, 0, 0)" stroke="rgb(204, 204, 204)" stroke-width="1px"></line><line x1="61.91500186920166" y1="37.84285702024188" x2="56.91500186920166" y2="37.84285702024188" style="visibility: inherit;" fill="rgb(0, 0, 0)" stroke="rgb(204, 204, 204)" stroke-width="1px"></line><line x1="61.91500186920166" y1="25.228571346827906" x2="56.91500186920166" y2="25.228571346827906" style="visibility: inherit;" fill="rgb(0, 0, 0)" stroke="rgb(204, 204, 204)" stroke-width="1px"></line><line x1="61.91500186920166" y1="12.614285673413933" x2="56.91500186920166" y2="12.614285673413933" style="visibility: inherit;" fill="rgb(0, 0, 0)" stroke="rgb(204, 204, 204)" stroke-width="1px"></line><line x1="61.91500186920166" y1="0" x2="56.91500186920166" y2="0" style="visibility: inherit;" fill="rgb(0, 0, 0)" stroke="rgb(204, 204, 204)" stroke-width="1px"></line></g><g transform="translate(51.91500186920166, 0)"><text style="text-anchor: end; visibility: hidden; font-family: Roboto, sans-serif; font-size: 12px; font-weight: 200;" x="0" y="176.5999994277954" dx="0em" dy="0.3em" fill="rgb(33, 33, 33)" stroke="none" stroke-width="1px">2e-3</text><text style="text-anchor: end; visibility: inherit; font-family: Roboto, sans-serif; font-size: 12px; font-weight: 200;" x="0" y="163.98571375438146" dx="0em" dy="0.3em" fill="rgb(33, 33, 33)" stroke="none" stroke-width="1px">4e-3</text><text style="text-anchor: end; visibility: hidden; font-family: Roboto, sans-serif; font-size: 12px; font-weight: 200;" x="0" y="151.3714280809675" dx="0em" dy="0.3em" fill="rgb(33, 33, 33)" stroke="none" stroke-width="1px">6e-3</text><text style="text-anchor: end; visibility: inherit; font-family: Roboto, sans-serif; font-size: 12px; font-weight: 200;" x="0" y="138.75714240755354" dx="0em" dy="0.3em" fill="rgb(33, 33, 33)" stroke="none" stroke-width="1px">8e-3</text><text style="text-anchor: end; visibility: hidden; font-family: Roboto, sans-serif; font-size: 12px; font-weight: 200;" x="0" y="126.14285673413956" dx="0em" dy="0.3em" fill="rgb(33, 33, 33)" stroke="none" stroke-width="1px">0.01</text><text style="text-anchor: end; visibility: inherit; font-family: Roboto, sans-serif; font-size: 12px; font-weight: 200;" x="0" y="113.52857106072561" dx="0em" dy="0.3em" fill="rgb(33, 33, 33)" stroke="none" stroke-width="1px">0.012</text><text style="text-anchor: end; visibility: hidden; font-family: Roboto, sans-serif; font-size: 12px; font-weight: 200;" x="0" y="100.91428538731165" dx="0em" dy="0.3em" fill="rgb(33, 33, 33)" stroke="none" stroke-width="1px">0.014</text><text style="text-anchor: end; visibility: inherit; font-family: Roboto, sans-serif; font-size: 12px; font-weight: 200;" x="0" y="88.29999971389769" dx="0em" dy="0.3em" fill="rgb(33, 33, 33)" stroke="none" stroke-width="1px">0.016</text><text style="text-anchor: end; visibility: hidden; font-family: Roboto, sans-serif; font-size: 12px; font-weight: 200;" x="0" y="75.68571404048373" dx="0em" dy="0.3em" fill="rgb(33, 33, 33)" stroke="none" stroke-width="1px">0.018</text><text style="text-anchor: end; visibility: inherit; font-family: Roboto, sans-serif; font-size: 12px; font-weight: 200;" x="0" y="63.071428367069764" dx="0em" dy="0.3em" fill="rgb(33, 33, 33)" stroke="none" stroke-width="1px">0.02</text><text style="text-anchor: end; visibility: hidden; font-family: Roboto, sans-serif; font-size: 12px; font-weight: 200;" x="0" y="50.457142693655825" dx="0em" dy="0.3em" fill="rgb(33, 33, 33)" stroke="none" stroke-width="1px">0.022</text><text style="text-anchor: end; visibility: inherit; font-family: Roboto, sans-serif; font-size: 12px; font-weight: 200;" x="0" y="37.84285702024188" dx="0em" dy="0.3em" fill="rgb(33, 33, 33)" stroke="none" stroke-width="1px">0.024</text><text style="text-anchor: end; visibility: hidden; font-family: Roboto, sans-serif; font-size: 12px; font-weight: 200;" x="0" y="25.228571346827906" dx="0em" dy="0.3em" fill="rgb(33, 33, 33)" stroke="none" stroke-width="1px">0.026</text><text style="text-anchor: end; visibility: inherit; font-family: Roboto, sans-serif; font-size: 12px; font-weight: 200;" x="0" y="12.614285673413933" dx="0em" dy="0.3em" fill="rgb(33, 33, 33)" stroke="none" stroke-width="1px">0.028</text><text style="text-anchor: end; visibility: hidden; font-family: Roboto, sans-serif; font-size: 12px; font-weight: 200;" x="0" y="0" dx="0em" dy="0.3em" fill="rgb(33, 33, 33)" stroke="none" stroke-width="1px">0.03</text></g><line x1="61.91500186920166" y1="0" x2="61.91500186920166" y2="176.5999994277954" fill="rgb(0, 0, 0)" stroke="rgb(204, 204, 204)" stroke-width="1px"></line></g></g><g transform="translate(61, 0)" clip-path="url(#clip_0)"><clipPath id="clip_0"><rect width="268" height="176"></rect></clipPath><g><g><g><line x1="0" y1="0" x2="0" y2="176.5999994277954" fill="rgb(0, 0, 0)" stroke="rgb(66, 66, 66)" stroke-width="1px" opacity="0.25"></line><line x1="22.34041651089986" y1="0" x2="22.34041651089986" y2="176.5999994277954" fill="rgb(0, 0, 0)" stroke="rgb(66, 66, 66)" stroke-width="1px" opacity="0.25"></line><line x1="44.68083302179972" y1="0" x2="44.68083302179972" y2="176.5999994277954" fill="rgb(0, 0, 0)" stroke="rgb(66, 66, 66)" stroke-width="1px" opacity="0.25"></line><line x1="67.02124953269958" y1="0" x2="67.02124953269958" y2="176.5999994277954" fill="rgb(0, 0, 0)" stroke="rgb(66, 66, 66)" stroke-width="1px" opacity="0.25"></line><line x1="89.36166604359944" y1="0" x2="89.36166604359944" y2="176.5999994277954" fill="rgb(0, 0, 0)" stroke="rgb(66, 66, 66)" stroke-width="1px" opacity="0.25"></line><line x1="111.70208255449931" y1="0" x2="111.70208255449931" y2="176.5999994277954" fill="rgb(0, 0, 0)" stroke="rgb(66, 66, 66)" stroke-width="1px" opacity="0.25"></line><line x1="134.04249906539917" y1="0" x2="134.04249906539917" y2="176.5999994277954" fill="rgb(0, 0, 0)" stroke="rgb(66, 66, 66)" stroke-width="1px" opacity="0.25"></line><line x1="156.38291557629904" y1="0" x2="156.38291557629904" y2="176.5999994277954" fill="rgb(0, 0, 0)" stroke="rgb(66, 66, 66)" stroke-width="1px" opacity="0.25"></line><line x1="178.72333208719888" y1="0" x2="178.72333208719888" y2="176.5999994277954" fill="rgb(0, 0, 0)" stroke="rgb(66, 66, 66)" stroke-width="1px" opacity="0.25"></line><line x1="201.06374859809875" y1="0" x2="201.06374859809875" y2="176.5999994277954" fill="rgb(0, 0, 0)" stroke="rgb(66, 66, 66)" stroke-width="1px" opacity="0.25"></line><line x1="223.40416510899863" y1="0" x2="223.40416510899863" y2="176.5999994277954" fill="rgb(0, 0, 0)" stroke="rgb(66, 66, 66)" stroke-width="1px" opacity="0.25"></line><line x1="245.74458161989847" y1="0" x2="245.74458161989847" y2="176.5999994277954" fill="rgb(0, 0, 0)" stroke="rgb(66, 66, 66)" stroke-width="1px" opacity="0.25"></line><line x1="268.08499813079834" y1="0" x2="268.08499813079834" y2="176.5999994277954" fill="rgb(0, 0, 0)" stroke="rgb(66, 66, 66)" stroke-width="1px" opacity="0.25"></line></g><g><line x1="0" y1="176.5999994277954" x2="268.08499813079834" y2="176.5999994277954" fill="rgb(0, 0, 0)" stroke="rgb(66, 66, 66)" stroke-width="1px" opacity="0.25"></line><line x1="0" y1="163.98571375438146" x2="268.08499813079834" y2="163.98571375438146" fill="rgb(0, 0, 0)" stroke="rgb(66, 66, 66)" stroke-width="1px" opacity="0.25"></line><line x1="0" y1="151.3714280809675" x2="268.08499813079834" y2="151.3714280809675" fill="rgb(0, 0, 0)" stroke="rgb(66, 66, 66)" stroke-width="1px" opacity="0.25"></line><line x1="0" y1="138.75714240755354" x2="268.08499813079834" y2="138.75714240755354" fill="rgb(0, 0, 0)" stroke="rgb(66, 66, 66)" stroke-width="1px" opacity="0.25"></line><line x1="0" y1="126.14285673413956" x2="268.08499813079834" y2="126.14285673413956" fill="rgb(0, 0, 0)" stroke="rgb(66, 66, 66)" stroke-width="1px" opacity="0.25"></line><line x1="0" y1="113.52857106072561" x2="268.08499813079834" y2="113.52857106072561" fill="rgb(0, 0, 0)" stroke="rgb(66, 66, 66)" stroke-width="1px" opacity="0.25"></line><line x1="0" y1="100.91428538731165" x2="268.08499813079834" y2="100.91428538731165" fill="rgb(0, 0, 0)" stroke="rgb(66, 66, 66)" stroke-width="1px" opacity="0.25"></line><line x1="0" y1="88.29999971389769" x2="268.08499813079834" y2="88.29999971389769" fill="rgb(0, 0, 0)" stroke="rgb(66, 66, 66)" stroke-width="1px" opacity="0.25"></line><line x1="0" y1="75.68571404048373" x2="268.08499813079834" y2="75.68571404048373" fill="rgb(0, 0, 0)" stroke="rgb(66, 66, 66)" stroke-width="1px" opacity="0.25"></line><line x1="0" y1="63.071428367069764" x2="268.08499813079834" y2="63.071428367069764" fill="rgb(0, 0, 0)" stroke="rgb(66, 66, 66)" stroke-width="1px" opacity="0.25"></line><line x1="0" y1="50.457142693655825" x2="268.08499813079834" y2="50.457142693655825" fill="rgb(0, 0, 0)" stroke="rgb(66, 66, 66)" stroke-width="1px" opacity="0.25"></line><line x1="0" y1="37.84285702024188" x2="268.08499813079834" y2="37.84285702024188" fill="rgb(0, 0, 0)" stroke="rgb(66, 66, 66)" stroke-width="1px" opacity="0.25"></line><line x1="0" y1="25.228571346827906" x2="268.08499813079834" y2="25.228571346827906" fill="rgb(0, 0, 0)" stroke="rgb(66, 66, 66)" stroke-width="1px" opacity="0.25"></line><line x1="0" y1="12.614285673413933" x2="268.08499813079834" y2="12.614285673413933" fill="rgb(0, 0, 0)" stroke="rgb(66, 66, 66)" stroke-width="1px" opacity="0.25"></line><line x1="0" y1="0" x2="268.08499813079834" y2="0" fill="rgb(0, 0, 0)" stroke="rgb(66, 66, 66)" stroke-width="1px" opacity="0.25"></line></g></g></g><g><g><line x1="0" y1="189.21428510120936" x2="268.08499813079834" y2="189.21428510120936" fill="rgb(0, 0, 0)" stroke="rgb(153, 153, 153)" stroke-width="1.5px"></line></g></g><g><g><line x1="22.34041651089986" y1="0" x2="22.34041651089986" y2="176.5999994277954" fill="rgb(0, 0, 0)" stroke="rgb(153, 153, 153)" stroke-width="1.5px"></line></g></g><g><g><g><g><g><path style="fill: none;" stroke="rgb(0, 153, 136)" stroke-width="2px" d="M22.56359727184375,143.85646931356274L22.78700143695275,144.57953885786065L23.01040560206175,141.46276429523996L23.233809767170747,136.51407281222913L23.457213932279746,129.16712532015583L23.68061809738874,121.58281399372117L23.904022262497744,112.34184692793593L24.127426427606743,102.33790708144568L24.350830592715738,85.08815543170742L24.57423475782474,69.39658753798942L24.797638922933736,54.55061674381617L25.021043088042735,42.499148651413456L25.244447253151737,33.288633940887124L25.467851418260732,22.886477935425933L25.69125558336973,14.884636438849927L25.914659748478734,11.37597382718107L26.13806391358773,13.005189327010209L26.361468078696728,10.543380413997419L26.584872243805727,13.205545316120977L26.808276408914725,15.387789094713863L27.031680574023724,17.892852120569934L27.255084739132723,20.3428515531769L27.478488904241722,21.995481800617252L27.701893069350717,23.58453469225662L27.925297234459716,28.346686570859113L28.14870139956872,33.45949903280706L28.372105564677714,38.17119988007048L28.595509729786713,41.08219489578566L28.818913894895715,44.79792959258723L29.04231806000471,47.855162927368966L29.26572222511371,50.094768545360736L29.489126390222708,56.1171239860812L29.712530555331707,61.25664352859076L29.935934720440706,64.50108692136823L30.159338885549705,66.42476809917517L30.382743050658704,69.9511920110509L30.6061472157677,72.56101175070897L30.8295513808767,74.68996151503879L31.0529555459857,76.64344929272151L31.276359711094695,78.55320144060971L31.499763876203698,80.80809908833774L31.723168041312693,84.5417154027211L31.946572206421692,86.1258990864551L32.169976371530694,87.42461359898967L32.39338053663969,89.71805782559034L32.61678470174869,91.5620431899568L32.84018886685769,91.13567372076696L33.06359303196668,93.55833379611178L33.286997197075685,95.81575320148289L33.51040136218468,98.97228583811415L33.73380552729368,100.7619164453949L33.957209692402685,100.98977762096459L34.18061385751168,103.18535111985906L34.404018022620676,105.0951031120445L34.62742218772968,106.4421244435899L34.85082635283867,107.43991736681586L35.07423051794767,108.50972192513103L35.29763468305668,108.71460554783624L35.521038848165674,110.25753733057974L35.74444301327467,110.86875906311755L35.96784717838367,112.65968875173951L36.19125134349267,115.04639945099532L36.41465550860166,114.52522325285805L36.63805967371066,115.95427838960741L36.86146383881967,118.13911525353653L37.08486800392866,119.03765988971358L37.30827216903766,119.9278443509759L37.53167633414666,121.20177748991128L37.755080499255655,121.64671945851829L37.97848466436465,122.24172658719941L38.20188882947366,122.8974809036045L38.425292994582655,123.06076610231385L38.64869715969165,123.3989703118189L38.87210132480065,123.99523908314684L39.09550548990965,124.22711155277923L39.31890965501864,124.86848125751499L39.542313820127646,125.65270722269196L39.76571798523665,126.717837294047L39.98912215034564,127.9300142490695L40.21252631545464,129.05648428598835L40.43593048056364,130.22689439195744L40.65933464567264,131.08227191459932L40.88273881078164,131.74623701989304L41.10614297589064,131.74476793115304L41.32954714099964,133.08507210287334L41.55295130610863,133.8954943248953L41.776355471217634,135.1844083231737L41.99975963632663,134.8143962581677L42.223163801435625,135.54599320629455L42.44656796654463,136.79094683307838L42.66997213165363,137.39381740338794L42.893376296762625,138.6175334710324L43.11678046187162,138.91877127833672L43.34018462698062,138.35775352465032L43.56358879208962,138.24248883300277L43.78699295719862,138.6440430426621L44.01039712230762,139.01720127279327L44.23380128741662,138.67715231612544L44.45720545252561,139.39177866377878L44.680609617634616,139.30019352316853L44.90401378274361,138.93583423450244L45.127417947852614,139.17647517177093L45.35082211296161,139.57703094260415L45.57422627807061,139.12388589742577L45.79763044317961,138.58332351694924L46.0210346082886,139.45857587449265L46.244438773397604,140.1053203897223L46.46784293850661,140.69172885845097L46.6912471036156,140.89845064801165L46.914651268724604,140.29511206281992L47.1380554338336,140.36943825099115L47.361459598942595,140.93531244027872L47.5848637640516,140.44604260189456L47.80826792916059,140.77371521512842L48.031672094269595,140.87858265717404L48.25507625937859,141.80825577995338L48.47848042448759,141.55876869957763L48.70188458959659,141.59113622200368L48.92528875470558,141.86974138872424L49.148692919814586,142.12680682533434L49.37209708492359,141.6579060664093L49.595501250032584,142.14884455991324L49.818905415141586,142.03087531053234L50.04230958025058,139.86682085478512L50.26571374535958,140.7579142903868L50.48911791046858,140.99923613596633L50.71252207557758,141.40134637137447L50.93592624068658,141.7794253983488L51.15933040579557,141.9513122939725L51.382734570904574,142.69764503207065L51.60613873601357,143.47622028075048L51.829542901122565,144.4228186743127L52.052947066231575,144.46033339701148L52.27635123134057,145.05205904103826L52.499755396449565,145.22678621247053L52.72315956155857,145.73589178838537L52.94656372666756,145.4534430027489L53.16996789177656,144.65974574986348L53.39337205688555,144.776388935724L53.61677622199456,144.91641164700198L53.84018038710356,145.54435656007297L54.06358455221255,145.99212672732025L54.286988717321556,146.48278535195104L54.51039288243055,146.5097888808615L54.73379704753955,146.1078709597856L54.957201212648556,145.86562366577542L55.18060537775755,145.32792400933806L55.40400954286655,145.04609002912306L55.62741370797555,144.95394819565516L55.850817873084544,144.25234337878118L56.07422203819354,144.22429866386256L56.29762620330254,144.5958885977362L56.521030368411544,143.07874253404725L56.74443453352054,143.80095998613888L56.967838698629535,144.6307131981218L57.19124286373854,144.33437188244997L57.41464702884753,144.47618962724505L57.638051193956535,144.96808878498973L57.86145535906554,145.92982976448647L58.08485952417453,146.05169799217418L58.30826368928353,142.6141464633423L58.53166785439253,142.8216599630103L58.755072019501526,144.20788237497615L58.97847618461052,145.29248385625093L59.201880349719524,144.5772143269005L59.425284514828526,146.06785571405646L59.64868867993752,146.067551125688L59.87209284504652,146.65742086114645L60.09549701015552,147.43938490739117L60.318901175264514,147.24810693633495L60.54230534037352,147.50142507381355L60.76570950548252,148.16400904615895L60.989113670591514,149.1561620261096L61.21251783570051,149.62517642060996L61.43592200080951,149.39789217072016L61.65932616591851,149.13209792450255L61.88273033102751,150.4613887467163L62.106134496136505,151.13076221696707L62.32953866124551,151.27387941562213L62.5529428263545,151.21582429230898L62.7763469914635,151.56050415112142L62.9997511565725,152.65679668166476L63.2231553216815,153.16564935731662L63.4465594867905,152.8386631786203L63.6699636518995,153.30702665393832L63.893367817008496,153.97851401147977L64.1167719821175,153.54532048246534L64.3401761472265,153.58702781146587L64.56358031233549,153.59603014913426L64.78698447744449,154.10383529993896L65.01038864255348,154.11027077702886L65.23379280766248,154.8046625147614L65.45719697277148,154.85879667092428L65.68060113788049,154.6997334816832L65.90400530298949,154.71681025397257L66.12740946809848,154.5392869863258L66.35081363320748,154.82614619028132L66.57421779831648,155.5352373395098L66.79762196342548,154.91379436417927L67.02102612853447,155.4680796859459L67.24443029364348,155.70731120740516L67.46783445875246,155.59801244434L67.69123862386147,155.51649147327683L67.91464278897047,155.90648852402802L68.13804695407947,155.91921605246685L68.36145111918847,155.96719481591475L68.58485528429748,155.88085845066746L68.80825944940646,156.36842281513887L69.03166361451547,156.8950321110933L69.25506777962447,156.813518222185L69.47847194473346,156.56472042453754L69.70187610984246,156.4346392401193L69.92528027495146,156.02522578125667L70.14868444006045,156.12757552139448L70.37208860516945,156.4797825418147L70.59549277027845,156.1813359402795L70.81889693538744,156.3632669679272L71.04230110049646,156.06183916270433L71.26570526560546,156.01347462860207L71.48910943071445,157.1003036337349L71.71251359582345,156.87276557499595L71.93591776093244,157.15049013302746L72.15932192604144,157.3034483964502L72.38272609115045,157.3109774353158L72.60613025625943,158.09448419250214L72.82953442136844,157.50613724887404L73.05293858647744,156.7095810193995L73.27634275158643,156.80205114512094L73.49974691669543,156.46572414142733L73.72315108180445,155.49301029842076L73.94655524691343,155.93501441754302L74.16995941202244,156.0613509027428L74.39336357713144,156.59267712053733L74.61676774224043,156.84882638374137L74.84017190734943,157.3589633157782L75.06357607245843,157.78419846323243L75.28698023756742,157.50028923768804L75.51038440267642,156.90954283223493L75.73378856778542,156.51398418945433L75.95719273289441,156.41294627280737L76.18059689800342,156.11411416515176L76.40400106311243,156.44949831809905L76.62740522822142,157.27234443425158L76.85080939333042,157.48282692940026L77.07421355843941,156.99465418144064L77.29761772354841,157.0485827686241L77.52102188865742,157.22224381187993L77.7444260537664,157.36851512711604L77.9678302188754,157.7172121139617L78.19123438398441,157.80906508759722L78.4146385490934,157.87391447147843L78.6380427142024,157.88698867474702L78.8614468793114,158.1268476912338L79.08485104442039,158.6636311912291L79.3082552095294,158.31234847284122L79.53165937463841,157.39568786165663L79.7550635397474,157.77127425092755L79.9784677048564,157.25853484988855L80.2018718699654,157.10105095344568L80.42527603507439,156.66963073958638L80.64868020018339,157.10016127118536L80.8720843652924,156.99472248134853L81.09548853040138,156.1984932815263L81.31889269551039,155.10240692892592L81.54229686061939,154.5114928109315L81.76570102572838,153.50569566049828L81.98910519083738,153.22443524614658L82.2125093559464,152.98854888276014L82.43591352105538,153.22503344704228L82.65931768616439,154.03661557386772L82.88272185127337,153.96347868933748L83.10612601638238,153.96940561693788L83.32953018149138,154.12197126567634L83.55293434660037,153.85481415875435L83.77633851170937,154.4705873069006L83.99974267681837,154.32909333832853L84.22314684192736,155.11474055903494L84.44655100703636,154.42814956669562L84.66995517214536,154.78673925899432L84.89335933725437,155.7444934681277L85.11676350236337,155.0341098828896L85.34016766747237,156.38398731136428L85.56357183258136,156.63927405117778L85.78697599769036,156.95463688027218L86.01038016279936,157.86022465142904L86.23378432790835,158.19203310174808L86.45718849301736,157.92456966655504L86.68059265812636,158.5694829469699L86.90399682323535,158.74077926420483L87.12740098834435,159.01832085255904L87.35080515345335,158.84348658373028L87.57420931856234,159.25856796658044L87.79761348367136,158.76471854452174L88.02101764878036,158.89890322014074L88.24442181388935,158.9177746564256L88.46782597899835,159.01989371110034L88.69123014410734,159.00266811878117L88.91463430921634,159.52924840232046L89.13803847432534,159.1147321564382L89.36144263943433,158.7698228084066L89.58484680454333,158.15065022021977L89.80825096965233,158.81614776432838L90.03165513476132,158.95495183166787L90.25505929987033,159.5003627295309L90.47846346497934,160.14674572112392L90.70186763008833,160.30151126840903L90.92527179519733,159.92979319858583L91.14867596030633,160.28112396952244L91.37208012541532,160.19618707313882L91.59548429052433,159.4743050704256L91.81888845563333,160.1227435019651L92.04229262074232,160.63919869405203L92.26569678585132,161.66923049110045L92.48910095096032,161.65342475631076L92.71250511606931,161.9872865144378L92.93590928117831,162.39180894900795L93.15931344628733,162.2309236201243L93.38271761139632,161.67268905105504L93.60612177650532,161.94195625126235L93.8295259416143,162.04598105585862L94.05293010672331,162.10828540290814L94.27633427183231,161.90859790697985L94.4997384369413,161.94770460687764L94.7231426020503,162.16193227721652L94.9465467671593,162.30362142181409L95.16995093226829,162.58011972013043L95.3933550973773,161.7845968421701L95.6167592624863,161.4377994576174L95.84016342759529,161.44140703781173L96.0635675927043,162.10872122308731L96.2869717578133,161.81975891938924L96.5103759229223,162.31481151454508L96.7337800880313,162.665168676181L96.9571842531403,162.336116622848L97.18058841824929,162.51900292855083L97.40399258335829,162.7402211353119L97.62739674846729,162.15032235283857L97.85080091357628,162.14498683886987L98.07420507868528,162.4895126906184L98.29760924379428,162.4090759272531L98.52101340890327,162.78000815254128L98.74441757401227,163.02602326559312L98.96782173912129,162.4444061184354L99.19122590423028,162.4580812090483L99.41463006933928,161.94353521510638L99.63803423444827,162.14725409972007L99.86143839955727,162.21404682292834L100.08484256466627,162.73710488788475L100.30824672977526,162.692059305885L100.53165089488427,162.6422465844253L100.75505505999327,162.49944719262493L100.97845922510226,162.81419945255695L101.20186339021126,163.04444256257176L101.42526755532026,163.42948444057285L101.64867172042926,163.7581100767542L101.87207588553827,163.49263128819905L102.09548005064727,163.77795008337856L102.31888421575626,163.80602295827813L102.54228838086526,164.29585540852216L102.76569254597426,164.36333263031506L102.98909671108325,164.18463207763682L103.21250087619225,163.5124367921508L103.43590504130125,163.58241709822758L103.65930920641024,164.2184652428516L103.88271337151924,164.52591596198712L104.10611753662825,164.5286979842707L104.32952170173724,164.1898506918061L104.55292586684625,164.71379228357068L104.77633003195525,164.59867524042193L104.99973419706424,164.63311134393297L105.22313836217324,164.67003804300427L105.44654252728223,164.16719257883244L105.66994669239124,163.68791120762475L105.89335085750024,163.3612716810652L106.11675502260923,163.32033257430191L106.34015918771823,163.3094066657186L106.56356335282723,163.11674326041742L106.78696751793622,163.27513670697604L107.01037168304522,162.20687918861324L107.23377584815424,162.66682508909628L107.45718001326323,162.84723664480387L107.68058417837223,162.90472548984425L107.90398834348123,163.073259630623L108.12739250859022,163.5153997149926L108.35079667369922,163.6018413757148L108.57420083880822,163.82886449925144L108.79760500391721,163.54948740753053L109.02100916902621,163.41652263212862L109.24441333413522,163.57312616111034L109.4678174992442,163.38340775423035L109.69122166435321,162.81375130964705L109.91462582946222,162.8972332608182L110.13802999457121,163.05741282579322L110.36143415968021,162.75079233982768L110.5848383247892,163.47455125820625L110.8082424898982,164.18864329567168L111.03164665500721,164.2634926912503L111.2550508201162,163.71651618352487L111.4784549852252,164.309327311796L111.7018591503342,164.71299970318506L111.92526331544319,164.61927621749797L112.14866748055219,164.8986634598742L112.3720716456612,164.8835047460534L112.59547581077018,164.84682804415596L112.8188799758792,164.74441196580014L113.0422841409882,164.21452375816673L113.26568830609719,164.13810695481408L113.48909247120619,164.22923776367756L113.7124966363152,164.0584161086884L113.93590080142418,163.76494983133986L114.15930496653318,163.4695384926175L114.38270913164219,163.70650278614977L114.60611329675118,163.91768578476692L114.82951746186018,164.2207017682015L115.05292162696918,163.78899788378627L115.27632579207817,164.02105273969633L115.49972995718717,163.96320351952932L115.72313412229619,164.00716675474678L115.94653828740518,164.30950524866458L116.16994245251418,163.77579891937611L116.39334661762317,163.3760779834787L116.61675078273217,162.7512693311975L116.84015494784117,162.59296876281516L117.06355911295016,161.7594160066572L117.28696327805916,161.61934274637898L117.51036744316816,161.73994091643638L117.73377160827715,161.17919929774843L117.95717577338615,160.37904803016488L118.18057993849516,159.56634347735223L118.40398410360416,158.44211404162954L118.62738826871316,158.6131296548697L118.85079243382216,159.17636052622245L119.07419659893115,157.69247589199742L119.29760076404015,156.70147056992337L119.52100492914916,156.902525693785L119.74440909425815,157.123656258046L119.96781325936715,157.57786858095068L120.19121742447615,156.939800442945L120.41462158958514,156.9655396853271L120.63802575469414,156.54127484850895L120.86142991980314,156.4344210743947L121.08483408491213,157.0962680691384L121.30823825002115,157.08784258265572L121.53164241513015,156.86986137529692L121.75504658023914,156.87440796321042L121.97845074534814,156.89202414186656L122.20185491045713,156.77339146790536L122.42525907556613,156.54746669174747L122.64866324067513,156.85776612991987L122.87206740578412,157.8851157128611L123.09547157089312,158.11827704438082L123.31887573600213,158.41637833348275L123.54227990111112,158.84339018404316L123.76568406622012,159.07451471513718L123.98908823132913,159.428053498163L124.21249239643812,159.93552977539707L124.43589656154712,159.78922232685355L124.65930072665613,160.19067767947584L124.88270489176512,161.13055315498949L125.10610905687412,161.23556777530567L125.32951322198312,162.029553587434L125.55291738709211,162.39193589366633L125.77632155220111,162.59059820034147L125.99972571731011,161.8678858515455L126.2231298824191,161.67296996553173L126.4465340475281,160.5629006954159L126.66993821263712,160.3264281711275L126.89334237774611,160.51542432291973L127.11674654285511,160.43782661088565L127.3401507079641,160.50407150675792L127.5635548730731,160.54037179729673L127.7869590381821,160.88183810498612L128.0103632032911,161.0528138065217L128.2337673684001,160.43595686915342L128.4571715335091,159.67826948199084L128.6805756986181,159.2705997464944L128.9039798637271,159.2284505499755L129.1273840288361,159.13767600646491L129.35078819394508,158.9837709992773L129.57419235905408,159.34074654388354L129.79759652416308,159.37544910135355L130.02100068927209,159.82764647092125L130.2444048543811,160.43486584367815L130.4678090194901,160.07411911370548L130.69121318459906,160.62375929015946L130.9146173497081,160.62831608600908L131.1380215148171,161.45998481146492L131.36142567992607,161.91732552489296L131.58482984503507,161.55693101523883L131.80823401014408,162.01995617817076L132.03163817525308,162.02995273106947L132.25504234036208,162.10948218189526L132.47844650547108,162.17917650554196L132.70185067058006,162.34649772696255L132.92525483568906,162.5733269560496L133.14865900079806,162.1381506065392L133.37206316590706,161.68332739514528L133.59546733101607,162.0178262564489L133.81887149612507,162.14320149566086L134.04227566123407,162.53422808872986L134.26567982634307,162.50666899566673L134.48908399145208,162.6461598194985L134.71248815656108,163.08717992087477L134.93589232167005,162.4580675640825L135.15929648677906,162.38544471240192L135.38270065188806,162.61149984409562L135.60610481699706,162.59624156414458L135.82950898210606,162.36192431368434L136.05291314721504,161.5368812147985L136.27631731232404,161.63385883838478L136.49972147743304,162.0056799816873L136.72312564254204,162.54135251984573L136.94652980765105,162.55169780381362L137.16993397276005,163.21488394761593L137.39333813786902,163.5030569896156L137.61674230297803,163.44399623914245L137.84014646808703,163.25983504572255L138.06355063319603,163.2247467743095L138.28695479830503,163.66657230275064L138.51035896341403,163.50558828144491L138.733763128523,163.3418302976489L138.957167293632,163.39187949720966L139.180571458741,163.0921053288447L139.40397562385004,163.6789612034849L139.62737978895905,163.60463359250727L139.85078395406805,163.84786379926L140.07418811917702,164.08000710268578L140.29759228428603,164.11935409322632L140.52099644939503,163.8200593945955L140.74440061450403,163.89899712026062L140.96780477961303,164.39471721182636L141.19120894472204,164.18959961217305L141.414613109831,163.96939547026187L141.63801727494,163.51347542109687L141.861421440049,163.3565509677834L142.08482560515802,162.75084371655606L142.30822977026702,162.72393473333167L142.531633935376,162.2080160046964L142.755038100485,162.0504915509741L142.978442265594,161.6795890983673L143.201846430703,161.94081225369106L143.425250595812,162.0156454190091L143.648654760921,161.96602205488443L143.87205892602998,161.30670552066056L144.09546309113898,160.6764293693157L144.31886725624798,160.39549915822633L144.542271421357,160.48867441492237L144.765675586466,160.7375873747053L144.98907975157502,160.85877936652352L145.212483916684,160.43032266794594L145.435888081793,161.38166540858552L145.659292246902,161.02072632483055L145.882696412011,161.2962717146812L146.10610057712,160.9763355211981L146.329504742229,161.15888538370555L146.55290890733798,161.70498473640373L146.77631307244698,161.82016429656719L146.99971723755598,161.35027453407315L147.223121402665,160.52736190161124L147.446525567774,160.51709675812586L147.66992973288296,160.32189045840528L147.89333389799197,160.12583636465124L148.11673806310097,159.8888701788024L148.34014222820997,160.02474886602184L148.56354639331897,159.88306559008555L148.78695055842798,160.07233314087748L149.01035472353695,159.8282858738894L149.23375888864595,160.058380928723L149.45716305375495,160.29475364403774L149.68056721886396,160.0647271620889L149.90397138397296,160.67940692205474L150.12737554908196,161.0812916898645L150.35077971419094,161.4310833269031L150.57418387929997,161.57223949854725L150.79758804440897,161.49707357802316L151.02099220951797,161.85830877048699L151.24439637462697,161.49028999536174L151.46780053973598,160.91534816025685L151.69120470484495,161.26402443370688L151.91460886995395,161.8767751809178L152.13801303506295,162.0764872733596L152.36141720017196,162.46430617214713L152.58482136528096,162.52409224228379L152.80822553038993,161.75178304641668L153.03162969549894,161.44942387310385L153.25503386060794,161.65709900156298L153.47843802571694,162.02034711578352L153.70184219082594,161.88053820352187L153.92524635593495,162.09806711865897L154.14865052104392,161.62910041089697L154.37205468615292,161.04590047083593L154.59545885126192,160.22726563551745L154.81886301637093,160.24207012484365L155.04226718147993,160.97801682080944L155.26567134658893,161.04175568031644L155.4890755116979,160.40804341448552L155.7124796768069,160.40150771173697L155.9358838419159,160.68825083595266L156.15928800702494,160.4739280701969L156.38269217213394,161.10695726525321L156.60609633724295,161.19498492857477L156.82950050235192,161.2312827336478L157.05290466746092,161.12053189445268L157.27630883256992,160.73217709461122L157.49971299767893,160.04108696940312L157.72311716278793,160.06171371021708L157.94652132789693,160.38068124999967L158.1699254930059,160.66312349269552L158.3933296581149,160.5391992737875L158.6167338232239,160.40361476179885L158.8401379883329,160.09290175390652L159.06354215344192,160.01054631233796L159.2869463185509,160.1081525698149L159.5103504836599,159.78364172659496L159.7337546487689,158.9322332249143L159.9571588138779,158.67171190926416L160.1805629789869,158.21504088740753L160.4039671440959,158.23396192689714L160.62737130920488,157.7807894698313L160.85077547431388,158.4095134097513L161.07417963942288,158.39615522612186L161.29758380453188,158.68701554777468L161.52098796964088,158.29589839861904L161.74439213474992,158.85807270997245L161.9677962998589,159.4673437042305L162.1912004649679,159.4943922506319L162.4146046300769,159.60410208703254L162.6380087951859,160.20910483655092L162.8614129602949,160.59057428703443L163.0848171254039,160.77544359597434L163.30822129051288,161.1983648716419L163.53162545562188,160.9161307015666L163.75502962073088,160.46250501671597L163.97843378583988,160.38691514854514L164.20183795094889,160.63053766964472L164.42524211605786,160.45945003314966L164.64864628116686,160.8545790644051L164.87205044627586,161.06857775374874L165.09545461138487,160.57419787053894L165.31885877649387,160.12040289133577L165.54226294160287,160.17712301550816L165.76566710671185,159.78106213050268L165.98907127182085,159.5056056291107L166.21247543692985,159.75865244699432L166.43587960203885,158.97065094095768L166.65928376714785,159.14626379236216L166.88268793225686,159.06485960961612L167.10609209736583,159.59426866811575L167.32949626247486,160.2198692054709L167.55290042758386,160.8436980233771L167.77630459269287,161.59866268116502L167.99970875780187,161.59529994716917L168.22311292291087,161.94100929113725L168.44651708801985,161.74640802199707L168.66992125312885,161.50662975792315L168.89332541823785,161.90095502587783L169.11672958334685,162.0406750222227L169.34013374845586,161.98732920306966L169.56353791356483,161.22449617343145L169.78694207867383,161.7940541940887L170.01034624378283,161.4268963570712L170.23375040889184,161.29085308970875L170.45715457400084,161.34749390591494L170.68055873910984,161.32281450911032L170.90396290421882,161.28527869260054L171.12736706932782,160.63388527347672L171.35077123443682,160.37845438173628L171.57417539954582,160.45766922154863L171.79757956465482,161.18101967125597L172.02098372976383,161.57793897888521L172.2443878948728,161.83650197015072L172.4677920599818,162.0091328790299L172.6911962250908,162.61054137889474L172.91460039019984,162.41907433810667L173.13800455530884,162.38010564921754L173.36140872041784,162.9477070566077L173.58481288552682,162.61816399302427L173.80821705063582,163.00664050516883L174.03162121574482,163.155749102357L174.25502538085382,163.14551344697207L174.47842954596283,163.36714867821726L174.70183371107183,163.07349723274714L174.9252378761808,162.939354853729L175.1486420412898,162.54102496137895L175.3720462063988,162.2281657189869L175.5954503715078,161.70374534220247L175.8188545366168,161.05630137896736L176.04225870172579,160.86301131775252L176.2656628668348,160.79189969226402L176.4890670319438,161.5201430205897L176.7124711970528,161.2544767556585L176.9358753621618,159.85818784151635L177.1592795272708,160.35979892922307L177.38268369237977,159.71653181979894L177.60608785748877,158.90589515873194L177.82949202259778,159.36510476485168L178.05289618770678,159.8732971164693L178.27630035281578,159.73714475835584L178.4997045179248,160.02676625915655L178.7231086830338,159.32704688315974L178.9465128481428,159.80032198850157L179.1699170132518,159.42905335108944L179.3933211783608,159.01814658079252L179.6167253434698,158.58037886579518L179.8401295085788,159.27195637627867L180.06353367368777,159.95144972428267L180.28693783879677,159.9230216940116L180.51034200390578,160.57277883302342L180.73374616901478,160.06914495154092L180.95715033412378,160.21210898861383L181.18055449923276,160.97993279934443L181.40395866434176,161.2725148344734L181.62736282945076,161.51750548635772L181.85076699455976,161.5012932688352L182.07417115966877,161.61503943815612L182.29757532477777,162.2930071980558L182.52097948988674,161.87296311391694L182.74438365499574,161.84316861618026L182.96778782010475,161.34594332013486L183.19119198521375,161.38413256286458L183.41459615032275,161.03043021186255L183.63800031543175,161.22145893753188L183.86140448054073,161.2930400131735L184.08480864564976,160.91448929251487L184.30821281075876,160.30783683900637L184.53161697586776,160.31078396420565L184.75502114097677,159.0853508499266L184.97842530608577,159.34633177023397L185.20182947119474,158.682772242417L185.42523363630374,157.41178612535796L185.64863780141275,157.01192420233306L185.87204196652175,156.07008308694512L186.09544613163075,156.0771807571429L186.31885029673973,156.4654485386766L186.54225446184873,156.10216401756577L186.76565862695773,155.89203407173414L186.98906279206673,156.9017010144537L187.21246695717574,156.66682522750486L187.43587112228474,156.94559915671556L187.6592752873937,156.98036943206154L187.8826794525027,157.23964061338853L188.10608361761172,157.4894119237245L188.32948778272072,157.88976973999135L188.55289194782972,158.07126901150784L188.77629611293872,158.20169829468284L188.9997002780477,159.3026137087882L189.2231044431567,160.10238432423955L189.4465086082657,160.15200517466434L189.66991277337473,159.25623927783968L189.89331693848374,158.8711683434134L190.11672110359274,157.79708175216513L190.3401252687017,156.683362630974L190.56352943381071,155.64494914814495L190.78693359891972,153.54475221477765L191.01033776402872,152.3387591444961L191.23374192913772,149.25208294433457L191.45714609424672,146.31405558574255L191.6805502593557,143.27600627594575L191.9039544244647,139.9603996558707L192.1273585895737,137.47598550365962L192.3507627546827,136.0894191870188L192.5741669197917,134.26451040631812L192.79757108490068,131.1776142023027L193.02097525000968,128.7071139340842L193.2443794151187,126.67866434280924L193.4677835802277,123.89607938046612L193.6911877453367,122.2930320527396L193.9145919104457,121.83166914306341L194.13799607555467,121.47093162128874L194.36140024066367,123.08468082733154L194.58480440577267,126.49344662255776L194.80820857088167,127.71172046460656L195.03161273599068,130.09357118094118L195.2550169010997,130.90634026204773L195.47842106620868,133.47192031103566L195.70182523131768,135.41611506782706L195.9252293964267,137.23283557601218L196.1486335615357,138.28291419221037L196.3720377266447,139.43746199199632L196.5954418917537,141.4885275596101L196.81884605686267,142.44674841459957L197.04225022197167,143.32153681594187L197.26565438708067,144.67944823047958L197.48905855218968,145.40912840710595L197.71246271729868,143.78251978684645L197.93586688240765,143.69040376159444L198.15927104751665,144.08338373796724L198.38267521262566,144.54626733394173L198.60607937773466,146.08393523476616L198.82948354284366,145.83671017391848L199.05288770795266,146.16278263658168L199.27629187306164,146.28841149763008L199.49969603817064,145.60503605344417L199.72310020327964,146.39018649763645L199.94650436838864,147.36275377998152L200.16990853349765,146.16416306580334L200.39331269860665,146.16599475784085L200.61671686371562,146.62038484731096L200.84012102882465,145.87148290809876L201.06352519393366,145.5029528420569L201.28692935904266,146.64112725234932L201.51033352415166,147.62133634860348L201.73373768926066,147.45761815861235L201.95714185436964,148.19215055271832L202.18054601947864,147.66010573675712L202.40395018458764,148.41856530248972L202.62735434969665,148.96300645508543L202.85075851480565,149.51707758772554L203.07416267991462,149.7458265654832L203.29756684502362,149.29312787218234L203.52097101013263,148.89555349016322L203.74437517524163,147.83911944728936L203.96777934035063,147.87004469501855L204.19118350545963,147.6010298650916L204.4145876705686,147.19020844314406L204.6379918356776,147.07484743093704L204.8613960007866,147.37824490239956L205.08480016589562,147.66591060900296L205.30820433100462,147.71167642262256L205.53160849611362,146.5243686274702L205.7550126612226,147.18883489639L205.9784168263316,147.09584593584373L206.2018209914406,147.6368503902685L206.42522515654963,147.49161804719617L206.64862932165863,148.5785692868102L206.87203348676763,148.74819157145387L207.0954376518766,148.53071960518736L207.3188418169856,148.71915101638373L207.5422459820946,149.29232609062245L207.76565014720362,149.82145793360095L207.98905431231262,150.074631082972L208.21245847742162,149.84795637988063L208.4358626425306,150.5420053676394L208.6592668076396,149.81560810224616L208.8826709727486,150.17094028389138L209.1060751378576,150.71800339678032L209.3294793029666,151.01535376718599L209.55288346807558,150.62989622619926L209.77628763318458,151.21746555404232L209.99969179829358,151.94115731765532L210.22309596340259,151.9107923300529L210.4465001285116,152.65851107470135L210.6699042936206,153.06238699835725L210.89330845872956,154.03769914542826L211.11671262383857,153.20868915951476L211.34011678894757,154.37948363331046L211.56352095405657,155.03911208885782L211.78692511916557,155.018799119294L212.0103292842746,155.63585003347183L212.23373344938358,155.59448238210055L212.45713761449258,155.12048345965633L212.68054177960158,155.56408270125976L212.90394594471059,155.38852484657087L213.1273501098196,155.1733062644599L213.3507542749286,154.96303332266922L213.57415844003756,154.24080307185207L213.79756260514657,154.47739865616438L214.02096677025557,154.0824456877398L214.24437093536457,153.95241959332307L214.46777510047357,154.14647993548797L214.69117926558255,152.3593660049331L214.91458343069155,153.05308618999064L215.13798759580055,153.45750506638828L215.36139176090956,153.2076987493107L215.58479592601856,152.95055356419937L215.80820009112756,152.21615942649797L216.03160425623653,151.9014272575684L216.25500842134554,152.01368406172517L216.47841258645454,152.26798750412507L216.70181675156354,152.18369195226333L216.92522091667254,153.07474351980017L217.14862508178155,153.49909988461735L217.37202924689052,154.2960638124981L217.59543341199955,154.45453515660915L217.81883757710855,154.4365778410896L218.04224174221756,154.83436304846995L218.26564590732656,154.14294667429272L218.48905007243556,154.01846876901112L218.71245423754453,153.4796639526009L218.93585840265354,152.6826826127709L219.15926256776254,152.8546430366252L219.38266673287154,152.57434257939525L219.60607089798054,152.16385167511737L219.82947506308952,152.7057937256587L220.05287922819852,152.94598754415125L220.27628339330752,153.61143596345548L220.49968755841653,154.06652595712433L220.72309172352553,154.7606089747308L220.94649588863453,155.03732047040967L221.1699000537435,155.50940189880467L221.3933042188525,155.17521883088892L221.6167083839615,155.33211268386242L221.8401125490705,154.79975148743816L222.0635167141795,154.4380839776904L222.28692087928852,154.69863421836507L222.5103250443975,154.77803236970183L222.7337292095065,154.73544088507646L222.9571333746155,154.67453651095352L223.18053753972453,155.11731279113903L223.40394170483353,155.87316104444412L223.62734586994253,155.6645841427564L223.8507500350515,152.84502593229467L224.0741542001605,153.5496590280707L224.2975583652695,154.01009792009876L224.5209625303785,152.21527141651836L224.7443666954875,151.87978784279287L224.96777086059652,151.12591733925876L225.1911750257055,151.36220862302972L225.4145791908145,148.7510174904943L225.6379833559235,149.40110355921715L225.8613875210325,149.66048263226313L226.0847916861415,150.23597633498625L226.30819585125047,149.7239789794164L226.53160001635948,150.5622867819384L226.75500418146848,151.24191610845975L226.97840834657748,151.2473904812591L227.20181251168648,151.00383849191144L227.4252166767955,150.37954754366802L227.64862084190446,150.5542995944565L227.87202500701346,150.68364965445724L228.09542917212246,149.19897698740988L228.31883333723147,148.378188428004L228.54223750234047,147.7968338667097L228.7656416674495,147.19493924456484L228.98904583255847,146.1421350862378L229.21244999766748,145.45213956396515L229.43585416277648,146.02705297589716L229.65925832788548,146.7876048340411L229.88266249299448,146.597450519354L230.1060666581035,146.72223844514608L230.32947082321246,147.45802805359722L230.55287498832146,147.71054740998122L230.77627915343047,148.21070226523335L230.99968331853947,148.14363996661487L231.22308748364847,147.5057072385867L231.44649164875744,148.62322601825605L231.66989581386645,148.70021913879512L231.89329997897545,149.4351931213339L232.11670414408445,149.15785156657486L232.34010830919345,149.65936186417062L232.56351247430246,149.98338477105264L232.78691663941143,148.93124780375263L233.01032080452043,149.45271440142113L233.23372496962944,149.34894455274L233.45712913473844,150.0882571345935L233.68053329984744,150.5503773336326L233.90393746495644,149.8317962718057L234.12734163006542,149.9228374379658L234.35074579517445,150.01764083513848L234.57414996028345,150.51319912991843L234.79755412539245,150.10395007946875L235.02095829050145,149.94906917662684L235.24436245561046,150.32523613942553L235.46776662071943,150.2905378712201L235.69117078582843,150.07878197861797L235.91457495093744,149.4553993232744L236.13797911604644,150.4647829178439L236.36138328115544,150.9647309018021L236.58478744626441,151.20896526054955L236.80819161137342,150.50145612787804L237.03159577648242,149.9431425666457L237.25499994159142,150.60386408754732L237.47840410670042,151.03092123006613L237.70180827180943,151.22021693236184L237.9252124369184,150.4386979336207L238.1486166020274,150.72355853815947L238.3720207671364,151.2405439801882L238.5954249322454,151.96100808111058L238.8188290973544,152.47496005290296L239.0422332624634,152.84342833615656L239.2656374275724,153.142439867783L239.4890415926814,152.78341431595408L239.7124457577904,152.1766861235132L239.93584992289942,152.58424730988446L240.15925408800842,151.7943572700916L240.38265825311743,151.12346900147188L240.6060624182264,150.92244132868566L240.8294665833354,151.23924403114097L241.0528707484444,151.59936127610942L241.2762749135534,151.770410644233L241.4996790786624,151.935559219656L241.7230832437714,152.51203854642603L241.9464874088804,152.18367096798082L242.1698915739894,152.76277527506383L242.3932957390984,153.4205334249298L242.6166999042074,154.0326293462569L242.8401040693164,154.35258787421438L243.06350823442537,153.83222952023092L243.28691239953437,153.63086429390773L243.51031656464338,153.68848640150773L243.73372072975238,153.2908339281462L243.95712489486138,154.18595701606534L244.18052905997038,154.5440161592645L244.40393322507936,155.83148382985488L244.62733739018836,157.1087908948933L244.85074155529736,158.0121635660412L245.07414572040636,159.18101255986835L245.29754988551537,159.57951736794743L245.5209540506244,160.3840527411105L245.74435821573337,161.28483086481128" fill="none"></path></g></g></g></g><g opacity="0.2"><g><g><g><path style="fill: none;" stroke="rgb(0, 153, 136)" stroke-width="2px" d="M22.56359727184375,143.85646931356274L22.78700143695275,145.15799449329901L23.01040560206175,136.97460892506618L23.233809767170747,126.85422703739198L23.457213932279746,111.8165741228755L23.68061809738874,101.18647722976698L23.904022262497744,85.06783494676782L24.127426427606743,70.71406067826338L24.350830592715738,27.665261207715L24.57423475782474,15.054662328927737L24.797638922933736,1.5430294709575598L25.021043088042735,-1.5658708121448928L25.914659748478734,-2.16487625604202L26.13806391358773,19.338617968378315L26.361468078696728,0.9178847960125034L26.584872243805727,23.662375726835805L26.808276408914725,23.990966420053876L27.031680574023724,27.797578582678L27.255084739132723,30.052460258576783L27.478488904241722,28.557225754821953L27.701893069350717,29.903225808238947L27.925297234459716,47.305339579597764L28.14870139956872,53.833486243147775L28.372105564677714,56.961042301038596L28.595509729786713,52.69802154236434L28.818913894895715,59.63211927506522L29.04231806000471,60.065172908722865L29.26572222511371,59.04210102746099L29.489126390222708,80.18268874118418L29.712530555331707,81.79843391104664L29.935934720440706,77.47063485124963L30.159338885549705,74.11559112144339L30.382743050658704,84.05116570861654L30.6061472157677,82.9969029696323L30.8295513808767,83.20354974452346L31.0529555459857,84.45577750930026L31.276359711094695,86.1909407841524L31.499763876203698,89.82649077001756L31.723168041312693,99.47459255550874L31.946572206421692,92.4620947516176L32.169976371530694,92.61911810540927L32.39338053663969,98.89133526406991L32.61678470174869,98.93766337986202L32.84018886685769,89.43025527123818L33.06359303196668,103.24870396186586L33.286997197075685,104.84522945442747L33.51040136218468,111.59819112694306L33.73380552729368,107.9203367046718L33.957209692402685,101.90121191638455L34.18061385751168,111.96756489458038L34.404018022620676,112.73405525867283L34.62742218772968,111.83017827098944L34.85082635283867,111.43107039378704L35.07423051794767,112.78892414793543L35.29763468305668,109.53413758566307L35.521038848165674,116.42924968320328L35.74444301327467,113.31364130979594L35.96784717838367,119.8233965278603L36.19125134349267,124.59323054362335L36.41465550860166,112.44052050498149L36.63805967371066,121.6704944514426L36.86146383881967,126.87845722347573L37.08486800392866,122.63183662953986L37.30827216903766,123.48858076555395L37.53167633414666,126.29750840794743L37.755080499255655,123.42648687535001L37.97848466436465,124.62175461238034L38.20188882947366,125.52049773760625L38.425292994582655,123.71390681117148L38.64869715969165,124.75178700737085L38.87210132480065,126.38031396751653L39.09550548990965,125.15460136879598L39.31890965501864,127.43395993812771L39.542313820127646,128.78961094808668L39.76571798523665,130.97835743244195L39.98912215034564,132.7787219353013L40.21252631545464,133.56236433414878L40.43593048056364,134.90853473311643L40.65933464567264,134.5037819568046L40.88273881078164,134.40209741103595L41.10614297589064,131.7388915762462L41.32954714099964,138.44628875095535L41.55295130610863,137.1371831942152L41.776355471217634,140.3400642924078L41.99975963632663,133.3343480036279L42.223163801435625,138.47238099012722L42.44656796654463,141.77076132840455L42.66997213165363,139.80529968005123L42.893376296762625,143.51239773418138L43.11678046187162,140.1237225060909L43.34018462698062,136.1136825120844L43.56358879208962,137.78143006677098L43.78699295719862,140.25025988030083L44.01039712230762,140.50983419257562L44.23380128741662,137.31695648999528L44.45720545252561,142.25028405348243L44.680609617634616,138.9338529608208L44.90401378274361,137.4783970801348L45.127417947852614,140.13903892068808L45.35082211296161,141.17925402572823L45.57422627807061,137.31130571690136L45.79763044317961,136.42107399522342L46.0210346082886,142.95958530443272L46.244438773397604,142.69229845050268L46.46784293850661,143.03736273326544L46.6912471036156,141.72533780622624L46.914651268724604,137.88175772211892L47.1380554338336,140.66674300366944L47.361459598942595,143.19880919738947L47.5848637640516,138.48896324838526L47.80826792916059,142.08440566804927L48.031672094269595,141.29805242535264L48.25507625937859,145.5269482710442L48.47848042448759,140.56082037808034L48.70188458959659,141.72060631170731L48.92528875470558,142.9841620556023L49.148692919814586,143.15506857177186L49.37209708492359,139.78230303071356L49.595501250032584,144.11259853392528L49.818905415141586,141.5589983130094L50.04230958025058,131.21060303180658L50.26571374535958,144.32228803279014L50.48911791046858,141.96452351828364L50.71252207557758,143.009787313006L50.93592624068658,143.29174150624542L51.15933040579557,142.63885987646708L51.382734570904574,145.68297598446225L51.60613873601357,146.5905212754691L51.829542901122565,148.2092122485609L52.052947066231575,144.61039228780643L52.27635123134057,147.41896161714513L52.499755396449565,145.92569489819954L52.72315956155857,147.77231409204464L52.94656372666756,144.32364786020307L53.16996789177656,141.48495673832198L53.39337205688555,145.242961679166L53.61677622199456,145.47650249211398L53.84018038710356,148.0561362123567L54.06358455221255,147.78320739630942L54.286988717321556,148.44541985047422L54.51039288243055,146.61780299650326L54.73379704753955,144.5001992754821L54.957201212648556,144.89663448973462L55.18060537775755,143.1771253835887L55.40400954286655,143.9187541082631L55.62741370797555,144.58538086178353L55.850817873084544,141.44592411128528L56.07422203819354,144.11211980418813L56.29762620330254,146.08224833323078L56.521030368411544,137.01015827929135L56.74443453352054,146.6898297945054L56.967838698629535,147.94972604605368L57.19124286373854,143.14900661976256L57.41464702884753,145.04346060642536L57.638051193956535,146.93568541596844L57.86145535906554,149.7767936824734L58.08485952417453,146.5391709029251L58.30826368928353,128.86394034801484L58.53166785439253,143.65171396168225L58.755072019501526,149.7527720228396L58.97847618461052,149.63088978135L59.201880349719524,141.7161362094989L59.425284514828526,152.03042126268033L59.64868867993752,146.06633277221408L59.87209284504652,149.01689980298022L60.09549701015552,150.5672410923701L60.318901175264514,146.48299505211008L60.54230534037352,148.51469762372795L60.76570950548252,150.8143449355405L60.989113670591514,153.1247739459122L61.21251783570051,151.5012339986114L61.43592200080951,148.48875517116096L61.65932616591851,148.06892093963216L61.88273033102751,155.77855203557118L62.106134496136505,153.80825609797014L62.32953866124551,151.84634821024247L62.5529428263545,150.98360379905637L62.7763469914635,152.9392235863713L62.9997511565725,157.04196680383802L63.2231553216815,155.20106005992415L63.4465594867905,151.530718463835L63.6699636518995,155.18048055521035L63.893367817008496,156.66446344164558L64.1167719821175,151.81254636640756L64.3401761472265,153.75385712746797L64.56358031233549,153.63203949980792L64.78698447744449,156.1350559031577L65.01038864255348,154.1360126853885L65.23379280766248,157.5822294656914L65.45719697277148,155.07533329557594L65.68060113788049,154.0634807247189L65.90400530298949,154.78511734313003L66.12740946809848,153.82919391573876L66.35081363320748,155.9735830061034L66.57421779831648,158.37160193642367L66.79762196342548,152.42802246285714L67.02102612853447,157.68522097301243L67.24443029364348,156.66423729324214L67.46783445875246,155.1608173920794L67.69123862386147,155.19040758902406L67.91464278897047,157.46647672703293L68.13804695407947,155.97012616622212L68.36145111918847,156.1591098697063L68.58485528429748,155.53551298967835L68.80825944940646,158.3186802730245L69.03166361451547,159.00146929491083L69.25506777962447,156.48746266655192L69.47847194473346,155.5695292339477L69.70187610984246,155.91431450244644L69.92528027495146,154.387571945806L70.14868444006045,156.53697448194583L70.37208860516945,157.8886106234955L70.59549277027845,154.98754953413874L70.81889693538744,157.09099107851802L71.04230110049646,154.85612794181276L71.26570526560546,155.82001649219305L71.48910943071445,161.4476196542663L71.71251359582345,155.96261334004004L71.93591776093244,158.26138836515355L72.15932192604144,157.91528145014112L72.38272609115045,157.34109359077826L72.60613025625943,161.22851122124746L72.82953442136844,155.15274947436157L73.05293858647744,153.52335610150138L73.27634275158643,157.1719316480067L73.49974691669543,155.12041612665297L73.72315108180445,151.60215492639438L73.94655524691343,157.70303089403205L74.16995941202244,156.56669684354188L74.39336357713144,158.71798199171556L74.61676774224043,157.87342343655743L74.84017190734943,159.39951104392554L75.06357607245843,159.48513905304935L75.28698023756742,156.3646523355105L75.51038440267642,154.54655721042238L75.73378856778542,154.93174961833208L75.95719273289441,156.00879460621954L76.18059689800342,154.9187857345292L76.40400106311243,157.79103492988818L76.62740522822142,160.56372889886168L76.85080939333042,158.3247569099951L77.07421355843941,155.0419631896022L77.29761772354841,157.26429711735793L77.52102188865742,157.91688798490327L77.7444260537664,157.95360038806047L77.9678302188754,159.11200006134425L78.19123438398441,158.17647698213935L78.4146385490934,158.13331200700327L78.6380427142024,157.93928548782142L78.8614468793114,159.08628375718072L79.08485104442039,160.81076519121024L79.3082552095294,156.90721759928988L79.53165937463841,153.72904541691818L79.7550635397474,159.27361980801118L79.9784677048564,155.2075772457326L80.2018718699654,156.47111536767406L80.42527603507439,154.94394988414925L80.64868020018339,158.82228339758126L80.8720843652924,156.57296732200112L81.09548853040138,153.01357648223748L81.31889269551039,150.71806151852434L81.54229686061939,152.14783633895377L81.76570102572838,149.4825070587654L81.98910519083738,152.0993935887398L82.2125093559464,152.04500342921438L82.43591352105538,154.17097170417088L82.65931768616439,157.28294408116952L82.88272185127337,153.6709311512165L83.10612601638238,153.99311332733944L83.32953018149138,154.73223386063015L83.55293434660037,152.78618573106638L83.77633851170937,156.9336798994856L83.99974267681837,153.7631174640403L84.22314684192736,158.2573294418605L84.44655100703636,151.68178559733843L84.66995517214536,156.22109802818915L84.89335933725437,159.5755103046611L85.11676350236337,152.19257554193723L85.34016766747237,161.78349702526302L85.56357183258136,157.6604210104317L85.78697599769036,158.21608819664982L86.01038016279936,161.48257573605645L86.23378432790835,159.5192669030243L86.45718849301736,156.85471592578287L86.68059265812636,161.1491360686294L86.90399682323535,159.42596453314448L87.12740098834435,160.12848720597586L87.35080515345335,158.14414950841527L87.57420931856234,160.91889349798103L87.79761348367136,156.78932085628702L88.02101764878036,159.43564192261672L88.24442181388935,158.9932604015649L88.46782597899835,159.42836992979935L88.69123014410734,158.9337657495045L88.91463430921634,161.63556953647756L89.13803847432534,157.45666717290933L89.36144263943433,157.39018541628005L89.58484680454333,155.6739598674725L89.80825096965233,161.4781379407628L90.03165513476132,159.5101681010258L90.25505929987033,161.68200632098302L90.47846346497934,162.732277687496L90.70186763008833,160.92057345754952L90.92527179519733,158.44292091929293L91.14867596030633,161.68644705326892L91.37208012541532,159.85643948760438L91.59548429052433,156.58677705957274L91.81888845563333,162.71649722812293L92.04229262074232,162.70501946239986L92.26569678585132,165.78935767929406L92.48910095096032,161.59020181715206L92.71250511606931,163.3227335469459L92.93590928117831,164.00989868728857L93.15931344628733,161.5873823045896L93.38271761139632,159.43975077477808L93.60612177650532,163.01902505209165L93.8295259416143,162.46208027424365L94.05293010672331,162.3575027911062L94.27633427183231,161.1098479232667L94.4997384369413,162.10413140646887L94.7231426020503,163.01884295857198L94.9465467671593,162.87037800020434L95.16995093226829,163.6861129133957L95.3933550973773,158.60250533032885L95.6167592624863,160.0506099194066L95.84016342759529,161.455837358589L96.0635675927043,164.77797796418966L96.2869717578133,160.66390970459702L96.5103759229223,164.2950218951685L96.7337800880313,164.0665973227245L96.9571842531403,161.0199084095161L97.18058841824929,163.25054815136212L97.40399258335829,163.6250939623562L97.62739674846729,159.79072722294526L97.85080091357628,162.12364478299494L98.07420507868528,163.8676160976126L98.29760924379428,162.08732887379188L98.52101340890327,164.2637370536941L98.74441757401227,164.01008371780048L98.96782173912129,160.1179375298046L99.19122590423028,162.51278157149986L99.41463006933928,159.88535123933872L99.63803423444827,162.96212963817476L99.86143839955727,162.48121771576143L100.08484256466627,164.82933714771045L100.30824672977526,162.51187697788606L100.53165089488427,162.4429956985864L100.75505505999327,161.9282496254234L100.97845922510226,164.07320849228506L101.20186339021126,163.96541500263106L101.42526755532026,164.9696519525772L101.64867172042926,165.07261262147958L101.87207588553827,162.4307161339784L102.09548005064727,164.9192252640966L102.31888421575626,163.91831445787653L102.54228838086526,166.25518520949817L102.76569254597426,164.63324151748665L102.98909671108325,163.46982986692385L103.21250087619225,160.8236556502068L103.43590504130125,163.8623383225347L103.65930920641024,166.7626578213477L103.88271337151924,165.7557188385292L104.10611753662825,164.53982607340515L104.32952170173724,162.83446152194762L104.55292586684625,166.80955865062904L104.77633003195525,164.1382070678268L104.99973419706424,164.77085575797716L105.22313836217324,164.81774483928953L105.44654252728223,162.15581072214516L105.66994669239124,161.77078572279385L105.89335085750024,162.05471357482702L106.11675502260923,163.15657614724873L106.34015918771823,163.26570303138539L106.56356335282723,162.34608963921272L106.78696751793622,163.9087104932106L107.01037168304522,157.9338491151619L107.23377584815424,164.50660869102853L107.45718001326323,163.5688828676342L107.68058417837223,163.13468087000578L107.90398834348123,163.74739619373793L108.12739250859022,165.28396005247097L108.35079667369922,163.94760801860372L108.57420083880822,164.73695699339794L108.79760500391721,162.431979040647L109.02100916902621,162.88466353052087L109.24441333413522,164.19954027703733L109.4678174992442,162.62453412671033L109.69122166435321,160.53512553131384L109.91462582946222,163.23116106550287L110.13802999457121,163.69813108569323L110.36143415968021,161.52431039596553L110.5848383247892,166.36958693172048L110.8082424898982,167.04501144553348L111.03164665500721,164.5628902735646L111.2550508201162,161.5286101526233L111.4784549852252,166.68057182488047L111.7018591503342,166.32768926874138L111.92526331544319,164.24438227474963L112.14866748055219,166.01621242937904L112.3720716456612,164.82286989077028L112.59547581077018,164.70012123656616L112.8188799758792,164.33474765237685L113.0422841409882,162.09497092763306L113.26568830609719,163.8324397414035L113.48909247120619,164.5937609991314L113.7124966363152,163.37512948873183L113.93590080142418,162.59108472194575L114.15930496653318,162.28789313772793L114.38270913164219,164.65435996027878L114.60611329675118,164.76241777923553L114.82951746186018,165.43276570193993L115.05292162696918,162.06218234612533L115.27632579207817,164.9492721633366L115.49972995718717,163.73180663886126L115.72313412229619,164.1830196956166L115.94653828740518,165.5188592243358L116.16994245251418,161.64097360222232L116.39334661762317,161.77719423988898L116.61675078273217,160.25203472207266L116.84015494784117,161.95976648928578L117.06355911295016,158.4252049820254L117.28696327805916,161.05904970526615L117.51036744316816,162.22233359666598L117.73377160827715,158.93623282299666L117.95717577338615,157.17844295983068L118.18057993849516,156.31552526610167L118.40398410360416,153.9451962987387L118.62738826871316,159.29719210783034L118.85079243382216,161.42928401163348L119.07419659893115,151.75693735509734L119.29760076404015,152.73744928162716L119.52100492914916,157.70674618923155L119.74440909425815,158.00817851509007L119.96781325936715,159.39471787256934L120.19121742447615,154.3875278909222L120.41462158958514,157.06849665485552L120.63802575469414,154.84421550123633L120.86142991980314,156.00700597793772L121.08483408491213,159.74365604811325L121.30823825002115,157.05414063672492L121.53164241513015,155.99793654586176L121.75504658023914,156.8925943148643L121.97845074534814,156.9624888564911L122.20185491045713,156.29886077206058L122.42525907556613,155.64376758711603L122.64866324067513,158.0989638826094L122.87206740578412,161.994514044626L123.09547157089312,159.05092237045972L123.31887573600213,159.60878348989053L123.54227990111112,160.55143758628466L123.76568406622012,159.99901283951337L123.98908823132913,160.8422086302663L124.21249239643812,161.96543488433326L124.43589656154712,159.2039925326794L124.65930072665613,161.79649908996515L124.88270489176512,164.89005505704404L125.10610905687412,161.6556262565704L125.32951322198312,165.20549683594732L125.55291738709211,163.84146511859566L125.77632155220111,163.38524742704195L125.99972571731011,158.97703645636167L126.2231298824191,160.8933064214766L126.4465340475281,156.12262361495257L126.66993821263712,159.38053807397392L126.89334237774611,161.27140893008857L127.11674654285511,160.12743576274943L127.3401507079641,160.76905109024693L127.5635548730731,160.685572959452L127.7869590381821,162.24770333574372L128.0103632032911,161.736716612664L128.2337673684001,157.9685291196803L128.4571715335091,156.64751993334048L128.6805756986181,157.63992080450873L128.9039798637271,159.05985376389978L129.1273840288361,158.7745778324227L129.35078819394508,158.3681509705269L129.57419235905408,160.7686487223083L129.79759652416308,159.51425933123366L130.02100068927209,161.63643594919208L130.2444048543811,162.8637433347058L130.4678090194901,158.6311321938147L130.69121318459906,162.82231999597545L130.9146173497081,160.64654326940754L131.1380215148171,164.78665971328826L131.36142567992607,163.74668837860509L131.58482984503507,160.11535297662235L131.80823401014408,163.87205682989847L132.03163817525308,162.06993894266438L132.25504234036208,162.4275999851984L132.47844650547108,162.4579538001288L132.70185067058006,163.01578261264478L132.92525483568906,163.48064387239785L133.14865900079806,160.39744520849766L133.37206316590706,159.8640345495695L133.59546733101607,163.35582170166342L133.81887149612507,162.64470245250874L134.04227566123407,164.09833446100583L134.26567982634307,162.3964326234141L134.48908399145208,163.20412311482565L134.71248815656108,164.8512603263798L134.93589232167005,159.94161813691355L135.15929648677906,162.09495330567955L135.38270065188806,163.51572037087033L135.60610481699706,162.5352084443405L135.82950898210606,161.42465531184342L136.05291314721504,158.23670881925517L136.27631731232404,162.0217693327299L136.49972147743304,163.49296455489738L136.72312564254204,164.68404267247945L136.94652980765105,162.59307893968526L137.16993397276005,165.86762852282516L137.39333813786902,164.65574915761425L137.61674230297803,163.20775323724985L137.84014646808703,162.52319027204297L138.06355063319603,163.0843936886572L138.28695479830503,165.43387441651527L138.51035896341403,162.86165219622194L138.733763128523,162.68679836246488L138.957167293632,163.59207629545276L139.180571458741,161.89300865538476L139.40397562385004,166.02638470204585L139.62737978895905,163.30732314859665L139.85078395406805,164.82078462627095L140.07418811917702,165.00858031638896L140.29759228428603,164.2767420553885L140.52099644939503,162.6228806000721L140.74440061450403,164.21474802292116L140.96780477961303,166.37759757808936L141.19120894472204,163.3691292135598L141.414613109831,163.08857890261712L141.63801727494,161.68979522443686L141.861421440049,162.7288531545295L142.08482560515802,160.32801471164677L142.30822977026702,162.6162988004341L142.531633935376,160.14434109015525L142.755038100485,161.42039373608492L142.978442265594,160.19597928794002L143.201846430703,162.98570487498617L143.425250595812,162.31497808028118L143.648654760921,161.76752859838575L143.87205892602998,158.66943938376502L144.09546309113898,158.1553247639363L144.31886725624798,159.27177831386882L144.542271421357,160.8613754417066L144.765675586466,161.73323921383695L144.98907975157502,161.34354733379632L145.212483916684,158.71649587363575L145.435888081793,165.18703637114376L145.659292246902,159.5769699898106L145.882696412011,162.39845327408386L146.10610057712,159.69659074726573L146.329504742229,161.88908483373532L146.55290890733798,163.88938214719641L146.77631307244698,162.28088253722103L146.99971723755598,159.47071548409698L147.223121402665,157.23571137176364L147.446525567774,160.4760361841843L147.66992973288296,159.5410652595229L147.89333389799197,159.34161998963506L148.11673806310097,158.94100543540708L148.34014222820997,160.56826361489965L148.56354639331897,159.31633248634037L148.78695055842798,160.8294033440451L149.01035472353695,158.85209680593715L149.23375888864595,160.97876114805752L149.45716305375495,161.24024450529652L149.68056721886396,159.1446212342936L149.90397138397296,163.13812596191806L150.12737554908196,162.68883076110367L150.35077971419094,162.8302498750574L150.57418387929997,162.13686418512378L150.79758804440897,161.19640989592682L151.02099220951797,163.3032495403423L151.24439637462697,160.0182148948607L151.46780053973598,158.6155808198373L151.69120470484495,162.65872952750706L151.91460886995395,164.32777816976147L152.13801303506295,162.87533564312668L152.36141720017196,164.0155817672973L152.58482136528096,162.7632365228304L152.80822553038993,158.66254626294824L153.03162969549894,160.23998717985262L153.25503386060794,162.48779951539944L153.47843802571694,163.47333957266568L153.70184219082594,161.32130255447532L153.92524635593495,162.96818277920732L154.14865052104392,159.75323357984888L154.37205468615292,158.7131007105918L154.59545885126192,156.95272629424355L154.81886301637093,160.30128808214835L155.04226718147993,163.9218036046726L155.26567134658893,161.2967111183445L155.4890755116979,157.87319435116171L155.7124796768069,160.3753649007428L155.9358838419159,161.83522333281536L156.15928800702494,159.6166370071739L156.38269217213394,163.63907404547848L156.60609633724295,161.54709558186102L156.82950050235192,161.37647395393992L157.05290466746092,160.6775285376722L157.27630883256992,159.17875789524527L157.49971299767893,157.27672646857084L157.72311716278793,160.14422067347292L157.94652132789693,161.65655140912997L158.1699254930059,161.79289246347898L158.3933296581149,160.04350239815537L158.6167338232239,159.86127671384438L158.8401379883329,158.8500497223371L159.06354215344192,159.68112454606367L159.2869463185509,160.4985775997228L159.5103504836599,158.4855983537151L159.7337546487689,155.52659921819182L159.9571588138779,157.62962664666344L160.1805629789869,156.388356799981L160.4039671440959,158.3096460848556L160.62737130920488,155.96809964156785L160.85077547431388,160.92440916943136L161.07417963942288,158.3427224916041L161.29758380453188,159.85045683438588L161.52098796964088,156.73142980199654L161.74439213474992,161.106769955386L161.9677962998589,161.90442768126277L162.1912004649679,159.60258643623757L162.4146046300769,160.04294143263513L162.6380087951859,162.62911583462432L162.8614129602949,162.11645208896837L163.0848171254039,161.51492083173406L163.30822129051288,162.89004997431206L163.53162545562188,159.78719402126544L163.75502962073088,158.64800227731348L163.97843378583988,160.08455567586185L164.20183795094889,161.60502775404305L164.42524211605786,159.7750994871693L164.64864628116686,162.435095189427L164.87205044627586,161.9245725111232L165.09545461138487,158.59667833769973L165.31885877649387,158.30522297452322L165.54226294160287,160.40400351219765L165.76566710671185,158.1968185904807L165.98907127182085,158.40377962354287L166.21247543692985,160.77083971852875L166.43587960203885,155.81864491681108L166.65928376714785,159.8487151979801L166.88268793225686,158.73924287863198L167.10609209736583,161.71190490211424L167.32949626247486,162.7222713548915L167.55290042758386,163.33901329500193L167.77630459269287,164.61852131231674L167.99970875780187,161.58184901118574L168.22311292291087,163.32384666700963L168.44651708801985,160.96800294543635L168.66992125312885,160.54751670162744L168.89332541823785,163.4782560976965L169.11672958334685,162.59955500760216L169.34013374845586,161.77394592645763L169.56353791356483,158.17316405487844L169.78694207867383,164.07228627671776L170.01034624378283,159.95826500900114L170.23375040889184,160.74668002025908L170.45715457400084,161.57405717073965L170.68055873910984,161.22409692189186L170.90396290421882,161.13513542656136L171.12736706932782,158.02831159698147L171.35077123443682,159.35673081477455L171.57417539954582,160.77452858079798L171.79757956465482,164.07442147008538L172.02098372976383,163.16561620940215L172.2443878948728,162.87075393521266L172.4677920599818,162.6996565145467L172.6911962250908,165.01617537835412L172.91460039019984,161.65320617495428L173.13800455530884,162.22423089366114L173.36140872041784,165.21811268616827L173.58481288552682,161.29999173869064L173.80821705063582,164.56054655374703L174.03162121574482,163.75218349110963L174.25502538085382,163.1045708254324L174.47842954596283,164.25368960319804L174.70183371107183,161.89889145086667L174.9252378761808,162.4027853376564L175.1486420412898,160.94770539197881L175.3720462063988,160.97672874941875L175.5954503715078,159.60606383506462L175.8188545366168,158.46652552602689L176.04225870172579,160.08985107289325L176.2656628668348,160.5074531903101L176.4890670319438,164.43311633389231L176.7124711970528,160.19181169593364L176.9358753621618,154.27303218494785L177.1592795272708,162.36624328004987L177.38268369237977,157.1434633821025L177.60608785748877,155.66334851446393L177.82949202259778,161.20194318933068L178.05289618770678,161.9060665229397L178.27630035281578,159.1925353259021L178.4997045179248,161.18525226235928L178.7231086830338,156.5281693791726L178.9465128481428,161.6934224098688L179.1699170132518,157.94397880144103L179.3933211783608,157.37451949960482L179.6167253434698,156.82930800580584L179.8401295085788,162.0382664182126L180.06353367368777,162.66942311629867L180.28693783879677,159.8093095729273L180.51034200390578,163.17180738907058L180.73374616901478,158.05460942561103L180.95715033412378,160.7839651369055L181.18055449923276,164.0512280422668L181.40395866434176,162.44284297498928L181.62736282945076,162.49746809389492L181.85076699455976,161.43644439874524L182.07417115966877,162.0700241154397L182.29757532477777,165.00487823765457L182.52097948988674,160.1927867773615L182.74438365499574,161.7239906252336L182.96778782010475,159.35704213595332L183.19119198521375,161.53688953378332L183.41459615032275,159.6156208078545L183.63800031543175,161.98557384020916L183.86140448054073,161.57936431574007L184.08480864564976,159.4002864098802L184.30821281075876,157.8812270249725L184.53161697586776,160.32257246500276L184.75502114097677,154.18361839281044L184.97842530608577,160.39025545146336L185.20182947119474,156.0285341311491L185.42523363630374,152.3278416571218L185.64863780141275,155.41247651023352L185.87204196652175,152.30271862539328L186.09544613163075,156.10557143793412L186.31885029673973,158.01851966481138L186.54225446184873,154.64902593312246L186.76565862695773,155.05151428840756L186.98906279206673,160.94036878533186L187.21246695717574,155.72732207970952L187.43587112228474,158.06069487355836L187.6592752873937,157.11945053344544L187.8826794525027,158.27672533869648L188.10608361761172,158.4884971650684L188.32948778272072,159.49120100505868L188.55289194782972,158.79726609757384L188.77629611293872,158.72341542738283L188.9997002780477,163.70627536520962L189.2231044431567,163.301466786045L189.4465086082657,160.3504885763635L189.66991277337473,155.67317569054103L189.89331693848374,157.3308846057083L190.11672110359274,153.50073538717206L190.3401252687017,152.22848614620946L190.56352943381071,151.4912952168287L190.78693359891972,145.14396448130844L191.01033776402872,147.51478686336986L191.23374192913772,136.90537814368847L191.45714609424672,134.56194615137457L191.6805502593557,131.12380903675847L191.9039544244647,126.6979731755705L192.1273585895737,127.53832889481521L192.3507627546827,130.54315392045544L192.5741669197917,126.96487528351548L192.79757108490068,118.83002938624095L193.02097525000968,118.82511286121014L193.2443794151187,118.56486597770949L193.4677835802277,112.76573953109359L193.6911877453367,115.8808427418335L193.9145919104457,119.98621750435854L194.13799607555467,120.02798153419015L194.36140024066367,129.53967765150273L194.58480440577267,140.1285098034626L194.80820857088167,132.5848158328018L195.03161273599068,139.62097404627966L195.2550169010997,134.15741658647394L195.47842106620868,143.73424050698736L195.70182523131768,143.19289409499277L195.9252293964267,144.49971760875266L196.1486335615357,142.48322865700314L196.3720377266447,144.05565319114012L196.5954418917537,149.69278983006524L196.81884605686267,146.2796318345573L197.04225022197167,146.82069042131113L197.26565438708067,150.11109388863048L197.48905855218968,148.32784911361142L197.71246271729868,137.27608530580846L197.93586688240765,143.3219396605864L198.15927104751665,145.6553036434585L198.38267521262566,146.39780171783966L198.60607937773466,152.23460683806383L198.82948354284366,144.84780993052783L199.05288770795266,147.46707248723453L199.27629187306164,146.79092694182356L199.49969603817064,142.87153427670054L199.72310020327964,149.5307882744055L199.94650436838864,151.2530229093618L200.16990853349765,141.36980020909078L200.39331269860665,146.17332152599087L200.61671686371562,148.43794520519143L200.84012102882465,142.87587515124986L201.06352519393366,144.0288325778896L201.28692935904266,151.19382489351892L201.51033352415166,151.54217273362005L201.73373768926066,146.80274539864791L201.95714185436964,151.13028012914222L202.18054601947864,145.53192647291232L202.40395018458764,151.4524035654201L202.62735434969665,151.14077106546839L202.85075851480565,151.7333621182859L203.07416267991462,150.66082247651389L203.29756684502362,147.48233309897893L203.52097101013263,147.3052559620867L203.74437517524163,143.6133832757939L203.96777934035063,147.99374568593527L204.19118350545963,146.5249705453839L204.4145876705686,145.546922755354L204.6379918356776,146.6134033821089L204.8613960007866,148.5918347882496L205.08480016589562,148.81657343541661L205.30820433100462,147.89473967710097L205.53160849611362,141.7751374468609L205.7550126612226,149.8466999720692L205.9784168263316,146.72389009365853L206.2018209914406,149.80086820796774L206.42522515654963,146.9106886749068L206.64862932165863,152.9263742452663L206.87203348676763,149.42668071002848L207.0954376518766,147.6608317401214L207.3188418169856,149.4728766611692L207.5422459820946,151.58502638757736L207.76565014720362,151.93798530551504L207.98905431231262,151.08732368045605L208.21245847742162,148.94125756751515L208.4358626425306,153.3182013186745L208.6592668076396,146.9100190406732L208.8826709727486,151.59226901047222L209.1060751378576,152.90625584833614L209.3294793029666,152.20475524880865L209.55288346807558,149.08806606225238L209.77628763318458,153.56774286541454L209.99969179829358,154.8359243721073L210.22309596340259,151.78933237964324L210.4465001285116,155.6493860532952L210.6699042936206,154.67789069298078L210.89330845872956,157.93894773371238L211.11671262383857,149.8926492158607L211.34011678894757,159.06266152849327L211.56352095405657,157.6776259110473L211.78692511916557,154.93754724103866L212.0103292842746,158.10405369018312L212.23373344938358,155.4290117766155L212.45713761449258,153.22448776987937L212.68054177960158,157.33847966767348L212.90394594471059,154.6862934278154L213.1273501098196,154.31243193601614L213.3507542749286,154.12194155550637L213.57415844003756,151.35188206858348L213.79756260514657,155.42378099341366L214.02096677025557,152.50263381404156L214.24437093536457,153.43231521565608L214.46777510047357,154.92272130414767L214.69117926558255,145.21091028271366L214.91458343069155,155.82796693022075L215.13798759580055,155.07518057197882L215.36139176090956,152.20847348100042L215.58479592601856,151.921972823754L215.80820009112756,149.27858287569236L216.03160425623653,150.64249858185008L216.25500842134554,152.4627112783523L216.47841258645454,153.2852012737246L216.70181675156354,151.84650974481633L216.92522091667254,156.63894978994747L217.14862508178155,155.1965253438862L217.37202924689052,157.48391952402096L217.59543341199955,155.0884205330534L217.81883757710855,154.36474857901123L218.04224174221756,156.4255038779916L218.26564590732656,151.37728117758374L218.48905007243556,153.52055714788466L218.71245423754453,151.3244446869599L218.93585840265354,149.4947572534509L219.15926256776254,153.5424847320424L219.38266673287154,151.45314075047548L219.60607089798054,150.52188805800586L219.82947506308952,154.87356192782406L220.05287922819852,153.9067628181215L220.27628339330752,156.27322964067233L220.49968755841653,155.88688593179964L220.72309172352553,157.5369410451567L220.94649588863453,156.1441664531252L221.1699000537435,157.39772761238464L221.3933042188525,153.83848655922588L221.6167083839615,155.9596880957565L221.8401125490705,152.67030670174103L222.0635167141795,152.99141393869954L222.28692087928852,155.7408351810636L222.5103250443975,155.095624975049L222.7337292095065,154.56507494657487L222.9571333746155,154.43091901446175L223.18053753972453,156.88841791188116L223.40394170483353,158.8965540576644L223.62734586994253,154.8302765360056L223.8507500350515,141.56679309044773L224.0741542001605,156.36819141117485L224.2975583652695,155.85185348821093L224.5209625303785,145.03596540219678L224.7443666954875,150.53785354789085L224.96777086059652,148.1104353251223L225.1911750257055,152.3073737581136L225.4145791908145,138.30625296035257L225.6379833559235,152.0014478341087L225.8613875210325,150.69799892444698L226.0847916861415,152.53795114587876L226.30819585125047,147.67598955713694L226.53160001635948,153.91551799202642L226.75500418146848,153.96043341454507L226.97840834657748,151.26928797245657L227.20181251168648,150.0296305345208L227.4252166767955,147.88238375069437L227.64862084190446,151.25330779761032L227.87202500701346,151.20104989446023L228.09542917212246,143.26028631922034L228.31883333723147,145.09503419038057L228.54223750234047,145.47141562153251L228.7656416674495,144.78736075598533L228.98904583255847,141.9309184529297L229.21244999766748,142.69215747487456L229.43585416277648,148.32670662362517L229.65925832788548,149.82981226661687L229.88266249299448,145.83683326060563L230.1060666581035,147.2213901483144L230.32947082321246,150.4011864874018L230.55287498832146,148.72062483551724L230.77627915343047,150.21132168624183L230.99968331853947,147.875390772141L231.22308748364847,144.9539763264739L231.44649164875744,153.0933011369336L231.66989581386645,149.00819162095132L231.89329997897545,152.37508905148897L232.11670414408445,148.04848534753876L232.34010830919345,151.6654030545536L232.56351247430246,151.27947639858075L232.78691663941143,144.72269993455265L233.01032080452043,151.53858079209516L233.23372496962944,148.93386515801544L233.45712913473844,153.04550746200746L233.68053329984744,152.39885812978906L233.90393746495644,146.95747202449806L234.12734163006542,150.28700210260618L234.35074579517445,150.39685442382924L234.57414996028345,152.49543230903822L234.79755412539245,148.4669538776701L235.02095829050145,149.32954556525905L235.24436245561046,151.8299039906203L235.46776662071943,150.15174479839837L235.69117078582843,149.2317584082096L235.91457495093744,146.96186870190016L236.13797911604644,154.50231729612184L236.36138328115544,152.96452283763497L236.58478744626441,152.18590269553937L236.80819161137342,147.67141959719194L237.03159577648242,147.70988832171616L237.25499994159142,153.2467501711539L237.47840410670042,152.7391498001414L237.70180827180943,151.9773997415446L237.9252124369184,147.31262193865615L238.1486166020274,151.86300095631455L238.3720207671364,153.308485748303L238.5954249322454,154.84286448480015L238.8188290973544,154.53076794007254L239.0422332624634,154.3173014691709L239.2656374275724,154.33848599428873L239.4890415926814,151.34731210863848L239.7124457577904,149.7497733537497L239.93584992289942,154.21449205536953L240.15925408800842,148.63479711092026L240.38265825311743,148.4399159269929L240.6060624182264,150.11833063754082L240.8294665833354,152.50645484096216L241.0528707484444,153.03983025598325L241.2762749135534,152.45460811672746L241.4996790786624,152.59615352134804L241.7230832437714,154.81795585350605L241.9464874088804,150.87020065419995L242.1698915739894,155.07919250339583L242.3932957390984,156.05156602439376L242.6166999042074,156.48101303156525L242.8401040693164,155.63242198604433L243.06350823442537,151.75079610429717L243.28691239953437,152.825403388615L243.51031656464338,153.9189748319077L243.73372072975238,151.7002240347001L243.95712489486138,157.7664493677419L244.18052905997038,155.976252732061L244.40393322507936,160.98135451221654L244.62733739018836,162.21801915504693L244.85074155529736,161.62565425063286L245.07414572040636,163.85640853517674L245.29754988551537,161.17353660026376L245.5209540506244,163.6021942337629L245.74435821573337,164.88794335961444" fill="none"></path></g></g></g></g></g></g><g transform="translate(61, 176)" clip-path="url(#clip_1)"><clipPath id="clip_1"><rect width="268" height="23"></rect></clipPath><g><g><line x1="0" y1="0" x2="0" y2="5" style="visibility: inherit;" fill="rgb(0, 0, 0)" stroke="rgb(204, 204, 204)" stroke-width="1px"></line><line x1="22.34041651089986" y1="0" x2="22.34041651089986" y2="5" style="visibility: inherit;" fill="rgb(0, 0, 0)" stroke="rgb(204, 204, 204)" stroke-width="1px"></line><line x1="44.68083302179972" y1="0" x2="44.68083302179972" y2="5" style="visibility: inherit;" fill="rgb(0, 0, 0)" stroke="rgb(204, 204, 204)" stroke-width="1px"></line><line x1="67.02124953269958" y1="0" x2="67.02124953269958" y2="5" style="visibility: inherit;" fill="rgb(0, 0, 0)" stroke="rgb(204, 204, 204)" stroke-width="1px"></line><line x1="89.36166604359944" y1="0" x2="89.36166604359944" y2="5" style="visibility: inherit;" fill="rgb(0, 0, 0)" stroke="rgb(204, 204, 204)" stroke-width="1px"></line><line x1="111.70208255449931" y1="0" x2="111.70208255449931" y2="5" style="visibility: inherit;" fill="rgb(0, 0, 0)" stroke="rgb(204, 204, 204)" stroke-width="1px"></line><line x1="134.04249906539917" y1="0" x2="134.04249906539917" y2="5" style="visibility: inherit;" fill="rgb(0, 0, 0)" stroke="rgb(204, 204, 204)" stroke-width="1px"></line><line x1="156.38291557629904" y1="0" x2="156.38291557629904" y2="5" style="visibility: inherit;" fill="rgb(0, 0, 0)" stroke="rgb(204, 204, 204)" stroke-width="1px"></line><line x1="178.72333208719888" y1="0" x2="178.72333208719888" y2="5" style="visibility: inherit;" fill="rgb(0, 0, 0)" stroke="rgb(204, 204, 204)" stroke-width="1px"></line><line x1="201.06374859809875" y1="0" x2="201.06374859809875" y2="5" style="visibility: inherit;" fill="rgb(0, 0, 0)" stroke="rgb(204, 204, 204)" stroke-width="1px"></line><line x1="223.40416510899863" y1="0" x2="223.40416510899863" y2="5" style="visibility: inherit;" fill="rgb(0, 0, 0)" stroke="rgb(204, 204, 204)" stroke-width="1px"></line><line x1="245.74458161989847" y1="0" x2="245.74458161989847" y2="5" style="visibility: inherit;" fill="rgb(0, 0, 0)" stroke="rgb(204, 204, 204)" stroke-width="1px"></line><line x1="268.08499813079834" y1="0" x2="268.08499813079834" y2="5" style="visibility: inherit;" fill="rgb(0, 0, 0)" stroke="rgb(204, 204, 204)" stroke-width="1px"></line></g><g transform="translate(0, 8)"><text style="text-anchor: middle; visibility: hidden; font-family: Roboto, sans-serif; font-size: 12px; font-weight: 200;" x="0" y="0" dx="0em" dy="0.95em" fill="rgb(33, 33, 33)" stroke="none" stroke-width="1px">-100k</text><text style="text-anchor: middle; visibility: inherit; font-family: Roboto, sans-serif; font-size: 12px; font-weight: 200;" x="22.34041651089986" y="0" dx="0em" dy="0.95em" fill="rgb(33, 33, 33)" stroke="none" stroke-width="1px">0</text><text style="text-anchor: middle; visibility: hidden; font-family: Roboto, sans-serif; font-size: 12px; font-weight: 200;" x="44.68083302179972" y="0" dx="0em" dy="0.95em" fill="rgb(33, 33, 33)" stroke="none" stroke-width="1px">100k</text><text style="text-anchor: middle; visibility: inherit; font-family: Roboto, sans-serif; font-size: 12px; font-weight: 200;" x="67.02124953269958" y="0" dx="0em" dy="0.95em" fill="rgb(33, 33, 33)" stroke="none" stroke-width="1px">200k</text><text style="text-anchor: middle; visibility: hidden; font-family: Roboto, sans-serif; font-size: 12px; font-weight: 200;" x="89.36166604359944" y="0" dx="0em" dy="0.95em" fill="rgb(33, 33, 33)" stroke="none" stroke-width="1px">300k</text><text style="text-anchor: middle; visibility: inherit; font-family: Roboto, sans-serif; font-size: 12px; font-weight: 200;" x="111.70208255449931" y="0" dx="0em" dy="0.95em" fill="rgb(33, 33, 33)" stroke="none" stroke-width="1px">400k</text><text style="text-anchor: middle; visibility: hidden; font-family: Roboto, sans-serif; font-size: 12px; font-weight: 200;" x="134.04249906539917" y="0" dx="0em" dy="0.95em" fill="rgb(33, 33, 33)" stroke="none" stroke-width="1px">500k</text><text style="text-anchor: middle; visibility: inherit; font-family: Roboto, sans-serif; font-size: 12px; font-weight: 200;" x="156.38291557629904" y="0" dx="0em" dy="0.95em" fill="rgb(33, 33, 33)" stroke="none" stroke-width="1px">600k</text><text style="text-anchor: middle; visibility: hidden; font-family: Roboto, sans-serif; font-size: 12px; font-weight: 200;" x="178.72333208719888" y="0" dx="0em" dy="0.95em" fill="rgb(33, 33, 33)" stroke="none" stroke-width="1px">700k</text><text style="text-anchor: middle; visibility: inherit; font-family: Roboto, sans-serif; font-size: 12px; font-weight: 200;" x="201.06374859809875" y="0" dx="0em" dy="0.95em" fill="rgb(33, 33, 33)" stroke="none" stroke-width="1px">800k</text><text style="text-anchor: middle; visibility: hidden; font-family: Roboto, sans-serif; font-size: 12px; font-weight: 200;" x="223.40416510899863" y="0" dx="0em" dy="0.95em" fill="rgb(33, 33, 33)" stroke="none" stroke-width="1px">900k</text><text style="text-anchor: middle; visibility: inherit; font-family: Roboto, sans-serif; font-size: 12px; font-weight: 200;" x="245.74458161989847" y="0" dx="0em" dy="0.95em" fill="rgb(33, 33, 33)" stroke="none" stroke-width="1px">1M</text><text style="text-anchor: middle; visibility: hidden; font-family: Roboto, sans-serif; font-size: 12px; font-weight: 200;" x="268.08499813079834" y="0" dx="0em" dy="0.95em" fill="rgb(33, 33, 33)" stroke="none" stroke-width="1px">1.1M</text></g><line x1="0" y1="0" x2="268.08499813079834" y2="0" fill="rgb(0, 0, 0)" stroke="rgb(204, 204, 204)" stroke-width="1px"></line></g></g></g></g></svg>