<svg viewBox="0 0 330 200" xmlns="http://www.w3.org/2000/svg"><g><g><g><g><g><line x1="30.766000747680664" y1="176.5999994277954" x2="25.766000747680664" y2="176.5999994277954" style="visibility: inherit;" fill="rgb(0, 0, 0)" stroke="rgb(204, 204, 204)" stroke-width="1px"></line><line x1="30.766000747680664" y1="163.01538408719577" x2="25.766000747680664" y2="163.01538408719577" style="visibility: inherit;" fill="rgb(0, 0, 0)" stroke="rgb(204, 204, 204)" stroke-width="1px"></line><line x1="30.766000747680664" y1="149.4307687465961" x2="25.766000747680664" y2="149.4307687465961" style="visibility: inherit;" fill="rgb(0, 0, 0)" stroke="rgb(204, 204, 204)" stroke-width="1px"></line><line x1="30.766000747680664" y1="135.84615340599646" x2="25.766000747680664" y2="135.84615340599646" style="visibility: inherit;" fill="rgb(0, 0, 0)" stroke="rgb(204, 204, 204)" stroke-width="1px"></line><line x1="30.766000747680664" y1="122.26153806539682" x2="25.766000747680664" y2="122.26153806539682" style="visibility: inherit;" fill="rgb(0, 0, 0)" stroke="rgb(204, 204, 204)" stroke-width="1px"></line><line x1="30.766000747680664" y1="108.67692272479718" x2="25.766000747680664" y2="108.67692272479718" style="visibility: inherit;" fill="rgb(0, 0, 0)" stroke="rgb(204, 204, 204)" stroke-width="1px"></line><line x1="30.766000747680664" y1="95.09230738419753" x2="25.766000747680664" y2="95.09230738419753" style="visibility: inherit;" fill="rgb(0, 0, 0)" stroke="rgb(204, 204, 204)" stroke-width="1px"></line><line x1="30.766000747680664" y1="81.50769204359788" x2="25.766000747680664" y2="81.50769204359788" style="visibility: inherit;" fill="rgb(0, 0, 0)" stroke="rgb(204, 204, 204)" stroke-width="1px"></line><line x1="30.766000747680664" y1="67.92307670299823" x2="25.766000747680664" y2="67.92307670299823" style="visibility: inherit;" fill="rgb(0, 0, 0)" stroke="rgb(204, 204, 204)" stroke-width="1px"></line><line x1="30.766000747680664" y1="54.33846136239859" x2="25.766000747680664" y2="54.33846136239859" style="visibility: inherit;" fill="rgb(0, 0, 0)" stroke="rgb(204, 204, 204)" stroke-width="1px"></line><line x1="30.766000747680664" y1="40.753846021798935" x2="25.766000747680664" y2="40.753846021798935" style="visibility: inherit;" fill="rgb(0, 0, 0)" stroke="rgb(204, 204, 204)" stroke-width="1px"></line><line x1="30.766000747680664" y1="27.169230681199295" x2="25.766000747680664" y2="27.169230681199295" style="visibility: inherit;" fill="rgb(0, 0, 0)" stroke="rgb(204, 204, 204)" stroke-width="1px"></line><line x1="30.766000747680664" y1="13.584615340599639" x2="25.766000747680664" y2="13.584615340599639" style="visibility: inherit;" fill="rgb(0, 0, 0)" stroke="rgb(204, 204, 204)" stroke-width="1px"></line><line x1="30.766000747680664" y1="0" x2="25.766000747680664" y2="0" style="visibility: inherit;" fill="rgb(0, 0, 0)" stroke="rgb(204, 204, 204)" stroke-width="1px"></line></g><g transform="translate(20.766000747680664, 0)"><text style="text-anchor: end; visibility: hidden; font-family: Roboto, sans-serif; font-size: 12px; font-weight: 200;" x="0" y="176.5999994277954" dx="0em" dy="0.3em" fill="rgb(33, 33, 33)" stroke="none" stroke-width="1px">0</text><text style="text-anchor: end; visibility: inherit; font-family: Roboto, sans-serif; font-size: 12px; font-weight: 200;" x="0" y="163.01538408719577" dx="0em" dy="0.3em" fill="rgb(33, 33, 33)" stroke="none" stroke-width="1px">2</text><text style="text-anchor: end; visibility: hidden; font-family: Roboto, sans-serif; font-size: 12px; font-weight: 200;" x="0" y="149.4307687465961" dx="0em" dy="0.3em" fill="rgb(33, 33, 33)" stroke="none" stroke-width="1px">4</text><text style="text-anchor: end; visibility: inherit; font-family: Roboto, sans-serif; font-size: 12px; font-weight: 200;" x="0" y="135.84615340599646" dx="0em" dy="0.3em" fill="rgb(33, 33, 33)" stroke="none" stroke-width="1px">6</text><text style="text-anchor: end; visibility: hidden; font-family: Roboto, sans-serif; font-size: 12px; font-weight: 200;" x="0" y="122.26153806539682" dx="0em" dy="0.3em" fill="rgb(33, 33, 33)" stroke="none" stroke-width="1px">8</text><text style="text-anchor: end; visibility: inherit; font-family: Roboto, sans-serif; font-size: 12px; font-weight: 200;" x="0" y="108.67692272479718" dx="0em" dy="0.3em" fill="rgb(33, 33, 33)" stroke="none" stroke-width="1px">10</text><text style="text-anchor: end; visibility: hidden; font-family: Roboto, sans-serif; font-size: 12px; font-weight: 200;" x="0" y="95.09230738419753" dx="0em" dy="0.3em" fill="rgb(33, 33, 33)" stroke="none" stroke-width="1px">12</text><text style="text-anchor: end; visibility: inherit; font-family: Roboto, sans-serif; font-size: 12px; font-weight: 200;" x="0" y="81.50769204359788" dx="0em" dy="0.3em" fill="rgb(33, 33, 33)" stroke="none" stroke-width="1px">14</text><text style="text-anchor: end; visibility: hidden; font-family: Roboto, sans-serif; font-size: 12px; font-weight: 200;" x="0" y="67.92307670299823" dx="0em" dy="0.3em" fill="rgb(33, 33, 33)" stroke="none" stroke-width="1px">16</text><text style="text-anchor: end; visibility: inherit; font-family: Roboto, sans-serif; font-size: 12px; font-weight: 200;" x="0" y="54.33846136239859" dx="0em" dy="0.3em" fill="rgb(33, 33, 33)" stroke="none" stroke-width="1px">18</text><text style="text-anchor: end; visibility: hidden; font-family: Roboto, sans-serif; font-size: 12px; font-weight: 200;" x="0" y="40.753846021798935" dx="0em" dy="0.3em" fill="rgb(33, 33, 33)" stroke="none" stroke-width="1px">20</text><text style="text-anchor: end; visibility: inherit; font-family: Roboto, sans-serif; font-size: 12px; font-weight: 200;" x="0" y="27.169230681199295" dx="0em" dy="0.3em" fill="rgb(33, 33, 33)" stroke="none" stroke-width="1px">22</text><text style="text-anchor: end; visibility: hidden; font-family: Roboto, sans-serif; font-size: 12px; font-weight: 200;" x="0" y="13.584615340599639" dx="0em" dy="0.3em" fill="rgb(33, 33, 33)" stroke="none" stroke-width="1px">24</text><text style="text-anchor: end; visibility: hidden; font-family: Roboto, sans-serif; font-size: 12px; font-weight: 200;" x="0" y="0" dx="0em" dy="0.3em" fill="rgb(33, 33, 33)" stroke="none" stroke-width="1px">26</text></g><line x1="30.766000747680664" y1="0" x2="30.766000747680664" y2="176.5999994277954" fill="rgb(0, 0, 0)" stroke="rgb(204, 204, 204)" stroke-width="1px"></line></g></g><g transform="translate(30, 0)" clip-path="url(#clip_0)"><clipPath id="clip_0"><rect width="299" height="176"></rect></clipPath><g><g><g><line x1="0" y1="0" x2="0" y2="176.5999994277954" fill="rgb(0, 0, 0)" stroke="rgb(66, 66, 66)" stroke-width="1px" opacity="0.25"></line><line x1="24.936166604359943" y1="0" x2="24.936166604359943" y2="176.5999994277954" fill="rgb(0, 0, 0)" stroke="rgb(66, 66, 66)" stroke-width="1px" opacity="0.25"></line><line x1="49.87233320871989" y1="0" x2="49.87233320871989" y2="176.5999994277954" fill="rgb(0, 0, 0)" stroke="rgb(66, 66, 66)" stroke-width="1px" opacity="0.25"></line><line x1="74.80849981307983" y1="0" x2="74.80849981307983" y2="176.5999994277954" fill="rgb(0, 0, 0)" stroke="rgb(66, 66, 66)" stroke-width="1px" opacity="0.25"></line><line x1="99.74466641743977" y1="0" x2="99.74466641743977" y2="176.5999994277954" fill="rgb(0, 0, 0)" stroke="rgb(66, 66, 66)" stroke-width="1px" opacity="0.25"></line><line x1="124.68083302179973" y1="0" x2="124.68083302179973" y2="176.5999994277954" fill="rgb(0, 0, 0)" stroke="rgb(66, 66, 66)" stroke-width="1px" opacity="0.25"></line><line x1="149.61699962615967" y1="0" x2="149.61699962615967" y2="176.5999994277954" fill="rgb(0, 0, 0)" stroke="rgb(66, 66, 66)" stroke-width="1px" opacity="0.25"></line><line x1="174.55316623051962" y1="0" x2="174.55316623051962" y2="176.5999994277954" fill="rgb(0, 0, 0)" stroke="rgb(66, 66, 66)" stroke-width="1px" opacity="0.25"></line><line x1="199.48933283487955" y1="0" x2="199.48933283487955" y2="176.5999994277954" fill="rgb(0, 0, 0)" stroke="rgb(66, 66, 66)" stroke-width="1px" opacity="0.25"></line><line x1="224.4254994392395" y1="0" x2="224.4254994392395" y2="176.5999994277954" fill="rgb(0, 0, 0)" stroke="rgb(66, 66, 66)" stroke-width="1px" opacity="0.25"></line><line x1="249.36166604359946" y1="0" x2="249.36166604359946" y2="176.5999994277954" fill="rgb(0, 0, 0)" stroke="rgb(66, 66, 66)" stroke-width="1px" opacity="0.25"></line><line x1="274.29783264795935" y1="0" x2="274.29783264795935" y2="176.5999994277954" fill="rgb(0, 0, 0)" stroke="rgb(66, 66, 66)" stroke-width="1px" opacity="0.25"></line><line x1="299.23399925231934" y1="0" x2="299.23399925231934" y2="176.5999994277954" fill="rgb(0, 0, 0)" stroke="rgb(66, 66, 66)" stroke-width="1px" opacity="0.25"></line></g><g><line x1="0" y1="176.5999994277954" x2="299.23399925231934" y2="176.5999994277954" fill="rgb(0, 0, 0)" stroke="rgb(66, 66, 66)" stroke-width="1px" opacity="0.25"></line><line x1="0" y1="163.01538408719577" x2="299.23399925231934" y2="163.01538408719577" fill="rgb(0, 0, 0)" stroke="rgb(66, 66, 66)" stroke-width="1px" opacity="0.25"></line><line x1="0" y1="149.4307687465961" x2="299.23399925231934" y2="149.4307687465961" fill="rgb(0, 0, 0)" stroke="rgb(66, 66, 66)" stroke-width="1px" opacity="0.25"></line><line x1="0" y1="135.84615340599646" x2="299.23399925231934" y2="135.84615340599646" fill="rgb(0, 0, 0)" stroke="rgb(66, 66, 66)" stroke-width="1px" opacity="0.25"></line><line x1="0" y1="122.26153806539682" x2="299.23399925231934" y2="122.26153806539682" fill="rgb(0, 0, 0)" stroke="rgb(66, 66, 66)" stroke-width="1px" opacity="0.25"></line><line x1="0" y1="108.67692272479718" x2="299.23399925231934" y2="108.67692272479718" fill="rgb(0, 0, 0)" stroke="rgb(66, 66, 66)" stroke-width="1px" opacity="0.25"></line><line x1="0" y1="95.09230738419753" x2="299.23399925231934" y2="95.09230738419753" fill="rgb(0, 0, 0)" stroke="rgb(66, 66, 66)" stroke-width="1px" opacity="0.25"></line><line x1="0" y1="81.50769204359788" x2="299.23399925231934" y2="81.50769204359788" fill="rgb(0, 0, 0)" stroke="rgb(66, 66, 66)" stroke-width="1px" opacity="0.25"></line><line x1="0" y1="67.92307670299823" x2="299.23399925231934" y2="67.92307670299823" fill="rgb(0, 0, 0)" stroke="rgb(66, 66, 66)" stroke-width="1px" opacity="0.25"></line><line x1="0" y1="54.33846136239859" x2="299.23399925231934" y2="54.33846136239859" fill="rgb(0, 0, 0)" stroke="rgb(66, 66, 66)" stroke-width="1px" opacity="0.25"></line><line x1="0" y1="40.753846021798935" x2="299.23399925231934" y2="40.753846021798935" fill="rgb(0, 0, 0)" stroke="rgb(66, 66, 66)" stroke-width="1px" opacity="0.25"></line><line x1="0" y1="27.169230681199295" x2="299.23399925231934" y2="27.169230681199295" fill="rgb(0, 0, 0)" stroke="rgb(66, 66, 66)" stroke-width="1px" opacity="0.25"></line><line x1="0" y1="13.584615340599639" x2="299.23399925231934" y2="13.584615340599639" fill="rgb(0, 0, 0)" stroke="rgb(66, 66, 66)" stroke-width="1px" opacity="0.25"></line><line x1="0" y1="0" x2="299.23399925231934" y2="0" fill="rgb(0, 0, 0)" stroke="rgb(66, 66, 66)" stroke-width="1px" opacity="0.25"></line></g></g></g><g><g><line x1="0" y1="176.5999994277954" x2="299.23399925231934" y2="176.5999994277954" fill="rgb(0, 0, 0)" stroke="rgb(153, 153, 153)" stroke-width="1.5px"></line></g></g><g><g><line x1="24.936166604359943" y1="0" x2="24.936166604359943" y2="176.5999994277954" fill="rgb(0, 0, 0)" stroke="rgb(153, 153, 153)" stroke-width="1.5px"></line></g></g><g><g><g><g><g><path style="fill: none;" stroke="rgb(0, 119, 187)" stroke-width="2px" d="M25.185278908737498,161.90864044511372L25.4346405747811,162.01400840892185L25.6840022408247,158.61034775098142L25.933363906868298,154.5557424320287L26.1827255729119,150.47531469694363L26.432087238955496,145.95210622308582L26.681448904999097,140.59547148134683L26.9308105710427,137.3456910134931L27.180172237086296,134.03427159458158L27.429533903129897,130.21725381560873L27.67889556917349,125.3772202599499L27.928257235217092,119.5932523789328L28.177618901260693,113.78437526101959L28.42698056730429,109.00541615003623L28.676342233347892,103.60602859227951L28.925703899391493,100.38209092101299L29.17506556543509,92.58579072480704L29.424427231478692,90.54648135373132L29.67378889752229,83.9799621876721L29.92315056356589,80.30774451483633L30.17251222960949,79.18508711290481L30.42187389565309,77.82898090807066L30.67123556169669,72.36939552862036L30.920597227740284,69.07457891883112L31.169958893783885,69.34310547685241L31.419320559827487,62.98825827149114L31.668682225871084,63.55884758571403L31.918043891914685,55.64740475675733L32.16740555795829,54.66469544254692L32.41676722400189,52.4372423834008L32.666128890045485,51.33765608297239L32.91549055608908,51.043795666924765L33.16485222213268,45.574393344260116L33.414213888176285,47.30521070108183L33.66357555421988,47.72037626603432L33.91293722026348,43.08926893304262L34.16229888630708,26.425105321447717L34.41166055235068,28.028778173260203L34.66102221839428,28.772040467450505L34.91038388443788,22.820024316721973L35.15974555048148,24.868489620804226L35.40910721652508,28.574662252084103L35.65846888256868,30.905522795771088L35.907830548612274,28.572535748060513L36.15719221465587,35.916939837873635L36.40655388069948,33.65276314685919L36.655915546743074,33.15790589304467L36.90527721278667,32.001708256051906L37.154638878830276,36.568935025629955L37.404000544873874,37.19838232268341L37.65336221091748,36.8538837512322L37.902723876961076,42.495126346643126L38.152085543004674,39.754309728260885L38.401447209048264,41.16390292857127L38.650808875091876,42.45014552945759L38.900170541135466,41.220209419342616L39.149532207179064,38.94396208753486L39.39889387322267,41.88010158095549L39.648255539266266,42.90346857653631L39.897617205309864,44.91882092700706L40.14697887135347,43.73722590966693L40.396340537397066,41.931880973606894L40.64570220344066,40.79834392862448L40.89506386948426,41.713383144611356L41.144425535527866,32.92011421845394L41.39378720157146,37.98744134002614L41.64314886761506,41.89096896943053L41.892510533658665,43.70925647841957L42.14187219970226,43.117065291715925L42.39123386574586,38.01765070852246L42.640595531789465,41.58057286170349L42.88995719783306,43.40364839460416L43.13931886387666,43.29432573272137L43.388680529920265,49.800306703317275L43.63804219596386,54.82034745628707L43.88740386200746,50.16994414928424L44.13676552805106,50.167403786076086L44.38612719409466,42.83386667998404L44.63548886013826,46.25727941472822L44.88485052618185,49.580951688377404L45.13421219222546,52.993750557812845L45.38357385826905,52.748087521180146L45.63293552431265,49.310449652767595L45.882297190356255,53.99942872362373L46.13165885639985,55.18582166279804L46.38102052244345,55.437259487045125L46.630382188487054,58.30738785442418L46.87974385453065,61.71297974155704L47.12910552057425,59.61661297084396L47.37846718661785,61.12832643185127L47.62782885266145,66.28585688749598L47.87719051870505,68.93304296395601L48.12655218474865,69.99856375411443L48.37591385079225,63.928364428786494L48.62527551683585,55.31080498617486L48.87463718287945,61.210393493530646L49.12399884892305,61.726485717859546L49.37336051496665,63.343298001398004L49.622722181010246,57.29371040607145L49.87208384705385,64.98646776611297L50.12144551309745,61.36683870980886L50.370807179141046,59.012996017327744L50.620168845184644,58.478055433491555L50.86953051122825,63.6550121633564L51.118892177271846,58.56218181123907L51.368253843315436,66.10163420355555L51.61761550935905,71.2275274565478L51.86697717540264,68.06454677463822L52.116338841446236,66.40834174071233L52.36570050748984,73.17458881871768L52.61506217353344,76.51151669845947L52.864423839577036,77.77626025111819L53.11378550562064,80.74014655339916L53.36314717166424,80.52945629301671L53.612508837707836,74.61366668064228L53.86187050375143,81.49929249630378L54.11123216979504,83.61185955373203L54.360593835838635,83.59043402553448L54.60995550188223,82.83423915291297L54.85931716792584,78.15054323025116L55.108678833969435,78.236315757692L55.35804050001303,82.79183826446064L55.60740216605664,87.1795574668651L55.856763832100235,85.25386307487716L56.10612549814383,85.27625812185609L56.35548716418744,75.42762203069876L56.604848830231035,81.73691586707841L56.85421049627463,80.41470859202151L57.10357216231822,87.11471298879997L57.352933828361834,89.38120881407728L57.602295494405425,81.79151571459536L57.85165716044902,86.63734047638302L58.10101882649263,83.03810627704283L58.350380492536225,82.20884053228039L58.59974215857982,84.61773039562293L58.84910382462343,82.59225836989485L59.098465490667024,88.03063357132547L59.34782715671062,70.03424143755714L59.59718882275422,70.54365382084347L59.846550488797824,72.56136412515787L60.09591215484142,78.18123689647005L60.34527382088502,79.24397446749447L60.594635486928624,82.00964301465913L60.84399715297222,79.98706866746944L61.09335881901582,82.54577159566512L61.342720485059424,87.98254485910424L61.59208215110302,91.74119796033028L61.84144381714662,96.90714041071145L62.09080548319022,95.87975353590805L62.34016714923382,99.29270318372092L62.58952881527742,97.3734955726642L62.838890481321016,79.32831262370779L63.08825214736462,80.37489481304489L63.33761381340822,87.45275517783688L63.58697547945181,89.05263748577693L63.83633714549542,88.60855193046719L64.08569881153902,92.2334919861428L64.33506047758262,97.83055844701663L64.58442214362621,100.81965685821201L64.83378380966981,61.388838383046675L65.08314547571341,65.97506988797628L65.33250714175702,71.1003459734201L65.58186880780062,69.63583073121856L65.83123047384422,76.61231117709568L66.08059213988781,58.3078708253995L66.32995380593141,69.29516579769137L66.57931547197501,77.87607555919598L66.8286771380186,85.17707564481815L67.07803880406222,84.88556537352389L67.3274004701058,84.02851417819835L67.5767621361494,82.34965135678777L67.82612380219301,84.75963082427306L68.07548546823661,78.06327461238587L68.3248471342802,86.2962552776593L68.5742088003238,84.85253496253273L68.8235704663674,85.0201470222566L69.072932132411,90.87917800491734L69.3222937984546,85.81553759354672L69.5716554644982,82.78384064100958L69.8210171305418,89.13687691333449L70.0703787965854,92.57946826361388L70.319740462629,97.33856685913274L70.5691021286726,98.42558538247029L70.8184637947162,102.78622180243653L71.0678254607598,103.07723883638997L71.3171871268034,103.39463760908224L71.566548792847,98.29078789183754L71.8159104588906,99.89704699643241L72.0652721249342,101.98771062550627L72.3146337909778,88.9371909704024L72.56399545702139,90.02113145093882L72.813357123065,89.51789047116056L73.06271878910859,94.91077025966662L73.31208045515218,95.27258863434021L73.5614421211958,60.17709464930371L73.8108037872394,70.52490422915417L74.06016545328299,79.71939985066996L74.30952711932659,83.25832128853276L74.55888878537019,87.78755608487593L74.80825045141378,86.85979281511706L75.0576121174574,83.75455773157533L75.30697378350098,90.34243680218934L75.55633544954459,97.00883414454542L75.80569711558819,97.63926148660475L76.05505878163179,96.83077038838478L76.30442044767538,101.36455144210338L76.553782113719,101.15739991264897L76.80314377976258,98.77286483384083L77.05250544580619,92.4035951185448L77.30186711184979,95.64592201326712L77.55122877789339,97.13396975353061L77.80059044393698,100.99973154957961L78.0499521099806,96.3662529526871L78.29931377602418,101.57875148788878L78.54867544206779,103.9505380078577L78.79803710811139,104.55424590867932L79.04739877415497,100.62522953272027L79.29676044019858,103.32231433795185L79.5461221062422,104.86880689496336L79.79548377228578,103.21316175733517L80.04484543832938,107.25085869786683L80.29420710437297,107.72088013543139L80.54356877041657,103.15159416952257L80.79293043646018,108.15959326229023L81.04229210250377,72.97792456922473L81.29165376854738,83.93245855593652L81.54101543459097,74.64274997722052L81.79037710063457,80.05370290777047L82.03973876667817,80.42442974609523L82.28910043272178,84.19805664176128L82.53846209876536,88.29209896849133L82.78782376480898,95.04209812230182L83.03718543085257,94.69508028140099L83.28654709689617,90.62058923687809L83.53590876293977,96.1698455519126L83.78527042898338,102.41621292090741L84.03463209502696,104.33602174905236L84.28399376107058,90.68006833835406L84.53335542711417,94.60593995023449L84.78271709315777,95.75447892716053L85.03207875920137,95.13044414778388L85.28144042524498,101.22825525419428L85.53080209128856,98.58659320752531L85.78016375733218,99.88349463296028L86.02952542337576,96.27032003748029L86.27888708941936,100.28753788066432L86.52824875546297,102.82991545733479L86.77761042150655,91.2096957047555L87.02697208755016,91.73470646179857L87.27633375359376,93.74104346459227L87.52569541963736,99.71126235846742L87.77505708568096,104.34950629438096L88.02441875172457,64.36208734443358L88.27378041776815,75.2965056390753L88.52314208381176,84.83368387093341L88.77250374985536,94.04179576579291L89.02186541589896,60.75008628724763L89.27122708194256,66.34459711479269L89.52058874798617,74.08561344147802L89.76995041402975,54.11876986485758L90.01931208007336,58.75423445974919L90.26867374611696,72.3501575081385L90.51803541216056,72.43068971733504L90.76739707820416,79.04148883225804L91.01675874424777,83.87953635607116L91.26612041029135,85.09704400517037L91.51548207633496,87.40863549010624L91.76484374237856,87.75625222692683L92.01420540842214,90.66594249588528L92.26356707446575,87.18259934396241L92.51292874050934,88.80850087172315L92.76229040655295,93.66186427819571L93.01165207259655,98.58911483087495L93.26101373864014,96.93238137908642L93.51037540468374,104.10341637474723L93.75973707072735,104.99743191924533L94.00909873677094,106.86615824482062L94.25846040281455,101.46908490332603L94.50782206885815,106.0308960097916L94.75718373490174,103.5238612632371L95.00654540094534,108.8529360946459L95.25590706698895,95.79826189526668L95.50526873303254,99.69342516669288L95.75463039907615,102.7233421572516L96.00399206511975,104.80930180253503L96.25335373116334,106.39770780062429L96.50271539720694,110.8815636899996L96.75207706325055,108.02104301276867L97.00143872929414,101.74246311950212L97.25080039533775,103.45739486464426L97.50016206138135,100.99251841632419L97.74952372742493,103.41680485405021L97.99888539346854,103.7231253188205L98.24824705951215,106.50168363907412L98.49760872555574,108.66833020930564L98.74697039159933,110.80748256302941L98.99633205764293,103.20937162041925L99.24569372368653,108.09131629266756L99.49505538973014,108.56368741713825L99.74441705577372,108.19996471750127L99.99377872181734,85.46903975015915L100.24314038786093,94.07069814063928L100.49250205390453,97.92458724120247L100.74186371994813,100.06718399393164L100.99122538599174,92.83086394686495L101.24058705203532,98.97374299458123L101.48994871807894,96.43292863658827L101.73931038412253,97.58737780708724L101.98867205016613,104.05196117074344L102.23803371620973,107.1728299803644L102.48739538225334,106.74341404657766L102.73675704829692,106.64776150815437L102.98611871434053,109.87945857454467L103.23548038038413,112.78878938346287L103.48484204642773,115.01111789466299L103.73420371247133,114.83166890585383L103.98356537851494,115.20247264549182L104.23292704455852,111.51834358178328L104.48228871060213,112.7182491092585L104.73165037664572,112.3876858586528L104.98101204268931,116.03473338788369L105.23037370873293,112.5338493726979L105.47973537477651,104.04366725152177L105.72909704082012,108.81199000669716L105.97845870686372,107.84386089673384L106.22782037290732,107.04027425860248L106.47718203895091,105.49907546416118L106.72654370499453,111.85152028216915L106.97590537103811,118.38794226424695L107.22526703708172,112.55342119420378L107.47462870312532,111.41428748132684L107.72399036916892,114.15115636379127L107.97335203521251,111.47100211637456L108.22271370125613,108.73987413214269L108.47207536729971,110.75225145733269L108.72143703334332,111.7472572685103L108.97079869938692,103.44699039535303L109.22016036543052,105.56774844542473L109.46952203147411,113.3493330412961L109.71888369751773,114.1184559215473L109.96824536356131,102.5779438048238L110.21760702960492,104.18109983408795L110.46696869564852,109.80827283663476L110.7163303616921,112.76089175504876L110.96569202773571,113.457883150815L111.2150536937793,109.7977790040247L111.46441535982291,107.63654832117865L111.7137770258665,109.74836548711114L111.9631386919101,108.08171539525861L112.2125003579537,95.85286470334593L112.46186202399731,99.4522579640412L112.7112236900409,102.70041300742874L112.96058535608451,105.63505838158126L113.2099470221281,96.53253574042441L113.4593086881717,102.01277594708382L113.7086703542153,54.01925882736475L113.95803202025891,70.00771628129965L114.2073936863025,75.31538120298468L114.45675535234611,83.49052359513153L114.7061170183897,87.19376262514578L114.9554786844333,94.891434571149L115.2048403504769,103.25388835613157L115.45420201652051,105.26031137490223L115.7035636825641,102.25327015727036L115.9529253486077,104.04811815006114L116.2022870146513,106.32186883108983L116.45164868069489,109.2014782275037L116.7010103467385,113.82995977352728L116.95037201278211,116.18124176724402L117.1997336788257,112.3137480313783L117.44909534486929,115.22369450929747L117.69845701091289,108.85856979506747L117.94781867695649,112.43700451830675L118.1971803430001,112.04941553128312L118.44654200904368,114.41867048505081L118.6959036750873,110.4689111796211L118.94526534113089,111.94573649431372L119.19462700717449,114.5604777214606L119.44398867321809,119.47994538147503L119.6933503392617,121.83349162374691L119.94271200530528,124.2904964460979L120.1920736713489,124.49561123468244L120.44143533739249,122.84639848208047L120.69079700343609,122.98683328628465L120.94015866947969,120.18243229480511L121.1895203355233,119.89520825173382L121.43888200156688,114.09484747592484L121.6882436676105,117.1135377937267L121.93760533365409,116.71180405406984L122.18696699969769,119.00784473160498L122.43632866574129,112.23066156533042L122.6856903317849,110.4216581429993L122.93505199782848,114.90694516032303L123.18441366387209,118.5004598883065L123.43377532991568,116.86133206845538L123.68313699595927,121.02636479435517L123.93249866200289,120.53568587192265L124.18186032804647,122.65022299838125L124.43122199409008,120.1580626917946L124.68058366013368,114.87664107696867L124.92994532617728,119.12298205775394L125.17930699222087,115.47626085606957L125.42866865826448,120.21979576374441L125.67803032430807,119.0332277593752L125.92739199035168,116.68090802375836L126.17675365639528,117.23858810634891L126.42611532243887,122.4290137475844L126.67547698848247,126.04714964208908L126.92483865452608,124.7926500882546L127.17420032056967,127.83174299873976L127.42356198661328,126.99722100351615L127.67292365265688,125.35959938083938L127.92228531870047,124.09411494946865L128.1716469847441,124.66527559441984L128.42100865078768,117.70775967463602L128.67037031683128,117.82017486459355L128.91973198287488,120.95703328428799L129.16909364891848,121.6113192959509L129.41845531496207,102.13219177125994L129.66781698100567,101.72379781068317L129.91717864704927,107.34500669257444L130.16654031309287,114.16238634494317L130.41590197913646,117.94058241584744L130.66526364518006,118.52787087689461L130.91462531122366,122.11026010468606L131.16398697726726,121.7485000164648L131.41334864331085,119.07077614393619L131.66271030935445,119.27033984439359L131.91207197539808,120.07867232957541L132.16143364144165,118.82248670930103L132.41079530748527,116.3203500444918L132.66015697352887,115.05771459565389L132.90951863957247,118.53661660520443L133.15888030561607,112.79700100517017L133.40824197165966,115.835982079121L133.65760363770326,116.38052176083136L133.90696530374686,115.43268565449517L134.15632696979046,120.00233196215343L134.40568863583405,122.27277324463518L134.65505030187765,121.20203146684833L134.90441196792128,124.76408365138157L135.15377363396485,123.1304574665576L135.40313530000847,123.0351464219054L135.65249696605207,124.37498493684225L135.90185863209564,125.9078674637005L136.15122029813926,122.28057121259381L136.40058196418283,123.41569145450525L136.64994363022646,123.09344689318364L136.89930529627006,124.11633175555956L137.14866696231365,122.4706454658688L137.39802862835725,126.56827513132582L137.64739029440085,124.31130261408985L137.89675196044445,126.36217048351428L138.14611362648805,126.06325769255437L138.39547529253164,117.92601508268135L138.64483695857524,122.29959436086797L138.89419862461884,117.88997080307429L139.14356029066246,121.12670371082187L139.39292195670603,122.92023955724478L139.64228362274966,123.12768841306134L139.89164528879326,125.79945749507692L140.14100695483685,118.30613427530662L140.39036862088045,119.55987336670437L140.63973028692405,121.66174150062201L140.88909195296765,126.18894770073577L141.13845361901124,121.78314510874137L141.38781528505484,120.64829833221455L141.63717695109844,121.45961949988282L141.88653861714204,125.07778993863712L142.13590028318563,119.18171496080109L142.38526194922923,124.67346909895033L142.63462361527283,124.91190535037208L142.88398528131643,126.66446808461171L143.13334694736002,128.8628532799518L143.38270861340365,129.8935766411782L143.63207027944722,131.6622273829171L143.88143194549085,132.24674506700566L144.13079361153444,128.25003387189116L144.38015527757804,128.2814583151256L144.62951694362164,130.4852859259087L144.87887860966524,128.88502744076874L145.12824027570883,124.1384581669986L145.37760194175243,124.80885177226179L145.62696360779603,125.01732828728474L145.87632527383963,124.66819905818227L146.12568693988322,128.57820723098044L146.37504860592685,124.82229982923285L146.62441027197042,118.7459697392851L146.87377193801404,121.40588735456578L147.12313360405764,124.94669588335928L147.37249527010124,129.1021421895888L147.62185693614484,123.45629702012545L147.87121860218843,125.48524347255801L148.12058026823203,123.21117535741996L148.36994193427563,114.10297570407218L148.61930360031923,119.81903136760165L148.86866526636283,124.9236429774494L149.11802693240642,127.14933125341045L149.36738859845002,127.6372941476663L149.61675026449362,126.80807142406204L149.86611193053722,124.47429208455533L150.11547359658084,111.90865983102772L150.36483526262444,107.16591560856138L150.614196928668,110.7649821051142L150.8635585947116,113.76093533795387L151.11292026075523,118.71693233480242L151.36228192679883,111.09953479639864L151.61164359284243,113.05122133244375L151.861005258886,116.43240591084859L152.11036692492962,120.4579020736096L152.35972859097322,125.32469788245018L152.60909025701682,116.1455015834633L152.85845192306041,115.62692337535704L153.10781358910404,117.01271259981884L153.3571752551476,121.48413079484625L153.6065369211912,120.44944911434969L153.8558985872348,118.63973746835507L154.10526025327843,116.78500982961936L154.35462191932203,121.24795210831938L154.60398358536563,124.37632749352711L154.8533452514092,121.23740782294827L155.1027069174528,127.08466517576714L155.35206858349642,127.3248533878896L155.60143024954002,121.21976424378185L155.8507919155836,118.05580162712246L156.1001535816272,121.5192762780247L156.3495152476708,123.43012731583094L156.5988769137144,127.35348176088843L156.848238579758,124.2963733655094L157.0976002458016,123.64773557157096L157.34696191184523,123.95993819609423L157.59632357788882,123.11342874549173L157.8456852439324,127.36959311858767L158.095046909976,130.31309703706586L158.34440857601962,132.10513754056822L158.59377024206321,132.02403447039035L158.8431319081068,132.40685086416278L159.09249357415038,135.6162795475247L159.34185524019398,129.90296071417566L159.5912169062376,130.5776204464624L159.8405785722812,124.86915987060796L160.0899402383248,128.12409602607008L160.33930190436843,132.29356454674905L160.588663570412,133.11444332651826L160.8380252364556,135.5440427092414L161.0873869024992,136.31343709495954L161.3367485685428,136.22245676252274L161.5861102345864,133.76797490898738L161.83547190063,135.7086390662247L162.08483356667358,135.9467555781699L162.33419523271718,134.93069525690763L162.5835568987608,136.84375910205443L162.8329185648044,136.10214291965627L163.082280230848,136.6297631499436L163.3316418968916,135.69725588808086L163.5810035629352,137.76362001471094L163.8303652289788,138.02683059142993L164.0797268950224,137.72537131471924L164.329088561066,138.79950096304012L164.5784502271096,137.74149690316838L164.82781189315318,137.82344315746747L165.07717355919678,138.76723273765919L165.32653522524038,138.97034146899534L165.575896891284,134.97087006799694L165.8252585573276,134.38283955859194L166.0746202233712,132.9421572007146L166.32398188941477,133.44096365152106L166.57334355545837,130.0294110834593L166.822705221502,126.20063598232888L167.0720668875456,123.83278686803477L167.3214285535892,122.29293475317375L167.5707902196328,125.8105666338476L167.82015188567638,127.79359749684401L168.06951355171998,112.12102501556687L168.31887521776358,115.21844049458801L168.56823688380717,88.18054828650894L168.8175985498508,73.7283276675407L169.0669602158944,86.85197448783275L169.31632188193797,94.36695952097311L169.56568354798156,102.46887172654004L169.8150452140252,105.86826984668083L170.0644068800688,112.0403352978661L170.31376854611239,118.958867736067L170.56313021215595,124.54910285161053L170.81249187819958,127.24821321095504L171.06185354424318,126.9614076551201L171.31121521028678,121.74008061337099L171.56057687633037,118.84952808031187L171.809938542374,119.90883923158648L172.05930020841757,120.39282465515478L172.30866187446117,87.1609265886863L172.55802354050476,93.46781693543275L172.8073852065484,101.65690330475266L173.056746872592,108.94644499799044L173.30610853863558,115.26169771157066L173.55547020467915,118.91025285739956L173.80483187072275,101.91730999742857L174.05419353676638,108.16329810007701L174.30355520280997,116.85729505860564L174.55291686885357,122.10627135929529L174.80227853489717,126.06550860725427L175.05164020094077,129.76075168889372L175.30100186698436,132.46805931888636L175.55036353302796,135.50937787323457L175.79972519907156,134.85842903173122L176.04908686511519,133.29583657364904L176.29844853115878,132.88946931277073L176.54781019720235,132.04602363689813L176.79717186324595,130.31254453610688L177.04653352928958,129.4747413921804L177.29589519533317,132.4883270641963L177.54525686137677,120.02323624337627L177.79461852742034,123.94644634354607L178.04398019346394,97.22391298331779L178.29334185950756,106.31277880051314L178.54270352555116,108.83697031769941L178.79206519159476,114.94798581874097L179.04142685763838,117.20656812409024L179.29078852368195,117.65770405905081L179.54015018972555,121.03698106195122L179.78951185576915,120.7603730249263L180.03887352181275,91.26553839814278L180.28823518785637,100.56746825315166L180.53759685389997,105.40526008125713L180.78695851994354,113.6491369770062L181.03632018598714,118.37724650435679L181.28568185203076,120.62633848870499L181.53504351807436,118.38203402796132L181.78440518411796,113.28148905488129L182.03376685016156,98.94088658345386L182.28312851620515,105.05521617987105L182.53249018224875,108.66109382170046L182.78185184829235,90.93753987098503L183.03121351433595,100.80251662853476L183.28057518037957,107.42257919168502L183.52993684642314,110.50536025482504L183.77929851246674,109.05161421024L184.02866017851034,83.3125115177109L184.27802184455396,47.87216909204652L184.52738351059756,64.80261629171409L184.77674517664116,74.28026366954536L185.02610684268473,83.92766218158545L185.27546850872832,97.0332991384981L185.52483017477195,105.01803198929312L185.77419184081555,111.01124715688758L186.02355350685914,116.96490136834208L186.27291517290277,121.29988595700726L186.52227683894634,101.10035072620909L186.77163850498994,70.52854085432934L187.02100017103353,83.37090022090094L187.27036183707713,94.1784469145646L187.51972350312076,105.3755963555219L187.76908516916436,78.03610820236167L188.01844683520793,89.79565510405254L188.26780850125152,99.56222176829463L188.51717016729515,91.95360082823292L188.76653183333875,81.19349203113056L189.01589349938234,91.48657826412757L189.2652551654259,69.54704360490071L189.51461683146954,81.41748944942108L189.76397849751314,92.98129804288268L190.01334016355673,98.84541007309157L190.26270182960033,106.6833746399369L190.51206349564396,86.29236137986372L190.76142516168753,94.33024155585518L191.01078682773112,100.97742193205427L191.26014849377472,93.01985735450657L191.50951015981835,104.04980126181934L191.75887182586195,105.94310167309331L192.00823349190554,113.64799944991209L192.2575951579491,118.36399137850397L192.5069568239927,114.25955389479539L192.75631849003634,116.9491998594501L193.00568015607993,120.54645720577247L193.25504182212353,118.32001788417284L193.50440348816713,119.64562738965685L193.75376515421073,105.64352807948846L194.00312682025432,107.60557352173912L194.25248848629792,109.68757769021771L194.50185015234152,113.10375540416456L194.75121181838514,85.75560285467306L195.00057348442874,71.29081530045322L195.2499351504723,64.09729583671621L195.4992968165159,74.16337449981383L195.74865848255953,72.42443089768747L195.99802014860313,69.28875694345746L196.24738181464673,41.67984207557397L196.4967434806903,40.229589034736314L196.7461051467339,57.748576658572475L196.99546681277752,71.76473127963324L197.24482847882112,85.41356854603579L197.49419014486472,53.371490560582316L197.74355181090834,69.33629424816772L197.9929134769519,81.7939627826386L198.2422751429955,87.15654879759322L198.4916368090391,95.60802021330792L198.7409984750827,99.6047516508902L198.99036014112633,105.75520128148594L199.23972180716993,93.21675294615898L199.4890834732135,103.29510988742061L199.7384451392571,87.74069585695898L199.98780680530072,76.23325492578842L200.23716847134432,86.90811822029768L200.48653013738792,91.81701496810447L200.7358918034315,75.95075099039346L200.9852534694751,84.16935779566548L201.2346151355187,86.35831883116967L201.4839768015623,96.64917752342517L201.7333384676059,99.22956868455074L201.98270013364953,80.66986478057969L202.2320617996931,86.31903219167023L202.4814234657367,85.78352595366287L202.7307851317803,92.27467687339534L202.98014679782392,100.13902620245074L203.22950846386752,106.21023319872221L203.47887012991112,106.00780937570401L203.72823179595468,111.15717811255087L203.97759346199828,114.31431075849734L204.2269551280419,101.31444709708558L204.4763167940855,101.33121748768302L204.7256784601291,107.50619137464284L204.97504012617273,88.96592290354063L205.2244017922163,80.56565898014718L205.4737634582599,88.25621092346067L205.7231251243035,75.10902603912098L205.9724867903471,84.77088481719336L206.22184845639072,71.58569704947072L206.47121012243431,71.03866953871825L206.72057178847788,85.38100682929219L206.96993345452148,95.00547149055384L207.2192951205651,94.2335448662041L207.4686567866087,94.32637628088615L207.7180184526523,94.57498734554089L207.96738011869587,103.71429353212373L208.2167417847395,103.51564701827924L208.4661034507831,82.99746486849848L208.7154651168267,87.5413938606286L208.9648267828703,97.85579873104714L209.21418844891392,105.09208064094888L209.46355011495748,113.65179890891632L209.71291178100108,119.81596839963784L209.96227344704468,119.66980112123437L210.2116351130883,120.17595886947431L210.4609967791319,121.89558101189375L210.7103584451755,121.21904410189406L210.95972011121907,121.3507477702026L211.20908177726267,94.13263553227934L211.4584434433063,104.00017906526148L211.7078051093499,104.37561014949361L211.9571667753935,109.71261825184993L212.2065284414371,112.64576842236441L212.45589010748068,114.9507894980596L212.70525177352428,114.53008475449059L212.95461343956788,114.38217083789283L213.20397510561148,118.15506862167298L213.4533367716551,113.10661980142315L213.7026984376987,101.65983954659804L213.95206010374227,86.44945879884084L214.20142176978587,84.60467987765833L214.4507834358295,89.93012947774616L214.7001451018731,96.34585573296965L214.9495067679167,104.44890342272245L215.19886843396026,110.41613914048047L215.44823010000385,115.56151159339386L215.69759176604748,118.78684645465684L215.94695343209108,103.37134738886594L216.19631509813468,106.24526502169527L216.4456767641783,111.94247034732341L216.69503843022187,110.65511603516279L216.94440009626547,92.54666126837188L217.19376176230907,99.44835723682965L217.44312342835266,99.73514757623666L217.6924850943963,108.64225335976096L217.9418467604399,111.2410787126655L218.19120842648346,8.011166419966205L218.44057009252705,34.206426495630474L218.68993175857068,53.593686340038815L218.93929342461428,70.61788961195309L219.18865509065787,80.65610838797362L219.43801675670147,86.47150740143404L219.68737842274507,97.28260009298322L219.93674008878867,107.0373955507165L220.18610175483226,103.2248820791647L220.43546342087586,107.65517853321106L220.6848250869195,85.89888386510763L220.93418675296306,80.72518405666402L221.18354841900666,68.27916487250614L221.43291008505025,82.16995561387006L221.68227175109388,95.90794354740858L221.93163341713748,102.27705413586756L222.18099508318107,105.55447063259132L222.43035674922464,105.08514906427882L222.67971841526824,106.72263301245958L222.92908008131187,94.64208816095714L223.17844174735546,106.00723247277399L223.42780341339906,110.67182307758495L223.6771650794427,115.26144273140565L223.92652674548626,97.01668417654312L224.17588841152985,93.298267941776L224.42525007757345,96.02276520294751L224.67461174361705,76.3315878218233L224.92397340966068,84.28542013503777L225.17333507570427,93.32541215990275L225.42269674174784,103.7009157429887L225.67205840779144,101.8960702833998L225.92142007383507,85.47651891835784L226.17078173987866,80.62569291577596L226.42014340592226,70.31002380971744L226.66950507196583,80.11993316350619L226.91886673800946,88.78339670276081L227.16822840405305,61.32217253985518L227.41759007009665,76.83337191596317L227.66695173614025,88.73570344728208L227.91631340218387,89.31893592988078L228.16567506822744,84.46318592263857L228.41503673427104,96.20158278042786L228.66439840031464,57.117526306620235L228.91376006635826,73.37894775742203L229.16312173240186,82.7324532908677L229.41248339844546,90.11957117659706L229.66184506448903,102.42508660151881L229.91120673053263,107.29512607839872L230.16056839657625,84.78509966068L230.40993006261985,94.50747509841374L230.65929172866345,106.04117517854328L230.90865339470704,108.37549040295164L231.15801506075064,102.80649616286883L231.40737672679424,110.91932029624984L231.65673839283784,119.33372421651522L231.90610005888144,101.22015289512673L232.15546172492506,106.95922608601913L232.40482339096866,110.03455663050349L232.65418505701223,104.55189436731973L232.90354672305583,76.23025547054343L233.15290838909945,89.9197442948931L233.40227005514305,95.9225414331646L233.65163172118665,87.96156342761938L233.90099338723022,96.3833824525161L234.1503550532738,105.12011038731956L234.39971671931744,108.29147291580237L234.64907838536104,114.98562875608359L234.89844005140463,116.26897542193457L235.14780171744826,120.4491447754951L235.39716338349183,125.6045838959214L235.64652504953543,126.71892310502332L235.89588671557902,96.37992507962925L236.14524838162262,100.03372542149019L236.39461004766625,110.00007061876379L236.64397171370985,110.34080717118538L236.89333337975341,115.07800741984536L237.142695045797,118.45808738856626L237.39205671184064,121.74921683974561L237.64141837788424,123.96650664365515L237.89078004392783,127.75180537661596L238.14014170997143,119.75866726804L238.38950337601503,125.30153568308303L238.63886504205863,90.0112893565432L238.88822670810222,99.0328000720847L239.13758837414582,103.92157935879659L239.38695004018945,89.28048737049508L239.63631170623302,100.68397098597882L239.8856733722766,107.21142611888581L240.1350350383202,113.28296114677745L240.38439670436384,108.5888828591603L240.63375837040743,111.93913131532263L240.88312003645103,112.92497392447812L241.1324817024946,115.30710894868783L241.3818433685382,117.69951774485291L241.63120503458182,122.52675528033997L241.88056670062542,125.30348397851564L242.12992836666902,124.81122285504955L242.37929003271265,125.5826776544535L242.62865169875622,114.9432674279008L242.8780133647998,108.27449705406823L243.1273750308434,61.157709509295266L243.376736696887,78.77915384866422L243.62609836293063,71.8415415016392L243.87546002897423,76.55842742200485L244.1248216950178,82.89260148162094L244.3741833610614,88.55528982353633L244.62354502710502,73.92405875549444L244.87290669314862,81.32658362384885L245.12226835919222,90.35487217994364L245.3716300252358,98.44450400532187L245.62099169127941,104.23152192676156L245.870353357323,110.63671242636727L246.1197150233666,111.7147067300838L246.3690766894102,104.7368572288723L246.61843835545383,110.27935808757447L246.8678000214974,95.35582927555386L247.117161687541,103.35444858068328L247.3665233535846,108.72791723024248L247.61588501962822,89.5260548722843L247.86524668567182,98.22976762462434L248.11460835171542,106.28151020203687L248.363970017759,103.5676958490355L248.61333168380258,106.22672694211454L248.8626933498462,112.9618238123923L249.1120550158898,116.25034616047014L249.3614166819334,93.58818061240781L249.610778347977,101.52258474648833L249.8601400140206,97.8174174314233L250.1095016800642,103.41014569171467L250.3588633461078,108.78489775503763L250.6082250121514,116.46083924757416L250.85758667819502,121.75347316126212L251.10694834423862,100.72506902387441L251.3563100102822,100.24089093355914L251.60567167632578,101.55310228293925L251.8550333423694,88.89657596940731L252.104395008413,88.78859401365065L252.3537566744566,99.98762360119527L252.60311834050017,92.01136463778698L252.85248000654377,99.82788216157127L253.1018416725874,82.0020987397846L253.351203338631,89.31658265990627L253.6005650046746,83.80314562857345L253.84992667071822,91.4385437071145L254.0992883367618,100.47049739383999L254.34865000280539,91.9627568839724L254.59801166884898,101.34427374340318L254.84737333489258,104.39336583149502L255.0967350009362,84.6794983935621L255.3460966669798,13.513588749335298L255.59545833302337,40.23198458373281L255.84481999906697,31.522944864473963L256.09418166511057,50.876914529251195L256.3435433311542,63.62931538753108L256.5929049971978,77.5725695936324L256.8422666632414,73.6754114915922L257.09162832928496,51.09426343336127L257.3409899953286,62.14354300933248L257.5903516613722,71.47769455001144L257.8397133274158,79.04606711279357L258.0890749934594,90.87227755807741L258.338436659503,85.1208834386814L258.5877983255466,96.24498620046361L258.83715999159017,105.25275608161003L259.0865216576338,113.08343941021701L259.33588332367736,119.4603421970296L259.585244989721,95.41817884844204L259.83460665576456,92.2226817909954L260.0839683218082,102.13118402680117L260.33332998785176,108.25745126995267L260.5826916538954,115.15839461300652L260.832053319939,108.87213631802817L261.0814149859826,110.64174140071637L261.33077665202615,118.41877609594239L261.58013831806977,122.99119788413506L261.8294999841134,103.33784814923844L262.07886165015697,110.68773018002649L262.3282233162006,106.02230375328895L262.57758498224416,113.26495908955863L262.8269466482878,119.03044048857113L263.07630831433136,124.99639198220893L263.325669980375,125.5882107440306L263.57503164641855,107.36846454138505L263.8243933124622,110.69709449577283L264.07375497850575,87.57980964707482L264.3231166445494,96.09597109921758L264.57247831059294,95.09769591442183L264.82183997663657,103.0976053740199L265.0712016426802,82.9564820250453L265.32056330872376,86.78812326103093L265.56992497476733,94.02722865352868L265.81928664081096,94.52260772694767L266.0686483068546,80.44257725009841L266.31800997289815,90.34829222832668L266.5673716389418,98.52052353167174L266.8167333049854,107.82765590661883L267.066094971029,111.48834690630848L267.31545663707254,92.71613301488685L267.56481830311617,99.73871029266114L267.81417996915974,104.82903024717757L268.06354163520336,89.94514878964104L268.312903301247,99.01382661469465L268.56226496729056,101.63241206356453L268.81162663333413,99.85109519850897L269.06098829937775,107.34366160211566L269.3103499654214,112.4176643871829L269.55971163146495,110.28870144818498L269.8090732975086,116.98109650108545L270.05843496355214,118.03318421769416L270.30779662959577,120.45269318087045L270.55715829563934,125.82607632261589L270.80651996168297,124.97712119242352L271.0558816277266,122.54804990699121L271.30524329377016,123.73771382840714L271.55460495981373,122.81101668632087L271.80396662585736,124.7259752099311L272.053328291901,128.47799764944892L272.30268995794455,128.95751301999465L272.5520516239882,129.5419894503488L272.80141329003175,119.16911036012199L273.0507749560753,109.17067675551391L273.30013662211894,103.6075234455023L273.54949828816257,108.63317932998041L273.79885995420614,76.40289508633994L274.04822162024976,88.60107150914784L274.29758328629333,75.6181047030258" fill="none"></path></g></g></g></g><g opacity="0.2"><g><g><g><path style="fill: none;" stroke="rgb(0, 119, 187)" stroke-width="2px" d="M25.185278908737498,161.90864044511372L25.4346405747811,162.09830277996835L25.6840022408247,153.70907640354724L25.933363906868298,146.64115284943293L26.1827255729119,140.83897655776676L26.432087238955496,133.78793213850952L26.681448904999097,124.78577114534457L26.9308105710427,127.07268258516629L27.180172237086296,123.01084987324236L27.429533903129897,116.99842851583473L27.67889556917349,108.09586462062424L27.928257235217092,98.44473708607096L28.177618901260693,92.14559877323364L28.42698056730429,90.94048392834122L28.676342233347892,82.9583486656723L28.925703899391493,87.94006912641505L29.17506556543509,62.27837530644585L29.424427231478692,82.5729285279018L29.67378889752229,58.18705309574544L29.92315056356589,65.83056275972376L30.17251222960949,74.74623093961844L30.42187389565309,72.4545875769288L30.67123556169669,50.692192529608434L30.920597227740284,55.973109137300455L31.169958893783885,70.41213938566824L31.419320559827487,37.6649011858743L31.668682225871084,65.8343068410621L31.918043891914685,24.078148220981134L32.16740555795829,50.74146153074932L32.41676722400189,43.54121741345395L32.666128890045485,46.944755768890545L32.91549055608908,49.869518103774325L33.16485222213268,23.714117281444558L33.414213888176285,54.224091985046044L33.66357555421988,49.38019647004015L33.91293722026348,24.57235400234353L34.16229888630708,-40.20991780383946L34.41166055235068,34.44180423140803L34.66102221839428,31.744472166055715L34.91038388443788,-0.9840844929427737L35.15974555048148,33.061261686160975L35.40910721652508,43.39777634570957L35.65846888256868,40.22817181977622L35.907830548612274,19.24122265670198L36.15719221465587,65.2929567275536L36.40655388069948,24.596450858015917L36.655915546743074,31.178545850821138L36.90527721278667,27.377046628425408L37.154638878830276,54.83743469370046L37.404000544873874,39.71612659203703L37.65336221091748,35.4759091328191L37.902723876961076,65.0598390818715L38.152085543004674,28.7911433974313L38.401447209048264,46.80223452735733L38.650808875091876,47.59508585547218L38.900170541135466,36.30048798756924L39.149532207179064,29.839006826113362L39.39889387322267,53.62462440135138L39.648255539266266,46.99692675695111L39.897617205309864,52.980214886297844L40.14697887135347,39.010853083462635L40.396340537397066,34.710510082752506L40.64570220344066,36.264200195774436L40.89506386948426,45.37353713666177L41.144425535527866,-2.252939407678241L41.39378720157146,58.2567396477141L41.64314886761506,57.505073214321015L41.892510533658665,50.98240417687556L42.14187219970226,40.74830115393455L42.39123386574586,17.61999657130364L42.640595531789465,55.83225912930581L42.88995719783306,50.69594956624552L43.13931886387666,42.857035131242256L43.388680529920265,75.82422839318973L43.63804219596386,74.90050911476601L43.88740386200746,31.568331924269913L44.13676552805106,50.15724233368172L44.38612719409466,13.499719267900147L44.63548886013826,59.95092997566448L44.88485052618185,62.87564048935327L45.13421219222546,66.64494579435876L45.38357385826905,51.765435388538975L45.63293552431265,35.55989833460619L45.882297190356255,72.75534483737728L46.13165885639985,59.93139338515161L46.38102052244345,56.44301077821049L46.630382188487054,69.78790127076627L46.87974385453065,75.335347239613L47.12910552057425,51.23114591284845L47.37846718661785,67.17518026154099L47.62782885266145,86.91597867093665L47.87719051870505,79.52178725372553L48.12655218474865,74.26064690957324L48.37591385079225,39.64756715105949L48.62527551683585,20.84056724251394L48.87463718287945,84.80874750828379L49.12399884892305,63.79085461414853L49.37336051496665,69.8105471329788L49.622722181010246,33.095360032467255L49.87208384705385,95.75749719844379L50.12144551309745,46.8883224875417L50.370807179141046,49.5976252489377L50.620168845184644,56.338293098425666L50.86953051122825,84.36283908065613L51.118892177271846,38.19086040446949L51.368253843315436,96.25944377080847L51.61761550935905,91.73110046742192L51.86697717540264,55.41262404754028L52.116338841446236,59.78352160523522L52.36570050748984,100.23957712999912L52.61506217353344,89.85922821713467L52.864423839577036,82.83523446166447L53.11378550562064,92.59569176235709L53.36314717166424,79.68669525149632L53.612508837707836,50.95050823135654L53.86187050375143,109.04179575875241L54.11123216979504,92.06212778339648L54.360593835838635,83.50473191274463L54.60995550188223,79.80945966243794L54.85931716792584,59.41575953965905L55.108678833969435,78.57940586745448L55.35804050001303,101.01392829150097L55.60740216605664,104.7304342764566L55.856763832100235,77.55108550693467L56.10612549814383,85.36583830977182L56.35548716418744,36.03307766609963L56.604848830231035,106.97409121258148L56.85421049627463,75.12587949179645L57.10357216231822,113.91473057590326L57.352933828361834,98.44719211518381L57.602295494405425,51.43274331667523L57.85165716044902,106.02063952352977L58.10101882649263,68.64116947968435L58.350380492536225,78.89177755323107L58.59974215857982,94.25328984899208L58.84910382462343,74.4903702669832L59.098465490667024,109.78413437704651L59.34782715671062,-1.9513270975123433L59.59718882275422,72.58130335398874L59.846550488797824,80.63220534241516L60.09591215484142,100.66072798171822L60.34527382088502,83.49492475159195L60.594635486928624,93.07231720331765L60.84399715297222,71.89677127871083L61.09335881901582,92.78058330844758L61.342720485059424,109.72963791286058L61.59208215110302,106.77581036523435L61.84144381714662,117.5709102122361L62.09080548319022,91.77020603669455L62.34016714923382,112.94450177497212L62.58952881527742,89.69666512843739L62.838890481321016,7.147580827882368L63.08825214736462,84.56122357039325L63.33761381340822,115.76419663700486L63.58697547945181,95.45216671753707L63.83633714549542,86.83220970922828L64.08569881153902,106.73325220884523L64.33506047758262,120.21882429051192L64.58442214362621,112.7760505029936L64.83378380966981,-96.33443551761468L65.08314547571341,84.31999590769455L65.33250714175702,91.60145031519544L65.58186880780062,63.77776976241246L65.83123047384422,104.51823296060411L66.08059213988781,-14.909890581385246L66.32995380593141,113.24434568685882L66.57931547197501,112.19971460521454L66.8286771380186,114.38107598730683L67.07803880406222,83.71952428834685L67.3274004701058,80.60030939689614L67.5767621361494,75.63420007114543L67.82612380219301,94.39954869421427L68.07548546823661,51.277849764837114L68.3248471342802,119.22817793875299L68.5742088003238,79.07765370202644L68.8235704663674,85.69059526115205L69.072932132411,114.31530193556024L69.3222937984546,65.5609759480644L69.5716554644982,70.65705283086093L69.8210171305418,114.54902200263416L70.0703787965854,106.34983366473139L70.319740462629,116.3749612412083L70.5691021286726,102.77365947582047L70.8184637947162,120.22876748230146L71.0678254607598,104.24130697220366L71.3171871268034,104.66423269985133L71.566548792847,77.8753890228587L71.8159104588906,106.32208341481191L72.0652721249342,110.35036514180169L72.3146337909778,36.73511234998688L72.56399545702139,94.35689337308455L72.813357123065,87.50492655204746L73.06271878910859,116.48228941369098L73.31208045515218,96.71986213303455L73.5614421211958,-80.20488129084237L73.8108037872394,111.91614254855607L74.06016545328299,116.49738233673308L74.30952711932659,97.4140070399839L74.55888878537019,105.90449527024867L74.80825045141378,83.14873973608155L75.0576121174574,71.33361739740846L75.30697378350098,116.69395308464541L75.55633544954459,123.67442351396973L75.80569711558819,100.16097085484205L76.05505878163179,93.59680599550487L76.30442044767538,119.49967565697779L76.553782113719,100.32879379483127L76.80314377976258,89.23472451860835L77.05250544580619,66.92651625736059L77.30186711184979,108.6152295921564L77.55122877789339,103.08616071458454L77.80059044393698,116.46277873377561L78.0499521099806,77.83233856511714L78.29931377602418,122.42874562869548L78.54867544206779,113.43768408773337L78.79803710811139,106.96907751196579L79.04739877415497,84.90916402888409L79.29676044019858,114.11065355887817L79.5461221062422,111.0547771230093L79.79548377228578,96.59058120682238L80.04484543832938,123.40164645999351L80.29420710437297,109.6009658856896L80.54356877041657,84.87445030588725L80.79293043646018,128.1915896333609L81.04229210250377,-67.74875020303722L81.29165376854738,127.75059450278366L81.54101543459097,37.48391566235652L81.79037710063457,101.69751462997024L82.03973876667817,81.90733709939433L82.28910043272178,99.29256422442543L82.53846209876536,104.6682682754115L82.78782376480898,122.04209473754386L83.03718543085257,93.3070089177977L83.28654709689617,74.32262505878649L83.53590876293977,118.3668708120506L83.78527042898338,127.40168239688668L84.03463209502696,112.01525706163214L84.28399376107058,36.05625469556085L84.53335542711417,110.30942639775616L84.78271709315777,100.34863483486473L85.03207875920137,92.63430503027726L85.28144042524498,125.6194996798359L85.53080209128856,88.01994502084948L85.78016375733218,105.0711003347001L86.02952542337576,81.81762165556036L86.27888708941936,116.35640925340033L86.52824875546297,112.99942576401676L86.77761042150655,44.72881669443828L87.02697208755016,93.83474948997082L87.27633375359376,101.76639147576711L87.52569541963736,123.59213793396808L87.77505708568096,122.9024820380351L88.02441875172457,-95.58758845535607L88.27378041776815,119.03417881764227L88.52314208381176,122.98239679836577L88.77250374985536,130.8742433452311L89.02186541589896,-72.41675162693355L89.27122708194256,88.7226404249729L89.52058874798617,105.04967874821932L89.76995041402975,-25.748604441624114L90.01931208007336,77.29609283931558L90.26867374611696,126.7338497016957L90.51803541216056,72.7528185541213L90.76739707820416,105.48468529195004L91.01675874424777,103.23172645132368L91.26612041029135,89.96707460156729L91.51548207633496,96.65500142984973L91.76484374237856,89.14671917420918L92.01420540842214,102.30470357171907L92.26356707446575,73.24922673627096L92.51292874050934,95.31210698276607L92.76229040655295,113.07531790408599L93.01165207259655,118.29811704159185L93.26101373864014,90.30544757193229L93.51037540468374,132.7875563573904L93.75973707072735,108.57349409723781L94.00909873677094,114.34106354712182L94.25846040281455,79.88079153734768L94.50782206885815,124.27814043565394L94.75718373490174,93.49572227701901L95.00654540094534,130.16923542028104L95.25590706698895,43.579565097749764L95.50526873303254,115.27407825239764L95.75463039907615,114.8430101194865L96.00399206511975,113.15314038366876L96.25335373116334,112.7513317929813L96.50271539720694,128.8169872475009L96.75207706325055,96.5789603038449L97.00143872929414,76.62814354643587L97.25080039533775,110.31712184521281L97.50016206138135,91.13301262304398L97.74952372742493,113.11395060495428L97.99888539346854,104.9484071779016L98.24824705951215,117.6159169200887L98.49760872555574,117.33491649023182L98.74697039159933,119.36409197792443L98.99633205764293,72.81692784997868L99.24569372368653,127.61909498166081L99.49505538973014,110.45317191502112L99.74441705577372,106.74507391895332L99.99377872181734,-5.4546601192093345L100.24314038786093,128.47733170255978L100.49250205390453,113.34014364345526L100.74186371994813,108.63757100484834L100.99122538599174,63.885583758598216L101.24058705203532,123.5452591854463L101.48994871807894,86.26967120461646L101.73931038412253,102.20517448908305L101.98867205016613,129.91029462536832L102.23803371620973,119.65630521884822L102.48739538225334,105.02575031143067L102.73675704829692,106.26515135446124L102.98611871434053,122.8062468401059L103.23548038038413,124.42611261913564L103.48484204642773,123.90043193946354L103.73420371247133,114.11387295061719L103.98356537851494,116.6856876040438L104.23292704455852,96.78182732694904L104.48228871060213,117.51787121915937L104.73165037664572,111.06543285623002L104.98101204268931,130.6229235048072L105.23037370873293,98.53031331195476L105.47973537477651,70.08293876681725L105.72909704082012,127.88528102739868L105.97845870686372,103.97134445688059L106.22782037290732,103.82592770607705L106.47718203895091,99.3342802863959L106.72654370499453,137.261299554201L106.97590537103811,144.5336301925582L107.22526703708172,89.21533691403108L107.47462870312532,106.85775262981917L107.72399036916892,125.0986318936489L107.97335203521251,100.75038512670783L108.22271370125613,97.81536219521516L108.47207536729971,118.8017607580926L108.72143703334332,115.72728051322076L108.97079869938692,70.24592290272386L109.22016036543052,114.05078064571157L109.46952203147411,144.4756714247817L109.71888369751773,117.19494744255206L109.96824536356131,56.4158953379297L110.21760702960492,110.59372395114454L110.46696869564852,132.31696484682197L110.7163303616921,124.5713674287048L110.96569202773571,116.24584873387987L111.2150536937793,95.15736241686356L111.46441535982291,98.99162558979448L111.7137770258665,118.19563415084114L111.9631386919101,101.41511502784851L112.2125003579537,46.9374619356951L112.46186202399731,113.84983100682223L112.7112236900409,115.69303318097886L112.96058535608451,117.37363987819134L113.2099470221281,60.12244517579704L113.4593086881717,123.93373677372148L113.7086703542153,-137.95480965151168L113.95803202025891,133.96154609703933L114.2073936863025,96.54604088972474L114.45675535234611,116.19109316371896L114.7061170183897,102.00671874520279L114.9554786844333,125.68212235516188L115.2048403504769,136.70370349606176L115.45420201652051,113.28600344998492L115.7035636825641,90.22510528674292L115.9529253486077,111.22751012122423L116.2022870146513,115.41687155520458L116.45164868069489,120.71991581315919L116.7010103467385,132.34388595762155L116.95037201278211,125.58636974211106L117.1997336788257,96.84377308791542L117.44909534486929,126.86348042097408L117.69845701091289,83.39807093814751L117.94781867695649,126.75074341126387L118.1971803430001,110.49905958318861L118.44654200904368,123.89569030012156L118.6959036750873,94.66987395790231L118.94526534113089,117.8530377530841L119.19462700717449,125.01944263004816L119.44398867321809,139.15781602153277L119.6933503392617,131.24767659283444L119.94271200530528,134.11851573550192L120.1920736713489,125.31607038902052L120.44143533739249,116.2495474716726L120.69079700343609,123.54857250310125L120.94015866947969,108.96482832888705L121.1895203355233,118.74631207944864L121.43888200156688,90.89340437268885L121.6882436676105,129.1882990649342L121.93760533365409,115.10486909544233L122.18696699969769,128.19200744174555L122.43632866574129,85.12192890023215L122.6856903317849,103.18564445367495L122.93505199782848,132.84809322961786L123.18441366387209,132.87451880024028L123.43377532991568,110.30482078905104L123.68313699595927,137.68649569795434L123.93249866200289,118.57297018219253L124.18186032804647,131.10837150421557L124.43122199409008,110.18942146544798L124.68058366013368,93.75095461766495L124.92994532617728,136.10834598089508L125.17930699222087,100.88937604933206L125.42866865826448,139.19393539444386L125.67803032430807,114.28695574189834L125.92739199035168,107.27162908129094L126.17675365639528,119.4693084367111L126.42611532243887,143.19071631252643L126.67547698848247,140.5196932201078L126.92483865452608,119.77465187291658L127.17420032056967,139.98811464068044L127.42356198661328,123.65913302262172L127.67292365265688,118.80911289013241L127.92228531870047,119.03217722398561L128.1716469847441,126.94991817422466L128.42100865078768,89.87769599550077L128.67037031683128,118.26983562442368L128.91973198287488,133.5044669630657L129.16909364891848,124.22846334260248L129.41845531496207,24.215681672496146L129.66781698100567,100.09022196837601L129.91717864704927,129.82984222013957L130.16654031309287,141.4319049544181L130.41590197913646,133.05336669946456L130.66526364518006,120.87702472108333L130.91462531122366,136.43981701585176L131.16398697726726,120.30145966357979L131.41334864331085,108.35988065382173L131.66271030935445,120.06859464622329L131.91207197539808,123.31200227030266L132.16143364144165,113.79774422820353L132.41079530748527,106.3118033852549L132.66015697352887,110.00717280030221L132.90951863957247,132.45222464340662L133.15888030561607,89.83853860503316L133.40824197165966,127.99190637492424L133.65760363770326,118.55868048767283L133.90696530374686,111.64134122915038L134.15632696979046,138.28091719278646L134.40568863583405,131.35453837456217L134.65505030187765,116.91906435570088L134.90441196792128,139.01229238951456L135.15377363396485,116.59595272726172L135.40313530000847,122.65390224329656L135.65249696605207,129.73433899658968L135.90185863209564,132.0393975711335L136.15122029813926,107.7713862081671L136.40058196418283,127.95617242215096L136.64994363022646,121.80446864789725L136.89930529627006,128.2078712050632L137.14866696231365,115.88790030710575L137.39802862835725,142.9587937931539L137.64739029440085,115.283412545146L137.89675196044445,134.56564196121195L138.14611362648805,124.8676065287147L138.39547529253164,85.37704464318935L138.64483695857524,139.7939114736144L138.89419862461884,100.2514765718997L139.14356029066246,134.07363534181212L139.39292195670603,130.09438294293636L139.64228362274966,123.95748383632764L139.89164528879326,136.48653382313918L140.14100695483685,88.33284139622538L140.39036862088045,124.57482973229537L140.63973028692405,130.06921403629258L140.88909195296765,144.2977725011908L141.13845361901124,104.15993474076379L141.38781528505484,116.1089112261073L141.63717695109844,124.70490417055588L141.88653861714204,139.55047169365434L142.13590028318563,95.59741504945686L142.38526194922923,146.64048565154735L142.63462361527283,125.86565035605906L142.88398528131643,133.67471902157027L143.13334694736002,137.656394061312L143.38270861340365,134.01647008608398L143.63207027944722,138.73683034987272L143.88143194549085,134.58481580335987L144.13079361153444,112.26318909143325L144.38015527757804,128.40715608806337L144.62951694362164,139.30059636904096L144.87887860966524,122.48399350020884L145.12824027570883,105.15218107191815L145.37760194175243,127.49042619331452L145.62696360779603,125.85123434737659L145.87632527383963,123.27168214177237L146.12568693988322,144.2182399221732L146.37504860592685,109.79867022224244L146.62441027197042,94.44064937949418L146.87377193801404,132.04555781568843L147.12313360405764,139.1099299985333L147.37249527010124,145.72392741450693L147.62185693614484,100.87291634227198L147.87121860218843,133.60102928228832L148.12058026823203,114.1149028968677L148.36994193427563,77.67017709068107L148.61930360031923,142.68325402171953L148.86866526636283,145.34208941684042L149.11802693240642,136.05208435725467L149.36738859845002,129.58914572468956L149.61675026449362,123.49118052964502L149.86611193053722,115.1391747265286L150.11547359658084,61.64613081691725L150.36483526262444,88.19493871869602L150.614196928668,125.16124809132552L150.8635585947116,125.74474826931257L151.11292026075523,138.54092032219657L151.36228192679883,80.62994464278353L151.61164359284243,120.85796747662414L151.861005258886,129.9571442244679L152.11036692492962,136.5598867246537L152.35972859097322,144.79188111781255L152.60909025701682,79.42871638751568L152.85845192306041,113.55261054293211L153.10781358910404,122.555869497666L153.3571752551476,139.3698035749559L153.6065369211912,116.31072239236343L153.8558985872348,111.4008908843766L154.10526025327843,109.36609927467646L154.35462191932203,139.09972122311942L154.60398358536563,136.88982903435806L154.8533452514092,108.68172914063291L155.1027069174528,150.47369458704262L155.35206858349642,128.2856062363794L155.60143024954002,96.79940766735088L155.8507919155836,105.3999511604849L156.1001535816272,135.37317488163364L156.3495152476708,131.07353146705591L156.5988769137144,143.04689954111836L156.848238579758,112.06793978399327L157.0976002458016,121.05318439581725L157.34696191184523,125.20874869418722L157.59632357788882,119.72739094308173L157.8456852439324,144.39425061097154L158.095046909976,142.08711271097854L158.34440857601962,139.27329955457768L158.59377024206321,131.69962218967896L158.8431319081068,133.93811643925252L159.09249357415038,148.45399428097224L159.34185524019398,107.0496853807795L159.5912169062376,133.27625937560933L159.8405785722812,102.0353175671903L160.0899402383248,141.14384064791852L160.33930190436843,148.97143862946493L160.588663570412,136.3979584455951L160.8380252364556,145.26244024013408L161.0873869024992,139.39101463783206L161.3367485685428,135.85853543277543L161.5861102345864,123.95004749484595L161.83547190063,143.47129569517398L162.08483356667358,136.89922162595076L162.33419523271718,130.8664539718585L162.5835568987608,144.4960144826417L162.8329185648044,133.13567819006371L163.082280230848,138.74024407109297L163.3316418968916,131.9672268406298L163.5810035629352,146.0290765212312L163.8303652289788,139.07967289830597L164.0797268950224,136.51953420787652L164.329088561066,143.09601955632363L164.5784502271096,133.50948066368142L164.82781189315318,138.15122817466371L165.07717355919678,142.54239105842612L165.32653522524038,139.78277639433998L165.575896891284,118.9729844640033L165.8252585573276,132.03071752097193L166.0746202233712,127.17942776920529L166.32398188941477,135.43618945474677L166.57334355545837,116.3832008112124L166.822705221502,110.88553557780712L167.0720668875456,114.36139041085835L167.3214285535892,116.1335262937296L167.5707902196328,139.881094156543L167.82015188567638,135.72572094882958L168.06951355171998,49.4307350904584L168.31887521776358,127.60810241067263L168.56823688380717,-19.97102054580745L168.8175985498508,15.919445191667721L169.0669602158944,139.34656176900094L169.31632188193797,124.4268996535346L169.56568354798156,134.87652054880778L169.8150452140252,119.46586232724397L170.0644068800688,136.72859710260718L170.31376854611239,146.6329974888707L170.56313021215595,146.91004331378454L170.81249187819958,138.04465464833314L171.06185354424318,125.8141854317803L171.31121521028678,100.85477244637457L171.56057687633037,107.28731794807548L171.809938542374,124.1460838366849L172.05930020841757,122.32876634942794L172.30866187446117,-45.76666567718769L172.55802354050476,118.69537832241856L172.8073852065484,134.4132487820323L173.056746872592,138.1046117709416L173.30610853863558,140.52270856589155L173.55547020467915,133.5044734407151L173.80483187072275,33.94553855754461L174.05419353676638,133.1472505106709L174.30355520280997,151.63328289272016L174.55291686885357,143.10217656205387L174.80227853489717,141.90245759909024L175.05164020094077,144.5417240154514L175.30100186698436,143.29728983885698L175.55036353302796,147.6746520906275L175.79972519907156,132.25463366571785L176.04908686511519,127.04546674132018L176.29844853115878,131.26400026925768L176.54781019720235,128.6722409334076L176.79717186324595,123.37862813294197L177.04653352928958,126.1235288164744L177.29589519533317,144.54266975226005L177.54525686137677,70.16287296009604L177.79461852742034,139.6392867442253L178.04398019346394,-9.666220457595383L178.29334185950756,142.6682420692946L178.54270352555116,118.93373638644447L178.79206519159476,139.39204782290724L179.04142685763838,126.24089734548724L179.29078852368195,119.46224779889312L179.54015018972555,134.5540890735529L179.78951185576915,119.6539408768266L180.03887352181275,-26.71380010899142L180.28823518785637,137.7751876731872L180.53759685389997,124.75642739367902L180.78695851994354,146.62464456000254L181.03632018598714,137.28968461375916L181.28568185203076,129.62270642609778L181.53504351807436,109.4048161849866L181.78440518411796,92.87930916256119L182.03376685016156,41.57847669774408L182.28312851620515,129.5125345655398L182.53249018224875,123.08460438901807L182.78185184829235,20.043324068123326L183.03121351433595,140.26242365873364L183.28057518037957,133.90282944428606L183.52993684642314,122.83648450738511L183.77929851246674,103.23663003190002L184.02866017851034,-19.643899252405586L184.27802184455396,-93.88920061061114L184.52738351059756,132.5244050903844L184.77674517664116,112.1908531808705L185.02610684268473,122.51725622974584L185.27546850872832,149.4558469661487L185.52483017477195,136.95696339247323L185.77419184081555,134.9841078272654L186.02355350685914,140.77951821416013L186.27291517290277,138.63982431166798L186.52227683894634,20.30220980301637L186.77163850498994,-51.75869863318971L187.02100017103353,134.7403376871873L187.27036183707713,137.40863368921933L187.51972350312076,150.1641941193512L187.76908516916436,-31.321844410279287L188.01844683520793,136.83384271081604L188.26780850125152,138.62848842526296L188.51717016729515,61.51911706798609L188.76653183333875,38.1530568427211L189.01589349938234,132.65892319611567L189.2652551654259,-18.21109503200674L189.51461683146954,128.89927282750256L189.76397849751314,139.2365324167292L190.01334016355673,122.30185819392712L190.26270182960033,138.03523290731823L190.51206349564396,4.728308339570984L190.76142516168753,126.481762259821L191.01078682773112,127.56614343685064L191.26014849377472,61.189599044315756L191.50951015981835,148.16957689107042L191.75887182586195,113.51630331818919L192.00823349190554,144.46759055718726L192.2575951579491,137.22795909287152L192.5069568239927,97.84180395996103L192.75631849003634,127.70778371806895L193.00568015607993,134.93548659106196L193.25504182212353,109.41426059777433L193.50440348816713,124.94806541159281L193.75376515421073,49.635130838814874L194.00312682025432,115.45375529074181L194.25248848629792,118.01559436413201L194.50185015234152,126.76846625995194L194.75121181838514,-23.637007343292964L195.00057348442874,13.43166508357382L195.2499351504723,35.32321798176824L195.4992968165159,114.42768915220425L195.74865848255953,65.46865648918195L195.99802014860313,56.74606112653747L196.24738181464673,-68.75581739595998L196.4967434806903,34.42857687138573L196.7461051467339,127.82452715391717L196.99546681277752,127.82934976387634L197.24482847882112,140.00891761164598L197.49419014486472,-74.7968213812317L197.74355181090834,133.19550899850938L197.9929134769519,131.6246369205221L198.2422751429955,108.60689285741168L198.4916368090391,129.41390587616678L198.7409984750827,115.59167740121927L198.99036014112633,130.35699980386903L199.23972180716993,43.06295960485106L199.4890834732135,143.60853765246713L199.7384451392571,25.523039735112434L199.98780680530072,30.203491201106146L200.23716847134432,129.60757139833473L200.48653013738792,111.45260195933157L200.7358918034315,12.485695079549401L200.9852534694751,117.04378501675353L201.2346151355187,95.1141629731864L201.4839768015623,137.81261229244717L201.7333384676059,109.55113332905316L201.98270013364953,6.431049164695437L202.2320617996931,108.91570183603241L202.4814234657367,83.64150100163349L202.7307851317803,118.23928055232514L202.98014679782392,131.5964235186724L203.22950846386752,130.49506118380805L203.47887012991112,105.19811408363127L203.72823179595468,131.75465305993828L203.97759346199828,126.94284134228326L204.2269551280419,49.31499245143851L204.4763167940855,101.39829905007285L204.7256784601291,132.2060869224822L204.97504012617273,14.804849019131682L205.2244017922163,46.96460328657339L205.4737634582599,119.0184186967146L205.7231251243035,22.52028650176216L205.9724867903471,123.41831992948295L206.22184845639072,18.844945978580174L206.47121012243431,68.85055949570841L206.72057178847788,142.75035599158787L206.96993345452148,133.50333013560052L207.2192951205651,91.14583836880509L207.4686567866087,94.69770193961428L207.7180184526523,95.56943160415992L207.96738011869587,140.27151827845515L208.2167417847395,102.7210609629012L208.4661034507831,0.9247362693754699L208.7154651168267,105.71710982914908L208.9648267828703,139.11341821272137L209.21418844891392,134.03720828055577L209.46355011495748,147.89067198078612L209.71291178100108,144.47264636252393L209.96227344704468,119.08513200762047L210.2116351130883,122.20058986243409L210.4609967791319,128.77406958157152L210.7103584451755,118.51289646189532L210.95972011121907,121.87756244343679L211.20908177726267,-14.739813419413764L211.4584434433063,143.47035319719L211.7078051093499,105.87733448642226L211.9571667753935,131.06065066127516L212.2065284414371,124.3783691044224L212.45589010748068,124.17087380084033L212.70525177352428,112.8472657802146L212.95461343956788,113.79051517150181L213.20397510561148,133.2466597567935L213.4533367716551,92.91282452042378L213.7026984376987,55.87271852729765L213.95206010374227,25.607935807811923L214.20142176978587,77.22556419292826L214.4507834358295,111.23192787809751L214.7001451018731,122.00876075386374L214.9495067679167,136.86109418173368L215.19886843396026,134.28508201151251L215.44823010000385,136.14300140504756L215.69759176604748,131.68818589970863L215.94695343209108,41.70935112570231L216.19631509813468,117.74093555301258L216.4456767641783,134.73129164983607L216.69503843022187,105.50569878652026L216.94440009626547,20.112842201208252L217.19376176230907,127.0551411106607L217.44312342835266,100.88230893386469L217.6924850943963,144.2706764938581L217.9418467604399,121.6363801242837L218.19120842648346,-404.908482750831L218.44057009252705,138.98746679828758L218.68993175857068,131.14272571767214L218.93929342461428,138.71470269961014L219.18865509065787,120.80898349205575L219.43801675670147,109.73310345527582L219.68737842274507,140.52697085917984L219.93674008878867,146.05657738164973L220.18610175483226,87.97482819295752L220.43546342087586,125.37636434939645L220.6848250869195,-1.1262948073060086L220.93418675296306,60.03038482288957L221.18354841900666,18.49508813587454L221.43291008505025,137.73311857932583L221.68227175109388,150.85989528156273L221.93163341713748,127.75349648970335L222.18099508318107,118.66413661948634L222.43035674922464,103.20786279102879L222.67971841526824,113.27256880518263L222.92908008131187,46.31990875494739L223.17844174735546,151.4678097200415L223.42780341339906,129.3301854968287L223.6771650794427,133.61992134668844L223.92652674548626,24.037649957093052L224.17588841152985,78.4246030027076L224.42525007757345,106.92075424763355L224.67461174361705,-2.433121702673621L224.92397340966068,116.10074938789569L225.17333507570427,129.48538025936273L225.42269674174784,145.20293007533246L225.67205840779144,94.67668844504408L225.92142007383507,19.798313458190023L226.17078173987866,61.222388905448426L226.42014340592226,29.047347385483377L226.66950507196583,119.35957057866119L226.91886673800946,123.43725085977933L227.16822840405305,-48.522724111767324L227.41759007009665,138.87816942039512L227.66695173614025,136.34502957255773L227.91631340218387,91.65186586027556L228.16567506822744,65.04018589366989L228.41503673427104,143.155170211585L228.66439840031464,-99.21869958861038L228.91376006635826,138.42463356062922L229.16312173240186,120.14647542465043L229.41248339844546,119.66804271951445L229.66184506448903,151.64714830120585L229.91120673053263,126.77528398591838L230.16056839657625,-5.2550060101948475L230.40993006261985,133.39697684934868L230.65929172866345,152.17597549906148L230.90865339470704,117.71275130058501L231.15801506075064,80.53051920253749L231.40737672679424,143.370616829774L231.65673839283784,152.99133989757672L231.90610005888144,28.76586760957281L232.15546172492506,129.9155188495887L232.40482339096866,122.33587880844091L232.65418505701223,82.62124531458466L232.90354672305583,-37.05630011656189L233.15290838909945,144.6776995922919L233.40227005514305,119.93372998625048L233.65163172118665,56.11765140543845L233.90099338723022,130.07065855210303L234.1503550532738,140.0670221265334L234.39971671931744,120.97692302973368L234.64907838536104,141.76225211720833L234.89844005140463,121.40236208533858L235.14780171744826,137.16982218973723L235.39716338349183,146.22634037762657L235.64652504953543,131.17627994143098L235.89588671557902,-24.97606702194705L236.14524838162262,114.64892678893389L236.39461004766625,149.86545140785813L236.64397171370985,111.70375338087172L236.89333337975341,134.02680841448534L237.142695045797,131.97840726344984L237.39205671184064,134.91373464446306L237.64141837788424,132.83566585929327L237.89078004392783,142.89300030845916L238.14014170997143,87.7861148337362L238.38950337601503,147.4730093432551L238.63886504205863,-51.149695949616074L238.88822670810222,135.11884293425072L239.13758837414582,123.4766965056441L239.38695004018945,30.71611941728904L239.63631170623302,146.29790544791376L239.8856733722766,133.32124665051379L240.1350350383202,137.56910125834403L240.38439670436384,89.81256970869163L240.63375837040743,125.34012513997197L240.88312003645103,116.86834436110016L241.1324817024946,124.83564904552662L241.3818433685382,127.26915292951333L241.63120503458182,141.83570542228813L241.88056670062542,136.4103987712184L242.12992836666902,122.84217836118512L242.37929003271265,128.66849685206927L242.62865169875622,72.38562652169006L242.8780133647998,81.59941555873789L243.1273750308434,-127.30944066979674L243.376736696887,149.26493120614012L243.62609836293063,44.09109211353902L243.87546002897423,95.42597110346742L244.1248216950178,108.22929772008533L244.3741833610614,111.20604319119782L244.62354502710502,15.39913448332692L244.87290669314862,110.93668309726655L245.12226835919222,126.46802640432281L245.3716300252358,130.80303130683478L245.62099169127941,127.37959361252035L245.870353357323,136.25747442479008L246.1197150233666,116.02668394495001L246.3690766894102,76.82545922402625L246.61843835545383,132.44936152238319L246.8678000214974,35.66171402747135L247.117161687541,135.34892580120095L247.3665233535846,130.22179182847935L247.61588501962822,12.71860544045151L247.86524668567182,133.04461863398456L248.11460835171542,138.48848051168696L248.363970017759,92.71243843702999L248.61333168380258,116.86285131443076L248.8626933498462,139.90221129350323L249.1120550158898,129.40443555278156L249.3614166819334,2.939518420158421L249.610778347977,133.26020128281047L249.8601400140206,82.99674817116312L250.1095016800642,125.78105873288017L250.3588633461078,130.2839060083295L250.6082250121514,147.16460521772024L250.85758667819502,142.92400881601392L251.10694834423862,16.611452474323556L251.3563100102822,98.30417857229816L251.60567167632578,106.80194768045962L251.8550333423694,38.27047071527956L252.104395008413,88.35666619062403L252.3537566744566,144.78374195137377L252.60311834050017,60.1063287841538L252.85248000654377,131.09395225670838L253.1018416725874,10.698965052637861L253.351203338631,118.57451834039298L253.6005650046746,61.74939750324225L253.84992667071822,121.98013602127874L254.0992883367618,136.598312140742L254.34865000280539,57.93179484450201L254.59801166884898,138.8703411811263L254.84737333489258,116.58973418386239L255.0967350009362,5.824028641830338L255.3460966669798,-271.15004982757205L255.59545833302337,147.10556792132294L255.84481999906697,-3.3132140125614438L256.09418166511057,128.2927931883602L256.3435433311542,114.6389188206506L256.5929049971978,133.3455864180377L256.8422666632414,58.08677908343137L257.09162832928496,-39.23032879956247L257.3409899953286,106.3406613132174L257.5903516613722,108.8143007127272L257.8397133274158,109.31955736392214L258.0890749934594,138.17711933921277L258.338436659503,62.115306961097374L258.5877983255466,140.7413972475924L258.83715999159017,141.2838356061958L259.0865216576338,144.4061727246449L259.33588332367736,144.96795334427995L259.585244989721,-0.7504745459082187L259.83460665576456,79.44069356120875L260.0839683218082,141.76519297002426L260.33332998785176,132.76252024255874L260.5826916538954,142.76216798522188L260.832053319939,83.72710313811477L261.0814149859826,117.7201617314692L261.33077665202615,149.5269148768464L261.58013831806977,141.2808850369058L261.8294999841134,24.72444920965197L262.07886165015697,140.0872583031787L262.3282233162006,87.36059804633882L262.57758498224416,142.2355804346374L262.8269466482878,142.09236608462112L263.07630831433136,148.86019795676017L263.325669980375,127.95548579131727L263.57503164641855,34.48947973080284L263.8243933124622,124.01161431332392L264.07375497850575,-4.889329747717199L264.3231166445494,130.16061690778852L264.57247831059294,91.10459517523896L264.82183997663657,135.09724321241214L265.0712016426802,2.391988629146837L265.32056330872376,102.11468820497353L265.56992497476733,122.9836502235197L265.81928664081096,96.50412402062368L266.0686483068546,24.12245534270132L266.31800997289815,129.97115214123983L266.5673716389418,131.20944874505207L266.8167333049854,145.0561854064072L267.066094971029,126.13111090506702L267.31545663707254,17.627277449200367L267.56481830311617,127.82901940375825L267.81417996915974,125.1903100652433L268.06354163520336,30.409622959494925L268.312903301247,135.2885379149091L268.56226496729056,112.10675385904403L268.81162663333413,92.72582773828665L269.06098829937775,137.31392721654245L269.3103499654214,132.71367552745187L269.55971163146495,101.77284969219329L269.8090732975086,143.7506767126873L270.05843496355214,122.241535084129L270.30779662959577,130.13072903357556L270.55715829563934,147.31960888959773L270.80651996168297,121.58130067165408L271.0558816277266,112.83176476526191L271.30524329377016,128.49636951407084L271.55460495981373,119.10422811797588L271.80396662585736,132.38580930437197L272.053328291901,143.48608740752016L272.30268995794455,130.8755745021775L272.5520516239882,131.87989517176555L272.80141329003175,77.67759399921464L273.0507749560753,69.1769423370816L273.30013662211894,81.35491020545578L273.54949828816257,128.73580286789286L273.79885995420614,-52.51824188822195L274.04822162024976,137.3937772003794L274.29758328629333,23.686237478537592" fill="none"></path></g></g></g></g></g></g><g transform="translate(30, 176)" clip-path="url(#clip_1)"><clipPath id="clip_1"><rect width="299" height="23"></rect></clipPath><g><g><line x1="0" y1="0" x2="0" y2="5" style="visibility: inherit;" fill="rgb(0, 0, 0)" stroke="rgb(204, 204, 204)" stroke-width="1px"></line><line x1="24.936166604359943" y1="0" x2="24.936166604359943" y2="5" style="visibility: inherit;" fill="rgb(0, 0, 0)" stroke="rgb(204, 204, 204)" stroke-width="1px"></line><line x1="49.87233320871989" y1="0" x2="49.87233320871989" y2="5" style="visibility: inherit;" fill="rgb(0, 0, 0)" stroke="rgb(204, 204, 204)" stroke-width="1px"></line><line x1="74.80849981307983" y1="0" x2="74.80849981307983" y2="5" style="visibility: inherit;" fill="rgb(0, 0, 0)" stroke="rgb(204, 204, 204)" stroke-width="1px"></line><line x1="99.74466641743977" y1="0" x2="99.74466641743977" y2="5" style="visibility: inherit;" fill="rgb(0, 0, 0)" stroke="rgb(204, 204, 204)" stroke-width="1px"></line><line x1="124.68083302179973" y1="0" x2="124.68083302179973" y2="5" style="visibility: inherit;" fill="rgb(0, 0, 0)" stroke="rgb(204, 204, 204)" stroke-width="1px"></line><line x1="149.61699962615967" y1="0" x2="149.61699962615967" y2="5" style="visibility: inherit;" fill="rgb(0, 0, 0)" stroke="rgb(204, 204, 204)" stroke-width="1px"></line><line x1="174.55316623051962" y1="0" x2="174.55316623051962" y2="5" style="visibility: inherit;" fill="rgb(0, 0, 0)" stroke="rgb(204, 204, 204)" stroke-width="1px"></line><line x1="199.48933283487955" y1="0" x2="199.48933283487955" y2="5" style="visibility: inherit;" fill="rgb(0, 0, 0)" stroke="rgb(204, 204, 204)" stroke-width="1px"></line><line x1="224.4254994392395" y1="0" x2="224.4254994392395" y2="5" style="visibility: inherit;" fill="rgb(0, 0, 0)" stroke="rgb(204, 204, 204)" stroke-width="1px"></line><line x1="249.36166604359946" y1="0" x2="249.36166604359946" y2="5" style="visibility: inherit;" fill="rgb(0, 0, 0)" stroke="rgb(204, 204, 204)" stroke-width="1px"></line><line x1="274.29783264795935" y1="0" x2="274.29783264795935" y2="5" style="visibility: inherit;" fill="rgb(0, 0, 0)" stroke="rgb(204, 204, 204)" stroke-width="1px"></line><line x1="299.23399925231934" y1="0" x2="299.23399925231934" y2="5" style="visibility: inherit;" fill="rgb(0, 0, 0)" stroke="rgb(204, 204, 204)" stroke-width="1px"></line></g><g transform="translate(0, 8)"><text style="text-anchor: middle; visibility: hidden; font-family: Roboto, sans-serif; font-size: 12px; font-weight: 200;" x="0" y="0" dx="0em" dy="0.95em" fill="rgb(33, 33, 33)" stroke="none" stroke-width="1px">-100k</text><text style="text-anchor: middle; visibility: inherit; font-family: Roboto, sans-serif; font-size: 12px; font-weight: 200;" x="24.936166604359943" y="0" dx="0em" dy="0.95em" fill="rgb(33, 33, 33)" stroke="none" stroke-width="1px">0</text><text style="text-anchor: middle; visibility: hidden; font-family: Roboto, sans-serif; font-size: 12px; font-weight: 200;" x="49.87233320871989" y="0" dx="0em" dy="0.95em" fill="rgb(33, 33, 33)" stroke="none" stroke-width="1px">100k</text><text style="text-anchor: middle; visibility: inherit; font-family: Roboto, sans-serif; font-size: 12px; font-weight: 200;" x="74.80849981307983" y="0" dx="0em" dy="0.95em" fill="rgb(33, 33, 33)" stroke="none" stroke-width="1px">200k</text><text style="text-anchor: middle; visibility: hidden; font-family: Roboto, sans-serif; font-size: 12px; font-weight: 200;" x="99.74466641743977" y="0" dx="0em" dy="0.95em" fill="rgb(33, 33, 33)" stroke="none" stroke-width="1px">300k</text><text style="text-anchor: middle; visibility: inherit; font-family: Roboto, sans-serif; font-size: 12px; font-weight: 200;" x="124.68083302179973" y="0" dx="0em" dy="0.95em" fill="rgb(33, 33, 33)" stroke="none" stroke-width="1px">400k</text><text style="text-anchor: middle; visibility: hidden; font-family: Roboto, sans-serif; font-size: 12px; font-weight: 200;" x="149.61699962615967" y="0" dx="0em" dy="0.95em" fill="rgb(33, 33, 33)" stroke="none" stroke-width="1px">500k</text><text style="text-anchor: middle; visibility: inherit; font-family: Roboto, sans-serif; font-size: 12px; font-weight: 200;" x="174.55316623051962" y="0" dx="0em" dy="0.95em" fill="rgb(33, 33, 33)" stroke="none" stroke-width="1px">600k</text><text style="text-anchor: middle; visibility: hidden; font-family: Roboto, sans-serif; font-size: 12px; font-weight: 200;" x="199.48933283487955" y="0" dx="0em" dy="0.95em" fill="rgb(33, 33, 33)" stroke="none" stroke-width="1px">700k</text><text style="text-anchor: middle; visibility: inherit; font-family: Roboto, sans-serif; font-size: 12px; font-weight: 200;" x="224.4254994392395" y="0" dx="0em" dy="0.95em" fill="rgb(33, 33, 33)" stroke="none" stroke-width="1px">800k</text><text style="text-anchor: middle; visibility: hidden; font-family: Roboto, sans-serif; font-size: 12px; font-weight: 200;" x="249.36166604359946" y="0" dx="0em" dy="0.95em" fill="rgb(33, 33, 33)" stroke="none" stroke-width="1px">900k</text><text style="text-anchor: middle; visibility: inherit; font-family: Roboto, sans-serif; font-size: 12px; font-weight: 200;" x="274.29783264795935" y="0" dx="0em" dy="0.95em" fill="rgb(33, 33, 33)" stroke="none" stroke-width="1px">1M</text><text style="text-anchor: middle; visibility: hidden; font-family: Roboto, sans-serif; font-size: 12px; font-weight: 200;" x="299.23399925231934" y="0" dx="0em" dy="0.95em" fill="rgb(33, 33, 33)" stroke="none" stroke-width="1px">1.1M</text></g><line x1="0" y1="0" x2="299.23399925231934" y2="0" fill="rgb(0, 0, 0)" stroke="rgb(204, 204, 204)" stroke-width="1px"></line></g></g></g></g></svg>